<?xml version="1.0" encoding="UTF-8" standalone="no"?>
<!-- Created with Inkscape (http://www.inkscape.org/) -->

<svg
   xmlns:dc="http://purl.org/dc/elements/1.1/"
   xmlns:cc="http://creativecommons.org/ns#"
   xmlns:rdf="http://www.w3.org/1999/02/22-rdf-syntax-ns#"
   xmlns:svg="http://www.w3.org/2000/svg"
   xmlns="http://www.w3.org/2000/svg"
   xmlns:sodipodi="http://sodipodi.sourceforge.net/DTD/sodipodi-0.dtd"
   xmlns:inkscape="http://www.inkscape.org/namespaces/inkscape"
   width="70.783409mm"
   height="78.556229mm"
   viewBox="0 0 70.783409 78.556229"
   version="1.1"
   id="svg5527"
   inkscape:version="0.92.3 (2405546, 2018-03-11)"
   sodipodi:docname="1_expertise.svg">
  <defs
     id="defs5521">
    <linearGradient
       x1="0"
       y1="0"
       x2="1"
       y2="0"
       gradientUnits="userSpaceOnUse"
       gradientTransform="matrix(11.868408,0,0,-11.868408,146.77124,4593.354)"
       spreadMethod="pad"
       id="linearGradient2112">
      <stop
         style="stop-opacity:1;stop-color:#ed2224"
         offset="0"
         id="stop2106" />
      <stop
         style="stop-opacity:1;stop-color:#ed2224"
         offset="0.0509993"
         id="stop2108" />
      <stop
         style="stop-opacity:1;stop-color:#f36b21"
         offset="1"
         id="stop2110" />
    </linearGradient>
    <linearGradient
       x1="0"
       y1="0"
       x2="1"
       y2="0"
       gradientUnits="userSpaceOnUse"
       gradientTransform="matrix(59.702881,0,0,-59.702881,108.76245,4673.769)"
       spreadMethod="pad"
       id="linearGradient2054">
      <stop
         style="stop-opacity:1;stop-color:#ed2224"
         offset="0"
         id="stop2048" />
      <stop
         style="stop-opacity:1;stop-color:#ed2224"
         offset="0.0509993"
         id="stop2050" />
      <stop
         style="stop-opacity:1;stop-color:#f36b21"
         offset="1"
         id="stop2052" />
    </linearGradient>
    <clipPath
       clipPathUnits="userSpaceOnUse"
       id="clipPath2064-6">
      <path
         d="M 0,11771.282 H 1800.001 V 0 H 0 Z"
         id="path2062-8"
         inkscape:connector-curvature="0" />
    </clipPath>
    <clipPath
       clipPathUnits="userSpaceOnUse"
       id="clipPath2006-0">
      <path
         d="M 0,11771.282 H 1800.001 V 0 H 0 Z"
         id="path2004-1"
         inkscape:connector-curvature="0" />
    </clipPath>
  </defs>
  <sodipodi:namedview
     id="base"
     pagecolor="#ffffff"
     bordercolor="#666666"
     borderopacity="1.0"
     inkscape:pageopacity="0.0"
     inkscape:pageshadow="2"
     inkscape:zoom="0.7"
     inkscape:cx="39.093107"
     inkscape:cy="177.15642"
     inkscape:document-units="mm"
     inkscape:current-layer="layer1"
     showgrid="false"
     inkscape:window-width="1366"
     inkscape:window-height="705"
     inkscape:window-x="-8"
     inkscape:window-y="-8"
     inkscape:window-maximized="1"
     borderlayer="false"
     fit-margin-top="0"
     fit-margin-left="0"
     fit-margin-right="0"
     fit-margin-bottom="0" />
  <metadata
     id="metadata5524">
    <rdf:RDF>
      <cc:Work
         rdf:about="">
        <dc:format>image/svg+xml</dc:format>
        <dc:type
           rdf:resource="http://purl.org/dc/dcmitype/StillImage" />
        <dc:title></dc:title>
      </cc:Work>
    </rdf:RDF>
  </metadata>
  <g
     inkscape:label="Calque 1"
     inkscape:groupmode="layer"
     id="layer1"
     transform="translate(-55.701163,-66.841511)">
    <g
       id="g9292"
       transform="translate(9.449405,-2.6458335)">
      <path
         d="m 86.521339,111.29889 c 0.6858,-0.47343 0.754592,-1.15676 0.682977,-1.86796 -0.05327,-0.52634 -0.302332,-0.93556 -1.064332,-1.13488 0.8255,1.01917 0.364067,2.02106 0.381355,3.00284 M 108.47435,89.261222 c -0.40958,0.008 -0.76941,0.36653 -0.77929,0.77646 -0.0106,0.44097 0.38735,0.83326 0.8195,0.80751 0.41346,-0.0247 0.74648,-0.39194 0.73449,-0.81069 -0.012,-0.41698 -0.37748,-0.78069 -0.7747,-0.77328 M 92.763034,115.55621 c 0.109361,-0.01 0.239536,-0.006 0.360892,-0.0356 0.366535,-0.0896 0.753885,-0.14217 0.99554,-0.4893 0.0762,-0.10936 0.127,-0.2219 0.05256,-0.34996 -0.07126,-0.12135 -0.164745,-0.16686 -0.312208,-0.1083 -0.610304,0.24342 -1.231546,0.25224 -1.863019,0.0815 -0.177093,-0.0483 -0.362654,-0.0476 -0.442735,0.17004 -0.07408,0.20179 0.04092,0.34467 0.187325,0.45121 0.297037,0.21942 0.64417,0.27798 1.021643,0.28045 m -6.6548,-5.51533 c 0.0113,-1.04386 -0.360537,-1.6958 -1.061153,-1.95474 -0.134763,-0.0497 -0.333375,-0.14957 -0.410634,0.0275 -0.129823,0.29739 -0.276225,0.62618 -0.264937,0.93628 0.0081,0.22789 0.370416,0.20814 0.579966,0.28328 0.409575,0.14534 0.742598,0.42016 1.156758,0.70767 m 6.715477,4.19065 c 0.248005,-0.0173 0.5842,0.0212 0.885825,-0.16158 0.203555,-0.12312 0.418042,-0.26035 0.329142,-0.53093 -0.09208,-0.28116 -0.318558,-0.23918 -0.568325,-0.18485 -0.50165,0.1083 -1.010708,0.127 -1.498245,-0.091 -0.200732,-0.0896 -0.391936,-0.13159 -0.519642,0.10759 -0.140758,0.26247 0.01236,0.43815 0.20179,0.5835 0.320675,0.24624 0.705553,0.2667 1.169455,0.27728 m -0.0575,2.67335 c 0.419451,-0.0981 0.902406,-0.0533 1.254125,-0.41275 0.124883,-0.12771 0.251176,-0.26952 0.150283,-0.46672 -0.102307,-0.20038 -0.292452,-0.19191 -0.463198,-0.13335 -0.543984,0.18803 -1.099609,0.17744 -1.650294,0.0811 -0.233537,-0.0413 -0.40146,-0.036 -0.49036,0.19508 -0.08996,0.23495 0.05609,0.381 0.232833,0.49883 0.286454,0.19085 0.620887,0.19297 0.966611,0.23777 m -0.140407,-5.91044 c -0.159102,0.0621 -0.329142,0.10266 -0.472017,0.18944 -0.342545,0.20744 -0.602189,0.48648 -0.54116,0.92463 0.05997,0.43251 0.377473,0.62548 0.758473,0.75918 0.384175,0.13512 0.748946,0.042 1.121834,-0.0392 0.278693,-0.0607 0.63641,-0.12135 0.627237,-0.43533 -0.01024,-0.34536 -0.383469,-0.32455 -0.660752,-0.3503 -0.275873,-0.0247 -0.599017,0.0744 -0.816327,-0.0984 -0.286808,-0.22719 0.125942,-0.50236 0.04092,-0.76976 -0.01516,-0.0473 -0.03069,-0.0942 -0.05821,-0.18028 m -4.787193,-1.30704 c 0.883356,-0.34748 1.405466,-0.98601 1.601964,-1.893 0.06879,-0.31609 0.01236,-0.63112 -0.315383,-0.78035 -0.276931,-0.127 -0.483658,0.066 -0.6604,0.25612 -0.326673,0.35207 -0.541515,0.80469 -0.967317,1.06715 -0.112183,0.0699 -0.09172,0.16157 -0.03104,0.25718 0.20955,0.32667 0.20602,0.72884 0.372178,1.0929 m -29.002569,1.9932 c -0.33584,-0.73519 -0.22472,-1.3649 0.0586,-1.99002 0.11466,-0.25189 0.20603,-0.51859 0.27446,-0.7874 0.0801,-0.31362 0.007,-0.60149 -0.23918,-0.83361 -0.23072,-0.21732 -0.50094,-0.22684 -0.78281,-0.15382 -0.2914,0.0759 -0.27129,0.30939 -0.2794,0.54716 -0.0113,0.32985 -0.11924,0.64417 -0.21872,0.96062 -0.34608,1.09749 -0.0261,1.73954 1.18709,2.25707 m 17.668173,-6.99065 c -0.910521,-1.41746 -1.736373,-2.70368 -2.595033,-4.04036 -0.09102,0.1584 -0.159105,0.22225 -0.159809,0.28645 -0.01164,1.14089 -0.0141,2.28213 -0.02082,3.42301 -0.0013,0.27481 0.165806,0.33267 0.397227,0.33232 0.734483,-0.004 1.469321,0 2.378429,0 m -10.929407,9.09284 c 0,-0.81527 -0.003,-1.62948 0.001,-2.44404 0.001,-0.31186 -0.0632,-0.61031 -0.18944,-0.89077 -0.19156,-0.42721 -0.508,-0.69179 -0.99625,-0.71261 -0.51541,-0.0212 -0.87524,0.20955 -1.10737,0.66217 -0.24553,0.48048 -0.19226,0.99165 -0.16192,1.50001 0.008,0.13934 0.0804,0.23354 0.2159,0.28257 0.88794,0.31679 1.54869,0.93239 2.23802,1.60267 m -0.11853,-9.23078 c -1.31622,-1.46015 -2.46627,-2.84304 -3.78002,-4.10669 -0.0769,1.27564 -0.0762,2.51213 -0.0773,3.74897 0,0.20355 0.0653,0.3556 0.29422,0.35631 1.13206,0.004 2.26413,0 3.56305,0 m 5.86352,-1.38889 c 0.591964,2.44651 1.190275,4.92019 1.788586,7.39316 0.04198,-0.007 0.08396,-0.0145 0.125942,-0.0215 v -0.83044 c 0,-2.82539 0.0067,-5.65114 -0.0056,-8.47689 -0.0021,-0.47273 0.235302,-1.09608 -0.116416,-1.379368 -0.326673,-0.26176 -0.927807,-0.0723 -1.40829,-0.0635 -0.06491,0 -0.09913,0.0243 -0.109012,0.1711 0.03634,0.0861 0.101251,0.247298 0.170748,0.406398 0.264936,0.60572 0.534106,1.20933 0.796572,1.81504 0.3302,0.762 0.298802,0.80963 -0.50165,0.84385 -0.223308,0.0102 -0.4572,-0.0441 -0.74083,0.14217 m 10.410822,6.29249 c 0.638881,-0.24094 1.152173,-0.37535 1.692275,-0.34501 0.242358,0.0138 0.365831,-0.0938 0.44309,-0.31715 0.64276,-1.85385 0.747887,-3.72533 0.171095,-5.6141 -0.09595,-0.31398 -0.2667,-0.60149 -0.561268,-0.79375 -0.582436,-0.37959 -1.129949,-0.14182 -1.227667,0.54574 -0.0508,0.35772 0.01553,0.70838 0.09067,1.05763 0.203552,0.9525 0.25682,1.90465 0.122412,2.87796 -0.118534,0.85796 -0.413102,1.65947 -0.730602,2.58868 m -9.56063,-6.90598 c -0.395112,-0.9017 -0.727427,-1.69616 -1.091497,-2.47615 -0.18133,-0.388758 -1.11583,-0.456838 -1.28305,-0.0861 -0.3683,0.81774 -0.68086,1.65982 -1.04951,2.57528 0.33619,0 0.53833,0.003 0.74012,0 0.33796,-0.005 0.45685,0.1711 0.40323,0.48648 -0.03,0.17568 -0.0653,0.34996 -0.10407,0.52387 -0.26247,1.16629 -0.51329,2.33575 -0.79657,3.49674 -0.0952,0.39123 -0.007,0.66816 0.26105,0.96308 1.04458,1.14935 2.06269,2.32339 3.09986,3.48015 0.149578,0.16687 0.267053,0.39653 0.583142,0.47978 -0.547511,-2.26836 -1.078089,-4.46616 -1.609022,-6.66432 -0.17921,-0.74119 -0.37288,-1.47991 -0.53446,-2.22533 -0.0875,-0.40534 0.003,-0.5154 0.40323,-0.54856 0.27728,-0.0229 0.557741,-0.004 0.977547,-0.004 m 12.968815,10.00125 c -0.256468,-0.14464 -0.531283,-0.27623 -0.780695,-0.44592 -0.433213,-0.29492 -0.842788,-0.35489 -1.223788,0.067 -0.162629,0.17956 -0.33161,0.12806 -0.462137,0.007 -0.160163,-0.14816 0.01024,-0.27975 0.09807,-0.3817 0.455083,-0.52917 1.097846,-0.55316 1.918055,-0.0854 0.497062,0.28327 0.761293,0.28398 1.033637,0.005 0.282223,-0.29105 0.305154,-0.70979 0.0568,-1.12819 -0.263173,-0.44308 -0.68439,-0.68333 -1.15429,-0.82197 -1.786467,-0.52423 -3.321402,0.12065 -4.354687,1.78541 -0.0829,0.1337 -0.120298,0.27552 -0.119946,0.43321 0.0024,0.96802 0.0113,1.93569 -0.0046,2.90301 -0.0053,0.31221 0.12841,0.39476 0.407458,0.39264 0.789165,-0.008 1.578681,-0.004 2.367843,-0.004 0.212725,0 0.361247,-0.0183 0.447675,-0.28646 0.20955,-0.64699 0.668867,-1.13135 1.17828,-1.56492 0.273754,-0.23283 0.54751,-0.46002 0.592312,-0.87559 m -4.991452,7.02027 v 0.84067 c 0,0.84138 -0.0081,1.68275 0.0039,2.52378 0.006,0.43144 0.09666,0.50447 0.493535,0.42862 0.197908,-0.0378 0.393348,-0.10795 0.57785,-0.19085 0.855485,-0.38453 1.41464,-1.06327 1.828448,-1.8789 0.789517,-1.55575 1.049512,-3.23426 1.126418,-4.95123 0.02117,-0.47131 -0.02188,-0.50976 -0.531283,-0.51682 -0.993775,-0.013 -1.988256,0.007 -2.982031,-0.0102 -0.403577,-0.007 -0.528812,0.15557 -0.522462,0.54292 0.01765,1.07069 0.006,2.14137 0.0056,3.21205 M 69.2878,99.818452 h -7.33285 c 2.18828,2.465208 4.29437,4.837638 6.48124,7.300028 0.36794,-1.38007 0.64029,-2.65254 0.88723,-3.91196 -0.26105,-0.1778 -0.49847,-0.096 -0.72072,-0.12276 -0.45509,-0.055 -0.52988,-0.1584 -0.37748,-0.59796 0.11677,-0.33655 0.26635,-0.66146 0.39864,-0.99307 0.21484,-0.53799 0.42757,-1.07774 0.66393,-1.674278 M 65.5113,115.71285 c -0.15098,-1.77553 -1.68733,-3.03601 -3.02577,-3.24273 -0.58632,-0.0907 -1.16734,-0.0914 -1.75366,-0.0984 -0.45861,-0.006 -0.92181,0.0187 -1.37548,-0.0353 -1.63089,-0.19156 -2.9217,-1.50531 -2.15018,-3.21487 0.11677,-0.25894 0.16122,-0.53939 0.11712,-0.82338 -0.0691,-0.44697 -0.34678,-0.59655 -0.76306,-0.4251 -0.2667,0.11042 -0.47342,0.29493 -0.65969,0.50836 -1.74272,2.00166 -0.77329,5.13397 1.79246,5.81342 0.42616,0.11289 0.85584,0.11642 1.28729,0.1524 0.67733,0.0564 1.25942,0.28646 1.41323,1.04563 0.0526,0.26 0.17603,0.32385 0.41381,0.3228 1.55575,-0.006 3.11079,-0.003 4.70393,-0.003 m 34.9497,-8.98634 c -0.019,-0.049 -0.0378,-0.097 -0.0564,-0.14605 h -2.336446 c -1.453092,0 -2.906538,0.006 -4.35963,-0.004 -0.379587,-0.003 -0.557035,0.12065 -0.54257,0.52987 0.02363,0.68757 0.0064,1.3769 0.006,2.06587 0,0.61172 0.01164,1.22343 -0.0042,1.8355 -0.0095,0.35737 0.06068,0.60502 0.490363,0.57609 0.09983,-0.007 0.205317,0.009 0.302684,0.0342 0.60325,0.1584 0.809976,0.56656 0.586316,1.14935 -0.0441,0.1143 -0.1397,0.19932 -0.135466,0.34325 0.024,0.79693 0.511878,1.58115 0.06597,2.39642 -0.02611,0.048 0.102658,0.16793 0.135115,0.26247 0.176035,0.51752 0.06279,0.87701 -0.375357,1.20438 -0.207081,0.15417 -0.43956,0.25224 -0.695676,0.29916 -0.265642,0.0487 -0.375005,0.20778 -0.372534,0.48507 0.0099,1.07068 0.0081,2.14206 0.0019,3.21274 -0.0019,0.28399 0.102659,0.42228 0.40005,0.41558 0.433213,-0.01 0.86713,0 1.30034,-0.004 0.695325,-0.005 0.698148,-0.007 0.701675,-0.72285 0.01024,-1.9879 -0.0049,-3.97686 0.03352,-5.96547 0.02963,-1.5434 0.530225,-2.94499 1.440743,-4.19841 0.691444,-0.95214 1.495073,-1.80516 2.317044,-2.6423 0.367596,-0.37395 0.731309,-0.75318 1.096789,-1.12924 m 8.01687,-23.090368 c 0.12841,0 0.18204,0.013 0.22613,-0.004 2.09727,-0.71719 3.38491,-2.18616 3.70347,-4.35469 0.32385,-2.20203 -0.48225,-4.03895 -2.35797,-5.27226 -1.85949,-1.22308 -3.83752,-1.25624 -5.78767,-0.18274 -0.73766,0.40605 -1.29787,1.02694 -1.61008,1.86055 4.02449,1.14724 5.92384,3.80542 5.82612,7.95126 m -7.66004,-7.45746 c -1.252361,-0.0847 -2.49414,0.13229 -3.633965,0.78352 -1.833386,1.04669 -2.978502,2.59221 -3.315052,4.69512 -0.08149,0.50976 0.03845,0.59937 0.535868,0.43603 0.841375,-0.27552 1.553988,-0.75318 2.12584,-1.43263 0.498123,-0.59161 0.860425,-1.25801 1.1049,-1.99249 0.05997,-0.18062 0.06738,-0.45473 0.326673,-0.46179 0.300212,-0.008 0.311502,0.28399 0.390171,0.49001 0.09031,0.23777 0.170746,0.47943 0.261763,0.7172 1.384651,3.61174 5.051072,5.5178 8.831082,4.6041 0.28858,-0.0695 0.45015,-0.17215 0.46743,-0.48789 0.11254,-2.05176 -0.38135,-3.89643 -1.8549,-5.39503 -1.42487,-1.44815 -3.17535,-2.06481 -5.23981,-1.95615 m -25.132594,-5.92808 c -0.146402,-0.0448 -0.237067,0.0681 -0.33796,0.133 -1.61925,1.03399 -3.394076,1.28481 -5.275436,1.11336 -1.62772,-0.14887 -3.21416,-0.52987 -4.8253,-0.76764 -1.29011,-0.19015 -2.58339,-0.29281 -3.8795,-0.0247 -4.99004,1.03188 -7.53956,6.56908 -5.08493,11.05606 0.15733,0.28716 0.26528,0.65793 0.57079,0.79022 0.26141,0.11289 0.49495,-0.18732 0.75318,-0.27763 1.10419,-0.38735 1.61678,-0.21837 2.20063,0.762 0.34325,0.57538 0.69285,1.14723 1.03963,1.7212 0.0522,-0.0159 0.10443,-0.0317 0.15628,-0.0483 0,-0.29492 3.5e-4,-0.58914 0,-0.88477 0,-1.98967 -0.0205,-3.98039 0.005,-5.97111 0.0282,-2.21933 1.78153,-3.57188 3.92078,-3.07623 0.57608,0.133 1.1116,0.36019 1.64606,0.59867 0.90911,0.40499 1.83374,0.77364 2.82398,0.9151 1.3395,0.19015 2.588687,-0.0222 3.664306,-0.91863 0.172508,-0.14393 0.357365,-0.51047 0.605367,-0.17992 0.212725,0.28328 -0.151342,0.42863 -0.316442,0.58914 -0.421923,0.41134 -0.990599,0.5962 -1.539169,0.91511 0.666398,0.65193 1.131711,1.39876 1.582561,2.15406 2.926643,-2.14701 3.767314,-5.78168 2.290233,-8.59896 m 22.311783,9.10519 c -0.09313,0.14253 -0.141816,0.20179 -0.174625,0.26953 -0.766588,1.57762 -1.958623,2.65747 -3.680179,3.08257 -0.376412,0.0924 -0.386996,0.30198 -0.386292,0.60007 0.0063,2.37384 -0.0028,4.74733 0.0053,7.12118 0.0127,3.64137 2.813404,6.50628 6.452307,6.59659 0.38841,0.009 0.76694,0.0564 1.12853,0.17356 2.40913,0.77929 4.0132,3.139368 2.72204,5.948888 -0.42122,0.91723 -1.02129,1.70357 -1.72544,2.41583 -0.69956,0.70767 -1.41005,1.40511 -2.10855,2.11384 -0.12453,0.1263 -0.355954,0.24342 -0.16475,0.48366 0.17957,0.006 0.29316,-0.10336 0.41205,-0.19614 2.36714,-1.85985 4.73039,-3.72357 7.10494,-5.57354 0.27411,-0.21378 0.36195,-0.44909 0.36089,-0.7814 -0.008,-3.292828 -0.008,-6.585658 0,-9.877778 8e-4,-0.30374 -0.0639,-0.53128 -0.32349,-0.72073 -0.254,-0.1852 -0.36689,-0.47131 -0.41946,-0.78881 -0.0695,-0.4191 0.15522,-0.97931 0.52705,-1.22237 0.49495,-0.32385 1.016,-0.32667 1.50142,0.006 0.14323,0.0984 0.26565,0.22719 0.393,0.33831 1.8101,-0.84561 2.02953,-3.58634 0.18133,-4.72616 -0.90876,-0.56092 -1.6958,-0.41628 -2.34386,0.42721 -0.10759,0.1397 -0.17427,0.31433 -0.29351,0.44097 -0.0921,0.0984 -0.2413,0.066 -0.35419,0 -0.11324,-0.0656 -0.067,-0.17638 -0.0441,-0.2734 0.0466,-0.19861 0.23777,-0.33584 0.23636,-0.60501 -0.83891,0.16051 -1.67428,0.13829 -2.50896,0.0159 -1.56421,-0.22966 -3.04623,-0.69462 -4.23156,-1.77906 -0.793402,-0.72566 -1.618902,-0.9077 -2.585161,-0.49354 -0.220837,0.0952 -0.339018,0.031 -0.419803,-0.15346 -0.09031,-0.20602 0.09878,-0.25364 0.220133,-0.31961 0.470604,-0.25788 1.00471,-0.27305 1.583267,-0.34396 -0.406049,-0.71861 -0.735542,-1.403 -1.064684,-2.17876 m -25.98382,15.42975 c -0.166511,0.10548 -0.237419,0.13653 -0.290689,0.18627 -1.701443,1.5942 -3.727093,2.23979 -6.032503,2.05176 -0.66322,-0.0536 -1.30281,-0.22261 -1.92616,-0.45544 -0.14958,-0.0564 -0.2025,-0.15028 -0.15946,-0.28857 0.0388,-0.127 0.12136,-0.23284 0.27728,-0.1972 0.12277,0.0289 0.23919,0.0854 0.3609,0.12135 1.16452,0.34325 2.33327,0.44767 3.54718,0.23001 3.0801,-0.55033 5.597522,-3.26919 5.746747,-6.3941 0.132996,-2.77883 0.0829,-5.56295 0.01659,-8.3439 -0.03457,-1.44885 -0.581377,-2.72767 -1.442155,-3.88055 -0.487539,-0.65405 -0.998712,-1.2506 -1.950152,-0.97226 -0.0466,0.0138 -0.1016,-0.004 -0.1524,-0.004 -1.17299,-0.007 -2.2479,-0.39828 -3.30588,-0.85019 -0.72461,-0.30939 -1.43228,-0.65793 -2.22568,-0.7807 -1.09643,-0.16933 -2.09691,0.31785 -2.62714,1.2894 -0.26705,0.48895 -0.31961,1.01212 -0.31891,1.55363 0.003,2.45075 0.002,4.9015 7.2e-4,7.3526 -3.5e-4,0.2032 0.0109,0.41275 -0.0296,0.60889 -0.0515,0.25012 -0.28364,0.29986 -0.45332,0.0995 -0.11395,-0.1344 -0.19156,-0.29986 -0.28258,-0.45296 -0.4826,-0.81033 -0.96379,-1.62172 -1.44639,-2.43205 -0.38982,-0.65476 -0.63429,-0.74895 -1.36454,-0.52776 -1.19627,0.36301 -1.87078,1.46615 -1.62807,2.66347 0.24906,1.23014 1.27564,1.94169 2.59503,1.79846 0.0596,-0.15275 -0.001,-0.29915 -0.03,-0.44591 -0.0307,-0.15628 0.0307,-0.23671 0.18345,-0.26387 0.13864,-0.024 0.26493,0 0.31397,0.14075 0.0413,0.11783 0.0427,0.25012 0.0642,0.37465 0.66569,3.89502 1.33138,7.79004 1.99743,11.68436 0.10442,0.61066 0.10513,0.61736 0.72108,0.61877 2.32269,0.003 4.64643,0.0332 6.96877,-0.0124 1.1744,-0.0233 2.34597,0.0296 3.518957,0.0187 0.316795,-0.003 0.498828,-0.0628 0.403223,-0.43004 -0.346075,-1.32821 -0.687914,-2.65818 -1.049864,-4.06047 M 81.64677,143.10911 H 47.80268 c -0.23001,0 -0.45967,0.004 -0.68933,0.004 -0.20849,-0.004 -0.33585,0.0681 -0.33408,0.30515 0.007,0.94404 -0.0314,1.89054 0.0226,2.83175 0.0427,0.74083 0.57008,1.17969 1.31938,1.22026 0.22896,0.0124 0.45932,0.004 0.68898,0.004 h 65.69745 c 0.17851,0 0.35772,0.004 0.53622,-0.003 0.92322,-0.0296 1.39877,-0.48648 1.43475,-1.42417 0.0257,-0.66216 0.007,-1.32715 0.007,-1.99001 0,-0.94651 -7.9e-4,-0.94721 -0.91793,-0.94721 z m 26.81393,-22.48817 c 0.36971,0.0233 0.647,-0.004 0.92252,-0.0642 6.7758,-1.51377 8.72066,-9.09426 4.81083,-13.77562 -1.5233,-1.82457 -3.43465,-3.09245 -5.58765,-4.04036 -0.36513,-0.16122 -0.6096,-0.0455 -0.89041,0.17638 -3.36444,2.65466 -6.73382,5.30402 -10.108498,7.94562 -0.351719,0.27587 -0.605719,0.6029 -0.802217,1.00048 -0.58067,1.17404 -0.74295,2.42887 -0.745066,3.71545 -0.0056,2.83316 -0.0021,5.66632 -0.0021,8.49806 0,0.12842 0.0063,0.25577 -2.65e-4,0.38312 -0.01236,0.22966 0.09631,0.32068 0.318559,0.31151 0.178152,-0.007 0.35701,0 0.535868,0 h 9.953979 c 0.22966,0 0.46108,-0.0166 0.68898,0.004 0.31785,0.0268 0.39863,-0.13582 0.38452,-0.41064 -0.009,-0.1785 -0.001,-0.35771 -0.001,-0.53622 0,-4.51697 -2.6e-4,-9.03429 2.7e-4,-13.55231 0,-0.20391 0.002,-0.40852 0.0124,-0.61172 0.008,-0.15028 0.0963,-0.22189 0.24871,-0.21978 0.14534,0 0.24447,0.0543 0.25082,0.21273 0.007,0.1778 0.009,0.35701 0.009,0.53551 8e-4,1.19945 2.7e-4,2.39925 2.7e-4,3.59869 v 1.47814 c 1.0481,-0.13053 1.70215,-0.67134 2.1149,-1.52823 0.18874,-0.39159 0.30304,-0.81104 0.34713,-1.24672 0.013,-0.12524 0.0134,-0.26458 0.18027,-0.28998 0.28222,-0.0441 0.36054,0.0991 0.3295,0.3563 -0.1397,1.15323 -0.71261,2.76437 -2.55165,3.15419 -0.31079,0.0663 -0.42791,0.17639 -0.42509,0.49424 0.0124,1.45239 0.005,2.90406 0.005,4.41184 m -61.68031,9.10664 c 0.32984,0.14252 0.64029,0.0818 0.94156,0.0818 22.62152,0.004 45.243044,0.004 67.86457,0.004 0.1531,0 0.30762,-0.0116 0.45931,0.003 0.32209,0.031 0.45473,-0.0875 0.44486,-0.42722 -0.0198,-0.68897 -0.0363,-1.38006 7.9e-4,-2.06763 0.0847,-1.5688 -0.50518,-2.03412 -2.02036,-2.0327 -21.88104,0.0201 -43.76208,0.0138 -65.64312,0.0138 -0.23001,0 -0.46038,-0.009 -0.68933,0.008 -0.8262,0.0632 -1.3215,0.53304 -1.35008,1.36807 -0.0349,1.01917 -0.008,2.03976 -0.008,3.04976 m 15.30058,-4.96073 h 0.52388 16.313148 c 0.101954,0 0.204965,-0.009 0.306213,0 0.341135,0.0293 0.445203,-0.14288 0.433916,-0.45897 -0.01482,-0.43356 -0.0028,-0.86677 -0.0028,-1.30175 0,-5.64162 0.01622,-11.28324 -0.0078,-16.92557 -0.01058,-2.47156 -1.101725,-4.36174 -3.276248,-5.57989 -0.681919,-0.38241 -1.414992,-0.631818 -2.230615,-0.645578 0.04233,0.346078 0.250825,0.549278 0.39864,0.781408 0.780343,1.22801 1.570918,2.44898 2.349148,3.67735 0.143227,0.22613 0.435679,0.45755 0.261054,0.74401 -0.166862,0.27375 -0.51435,0.14958 -0.785284,0.15734 -0.510116,0.0138 -1.021291,-0.004 -1.531408,0.008 -0.157692,0.004 -0.363712,-0.0875 -0.478367,0.19967 0.762707,0.76024 1.537759,1.53176 2.311049,2.30434 0.125941,0.12595 0.251883,0.25295 0.365831,0.38912 0.07338,0.0875 0.05362,0.19085 -0.02082,0.27552 -0.0949,0.10759 -0.20955,0.14957 -0.331258,0.0512 -0.118533,-0.0963 -0.228952,-0.2032 -0.337608,-0.3108 -0.670984,-0.66499 -1.337027,-1.33456 -2.013657,-1.99319 -0.135112,-0.13159 -0.230716,-0.34925 -0.486833,-0.31221 -0.137229,0.23989 -0.07161,0.49882 -0.07232,0.74542 -0.0063,1.96603 0.0032,3.9317 -0.01024,5.89738 -0.0024,0.31009 0.173215,0.74966 -0.203904,0.89641 -0.382765,0.14887 -0.547158,-0.29915 -0.752829,-0.52916 -2.073628,-2.32269 -4.132788,-4.65844 -6.200778,-6.98677 -0.10407,-0.11712 -0.15698,-0.33196 -0.41804,-0.2734 -0.15416,0.69038 -0.29069,1.391 -0.47484,2.07962 -0.0741,0.27905 0.048,0.84173 -0.40216,0.74331 -0.52212,-0.1136 -0.14076,-0.59055 -0.0889,-0.89077 0.13405,-0.7754 0.31855,-1.54164 0.48083,-2.30082 -0.28928,-0.14534 -0.54892,-0.0903 -0.8001,-0.0924 -0.89358,-0.007 -1.78717,0 -2.68076,-0.004 -1.11865,-0.003 -1.15852,0.16263 -1.15005,-1.1818 0.007,-1.17475 0.007,-2.3488 -7.2e-4,-3.52355 -0.004,-0.615948 -0.0363,-0.645578 -0.65722,-0.615238 -0.30445,0.0152 -0.60713,0.0737 -0.91123,0.10865 -4.26085,0.489308 -7.37552,2.637018 -9.30416,6.469238 -1.38641,2.75626 -1.87078,5.71465 -1.75754,8.76371 0.0889,2.39924 0.9578,4.54272 2.59327,6.31472 2.55235,2.76507 5.69842,3.83928 9.416,3.11714 2.24931,-0.43674 3.7465,-1.76177 4.49615,-3.92041 0.43039,-1.23896 0.60783,-2.5266 0.63817,-3.83435 0.0141,-0.60713 0.002,-0.61383 -0.64593,-0.61665 -1.25095,-0.006 -2.5019,-0.003 -3.75285,0 -0.91264,0 -0.91264,0 -1.0922,0.8763 -0.32385,1.57868 -1.18745,2.38619 -2.72592,2.54741 -1.89018,0.19826 -3.62161,-1.65383 -3.23532,-3.45828 0.0303,-0.14112 0.10371,-0.23143 0.25153,-0.23566 0.14076,-0.005 0.25506,0.0533 0.27305,0.20532 0.0243,0.20179 0.0162,0.40851 0.0466,0.60925 0.13123,0.8576 0.38805,1.65346 1.22167,2.09585 1.38006,0.73236 3.03918,0.0519 3.53659,-1.43299 0.10689,-0.31926 0.15487,-0.64381 0.17075,-0.97649 0.01,-0.20178 0.01,-0.39899 0.0974,-0.59654 0.2166,-0.49072 0.10301,-0.73307 -0.4064,-0.88477 -0.31786,-0.0946 -0.64947,-0.11924 -0.98178,-0.14534 -1.71486,-0.13794 -2.94817,-1.02341 -3.55988,-2.60103 -0.61454,-1.58362 -0.26282,-3.06282 0.88053,-4.33141 0.24306,-0.26917 0.55809,-0.5401 0.90346,-0.53446 0.71261,0.0116 1.43193,0.0219 2.13713,0.0723 0.77117,0.055 1.19204,0.90241 0.97155,1.69686 -0.12241,0.44027 -0.33973,0.85373 -0.47061,1.29258 -0.23177,0.77823 0.24942,1.45521 1.05693,1.48837 0.63711,0.0254 1.27635,0.003 1.91417,0.0124 0.25012,0.004 0.37359,-0.0762 0.37747,-0.34572 0.004,-0.27905 0.0222,-0.56304 0.0797,-0.83573 0.20355,-0.96203 0.88336,-1.54199 1.74696,-1.51448 0.84067,0.0254 1.44744,0.59302 1.65276,1.53706 0.14323,0.65687 0.0988,1.3215 0.0896,1.98366 -0.0116,0.89289 -0.12524,1.79353 -0.037,2.67547 0.13688,1.36772 0.003,2.70581 -0.25576,4.03225 -0.44027,2.25566 -1.47955,4.12044 -3.64773,5.17313 -0.0166,0.008 -0.0226,0.0377 -0.0953,0.16899 m 19.48992,17.77576 c 11.332279,0 22.66456,0 33.99649,0 0.97825,0 0.89359,0.0794 0.89429,-0.91899 0.002,-3.39477 0.004,-6.78885 -7.9e-4,-10.18363 -0.002,-1.19345 0.12664,-1.07774 -1.0534,-1.07774 -22.511455,-0.004 -45.02256,0 -67.53401,0 -0.20426,0 -0.40852,0.008 -0.61243,0.003 -0.32949,-0.009 -0.4572,0.16193 -0.44591,0.47273 0.005,0.12664 -10e-4,0.2547 -10e-4,0.38241 0,3.49673 -7e-4,6.99346 7.1e-4,10.4902 3.5e-4,0.83114 0.004,0.83114 0.83608,0.83502 0.12771,0 0.25541,0 0.38277,0 z m 18.006497,-34.19122 c -0.384881,0.24624 -0.638881,0.61137 -0.893233,0.98319 0.378529,-0.24024 0.776462,-0.44837 1.059743,-0.8075 0.04057,-0.0282 0.0889,-0.0487 0.119944,-0.0854 0.07267,-0.084 0.255409,-0.14958 0.166159,-0.27623 -0.132292,-0.18874 -0.246238,-0.003 -0.35313,0.0773 -0.03845,0.0289 -0.06668,0.0716 -0.09948,0.10865 m -38.6175,-9.097808 c 0.012,-0.8068 -0.19932,-1.54622 -0.32314,-2.29305 -0.48401,-2.91712 -1.00295,-5.82895 -1.49013,-8.74642 -0.0603,-0.36019 -0.14711,-0.52776 -0.56127,-0.51329 -2.18546,0.0751 -3.64914,-2.37843 -2.3495,-4.36633 0.2353,-0.35948 0.055,-0.54787 -0.10337,-0.80328 -1.38536,-2.23731 -1.71168,-4.61645 -0.85866,-7.112 1.06398,-3.11432 4.11163,-5.28567 7.39846,-5.3661 1.62207,-0.0402 3.19722,0.25612 4.77731,0.54963 1.45627,0.27093 2.91606,0.50235 4.407962,0.39158 1.273527,-0.0953 2.446161,-0.45473 3.473096,-1.24037 0.5207,-0.39828 0.601488,-0.38029 0.873831,0.23495 1.2446,2.80988 0.911932,5.85823 -1.371952,8.29981 -0.277989,0.29774 -0.579966,0.57679 -0.896408,0.83255 -0.231423,0.18662 -0.308681,0.37148 -0.20814,0.65723 0.369359,1.05233 0.412398,2.14559 0.4064,3.24732 -0.0113,1.99143 -0.0141,3.98392 0,5.97535 0.0127,1.78505 -0.40005,3.43817 -1.464733,4.89408 -0.182386,0.25012 -0.226836,0.47731 -0.146403,0.77858 0.361245,1.35396 0.705909,2.71251 1.042459,4.07282 0.0896,0.3623 0.252942,0.53305 0.658636,0.57044 3.485443,0.3168 5.991931,3.392668 5.93866,6.564848 -0.02082,1.22519 -0.0046,2.45145 -0.0021,3.67735 2.65e-4,0.2032 -0.0074,0.41134 0.03211,0.60854 0.0381,0.19227 0.201787,0.23142 0.339725,0.10936 0.130878,-0.11641 0.232833,-0.27128 0.323495,-0.42368 1.038225,-1.73708 1.380773,-3.6001 1.005771,-5.59153 -0.0568,-0.30021 -0.128413,-0.60008 -0.164041,-0.90311 -0.08572,-0.72708 0.249766,-1.37724 0.8001,-1.59032 0.597252,-0.23072 1.307041,0.0222 1.729668,0.63817 0.449085,0.65441 0.54751,1.42134 0.63359,2.18052 0.0896,0.78846 0.101952,1.5875 -0.02646,2.3682 -0.06738,0.40922 0.08537,0.52564 0.410985,0.65405 0.57785,0.22789 1.19874,0.14252 1.786115,0.29633 0.20602,0.0536 0.370416,-0.14005 0.500237,-0.30198 0.175331,-0.21907 0.331258,-0.45402 0.518583,-0.66216 0.415925,-0.46038 0.95109,-0.61736 1.36384,-0.38594 0.488598,0.27446 0.605718,0.7366 0.534106,1.25271 -0.144639,1.04246 -0.725664,1.79282 -1.65735,2.2345 -0.397933,0.18874 -0.637471,0.40605 -0.757414,0.83926 -0.149577,0.54081 -0.501299,0.90134 -1.095375,1.0541 -0.403577,0.10477 -0.765175,0.3369 -0.814917,0.87453 -0.04233,0.45615 -0.414867,0.74401 -0.75071,1.02447 -0.434272,0.36195 -0.791988,0.77788 -0.994482,1.29046 0.13829,0.20073 0.3048,0.13441 0.442735,0.13653 0.3429,0.006 0.428625,0.1979 0.421572,0.49883 -0.04445,1.8743 -0.283282,3.71051 -1.058334,5.44336 -0.198966,0.4445 -0.439563,0.86324 -0.741539,1.24565 -0.570794,0.72355 -1.277057,1.22873 -2.198865,1.41958 -0.593725,0.12242 -0.589492,0.14252 -0.536221,0.85549 h 15.338423 c 0,-0.86819 -0.006,-1.70533 0.0032,-2.54318 0.0032,-0.28363 -0.149225,-0.33126 -0.383821,-0.32914 -0.638175,0.006 -1.276704,0.0102 -1.914879,-0.004 -0.533752,-0.01 -0.559504,-0.0317 -0.564796,-0.56974 -0.01058,-1.02129 2.65e-4,-2.04293 -0.0056,-3.06423 -0.0019,-0.25223 0.04516,-0.50905 -0.05327,-0.77857 -0.335843,-0.0688 -0.691443,-0.10055 -1.007533,-0.272 -0.557035,-0.30409 -0.724252,-0.7306 -0.486479,-1.32997 0.0575,-0.14464 0.135467,-0.25364 0.02999,-0.40922 -0.202493,-0.29986 -0.224718,-0.61666 -0.04374,-0.93768 0.09172,-0.16263 0.01093,-0.28046 -0.07761,-0.41487 -0.252235,-0.381 -0.275871,-0.76623 0.05221,-1.11831 0.137228,-0.14746 0.13335,-0.2674 0.08396,-0.46355 -0.231423,-0.92145 0.04586,-1.51518 0.976842,-1.86795 0.46002,-0.17463 0.545041,-0.41064 0.535162,-0.83644 -0.02294,-1.02129 -0.01342,-2.04258 -0.0049,-3.06423 0.0053,-0.60219 0.04657,-0.64699 0.660752,-0.6484 2.349148,-0.006 4.698648,-0.0173 7.047437,0.008 0.50236,0.005 0.85443,-0.14499 1.19874,-0.50306 0.7112,-0.73872 1.40653,-1.48273 1.87396,-2.4056 0.41063,-0.81068 0.66851,-1.65699 0.48295,-2.58021 -0.30303,-1.506358 -1.62983,-2.734738 -3.21098,-2.995088 -0.70379,-0.11641 -1.420284,-0.0815 -2.123017,-0.25435 -3.006022,-0.74224 -5.270149,-3.41206 -5.342115,-6.49746 -0.06597,-2.83316 -0.06914,-5.66984 -7.94e-4,-8.50265 0.08255,-3.41595 2.767542,-6.25052 6.152446,-6.65162 0.71473,-0.0847 1.42734,-0.0896 2.1403,-0.0614 0.3295,0.0123 0.50236,-0.0854 0.65582,-0.37606 1.1684,-2.21333 3.59516,-3.05329 6.10235,-2.5714 2.33821,0.44839 4.29295,2.51566 4.60198,4.8567 0.3496,2.65288 -0.65193,4.67853 -2.90265,6.10129 -0.12771,0.0801 -0.2847,0.11924 -0.34925,0.28822 1.0675,0.54222 1.76248,1.36631 1.90253,2.59044 0.1457,1.27494 -0.28787,2.31528 -1.3275,3.06564 -0.28752,0.20744 -0.47837,0.3997 -0.52564,0.76694 -0.0607,0.47202 -0.38171,0.80892 -0.82621,0.90876 -0.40252,0.091 -0.44168,0.29951 -0.43991,0.63606 0.01,2.22108 0.005,4.44253 0.005,6.66397 0,0.94474 0.0413,1.891938 -0.0148,2.833158 -0.0353,0.58913 0.19438,0.81809 0.71437,1.0421 1.99038,0.8576 3.7465,2.06693 5.18478,3.70805 1.59632,1.82245 2.42146,3.93312 2.37701,6.36658 -0.0773,4.23474 -3.27589,7.91492 -7.44855,8.57497 -0.25047,0.0399 -0.49847,0.0956 -0.81174,0.15628 0,1.0675 0.003,2.13466 -0.002,3.20252 -10e-4,0.2226 0.0808,0.32385 0.31009,0.31785 0.33197,-0.009 0.66393,0 0.9959,0 1.71097,0 3.42159,-0.006 5.13256,0.003 1.36984,0.006 2.12619,0.75565 2.1276,2.14136 0.007,6.33201 -0.004,12.66472 0.009,18.99708 0.003,1.50883 -1.11689,2.13925 -2.23308,2.13783 -14.70801,-0.024 -29.41567,-0.0159 -44.12333,-0.0159 H 48.76977 c -0.17886,0 -0.35736,0.004 -0.53622,0 -1.19839,-0.0332 -1.95263,-0.78144 -1.96991,-1.97524 -0.0152,-1.0474 -0.0116,-2.09409 -0.0113,-3.14078 0.002,-5.36257 0.002,-10.72444 0.0109,-16.08631 0.002,-1.29082 0.75636,-2.03835 2.04294,-2.05811 0.30656,-0.005 0.61277,0 0.91934,0 h 5.42219 c -0.16827,-0.30727 -0.46602,-0.33231 -0.68544,-0.4445 -3.01026,-1.54199 -4.9717,-3.91971 -5.78662,-7.21818 -0.36689,-1.48414 -0.32702,-2.99227 -0.20602,-4.49439 0.19015,-2.35938 0.75177,-4.63162 1.87149,-6.73312 1.92722,-3.61879 4.91313,-5.77462 8.97502,-6.414208 0.35171,-0.055 0.70555,-0.10265 1.06045,-0.13652 0.3496,-0.0335 0.70167,-0.0451 1.08302,-0.0688"
         style="fill:#354241;fill-opacity:1;fill-rule:evenodd;stroke:none;stroke-width:0.35277775"
         id="path1314"
         inkscape:connector-curvature="0" />
      <g
         id="g2000"
         transform="matrix(0.35277777,0,0,-0.35277777,16.96831,1726.3005)">
        <g
           clip-path="url(#clipPath2006-0)"
           id="g2002">
          <g
             transform="translate(194.2759,4506.1548)"
             id="g2008">
            <path
               inkscape:connector-curvature="0"
               id="path2010"
               style="fill:#999a9a;fill-opacity:1;fill-rule:evenodd;stroke:none"
               d="M 0,0 C 0,1.082 0.002,2.164 0,3.248 -0.004,4.691 -0.005,6.135 -0.018,7.576 -0.022,8.16 -0.261,8.527 -0.923,8.512 -1.591,8.494 -1.77,8.09 -1.783,7.523 -1.791,7.234 -1.795,6.945 -1.795,6.658 -1.797,2.4 -1.798,-1.857 -1.792,-6.115 c 0,-0.432 0.004,-0.871 0.087,-1.289 0.082,-0.418 0.445,-0.522 0.831,-0.508 0.385,0.014 0.733,0.125 0.795,0.558 0.062,0.426 0.074,0.86 0.075,1.292 C 0.004,-4.041 0,-2.021 0,0 m -10.401,0.424 c 0,-2.379 0.007,-4.758 -0.003,-7.137 -0.004,-0.74 0.168,-1.267 1.064,-1.258 0.918,0.01 1.022,0.59 1.014,1.305 -0.012,1.08 -10e-4,2.162 0,3.242 0.001,2.531 0.001,2.531 2.602,2.74 0.071,0.004 0.144,0.006 0.216,0.006 0.57,0.002 0.992,0.176 0.997,0.846 0.006,0.658 -0.398,0.818 -0.97,0.885 -0.9,0.101 -2.064,-0.438 -2.638,0.406 -0.554,0.814 -0.149,1.963 -0.204,2.961 -0.02,0.359 0.019,0.723 -0.003,1.082 -0.057,0.894 0.304,1.348 1.247,1.309 0.791,-0.034 1.585,0.007 2.378,0 0.67,-0.004 1.111,0.216 1.118,0.978 0.008,0.75 -0.401,1.008 -1.085,1.006 -1.37,-0.006 -2.74,0.037 -4.109,-0.008 -1.433,-0.045 -1.591,-0.199 -1.615,-1.66 -0.037,-2.234 -0.01,-4.469 -0.009,-6.703 m -8.782,-0.045 v -6.943 c 0,-0.674 -0.005,-1.379 0.933,-1.389 1.735,-0.02 3.471,-0.014 5.206,0.012 0.517,0.007 0.753,0.357 0.742,0.867 -0.011,0.517 -0.286,0.803 -0.793,0.832 -0.505,0.029 -1.011,0.025 -1.518,0.027 -2.74,0.02 -2.74,0.018 -2.743,2.709 -0.004,2.787 -0.004,2.787 2.648,2.965 0.071,0.004 0.144,0 0.216,0.004 0.69,0.037 1.36,0.141 1.309,1.053 -0.042,0.771 -0.653,0.83 -1.251,0.9 -0.906,0.105 -2.05,-0.416 -2.666,0.385 -0.619,0.804 -0.178,1.959 -0.253,2.957 -0.022,0.287 0.013,0.578 0.001,0.867 -0.034,0.812 0.335,1.195 1.16,1.182 0.94,-0.016 1.881,-0.006 2.821,0.027 0.664,0.021 1.11,0.328 1.061,1.07 -0.042,0.639 -0.503,0.862 -1.045,0.864 -1.445,0.003 -2.889,-0.038 -4.333,-0.063 -1.204,-0.021 -1.555,-0.67 -1.517,-1.816 0.071,-2.168 0.02,-4.34 0.022,-6.51 m -13.88,-0.014 c 0,-2.308 -0.005,-4.615 0.003,-6.924 0.002,-0.648 -0.064,-1.382 0.926,-1.351 0.99,0.033 0.851,0.795 0.859,1.422 0.017,1.369 0.04,2.742 -0.002,4.111 -0.03,0.982 0.303,1.467 1.362,1.434 1.492,-0.051 2.048,-0.44 2.331,-1.989 0.129,-0.701 0.092,-1.433 0.121,-2.152 0.029,-0.721 -0.015,-1.449 0.086,-2.156 0.113,-0.787 0.778,-0.739 1.356,-0.676 0.626,0.068 0.493,0.508 0.463,0.961 -0.075,1.15 -0.109,2.305 -0.098,3.457 0.011,1.111 -0.078,2.191 -0.894,3.021 -0.567,0.577 -0.283,0.944 0.087,1.463 1.247,1.75 0.918,3.719 0.543,5.619 -0.205,1.041 -1.005,1.682 -2.119,1.916 -1.216,0.258 -2.433,0.239 -3.658,0.241 -1.01,0.002 -1.395,-0.475 -1.378,-1.473 0.039,-2.309 0.012,-4.615 0.012,-6.924 M 14.288,0.328 H 14.27 c 0,1.52 -0.041,3.041 0.011,4.559 0.048,1.39 0.61,2.109 1.592,2.228 1.015,0.123 1.66,-0.433 2.023,-1.801 0.13,-0.484 0.186,-0.992 0.28,-1.488 0.083,-0.431 0.39,-0.564 0.786,-0.57 0.487,-0.008 0.791,0.164 0.915,0.695 0.518,2.231 -0.791,4.526 -2.832,4.908 C 14.522,9.334 12.877,8.188 12.398,5.59 12.014,3.51 12.25,1.404 12.23,-0.687 c -0.013,-1.442 -0.173,-2.895 0.152,-4.327 0.53,-2.338 1.59,-3.154 3.986,-3.05 2.09,0.087 3.299,1.183 3.488,3.388 0.129,1.51 0.023,3.037 0.046,4.557 0.012,0.818 -0.353,1.201 -1.173,1.168 -0.433,-0.018 -0.868,0 -1.302,-0.012 -0.454,-0.014 -0.895,-0.098 -0.979,-0.641 -0.086,-0.562 0.072,-0.957 0.737,-1.082 1.602,-0.3 0.905,-1.605 0.885,-2.453 -0.026,-1.095 0.051,-2.371 -1.18,-3.054 -0.119,-0.069 -0.279,-0.069 -0.422,-0.088 -1.204,-0.17 -2.076,0.486 -2.157,1.834 -0.095,1.586 -0.023,3.183 -0.023,4.775 M 8.609,-1.633 C 7.908,-1.182 7.902,-0.654 7.753,-0.189 6.919,2.424 6.034,5.02 5.249,7.646 4.953,8.635 4.342,8.842 3.459,8.781 2.345,8.703 2.541,7.865 2.535,7.176 2.519,5.008 2.528,2.838 2.529,0.67 2.531,-1.859 2.535,-4.389 2.54,-6.918 c 10e-4,-0.564 0.163,-0.996 0.835,-1.016 0.668,-0.017 0.877,0.387 0.881,0.965 0.009,1.446 0.01,2.891 0.011,4.336 0.002,2.094 10e-4,4.19 10e-4,6.283 1.454,-3.398 2.518,-6.826 3.571,-10.255 0.249,-0.813 0.563,-1.481 1.618,-1.362 1.126,0.125 0.879,0.969 0.881,1.639 0.018,4.408 0.01,8.818 0.008,13.226 0,0.362 0.008,0.727 -0.049,1.081 C 10.218,8.475 9.868,8.711 9.383,8.721 8.827,8.732 8.64,8.369 8.625,7.885 8.607,7.381 8.61,6.873 8.609,6.369 c -10e-4,-2.601 0,-5.203 0,-8.002 m -51.583,2.024 c 0,-1.446 -0.055,-2.895 0.016,-4.336 0.064,-1.274 -0.646,-3.098 0.371,-3.696 1.427,-0.839 3.345,-0.47 5.047,-0.054 1.091,0.265 1.873,0.968 2.046,2.021 0.337,2.047 0.805,4.168 -0.821,5.969 -0.227,0.25 -0.664,0.539 -0.288,0.873 1.422,1.271 0.99,2.937 0.979,4.48 -0.014,1.862 -0.853,2.803 -2.698,3.073 -0.992,0.146 -2.02,0.101 -3.03,0.066 C -42.782,8.738 -42.94,8.586 -42.964,7.115 -43,4.873 -42.973,2.633 -42.974,0.391 m 19.912,-7.989 c 0.521,-0.498 1.037,-0.631 1.538,0.028 0.327,4.256 0.08,8.521 0.135,12.781 0.014,1.074 0.185,2.17 -0.182,3.227 -0.181,0.542 -0.391,0.199 -0.596,0.019 -0.735,0.041 -0.992,-0.332 -1.025,-1.041 -0.221,-4.746 -0.26,-9.496 -0.185,-14.244 0.004,-0.258 0.205,-0.514 0.315,-0.77 m 11.911,-9.175 h -95.066 c -0.362,0 -0.724,0 -1.085,0.002 -2.36,0.011 -2.37,0.011 -2.371,2.367 -0.004,9.912 -0.002,19.824 -0.001,29.736 0,0.361 0.017,0.725 0.003,1.084 -0.032,0.881 0.33,1.365 1.264,1.34 0.578,-0.016 1.157,0.006 1.736,0.006 63.812,0 127.623,0.002 191.435,-0.004 3.345,0 2.981,0.328 2.986,-3.055 0.013,-9.623 0.008,-19.244 0.002,-28.867 -0.002,-2.83 0.238,-2.606 -2.534,-2.606 -32.123,-0.003 -64.246,-0.003 -96.369,-0.003" />
          </g>
          <g
             transform="translate(159.4592,4547.5884)"
             id="g2012">
            <path
               inkscape:connector-curvature="0"
               id="path2014"
               style="fill:#999a9a;fill-opacity:1;fill-rule:evenodd;stroke:none"
               d="M 0,0 C 1.434,0.029 2.603,1.248 2.528,2.631 2.461,3.852 1.198,5.064 -0.043,5.098 -1.42,5.137 -2.609,3.924 -2.599,2.494 -2.589,0.99 -1.523,-0.035 0,0 m 0.031,12.477 c 1.393,0.046 2.599,1.343 2.5,2.691 -0.102,1.393 -1.35,2.424 -2.821,2.33 -1.443,-0.094 -2.334,-1.074 -2.308,-2.541 0.027,-1.506 1.114,-2.531 2.629,-2.48 M -31.581,-7.818 c 0.206,0.371 0.223,0.455 0.27,0.478 6.146,2.985 9.092,8.27 10.34,14.664 0.733,3.76 1.113,7.553 0.725,11.43 -0.25,2.5 0.072,5.053 0.105,7.584 0.026,1.877 0.152,3.762 -0.254,5.623 -0.582,2.676 -2.302,4.285 -4.685,4.357 -2.448,0.078 -4.375,-1.566 -4.952,-4.293 -0.163,-0.773 -0.214,-1.578 -0.226,-2.369 -0.011,-0.763 -0.361,-0.992 -1.07,-0.98 -1.808,0.029 -3.62,-0.037 -5.426,0.035 -2.289,0.094 -3.653,2.014 -2.996,4.219 0.371,1.244 0.987,2.416 1.334,3.664 0.625,2.252 -0.568,4.654 -2.754,4.81 -1.999,0.143 -4.038,0.172 -6.058,0.205 -0.979,0.016 -1.872,-0.752 -2.561,-1.515 -3.242,-3.596 -4.238,-7.789 -2.496,-12.278 1.734,-4.472 5.23,-6.982 10.091,-7.373 0.942,-0.074 1.882,-0.144 2.783,-0.412 1.444,-0.429 1.766,-1.117 1.151,-2.508 -0.247,-0.56 -0.248,-1.119 -0.275,-1.691 -0.045,-0.943 -0.181,-1.863 -0.484,-2.768 -1.41,-4.209 -6.113,-6.138 -10.025,-4.062 -2.363,1.254 -3.091,3.51 -3.463,5.941 -0.087,0.569 -0.063,1.155 -0.132,1.727 -0.051,0.432 -0.375,0.596 -0.774,0.582 -0.419,-0.012 -0.627,-0.268 -0.713,-0.668 -1.095,-5.115 3.813,-10.365 9.171,-9.803 4.361,0.457 6.809,2.746 7.727,7.221 0.509,2.484 0.509,2.484 3.096,2.484 3.546,0.002 7.092,0.012 10.638,-0.004 1.837,-0.007 1.871,-0.027 1.831,-1.748 -0.086,-3.707 -0.589,-7.357 -1.809,-10.869 -2.125,-6.119 -6.369,-9.875 -12.745,-11.113 -10.538,-2.047 -19.456,0.998 -26.691,8.836 -4.636,5.023 -7.099,11.1 -7.352,17.9 -0.32,8.643 1.053,17.03 4.983,24.842 5.467,10.863 14.296,16.951 26.374,18.338 0.862,0.1 1.72,0.266 2.583,0.309 1.76,0.086 1.851,0.002 1.863,-1.745 0.021,-3.33 0.023,-6.658 0.002,-9.988 -0.024,-3.81 0.089,-3.34 3.26,-3.349 2.533,-0.01 5.066,0.009 7.599,-0.01 0.712,-0.006 1.448,0.15 2.268,-0.262 -0.46,-2.152 -0.983,-4.324 -1.363,-6.521 -0.147,-0.852 -1.228,-2.204 0.252,-2.526 1.276,-0.279 0.929,1.317 1.14,2.108 0.522,1.951 0.909,3.937 1.346,5.894 0.74,0.166 0.89,-0.443 1.185,-0.775 5.862,-6.6 11.699,-13.221 17.577,-19.805 0.583,-0.652 1.049,-1.922 2.134,-1.5 1.069,0.416 0.571,1.662 0.578,2.541 0.038,5.572 0.011,11.145 0.029,16.717 0.002,0.699 -0.185,1.433 0.205,2.113 0.726,0.106 0.997,-0.512 1.38,-0.885 1.918,-1.867 3.806,-3.765 5.708,-5.65 0.308,-0.305 0.621,-0.607 0.957,-0.881 0.345,-0.279 0.67,-0.16 0.939,0.145 0.211,0.24 0.267,0.533 0.059,0.781 -0.323,0.387 -0.68,0.746 -1.037,1.103 -2.192,2.19 -4.389,4.377 -6.551,6.532 0.325,0.814 0.909,0.556 1.356,0.566 1.446,0.033 2.895,-0.016 4.341,0.024 0.768,0.021 1.753,-0.331 2.226,0.445 0.495,0.812 -0.334,1.469 -0.74,2.109 -2.206,3.483 -4.447,6.944 -6.659,10.424 -0.419,0.658 -1.01,1.234 -1.13,2.215 2.312,-0.039 4.39,-0.746 6.323,-1.83 6.164,-3.453 9.257,-8.811 9.287,-15.817 0.068,-15.994 0.022,-31.986 0.022,-47.978 0,-1.233 -0.034,-2.461 0.008,-3.69 0.032,-0.896 -0.263,-1.384 -1.23,-1.3 -0.287,0.025 -0.579,0 -0.868,0 h -46.242 z" />
          </g>
          <g
             transform="translate(84.5059,4525.7075)"
             id="g2016">
            <path
               inkscape:connector-curvature="0"
               id="path2018"
               style="fill:#efeeee;fill-opacity:1;fill-rule:evenodd;stroke:none"
               d="m 0,0 c 0,2.863 -0.075,5.756 0.023,8.645 0.081,2.367 1.486,3.699 3.827,3.878 0.649,0.049 1.303,0.024 1.954,0.024 62.025,0 124.05,-0.018 186.075,0.039 4.296,0.004 5.967,-1.315 5.727,-5.762 -0.105,-1.949 -0.058,-3.908 -0.002,-5.861 0.028,-0.963 -0.348,-1.299 -1.261,-1.211 -0.43,0.041 -0.868,0.008 -1.302,0.008 C 130.917,-0.24 66.793,-0.242 2.669,-0.232 1.815,-0.232 0.936,-0.404 0,0" />
          </g>
          <g
             transform="translate(259.3481,4551.522)"
             id="g2020">
            <path
               inkscape:connector-curvature="0"
               id="path2022"
               style="fill:#fafbfb;fill-opacity:1;fill-rule:evenodd;stroke:none"
               d="m 0,0 c 0,4.273 0.02,8.389 -0.015,12.506 -0.007,0.9 0.324,1.213 1.205,1.4 5.213,1.106 6.837,5.672 7.233,8.942 0.088,0.728 -0.134,1.134 -0.934,1.009 C 7.016,23.785 7.015,23.391 6.979,23.035 6.854,21.801 6.529,20.611 5.994,19.502 4.824,17.072 2.97,15.539 0,15.17 v 4.189 c 0,3.401 0,6.801 -0.001,10.202 -0.001,0.505 -0.008,1.013 -0.027,1.517 -0.018,0.449 -0.299,0.6 -0.711,0.604 -0.432,0.005 -0.683,-0.198 -0.705,-0.623 -0.03,-0.577 -0.035,-1.157 -0.035,-1.735 C -1.48,16.518 -1.48,3.713 -1.48,-9.092 c 0,-0.506 -0.023,-1.013 0.003,-1.519 0.04,-0.78 -0.189,-1.241 -1.09,-1.164 -0.646,0.054 -1.302,0.007 -1.953,0.007 h -28.216 c -0.507,0 -1.014,0.022 -1.519,0.002 -0.63,-0.025 -0.938,0.233 -0.903,0.883 0.019,0.362 0.001,0.723 0.001,1.086 0,8.027 -0.01,16.059 0.006,24.09 0.006,3.646 0.466,7.203 2.112,10.531 0.557,1.127 1.277,2.055 2.274,2.836 9.566,7.488 19.117,14.998 28.654,22.524 0.796,0.629 1.489,0.957 2.524,0.5 C 6.516,47.996 11.934,44.402 16.252,39.23 27.335,25.961 21.822,4.473 2.615,0.182 1.834,0.008 1.048,-0.066 0,0" />
          </g>
          <g
             transform="translate(183.3403,4487.7759)"
             id="g2024">
            <path
               inkscape:connector-curvature="0"
               id="path2026"
               style="fill:#efeeee;fill-opacity:1;fill-rule:evenodd;stroke:none"
               d="m 0,0 h 96.153 c 2.6,0 2.601,-0.002 2.601,-2.686 0,-1.878 0.055,-3.763 -0.018,-5.64 -0.102,-2.658 -1.45,-3.953 -4.068,-4.037 -0.505,-0.018 -1.013,-0.006 -1.519,-0.006 H -93.08 c -0.651,0 -1.304,-0.024 -1.953,0.012 -2.124,0.115 -3.619,1.359 -3.74,3.459 -0.153,2.668 -0.044,5.351 -0.064,8.027 -0.005,0.672 0.356,0.871 0.947,0.865 C -97.239,-0.01 -96.588,0 -95.937,0 Z" />
          </g>
          <g
             transform="translate(152.5234,4661.0688)"
             id="g2028">
            <path
               inkscape:connector-curvature="0"
               id="path2030"
               style="fill:#fafbfb;fill-opacity:1;fill-rule:evenodd;stroke:none"
               d="M 0,0 C 0.025,0.764 -0.547,1.324 -1.348,1.299 -2.094,1.277 -2.544,0.896 -2.63,0.146 -2.71,-0.564 -2.097,-1.273 -1.396,-1.314 -0.711,-1.355 -0.023,-0.709 0,0 M 1.363,5.068 C 0.175,5.02 -0.937,4.746 -1.986,4.236 -2.346,4.061 -2.861,3.912 -2.654,3.346 -2.458,2.805 -2.082,2.586 -1.483,2.873 0.387,3.773 2.279,3.76 4.132,2.848 4.764,2.537 5.079,2.756 5.293,3.297 5.521,3.873 5.023,4.035 4.666,4.209 3.621,4.723 2.507,4.994 1.363,5.068 M -6.198,2.227 c -0.315,0.595 -0.666,0.798 -1.374,0.447 -1.538,-0.76 -3.142,-0.852 -4.784,-0.215 -1.405,0.545 -1.403,0.506 -1.481,-1.121 -0.013,-0.258 -0.308,-0.49 -0.374,-0.758 -0.24,-0.967 0.113,-1.699 0.918,-1.846 0.834,-0.152 1.533,0.248 1.543,1.067 0.014,1.08 0.615,0.883 1.259,0.861 1.306,-0.043 2.576,0.113 3.728,0.799 0.298,0.178 0.675,0.297 0.565,0.766 m 2.442,-17.243 c 0,3.258 10e-4,6.571 -0.001,9.885 0,0.506 0.009,1.012 -0.016,1.516 -0.022,0.431 -0.288,0.623 -0.713,0.609 -0.406,-0.012 -0.695,-0.156 -0.703,-0.617 -0.007,-0.434 -0.011,-0.865 -0.011,-1.299 -10e-4,-2.961 -0.023,-5.922 0.007,-8.883 0.026,-2.634 -0.596,-3.015 2.705,-2.916 0.144,0.004 0.29,0.01 0.433,-0.004 1.674,-0.152 2.673,-1.13 2.622,-2.564 -0.047,-1.35 -0.983,-2.229 -2.6,-2.352 -0.862,-0.066 -1.732,-0.015 -2.598,-0.023 -0.404,-0.002 -0.705,-0.16 -0.728,-0.607 -0.025,-0.508 0.197,-0.819 0.749,-0.811 1.154,0.014 2.326,-0.094 3.46,0.07 1.92,0.276 3.361,2.16 3.242,4.016 -0.123,1.934 -1.641,3.467 -3.631,3.678 -0.704,0.074 -1.447,-0.168 -2.217,0.302 M -7.07,-26.08 h -5.424 c -2.912,-0.002 -3.127,-0.24 -2.572,-3.057 0.222,-1.133 0.54,-2.24 1.135,-3.258 0.81,-1.382 1.982,-2.281 3.51,-2.703 5.05,-1.396 10.538,2.2 11.306,7.397 0.211,1.42 0.086,1.592 -1.447,1.611 -2.169,0.031 -4.339,0.008 -6.508,0.01 M 3.509,-36.303 c 1.027,-3.974 1.996,-7.744 2.976,-11.51 0.271,-1.041 -0.244,-1.208 -1.142,-1.218 -3.325,-0.032 -6.646,0.119 -9.975,0.052 -6.583,-0.128 -13.17,-0.042 -19.755,-0.035 -1.745,0.004 -1.747,0.024 -2.044,1.754 -1.887,11.039 -3.775,22.08 -5.661,33.121 -0.061,0.354 -0.065,0.729 -0.182,1.063 -0.14,0.398 -0.497,0.467 -0.891,0.398 -0.433,-0.076 -0.606,-0.304 -0.52,-0.748 0.081,-0.416 0.255,-0.83 0.085,-1.263 -3.739,-0.407 -6.65,1.611 -7.356,5.097 -0.687,3.395 1.225,6.522 4.616,7.551 2.07,0.627 2.762,0.359 3.868,-1.496 1.368,-2.297 2.732,-4.598 4.099,-6.895 0.259,-0.433 0.479,-0.902 0.802,-1.283 0.481,-0.568 1.138,-0.428 1.285,0.281 0.115,0.557 0.083,1.151 0.083,1.727 0.005,6.947 0.009,13.894 -0.001,20.842 -0.002,1.535 0.147,3.017 0.904,4.404 1.503,2.754 4.339,4.135 7.447,3.654 2.249,-0.347 4.254,-1.336 6.309,-2.213 2.999,-1.281 6.046,-2.388 9.371,-2.41 0.144,-0.002 0.3,-0.05 0.431,-0.011 2.698,0.789 4.147,-0.903 5.529,-2.756 2.44,-3.268 3.99,-6.893 4.088,-11 0.188,-7.883 0.33,-15.776 -0.047,-23.653 -0.423,-8.857 -7.559,-16.564 -16.29,-18.125 -3.441,-0.617 -6.754,-0.32 -10.056,0.653 -0.344,0.101 -0.674,0.261 -1.023,0.343 -0.441,0.102 -0.675,-0.199 -0.785,-0.558 -0.122,-0.393 0.028,-0.658 0.452,-0.818 1.767,-0.661 3.58,-1.139 5.459,-1.291 6.536,-0.534 12.278,1.296 17.101,5.816 0.15,0.141 0.352,0.228 0.823,0.527" />
          </g>
          <g
             transform="translate(231.5854,4649.7056)"
             id="g2032">
            <path
               inkscape:connector-curvature="0"
               id="path2034"
               style="fill:#fafbfb;fill-opacity:1;fill-rule:evenodd;stroke:none"
               d="M 0,0 C 0.044,0.82 -0.448,1.33 -1.285,1.338 -2.034,1.344 -2.52,0.996 -2.601,0.242 -2.692,-0.611 -2.198,-1.1 -1.414,-1.25 -0.723,-1.385 -0.04,-0.736 0,0 m -9.387,-1.271 c 0.777,0.044 1.38,0.75 1.286,1.478 -0.112,0.865 -0.661,1.199 -1.5,1.123 -0.788,-0.072 -1.152,-0.615 -1.119,-1.291 0.04,-0.795 0.585,-1.25 1.333,-1.31 m 8.167,-21.758 c 1.771,0.064 4.514,2.584 5.158,4.763 0.133,0.448 0.46,1.002 -0.293,1.233 -0.613,0.187 -0.885,-0.139 -1.08,-0.711 -0.612,-1.809 -1.846,-3.043 -3.641,-3.709 -0.202,-0.074 -0.386,-0.192 -0.586,-0.274 -0.339,-0.136 -0.369,-0.398 -0.29,-0.697 0.1,-0.369 0.27,-0.666 0.732,-0.605 m -2.853,22.656 c 0,1.279 -0.104,2.162 0.021,3.01 0.283,1.922 -1.207,3.193 -2.665,3.744 -1.585,0.598 -3.866,0.035 -4.828,-1.074 -0.282,-0.327 -0.351,-0.639 -0.038,-0.934 0.252,-0.24 0.544,-0.463 0.939,-0.176 0.408,0.297 0.817,0.621 1.277,0.805 1.709,0.687 3.743,-0.338 3.759,-1.99 0.046,-4.973 0.33,-10.018 -2.881,-14.348 -0.346,-0.467 -0.386,-0.977 0.159,-1.31 1.23,-0.75 2.483,-1.463 3.736,-2.174 0.416,-0.239 0.647,0.037 0.861,0.365 0.26,0.394 0.125,0.689 -0.22,0.902 -0.735,0.453 -1.477,0.903 -2.239,1.311 -0.578,0.306 -0.635,0.642 -0.302,1.197 2.055,3.418 2.249,7.25 2.421,10.672 m 2.176,19.172 c 0.933,-2.199 1.867,-4.139 3.018,-6.176 -1.64,-0.201 -3.154,-0.244 -4.488,-0.975 -0.344,-0.187 -0.881,-0.322 -0.625,-0.906 0.23,-0.523 0.564,-0.705 1.191,-0.435 2.739,1.173 5.079,0.658 7.327,-1.399 C 7.887,5.834 12.088,4.516 16.522,3.865 18.888,3.518 21.255,3.455 23.634,3.91 23.638,3.146 23.096,2.758 22.963,2.195 22.898,1.92 22.768,1.605 23.088,1.42 c 0.321,-0.19 0.744,-0.281 1.005,-0.002 0.338,0.359 0.527,0.853 0.831,1.25 1.838,2.391 4.069,2.801 6.645,1.211 5.239,-3.231 4.617,-11 -0.514,-13.397 -0.362,0.315 -0.708,0.68 -1.114,0.959 -1.377,0.944 -2.853,0.936 -4.256,0.018 -1.054,-0.689 -1.691,-2.277 -1.495,-3.465 0.15,-0.9 0.47,-1.711 1.189,-2.236 0.737,-0.537 0.919,-1.182 0.917,-2.043 -0.022,-9.332 -0.023,-18.666 0.001,-28 0.002,-0.942 -0.246,-1.61 -1.023,-2.215 -6.731,-5.244 -13.43,-10.527 -20.14,-15.799 -0.337,-0.264 -0.659,-0.572 -1.169,-0.556 -0.541,0.681 0.115,1.013 0.468,1.371 1.98,2.009 3.994,3.986 5.977,5.992 1.995,2.019 3.697,4.248 4.891,6.847 3.659,7.965 -0.887,14.655 -7.716,16.864 -1.025,0.332 -2.098,0.465 -3.199,0.492 -10.316,0.256 -18.254,8.377 -18.29,18.699 -0.024,6.729 0.003,13.457 -0.015,20.186 -0.002,0.845 0.027,1.439 1.094,1.701 4.881,1.205 8.26,4.266 10.432,8.738 0.094,0.192 0.232,0.36 0.496,0.764" />
          </g>
        </g>
      </g>
      <g
         id="g2036"
         transform="matrix(0.35277777,0,0,-0.35277777,16.96831,1726.3005)">
        <g
           id="g2038">
          <g
             id="g2044">
            <g
               id="g2046">
              <path
                 inkscape:connector-curvature="0"
                 id="path2056"
                 style="fill:url(#linearGradient2054);stroke:none"
                 d="m 165.486,4693.937 c -4.591,-2.931 -9.622,-3.643 -14.955,-3.155 v 0 c -4.614,0.422 -9.11,1.501 -13.678,2.174 v 0 c -3.657,0.541 -7.323,0.83 -10.998,0.071 v 0 c -14.145,-2.925 -21.371,-18.62 -14.414,-31.338 v 0 c 0.447,-0.815 0.754,-1.867 1.619,-2.243 v 0 c 0.739,-0.319 1.404,0.533 2.133,0.789 v 0 c 3.132,1.097 4.585,0.618 6.24,-2.159 v 0 c 0.971,-1.631 1.964,-3.253 2.945,-4.881 v 0 c 0.148,0.045 0.298,0.089 0.443,0.137 v 0 c 0,0.835 0.003,1.671 0,2.507 v 0 c 0,5.643 -0.056,11.286 0.015,16.928 v 0 c 0.08,6.29 5.051,10.124 11.113,8.721 v 0 c 1.634,-0.378 3.153,-1.022 4.668,-1.699 v 0 c 2.576,-1.149 5.197,-2.192 8.006,-2.594 v 0 c 3.796,-0.537 7.335,0.062 10.384,2.603 v 0 c 0.49,0.41 1.013,1.448 1.716,0.511 v 0 c 0.603,-0.804 -0.428,-1.214 -0.895,-1.669 v 0 c -1.196,-1.167 -2.809,-1.69 -4.363,-2.594 v 0 c 1.888,-1.849 3.208,-3.964 4.484,-6.106 v 0 c 8.296,6.085 10.68,16.39 6.494,24.372 v 0 c -0.067,0.021 -0.13,0.03 -0.189,0.03 v 0 c -0.311,0 -0.53,-0.252 -0.768,-0.405" />
            </g>
          </g>
        </g>
      </g>
      <g
         id="g2058"
         transform="matrix(0.35277777,0,0,-0.35277777,16.96831,1726.3005)">
        <g
           clip-path="url(#clipPath2064-6)"
           id="g2060">
          <g
             transform="translate(237.6846,4677.5103)"
             id="g2066">
            <path
               inkscape:connector-curvature="0"
               id="path2068"
               style="fill:#999a9a;fill-opacity:1;fill-rule:evenodd;stroke:none"
               d="m 0,0 c 5.852,0.309 10.814,-1.439 14.853,-5.545 4.177,-4.248 5.577,-9.476 5.258,-15.293 -0.049,-0.894 -0.507,-1.185 -1.326,-1.383 -10.714,-2.59 -21.107,2.813 -25.033,13.051 -0.257,0.674 -0.485,1.359 -0.742,2.033 -0.222,0.584 -0.254,1.412 -1.105,1.389 -0.736,-0.02 -0.756,-0.797 -0.926,-1.309 -0.693,-2.082 -1.72,-3.97 -3.132,-5.648 -1.621,-1.926 -3.641,-3.279 -6.027,-4.061 -1.409,-0.463 -1.75,-0.209 -1.519,1.237 0.955,5.961 4.201,10.342 9.397,13.308 C -7.07,-0.375 -3.551,0.24 0,0" />
          </g>
          <g
             transform="translate(259.397,4656.3716)"
             id="g2070">
            <path
               inkscape:connector-curvature="0"
               id="path2072"
               style="fill:#999a9a;fill-opacity:1;fill-rule:evenodd;stroke:none"
               d="m 0,0 c 0.277,11.752 -5.107,19.287 -16.515,22.539 0.885,2.363 2.473,4.123 4.564,5.273 5.529,3.043 11.135,2.95 16.406,-0.517 C 9.772,23.799 12.057,18.592 11.14,12.35 10.236,6.203 6.586,2.039 0.641,0.006 0.516,-0.037 0.364,0 0,0" />
          </g>
          <g
             transform="translate(236.6724,4590.9185)"
             id="g2074">
            <path
               inkscape:connector-curvature="0"
               id="path2076"
               style="fill:#999a9a;fill-opacity:1;fill-rule:evenodd;stroke:none"
               d="m 0,0 c -1.036,-1.066 -2.067,-2.141 -3.109,-3.201 -2.33,-2.373 -4.608,-4.791 -6.568,-7.49 -2.581,-3.553 -4,-7.526 -4.084,-11.901 -0.11,-5.637 -0.067,-11.275 -0.095,-16.91 -0.01,-2.029 -0.019,-2.035 -1.989,-2.049 -1.228,-0.01 -2.458,0.022 -3.686,-0.006 -0.844,-0.019 -1.139,0.373 -1.135,1.178 0.019,3.035 0.023,6.072 -0.004,9.108 -0.007,0.785 0.303,1.236 1.056,1.375 0.726,0.132 1.385,0.41 1.972,0.847 1.242,0.928 1.562,1.947 1.063,3.414 -0.091,0.268 -0.456,0.608 -0.382,0.744 1.264,2.311 -0.119,4.534 -0.187,6.793 -0.013,0.409 0.259,0.649 0.383,0.973 0.635,1.652 0.049,2.809 -1.661,3.258 -0.276,0.072 -0.575,0.117 -0.858,0.097 -1.218,-0.082 -1.417,0.62 -1.39,1.633 0.045,1.735 0.012,3.469 0.012,5.203 0,1.954 0.05,3.907 -0.017,5.856 -0.041,1.16 0.462,1.51 1.537,1.502 4.12,-0.028 8.24,-0.01 12.359,-0.01 h 6.622 C -0.107,0.275 -0.054,0.139 0,0" />
          </g>
          <g
             transform="translate(137.6025,4565.4458)"
             id="g2078">
            <path
               inkscape:connector-curvature="0"
               id="path2080"
               style="fill:#fafbfb;fill-opacity:1;fill-rule:evenodd;stroke:none"
               d="m 0,0 c -4.516,0 -8.925,0.01 -13.334,-0.008 -0.675,-0.004 -1.024,0.178 -1.173,0.914 -0.436,2.153 -2.087,2.805 -4.007,2.965 -1.223,0.102 -2.441,0.111 -3.648,0.432 -7.273,1.926 -10.022,10.804 -5.082,16.478 0.528,0.606 1.115,1.129 1.871,1.442 1.18,0.486 1.967,0.062 2.163,-1.205 0.125,-0.805 -10e-4,-1.6 -0.332,-2.334 -2.187,-4.846 1.472,-8.571 6.094,-9.114 1.286,-0.152 2.599,-0.084 3.9,-0.099 1.661,-0.02 3.309,-0.022 4.971,-0.28 C -4.783,8.605 -0.429,5.033 0,0" />
          </g>
          <g
             transform="translate(148.3076,4610.5005)"
             id="g2082">
            <path
               inkscape:connector-curvature="0"
               id="path2084"
               style="fill:#fafbfb;fill-opacity:1;fill-rule:evenodd;stroke:none"
               d="m 0,0 c -0.67,-1.691 -1.273,-3.221 -1.883,-4.746 -0.375,-0.94 -0.799,-1.861 -1.129,-2.815 -0.433,-1.246 -0.22,-1.539 1.069,-1.695 0.631,-0.076 1.304,0.156 2.044,-0.348 -0.7,-3.57 -1.473,-7.177 -2.516,-11.089 -6.198,6.98 -12.168,13.705 -18.372,20.693 z" />
          </g>
          <g
             transform="translate(179.0908,4554.5083)"
             id="g2086">
            <path
               inkscape:connector-curvature="0"
               id="path2088"
               style="fill:#999a9a;fill-opacity:1;fill-rule:evenodd;stroke:none"
               d="m 0,0 c 0,3.035 0.033,6.07 -0.017,9.105 -0.018,1.098 0.337,1.559 1.482,1.54 2.817,-0.051 5.635,0.007 8.452,-0.03 1.444,-0.019 1.566,-0.129 1.507,-1.465 C 11.206,4.283 10.468,-0.475 8.23,-4.885 7.057,-7.197 5.472,-9.121 3.047,-10.211 2.524,-10.445 1.97,-10.645 1.41,-10.752 0.284,-10.967 0.028,-10.76 0.01,-9.537 -0.023,-7.152 0,-4.768 -0.001,-2.383 c 0,0.795 0,1.588 0.001,2.383" />
          </g>
          <g
             transform="translate(193.2393,4574.4087)"
             id="g2090">
            <path
               inkscape:connector-curvature="0"
               id="path2092"
               style="fill:#fafbfb;fill-opacity:1;fill-rule:evenodd;stroke:none"
               d="m 0,0 c -0.127,-1.178 -0.903,-1.822 -1.679,-2.482 -1.444,-1.229 -2.746,-2.602 -3.34,-4.436 -0.245,-0.76 -0.666,-0.814 -1.269,-0.812 -2.237,0.003 -4.475,0.015 -6.712,-0.008 -0.792,-0.006 -1.17,0.228 -1.155,1.113 0.045,2.742 0.02,5.484 0.013,8.229 -0.002,0.447 0.105,0.849 0.34,1.228 2.929,4.719 7.28,6.547 12.344,5.061 C -0.126,7.5 1.068,6.818 1.814,5.562 2.518,4.377 2.453,3.189 1.653,2.365 0.881,1.574 0.132,1.576 -1.277,2.379 -3.603,3.705 -5.424,3.637 -6.714,2.137 -6.963,1.848 -7.446,1.475 -6.992,1.055 c 0.37,-0.344 0.849,-0.491 1.31,0.019 1.08,1.196 2.241,1.026 3.469,0.19 C -1.506,0.783 -0.727,0.41 0,0" />
          </g>
        </g>
      </g>
      <g
         id="g2094"
         transform="matrix(0.35277777,0,0,-0.35277777,16.96831,1726.3005)">
        <g
           id="g2096">
          <g
             id="g2102">
            <g
               id="g2104">
              <path
                 inkscape:connector-curvature="0"
                 id="path2114"
                 style="fill:url(#linearGradient2112);stroke:none"
                 d="m 149.746,4610.022 c -1.043,-2.318 -1.929,-4.706 -2.975,-7.302 v 0 c 0.954,0 1.527,-0.01 2.097,0 v 0 c 0.96,0.015 1.297,-0.485 1.144,-1.38 v 0 c -0.086,-0.496 -0.184,-0.992 -0.296,-1.483 v 0 c -0.741,-3.308 -1.453,-6.62 -2.257,-9.911 v 0 c -0.269,-1.111 -0.021,-1.897 0.739,-2.733 v 0 c 2.963,-3.258 5.849,-6.585 8.788,-9.864 v 0 c 0.423,-0.473 0.757,-1.123 1.655,-1.359 v 0 c -1.554,6.428 -3.058,12.659 -4.562,18.889 v 0 c -0.511,2.104 -1.057,4.195 -1.515,6.31 v 0 c -0.248,1.147 0.009,1.46 1.143,1.555 v 0 c 0.786,0.065 1.581,0.011 2.771,0.011 v 0 c -1.119,2.555 -2.062,4.81 -3.096,7.019 v 0 c -0.283,0.607 -1.213,0.938 -2.071,0.938 v 0 c -0.7,0 -1.353,-0.221 -1.565,-0.693" />
            </g>
          </g>
        </g>
      </g>
      <g
         transform="matrix(0.35277777,0,0,-0.35277777,81.730579,109.45577)"
         id="g2124">
        <path
           inkscape:connector-curvature="0"
           id="path2126"
           style="fill:#efeeee;fill-opacity:1;fill-rule:evenodd;stroke:none"
           d="m 0,0 c 0.9,2.635 1.735,4.906 2.071,7.338 0.381,2.76 0.23,5.459 -0.347,8.158 -0.213,0.99 -0.401,1.984 -0.257,2.998 0.277,1.949 1.829,2.623 3.48,1.547 0.835,-0.545 1.319,-1.359 1.592,-2.25 C 8.173,12.438 7.875,7.133 6.053,1.877 5.834,1.244 5.484,0.939 4.797,0.979 3.266,1.064 1.812,0.684 0,0" />
      </g>
      <g
         transform="matrix(0.35277777,0,0,-0.35277777,71.31986,103.16295)"
         id="g2128">
        <path
           inkscape:connector-curvature="0"
           id="path2130"
           style="fill:#efeeee;fill-opacity:1;fill-rule:evenodd;stroke:none"
           d="M 0,0 C 0.804,0.527 1.467,0.373 2.1,0.402 4.369,0.5 4.458,0.635 3.522,2.795 2.777,4.512 2.015,6.223 1.264,7.939 1.066,8.391 0.882,8.848 0.78,9.092 0.808,9.508 0.905,9.574 1.088,9.576 2.451,9.602 4.155,10.139 5.081,9.396 6.078,8.594 5.405,6.826 5.411,5.486 5.446,-2.523 5.427,-10.533 5.427,-18.543 v -2.353 C 5.308,-20.916 5.188,-20.937 5.07,-20.957 3.374,-13.947 1.678,-6.936 0,0" />
      </g>
      <g
         transform="matrix(0.35277777,0,0,-0.35277777,65.45613,104.55201)"
         id="g2132">
        <path
           inkscape:connector-curvature="0"
           id="path2134"
           style="fill:#999a9a;fill-opacity:1;fill-rule:evenodd;stroke:none"
           d="m 0,0 c -3.682,0 -6.891,-0.006 -10.1,0.004 -0.649,0.002 -0.834,0.433 -0.834,1.01 0.003,3.506 0.002,7.011 0.219,10.627 C -6.991,8.059 -3.73,4.139 0,0" />
      </g>
      <g
         transform="matrix(0.35277777,0,0,-0.35277777,65.57463,113.78279)"
         id="g2136">
        <path
           inkscape:connector-curvature="0"
           id="path2138"
           style="fill:#fafbfb;fill-opacity:1;fill-rule:evenodd;stroke:none"
           d="m 0,0 c -1.954,1.9 -3.827,3.645 -6.344,4.543 -0.384,0.139 -0.588,0.406 -0.611,0.801 -0.087,1.441 -0.237,2.89 0.459,4.252 0.657,1.283 1.677,1.937 3.138,1.877 1.385,-0.059 2.282,-0.809 2.825,-2.02 C -0.176,8.658 0.008,7.812 0.003,6.928 -0.008,4.619 0,2.311 0,0" />
      </g>
      <g
         transform="matrix(0.35277777,0,0,-0.35277777,76.504211,104.68981)"
         id="g2140">
        <path
           inkscape:connector-curvature="0"
           id="path2142"
           style="fill:#999a9a;fill-opacity:1;fill-rule:evenodd;stroke:none"
           d="m 0,0 c -2.577,0 -4.66,0.006 -6.742,-0.004 -0.656,-0.002 -1.13,0.162 -1.126,0.941 0.019,3.235 0.026,6.469 0.059,9.704 0.002,0.181 0.195,0.363 0.453,0.812 C -4.922,7.664 -2.581,4.018 0,0" />
      </g>
      <g
         transform="matrix(0.35277777,0,0,-0.35277777,58.83622,111.6806)"
         id="g2144">
        <path
           inkscape:connector-curvature="0"
           id="path2146"
           style="fill:#efeeee;fill-opacity:1;fill-rule:evenodd;stroke:none"
           d="m 0,0 c -3.439,1.467 -4.346,3.287 -3.366,6.398 0.283,0.897 0.589,1.788 0.621,2.723 0.023,0.674 -0.034,1.336 0.791,1.551 0.799,0.207 1.566,0.18 2.219,-0.436 C 0.963,9.578 1.17,8.762 0.944,7.873 0.75,7.111 0.491,6.355 0.166,5.641 -0.637,3.869 -0.952,2.084 0,0" />
      </g>
      <g
         transform="matrix(0.35277777,0,0,-0.35277777,87.83875,109.68726)"
         id="g2148">
        <path
           inkscape:connector-curvature="0"
           id="path2150"
           style="fill:#efeeee;fill-opacity:1;fill-rule:evenodd;stroke:none"
           d="M 0,0 C -0.471,1.031 -0.461,2.172 -1.055,3.098 -1.228,3.369 -1.285,3.629 -0.967,3.826 0.24,4.57 0.849,5.854 1.775,6.852 2.275,7.391 2.862,7.937 3.647,7.578 4.576,7.154 4.736,6.262 4.541,5.365 3.984,2.795 2.503,0.984 0,0" />
      </g>
      <g
         transform="matrix(0.35277777,0,0,-0.35277777,92.625874,110.99435)"
         id="g2152">
        <path
           inkscape:connector-curvature="0"
           id="path2154"
           style="fill:#efeeee;fill-opacity:1;fill-rule:evenodd;stroke:none"
           d="M 0,0 C 0.078,-0.244 0.122,-0.377 0.165,-0.512 0.406,-1.27 -0.765,-2.049 0.048,-2.693 0.665,-3.184 1.581,-2.902 2.362,-2.973 3.149,-3.045 4.207,-2.986 4.236,-3.965 4.262,-4.855 3.248,-5.027 2.458,-5.199 1.401,-5.43 0.367,-5.693 -0.722,-5.311 c -1.08,0.379 -1.98,0.926 -2.151,2.153 -0.172,1.242 0.563,2.033 1.535,2.621 C -0.934,-0.291 -0.452,-0.176 0,0" />
      </g>
      <g
         transform="matrix(0.35277777,0,0,-0.35277777,92.766104,116.90474)"
         id="g2156">
        <path
           inkscape:connector-curvature="0"
           id="path2158"
           style="fill:#efeeee;fill-opacity:1;fill-rule:evenodd;stroke:none"
           d="m 0,0 c -0.98,0.127 -1.927,0.133 -2.74,0.674 -0.501,0.334 -0.915,0.748 -0.659,1.414 0.252,0.654 0.727,0.67 1.39,0.553 C -0.448,2.367 1.126,2.338 2.668,2.871 3.153,3.037 3.691,3.061 3.981,2.492 4.267,1.934 3.909,1.531 3.555,1.17 2.558,0.15 1.189,0.277 0,0" />
      </g>
      <g
         transform="matrix(0.35277777,0,0,-0.35277777,92.823783,114.23137)"
         id="g2160">
        <path
           inkscape:connector-curvature="0"
           id="path2162"
           style="fill:#efeeee;fill-opacity:1;fill-rule:evenodd;stroke:none"
           d="m 0,0 c -1.315,0.029 -2.406,0.088 -3.315,0.785 -0.537,0.412 -0.972,0.91 -0.573,1.654 0.363,0.678 0.905,0.559 1.473,0.305 C -1.032,2.127 0.411,2.18 1.833,2.486 2.541,2.641 3.183,2.76 3.444,1.963 3.695,1.195 3.088,0.807 2.511,0.457 1.656,-0.061 0.703,0.049 0,0" />
      </g>
      <g
         transform="matrix(0.35277777,0,0,-0.35277777,86.108094,110.04074)"
         id="g2164">
        <path
           inkscape:connector-curvature="0"
           id="path2166"
           style="fill:#efeeee;fill-opacity:1;fill-rule:evenodd;stroke:none"
           d="m 0,0 c -1.174,0.814 -2.118,1.594 -3.279,2.006 -0.594,0.213 -1.621,0.156 -1.644,0.803 -0.032,0.879 0.383,1.81 0.752,2.654 0.218,0.502 0.782,0.219 1.163,0.078 C -1.021,4.807 0.032,2.959 0,0" />
      </g>
      <g
         transform="matrix(0.35277777,0,0,-0.35277777,92.763175,115.55632)"
         id="g2168">
        <path
           inkscape:connector-curvature="0"
           id="path2170"
           style="fill:#efeeee;fill-opacity:1;fill-rule:evenodd;stroke:none"
           d="m 0,0 c -1.07,0.008 -2.054,0.174 -2.896,0.795 -0.416,0.303 -0.742,0.707 -0.532,1.279 0.227,0.617 0.754,0.619 1.256,0.483 1.789,-0.485 3.551,-0.459 5.28,0.23 C 3.527,2.953 3.792,2.824 3.994,2.48 4.205,2.117 4.061,1.799 3.845,1.488 3.159,0.504 2.062,0.355 1.023,0.102 0.678,0.018 0.31,0.027 0,0" />
      </g>
      <g
         transform="matrix(0.35277777,0,0,-0.35277777,108.47452,89.261292)"
         id="g2172">
        <path
           inkscape:connector-curvature="0"
           id="path2174"
           style="fill:#999a9a;fill-opacity:1;fill-rule:evenodd;stroke:none"
           d="M 0,0 C 1.126,0.021 2.162,-1.01 2.195,-2.191 2.229,-3.379 1.286,-4.42 0.113,-4.49 -1.111,-4.562 -2.239,-3.451 -2.209,-2.201 -2.182,-1.039 -1.161,-0.021 0,0" />
      </g>
      <g
         transform="matrix(0.35277777,0,0,-0.35277777,86.521336,111.29889)"
         id="g2176">
        <path
           inkscape:connector-curvature="0"
           id="path2178"
           style="fill:#efeeee;fill-opacity:1;fill-rule:evenodd;stroke:none"
           d="M 0,0 C -0.049,2.783 1.259,5.623 -1.081,8.512 1.079,7.947 1.785,6.787 1.936,5.295 2.139,3.279 1.944,1.342 0,0" />
      </g>
      <g
         transform="matrix(0.35277777,0,0,-0.35277777,99.743941,108.53111)"
         id="g2180">
        <path
           inkscape:connector-curvature="0"
           id="path2182"
           style="fill:#999a9a;fill-opacity:1;fill-rule:evenodd;stroke:none"
           d="m 0,0 c -0.804,-1.018 -1.931,-1.607 -3.005,-2.289 0.721,1.055 1.442,2.09 2.533,2.787 C -0.437,0.217 -0.264,0.066 0,0" />
      </g>
      <g
         transform="matrix(0.35277777,0,0,-0.35277777,99.743941,108.53111)"
         id="g2184">
        <path
           inkscape:connector-curvature="0"
           id="path2186"
           style="fill:#fafbfb;fill-opacity:1;fill-rule:evenodd;stroke:none"
           d="M 0,0 C -0.264,0.066 -0.437,0.217 -0.472,0.498 -0.379,0.604 -0.3,0.725 -0.19,0.807 0.113,1.035 0.435,1.561 0.811,1.025 1.063,0.666 0.546,0.48 0.339,0.242 0.251,0.139 0.115,0.08 0,0" />
      </g>
      <g
         transform="matrix(0.35277777,0,0,-0.35277777,72.301888,135.09831)"
         id="g3032">
        <path
           inkscape:connector-curvature="0"
           id="path3034"
           style="fill:#efeeee;fill-opacity:1;fill-rule:evenodd;stroke:none"
           d="m 0,0 c 0,0.215 0.021,0.434 -0.003,0.645 -0.162,1.459 -0.613,1.847 -2.098,1.818 -1.277,-0.024 -1.335,-0.096 -1.37,-1.805 -0.012,-0.574 -0.041,-1.152 0.009,-1.722 0.056,-0.645 -0.323,-1.565 0.808,-1.663 0.967,-0.082 1.875,0.071 2.403,1.045 C 0.036,-1.152 0.007,-0.572 0,0 m 0.151,-7.531 c -0.036,0.504 -0.014,1.021 -0.118,1.51 -0.245,1.15 -1.093,1.601 -2.486,1.517 -1.279,-0.076 -0.99,-1 -1.011,-1.738 -0.031,-1.082 -0.006,-2.168 10e-4,-3.252 0.002,-0.365 0.038,-0.725 0.399,-0.938 1.089,-0.642 2.853,0.131 3.105,1.387 0.098,0.49 0.076,1.006 0.11,1.514 m -5.7,3.582 c 0.001,2.242 -0.026,4.482 0.01,6.724 0.024,1.471 0.182,1.623 1.612,1.672 1.01,0.035 2.037,0.08 3.03,-0.066 C 0.948,4.111 1.787,3.17 1.801,1.309 1.812,-0.234 2.244,-1.9 0.822,-3.172 0.446,-3.506 0.883,-3.795 1.11,-4.045 c 1.625,-1.801 1.158,-3.922 0.821,-5.969 -0.174,-1.052 -0.955,-1.756 -2.046,-2.021 -1.702,-0.416 -3.62,-0.785 -5.047,0.055 -1.018,0.597 -0.307,2.421 -0.371,3.695 -0.071,1.441 -0.016,2.89 -0.016,4.336" />
      </g>
      <g
         transform="matrix(0.35277777,0,0,-0.35277777,88.541732,137.2053)"
         id="g3036">
        <path
           inkscape:connector-curvature="0"
           id="path3038"
           style="fill:#efeeee;fill-opacity:1;fill-rule:evenodd;stroke:none"
           d="m 0,0 c 0,2.799 -0.001,5.4 0,8.002 0,0.504 -0.002,1.012 0.015,1.516 0.016,0.484 0.203,0.847 0.759,0.836 C 1.258,10.344 1.609,10.107 1.688,9.611 1.745,9.258 1.736,8.893 1.736,8.531 1.739,4.123 1.747,-0.287 1.729,-4.695 1.727,-5.365 1.974,-6.209 0.847,-6.334 c -1.055,-0.119 -1.368,0.549 -1.618,1.361 -1.052,3.43 -2.116,6.858 -3.57,10.256 0,-2.094 0.001,-4.189 -10e-4,-6.283 -0.001,-1.445 -0.003,-2.891 -0.012,-4.336 -0.003,-0.578 -0.212,-0.982 -0.88,-0.965 -0.672,0.02 -0.835,0.451 -0.836,1.016 -0.005,2.529 -0.008,5.058 -0.01,7.588 -0.002,2.168 -0.01,4.338 0.006,6.506 0.005,0.689 -0.191,1.527 0.924,1.605 0.882,0.061 1.494,-0.146 1.789,-1.135 C -2.575,6.652 -1.69,4.057 -0.856,1.443 -0.708,0.979 -0.701,0.451 0,0" />
      </g>
      <g
         transform="matrix(0.35277777,0,0,-0.35277777,90.54512,136.51354)"
         id="g3040">
        <path
           inkscape:connector-curvature="0"
           id="path3042"
           style="fill:#efeeee;fill-opacity:1;fill-rule:evenodd;stroke:none"
           d="m 0,0 c 0,-1.592 -0.073,-3.189 0.022,-4.775 0.082,-1.348 0.954,-2.004 2.158,-1.834 0.143,0.019 0.302,0.019 0.422,0.088 1.231,0.683 1.154,1.959 1.179,3.054 0.021,0.848 0.718,2.153 -0.885,2.453 C 2.231,-0.889 2.073,-0.494 2.16,0.068 2.244,0.611 2.685,0.695 3.139,0.709 3.573,0.721 4.008,0.703 4.441,0.721 5.261,0.754 5.626,0.371 5.614,-0.447 5.591,-1.967 5.697,-3.494 5.568,-5.004 5.379,-7.209 4.169,-8.305 2.079,-8.393 c -2.396,-0.103 -3.455,0.713 -3.985,3.051 -0.325,1.432 -0.166,2.885 -0.152,4.326 0.02,2.092 -0.216,4.198 0.168,6.278 0.479,2.597 2.124,3.744 4.647,3.269 C 4.798,8.148 6.107,5.854 5.589,3.623 5.465,3.092 5.161,2.92 4.674,2.928 4.278,2.934 3.97,3.066 3.888,3.498 3.793,3.994 3.738,4.502 3.608,4.986 3.245,6.354 2.599,6.91 1.584,6.787 0.603,6.668 0.041,5.949 -0.007,4.559 -0.059,3.041 -0.019,1.52 -0.019,0 Z" />
      </g>
      <g
         transform="matrix(0.35277777,0,0,-0.35277777,74.473659,135.28294)"
         id="g3044">
        <path
           inkscape:connector-curvature="0"
           id="path3046"
           style="fill:#fafbfb;fill-opacity:1;fill-rule:evenodd;stroke:none"
           d="m 0,0 h 0.011 c 0,-0.723 -0.005,-1.443 0.002,-2.164 0.005,-0.49 0.218,-0.793 0.74,-0.887 1.212,-0.217 2.566,0.53 2.885,1.699 0.288,1.059 0.301,2.145 -0.096,3.19 C 3.162,2.84 2.008,3.402 0.899,3.191 -0.272,2.967 0.057,2.039 0.005,1.299 -0.024,0.867 0,0.432 0,0 m -1.794,-3.451 c 0,2.308 0.027,4.615 -0.013,6.924 -0.017,0.998 0.369,1.474 1.378,1.472 C 0.797,4.943 2.014,4.963 3.229,4.705 4.343,4.471 5.143,3.83 5.349,2.789 5.724,0.889 6.052,-1.08 4.806,-2.83 4.436,-3.35 4.151,-3.717 4.718,-4.293 c 0.817,-0.83 0.906,-1.91 0.895,-3.021 -0.011,-1.153 0.022,-2.307 0.098,-3.457 0.03,-0.454 0.163,-0.893 -0.463,-0.961 -0.578,-0.063 -1.244,-0.112 -1.356,0.675 -0.101,0.707 -0.057,1.436 -0.086,2.157 -0.029,0.718 0.007,1.451 -0.121,2.152 -0.284,1.549 -0.839,1.937 -2.331,1.988 -1.059,0.033 -1.392,-0.451 -1.362,-1.433 0.041,-1.369 0.019,-2.743 0.002,-4.112 -0.009,-0.627 0.131,-1.388 -0.859,-1.422 -0.99,-0.031 -0.925,0.704 -0.927,1.352 -0.007,2.309 -0.002,4.615 -0.002,6.924" />
      </g>
      <g
         transform="matrix(0.35277777,0,0,-0.35277777,78.736977,136.49563)"
         id="g3048">
        <path
           inkscape:connector-curvature="0"
           id="path3050"
           style="fill:#efeeee;fill-opacity:1;fill-rule:evenodd;stroke:none"
           d="M 0,0 C -0.001,2.17 0.049,4.342 -0.021,6.51 -0.06,7.656 0.292,8.305 1.495,8.326 2.94,8.352 4.384,8.393 5.828,8.389 6.371,8.387 6.832,8.164 6.874,7.525 6.923,6.783 6.477,6.477 5.812,6.455 4.873,6.422 3.932,6.412 2.992,6.428 2.167,6.441 1.798,6.059 1.832,5.246 1.844,4.957 1.809,4.666 1.831,4.379 1.906,3.381 1.465,2.227 2.084,1.422 2.7,0.621 3.844,1.143 4.75,1.037 5.348,0.967 5.958,0.908 6.001,0.137 6.052,-0.775 5.381,-0.879 4.692,-0.916 4.62,-0.92 4.547,-0.916 4.475,-0.92 1.824,-1.098 1.824,-1.098 1.827,-3.885 1.831,-6.576 1.831,-6.574 4.571,-6.594 5.077,-6.596 5.584,-6.592 6.089,-6.621 6.596,-6.65 6.87,-6.936 6.882,-7.453 6.893,-7.963 6.657,-8.313 6.14,-8.32 4.405,-8.346 2.669,-8.352 0.934,-8.332 -0.004,-8.322 0,-7.617 0.001,-6.943 0.001,-4.629 0.001,-2.314 0,0" />
      </g>
      <g
         transform="matrix(0.35277777,0,0,-0.35277777,81.835319,136.47978)"
         id="g3052">
        <path
           inkscape:connector-curvature="0"
           id="path3054"
           style="fill:#efeeee;fill-opacity:1;fill-rule:evenodd;stroke:none"
           d="M 0,0 C -0.001,2.234 -0.028,4.469 0.009,6.703 0.033,8.164 0.191,8.318 1.624,8.363 2.993,8.408 4.363,8.365 5.732,8.371 6.417,8.373 6.826,8.115 6.818,7.365 6.811,6.604 6.37,6.383 5.7,6.387 4.907,6.395 4.113,6.354 3.322,6.387 2.378,6.426 2.018,5.973 2.075,5.078 2.097,4.719 2.058,4.355 2.078,3.996 2.133,2.998 1.728,1.85 2.282,1.035 2.855,0.191 4.02,0.73 4.919,0.629 5.492,0.562 5.896,0.402 5.89,-0.256 5.885,-0.926 5.462,-1.1 4.893,-1.102 4.821,-1.102 4.748,-1.104 4.677,-1.107 2.076,-1.316 2.076,-1.316 2.075,-3.848 2.074,-4.928 2.063,-6.01 2.075,-7.09 2.083,-7.805 1.979,-8.385 1.061,-8.395 0.165,-8.404 -0.007,-7.877 -0.003,-7.137 0.007,-4.758 0,-2.379 0,0" />
      </g>
      <g
         transform="matrix(0.35277777,0,0,-0.35277777,77.89465,133.65274)"
         id="g3056">
        <path
           inkscape:connector-curvature="0"
           id="path3058"
           style="fill:#fafbfb;fill-opacity:1;fill-rule:evenodd;stroke:none"
           d="m 0,0 c 0.368,-1.057 0.196,-2.152 0.182,-3.227 -0.055,-4.259 0.193,-8.525 -0.134,-12.783 -0.512,-0.008 -1.026,-0.017 -1.539,-0.025 -0.11,0.256 -0.31,0.512 -0.315,0.769 -0.074,4.748 -0.036,9.498 0.185,14.245 0.033,0.709 0.291,1.082 1.026,1.041 C -0.397,0.014 -0.198,0.006 0,0" />
      </g>
      <g
         transform="matrix(0.35277777,0,0,-0.35277777,85.504527,136.6293)"
         id="g3060">
        <path
           inkscape:connector-curvature="0"
           id="path3062"
           style="fill:#fafbfb;fill-opacity:1;fill-rule:evenodd;stroke:none"
           d="m 0,0 c 0,-2.021 0.004,-4.041 -0.004,-6.062 -0.001,-0.432 -0.013,-0.866 -0.075,-1.292 -0.062,-0.433 -0.41,-0.544 -0.795,-0.558 -0.386,-0.014 -0.749,0.09 -0.831,0.508 -0.083,0.418 -0.087,0.857 -0.087,1.289 -0.006,4.258 -0.005,8.515 -0.003,12.773 0,0.287 0.004,0.576 0.012,0.865 0.013,0.567 0.192,0.971 0.86,0.989 C -0.261,8.527 -0.022,8.16 -0.018,7.576 -0.005,6.135 -0.004,4.691 0,3.248 0.002,2.164 0,1.082 0,0" />
      </g>
      <g
         transform="matrix(0.35277777,0,0,-0.35277777,77.368589,139.30958)"
         id="g3064">
        <path
           inkscape:connector-curvature="0"
           id="path3066"
           style="fill:#efeeee;fill-opacity:1;fill-rule:evenodd;stroke:none"
           d="M 0,0 C 0.514,0.008 1.027,0.018 1.54,0.025 1.037,-0.631 0.521,-0.498 0,0" />
      </g>
      <g
         transform="matrix(0.35277777,0,0,-0.35277777,77.89465,133.65274)"
         id="g3068">
        <path
           inkscape:connector-curvature="0"
           id="path3070"
           style="fill:#efeeee;fill-opacity:1;fill-rule:evenodd;stroke:none"
           d="M 0,0 C -0.198,0.006 -0.397,0.014 -0.595,0.02 -0.391,0.199 -0.181,0.543 0,0" />
      </g>
      <g
         transform="matrix(0.35277777,0,0,-0.35277777,73.552874,116.72147)"
         id="g3072">
        <path
           inkscape:connector-curvature="0"
           id="path3074"
           style="fill:#354241;fill-opacity:1;fill-rule:evenodd;stroke:none"
           d="M 0,0 C -0.064,0.607 -0.347,1.078 -1.046,1.064 -1.718,1.053 -2.109,0.627 -2.088,-0.033 -2.071,-0.584 -1.719,-0.961 -1.148,-1.021 -0.445,-1.092 -0.108,-0.689 0,0 m -0.907,-2.521 c -1.515,-0.051 -2.602,0.974 -2.629,2.48 C -3.562,1.426 -2.671,2.406 -1.228,2.5 0.243,2.594 1.491,1.562 1.594,0.17 1.692,-1.178 0.486,-2.475 -0.907,-2.521" />
      </g>
      <g
         transform="matrix(0.35277777,0,0,-0.35277777,73.187432,120.76671)"
         id="g3076">
        <path
           inkscape:connector-curvature="0"
           id="path3078"
           style="fill:#354241;fill-opacity:1;fill-rule:evenodd;stroke:none"
           d="m 0,0 c -0.635,-0.045 -1.07,-0.41 -1.051,-1.066 0.019,-0.635 0.437,-1.088 1.111,-1.039 0.669,0.048 0.993,0.519 0.952,1.181 C 0.976,-0.336 0.616,-0.041 0,0 m 0.098,-3.531 c -1.523,-0.035 -2.589,0.99 -2.599,2.494 -0.01,1.43 1.179,2.642 2.556,2.603 C 1.296,1.533 2.559,0.32 2.625,-0.9 2.701,-2.283 1.532,-3.502 0.098,-3.531" />
      </g>
      <g
         transform="matrix(0.35277777,0,0,-0.35277777,70.53454,91.697682)"
         id="g3080">
        <path
           inkscape:connector-curvature="0"
           id="path3082"
           style="fill:#354241;fill-opacity:1;fill-rule:evenodd;stroke:none"
           d="m 0,0 h -13.023 c -0.002,-1.252 0.262,-2.363 0.705,-3.434 0.77,-1.859 2.216,-2.849 4.179,-2.878 1.655,-0.024 3.296,0.271 4.771,1.132 C -1.44,-4.053 -0.407,-2.355 0,0 M -6.388,1.469 C -4.219,1.467 -2.049,1.49 0.12,1.459 1.653,1.439 1.778,1.268 1.567,-0.152 0.799,-5.35 -4.688,-8.945 -9.739,-7.549 c -1.528,0.422 -2.7,1.32 -3.51,2.703 -0.595,1.018 -0.913,2.125 -1.135,3.258 -0.554,2.817 -0.34,3.055 2.572,3.057 z" />
      </g>
      <g
         transform="matrix(0.35277777,0,0,-0.35277777,69.45021,87.276252)"
         id="g3084">
        <path
           inkscape:connector-curvature="0"
           id="path3086"
           style="fill:#354241;fill-opacity:1;fill-rule:evenodd;stroke:none"
           d="M 0,0 C 0.77,-0.471 1.513,-0.229 2.217,-0.303 4.207,-0.514 5.725,-2.047 5.848,-3.98 5.967,-5.836 4.525,-7.721 2.605,-7.996 1.472,-8.16 0.3,-8.053 -0.854,-8.066 c -0.552,-0.008 -0.774,0.302 -0.749,0.81 0.022,0.447 0.324,0.606 0.728,0.608 0.866,0.007 1.736,-0.043 2.598,0.023 1.617,0.123 2.553,1.002 2.6,2.352 0.051,1.433 -0.948,2.412 -2.622,2.564 -0.143,0.014 -0.289,0.008 -0.433,0.004 -3.301,-0.1 -2.679,0.281 -2.705,2.916 -0.03,2.961 -0.008,5.922 -0.007,8.883 0,0.433 0.004,0.865 0.011,1.299 0.008,0.461 0.297,0.605 0.703,0.617 0.425,0.013 0.691,-0.178 0.713,-0.61 0.025,-0.504 0.016,-1.009 0.016,-1.515 C 0,6.57 0,3.258 0,0" />
      </g>
      <g
         transform="matrix(0.35277777,0,0,-0.35277777,68.58858,81.193592)"
         id="g3088">
        <path
           inkscape:connector-curvature="0"
           id="path3090"
           style="fill:#354241;fill-opacity:1;fill-rule:evenodd;stroke:none"
           d="m 0,0 c 0.11,-0.469 -0.267,-0.588 -0.564,-0.766 -1.153,-0.685 -2.423,-0.841 -3.728,-0.798 -0.645,0.021 -1.246,0.218 -1.259,-0.862 -0.011,-0.818 -0.71,-1.219 -1.544,-1.066 -0.804,0.146 -1.157,0.879 -0.918,1.846 0.066,0.267 0.362,0.5 0.374,0.757 0.078,1.627 0.077,1.666 1.481,1.121 1.642,-0.636 3.246,-0.544 4.784,0.215 C -0.666,0.799 -0.314,0.596 0,0" />
      </g>
      <g
         transform="matrix(0.35277777,0,0,-0.35277777,71.25594,80.191062)"
         id="g3092">
        <path
           inkscape:connector-curvature="0"
           id="path3094"
           style="fill:#354241;fill-opacity:1;fill-rule:evenodd;stroke:none"
           d="m 0,0 c 1.144,-0.074 2.258,-0.346 3.303,-0.859 0.358,-0.174 0.855,-0.336 0.627,-0.912 -0.214,-0.542 -0.529,-0.76 -1.161,-0.45 -1.852,0.912 -3.745,0.926 -5.615,0.026 -0.598,-0.287 -0.974,-0.069 -1.171,0.472 -0.207,0.567 0.308,0.715 0.668,0.891 C -2.3,-0.322 -1.188,-0.049 0,0" />
      </g>
      <g
         transform="matrix(0.35277777,0,0,-0.35277777,70.77517,81.979082)"
         id="g3096">
        <path
           inkscape:connector-curvature="0"
           id="path3098"
           style="fill:#354241;fill-opacity:1;fill-rule:evenodd;stroke:none"
           d="m 0,0 c -0.023,-0.709 -0.711,-1.355 -1.396,-1.314 -0.701,0.041 -1.314,0.75 -1.234,1.46 0.086,0.75 0.536,1.131 1.282,1.153 C -0.547,1.324 0.025,0.764 0,0" />
      </g>
      <g
         transform="matrix(0.35277777,0,0,-0.35277777,97.22973,86.119392)"
         id="g3100">
        <path
           inkscape:connector-curvature="0"
           id="path3102"
           style="fill:#354241;fill-opacity:1;fill-rule:evenodd;stroke:none"
           d="m 0,0 c -0.172,-3.422 -0.367,-7.254 -2.421,-10.672 -0.333,-0.555 -0.276,-0.891 0.301,-1.197 0.763,-0.408 1.504,-0.858 2.24,-1.311 0.344,-0.213 0.48,-0.508 0.22,-0.902 -0.214,-0.328 -0.445,-0.604 -0.861,-0.365 -1.253,0.711 -2.506,1.424 -3.736,2.174 -0.546,0.334 -0.505,0.843 -0.16,1.31 3.212,4.33 2.928,9.375 2.881,14.348 -0.015,1.652 -2.049,2.677 -3.758,1.99 C -5.754,5.191 -6.164,4.867 -6.571,4.57 -6.966,4.283 -7.258,4.506 -7.511,4.746 -7.823,5.041 -7.754,5.354 -7.472,5.68 -6.51,6.789 -4.229,7.352 -2.645,6.754 -1.186,6.203 0.304,4.932 0.021,3.01 -0.104,2.162 0,1.279 0,0" />
      </g>
      <g
         transform="matrix(0.35277777,0,0,-0.35277777,98.236557,94.111312)"
         id="g3104">
        <path
           inkscape:connector-curvature="0"
           id="path3106"
           style="fill:#354241;fill-opacity:1;fill-rule:evenodd;stroke:none"
           d="m 0,0 c -0.463,-0.062 -0.633,0.234 -0.733,0.604 -0.079,0.298 -0.049,0.56 0.29,0.697 C -0.244,1.383 -0.059,1.5 0.143,1.574 1.938,2.24 3.171,3.475 3.784,5.283 3.979,5.855 4.251,6.182 4.863,5.994 5.617,5.764 5.29,5.209 5.157,4.762 4.513,2.582 1.77,0.062 0,0" />
      </g>
      <g
         transform="matrix(0.35277777,0,0,-0.35277777,95.354893,86.436312)"
         id="g3108">
        <path
           inkscape:connector-curvature="0"
           id="path3110"
           style="fill:#354241;fill-opacity:1;fill-rule:evenodd;stroke:none"
           d="M 0,0 C -0.748,0.061 -1.293,0.516 -1.333,1.311 -1.366,1.986 -1.002,2.529 -0.214,2.602 0.625,2.678 1.174,2.344 1.286,1.479 1.38,0.75 0.777,0.045 0,0" />
      </g>
      <g
         transform="matrix(0.35277777,0,0,-0.35277777,98.666489,85.987762)"
         id="g3112">
        <path
           inkscape:connector-curvature="0"
           id="path3114"
           style="fill:#354241;fill-opacity:1;fill-rule:evenodd;stroke:none"
           d="m 0,0 c -0.04,-0.736 -0.723,-1.385 -1.414,-1.25 -0.784,0.15 -1.278,0.639 -1.187,1.492 0.081,0.754 0.567,1.102 1.316,1.096 C -0.448,1.33 0.044,0.82 0,0" />
      </g>
      <g
         transform="matrix(0.35277777,0,0,-0.35277777,72.354841,137.75584)"
         id="g3404">
        <path
           inkscape:connector-curvature="0"
           id="path3406"
           style="fill:#999a9a;fill-opacity:1;fill-rule:evenodd;stroke:none"
           d="m 0,0 c -0.033,-0.506 -0.011,-1.021 -0.109,-1.512 -0.252,-1.256 -2.016,-2.029 -3.105,-1.386 -0.361,0.212 -0.397,0.572 -0.4,0.937 -0.006,1.084 -0.031,2.17 -0.001,3.252 0.021,0.738 -0.267,1.662 1.012,1.738 1.393,0.084 2.24,-0.367 2.486,-1.517 C -0.013,1.023 -0.035,0.506 0,0" />
      </g>
      <g
         transform="matrix(0.35277777,0,0,-0.35277777,72.301888,135.09831)"
         id="g3408">
        <path
           inkscape:connector-curvature="0"
           id="path3410"
           style="fill:#999a9a;fill-opacity:1;fill-rule:evenodd;stroke:none"
           d="m 0,0 c 0.007,-0.572 0.036,-1.152 -0.251,-1.682 -0.528,-0.974 -1.436,-1.127 -2.403,-1.045 -1.131,0.098 -0.752,1.018 -0.808,1.663 -0.05,0.57 -0.021,1.148 -0.009,1.722 0.035,1.709 0.093,1.781 1.37,1.805 1.485,0.029 1.936,-0.359 2.098,-1.818 C 0.021,0.434 0,0.215 0,0" />
      </g>
      <g
         transform="matrix(0.35277777,0,0,-0.35277777,74.473659,135.28294)"
         id="g3412">
        <path
           inkscape:connector-curvature="0"
           id="path3414"
           style="fill:#999a9a;fill-opacity:1;fill-rule:evenodd;stroke:none"
           d="M 0,0 C 0,0.432 -0.024,0.867 0.005,1.299 0.057,2.039 -0.272,2.967 0.899,3.191 2.008,3.402 3.162,2.84 3.542,1.838 3.939,0.793 3.926,-0.293 3.638,-1.352 3.319,-2.521 1.965,-3.268 0.753,-3.051 0.231,-2.957 0.018,-2.654 0.013,-2.164 0.006,-1.443 0.011,-0.723 0.011,0 Z" />
      </g>
      <g
         transform="matrix(0.35277777,0,0,-0.35277777,73.552874,116.72147)"
         id="g3416">
        <path
           inkscape:connector-curvature="0"
           id="path3418"
           style="fill:#999a9a;fill-opacity:1;fill-rule:evenodd;stroke:none"
           d="m 0,0 c -0.108,-0.689 -0.445,-1.092 -1.148,-1.021 -0.571,0.06 -0.923,0.437 -0.94,0.988 -0.021,0.66 0.37,1.086 1.042,1.097 C -0.347,1.078 -0.064,0.607 0,0" />
      </g>
      <g
         transform="matrix(0.35277777,0,0,-0.35277777,73.187432,120.76671)"
         id="g3420">
        <path
           inkscape:connector-curvature="0"
           id="path3422"
           style="fill:#999a9a;fill-opacity:1;fill-rule:evenodd;stroke:none"
           d="M 0,0 C 0.616,-0.041 0.976,-0.336 1.012,-0.924 1.053,-1.586 0.729,-2.057 0.06,-2.105 -0.614,-2.154 -1.032,-1.701 -1.051,-1.066 -1.07,-0.41 -0.635,-0.045 0,0" />
      </g>
      <g
         transform="matrix(0.35277777,0,0,-0.35277777,70.53454,91.697682)"
         id="g3424">
        <path
           inkscape:connector-curvature="0"
           id="path3426"
           style="fill:#fafbfb;fill-opacity:1;fill-rule:evenodd;stroke:none"
           d="m 0,0 c -0.407,-2.355 -1.44,-4.053 -3.368,-5.18 -1.475,-0.861 -3.116,-1.156 -4.771,-1.132 -1.963,0.029 -3.409,1.019 -4.179,2.878 -0.443,1.071 -0.707,2.182 -0.705,3.434 z" />
      </g>
    </g>
  </g>
</svg>
