<?xml version="1.0" encoding="UTF-8" standalone="no"?>
<!-- Created with Inkscape (http://www.inkscape.org/) -->

<svg
   xmlns:dc="http://purl.org/dc/elements/1.1/"
   xmlns:cc="http://creativecommons.org/ns#"
   xmlns:rdf="http://www.w3.org/1999/02/22-rdf-syntax-ns#"
   xmlns:svg="http://www.w3.org/2000/svg"
   xmlns="http://www.w3.org/2000/svg"
   xmlns:sodipodi="http://sodipodi.sourceforge.net/DTD/sodipodi-0.dtd"
   xmlns:inkscape="http://www.inkscape.org/namespaces/inkscape"
   width="110.85825mm"
   height="19.456778mm"
   viewBox="0 0 110.85825 19.456778"
   version="1.1"
   id="svg8392"
   inkscape:version="0.92.3 (2405546, 2018-03-11)"
   sodipodi:docname="logo_menu.svg">
  <defs
     id="defs8386">
    <linearGradient
       x1="0"
       y1="0"
       x2="1"
       y2="0"
       gradientUnits="userSpaceOnUse"
       gradientTransform="matrix(62.217972,62.217972,62.217972,-62.217972,56.696289,11639.428)"
       spreadMethod="pad"
       id="linearGradient4651">
      <stop
         style="stop-opacity:1;stop-color:#ed2224"
         offset="0"
         id="stop4645" />
      <stop
         style="stop-opacity:1;stop-color:#ed2224"
         offset="0.51950336"
         id="stop4647" />
      <stop
         style="stop-opacity:1;stop-color:#f99b1c"
         offset="1"
         id="stop4649" />
    </linearGradient>
  </defs>
  <sodipodi:namedview
     id="base"
     pagecolor="#ffffff"
     bordercolor="#666666"
     borderopacity="1.0"
     inkscape:pageopacity="0.0"
     inkscape:pageshadow="2"
     inkscape:zoom="0.35"
     inkscape:cx="235.21019"
     inkscape:cy="-74.659793"
     inkscape:document-units="mm"
     inkscape:current-layer="layer1"
     showgrid="false"
     fit-margin-top="0"
     fit-margin-left="0"
     fit-margin-right="0"
     fit-margin-bottom="0"
     inkscape:window-width="1920"
     inkscape:window-height="1018"
     inkscape:window-x="-8"
     inkscape:window-y="-8"
     inkscape:window-maximized="1" />
  <metadata
     id="metadata8389">
    <rdf:RDF>
      <cc:Work
         rdf:about="">
        <dc:format>image/svg+xml</dc:format>
        <dc:type
           rdf:resource="http://purl.org/dc/dcmitype/StillImage" />
        <dc:title></dc:title>
      </cc:Work>
    </rdf:RDF>
  </metadata>
  <g
     inkscape:label="Calque 1"
     inkscape:groupmode="layer"
     id="layer1"
     transform="translate(-43.600637,-109.62282)">
    <text
       y="124.79868"
       x="66.490509"
       style="font-variant:normal;font-weight:500;font-stretch:normal;font-size:12.15788555px;font-family:Oswald;-inkscape-font-specification:Oswald-Medium;writing-mode:lr-tb;fill:#231f20;fill-opacity:1;fill-rule:nonzero;stroke:none;stroke-width:0.35277775"
       id="text4459">
      <tspan
         style="stroke-width:0.35277775"
         x="66.490509 76.739609 85.566238 96.058487 104.21156"
         y="124.79868"
         sodipodi:role="line"
         id="tspan4457">NEUF.</tspan>
    </text>
    <text
       y="124.79868"
       x="110.46072"
       style="font-variant:normal;font-weight:200;font-stretch:normal;font-size:12.15788555px;font-family:Oswald;-inkscape-font-specification:Oswald-ExtraLight;writing-mode:lr-tb;fill:#231f20;fill-opacity:1;fill-rule:nonzero;stroke:none;stroke-width:0.35277775"
       id="text4463">
      <tspan
         style="stroke-width:0.35277775"
         x="110.46072 121.79187 130.21729 140.15028 146.30219"
         y="124.79868"
         sodipodi:role="line"
         id="tspan4461">MEDIA</tspan>
    </text>
    <g
       transform="matrix(0.35277777,0,0,-0.35277777,22.395621,4236.7382)"
       id="g4633">
      <g
         id="g4635">
        <g
           id="g4641">
          <g
             id="g4643">
            <path
               d="m 87.747,11698.91 c -15.38,0 -27.57,-12.834 -27.638,-27.45 v 0 c -0.07,-15.048 12.446,-27.913 27.55,-27.699 v 0 c 15.162,-0.267 27.823,12.634 27.655,27.879 v 0 c -0.164,14.645 -12.372,27.079 -27.215,27.27 v 0 c -0.117,0 -0.234,0 -0.352,0 m -23.911,-27.241 c 0.185,12.563 10.707,23.424 23.676,23.52 v 0 c 13.195,0.1 24.175,-10.951 24.081,-24.082 v 0 c -0.094,-12.836 -10.877,-23.822 -23.908,-23.634 v 0 c -0.108,0 -0.217,0 -0.326,0 v 0 c -12.962,0 -23.714,11.113 -23.523,24.199 m 14.969,13.238 c -1.765,-2.351 -2.417,-5.056 -2.397,-7.955 v 0 c 0.021,-2.655 0.808,-5.037 2.476,-7.128 v 0 c 3.621,-4.549 10.428,-5.33 14.739,-0.802 v 0 c 0.356,0.371 0.749,0.706 1.137,1.067 v 0 c -0.021,-2.954 -0.267,-5.882 -1.468,-8.643 v 0 c -1.442,-3.312 -3.988,-4.967 -7.612,-4.961 v 0 c -1.663,0 -3.278,0.309 -4.875,0.726 v 0 c -0.852,0.229 -1.695,0.497 -2.62,0.769 v 0 c 0,-1.271 -0.009,-2.455 0.009,-3.641 v 0 c 0.003,-0.109 0.15,-0.284 0.252,-0.312 v 0 c 2.547,-0.613 5.104,-1.147 7.745,-0.998 v 0 c 4.14,0.239 7.424,2.044 9.876,5.377 v 0 c 1.266,1.715 2.155,3.613 2.755,5.651 v 0 c 1.045,3.545 1.251,7.174 1.024,10.831 v 0 c -0.167,2.639 -0.654,5.224 -1.797,7.633 v 0 c -1.938,4.096 -4.983,6.651 -9.682,6.859 v 0 c -0.218,0.01 -0.432,0.02 -0.643,0.02 v 0 c -3.674,0 -6.664,-1.475 -8.919,-4.489 m 4.986,-14.46 c -1.509,1.099 -2.158,2.702 -2.467,4.458 v 0 c -0.17,0.963 -0.214,1.95 -0.343,3.225 v 0 c 0.17,1.021 0.273,2.344 0.628,3.598 v 0 c 0.743,2.625 2.582,4.011 5.307,4.184 v 0 c 2.693,0.176 4.766,-0.904 6.141,-3.198 v 0 c 1.55,-2.593 2.029,-5.436 1.377,-8.376 v 0 c -0.605,-2.716 -3.327,-4.83 -6.114,-4.981 v 0 c -0.223,-0.01 -0.447,-0.02 -0.667,-0.02 v 0 c -1.377,0 -2.696,0.259 -3.862,1.107"
               style="fill:url(#linearGradient4651);stroke:none"
               id="path4653"
               inkscape:connector-curvature="0" />
          </g>
        </g>
      </g>
    </g>
  </g>
</svg>
