<?xml version="1.0" standalone="no"?>
<!DOCTYPE svg PUBLIC "-//W3C//DTD SVG 1.1//EN" "http://www.w3.org/Graphics/SVG/1.1/DTD/svg11.dtd" >
<svg>
<metadata>
Created by FontForge 20090914 at Mon Jan 29 08:59:40 2018
 By www-data
Copyright 2016 The Oswald Project Authors (https://github.com/googlefonts/OswaldFont)
</metadata>
<defs>
<font id="Oswald-SemiBold" horiz-adv-x="0" >
  <font-face 
    font-family="Oswald SemiBold"
    font-weight="600"
    font-stretch="normal"
    units-per-em="1000"
    panose-1="0 0 7 0 0 0 0 0 0 0"
    ascent="800"
    descent="-200"
    x-height="578"
    cap-height="810"
    bbox="-218 -342 1355 1314"
    underline-thickness="50"
    underline-position="-50"
    unicode-range="U+000D-U+FB02"
  />
<missing-glyph horiz-adv-x="670" 
d="M84 810h502v-810h-502v810zM483 90v630h-296v-630h296z" />
    <glyph glyph-name="fi" unicode="fi" horiz-adv-x="539" 
d="M73 475l-57.999 -0.000976562v103h58v40c0 56.667 11.167 99.334 33.5 128.001s61.5 43 117.5 43c19.333 0 41.666 -2 66.999 -6v-105c-9.33301 2 -18 3 -26 3c-14 0 -24.333 -4 -31 -12s-10 -22 -10 -42v-49h262v-578h-150v475h-112v-475h-151v475zM346.001 785.999h140
v-113h-140v113z" />
    <glyph glyph-name="fl" unicode="fl" horiz-adv-x="544" 
d="M70 472h-58.001v106h58v40c0 37.333 4.5 69 13.5 95s29.667 48 62 66s80.833 27 145.5 27c56.667 0 125.334 -7.66699 206.001 -23v-783h-151v701c-21.333 1.33301 -35 2 -41 2c-25.333 0 -44 -3.5 -56 -10.5s-19.667 -16.333 -23 -28s-5 -27.167 -5 -46.5v-40h67v-106
h-67v-472h-151v472z" />
    <glyph glyph-name="f_f" unicode="ff" horiz-adv-x="596" 
d="M75 475h-58.001v103h58v40c0 38.667 3.66699 70 11 94s21.833 42.667 43.5 56s53.834 20 96.501 20c27.333 0 53 -1.66699 77 -5v-112c-16.667 3.33301 -28.667 5 -36 5c-27.333 0 -41 -17 -41 -51v-47h77v-103h-77v-475h-151v475zM357.999 475h-58.001v103h58v40
c0 38.667 3.66699 70 11 94s21.833 42.667 43.5 56s53.834 20 96.501 20c27.333 0 53 -1.66699 77 -5v-112c-16.667 3.33301 -28.667 5 -36 5c-27.333 0 -41 -17 -41 -51v-47h77v-103h-77v-475h-151v475z" />
    <glyph glyph-name="f_f_i" unicode="ffi" horiz-adv-x="789" 
d="M70 476h-58v102h58v40c0 38.667 3.66699 70 11 94s22 42.667 44 56s54.333 20 97 20c22 0 44.333 -1.66699 67 -5v-112c-13.333 2.66699 -24 4 -32 4c-12.667 0 -21.834 -4 -27.501 -12s-8.5 -20.667 -8.5 -38v-47h110v40c0 38.667 3.66699 70 11 94
s21.833 42.667 43.5 56s53.834 20 96.501 20c23.333 0 46.333 -1.66699 69 -5v-112c-13.333 2.66699 -24.333 4 -33 4c-12.667 0 -22 -4 -28 -12s-9 -20.667 -9 -38v-47h259v-578h-151v476h-108v-476h-150v476h-110v-476h-151v476zM600 786h140v-113h-140v113z" />
    <glyph glyph-name="f_f_l" unicode="ffl" horiz-adv-x="841" 
d="M786 783l-0.00195312 -783h-151v701c-21.333 1.33301 -35 2 -41 2c-25.333 0 -44 -3.5 -56 -10.5s-19.667 -16.333 -23 -28s-5 -27.167 -5 -46.5v-40h68v-103h-68v-475h-151v475h-133v-475h-151v475h-58v103h58v40c0 38.667 3.66699 70 11 94s21.833 42.667 43.5 56
s53.834 20 96.501 20c28 0 53.667 -1.66699 77 -5v-112c-16.667 3.33301 -28.667 5 -36 5c-27.333 0 -41 -17 -41 -51v-47h133v40c0 37.333 4.5 69 13.5 95s29.667 48 62 66s80.833 27 145.5 27c56.667 0 125.334 -7.66699 206.001 -23z" />
    <glyph glyph-name=".notdef" horiz-adv-x="670" 
d="M84 810h502v-810h-502v810zM483 90v630h-296v-630h296z" />
    <glyph glyph-name="NULL" 
 />
    <glyph glyph-name="NULL" 
 />
    <glyph glyph-name="nonmarkingreturn" unicode="&#xd;" horiz-adv-x="250" 
 />
    <glyph glyph-name="space" unicode=" " horiz-adv-x="250" 
 />
    <glyph glyph-name="exclam" unicode="!" horiz-adv-x="246" 
d="M49 808h151l-54 -609h-53zM47 143h144v-143h-144v143z" />
    <glyph glyph-name="quotedbl" unicode="&#x22;" horiz-adv-x="340" 
d="M24 810h130l-60 -289h-70v289zM199 810h130l-60 -289h-70v289z" />
    <glyph glyph-name="numbersign" unicode="#" horiz-adv-x="524" 
d="M96 274h-52l2 96h64l14 112h-77l2 99h92l27 229h106l-28 -229h80l28 229h105l-28 -229h50l-2 -99h-65l-13 -112h76l-3 -96h-87l-35 -274h-104l34 274h-80l-34 -274h-105zM296 370l14 112h-81l-15 -112h82z" />
    <glyph glyph-name="dollar" unicode="$" horiz-adv-x="486" 
d="M235 -10c-68.667 2.66699 -119.999 24.667 -153.999 66s-52.333 103 -55 185l141 24c1.33301 -51.333 8.33301 -89.166 21 -113.499s32.334 -36.5 59.001 -36.5c19.333 0 33.333 6.16699 42 18.5s13 28.166 13 47.499c0 32 -7.16699 59.167 -21.5 81.5
s-36.833 46.833 -67.5 73.5l-84 73c-34 30 -59.667 60.167 -77 90.5s-26 68.5 -26 114.5c0 61.333 17.5 109.833 52.5 145.5s83.167 55.5 144.5 59.5v89h48v-89c65.333 -4 110.333 -26.667 135 -68s38.667 -93.333 42 -156l-143 -21c-1.33301 42 -6 73.333 -14 94
s-23.667 31 -47 31c-19.333 0 -34.333 -6.66699 -45 -20s-16 -29.666 -16 -48.999c0 -27.333 6 -49.833 18 -67.5s30.667 -37.834 56 -60.501l82 -72c39.333 -36 69.666 -72.5 90.999 -109.5s32 -80.5 32 -130.5c0 -54 -16.333 -99.333 -49 -136
s-76.334 -57.667 -131.001 -63v-94h-47v93z" />
    <glyph glyph-name="percent" unicode="%" horiz-adv-x="981" 
d="M85.5 408c-28.333 34.667 -42.5 87.333 -42.5 158v41c0 72 13.833 124.167 41.5 156.5s74.5 48.5 140.5 48.5c66.667 0 114 -15.833 142 -47.5s42 -83.167 42 -154.5v-46c0 -70.667 -14.333 -123 -43 -157s-75.667 -51 -141 -51c-64.667 0 -111.167 17.333 -139.5 52z
M566 809.999h91l-243 -810h-91zM271.5 482.499c7 17.667 10.5 46.833 10.5 87.5v35c0 27.333 -1.16699 48.166 -3.5 62.499s-7.5 25.333 -15.5 33s-20.667 11.5 -38 11.5c-16.667 0 -29 -3.83301 -37 -11.5s-13.167 -18.667 -15.5 -33s-3.5 -35.166 -3.5 -62.499v-36
c0 -40.667 3.5 -69.667 10.5 -87s22.167 -26 45.5 -26c24 0 39.5 8.83301 46.5 26.5zM615.5 49.498c-28.333 34.333 -42.499 86.833 -42.499 157.5v42c0 71.333 13.833 123.333 41.5 156s74.5 49 140.5 49s113 -16 141 -48s42 -83.667 42 -155v-45
c0 -70.667 -14.333 -123 -43 -157s-75.334 -51 -140.001 -51s-111.167 17.167 -139.5 51.5zM801.001 123.498c6.66699 17.667 10 46.833 10 87.5v36c0 28 -1 49 -3 63s-7 24.833 -15 32.5s-20.667 11.5 -38 11.5s-29.833 -3.83301 -37.5 -11.5s-12.667 -18.667 -15 -33
s-3.5 -35.166 -3.5 -62.499v-36c0 -40.667 3.5 -69.834 10.5 -87.501s22.167 -26.5 45.5 -26.5c24 0 39.333 8.83301 46 26.5z" />
    <glyph glyph-name="ampersand" unicode="&#x26;" horiz-adv-x="577" 
d="M94.5 41c-34.333 34.667 -51.5029 80.999 -51.5029 138.999c0 48 9.83301 91 29.5 129s48.167 76 85.5 114c-27.333 48 -47.833 88.333 -61.5 121s-20.5 65.667 -20.5 99c0 52 15.667 94.667 47 128s74.333 50 129 50c51.333 0 93.333 -15.333 126 -46s49 -71 49 -121
c0 -31.333 -5.83301 -60.5 -17.5 -87.5s-25.667 -50.667 -42 -71s-37.5 -43.833 -63.5 -70.5l-18 -19l101 -181c8.66699 15.333 15.834 39.5 21.501 72.5s9.16699 64.833 10.5 95.5h109c0 -51.333 -5.5 -97.166 -16.5 -137.499s-26.833 -78.5 -47.5 -114.5
c7.33301 -9.33301 17.333 -17.333 30 -24s25.334 -10.334 38.001 -11.001v-117c-9.33301 -1.33301 -17.666 -2 -24.999 -2c-24 0 -46.5 6.83301 -67.5 20.5s-39.833 30.834 -56.5 51.501c-37.333 -46.667 -88 -70 -152 -70c-56.667 0 -102.167 17.333 -136.5 52z
M285.997 568.499c12.667 33 19.001 62.168 19.001 87.501c0 17.333 -4.83301 31 -14.5 41s-21.834 15 -36.501 15c-16 0 -28.5 -6.33301 -37.5 -19s-13.5 -29.334 -13.5 -50.001c0 -42.667 13.333 -95 40 -157c16 22 30.333 49.5 43 82.5zM315.998 139l-104 184.999
c-30 -46 -45 -92 -45 -138c0 -27.333 6 -49.666 18 -66.999s29 -26 51 -26c32 0 58.667 15.333 80 46z" />
    <glyph glyph-name="quotesingle" unicode="'" horiz-adv-x="161" 
d="M24 810h125l-51 -289h-74v289z" />
    <glyph glyph-name="parenleft" unicode="(" horiz-adv-x="330" 
d="M144.5 -115c-33.667 44.667 -55.5 101.668 -65.5 171.001s-15 155.666 -15 258.999c0 108.667 4.83301 197.834 14.5 267.501s31.334 126.334 65.001 170.001s84.167 65.5 151.5 65.5v-105c-25.333 0 -44.5 -15.667 -57.5 -47s-21.667 -75 -26 -131
s-6.5 -129.333 -6.5 -220c0 -88.667 2.33301 -160.834 7 -216.501s13.5 -98.834 26.5 -129.501s31.833 -46 56.5 -46v-105c-66.667 0 -116.834 22.333 -150.501 67z" />
    <glyph glyph-name="parenright" unicode=")" horiz-adv-x="314" 
d="M34 -76c24.667 0 43.5 15.3369 56.5 46.0039s21.833 73.667 26.5 129s7 127.666 7 216.999c0 91.333 -2.16699 164.666 -6.5 219.999s-13 98.833 -26 130.5s-32.167 47.5 -57.5 47.5v104c67.333 0 117.833 -21.833 151.5 -65.5s55.334 -100.334 65.001 -170.001
s14.5 -158.5 14.5 -266.5c0 -103.333 -5 -189.833 -15 -259.5s-31.833 -126.834 -65.5 -171.501s-83.834 -67 -150.501 -67v106z" />
    <glyph glyph-name="asterisk" unicode="*" horiz-adv-x="418" 
d="M77 507l73 104l-109 42l34 90l100 -54l-12 121h113l-13 -122l101 56l34 -92l-110 -42l74 -103l-90 -53l-53 110l-54 -110z" />
    <glyph glyph-name="plus" unicode="+" horiz-adv-x="441" 
d="M169 369h-143v92h143v157h102v-157h145v-92h-145v-161h-102v161z" />
    <glyph glyph-name="comma" unicode="," horiz-adv-x="227" 
d="M54 -87c45.333 12.667 68 41.667 68 87h-79v146h145v-129c-1.33301 -93.333 -42 -145 -122 -155z" />
    <glyph glyph-name="hyphen" unicode="-" horiz-adv-x="372" 
d="M61 390h251v-99h-251v99z" />
    <glyph glyph-name="period" unicode="." horiz-adv-x="232" 
d="M47 146h144v-146h-144v146z" />
    <glyph glyph-name="slash" unicode="/" horiz-adv-x="411" 
d="M282 810h89l-243 -810h-88z" />
    <glyph glyph-name="zero" unicode="0" horiz-adv-x="543" 
d="M110.5 49.5c-37 42.333 -55.501 99.168 -55.501 170.501v363c0 74 18 132.167 54 174.5s90.333 63.5 163 63.5c72 0 126 -21.167 162 -63.5s54 -100.5 54 -174.5v-363c0 -70.667 -18.667 -127.334 -56 -170.001s-90.666 -64 -159.999 -64
c-70.667 0 -124.5 21.167 -161.5 63.5zM330.999 223.002l-0.000976562 357.001c0 30 -3.83301 55 -11.5 75s-23.5 30 -47.5 30c-25.333 0 -41.666 -9.83301 -48.999 -29.5s-11 -44.834 -11 -75.501v-357c0 -67.333 20 -101 60 -101c39.333 0 59 33.667 59 101z" />
    <glyph glyph-name="one" unicode="1" horiz-adv-x="391" 
d="M141 650c-6 -3.33301 -16 -7.50098 -30 -12.501l-32 -11.5c-29.333 -9.33301 -47.666 -16 -54.999 -20v115c22.667 9.33301 50.167 22.833 82.5 40.5s55.166 33.834 68.499 48.501h121v-810h-155v650z" />
    <glyph glyph-name="two" unicode="2" horiz-adv-x="506" 
d="M41 109l197 302.999l15 23c24 37.333 41.833 68.5 53.5 93.5s17.5 52.167 17.5 81.5c0 26 -5 45.833 -15 59.5s-24.667 20.5 -44 20.5c-27.333 0 -46.333 -10.667 -57 -32s-16 -50.666 -16 -87.999v-37h-151v40c0 76 17.833 136.167 53.5 180.5s91.5 66.5 167.5 66.5
c70 0 123.333 -18.5 160 -55.5s55 -89.5 55 -157.5c0 -41.333 -7.66699 -78.5 -23 -111.5s-39.333 -73.833 -72 -122.5l-11 -17l-156 -234h240v-122h-414v109z" />
    <glyph glyph-name="three" unicode="3" horiz-adv-x="506" 
d="M89 50c-34 42.667 -50.998 102.998 -50.998 180.998v28h154v-27c0.666992 -41.333 5.66699 -71 15 -89s26.333 -27 51 -27s41.334 9.16699 50.001 27.5s13 48.166 13 89.499c0 43.333 -6.5 75.5 -19.5 96.5s-36.5 31.833 -70.5 32.5c-1.33301 0.666992 -10.333 1 -27 1
v113h24c35.333 0 59.666 9.33301 72.999 28s20 49.334 20 92.001c0 34.667 -4.83301 60.334 -14.5 77.001s-26.834 25 -51.501 25c-24 0 -40.333 -9 -49 -27s-13.334 -44.667 -14.001 -80v-36h-154v44c0 70.667 19 125.334 57 164.001s91.333 58 160 58
c69.333 0 123 -18.667 161 -56s57 -91 57 -161c0 -46 -9.5 -85 -28.5 -117s-43.5 -52 -73.5 -60c68 -25.333 102 -89 102 -191c0 -78 -17.333 -139.167 -52 -183.5s-89.667 -66.5 -165 -66.5c-77.333 0 -133 21.333 -167 64z" />
    <glyph glyph-name="four" unicode="4" horiz-adv-x="515" 
d="M274 190h-246v120l211 500h179v-503h79v-117h-79v-190h-144v190zM274 307v344l-124 -344h124z" />
    <glyph glyph-name="five" unicode="5" horiz-adv-x="502" 
d="M124 16.5c-30.667 19.667 -51.6631 47.502 -62.9961 83.502s-17 81 -17 135h150c0 -46.667 4.33301 -80.5 13 -101.5s25.667 -31.5 51 -31.5c20 0 34.667 6.66699 44 20s15.166 31.666 17.499 54.999s3.5 56.333 3.5 99c0 49.333 -4.5 86.166 -13.5 110.499
s-27.5 36.5 -55.5 36.5c-36 0 -59 -24.333 -69 -73h-133l11 460h372v-133h-246l-8 -179c9.33301 11.333 25.333 20.833 48 28.5s46.667 11.5 72 11.5c55.333 0 97.166 -22.333 125.499 -67s42.5 -107.334 42.5 -188.001c0 -64 -5.66699 -117.167 -17 -159.5
s-32.833 -75.666 -64.5 -99.999s-76.834 -36.5 -135.501 -36.5c-54.667 0 -97.334 9.83301 -128.001 29.5z" />
    <glyph glyph-name="six" unicode="6" horiz-adv-x="530" 
d="M107 61c-36 48 -53.998 112.667 -53.998 194v288c0 88 16 156.167 48 204.5s88.667 72.5 170 72.5c72 0 124 -17 156 -51s48.333 -85.333 49 -154v-14h-146c0 37.333 -3.66699 63.5 -11 78.5s-23 22.5 -47 22.5c-16.667 0 -29.334 -5 -38.001 -15
s-14.834 -26.667 -18.501 -50s-5.5 -56.333 -5.5 -99v-82c8.66699 14.667 22.5 26.167 41.5 34.5s41.167 12.5 66.5 12.5c60 0 103.5 -21 130.5 -63s40.5 -98.667 40.5 -170c0 -89.333 -16.667 -158.5 -50 -207.5s-89 -73.5 -167 -73.5c-74 0 -129 24 -165 72z
M321.502 137.5c8.33301 22.333 12.498 57.833 12.498 106.5c0 33.333 -1.16699 59.5 -3.5 78.5s-8 34.167 -17 45.5s-22.833 17 -41.5 17c-13.333 0 -25.666 -3.83301 -36.999 -11.5s-19.666 -16.167 -24.999 -25.5v-129c0 -76.667 21 -115 63 -115
c24 0 40.167 11.167 48.5 33.5z" />
    <glyph glyph-name="seven" unicode="7" horiz-adv-x="427" 
d="M241 692h-220v118h371v-101l-171 -709h-150z" />
    <glyph glyph-name="eight" unicode="8" horiz-adv-x="516" 
d="M41 234c0 45.333 8.00098 84.667 24.001 118s39.667 58 71 74c-24.667 18 -44.667 42.333 -60 73s-23 67.667 -23 111c0 66 17.5 117.5 52.5 154.5s85.833 55.5 152.5 55.5c66 0 116.333 -18.333 151 -55s52 -87.667 52 -153c0 -45.333 -7.33301 -83.333 -22 -114
s-34.334 -54.667 -59.001 -72c31.333 -16 55 -41.333 71 -76s24 -75.667 24 -123c0 -75.333 -17.333 -134 -52 -176s-89.667 -63 -165 -63c-144.667 0 -217 82 -217 246zM315.001 609.001c0 29.333 -4.83203 52.5 -14.499 69.5s-23.834 25.5 -42.501 25.5
c-19.333 0 -34 -8.5 -44 -25.5s-15 -40.167 -15 -69.5c0 -83.333 19.667 -125 59 -125c38 0 57 41.667 57 125zM311.502 140.501c7.66699 25 11.5 57.499 11.5 97.499c0 36.667 -4.5 65.834 -13.5 87.501s-26.167 32.5 -51.5 32.5c-26 0 -43.5 -11.833 -52.5 -35.5
s-13.5 -55.167 -13.5 -94.5c0 -36 4.5 -65.833 13.5 -89.5s26.5 -35.5 52.5 -35.5c28 0 45.833 12.5 53.5 37.5z" />
    <glyph glyph-name="nine" unicode="9" horiz-adv-x="531" 
d="M100.5 40.5c-31.667 34.333 -47.4971 86.167 -47.4971 155.5v12h146c0 -36.667 3.83301 -62.667 11.5 -78s23.5 -23 47.5 -23c16.667 0 29.167 5 37.5 15s14.166 26.5 17.499 49.5s5 56.167 5 99.5v82c-8.66699 -14.667 -22.334 -26.167 -41.001 -34.5
s-40.334 -12.5 -65.001 -12.5c-60 0 -103.667 22 -131 66s-41 102.333 -41 175c0 182 72.667 273 218 273c74 0 128.833 -23 164.5 -69s53.5 -109.333 53.5 -190v-295c0 -87.333 -16.167 -155.333 -48.5 -204s-89.166 -73 -170.499 -73
c-72.667 0 -124.834 17.167 -156.501 51.5zM318.003 461.001v128.999c0 35.333 -4.33301 63.333 -13 84s-24.334 31 -47.001 31c-24 0 -40 -11.167 -48 -33.5s-12 -57.833 -12 -106.5c0 -34.667 1 -61.167 3 -79.5s7.5 -33.166 16.5 -44.499s22.833 -17 41.5 -17
c24.667 0 44.334 12.333 59.001 37z" />
    <glyph glyph-name="colon" unicode=":" horiz-adv-x="260" 
d="M65 556h143v-143h-143v143zM65 209h143v-145h-143v145z" />
    <glyph glyph-name="semicolon" unicode=";" horiz-adv-x="270" 
d="M65 573h143v-146h-143v146zM76 -51c46 7.33301 69 33.668 69 79.001h-79v145h144v-129c0 -96.667 -40.667 -145.334 -122 -146.001z" />
    <glyph glyph-name="less" unicode="&#x3c;" horiz-adv-x="393" 
d="M31 300v122l304 214v-134l-195 -140l195 -142v-133z" />
    <glyph glyph-name="equal" unicode="=" horiz-adv-x="437" 
d="M61 536h315v-95h-315v95zM61 349h315v-95h-315v95z" />
    <glyph glyph-name="greater" unicode="&#x3e;" horiz-adv-x="393" 
d="M55 220l196 142l-196 140v134l305 -214v-121l-305 -214v133z" />
    <glyph glyph-name="question" unicode="?" horiz-adv-x="485" 
d="M136 339c50 39.333 89.833 82.166 119.5 128.499s44.5 94.833 44.5 145.5c0 52 -21 78 -63 78c-18 0 -32.167 -5.33301 -42.5 -16s-15.5 -25 -15.5 -43c0 -16 3.33301 -34 10 -54l-137 -31c-10 30 -15 59 -15 87c0 58 17.667 103.5 53 136.5s85.333 49.5 150 49.5
c66.667 0 118 -17.667 154 -53s54 -85.666 54 -150.999c0 -114.667 -58.333 -217 -175 -307v-98h-137v128zM131 145h148v-145h-148v145z" />
    <glyph glyph-name="at" unicode="@" horiz-adv-x="940" 
d="M164 -23c-72.667 70 -108.998 169.002 -108.998 297.002c0 20.667 1 41.334 3 62.001c6.66699 97.333 30.334 181.5 71.001 252.5s95.667 125.667 165 164s150 57.5 242 57.5c82 0 150.833 -15.833 206.5 -47.5s97.167 -75.334 124.5 -131.001s41 -119.5 41 -191.5
c0 -11.333 -0.666992 -27.666 -2 -48.999c-3.33301 -48.667 -14.833 -95.167 -34.5 -139.5s-47.834 -80.833 -84.501 -109.5s-80.667 -43 -132 -43c-29.333 0 -55.666 6.66699 -78.999 20s-38 32.666 -44 57.999c-8.66699 -20.667 -22.667 -37.834 -42 -51.501
s-42 -20.5 -68 -20.5c-47.333 0 -84.833 18 -112.5 54s-41.5 81.333 -41.5 136c0 45.333 8.66699 92.5 26 141.5s43.333 90.333 78 124s76.667 50.5 126 50.5c18.667 0 32.834 -5.5 42.501 -16.5s19.5 -25.5 29.5 -43.5l10 54h119l-46 -336c-2.66699 -16 -4 -31.333 -4 -46
c0 -23.333 5.66699 -36.333 17 -39c2 -0.666992 5.33301 -1 10 -1c19.333 0 38.166 9 56.499 27s33.666 42.833 45.999 74.5s19.833 66.167 22.5 103.5c1.33301 21.333 2 37.333 2 48c0 87.333 -22.667 155.833 -68 205.5s-115.333 74.5 -210 74.5
c-72.667 0 -134.5 -16.333 -185.5 -49s-90.5 -77.334 -118.5 -134.001s-44.667 -121.667 -50 -195c-2 -22 -3 -42.667 -3 -62c0 -100 26.167 -176.5 78.5 -229.5s132.166 -79.5 239.499 -79.5c26.667 0 58.5 3 95.5 9s70.167 13.667 99.5 23l18 -95
c-88 -21.333 -163.667 -32 -227 -32c-132.667 0 -235.334 35 -308.001 105zM501.002 221.502c12 7 20.3311 17.499 24.998 31.499l32 235c-1.33301 4 -5.33301 7.16699 -12 9.5s-12.667 3.5 -18 3.5c-25.333 0 -47.666 -9.5 -66.999 -28.5s-34.166 -43.5 -44.499 -73.5
s-15.833 -61.333 -16.5 -94c0 -29.333 5.5 -53.166 16.5 -71.499s28.167 -26.5 51.5 -24.5c10 1.33301 21 5.5 33 12.5z" />
    <glyph glyph-name="A" unicode="A" horiz-adv-x="538" 
d="M178 810h183l156 -810h-152l-30 178h-128l-31 -178h-155zM319 280l-49 326l-48 -326h97z" />
    <glyph glyph-name="B" unicode="B" horiz-adv-x="575" 
d="M61 810h206c78.667 0 139.667 -15.167 183 -45.5s65 -85.166 65 -164.499c0 -48 -10.167 -85.833 -30.5 -113.5s-49.5 -44.834 -87.5 -51.501c47.333 -6.66699 82.833 -26.667 106.5 -60s35.5 -79 35.5 -137c0 -158.667 -78.667 -238 -236 -238h-242v810zM267 483
c40 0 67.333 9 82 27s22 46.667 22 86c0 36 -9.33301 61.833 -28 77.5s-47.667 23.5 -87 23.5h-31v-214h42zM272 116c40 0 68.167 10 84.5 30s24.5 51.667 24.5 95c0 46.667 -8.5 80.167 -25.5 100.5s-45.833 30.5 -86.5 30.5h-44v-256h47z" />
    <glyph glyph-name="C" unicode="C" horiz-adv-x="553" 
d="M103 58.5c-36 46.333 -54.001 113.163 -54.001 200.496v290c0 89.333 17.833 156.833 53.5 202.5s96.834 68.5 183.501 68.5c82.667 0 141.167 -20.167 175.5 -60.5s51.5 -98.166 51.5 -173.499v-68h-160v75c0 24 -1.16699 43.333 -3.5 58s-8.33301 26.834 -18 36.501
s-24.5 14.5 -44.5 14.5c-30 0 -49.333 -9.66699 -58 -29s-13 -47.666 -13 -84.999v-368c0 -38 5 -66.333 15 -85s28.667 -28 56 -28c28 0 46 9.5 54 28.5s12 47.167 12 84.5v79h160v-67c0 -77.333 -17 -137.166 -51 -179.499s-92.667 -63.5 -176 -63.5
c-86 0 -147 23.167 -183 69.5z" />
    <glyph glyph-name="D" unicode="D" horiz-adv-x="573" 
d="M61 810l198.001 0.00195312c68 0 121.167 -8.83301 159.5 -26.5s65.666 -44.834 81.999 -81.501s24.5 -85.334 24.5 -146.001v-295c0 -62 -8 -111.833 -24 -149.5s-43 -65.667 -81 -84s-90.333 -27.5 -157 -27.5h-202v810zM261.001 115.002
c28.667 0 49.8311 4.49805 63.498 13.498s22.334 22.167 26.001 39.5s5.5 42.333 5.5 75v335c0 30.667 -2.16699 53.834 -6.5 69.501s-13.166 27.334 -26.499 35.001s-34.333 11.5 -63 11.5h-35v-579h36z" />
    <glyph glyph-name="E" unicode="E" horiz-adv-x="439" 
d="M61 810h353v-114h-189v-215h146v-115h-146v-254h191v-112h-355v810z" />
    <glyph glyph-name="F" unicode="F" horiz-adv-x="425" 
d="M61 810h342v-113h-178v-218h151v-115h-151v-364h-164v810z" />
    <glyph glyph-name="G" unicode="G" horiz-adv-x="572" 
d="M99.5 60.5c-33.667 48.333 -50.501 117.5 -50.501 207.5v271c0 92 17.833 161.833 53.5 209.5s96.834 71.5 183.501 71.5c83.333 0 142.666 -20.333 177.999 -61s53 -99.334 53 -176.001v-47h-160v57c0 37.333 -4.16699 64.833 -12.5 82.5s-27.166 26.5 -56.499 26.5
c-30 0 -49.333 -10 -58 -30s-13 -49 -13 -87v-360c0 -38 5.33301 -67.167 16 -87.5s30.667 -30.5 60 -30.5c28.667 0 48.834 10.833 60.501 32.5s17.5 51.834 17.5 90.501v86h-79v100h228v-416h-108l-11 72c-24.667 -56 -69 -84 -133 -84
c-78.667 0 -134.834 24.167 -168.501 72.5z" />
    <glyph glyph-name="H" unicode="H" horiz-adv-x="599" 
d="M63 810h165v-332h143v332h165v-810h-165v359h-143v-359h-165v810z" />
    <glyph glyph-name="I" unicode="I" horiz-adv-x="289" 
d="M63 810h164v-810h-164v810z" />
    <glyph glyph-name="J" unicode="J" horiz-adv-x="339" 
d="M12 95c27.333 0 47.999 2.33203 61.999 6.99902s24 13.334 30 26.001s9 32 9 58v624h165v-631c0 -46 -5.5 -83.5 -16.5 -112.5s-30.167 -50.667 -57.5 -65s-64.666 -21.5 -111.999 -21.5h-80v115z" />
    <glyph glyph-name="K" unicode="K" horiz-adv-x="552" 
d="M61 810h164v-342l147 342h160l-152 -364l164 -446h-167l-125 362l-27 -44v-318h-164v810z" />
    <glyph glyph-name="L" unicode="L" horiz-adv-x="433" 
d="M61 810h164v-698h191v-112h-355v810z" />
    <glyph glyph-name="M" unicode="M" horiz-adv-x="695" 
d="M72 810h175l100 -511l106 511h169l15 -810h-120l-13 550l-104 -550h-102l-107 553l-12 -553h-121z" />
    <glyph glyph-name="N" unicode="N" horiz-adv-x="554" 
d="M61 810h115l180 -421v421h137v-810h-111l-180 448v-448h-141v810z" />
    <glyph glyph-name="O" unicode="O" horiz-adv-x="576" 
d="M104 56.5c-36.667 45 -55 111.167 -55 198.5v302c0 87.333 18.333 153 55 197s98 66 184 66c85.333 0 146.5 -22.167 183.5 -66.5s55.5 -109.833 55.5 -196.5v-303c0 -86.667 -18.5 -152.5 -55.5 -197.5s-98.167 -67.5 -183.5 -67.5c-86 0 -147.333 22.5 -184 67.5z
M344.5 135.5c9.66699 19 14.5 45.167 14.5 78.5v383c0 33.333 -4.83301 59.166 -14.5 77.499s-28.5 27.5 -56.5 27.5s-46.833 -9.16699 -56.5 -27.5s-14.5 -44.166 -14.5 -77.499v-383c0 -34 4.66699 -60.333 14 -79s28.333 -28 57 -28c28 0 46.833 9.5 56.5 28.5z" />
    <glyph glyph-name="P" unicode="P" horiz-adv-x="551" 
d="M61 810h257c140 0 210 -77.667 210 -233c0 -82 -20 -140.167 -60 -174.5s-95.667 -51.5 -167 -51.5h-76v-351h-164v810zM284 467c35.333 0 59 8.33203 71 24.999s18 46 18 88c0 27.333 -2 48.833 -6 64.5s-12.5 27.834 -25.5 36.501s-32.5 13 -58.5 13h-58v-227h59z" />
    <glyph glyph-name="Q" unicode="Q" horiz-adv-x="576" 
d="M383 -100c-32 29.333 -57.999 59.333 -77.999 90c-4 -0.666992 -9.66699 -1 -17 -1c-86 0 -147.333 22.5 -184 67.5s-55 111.167 -55 198.5v302c0 87.333 18.333 153 55 197s98 66 184 66c85.333 0 146.5 -22.167 183.5 -66.5s55.5 -109.833 55.5 -196.5v-303
c0 -60 -8.66699 -110 -26 -150s-45 -69.333 -83 -88c33.333 -37.333 60.666 -62 81.999 -74l-33 -102c-24 10.667 -52 30.667 -84 60zM345.001 135.5c9.33301 19 14 45.168 14 78.501v383c0 33.333 -4.66699 59.166 -14 77.499s-28.333 27.5 -57 27.5
c-29.333 0 -48.5 -9 -57.5 -27s-13.5 -44 -13.5 -78v-383c0 -34 4.66699 -60.333 14 -79s28.333 -28 57 -28s47.667 9.5 57 28.5z" />
    <glyph glyph-name="R" unicode="R" horiz-adv-x="583" 
d="M61 810h210c87.333 0 153 -16 197 -48s66 -87.333 66 -166c0 -52.667 -7.33301 -95.167 -22 -127.5s-40.667 -56.833 -78 -73.5l112 -395h-169l-92 367h-60v-367h-164v810zM274 465c38.667 0 65.833 9.5 81.5 28.5s23.5 48.833 23.5 89.5c0 40 -7 69.333 -21 88
s-39.333 28 -76 28h-57v-234h49z" />
    <glyph glyph-name="S" unicode="S" horiz-adv-x="505" 
d="M102 50.5c-37.333 41 -57.668 104.5 -61.001 190.5l142 24c1.33301 -51.333 8.5 -89.166 21.5 -113.499s32.5 -36.5 58.5 -36.5c19.333 0 33.333 6.16699 42 18.5s13 28.166 13 47.499c0 32 -7.16699 59.167 -21.5 81.5s-36.833 46.833 -67.5 73.5l-84 73
c-33.333 28 -58.833 58 -76.5 90s-26.5 70.333 -26.5 115c0 66 19.5 116.833 58.5 152.5s92.833 53.5 161.5 53.5c73.333 0 124.333 -21.167 153 -63.5s45 -96.166 49 -161.499l-143 -21c-1.33301 42.667 -6.16602 74.167 -14.499 94.5s-24.833 30.5 -49.5 30.5
c-18 0 -32 -6.83301 -42 -20.5s-15 -29.834 -15 -48.501c0 -26.667 5.83301 -49.167 17.5 -67.5s30.167 -38.5 55.5 -60.5l82 -72c38.667 -34 69 -69.833 91 -107.5s33 -81.834 33 -132.501c0 -38.667 -8.66699 -73.167 -26 -103.5s-41.833 -54.166 -73.5 -71.499
s-68.167 -26 -109.5 -26c-74.667 0 -130.667 20.5 -168 61.5z" />
    <glyph glyph-name="T" unicode="T" horiz-adv-x="438" 
d="M137 688h-125v122h414v-122h-123v-688h-166v688z" />
    <glyph glyph-name="U" unicode="U" horiz-adv-x="578" 
d="M148 19.5c-34 20.333 -57.998 49.833 -71.998 88.5s-21 88 -21 148v554h162v-577c0 -38.667 4.66699 -69 14 -91s28.666 -33 57.999 -33s48.666 11 57.999 33s14 52.333 14 91v577h163v-554c0 -60 -7 -109.333 -21 -148s-38.167 -68.167 -72.5 -88.5
s-81.5 -30.5 -141.5 -30.5s-107 10.167 -141 30.5z" />
    <glyph glyph-name="V" unicode="V" horiz-adv-x="521" 
d="M22 810h143l96 -560l90 560h149l-154 -810h-170z" />
    <glyph glyph-name="W" unicode="W" horiz-adv-x="704" 
d="M29 810h139l57 -495l71 494h111l74 -492l57 493h137l-104 -810h-141l-78 513l-75 -513h-143z" />
    <glyph glyph-name="X" unicode="X" horiz-adv-x="508" 
d="M168 434l-154 376h156l96 -234l80 234h140l-147 -415l161 -395h-154l-106 256l-93 -256h-139z" />
    <glyph glyph-name="Y" unicode="Y" horiz-adv-x="491" 
d="M167 321l-158 489h155l87 -285l80 285h151l-156 -489v-321h-159v321z" />
    <glyph glyph-name="Z" unicode="Z" horiz-adv-x="429" 
d="M31 102l207 595h-197v113h360v-90l-211 -608h213v-112h-372v102z" />
    <glyph glyph-name="bracketleft" unicode="[" horiz-adv-x="334" 
d="M54 810h245v-61h-122v-873h121v-61h-244v995z" />
    <glyph glyph-name="backslash" unicode="\" horiz-adv-x="411" 
d="M40 810h89l242 -810h-89z" />
    <glyph glyph-name="bracketright" unicode="]" horiz-adv-x="321" 
d="M23 -124h121l-1 873h-121v61h245v-995h-244v61z" />
    <glyph glyph-name="asciicircum" unicode="^" horiz-adv-x="469" 
d="M172 810h125l142 -332h-131l-74 205l-74 -205h-129z" />
    <glyph glyph-name="underscore" unicode="_" horiz-adv-x="363" 
d="M0 -57h363v-103h-363v103z" />
    <glyph glyph-name="grave" unicode="`" horiz-adv-x="301" 
d="M44 810h154l60 -201h-92z" />
    <glyph glyph-name="a" unicode="a" horiz-adv-x="466" 
d="M98 10c-20 13.333 -35.168 30.8311 -45.501 52.498s-15.5 44.167 -15.5 67.5c0 44.667 11 81.334 33 110.001s48.5 51 79.5 67s72.167 33.333 123.5 52v54c0 20.667 -2.83301 36.334 -8.5 47.001s-15.834 16 -30.501 16s-25 -4.66699 -31 -14
s-9.66699 -22.666 -11 -39.999l-3 -40l-142 6c2.66699 68.667 20.334 119.167 53.001 151.5s81.667 48.5 147 48.5c56.667 0 99.334 -15.667 128.001 -47s43 -74.333 43 -129v-269c0 -45.333 3.33301 -93 10 -143h-135c-2.66699 19.333 -7 47 -13 83
c-8 -26.667 -21.5 -48.834 -40.5 -66.501s-42.833 -26.5 -71.5 -26.5c-26.667 0 -50 6.66699 -70 20zM250.499 106.998c9 6.66699 16.5 14.333 22.5 23v159c-31.333 -18 -55.333 -36.667 -72 -56s-25 -43 -25 -71c0 -20.667 4 -36.667 12 -48s19.333 -17 34 -17
c10 0 19.5 3.33301 28.5 10z" />
    <glyph glyph-name="b" unicode="b" horiz-adv-x="493" 
d="M203 43v-43h-151v810h151v-275c38.667 35.333 79.667 53 123 53s75 -17.5 95 -52.5s30 -77.833 30 -128.5v-226c0 -57.333 -11 -103.5 -33 -138.5s-54.333 -52.5 -97 -52.5c-38.667 0 -78 17.667 -118 53zM290 113.5c6.66699 15 9.99902 35.5 9.99902 61.5v242
c0 50.667 -14.667 76 -44 76c-17.333 0 -35 -7.33301 -53 -22v-362c16.667 -12 34 -18 52 -18c16.667 0 28.334 7.5 35.001 22.5z" />
    <glyph glyph-name="c" unicode="c" horiz-adv-x="456" 
d="M89 43c-32.667 35.333 -48.998 84.999 -48.998 148.999v195c0 64.667 16.333 114.334 49 149.001s80.667 52 144 52c62 0 108.833 -14.667 140.5 -44s47.5 -73.333 47.5 -132v-55h-145v59c0 25.333 -3.33301 42.833 -10 52.5s-17.334 14.5 -32.001 14.5
c-16 0 -27.167 -6 -33.5 -18s-9.5 -33 -9.5 -63v-228c0 -30 3.5 -50.667 10.5 -62s17.833 -17 32.5 -17c15.333 0 26.166 5.33301 32.499 16s9.5 27.667 9.5 51v70h145v-64c0 -58 -16 -102.167 -48 -132.5s-78.667 -45.5 -140 -45.5c-63.333 0 -111.333 17.667 -144 53z" />
    <glyph glyph-name="d" unicode="d" horiz-adv-x="490" 
d="M42 181v212.001c0 59.333 11.333 106.666 34 141.999s56.667 53 102 53c38 0 74.667 -15.333 110 -46v268h151v-810h-151v43c-35.333 -35.333 -72 -53 -110 -53c-90.667 0 -136 63.667 -136 191zM288 107.001v368.001c-17.333 10 -33.333 15 -48 15
c-16 0 -27.667 -6.83301 -35 -20.5s-11 -31.834 -11 -54.501v-245c0 -53.333 15.333 -80 46 -80c14.667 0 30.667 5.66699 48 17z" />
    <glyph glyph-name="e" unicode="e" horiz-adv-x="459" 
d="M89.5 42c-33 34.667 -49.501 84.667 -49.501 150v194c0 65.333 16.667 115.333 50 150s81.333 52 144 52c64.667 0 112 -17.333 142 -52s45 -86 45 -154v-101h-231v-112c0 -24.667 3.83301 -42.667 11.5 -54s18.834 -17 33.501 -17c30 0 45 21.667 45 65v56h140v-50
c0 -58 -16 -102.333 -48 -133s-78 -46 -138 -46c-63.333 0 -111.5 17.333 -144.5 52zM279.999 353v56c0 25.333 -3.66699 43.5 -11 54.5s-19 16.5 -35 16.5c-15.333 0 -26.5 -6 -33.5 -18s-10.5 -33.333 -10.5 -64v-45h90z" />
    <glyph glyph-name="f" unicode="f" horiz-adv-x="313" 
d="M75 475h-58.001v103h58v40c0 38.667 3.66699 70 11 94s21.833 42.667 43.5 56s53.834 20 96.501 20c27.333 0 53 -1.66699 77 -5v-112c-16.667 3.33301 -28.667 5 -36 5c-27.333 0 -41 -17 -41 -51v-47h77v-103h-77v-475h-151v475z" />
    <glyph glyph-name="g" unicode="g" horiz-adv-x="487" 
d="M79.5 -166c-37 19.333 -55.501 47.999 -55.501 85.999c0 50.667 29.667 89 89 115c-50.667 13.333 -76 41.666 -76 84.999c0 21.333 5.16699 40.333 15.5 57s26.5 34.667 48.5 54c-19.333 16.667 -33.833 37.5 -43.5 62.5s-14.5 55.5 -14.5 91.5
c0 66 16.833 116.333 50.5 151s82.5 52 146.5 52c59.333 0 103.666 -16.667 132.999 -50c6.66699 11.333 16.334 22.333 29.001 33s27 19.667 43 27l20 10l36 -76c-10 -3.33301 -25 -9.16602 -45 -17.499s-35.667 -15.833 -47 -22.5c6.66699 -14 11.834 -30.667 15.501 -50
s5.5 -38.666 5.5 -57.999c0 -63.333 -15.833 -112.333 -47.5 -147s-79.167 -52 -142.5 -52c-33.333 0 -63 4.66699 -89 14c-10.667 -13.333 -16 -25.666 -16 -36.999c0 -8 4 -14.333 12 -19s21.667 -8 41 -10l139 -15c94.667 -10.667 142 -60.334 142 -149.001
c0 -55.333 -18.833 -96.5 -56.5 -123.5s-98.167 -40.5 -181.5 -40.5c-64 0 -114.5 9.66699 -151.5 29zM279.999 300.499c6.66699 15.667 10 43.8359 10 84.5029c0 41.333 -3.33301 70.166 -10 86.499s-20 24.5 -40 24.5s-33.5 -8.33301 -40.5 -25
s-10.5 -45.334 -10.5 -86.001c0 -38.667 3.5 -66.334 10.5 -83.001s20.5 -25 40.5 -25s33.333 7.83301 40 23.5zM335.499 -74.499c18.333 7 27.499 19.5 27.499 37.5c0 15.333 -6 26.5 -18 33.5s-34.333 11.833 -67 14.5l-104 11c-11.333 -10 -20.166 -19.5 -26.499 -28.5
s-9.5 -18.833 -9.5 -29.5c0 -16.667 8.66699 -29 26 -37s46 -12 86 -12c38.667 0 67.167 3.5 85.5 10.5z" />
    <glyph glyph-name="h" unicode="h" horiz-adv-x="496" 
d="M53 810l151 0.000976562v-285c42 42 89.333 63 142 63c32.667 0 57.667 -12.333 75 -37s26 -56.334 26 -95.001v-456h-150v432c0 16 -2.66699 27.833 -8 35.5s-14.333 11.5 -27 11.5c-16.667 0 -36 -8.33301 -58 -25v-454h-151v810z" />
    <glyph glyph-name="i" unicode="i" horiz-adv-x="258" 
d="M53 786h152v-113h-152v113zM54 578h151v-578h-151v578z" />
    <glyph glyph-name="j" unicode="j" horiz-adv-x="267" 
d="M65 786h152v-113h-152v113zM-11 -161l-0.000976562 108c18 -2 27.667 -3 29 -3c31.333 0 47 17.667 47 53v581h151v-599c0 -46.667 -12.667 -83.667 -38 -111s-61.666 -41 -108.999 -41c-29.333 0 -56 4 -80 12z" />
    <glyph glyph-name="k" unicode="k" horiz-adv-x="517" 
d="M52 810h150v-456l145 224h168l-150 -235l148 -343h-163l-103 280l-45 -60v-220h-150v810z" />
    <glyph glyph-name="l" unicode="l" horiz-adv-x="264" 
d="M59 810h150v-810h-150v810z" />
    <glyph glyph-name="m" unicode="m" horiz-adv-x="737" 
d="M52 578h147v-48c38.667 39.333 84 59 136 59c22.667 0 42.5 -5.83301 59.5 -17.5s29.833 -29.167 38.5 -52.5c41.333 46.667 90.333 70 147 70c33.333 0 59.833 -12.167 79.5 -36.5s29.5 -58.5 29.5 -102.5v-450h-146v435c0 18.667 -3.16699 31.834 -9.5 39.501
s-15.833 11.5 -28.5 11.5c-8.66699 0 -18.5 -2.33301 -29.5 -7s-21.5 -11.334 -31.5 -20.001v-9v-450h-146v435c0 18.667 -3.16699 31.834 -9.5 39.501s-15.833 11.5 -28.5 11.5c-8.66699 0 -18.5 -2.33301 -29.5 -7s-21.5 -11.334 -31.5 -20.001v-459h-147v578z" />
    <glyph glyph-name="n" unicode="n" horiz-adv-x="493" 
d="M52 578l149.999 0.000976562v-58c46.667 45.333 93.334 68 140.001 68c33.333 0 58.833 -12.333 76.5 -37s26.5 -56.334 26.5 -95.001v-456h-151v432c0 16 -2.66699 27.833 -8 35.5s-14.333 11.5 -27 11.5c-15.333 0 -34.333 -8 -57 -24v-455h-150v578z" />
    <glyph glyph-name="o" unicode="o" horiz-adv-x="471" 
d="M90.5 40c-33.667 33.333 -50.5 81.666 -50.5 144.999v208c0 63.333 16.833 111.666 50.5 144.999s81.834 50 144.501 50s110.834 -16.667 144.501 -50s50.5 -81.666 50.5 -144.999v-208c0 -63.333 -16.833 -111.666 -50.5 -144.999s-81.834 -50 -144.501 -50
s-110.834 16.667 -144.501 50zM271.5 112.5c6.33301 13.667 9.5 34.167 9.5 61.5v229c0 27.333 -3.16699 48 -9.5 62s-18.166 21 -35.499 21c-18 0 -30.333 -7.16699 -37 -21.5s-10 -34.833 -10 -61.5v-229c0 -26.667 3.33301 -47 10 -61s19 -21 37 -21
c17.333 0 29.166 6.83301 35.499 20.5z" />
    <glyph glyph-name="p" unicode="p" horiz-adv-x="492" 
d="M52 578l150 0.00195312v-43c38.667 35.333 79.667 53 123 53c43.333 -0.666992 75 -18.334 95 -53.001s30 -77.334 30 -128.001v-226c0 -57.333 -11 -103.5 -33 -138.5s-54.333 -52.5 -97 -52.5c-38 0 -77.333 18 -118 54v-234h-150v768zM299 175.002v242
c0 50.667 -15 76 -45 76c-16 0 -33.333 -7.33301 -52 -22v-363c18 -11.333 35 -17 51 -17c30.667 0 46 28 46 84z" />
    <glyph glyph-name="q" unicode="q" horiz-adv-x="491" 
d="M290 46c-36 -37.333 -73 -55.999 -111 -55.999c-91.333 0 -137 63.667 -137 191v212c0 59.333 11.333 106.666 34 141.999s56.667 53 102 53c38 0 75.333 -16 112 -48v38h151v-768h-151v236zM290 108.001l-0.000976562 365.001c-17.333 11.333 -33.666 17 -48.999 17
c-16 0 -27.833 -6.83301 -35.5 -20.5s-11.5 -31.834 -11.5 -54.501v-245c0 -53.333 15.667 -80 47 -80c14.667 0 31 6 49 18z" />
    <glyph glyph-name="r" unicode="r" horiz-adv-x="370" 
d="M54 578h151v-93c20 34.667 39.5 60 58.5 76s41.167 24 66.5 24c6 0 13.667 -0.666992 23 -2v-154c-17.333 8 -35.333 12 -54 12c-36.667 0 -68 -18.667 -94 -56v-385h-151v578z" />
    <glyph glyph-name="s" unicode="s" horiz-adv-x="413" 
d="M96 26.5c-32.667 24.333 -57.6621 61.834 -74.9951 112.501l106 44c20 -59.333 48.333 -89 85 -89c14 0 24.5 3.16699 31.5 9.5s10.5 15.166 10.5 26.499c0 15.333 -4.83301 29 -14.5 41s-28.834 30.333 -57.501 55l-54 46c-32 27.333 -55.667 52.666 -71 75.999
s-23 51.333 -23 84c0 30.667 7.66699 57.834 23 81.501s36.166 42 62.499 55s55.166 19.5 86.499 19.5c46.667 0 85.167 -13.167 115.5 -39.5s51.166 -63.166 62.499 -110.499l-98 -44c-6 24 -15.667 44.5 -29 61.5s-29 25.5 -47 25.5c-12 0 -21.667 -3.5 -29 -10.5
s-11 -16.167 -11 -27.5s5.66699 -23.5 17 -36.5s29 -29.833 53 -50.5l54 -48c31.333 -26.667 55.833 -52.334 73.5 -77.001s26.5 -53.334 26.5 -86.001c0 -32 -7.83301 -59.667 -23.5 -83s-36.834 -41.166 -63.501 -53.499s-55.667 -18.5 -87 -18.5
c-50 0 -91.333 12.167 -124 36.5z" />
    <glyph glyph-name="t" unicode="t" horiz-adv-x="344" 
d="M104.5 32c-22.333 26 -33.5 65.667 -33.5 119v328h-57v99h57v174h153v-174h84v-99h-84v-313c0 -34 17 -51 51 -51c18 0 32.333 1.33301 43 4v-118c-35.333 -5.33301 -66.333 -8 -93 -8c-58 0 -98.167 13 -120.5 39z" />
    <glyph glyph-name="u" unicode="u" horiz-adv-x="490" 
d="M72.5 27c-17.667 24.667 -26.5 56.333 -26.5 95v456h151v-435c0 -16 2.83301 -28 8.5 -36s15.167 -12 28.5 -12c14 0 31.667 7.33301 53 22v461h151v-578h-151v54c-46 -42.667 -92 -64 -138 -64c-33.333 0 -58.833 12.333 -76.5 37z" />
    <glyph glyph-name="v" unicode="v" horiz-adv-x="414" 
d="M11 578h146l53 -389l50 389h145l-118 -578h-160z" />
    <glyph glyph-name="w" unicode="w" horiz-adv-x="595" 
d="M23 578h125l46 -349l52 349h110l47 -354l51 354h119l-89 -578h-129l-56 343l-61 -343h-129z" />
    <glyph glyph-name="x" unicode="x" horiz-adv-x="431" 
d="M135 314l-119 264h150l68 -148l59 148h121l-118 -286l131 -292h-152l-75 167l-62 -167h-128z" />
    <glyph glyph-name="y" unicode="y" horiz-adv-x="436" 
d="M62 -57c34 0 58.5 3.49902 73.5 10.499s22.5 19.5 22.5 37.5c0 8.66699 -2.16699 22.334 -6.5 41.001s-9.16602 38 -14.499 58l-132 488h144l73 -355l60 355h144l-134 -596c-12 -53.333 -34.333 -90.833 -67 -112.5s-76.334 -32.5 -131.001 -32.5h-32v106z" />
    <glyph glyph-name="z" unicode="z" horiz-adv-x="382" 
d="M34 98l163 370h-149v110h307v-90l-164 -377h165v-111h-322v98z" />
    <glyph glyph-name="braceleft" unicode="{" horiz-adv-x="359" 
d="M182.5 -173.5c-30.333 12.333 -50 32.5 -59 60.5s-13.5 72 -13.5 132v92c0 48.667 -1.33301 82.834 -4 102.501s-8.16699 32.667 -16.5 39s-22.833 9.5 -43.5 9.5v108c20.667 0 35.167 3.33301 43.5 10s13.833 19.667 16.5 39s4 53.333 4 102v93c0 60 4.5 104 13.5 132
s28.667 48.333 59 61s79.166 19 146.499 19v-103c-24.667 0 -42.167 -2.5 -52.5 -7.5s-17.166 -15.167 -20.499 -30.5s-5 -41.333 -5 -78v-104c0 -58 -6 -101.833 -18 -131.5s-33 -48.167 -63 -55.5c30 -6.66699 51 -24.834 63 -54.501s18 -73.5 18 -131.5v-104
c0 -36.667 1.66699 -62.667 5 -78s10.166 -25.5 20.499 -30.5s27.833 -7.5 52.5 -7.5v-102c-67.333 0 -116.166 6.16699 -146.499 18.5z" />
    <glyph glyph-name="bar" unicode="|" horiz-adv-x="257" 
d="M66 810h126v-983h-127z" />
    <glyph glyph-name="braceright" unicode="}" horiz-adv-x="367" 
d="M39 -90c24 0 41.165 2.49609 51.498 7.49609s17.166 15.167 20.499 30.5s5 41.333 5 78v104c0 58 6 101.833 18 131.5s33.333 47.834 64 54.501c-30.667 7.33301 -52 25.833 -64 55.5s-18 73.5 -18 131.5v104c0 36.667 -1.66699 62.667 -5 78s-10.166 25.5 -20.499 30.5
s-27.5 7.5 -51.5 7.5v103c66.667 0 115.334 -6.33301 146.001 -19s50.5 -33.167 59.5 -61.5s13.5 -72.166 13.5 -131.499v-93c0 -48.667 1.16699 -82.667 3.5 -102s7.66602 -32.333 15.999 -39s22.833 -10 43.5 -10v-108c-20.667 0 -35.167 -3.16699 -43.5 -9.5
s-13.666 -19.166 -15.999 -38.499s-3.5 -53.666 -3.5 -102.999v-92c0 -60 -4.5 -104 -13.5 -132s-28.667 -48.167 -59 -60.5s-79.166 -18.5 -146.499 -18.5v102z" />
    <glyph glyph-name="asciitilde" unicode="~" horiz-adv-x="474" 
d="M279 347.5c-14.667 5.66699 -32.334 13.832 -53.001 24.499c-18.667 8.66699 -32.834 15 -42.501 19s-18.5 6 -26.5 6c-8.66699 0 -19.667 -4 -33 -12s-25.333 -19 -36 -33l-49 64c14.667 22.667 33.334 43.167 56.001 61.5s43.334 27.5 62.001 27.5
c13.333 0 26.833 -2.66699 40.5 -8s32.167 -13.666 55.5 -24.999c16.667 -8.66699 29.834 -15 39.501 -19s18.167 -6 25.5 -6c16.667 0 39.667 15.333 69 46l53 -56c-12.667 -24.667 -30.5 -47.167 -53.5 -67.5s-45.167 -30.5 -66.5 -30.5
c-12.667 0 -26.334 2.83301 -41.001 8.5z" />
    <glyph glyph-name="uni00A0" unicode="&#xa0;" horiz-adv-x="250" 
 />
    <glyph glyph-name="exclamdown" unicode="&#xa1;" horiz-adv-x="231" 
d="M49 648h144v-143h-144v143zM94 448h52l44 -608h-150z" />
    <glyph glyph-name="cent" unicode="&#xa2;" horiz-adv-x="442" 
d="M205 -8c-54.667 4.66699 -96.001 24.335 -124.001 59.002s-42 81.667 -42 141v195c0 59.333 14 106.166 42 140.499s69.333 53.833 124 58.5v111h40v-110c116 -4 174 -62.333 174 -175v-55h-144v56c0 25.333 -3.33301 42.833 -10 52.5s-17.334 14.5 -32.001 14.5
c-16 0 -27.167 -5.83301 -33.5 -17.5s-9.5 -32.834 -9.5 -63.501v-222c0 -30 3.33301 -50.667 10 -62s17.667 -17 33 -17c14.667 0 25.334 5.33301 32.001 16s10 27.667 10 51v67h144v-64c0 -56 -14.667 -99 -44 -129s-72.666 -46 -129.999 -48v-111h-40v112z" />
    <glyph glyph-name="sterling" unicode="&#xa3;" horiz-adv-x="471" 
d="M17 84l59.999 27v217h-60v117h60v91c0 61.333 4.33301 111.833 13 151.5s26.834 71.667 54.501 96s68.5 36.5 122.5 36.5c66 0 111.5 -18 136.5 -54s37.833 -88 38.5 -156v-26h-129c0 36 -2.83301 63.333 -8.5 82s-17.834 28 -36.501 28
c-19.333 0 -31.666 -10.333 -36.999 -31s-8 -54 -8 -100v-119h119v-116h-119v-202h214v-126h-420v84z" />
    <glyph glyph-name="currency" unicode="&#xa4;" horiz-adv-x="554" 
d="M40 201l79.9951 78.9971c-17.333 18.667 -30.833 40.334 -40.5 65.001s-14.5 50.667 -14.5 78c0 26.667 4.83301 52.334 14.5 77.001s23.167 46.667 40.5 66l-80 79l15 15l79 -79c18.667 18 40.334 31.833 65.001 41.5s50.667 14.5 78 14.5s53.333 -4.83301 78 -14.5
s46.334 -23.5 65.001 -41.5l79 79l15 -15l-79 -79c16.667 -19.333 29.667 -41.166 39 -65.499s14 -50.166 14 -77.499s-4.66699 -53.333 -14 -78s-22.666 -46.334 -39.999 -65.001l80 -79l-15 -15l-79 79c-18.667 -18 -40.5 -32 -65.5 -42s-50.833 -14.667 -77.5 -14
c-27.333 -0.666992 -53.166 4 -77.499 14s-46.166 24 -65.499 42l-79 -79zM360.495 275.997c25 15.333 44.667 36 59 62s21.5 54.333 21.5 85s-7.16699 59 -21.5 85s-34 46.5 -59 61.5s-52.833 22.5 -83.5 22.5s-58.5 -7.5 -83.5 -22.5s-44.667 -35.5 -59 -61.5
s-21.5 -54.333 -21.5 -85s7.16699 -59 21.5 -85s34 -46.667 59 -62s52.833 -23 83.5 -23s58.5 7.66699 83.5 23z" />
    <glyph glyph-name="yen" unicode="&#xa5;" horiz-adv-x="471" 
d="M161 119h-85v78h85v66h-85v80h67l-140 467h155l87 -328l80 328h151l-138 -467h66v-80h-85v-66h85v-78h-85v-119h-158v119z" />
    <glyph glyph-name="brokenbar" unicode="&#xa6;" horiz-adv-x="216" 
d="M54 810h108v-409h-108v409zM54 233h108v-408h-108v408z" />
    <glyph glyph-name="section" unicode="&#xa7;" horiz-adv-x="463" 
d="M110 37.5c-30 29.667 -50.9971 68.8301 -62.9971 117.497l102 28c7.33301 -21.333 18.166 -40.333 32.499 -57s31.166 -25 50.499 -25c17.333 0 31.166 4.5 41.499 13.5s16.166 21.167 17.499 36.5c0.666992 17.333 -4.33301 32.666 -15 45.999
s-29.334 28.333 -56.001 45l-94 60c-24.667 16 -44 33.667 -58 53s-21 42.666 -21 69.999c0 30.667 8.16699 56.834 24.5 78.501s36.833 36.834 61.5 45.501c-24 14 -44.833 33.167 -62.5 57.5s-26.5 50.166 -26.5 77.499c0 46 17.667 82.333 53 109s79.666 40 132.999 40
c49.333 0 89.666 -14.833 120.999 -44.5s53 -69.167 65 -118.5l-101 -26c-7.33301 24 -17.166 43.833 -29.499 59.5s-29.166 23.5 -50.499 23.5c-17.333 0 -31 -4.16699 -41 -12.5s-15 -20.5 -15 -36.5s5.16699 -29 15.5 -39s24.833 -21 43.5 -33l86 -54
c58 -38 87 -83.667 87 -137c0 -27.333 -6.66699 -50.666 -20 -69.999s-32.666 -36.666 -57.999 -51.999c26.667 -22 46.834 -43.667 60.501 -65s20.5 -45.666 20.5 -72.999c0 -49.333 -16.5 -88.666 -49.5 -117.999s-78.167 -44 -135.5 -44c-49.333 0 -89 14.833 -119 44.5z
M294.003 403.996c0.666992 8 -1.5 16.667 -6.5 26s-13.167 17.666 -24.5 24.999l-51 31c-12.667 -4 -23.167 -10.833 -31.5 -20.5s-12.5 -20.5 -12.5 -32.5c0 -8 2 -15.667 6 -23s9.33301 -13 16 -17l63 -39c27.333 12.667 41 29.334 41 50.001z" />
    <glyph glyph-name="dieresis" unicode="&#xa8;" horiz-adv-x="420" 
d="M44 810h124v-140h-124v140zM250 810h126v-140h-126v140z" />
    <glyph glyph-name="copyright" unicode="&#xa9;" horiz-adv-x="879" 
d="M215 47.5c-60 40.333 -104.167 92.5 -132.5 156.5s-42.5 132 -42.5 204c0 71.333 14.167 139 42.5 203s72.5 116 132.5 156s135 60 225 60c89.333 0 163.833 -20 223.5 -60s103.667 -91.833 132 -155.5s42.5 -131.5 42.5 -203.5s-14 -140 -42 -204
s-71.833 -116.167 -131.5 -156.5s-134.5 -60.5 -224.5 -60.5s-165 20.167 -225 60.5zM637.5 81.5c53 35.667 92.333 82.167 118 139.5s38.5 119.333 38.5 186s-12.833 128.667 -38.5 186s-65 103.5 -118 138.5s-118.5 52.5 -196.5 52.5s-143.5 -17.5 -196.5 -52.5
s-92.333 -81.167 -118 -138.5s-38.5 -119.333 -38.5 -186s12.833 -128.667 38.5 -186s65 -103.833 118 -139.5s118.5 -53.5 196.5 -53.5s143.5 17.833 196.5 53.5zM282 175.5c-35.333 35 -53.001 84.167 -53.001 147.5v176c0 64 17.667 113.167 53 147.5
s87.666 51.5 156.999 51.5c136 0 204 -57.667 204 -173v-50h-156v51c0 25.333 -3.83301 43 -11.5 53s-19.5 15 -35.5 15c-17.333 0 -29.666 -6 -36.999 -18s-11 -33.333 -11 -64v-203c0 -30.667 3.83301 -51.667 11.5 -63s19.834 -17 36.501 -17s28.667 5.16699 36 15.5
s11 27.5 11 51.5v58h156v-55c0 -57.333 -17.333 -101 -52 -131s-85.334 -45 -152.001 -45c-69.333 0 -121.666 17.5 -156.999 52.5z" />
    <glyph glyph-name="ordfeminine" unicode="&#xaa;" horiz-adv-x="474" 
d="M90.5 348c-19.667 22 -29.502 50.333 -29.502 85c0 35.333 9.83301 64.333 29.5 87s43.834 40.5 72.501 53.5s66.667 27.167 114 42.5v54c0 34.667 -10.667 52 -32 52c-13.333 0 -22.666 -5.66699 -27.999 -17s-9.33301 -31 -12 -59l-129 3
c0.666992 56.667 16.667 99.5 48 128.5s75 43.5 131 43.5c54 0 93.667 -14.5 119 -43.5s38 -69.5 38 -121.5v-333h-119l-7 66c-10 -22 -24.5 -39.833 -43.5 -53.5s-42.167 -20.5 -69.5 -20.5c-35.333 0 -62.833 11 -82.5 33zM256.498 416.5
c8.33301 5.66699 15.167 12.833 20.5 21.5v125c-26 -12 -47 -27.667 -63 -47s-24 -39 -24 -59c0 -15.333 3.83301 -27.333 11.5 -36s17.5 -13 29.5 -13c8.66699 0 17.167 2.83301 25.5 8.5z" />
    <glyph glyph-name="guillemotleft" unicode="&#xab;" horiz-adv-x="481" 
d="M36 271v55l189 233v-152l-97 -109l97 -109v-151zM247 271v55l190 233v-152l-98 -109l98 -109v-151z" />
    <glyph glyph-name="logicalnot" unicode="&#xac;" horiz-adv-x="475" 
d="M357 364h-312v103h387v-251h-75v148z" />
    <glyph glyph-name="uni00AD" unicode="&#xad;" horiz-adv-x="366" 
d="M63 403h246v-99h-246v99z" />
    <glyph glyph-name="registered" unicode="&#xae;" horiz-adv-x="890" 
d="M221.5 46.5c-59.667 40.333 -103.667 92.168 -132 155.501s-42.5 130.666 -42.5 201.999s14.167 138.833 42.5 202.5s72.333 115.5 132 155.5s134.167 60 223.5 60s163.833 -20 223.5 -60s103.667 -91.833 132 -155.5s42.5 -131.167 42.5 -202.5s-14 -138.833 -42 -202.5
s-71.833 -115.5 -131.5 -155.5s-134.5 -60 -224.5 -60c-89.333 0 -163.833 20.167 -223.5 60.5zM632 90.502c50.667 34.333 88.333 79.166 113 134.499s37 115 37 179s-12.333 123.833 -37 179.5s-62.167 100.5 -112.5 134.5s-112.833 51 -187.5 51
c-75.333 0 -138.5 -17 -189.5 -51s-88.667 -78.667 -113 -134s-36.5 -115.333 -36.5 -180c0 -64 12.167 -123.667 36.5 -179s62 -100.166 113 -134.499s114.167 -51.5 189.5 -51.5c74 0 136.333 17.167 187 51.5zM279.999 663.002l164 0.000976562
c60 0 105 -10.833 135 -32.5s45 -57.834 45 -108.501c0 -32.667 -5.66699 -59 -17 -79s-30.333 -36 -57 -48l89 -244h-129l-72 220h-35v-220h-123v512zM427.999 433.003c29.333 0 49.833 6.66699 61.5 20s17.5 34 17.5 62c0 49.333 -22 74 -66 74h-38v-156h25z" />
    <glyph glyph-name="macron" unicode="&#xaf;" horiz-adv-x="350" 
d="M55 810h240v-74h-240v74z" />
    <glyph glyph-name="degree" unicode="&#xb0;" horiz-adv-x="521" 
d="M119.5 488.5c-35 35 -52.502 81.833 -52.502 140.5c0 58 17.667 104.333 53 139s82 52 140 52c58.667 0 105.834 -17.333 141.501 -52s53.5 -81 53.5 -139c0 -58.667 -17.667 -105.5 -53 -140.5s-82.666 -52.5 -141.999 -52.5c-58.667 0 -105.5 17.5 -140.5 52.5z
M330.498 551c17 20 25.501 46 25.501 78s-8.33301 57.667 -25 77s-40.334 29 -71.001 29c-30 0 -53.5 -9.66699 -70.5 -29s-25.5 -45 -25.5 -77s8.5 -58 25.5 -78s40.5 -30 70.5 -30s53.5 10 70.5 30z" />
    <glyph glyph-name="plusminus" unicode="&#xb1;" horiz-adv-x="458" 
d="M181 304h-118v92h118v121h97v-121h118v-92h-118v-121h-97v121zM63 95h333v-95h-333v95z" />
    <glyph glyph-name="uni00B2" unicode="&#xb2;" horiz-adv-x="463" 
d="M80 509l116.997 119.999c30.667 30.667 51.834 55 63.501 73s17.5 36 17.5 54c0 16 -3.5 28.167 -10.5 36.5s-17.167 12.5 -30.5 12.5c-18 0 -30.667 -7 -38 -21s-11 -35.333 -11 -64h-110v16c0 48.667 13.167 87.834 39.5 117.501s66.833 44.5 121.5 44.5
c46.667 0 83.334 -12.5 110.001 -37.5s40 -59.833 40 -104.5c0 -32 -7.16699 -60.333 -21.5 -85s-37.166 -52.667 -68.499 -84l-63 -63h157v-91h-313v76z" />
    <glyph glyph-name="uni00B3" unicode="&#xb3;" horiz-adv-x="464" 
d="M114.5 458.5c-23.667 23.667 -35.499 57.168 -35.499 100.501v16h110v-4c0 -18.667 3.66699 -32.5 11 -41.5s19 -13.5 35 -13.5c29.333 0 44 17 44 51c0 20 -4.5 35 -13.5 45s-24.167 15 -45.5 15h-26v70h23c20 0 34.667 4.66699 44 14s14 23.666 14 42.999
c0 34 -13.667 51 -41 51c-30 0 -45 -18.333 -45 -55v-4h-110v16c0 44 13.5 77.667 40.5 101s65.167 35 114.5 35c47.333 0 84.5 -10.667 111.5 -32s40.5 -52 40.5 -92c0 -26.667 -6.33301 -49.167 -19 -67.5s-28.334 -31.166 -47.001 -38.499c46 -15.333 69 -52 69 -110
c0 -42.667 -13.667 -75.834 -41 -99.501s-65.333 -35.5 -114 -35.5c-56 0 -95.833 11.833 -119.5 35.5z" />
    <glyph glyph-name="acute" unicode="&#xb4;" horiz-adv-x="301" 
d="M115 810h154l-123 -201h-92z" />
    <glyph glyph-name="uni00B5" unicode="&#xb5;" horiz-adv-x="481" 
d="M43 578l150.999 0.000976562v-431c0 -16.667 2.5 -28.834 7.5 -36.501s14.167 -11.5 27.5 -11.5c15.333 0 33 7.33301 53 22v457h151v-578h-151v48c-21.333 -22 -42.666 -37 -63.999 -45c-7.33301 -2.66699 -15 -4 -23 -4v-183h-151z" />
    <glyph glyph-name="paragraph" unicode="&#xb6;" horiz-adv-x="515" 
d="M190 495c-47.333 1.33301 -85.167 15.667 -113.5 43s-42.5 65.333 -42.5 114c0 55.333 17.667 95.5 53 120.5s82 37.5 140 37.5h221v-906h-86v822h-81v-822h-91v591z" />
    <glyph glyph-name="periodcentered" unicode="&#xb7;" horiz-adv-x="215" 
d="M37 448h144v-143h-144v143z" />
    <glyph glyph-name="cedilla" unicode="&#xb8;" horiz-adv-x="353" 
d="M68 -257l0.000976562 66.999c20 -5.33301 38.667 -8 56 -8c18.667 0 33.667 2.83301 45 8.5s17 14.834 17 27.501c0 16.667 -8.66699 29.167 -26 37.5s-39 13.5 -65 15.5v109h58v-64c41.333 0 73.666 -8.5 96.999 -25.5s35 -41.833 35 -74.5
c0 -34.667 -13.5 -60.667 -40.5 -78s-61.167 -26 -102.5 -26c-24 0 -48.667 3.66699 -74 11z" />
    <glyph glyph-name="uni00B9" unicode="&#xb9;" horiz-adv-x="369" 
d="M160 760l-92 -36v98l131 66h74v-455h-113v327z" />
    <glyph glyph-name="ordmasculine" unicode="&#xba;" horiz-adv-x="474" 
d="M112 357c-29.333 28 -44 68.333 -44 121v181c0 52.667 14.667 93 44 121s71 42 125 42c52.667 0 94 -14.333 124 -43s45 -68.667 45 -120v-181c0 -52 -15 -92.167 -45 -120.5s-71.333 -42.5 -124 -42.5c-54 0 -95.667 14 -125 42zM271 427
c6.66699 12.667 10 30.666 10 53.999v175c0 24 -3.33301 42 -10 54s-18.334 18 -35.001 18s-28.334 -6.16699 -35.001 -18.5s-10 -30.166 -10 -53.499v-175c0 -23.333 3.33301 -41.333 10 -54s18.334 -19 35.001 -19s28.334 6.33301 35.001 19z" />
    <glyph glyph-name="guillemotright" unicode="&#xbb;" horiz-adv-x="491" 
d="M47 189l102 110l-102 108v152l194 -233v-55l-194 -233v151zM259 189l101 110l-101 108v152l193 -233v-55l-193 -233v151z" />
    <glyph glyph-name="onequarter" unicode="&#xbc;" horiz-adv-x="872" 
d="M138 682l-92 -36v98l131 66h74v-455h-113v327zM563 810h96l-383 -810h-96zM639 102h-176v71l195 282h93v-280h44v-73h-44v-102h-112v102zM639 175l-1 136l-92 -136h93z" />
    <glyph glyph-name="onehalf" unicode="&#xbd;" horiz-adv-x="906" 
d="M124 682l-92 -36v98l131 66h74v-455h-113v327zM550 810h96l-383 -810h-96zM533 76l116.997 119.999c30.667 30.667 51.834 55 63.501 73s17.5 36 17.5 54c0 16 -3.5 28.167 -10.5 36.5s-17.167 12.5 -30.5 12.5c-18 0 -30.667 -7 -38 -21s-11 -35.333 -11 -64h-110v16
c0 48.667 13.167 87.834 39.5 117.501s66.833 44.5 121.5 44.5c46.667 0 83.334 -12.5 110.001 -37.5s40 -59.833 40 -104.5c0 -32 -7.16699 -60.333 -21.5 -85s-37.166 -52.667 -68.499 -84l-63 -63h157v-91h-313v76z" />
    <glyph glyph-name="threequarters" unicode="&#xbe;" horiz-adv-x="912" 
d="M94.5 380.5c-23.667 23.667 -35.499 57.168 -35.499 100.501v16h110v-4c0 -18.667 3.66699 -32.5 11 -41.5s19 -13.5 35 -13.5c29.333 0 44 17 44 51c0 20 -4.5 35 -13.5 45s-24.167 15 -45.5 15h-26v70h23c20 0 34.667 4.66699 44 14s14 23.666 14 42.999
c0 34 -13.667 51 -41 51c-30 0 -45 -18.333 -45 -55v-4h-110v16c0 44 13.5 77.667 40.5 101s65.167 35 114.5 35c47.333 0 84.5 -10.667 111.5 -32s40.5 -52 40.5 -92c0 -26.667 -6.33301 -49.167 -19 -67.5s-28.334 -31.166 -47.001 -38.499c46 -15.333 69 -52 69 -110
c0 -42.667 -13.667 -75.834 -41 -99.501s-65.333 -35.5 -114 -35.5c-56 0 -95.833 11.833 -119.5 35.5zM636.001 810.001h96l-383 -810h-96zM712.001 102.001h-176v71l195 282h93v-280h44v-73h-44v-102h-112v102zM712.001 175.001l-1 136l-92 -136h93z" />
    <glyph glyph-name="questiondown" unicode="&#xbf;" horiz-adv-x="485" 
d="M348 300c-50 -39.333 -89.833 -82.166 -119.5 -128.499s-44.5 -94.833 -44.5 -145.5c0 -52 21 -78 63 -78c18 0 32.167 5.33301 42.5 16s15.5 25 15.5 43c0 16 -3.33301 34 -10 54l137 31c10 -30 15 -59 15 -87c0 -58 -17.667 -103.5 -53 -136.5
s-85.333 -49.5 -150 -49.5c-66.667 0 -118 17.667 -154 53s-54 85.666 -54 150.999c0 114.667 58.333 217 175 307v98h137v-128zM353 494h-148v145h148v-145z" />
    <glyph glyph-name="Agrave" unicode="&#xc0;" horiz-adv-x="538" 
d="M178 810h183l156 -810h-152l-30 178h-128l-31 -178h-155zM319 280l-49 326l-48 -326h97zM103 1071h155l60 -201h-91z" />
    <glyph glyph-name="Aacute" unicode="&#xc1;" horiz-adv-x="538" 
d="M178 810h183l156 -810h-152l-30 178h-128l-31 -178h-155zM319 280l-49 326l-48 -326h97zM283 1071h154l-123 -201h-92z" />
    <glyph glyph-name="Acircumflex" unicode="&#xc2;" horiz-adv-x="538" 
d="M178 810h183l156 -810h-152l-30 178h-128l-31 -178h-155zM319 280l-49 326l-48 -326h97zM205 1066h128l95 -188h-111l-48 120l-47 -120h-110z" />
    <glyph glyph-name="Atilde" unicode="&#xc3;" horiz-adv-x="538" 
d="M178 810h183l156 -810h-152l-30 178h-128l-31 -178h-155zM319 280l-49 326l-48 -326h97zM315.5 913.5c-11 4.33301 -23.499 10.834 -37.499 19.501c-22.667 14 -40.667 21 -54 21c-24 0 -36 -13.667 -36 -41h-74c-1.33301 90 27.667 135 87 135
c11.333 0 22.166 -2 32.499 -6s21.833 -10 34.5 -18c12 -6.66699 22.333 -11.834 31 -15.501s17.667 -5.5 27 -5.5c20.667 0 31 13 31 39h69c0 -40 -5.16699 -72.5 -15.5 -97.5s-30.5 -37.5 -60.5 -37.5c-12 0 -23.5 2.16699 -34.5 6.5z" />
    <glyph glyph-name="Adieresis" unicode="&#xc4;" horiz-adv-x="538" 
d="M178 810h183l156 -810h-152l-30 178h-128l-31 -178h-155zM319 280l-49 326l-48 -326h97zM103 1042h125v-140h-125v140zM311 1042h126v-140h-126v140z" />
    <glyph glyph-name="Aring" unicode="&#xc5;" horiz-adv-x="538" 
d="M178 810h183l156 -810h-152l-30 178h-128l-31 -178h-155zM319 280l-49 326l-48 -326h97zM186.5 877c-21.667 19.333 -32.499 46.333 -32.499 81s10.833 61.667 32.5 81s49.167 29 82.5 29s61.166 -9.83301 83.499 -29.5s33.5 -46.5 33.5 -80.5
c0 -34.667 -11 -61.667 -33 -81s-50 -29 -84 -29c-33.333 0 -60.833 9.66699 -82.5 29zM307.501 920c9 10 13.5 22.667 13.5 38c0 16 -4.5 29 -13.5 39s-21.833 15 -38.5 15c-16 0 -28.5 -5 -37.5 -15s-13.5 -23 -13.5 -39c0 -15.333 4.5 -28 13.5 -38s21.5 -15 37.5 -15
c16.667 0 29.5 5 38.5 15z" />
    <glyph glyph-name="AE" unicode="&#xc6;" horiz-adv-x="692" 
d="M329 800h342v-113h-178v-211h127v-115h-127v-248h178v-113h-321v177h-134l-73 -177h-164zM350 282v267l-100 -267h100z" />
    <glyph glyph-name="Ccedilla" unicode="&#xc7;" horiz-adv-x="553" 
d="M103 58.5c-36 46.333 -54.001 113.163 -54.001 200.496v290c0 89.333 17.833 156.833 53.5 202.5s96.834 68.5 183.501 68.5c82.667 0 141.167 -20.167 175.5 -60.5s51.5 -98.166 51.5 -173.499v-68h-160v75c0 24 -1.16699 43.333 -3.5 58s-8.33301 26.834 -18 36.501
s-24.5 14.5 -44.5 14.5c-30 0 -49.333 -9.66699 -58 -29s-13 -47.666 -13 -84.999v-368c0 -38 5 -66.333 15 -85s28.667 -28 56 -28c28 0 46 9.5 54 28.5s12 47.167 12 84.5v79h160v-67c0 -77.333 -17 -137.166 -51 -179.499s-92.667 -63.5 -176 -63.5
c-86 0 -147 23.167 -183 69.5zM220.999 -257.003l0.000976562 66.999c20 -5.33301 38.667 -8 56 -8c18.667 0 33.667 2.83301 45 8.5s17 14.834 17 27.501c0 16.667 -8.66699 29.167 -26 37.5s-39 13.5 -65 15.5v109h58v-64c41.333 0 73.666 -8.5 96.999 -25.5
s35 -41.833 35 -74.5c0 -34.667 -13.5 -60.667 -40.5 -78s-61.167 -26 -102.5 -26c-24 0 -48.667 3.66699 -74 11z" />
    <glyph glyph-name="Egrave" unicode="&#xc8;" horiz-adv-x="439" 
d="M61 810h353v-114h-189v-215h146v-115h-146v-254h191v-112h-355v810zM73 1071h155l60 -201h-91z" />
    <glyph glyph-name="Eacute" unicode="&#xc9;" horiz-adv-x="439" 
d="M61 810h353v-114h-189v-215h146v-115h-146v-254h191v-112h-355v810zM253 1071h154l-123 -201h-92z" />
    <glyph glyph-name="Ecircumflex" unicode="&#xca;" horiz-adv-x="439" 
d="M61 810h353v-114h-189v-215h146v-115h-146v-254h191v-112h-355v810zM175 1066h128l95 -188h-111l-48 120l-47 -120h-110z" />
    <glyph glyph-name="Edieresis" unicode="&#xcb;" horiz-adv-x="439" 
d="M61 810h353v-114h-189v-215h146v-115h-146v-254h191v-112h-355v810zM73 1042h125v-140h-125v140zM281 1042h126v-140h-126v140z" />
    <glyph glyph-name="Igrave" unicode="&#xcc;" horiz-adv-x="289" 
d="M63 810h164v-810h-164v810zM-22 1071h155l60 -201h-91z" />
    <glyph glyph-name="Iacute" unicode="&#xcd;" horiz-adv-x="289" 
d="M63 810h164v-810h-164v810zM158 1071h154l-123 -201h-92z" />
    <glyph glyph-name="Icircumflex" unicode="&#xce;" horiz-adv-x="289" 
d="M63 810h164v-810h-164v810zM80 1066h128l95 -188h-111l-48 120l-47 -120h-110z" />
    <glyph glyph-name="Idieresis" unicode="&#xcf;" horiz-adv-x="289" 
d="M63 810h164v-810h-164v810zM-22 1042h125v-140h-125v140zM186 1042h126v-140h-126v140z" />
    <glyph glyph-name="Eth" unicode="&#xd0;" horiz-adv-x="553" 
d="M54 374l-44.999 0.00195312v84h45v352h199c68 0 121.167 -8.83301 159.5 -26.5s65.5 -44.834 81.5 -81.501s24 -85.334 24 -146.001v-295c0 -62 -8 -111.833 -24 -149.5s-42.833 -65.667 -80.5 -84s-89.834 -27.5 -156.501 -27.5h-203v374zM255.001 115.002
c28.667 0 49.8311 4.49805 63.498 13.498s22.334 22.167 26.001 39.5s5.5 42.333 5.5 75v335c0 30.667 -2.16699 53.834 -6.5 69.501s-13.166 27.334 -26.499 35.001s-34.333 11.5 -63 11.5h-35v-236h45v-84h-45v-259h36z" />
    <glyph glyph-name="Ntilde" unicode="&#xd1;" horiz-adv-x="554" 
d="M61 810h115l180 -421v421h137v-810h-111l-180 448v-448h-141v810zM322.5 913.5c-11 4.33301 -23.499 10.834 -37.499 19.501c-22.667 14 -40.667 21 -54 21c-24 0 -36 -13.667 -36 -41h-74c-1.33301 90 27.667 135 87 135c11.333 0 22.166 -2 32.499 -6
s21.833 -10 34.5 -18c12 -6.66699 22.333 -11.834 31 -15.501s17.667 -5.5 27 -5.5c20.667 0 31 13 31 39h69c0 -40 -5.16699 -72.5 -15.5 -97.5s-30.5 -37.5 -60.5 -37.5c-12 0 -23.5 2.16699 -34.5 6.5z" />
    <glyph glyph-name="Ograve" unicode="&#xd2;" horiz-adv-x="576" 
d="M104 56.5c-36.667 45 -55 111.167 -55 198.5v302c0 87.333 18.333 153 55 197s98 66 184 66c85.333 0 146.5 -22.167 183.5 -66.5s55.5 -109.833 55.5 -196.5v-303c0 -86.667 -18.5 -152.5 -55.5 -197.5s-98.167 -67.5 -183.5 -67.5c-86 0 -147.333 22.5 -184 67.5z
M344.5 135.5c9.66699 19 14.5 45.167 14.5 78.5v383c0 33.333 -4.83301 59.166 -14.5 77.499s-28.5 27.5 -56.5 27.5s-46.833 -9.16699 -56.5 -27.5s-14.5 -44.166 -14.5 -77.499v-383c0 -34 4.66699 -60.333 14 -79s28.333 -28 57 -28c28 0 46.833 9.5 56.5 28.5zM121 1071
h155l60 -201h-91z" />
    <glyph glyph-name="Oacute" unicode="&#xd3;" horiz-adv-x="576" 
d="M104 56.5c-36.667 45 -55 111.167 -55 198.5v302c0 87.333 18.333 153 55 197s98 66 184 66c85.333 0 146.5 -22.167 183.5 -66.5s55.5 -109.833 55.5 -196.5v-303c0 -86.667 -18.5 -152.5 -55.5 -197.5s-98.167 -67.5 -183.5 -67.5c-86 0 -147.333 22.5 -184 67.5z
M344.5 135.5c9.66699 19 14.5 45.167 14.5 78.5v383c0 33.333 -4.83301 59.166 -14.5 77.499s-28.5 27.5 -56.5 27.5s-46.833 -9.16699 -56.5 -27.5s-14.5 -44.166 -14.5 -77.499v-383c0 -34 4.66699 -60.333 14 -79s28.333 -28 57 -28c28 0 46.833 9.5 56.5 28.5zM301 1071
h154l-123 -201h-92z" />
    <glyph glyph-name="Ocircumflex" unicode="&#xd4;" horiz-adv-x="576" 
d="M104 56.5c-36.667 45 -55 111.167 -55 198.5v302c0 87.333 18.333 153 55 197s98 66 184 66c85.333 0 146.5 -22.167 183.5 -66.5s55.5 -109.833 55.5 -196.5v-303c0 -86.667 -18.5 -152.5 -55.5 -197.5s-98.167 -67.5 -183.5 -67.5c-86 0 -147.333 22.5 -184 67.5z
M344.5 135.5c9.66699 19 14.5 45.167 14.5 78.5v383c0 33.333 -4.83301 59.166 -14.5 77.499s-28.5 27.5 -56.5 27.5s-46.833 -9.16699 -56.5 -27.5s-14.5 -44.166 -14.5 -77.499v-383c0 -34 4.66699 -60.333 14 -79s28.333 -28 57 -28c28 0 46.833 9.5 56.5 28.5zM223 1066
h128l95 -188h-111l-48 120l-47 -120h-110z" />
    <glyph glyph-name="Otilde" unicode="&#xd5;" horiz-adv-x="576" 
d="M104 56.5c-36.667 45 -55 111.167 -55 198.5v302c0 87.333 18.333 153 55 197s98 66 184 66c85.333 0 146.5 -22.167 183.5 -66.5s55.5 -109.833 55.5 -196.5v-303c0 -86.667 -18.5 -152.5 -55.5 -197.5s-98.167 -67.5 -183.5 -67.5c-86 0 -147.333 22.5 -184 67.5z
M344.5 135.5c9.66699 19 14.5 45.167 14.5 78.5v383c0 33.333 -4.83301 59.166 -14.5 77.499s-28.5 27.5 -56.5 27.5s-46.833 -9.16699 -56.5 -27.5s-14.5 -44.166 -14.5 -77.499v-383c0 -34 4.66699 -60.333 14 -79s28.333 -28 57 -28c28 0 46.833 9.5 56.5 28.5z
M333.5 913.5c-11 4.33301 -23.499 10.834 -37.499 19.501c-22.667 14 -40.667 21 -54 21c-24 0 -36 -13.667 -36 -41h-74c-1.33301 90 27.667 135 87 135c11.333 0 22.166 -2 32.499 -6s21.833 -10 34.5 -18c12 -6.66699 22.333 -11.834 31 -15.501s17.667 -5.5 27 -5.5
c20.667 0 31 13 31 39h69c0 -40 -5.16699 -72.5 -15.5 -97.5s-30.5 -37.5 -60.5 -37.5c-12 0 -23.5 2.16699 -34.5 6.5z" />
    <glyph glyph-name="Odieresis" unicode="&#xd6;" horiz-adv-x="576" 
d="M104 56.5c-36.667 45 -55 111.167 -55 198.5v302c0 87.333 18.333 153 55 197s98 66 184 66c85.333 0 146.5 -22.167 183.5 -66.5s55.5 -109.833 55.5 -196.5v-303c0 -86.667 -18.5 -152.5 -55.5 -197.5s-98.167 -67.5 -183.5 -67.5c-86 0 -147.333 22.5 -184 67.5z
M344.5 135.5c9.66699 19 14.5 45.167 14.5 78.5v383c0 33.333 -4.83301 59.166 -14.5 77.499s-28.5 27.5 -56.5 27.5s-46.833 -9.16699 -56.5 -27.5s-14.5 -44.166 -14.5 -77.499v-383c0 -34 4.66699 -60.333 14 -79s28.333 -28 57 -28c28 0 46.833 9.5 56.5 28.5zM121 1042
h125v-140h-125v140zM329 1042h126v-140h-126v140z" />
    <glyph glyph-name="multiply" unicode="&#xd7;" horiz-adv-x="464" 
d="M53 302l110 110l-110 109l70 71l109 -110l110 110l69 -69l-109 -111l109 -110l-69 -69l-110 109l-109 -109z" />
    <glyph glyph-name="Oslash" unicode="&#xd8;" horiz-adv-x="565" 
d="M505 697c14.667 -38 21.999 -84.667 21.999 -140v-303c0 -86.667 -18.5 -152.5 -55.5 -197.5s-98.167 -67.5 -183.5 -67.5c-49.333 0 -91 7.66699 -125 23l-35 -99l-39 15l38 107c-27.333 22 -47.166 51.167 -59.499 87.5s-18.5 80.5 -18.5 132.5v302
c0 87.333 18.333 153 55 197s98 66 184 66c42 0 78.333 -5.66699 109 -17l28 80l40 -14l-30 -84c32 -20.667 55.333 -50 70 -88zM216.999 292l132 373.999c-10.667 24 -31 36 -61 36c-28 0 -46.833 -9.16699 -56.5 -27.5s-14.5 -44.166 -14.5 -77.499v-305zM344.499 135.499
c9.66699 19 14.501 45.167 14.501 78.5v354l-140 -396c3.33301 -20.667 10.166 -36.667 20.499 -48s26.5 -17 48.5 -17c28 0 46.833 9.5 56.5 28.5z" />
    <glyph glyph-name="Ugrave" unicode="&#xd9;" horiz-adv-x="578" 
d="M148 19.5c-34 20.333 -57.998 49.833 -71.998 88.5s-21 88 -21 148v554h162v-577c0 -38.667 4.66699 -69 14 -91s28.666 -33 57.999 -33s48.666 11 57.999 33s14 52.333 14 91v577h163v-554c0 -60 -7 -109.333 -21 -148s-38.167 -68.167 -72.5 -88.5
s-81.5 -30.5 -141.5 -30.5s-107 10.167 -141 30.5zM123.002 1071h155l60 -201h-91z" />
    <glyph glyph-name="Uacute" unicode="&#xda;" horiz-adv-x="578" 
d="M148 19.5c-34 20.333 -57.998 49.833 -71.998 88.5s-21 88 -21 148v554h162v-577c0 -38.667 4.66699 -69 14 -91s28.666 -33 57.999 -33s48.666 11 57.999 33s14 52.333 14 91v577h163v-554c0 -60 -7 -109.333 -21 -148s-38.167 -68.167 -72.5 -88.5
s-81.5 -30.5 -141.5 -30.5s-107 10.167 -141 30.5zM303.002 1071h154l-123 -201h-92z" />
    <glyph glyph-name="Ucircumflex" unicode="&#xdb;" horiz-adv-x="578" 
d="M148 19.5c-34 20.333 -57.998 49.833 -71.998 88.5s-21 88 -21 148v554h162v-577c0 -38.667 4.66699 -69 14 -91s28.666 -33 57.999 -33s48.666 11 57.999 33s14 52.333 14 91v577h163v-554c0 -60 -7 -109.333 -21 -148s-38.167 -68.167 -72.5 -88.5
s-81.5 -30.5 -141.5 -30.5s-107 10.167 -141 30.5zM225.002 1066h128l95 -188h-111l-48 120l-47 -120h-110z" />
    <glyph glyph-name="Udieresis" unicode="&#xdc;" horiz-adv-x="578" 
d="M148 19.5c-34 20.333 -57.998 49.833 -71.998 88.5s-21 88 -21 148v554h162v-577c0 -38.667 4.66699 -69 14 -91s28.666 -33 57.999 -33s48.666 11 57.999 33s14 52.333 14 91v577h163v-554c0 -60 -7 -109.333 -21 -148s-38.167 -68.167 -72.5 -88.5
s-81.5 -30.5 -141.5 -30.5s-107 10.167 -141 30.5zM123.002 1042h125v-140h-125v140zM331.002 1042h126v-140h-126v140z" />
    <glyph glyph-name="Yacute" unicode="&#xdd;" horiz-adv-x="491" 
d="M167 321l-158 489h155l87 -285l80 285h151l-156 -489v-321h-159v321zM259 1071h154l-123 -201h-92z" />
    <glyph glyph-name="Thorn" unicode="&#xde;" horiz-adv-x="549" 
d="M54 810h165v-108h86c78 0 135.667 -18.333 173 -55s56 -94 56 -172c0 -60.667 -8.5 -108.5 -25.5 -143.5s-43 -60 -78 -75s-80.5 -22.5 -136.5 -22.5h-75v-234h-165v810zM279 353c37.333 0 63.833 8.66699 79.5 26s23.5 47 23.5 89c0 40 -7.33301 68.833 -22 86.5
s-39.667 26.5 -75 26.5h-66v-228h60z" />
    <glyph glyph-name="germandbls" unicode="&#xdf;" horiz-adv-x="536" 
d="M247 103c38.667 0 66.334 9.83301 83.001 29.5s25 52.5 25 98.5c0 39.333 -8.33301 70.166 -25 92.499s-41.334 33.5 -74.001 33.5v117c25.333 0 44.5 11.333 57.5 34s19.5 54.334 19.5 95.001c0 36 -5.33301 63.5 -16 82.5s-28 28.5 -52 28.5
c-24.667 0 -41.667 -9.5 -51 -28.5s-14 -47.167 -14 -84.5v-601h-151v601c0 64 16.667 116.667 50 158s84.666 62 153.999 62c71.333 0 124.333 -18.5 159 -55.5s52 -90.167 52 -159.5c0 -85.333 -38 -144 -114 -176c103.333 -28 155 -99.667 155 -215
c0 -78.667 -21.667 -136.5 -65 -173.5s-107.666 -55.5 -192.999 -55.5v117z" />
    <glyph glyph-name="agrave" unicode="&#xe0;" horiz-adv-x="466" 
d="M98 10c-20 13.333 -35.168 30.8311 -45.501 52.498s-15.5 44.167 -15.5 67.5c0 44.667 11 81.334 33 110.001s48.5 51 79.5 67s72.167 33.333 123.5 52v54c0 20.667 -2.83301 36.334 -8.5 47.001s-15.834 16 -30.501 16s-25 -4.66699 -31 -14
s-9.66699 -22.666 -11 -39.999l-3 -40l-142 6c2.66699 68.667 20.334 119.167 53.001 151.5s81.667 48.5 147 48.5c56.667 0 99.334 -15.667 128.001 -47s43 -74.333 43 -129v-269c0 -45.333 3.33301 -93 10 -143h-135c-2.66699 19.333 -7 47 -13 83
c-8 -26.667 -21.5 -48.834 -40.5 -66.501s-42.833 -26.5 -71.5 -26.5c-26.667 0 -50 6.66699 -70 20zM250.499 106.998c9 6.66699 16.5 14.333 22.5 23v159c-31.333 -18 -55.333 -36.667 -72 -56s-25 -43 -25 -71c0 -20.667 4 -36.667 12 -48s19.333 -17 34 -17
c10 0 19.5 3.33301 28.5 10zM78.999 838.997h155l60 -201h-91z" />
    <glyph glyph-name="aacute" unicode="&#xe1;" horiz-adv-x="466" 
d="M98 10c-20 13.333 -35.168 30.8311 -45.501 52.498s-15.5 44.167 -15.5 67.5c0 44.667 11 81.334 33 110.001s48.5 51 79.5 67s72.167 33.333 123.5 52v54c0 20.667 -2.83301 36.334 -8.5 47.001s-15.834 16 -30.501 16s-25 -4.66699 -31 -14
s-9.66699 -22.666 -11 -39.999l-3 -40l-142 6c2.66699 68.667 20.334 119.167 53.001 151.5s81.667 48.5 147 48.5c56.667 0 99.334 -15.667 128.001 -47s43 -74.333 43 -129v-269c0 -45.333 3.33301 -93 10 -143h-135c-2.66699 19.333 -7 47 -13 83
c-8 -26.667 -21.5 -48.834 -40.5 -66.501s-42.833 -26.5 -71.5 -26.5c-26.667 0 -50 6.66699 -70 20zM250.499 106.998c9 6.66699 16.5 14.333 22.5 23v159c-31.333 -18 -55.333 -36.667 -72 -56s-25 -43 -25 -71c0 -20.667 4 -36.667 12 -48s19.333 -17 34 -17
c10 0 19.5 3.33301 28.5 10zM258.999 838.997h154l-123 -201h-92z" />
    <glyph glyph-name="acircumflex" unicode="&#xe2;" horiz-adv-x="466" 
d="M98 10c-20 13.333 -35.168 30.8311 -45.501 52.498s-15.5 44.167 -15.5 67.5c0 44.667 11 81.334 33 110.001s48.5 51 79.5 67s72.167 33.333 123.5 52v54c0 20.667 -2.83301 36.334 -8.5 47.001s-15.834 16 -30.501 16s-25 -4.66699 -31 -14
s-9.66699 -22.666 -11 -39.999l-3 -40l-142 6c2.66699 68.667 20.334 119.167 53.001 151.5s81.667 48.5 147 48.5c56.667 0 99.334 -15.667 128.001 -47s43 -74.333 43 -129v-269c0 -45.333 3.33301 -93 10 -143h-135c-2.66699 19.333 -7 47 -13 83
c-8 -26.667 -21.5 -48.834 -40.5 -66.501s-42.833 -26.5 -71.5 -26.5c-26.667 0 -50 6.66699 -70 20zM250.499 106.998c9 6.66699 16.5 14.333 22.5 23v159c-31.333 -18 -55.333 -36.667 -72 -56s-25 -43 -25 -71c0 -20.667 4 -36.667 12 -48s19.333 -17 34 -17
c10 0 19.5 3.33301 28.5 10zM180.999 833.997h128l95 -188h-111l-48 120l-47 -120h-110z" />
    <glyph glyph-name="atilde" unicode="&#xe3;" horiz-adv-x="466" 
d="M98 10c-20 13.333 -35.168 30.8311 -45.501 52.498s-15.5 44.167 -15.5 67.5c0 44.667 11 81.334 33 110.001s48.5 51 79.5 67s72.167 33.333 123.5 52v54c0 20.667 -2.83301 36.334 -8.5 47.001s-15.834 16 -30.501 16s-25 -4.66699 -31 -14
s-9.66699 -22.666 -11 -39.999l-3 -40l-142 6c2.66699 68.667 20.334 119.167 53.001 151.5s81.667 48.5 147 48.5c56.667 0 99.334 -15.667 128.001 -47s43 -74.333 43 -129v-269c0 -45.333 3.33301 -93 10 -143h-135c-2.66699 19.333 -7 47 -13 83
c-8 -26.667 -21.5 -48.834 -40.5 -66.501s-42.833 -26.5 -71.5 -26.5c-26.667 0 -50 6.66699 -70 20zM250.499 106.998c9 6.66699 16.5 14.333 22.5 23v159c-31.333 -18 -55.333 -36.667 -72 -56s-25 -43 -25 -71c0 -20.667 4 -36.667 12 -48s19.333 -17 34 -17
c10 0 19.5 3.33301 28.5 10zM291.499 681.497c-11 4.33301 -23.499 10.834 -37.499 19.501c-22.667 14 -40.667 21 -54 21c-24 0 -36 -13.667 -36 -41h-74c-1.33301 90 27.667 135 87 135c11.333 0 22.166 -2 32.499 -6s21.833 -10 34.5 -18
c12 -6.66699 22.333 -11.834 31 -15.501s17.667 -5.5 27 -5.5c20.667 0 31 13 31 39h69c0 -40 -5.16699 -72.5 -15.5 -97.5s-30.5 -37.5 -60.5 -37.5c-12 0 -23.5 2.16699 -34.5 6.5z" />
    <glyph glyph-name="adieresis" unicode="&#xe4;" horiz-adv-x="466" 
d="M98 10c-20 13.333 -35.168 30.8311 -45.501 52.498s-15.5 44.167 -15.5 67.5c0 44.667 11 81.334 33 110.001s48.5 51 79.5 67s72.167 33.333 123.5 52v54c0 20.667 -2.83301 36.334 -8.5 47.001s-15.834 16 -30.501 16s-25 -4.66699 -31 -14
s-9.66699 -22.666 -11 -39.999l-3 -40l-142 6c2.66699 68.667 20.334 119.167 53.001 151.5s81.667 48.5 147 48.5c56.667 0 99.334 -15.667 128.001 -47s43 -74.333 43 -129v-269c0 -45.333 3.33301 -93 10 -143h-135c-2.66699 19.333 -7 47 -13 83
c-8 -26.667 -21.5 -48.834 -40.5 -66.501s-42.833 -26.5 -71.5 -26.5c-26.667 0 -50 6.66699 -70 20zM250.499 106.998c9 6.66699 16.5 14.333 22.5 23v159c-31.333 -18 -55.333 -36.667 -72 -56s-25 -43 -25 -71c0 -20.667 4 -36.667 12 -48s19.333 -17 34 -17
c10 0 19.5 3.33301 28.5 10zM78.999 809.997h125v-140h-125v140zM286.999 809.997h126v-140h-126v140z" />
    <glyph glyph-name="aring" unicode="&#xe5;" horiz-adv-x="466" 
d="M98 10c-20 13.333 -35.168 30.8311 -45.501 52.498s-15.5 44.167 -15.5 67.5c0 44.667 11 81.334 33 110.001s48.5 51 79.5 67s72.167 33.333 123.5 52v54c0 20.667 -2.83301 36.334 -8.5 47.001s-15.834 16 -30.501 16s-25 -4.66699 -31 -14
s-9.66699 -22.666 -11 -39.999l-3 -40l-142 6c2.66699 68.667 20.334 119.167 53.001 151.5s81.667 48.5 147 48.5c56.667 0 99.334 -15.667 128.001 -47s43 -74.333 43 -129v-269c0 -45.333 3.33301 -93 10 -143h-135c-2.66699 19.333 -7 47 -13 83
c-8 -26.667 -21.5 -48.834 -40.5 -66.501s-42.833 -26.5 -71.5 -26.5c-26.667 0 -50 6.66699 -70 20zM250.499 106.998c9 6.66699 16.5 14.333 22.5 23v159c-31.333 -18 -55.333 -36.667 -72 -56s-25 -43 -25 -71c0 -20.667 4 -36.667 12 -48s19.333 -17 34 -17
c10 0 19.5 3.33301 28.5 10zM162.499 644.997c-21.667 19.333 -32.499 46.333 -32.499 81s10.833 61.667 32.5 81s49.167 29 82.5 29s61.166 -9.83301 83.499 -29.5s33.5 -46.5 33.5 -80.5c0 -34.667 -11 -61.667 -33 -81s-50 -29 -84 -29
c-33.333 0 -60.833 9.66699 -82.5 29zM283.5 687.997c9 10 13.5 22.667 13.5 38c0 16 -4.5 29 -13.5 39s-21.833 15 -38.5 15c-16 0 -28.5 -5 -37.5 -15s-13.5 -23 -13.5 -39c0 -15.333 4.5 -28 13.5 -38s21.5 -15 37.5 -15c16.667 0 29.5 5 38.5 15z" />
    <glyph glyph-name="ae" unicode="&#xe6;" horiz-adv-x="673" 
d="M488 202l140.999 0.000976562v-42c0 -54.667 -13.833 -96.834 -41.5 -126.501s-67.834 -44.5 -120.501 -44.5c-34 0 -63.833 8.83301 -89.5 26.5s-41.5 42.167 -47.5 73.5c-10 -31.333 -28 -55.833 -54 -73.5s-55.667 -26.5 -89 -26.5c-46 0 -82.5 12.833 -109.5 38.5
s-40.5 60.167 -40.5 103.5c0 52 15.167 92.167 45.5 120.5s71.5 48.833 123.5 61.5l64 15v80c0 23.333 -3.16699 40.333 -9.5 51s-16.5 16 -30.5 16c-15.333 0 -26.5 -6.66699 -33.5 -20s-10.5 -35.666 -10.5 -66.999l-147 4c0.666992 63.333 15.834 111.833 45.501 145.5
s74.167 50.5 133.5 50.5c30.667 0 56.5 -5.83301 77.5 -17.5s35.833 -26.834 44.5 -45.501c10.667 18.667 28.5 33.834 53.5 45.501s53.167 17.5 84.5 17.5c50.667 0 89 -12.5 115 -37.5s39 -58.5 39 -100.5c0 -46 -13 -80.333 -39 -103s-63 -39.334 -111 -50.001l-67 -15
v-117c0 -22.667 2.5 -39.5 7.5 -50.5s14.833 -16.5 29.5 -16.5s24.334 5.66699 29.001 17s7 28.333 7 51v36zM413.999 352.001l23.999 6c23.333 4.66699 40.333 12.167 51 22.5s16 25.5 16 45.5c0 14.667 -3.66699 26.667 -11 36s-18 14 -32 14
c-17.333 0 -29.666 -5.5 -36.999 -16.5s-11 -27.5 -11 -49.5v-58zM269.998 259.001l-34 -13.998c-22 -8.66699 -38 -20.334 -48 -35.001s-15 -32.667 -15 -54c0 -18.667 4 -33.834 12 -45.501s20 -17.5 36 -17.5c32.667 0 49 23 49 69v97z" />
    <glyph glyph-name="ccedilla" unicode="&#xe7;" horiz-adv-x="456" 
d="M89 43c-32.667 35.333 -48.998 84.999 -48.998 148.999v195c0 64.667 16.333 114.334 49 149.001s80.667 52 144 52c62 0 108.833 -14.667 140.5 -44s47.5 -73.333 47.5 -132v-55h-145v59c0 25.333 -3.33301 42.833 -10 52.5s-17.334 14.5 -32.001 14.5
c-16 0 -27.167 -6 -33.5 -18s-9.5 -33 -9.5 -63v-228c0 -30 3.5 -50.667 10.5 -62s17.833 -17 32.5 -17c15.333 0 26.166 5.33301 32.499 16s9.5 27.667 9.5 51v70h145v-64c0 -58 -16 -102.167 -48 -132.5s-78.667 -45.5 -140 -45.5c-63.333 0 -111.333 17.667 -144 53z
M173.002 -257.001l0.000976562 66.999c20 -5.33301 38.667 -8 56 -8c18.667 0 33.667 2.83301 45 8.5s17 14.834 17 27.501c0 16.667 -8.66699 29.167 -26 37.5s-39 13.5 -65 15.5v109h58v-64c41.333 0 73.666 -8.5 96.999 -25.5s35 -41.833 35 -74.5
c0 -34.667 -13.5 -60.667 -40.5 -78s-61.167 -26 -102.5 -26c-24 0 -48.667 3.66699 -74 11z" />
    <glyph glyph-name="egrave" unicode="&#xe8;" horiz-adv-x="459" 
d="M89.5 42c-33 34.667 -49.501 84.667 -49.501 150v194c0 65.333 16.667 115.333 50 150s81.333 52 144 52c64.667 0 112 -17.333 142 -52s45 -86 45 -154v-101h-231v-112c0 -24.667 3.83301 -42.667 11.5 -54s18.834 -17 33.501 -17c30 0 45 21.667 45 65v56h140v-50
c0 -58 -16 -102.333 -48 -133s-78 -46 -138 -46c-63.333 0 -111.5 17.333 -144.5 52zM279.999 353v56c0 25.333 -3.66699 43.5 -11 54.5s-19 16.5 -35 16.5c-15.333 0 -26.5 -6 -33.5 -18s-10.5 -33.333 -10.5 -64v-45h90zM64.999 839h155l60 -201h-91z" />
    <glyph glyph-name="eacute" unicode="&#xe9;" horiz-adv-x="459" 
d="M89.5 42c-33 34.667 -49.501 84.667 -49.501 150v194c0 65.333 16.667 115.333 50 150s81.333 52 144 52c64.667 0 112 -17.333 142 -52s45 -86 45 -154v-101h-231v-112c0 -24.667 3.83301 -42.667 11.5 -54s18.834 -17 33.501 -17c30 0 45 21.667 45 65v56h140v-50
c0 -58 -16 -102.333 -48 -133s-78 -46 -138 -46c-63.333 0 -111.5 17.333 -144.5 52zM279.999 353v56c0 25.333 -3.66699 43.5 -11 54.5s-19 16.5 -35 16.5c-15.333 0 -26.5 -6 -33.5 -18s-10.5 -33.333 -10.5 -64v-45h90zM244.999 839h154l-123 -201h-92z" />
    <glyph glyph-name="ecircumflex" unicode="&#xea;" horiz-adv-x="459" 
d="M89.5 42c-33 34.667 -49.501 84.667 -49.501 150v194c0 65.333 16.667 115.333 50 150s81.333 52 144 52c64.667 0 112 -17.333 142 -52s45 -86 45 -154v-101h-231v-112c0 -24.667 3.83301 -42.667 11.5 -54s18.834 -17 33.501 -17c30 0 45 21.667 45 65v56h140v-50
c0 -58 -16 -102.333 -48 -133s-78 -46 -138 -46c-63.333 0 -111.5 17.333 -144.5 52zM279.999 353v56c0 25.333 -3.66699 43.5 -11 54.5s-19 16.5 -35 16.5c-15.333 0 -26.5 -6 -33.5 -18s-10.5 -33.333 -10.5 -64v-45h90zM166.999 834h128l95 -188h-111l-48 120l-47 -120
h-110z" />
    <glyph glyph-name="edieresis" unicode="&#xeb;" horiz-adv-x="459" 
d="M89.5 42c-33 34.667 -49.501 84.667 -49.501 150v194c0 65.333 16.667 115.333 50 150s81.333 52 144 52c64.667 0 112 -17.333 142 -52s45 -86 45 -154v-101h-231v-112c0 -24.667 3.83301 -42.667 11.5 -54s18.834 -17 33.501 -17c30 0 45 21.667 45 65v56h140v-50
c0 -58 -16 -102.333 -48 -133s-78 -46 -138 -46c-63.333 0 -111.5 17.333 -144.5 52zM279.999 353v56c0 25.333 -3.66699 43.5 -11 54.5s-19 16.5 -35 16.5c-15.333 0 -26.5 -6 -33.5 -18s-10.5 -33.333 -10.5 -64v-45h90zM64.999 810h125v-140h-125v140zM272.999 810h126
v-140h-126v140z" />
    <glyph glyph-name="igrave" unicode="&#xec;" horiz-adv-x="268" 
d="M60 578h151v-578h-151v578zM-31 839h155l60 -201h-91z" />
    <glyph glyph-name="iacute" unicode="&#xed;" horiz-adv-x="268" 
d="M60 578h151v-578h-151v578zM149 839h154l-123 -201h-92z" />
    <glyph glyph-name="icircumflex" unicode="&#xee;" horiz-adv-x="268" 
d="M60 578h151v-578h-151v578zM71 834h128l95 -188h-111l-48 120l-47 -120h-110z" />
    <glyph glyph-name="idieresis" unicode="&#xef;" horiz-adv-x="268" 
d="M60 578h151v-578h-151v578zM-31 810h125v-140h-125v140zM177 810h126v-140h-126v140z" />
    <glyph glyph-name="eth" unicode="&#xf0;" horiz-adv-x="509" 
d="M109 44c-37.333 38 -56.001 94.6689 -56.001 170.002v148c0 42 7.16699 79.333 21.5 112s34.5 58 60.5 76s56 27 90 27c28.667 0 55.667 -7.33301 81 -22c-0.666992 25.333 -3.5 48.166 -8.5 68.499s-10.833 35.5 -17.5 45.5l-94 -44l-14 44l81 39
c-18.667 23.333 -62 35.333 -130 36l7 95c113.333 -0.666992 191 -25.334 233 -74.001l92 45l14 -45l-78 -37c20 -37.333 36.167 -79 48.5 -125s18.5 -104 18.5 -174v-209c0 -155.333 -67 -233 -201 -233c-61.333 0 -110.666 19 -147.999 57zM296.499 113.502
c7 15.667 10.499 38.833 10.499 69.5v276c-17.333 10.667 -32.333 16 -45 16c-16.667 0 -29.167 -5.83301 -37.5 -17.5s-14.166 -30.5 -17.499 -56.5s-5 -63.667 -5 -113c0 -54 1.16699 -94.167 3.5 -120.5s7.5 -45.833 15.5 -58.5s21 -19 39 -19
c17.333 0 29.5 7.83301 36.5 23.5z" />
    <glyph glyph-name="ntilde" unicode="&#xf1;" horiz-adv-x="493" 
d="M52 578l149.999 0.000976562v-58c46.667 45.333 93.334 68 140.001 68c33.333 0 58.833 -12.333 76.5 -37s26.5 -56.334 26.5 -95.001v-456h-151v432c0 16 -2.66699 27.833 -8 35.5s-14.333 11.5 -27 11.5c-15.333 0 -34.333 -8 -57 -24v-455h-150v578zM292.499 681.501
c-11 4.33301 -23.499 10.834 -37.499 19.501c-22.667 14 -40.667 21 -54 21c-24 0 -36 -13.667 -36 -41h-74c-1.33301 90 27.667 135 87 135c11.333 0 22.166 -2 32.499 -6s21.833 -10 34.5 -18c12 -6.66699 22.333 -11.834 31 -15.501s17.667 -5.5 27 -5.5
c20.667 0 31 13 31 39h69c0 -40 -5.16699 -72.5 -15.5 -97.5s-30.5 -37.5 -60.5 -37.5c-12 0 -23.5 2.16699 -34.5 6.5z" />
    <glyph glyph-name="ograve" unicode="&#xf2;" horiz-adv-x="471" 
d="M90.5 40c-33.667 33.333 -50.5 81.666 -50.5 144.999v208c0 63.333 16.833 111.666 50.5 144.999s81.834 50 144.501 50s110.834 -16.667 144.501 -50s50.5 -81.666 50.5 -144.999v-208c0 -63.333 -16.833 -111.666 -50.5 -144.999s-81.834 -50 -144.501 -50
s-110.834 16.667 -144.501 50zM271.5 112.5c6.33301 13.667 9.5 34.167 9.5 61.5v229c0 27.333 -3.16699 48 -9.5 62s-18.166 21 -35.499 21c-18 0 -30.333 -7.16699 -37 -21.5s-10 -34.833 -10 -61.5v-229c0 -26.667 3.33301 -47 10 -61s19 -21 37 -21
c17.333 0 29.166 6.83301 35.499 20.5zM68 839h155l60 -201h-91z" />
    <glyph glyph-name="oacute" unicode="&#xf3;" horiz-adv-x="471" 
d="M90.5 40c-33.667 33.333 -50.5 81.666 -50.5 144.999v208c0 63.333 16.833 111.666 50.5 144.999s81.834 50 144.501 50s110.834 -16.667 144.501 -50s50.5 -81.666 50.5 -144.999v-208c0 -63.333 -16.833 -111.666 -50.5 -144.999s-81.834 -50 -144.501 -50
s-110.834 16.667 -144.501 50zM271.5 112.5c6.33301 13.667 9.5 34.167 9.5 61.5v229c0 27.333 -3.16699 48 -9.5 62s-18.166 21 -35.499 21c-18 0 -30.333 -7.16699 -37 -21.5s-10 -34.833 -10 -61.5v-229c0 -26.667 3.33301 -47 10 -61s19 -21 37 -21
c17.333 0 29.166 6.83301 35.499 20.5zM248 839h154l-123 -201h-92z" />
    <glyph glyph-name="ocircumflex" unicode="&#xf4;" horiz-adv-x="471" 
d="M90.5 40c-33.667 33.333 -50.5 81.666 -50.5 144.999v208c0 63.333 16.833 111.666 50.5 144.999s81.834 50 144.501 50s110.834 -16.667 144.501 -50s50.5 -81.666 50.5 -144.999v-208c0 -63.333 -16.833 -111.666 -50.5 -144.999s-81.834 -50 -144.501 -50
s-110.834 16.667 -144.501 50zM271.5 112.5c6.33301 13.667 9.5 34.167 9.5 61.5v229c0 27.333 -3.16699 48 -9.5 62s-18.166 21 -35.499 21c-18 0 -30.333 -7.16699 -37 -21.5s-10 -34.833 -10 -61.5v-229c0 -26.667 3.33301 -47 10 -61s19 -21 37 -21
c17.333 0 29.166 6.83301 35.499 20.5zM170 834h128l95 -188h-111l-48 120l-47 -120h-110z" />
    <glyph glyph-name="otilde" unicode="&#xf5;" horiz-adv-x="471" 
d="M90.5 40c-33.667 33.333 -50.5 81.666 -50.5 144.999v208c0 63.333 16.833 111.666 50.5 144.999s81.834 50 144.501 50s110.834 -16.667 144.501 -50s50.5 -81.666 50.5 -144.999v-208c0 -63.333 -16.833 -111.666 -50.5 -144.999s-81.834 -50 -144.501 -50
s-110.834 16.667 -144.501 50zM271.5 112.5c6.33301 13.667 9.5 34.167 9.5 61.5v229c0 27.333 -3.16699 48 -9.5 62s-18.166 21 -35.499 21c-18 0 -30.333 -7.16699 -37 -21.5s-10 -34.833 -10 -61.5v-229c0 -26.667 3.33301 -47 10 -61s19 -21 37 -21
c17.333 0 29.166 6.83301 35.499 20.5zM280.5 681.5c-11 4.33301 -23.499 10.834 -37.499 19.501c-22.667 14 -40.667 21 -54 21c-24 0 -36 -13.667 -36 -41h-74c-1.33301 90 27.667 135 87 135c11.333 0 22.166 -2 32.499 -6s21.833 -10 34.5 -18
c12 -6.66699 22.333 -11.834 31 -15.501s17.667 -5.5 27 -5.5c20.667 0 31 13 31 39h69c0 -40 -5.16699 -72.5 -15.5 -97.5s-30.5 -37.5 -60.5 -37.5c-12 0 -23.5 2.16699 -34.5 6.5z" />
    <glyph glyph-name="odieresis" unicode="&#xf6;" horiz-adv-x="471" 
d="M90.5 40c-33.667 33.333 -50.5 81.666 -50.5 144.999v208c0 63.333 16.833 111.666 50.5 144.999s81.834 50 144.501 50s110.834 -16.667 144.501 -50s50.5 -81.666 50.5 -144.999v-208c0 -63.333 -16.833 -111.666 -50.5 -144.999s-81.834 -50 -144.501 -50
s-110.834 16.667 -144.501 50zM271.5 112.5c6.33301 13.667 9.5 34.167 9.5 61.5v229c0 27.333 -3.16699 48 -9.5 62s-18.166 21 -35.499 21c-18 0 -30.333 -7.16699 -37 -21.5s-10 -34.833 -10 -61.5v-229c0 -26.667 3.33301 -47 10 -61s19 -21 37 -21
c17.333 0 29.166 6.83301 35.499 20.5zM68 810h125v-140h-125v140zM276 810h126v-140h-126v140z" />
    <glyph glyph-name="divide" unicode="&#xf7;" horiz-adv-x="433" 
d="M172 651h97v-121h-97v121zM32 460h369v-86h-369v86zM172 296h97v-120h-97v120z" />
    <glyph glyph-name="oslash" unicode="&#xf8;" horiz-adv-x="466" 
d="M430 393v-208.001c0 -63.333 -16.833 -111.666 -50.5 -144.999s-81.834 -50 -144.501 -50c-35.333 0 -67 5.66699 -95 17l-38 -97l-36 15l40 102c-44 32.667 -66 85.334 -66 158.001v208c0 63.333 16.833 111.666 50.5 144.999s81.834 50 144.501 50
c31.333 0 60 -4.66699 86 -14l38 98l39 -15l-40 -101c48 -32.667 72 -87 72 -163zM189 238.999l86 218c-6.66699 19.333 -19.667 29 -39 29c-18 0 -30.333 -7.16699 -37 -21.5s-10 -34.833 -10 -61.5v-164zM271.5 112.499c6.33301 13.667 9.5 34.167 9.5 61.5v188l-89 -226
c4.66699 -29.333 19.334 -44 44.001 -44c17.333 0 29.166 6.83301 35.499 20.5z" />
    <glyph glyph-name="ugrave" unicode="&#xf9;" horiz-adv-x="490" 
d="M72.5 27c-17.667 24.667 -26.5 56.333 -26.5 95v456h151v-435c0 -16 2.83301 -28 8.5 -36s15.167 -12 28.5 -12c14 0 31.667 7.33301 53 22v461h151v-578h-151v54c-46 -42.667 -92 -64 -138 -64c-33.333 0 -58.833 12.333 -76.5 37zM78 838.999h155l60 -201h-91z" />
    <glyph glyph-name="uacute" unicode="&#xfa;" horiz-adv-x="490" 
d="M72.5 27c-17.667 24.667 -26.5 56.333 -26.5 95v456h151v-435c0 -16 2.83301 -28 8.5 -36s15.167 -12 28.5 -12c14 0 31.667 7.33301 53 22v461h151v-578h-151v54c-46 -42.667 -92 -64 -138 -64c-33.333 0 -58.833 12.333 -76.5 37zM258 838.999h154l-123 -201h-92z" />
    <glyph glyph-name="ucircumflex" unicode="&#xfb;" horiz-adv-x="490" 
d="M72.5 27c-17.667 24.667 -26.5 56.333 -26.5 95v456h151v-435c0 -16 2.83301 -28 8.5 -36s15.167 -12 28.5 -12c14 0 31.667 7.33301 53 22v461h151v-578h-151v54c-46 -42.667 -92 -64 -138 -64c-33.333 0 -58.833 12.333 -76.5 37zM180 833.999h128l95 -188h-111
l-48 120l-47 -120h-110z" />
    <glyph glyph-name="udieresis" unicode="&#xfc;" horiz-adv-x="490" 
d="M72.5 27c-17.667 24.667 -26.5 56.333 -26.5 95v456h151v-435c0 -16 2.83301 -28 8.5 -36s15.167 -12 28.5 -12c14 0 31.667 7.33301 53 22v461h151v-578h-151v54c-46 -42.667 -92 -64 -138 -64c-33.333 0 -58.833 12.333 -76.5 37zM78 809.999h125v-140h-125v140z
M286 809.999h126v-140h-126v140z" />
    <glyph glyph-name="yacute" unicode="&#xfd;" horiz-adv-x="436" 
d="M62 -57c34 0 58.5 3.49902 73.5 10.499s22.5 19.5 22.5 37.5c0 8.66699 -2.16699 22.334 -6.5 41.001s-9.16602 38 -14.499 58l-132 488h144l73 -355l60 355h144l-134 -596c-12 -53.333 -34.333 -90.833 -67 -112.5s-76.334 -32.5 -131.001 -32.5h-32v106zM231 838.999
h154l-123 -201h-92z" />
    <glyph glyph-name="thorn" unicode="&#xfe;" horiz-adv-x="484" 
d="M48 810h151v-275c38.667 35.333 79.334 53 122.001 53c43.333 0 74.833 -17.5 94.5 -52.5s29.5 -77.833 29.5 -128.5v-226c0 -57.333 -10.833 -103.5 -32.5 -138.5s-53.834 -52.5 -96.501 -52.5c-38 0 -77 17.667 -117 53v-233h-151v1000zM294 175l0.000976562 242
c0 50.667 -15 76 -45 76c-16.667 0 -33.334 -7.33301 -50.001 -22v-363c17.333 -11.333 34 -17 50 -17c30 0 45 28 45 84z" />
    <glyph glyph-name="ydieresis" unicode="&#xff;" horiz-adv-x="436" 
d="M62 -57c34 0 58.5 3.49902 73.5 10.499s22.5 19.5 22.5 37.5c0 8.66699 -2.16699 22.334 -6.5 41.001s-9.16602 38 -14.499 58l-132 488h144l73 -355l60 355h144l-134 -596c-12 -53.333 -34.333 -90.833 -67 -112.5s-76.334 -32.5 -131.001 -32.5h-32v106zM51 809.999
h125v-140h-125v140zM259 809.999h126v-140h-126v140z" />
    <glyph glyph-name="Amacron" unicode="&#x100;" horiz-adv-x="538" 
d="M178 810h183l156 -810h-152l-30 178h-128l-31 -178h-155zM319 280l-49 326l-48 -326h97zM141 977h258v-75h-258v75z" />
    <glyph glyph-name="amacron" unicode="&#x101;" horiz-adv-x="466" 
d="M98 10c-20 13.333 -35.168 30.8311 -45.501 52.498s-15.5 44.167 -15.5 67.5c0 44.667 11 81.334 33 110.001s48.5 51 79.5 67s72.167 33.333 123.5 52v54c0 20.667 -2.83301 36.334 -8.5 47.001s-15.834 16 -30.501 16s-25 -4.66699 -31 -14
s-9.66699 -22.666 -11 -39.999l-3 -40l-142 6c2.66699 68.667 20.334 119.167 53.001 151.5s81.667 48.5 147 48.5c56.667 0 99.334 -15.667 128.001 -47s43 -74.333 43 -129v-269c0 -45.333 3.33301 -93 10 -143h-135c-2.66699 19.333 -7 47 -13 83
c-8 -26.667 -21.5 -48.834 -40.5 -66.501s-42.833 -26.5 -71.5 -26.5c-26.667 0 -50 6.66699 -70 20zM250.499 106.998c9 6.66699 16.5 14.333 22.5 23v159c-31.333 -18 -55.333 -36.667 -72 -56s-25 -43 -25 -71c0 -20.667 4 -36.667 12 -48s19.333 -17 34 -17
c10 0 19.5 3.33301 28.5 10zM116.999 744.997h258v-75h-258v75z" />
    <glyph glyph-name="Abreve" unicode="&#x102;" horiz-adv-x="538" 
d="M178 810h183l156 -810h-152l-30 178h-128l-31 -178h-155zM319 280l-49 326l-48 -326h97zM158.5 914c-27 26.667 -40.499 64 -40.499 112h86c0 -25.333 5 -43.833 15 -55.5s27 -17.5 51 -17.5c23.333 0 40.166 6 50.499 18s15.5 30.333 15.5 55h85
c0 -48 -13.333 -85.333 -40 -112s-63.667 -40 -111 -40s-84.5 13.333 -111.5 40z" />
    <glyph glyph-name="abreve" unicode="&#x103;" horiz-adv-x="466" 
d="M98 10c-20 13.333 -35.168 30.8311 -45.501 52.498s-15.5 44.167 -15.5 67.5c0 44.667 11 81.334 33 110.001s48.5 51 79.5 67s72.167 33.333 123.5 52v54c0 20.667 -2.83301 36.334 -8.5 47.001s-15.834 16 -30.501 16s-25 -4.66699 -31 -14
s-9.66699 -22.666 -11 -39.999l-3 -40l-142 6c2.66699 68.667 20.334 119.167 53.001 151.5s81.667 48.5 147 48.5c56.667 0 99.334 -15.667 128.001 -47s43 -74.333 43 -129v-269c0 -45.333 3.33301 -93 10 -143h-135c-2.66699 19.333 -7 47 -13 83
c-8 -26.667 -21.5 -48.834 -40.5 -66.501s-42.833 -26.5 -71.5 -26.5c-26.667 0 -50 6.66699 -70 20zM250.499 106.998c9 6.66699 16.5 14.333 22.5 23v159c-31.333 -18 -55.333 -36.667 -72 -56s-25 -43 -25 -71c0 -20.667 4 -36.667 12 -48s19.333 -17 34 -17
c10 0 19.5 3.33301 28.5 10zM134.499 681.997c-27 26.667 -40.499 64 -40.499 112h86c0 -25.333 5 -43.833 15 -55.5s27 -17.5 51 -17.5c23.333 0 40.166 6 50.499 18s15.5 30.333 15.5 55h85c0 -48 -13.333 -85.333 -40 -112s-63.667 -40 -111 -40s-84.5 13.333 -111.5 40z
" />
    <glyph glyph-name="Aogonek" unicode="&#x104;" horiz-adv-x="538" 
d="M178 810h183l156 -810h-152l-30 178h-128l-31 -178h-155zM319 280l-49 326l-48 -326h97zM374 -232.5c-29.333 14.333 -44.001 41.832 -44.001 82.499c0 26 8.5 53.333 25.5 82s36.833 51.334 59.5 68.001h69c-30.667 -45.333 -46 -86.333 -46 -123
c0 -37.333 22.333 -56 67 -56c9.33301 0 19.333 0.666992 30 2l-16 -74c-9.33301 -2 -20.666 -3 -33.999 -3c-44.667 0 -81.667 7.16699 -111 21.5z" />
    <glyph glyph-name="aogonek" unicode="&#x105;" horiz-adv-x="466" 
d="M98 10c-20 13.333 -35.168 30.8311 -45.501 52.498s-15.5 44.167 -15.5 67.5c0 44.667 11 81.334 33 110.001s48.5 51 79.5 67s72.167 33.333 123.5 52v54c0 20.667 -2.83301 36.334 -8.5 47.001s-15.834 16 -30.501 16s-25 -4.66699 -31 -14
s-9.66699 -22.666 -11 -39.999l-3 -40l-142 6c2.66699 68.667 20.334 119.167 53.001 151.5s81.667 48.5 147 48.5c56.667 0 99.334 -15.667 128.001 -47s43 -74.333 43 -129v-269c0 -45.333 3.33301 -93 10 -143h-135c-2.66699 19.333 -7 47 -13 83
c-8 -26.667 -21.5 -48.834 -40.5 -66.501s-42.833 -26.5 -71.5 -26.5c-26.667 0 -50 6.66699 -70 20zM250.499 106.998c9 6.66699 16.5 14.333 22.5 23v159c-31.333 -18 -55.333 -36.667 -72 -56s-25 -43 -25 -71c0 -20.667 4 -36.667 12 -48s19.333 -17 34 -17
c10 0 19.5 3.33301 28.5 10zM291.999 -232.503c-29.333 14.333 -44.001 41.832 -44.001 82.499c0 26 8.5 53.333 25.5 82s36.833 51.334 59.5 68.001h69c-30.667 -45.333 -46 -86.333 -46 -123c0 -37.333 22.333 -56 67 -56c9.33301 0 19.333 0.666992 30 2l-16 -74
c-9.33301 -2 -20.666 -3 -33.999 -3c-44.667 0 -81.667 7.16699 -111 21.5z" />
    <glyph glyph-name="Cacute" unicode="&#x106;" horiz-adv-x="553" 
d="M103 58.5c-36 46.333 -54.001 113.163 -54.001 200.496v290c0 89.333 17.833 156.833 53.5 202.5s96.834 68.5 183.501 68.5c82.667 0 141.167 -20.167 175.5 -60.5s51.5 -98.166 51.5 -173.499v-68h-160v75c0 24 -1.16699 43.333 -3.5 58s-8.33301 26.834 -18 36.501
s-24.5 14.5 -44.5 14.5c-30 0 -49.333 -9.66699 -58 -29s-13 -47.666 -13 -84.999v-368c0 -38 5 -66.333 15 -85s28.667 -28 56 -28c28 0 46 9.5 54 28.5s12 47.167 12 84.5v79h160v-67c0 -77.333 -17 -137.166 -51 -179.499s-92.667 -63.5 -176 -63.5
c-86 0 -147 23.167 -183 69.5zM295.999 1071h154l-123 -201h-92z" />
    <glyph glyph-name="cacute" unicode="&#x107;" horiz-adv-x="456" 
d="M89 43c-32.667 35.333 -48.998 84.999 -48.998 148.999v195c0 64.667 16.333 114.334 49 149.001s80.667 52 144 52c62 0 108.833 -14.667 140.5 -44s47.5 -73.333 47.5 -132v-55h-145v59c0 25.333 -3.33301 42.833 -10 52.5s-17.334 14.5 -32.001 14.5
c-16 0 -27.167 -6 -33.5 -18s-9.5 -33 -9.5 -63v-228c0 -30 3.5 -50.667 10.5 -62s17.833 -17 32.5 -17c15.333 0 26.166 5.33301 32.499 16s9.5 27.667 9.5 51v70h145v-64c0 -58 -16 -102.167 -48 -132.5s-78.667 -45.5 -140 -45.5c-63.333 0 -111.333 17.667 -144 53z
M242.002 838.999h154l-123 -201h-92z" />
    <glyph glyph-name="Ccircumflex" unicode="&#x108;" horiz-adv-x="553" 
d="M103 58.5c-36 46.333 -54.001 113.163 -54.001 200.496v290c0 89.333 17.833 156.833 53.5 202.5s96.834 68.5 183.501 68.5c82.667 0 141.167 -20.167 175.5 -60.5s51.5 -98.166 51.5 -173.499v-68h-160v75c0 24 -1.16699 43.333 -3.5 58s-8.33301 26.834 -18 36.501
s-24.5 14.5 -44.5 14.5c-30 0 -49.333 -9.66699 -58 -29s-13 -47.666 -13 -84.999v-368c0 -38 5 -66.333 15 -85s28.667 -28 56 -28c28 0 46 9.5 54 28.5s12 47.167 12 84.5v79h160v-67c0 -77.333 -17 -137.166 -51 -179.499s-92.667 -63.5 -176 -63.5
c-86 0 -147 23.167 -183 69.5zM217.999 1066h128l95 -188h-111l-48 120l-47 -120h-110z" />
    <glyph glyph-name="ccircumflex" unicode="&#x109;" horiz-adv-x="456" 
d="M89 43c-32.667 35.333 -48.998 84.999 -48.998 148.999v195c0 64.667 16.333 114.334 49 149.001s80.667 52 144 52c62 0 108.833 -14.667 140.5 -44s47.5 -73.333 47.5 -132v-55h-145v59c0 25.333 -3.33301 42.833 -10 52.5s-17.334 14.5 -32.001 14.5
c-16 0 -27.167 -6 -33.5 -18s-9.5 -33 -9.5 -63v-228c0 -30 3.5 -50.667 10.5 -62s17.833 -17 32.5 -17c15.333 0 26.166 5.33301 32.499 16s9.5 27.667 9.5 51v70h145v-64c0 -58 -16 -102.167 -48 -132.5s-78.667 -45.5 -140 -45.5c-63.333 0 -111.333 17.667 -144 53z
M164.002 833.999h128l95 -188h-111l-48 120l-47 -120h-110z" />
    <glyph glyph-name="Cdotaccent" unicode="&#x10a;" horiz-adv-x="553" 
d="M103 58.5c-36 46.333 -54.001 113.163 -54.001 200.496v290c0 89.333 17.833 156.833 53.5 202.5s96.834 68.5 183.501 68.5c82.667 0 141.167 -20.167 175.5 -60.5s51.5 -98.166 51.5 -173.499v-68h-160v75c0 24 -1.16699 43.333 -3.5 58s-8.33301 26.834 -18 36.501
s-24.5 14.5 -44.5 14.5c-30 0 -49.333 -9.66699 -58 -29s-13 -47.666 -13 -84.999v-368c0 -38 5 -66.333 15 -85s28.667 -28 56 -28c28 0 46 9.5 54 28.5s12 47.167 12 84.5v79h160v-67c0 -77.333 -17 -137.166 -51 -179.499s-92.667 -63.5 -176 -63.5
c-86 0 -147 23.167 -183 69.5zM210.999 1034h144v-146h-144v146z" />
    <glyph glyph-name="cdotaccent" unicode="&#x10b;" horiz-adv-x="456" 
d="M89 43c-32.667 35.333 -48.998 84.999 -48.998 148.999v195c0 64.667 16.333 114.334 49 149.001s80.667 52 144 52c62 0 108.833 -14.667 140.5 -44s47.5 -73.333 47.5 -132v-55h-145v59c0 25.333 -3.33301 42.833 -10 52.5s-17.334 14.5 -32.001 14.5
c-16 0 -27.167 -6 -33.5 -18s-9.5 -33 -9.5 -63v-228c0 -30 3.5 -50.667 10.5 -62s17.833 -17 32.5 -17c15.333 0 26.166 5.33301 32.499 16s9.5 27.667 9.5 51v70h145v-64c0 -58 -16 -102.167 -48 -132.5s-78.667 -45.5 -140 -45.5c-63.333 0 -111.333 17.667 -144 53z
M157.002 801.999h144v-146h-144v146z" />
    <glyph glyph-name="Ccaron" unicode="&#x10c;" horiz-adv-x="553" 
d="M103 58.5c-36 46.333 -54.001 113.163 -54.001 200.496v290c0 89.333 17.833 156.833 53.5 202.5s96.834 68.5 183.501 68.5c82.667 0 141.167 -20.167 175.5 -60.5s51.5 -98.166 51.5 -173.499v-68h-160v75c0 24 -1.16699 43.333 -3.5 58s-8.33301 26.834 -18 36.501
s-24.5 14.5 -44.5 14.5c-30 0 -49.333 -9.66699 -58 -29s-13 -47.666 -13 -84.999v-368c0 -38 5 -66.333 15 -85s28.667 -28 56 -28c28 0 46 9.5 54 28.5s12 47.167 12 84.5v79h160v-67c0 -77.333 -17 -137.166 -51 -179.499s-92.667 -63.5 -176 -63.5
c-86 0 -147 23.167 -183 69.5zM121.999 1054h108l53 -111l53 111h108l-88 -183h-147z" />
    <glyph glyph-name="ccaron" unicode="&#x10d;" horiz-adv-x="456" 
d="M89 43c-32.667 35.333 -48.998 84.999 -48.998 148.999v195c0 64.667 16.333 114.334 49 149.001s80.667 52 144 52c62 0 108.833 -14.667 140.5 -44s47.5 -73.333 47.5 -132v-55h-145v59c0 25.333 -3.33301 42.833 -10 52.5s-17.334 14.5 -32.001 14.5
c-16 0 -27.167 -6 -33.5 -18s-9.5 -33 -9.5 -63v-228c0 -30 3.5 -50.667 10.5 -62s17.833 -17 32.5 -17c15.333 0 26.166 5.33301 32.499 16s9.5 27.667 9.5 51v70h145v-64c0 -58 -16 -102.167 -48 -132.5s-78.667 -45.5 -140 -45.5c-63.333 0 -111.333 17.667 -144 53z
M68.002 821.999h108l53 -111l53 111h108l-88 -183h-147z" />
    <glyph glyph-name="Dcaron" unicode="&#x10e;" horiz-adv-x="573" 
d="M61 810l198.001 0.00195312c68 0 121.167 -8.83301 159.5 -26.5s65.666 -44.834 81.999 -81.501s24.5 -85.334 24.5 -146.001v-295c0 -62 -8 -111.833 -24 -149.5s-43 -65.667 -81 -84s-90.333 -27.5 -157 -27.5h-202v810zM261.001 115.002
c28.667 0 49.8311 4.49805 63.498 13.498s22.334 22.167 26.001 39.5s5.5 42.333 5.5 75v335c0 30.667 -2.16699 53.834 -6.5 69.501s-13.166 27.334 -26.499 35.001s-34.333 11.5 -63 11.5h-35v-579h36zM125.998 1054h108l53 -111l53 111h108l-88 -183h-147z" />
    <glyph glyph-name="dcaron" unicode="&#x10f;" horiz-adv-x="616" 
d="M42 181v212.001c0 59.333 11.333 106.666 34 141.999s56.667 53 102 53c38 0 74.667 -15.333 110 -46v268h151v-810h-151v43c-35.333 -35.333 -72 -53 -110 -53c-90.667 0 -136 63.667 -136 191zM288 107.001v368.001c-17.333 10 -33.333 15 -48 15
c-16 0 -27.667 -6.83301 -35 -20.5s-11 -31.834 -11 -54.501v-245c0 -53.333 15.333 -80 46 -80c14.667 0 30.667 5.66699 48 17zM499 577.002c46 12.667 69 41.666 69 86.999h-80v146h145v-129c0 -93.333 -40.667 -144.666 -122 -153.999z" />
    <glyph glyph-name="Dcroat" unicode="&#x110;" horiz-adv-x="577" 
d="M64 377l-49.999 0.00195312v78h50v355h199c68 0 121.167 -8.83301 159.5 -26.5s65.5 -44.834 81.5 -81.501s24 -85.334 24 -146.001v-295c0 -62 -8 -111.833 -24 -149.5s-42.833 -65.667 -80.5 -84s-89.834 -27.5 -156.501 -27.5h-203v377zM268.001 115.002
c28.667 0 49.8311 4.49805 63.498 13.498s22.334 22.167 26.001 39.5s5.5 42.333 5.5 75v335c0 30.667 -2.16699 53.834 -6.5 69.501s-13.166 27.334 -26.499 35.001s-34.333 11.5 -63 11.5h-41v-239h51v-78h-51v-262h42z" />
    <glyph glyph-name="dcroat" unicode="&#x111;" horiz-adv-x="490" 
d="M40 181v212.001c0 59.333 11.167 106.666 33.5 141.999s56.5 53 102.5 53c38 0 74 -15.333 108 -46v138h-129v65h129v65h151v-65h51v-65h-51v-680h-151v43c-34 -35.333 -70 -53 -108 -53c-90.667 0 -136 63.667 -136 191zM284 107.001v368.001
c-17.333 10 -32.666 15 -45.999 15c-16 0 -27.833 -6.83301 -35.5 -20.5s-11.5 -31.834 -11.5 -54.501v-245c0 -53.333 15.667 -80 47 -80c13.333 0 28.666 5.66699 45.999 17z" />
    <glyph glyph-name="Emacron" unicode="&#x112;" horiz-adv-x="439" 
d="M61 810h353v-114h-189v-215h146v-115h-146v-254h191v-112h-355v810zM111 977h258v-75h-258v75z" />
    <glyph glyph-name="emacron" unicode="&#x113;" horiz-adv-x="459" 
d="M89.5 42c-33 34.667 -49.501 84.667 -49.501 150v194c0 65.333 16.667 115.333 50 150s81.333 52 144 52c64.667 0 112 -17.333 142 -52s45 -86 45 -154v-101h-231v-112c0 -24.667 3.83301 -42.667 11.5 -54s18.834 -17 33.501 -17c30 0 45 21.667 45 65v56h140v-50
c0 -58 -16 -102.333 -48 -133s-78 -46 -138 -46c-63.333 0 -111.5 17.333 -144.5 52zM279.999 353v56c0 25.333 -3.66699 43.5 -11 54.5s-19 16.5 -35 16.5c-15.333 0 -26.5 -6 -33.5 -18s-10.5 -33.333 -10.5 -64v-45h90zM102.999 745h258v-75h-258v75z" />
    <glyph glyph-name="Ebreve" unicode="&#x114;" horiz-adv-x="439" 
d="M61 810h353v-114h-189v-215h146v-115h-146v-254h191v-112h-355v810zM128.5 914c-27 26.667 -40.499 64 -40.499 112h86c0 -25.333 5 -43.833 15 -55.5s27 -17.5 51 -17.5c23.333 0 40.166 6 50.499 18s15.5 30.333 15.5 55h85c0 -48 -13.333 -85.333 -40 -112
s-63.667 -40 -111 -40s-84.5 13.333 -111.5 40z" />
    <glyph glyph-name="ebreve" unicode="&#x115;" horiz-adv-x="459" 
d="M89.5 42c-33 34.667 -49.501 84.667 -49.501 150v194c0 65.333 16.667 115.333 50 150s81.333 52 144 52c64.667 0 112 -17.333 142 -52s45 -86 45 -154v-101h-231v-112c0 -24.667 3.83301 -42.667 11.5 -54s18.834 -17 33.501 -17c30 0 45 21.667 45 65v56h140v-50
c0 -58 -16 -102.333 -48 -133s-78 -46 -138 -46c-63.333 0 -111.5 17.333 -144.5 52zM279.999 353v56c0 25.333 -3.66699 43.5 -11 54.5s-19 16.5 -35 16.5c-15.333 0 -26.5 -6 -33.5 -18s-10.5 -33.333 -10.5 -64v-45h90zM120.499 682c-27 26.667 -40.499 64 -40.499 112
h86c0 -25.333 5 -43.833 15 -55.5s27 -17.5 51 -17.5c23.333 0 40.166 6 50.499 18s15.5 30.333 15.5 55h85c0 -48 -13.333 -85.333 -40 -112s-63.667 -40 -111 -40s-84.5 13.333 -111.5 40z" />
    <glyph glyph-name="Edotaccent" unicode="&#x116;" horiz-adv-x="439" 
d="M61 810h353v-114h-189v-215h146v-115h-146v-254h191v-112h-355v810zM168 1034h144v-146h-144v146z" />
    <glyph glyph-name="edotaccent" unicode="&#x117;" horiz-adv-x="459" 
d="M89.5 42c-33 34.667 -49.501 84.667 -49.501 150v194c0 65.333 16.667 115.333 50 150s81.333 52 144 52c64.667 0 112 -17.333 142 -52s45 -86 45 -154v-101h-231v-112c0 -24.667 3.83301 -42.667 11.5 -54s18.834 -17 33.501 -17c30 0 45 21.667 45 65v56h140v-50
c0 -58 -16 -102.333 -48 -133s-78 -46 -138 -46c-63.333 0 -111.5 17.333 -144.5 52zM279.999 353v56c0 25.333 -3.66699 43.5 -11 54.5s-19 16.5 -35 16.5c-15.333 0 -26.5 -6 -33.5 -18s-10.5 -33.333 -10.5 -64v-45h90zM159.999 802h144v-146h-144v146z" />
    <glyph glyph-name="Eogonek" unicode="&#x118;" horiz-adv-x="439" 
d="M61 810h353v-114h-189v-215h146v-115h-146v-254h191v-112h-355v810zM239 -232.5c-29.333 14.333 -44.001 41.832 -44.001 82.499c0 26 8.5 53.333 25.5 82s36.833 51.334 59.5 68.001h69c-30.667 -45.333 -46 -86.333 -46 -123c0 -37.333 22.333 -56 67 -56
c9.33301 0 19.333 0.666992 30 2l-16 -74c-9.33301 -2 -20.666 -3 -33.999 -3c-44.667 0 -81.667 7.16699 -111 21.5z" />
    <glyph glyph-name="eogonek" unicode="&#x119;" horiz-adv-x="459" 
d="M89.5 42c-33 34.667 -49.501 84.667 -49.501 150v194c0 65.333 16.667 115.333 50 150s81.333 52 144 52c64.667 0 112 -17.333 142 -52s45 -86 45 -154v-101h-231v-112c0 -24.667 3.83301 -42.667 11.5 -54s18.834 -17 33.501 -17c30 0 45 21.667 45 65v56h140v-50
c0 -58 -16 -102.333 -48 -133s-78 -46 -138 -46c-63.333 0 -111.5 17.333 -144.5 52zM279.999 353v56c0 25.333 -3.66699 43.5 -11 54.5s-19 16.5 -35 16.5c-15.333 0 -26.5 -6 -33.5 -18s-10.5 -33.333 -10.5 -64v-45h90zM189.999 -222.5
c-29.333 14.333 -44.001 41.832 -44.001 82.499c0 26 8.5 53.333 25.5 82s36.833 51.334 59.5 68.001h69c-30.667 -45.333 -46 -86.333 -46 -123c0 -37.333 22.333 -56 67 -56c9.33301 0 19.333 0.666992 30 2l-16 -74c-9.33301 -2 -20.666 -3 -33.999 -3
c-44.667 0 -81.667 7.16699 -111 21.5z" />
    <glyph glyph-name="Ecaron" unicode="&#x11a;" horiz-adv-x="439" 
d="M61 810h353v-114h-189v-215h146v-115h-146v-254h191v-112h-355v810zM79 1054h108l53 -111l53 111h108l-88 -183h-147z" />
    <glyph glyph-name="ecaron" unicode="&#x11b;" horiz-adv-x="459" 
d="M89.5 42c-33 34.667 -49.501 84.667 -49.501 150v194c0 65.333 16.667 115.333 50 150s81.333 52 144 52c64.667 0 112 -17.333 142 -52s45 -86 45 -154v-101h-231v-112c0 -24.667 3.83301 -42.667 11.5 -54s18.834 -17 33.501 -17c30 0 45 21.667 45 65v56h140v-50
c0 -58 -16 -102.333 -48 -133s-78 -46 -138 -46c-63.333 0 -111.5 17.333 -144.5 52zM279.999 353v56c0 25.333 -3.66699 43.5 -11 54.5s-19 16.5 -35 16.5c-15.333 0 -26.5 -6 -33.5 -18s-10.5 -33.333 -10.5 -64v-45h90zM70.999 822h108l53 -111l53 111h108l-88 -183h-147
z" />
    <glyph glyph-name="Gcircumflex" unicode="&#x11c;" horiz-adv-x="572" 
d="M99.5 60.5c-33.667 48.333 -50.501 117.5 -50.501 207.5v271c0 92 17.833 161.833 53.5 209.5s96.834 71.5 183.501 71.5c83.333 0 142.666 -20.333 177.999 -61s53 -99.334 53 -176.001v-47h-160v57c0 37.333 -4.16699 64.833 -12.5 82.5s-27.166 26.5 -56.499 26.5
c-30 0 -49.333 -10 -58 -30s-13 -49 -13 -87v-360c0 -38 5.33301 -67.167 16 -87.5s30.667 -30.5 60 -30.5c28.667 0 48.834 10.833 60.501 32.5s17.5 51.834 17.5 90.501v86h-79v100h228v-416h-108l-11 72c-24.667 -56 -69 -84 -133 -84
c-78.667 0 -134.834 24.167 -168.501 72.5zM220.999 1066h128l95 -188h-111l-48 120l-47 -120h-110z" />
    <glyph glyph-name="gcircumflex" unicode="&#x11d;" horiz-adv-x="487" 
d="M79.5 -166c-37 19.333 -55.501 47.999 -55.501 85.999c0 50.667 29.667 89 89 115c-50.667 13.333 -76 41.666 -76 84.999c0 21.333 5.16699 40.333 15.5 57s26.5 34.667 48.5 54c-19.333 16.667 -33.833 37.5 -43.5 62.5s-14.5 55.5 -14.5 91.5
c0 66 16.833 116.333 50.5 151s82.5 52 146.5 52c59.333 0 103.666 -16.667 132.999 -50c6.66699 11.333 16.334 22.333 29.001 33s27 19.667 43 27l20 10l36 -76c-10 -3.33301 -25 -9.16602 -45 -17.499s-35.667 -15.833 -47 -22.5c6.66699 -14 11.834 -30.667 15.501 -50
s5.5 -38.666 5.5 -57.999c0 -63.333 -15.833 -112.333 -47.5 -147s-79.167 -52 -142.5 -52c-33.333 0 -63 4.66699 -89 14c-10.667 -13.333 -16 -25.666 -16 -36.999c0 -8 4 -14.333 12 -19s21.667 -8 41 -10l139 -15c94.667 -10.667 142 -60.334 142 -149.001
c0 -55.333 -18.833 -96.5 -56.5 -123.5s-98.167 -40.5 -181.5 -40.5c-64 0 -114.5 9.66699 -151.5 29zM279.999 300.499c6.66699 15.667 10 43.8359 10 84.5029c0 41.333 -3.33301 70.166 -10 86.499s-20 24.5 -40 24.5s-33.5 -8.33301 -40.5 -25
s-10.5 -45.334 -10.5 -86.001c0 -38.667 3.5 -66.334 10.5 -83.001s20.5 -25 40.5 -25s33.333 7.83301 40 23.5zM335.499 -74.499c18.333 7 27.499 19.5 27.499 37.5c0 15.333 -6 26.5 -18 33.5s-34.333 11.833 -67 14.5l-104 11c-11.333 -10 -20.166 -19.5 -26.499 -28.5
s-9.5 -18.833 -9.5 -29.5c0 -16.667 8.66699 -29 26 -37s46 -12 86 -12c38.667 0 67.167 3.5 85.5 10.5zM178.998 834.001h128l95 -188h-111l-48 120l-47 -120h-110z" />
    <glyph glyph-name="Gbreve" unicode="&#x11e;" horiz-adv-x="572" 
d="M99.5 60.5c-33.667 48.333 -50.501 117.5 -50.501 207.5v271c0 92 17.833 161.833 53.5 209.5s96.834 71.5 183.501 71.5c83.333 0 142.666 -20.333 177.999 -61s53 -99.334 53 -176.001v-47h-160v57c0 37.333 -4.16699 64.833 -12.5 82.5s-27.166 26.5 -56.499 26.5
c-30 0 -49.333 -10 -58 -30s-13 -49 -13 -87v-360c0 -38 5.33301 -67.167 16 -87.5s30.667 -30.5 60 -30.5c28.667 0 48.834 10.833 60.501 32.5s17.5 51.834 17.5 90.501v86h-79v100h228v-416h-108l-11 72c-24.667 -56 -69 -84 -133 -84
c-78.667 0 -134.834 24.167 -168.501 72.5zM174.499 914c-27 26.667 -40.499 64 -40.499 112h86c0 -25.333 5 -43.833 15 -55.5s27 -17.5 51 -17.5c23.333 0 40.166 6 50.499 18s15.5 30.333 15.5 55h85c0 -48 -13.333 -85.333 -40 -112s-63.667 -40 -111 -40
s-84.5 13.333 -111.5 40z" />
    <glyph glyph-name="gbreve" unicode="&#x11f;" horiz-adv-x="487" 
d="M79.5 -166c-37 19.333 -55.501 47.999 -55.501 85.999c0 50.667 29.667 89 89 115c-50.667 13.333 -76 41.666 -76 84.999c0 21.333 5.16699 40.333 15.5 57s26.5 34.667 48.5 54c-19.333 16.667 -33.833 37.5 -43.5 62.5s-14.5 55.5 -14.5 91.5
c0 66 16.833 116.333 50.5 151s82.5 52 146.5 52c59.333 0 103.666 -16.667 132.999 -50c6.66699 11.333 16.334 22.333 29.001 33s27 19.667 43 27l20 10l36 -76c-10 -3.33301 -25 -9.16602 -45 -17.499s-35.667 -15.833 -47 -22.5c6.66699 -14 11.834 -30.667 15.501 -50
s5.5 -38.666 5.5 -57.999c0 -63.333 -15.833 -112.333 -47.5 -147s-79.167 -52 -142.5 -52c-33.333 0 -63 4.66699 -89 14c-10.667 -13.333 -16 -25.666 -16 -36.999c0 -8 4 -14.333 12 -19s21.667 -8 41 -10l139 -15c94.667 -10.667 142 -60.334 142 -149.001
c0 -55.333 -18.833 -96.5 -56.5 -123.5s-98.167 -40.5 -181.5 -40.5c-64 0 -114.5 9.66699 -151.5 29zM279.999 300.499c6.66699 15.667 10 43.8359 10 84.5029c0 41.333 -3.33301 70.166 -10 86.499s-20 24.5 -40 24.5s-33.5 -8.33301 -40.5 -25
s-10.5 -45.334 -10.5 -86.001c0 -38.667 3.5 -66.334 10.5 -83.001s20.5 -25 40.5 -25s33.333 7.83301 40 23.5zM335.499 -74.499c18.333 7 27.499 19.5 27.499 37.5c0 15.333 -6 26.5 -18 33.5s-34.333 11.833 -67 14.5l-104 11c-11.333 -10 -20.166 -19.5 -26.499 -28.5
s-9.5 -18.833 -9.5 -29.5c0 -16.667 8.66699 -29 26 -37s46 -12 86 -12c38.667 0 67.167 3.5 85.5 10.5zM132.498 682.001c-27 26.667 -40.499 64 -40.499 112h86c0 -25.333 5 -43.833 15 -55.5s27 -17.5 51 -17.5c23.333 0 40.166 6 50.499 18s15.5 30.333 15.5 55h85
c0 -48 -13.333 -85.333 -40 -112s-63.667 -40 -111 -40s-84.5 13.333 -111.5 40z" />
    <glyph glyph-name="Gdotaccent" unicode="&#x120;" horiz-adv-x="572" 
d="M99.5 60.5c-33.667 48.333 -50.501 117.5 -50.501 207.5v271c0 92 17.833 161.833 53.5 209.5s96.834 71.5 183.501 71.5c83.333 0 142.666 -20.333 177.999 -61s53 -99.334 53 -176.001v-47h-160v57c0 37.333 -4.16699 64.833 -12.5 82.5s-27.166 26.5 -56.499 26.5
c-30 0 -49.333 -10 -58 -30s-13 -49 -13 -87v-360c0 -38 5.33301 -67.167 16 -87.5s30.667 -30.5 60 -30.5c28.667 0 48.834 10.833 60.501 32.5s17.5 51.834 17.5 90.501v86h-79v100h228v-416h-108l-11 72c-24.667 -56 -69 -84 -133 -84
c-78.667 0 -134.834 24.167 -168.501 72.5zM213.999 1034h144v-146h-144v146z" />
    <glyph glyph-name="gdotaccent" unicode="&#x121;" horiz-adv-x="487" 
d="M79.5 -166c-37 19.333 -55.501 47.999 -55.501 85.999c0 50.667 29.667 89 89 115c-50.667 13.333 -76 41.666 -76 84.999c0 21.333 5.16699 40.333 15.5 57s26.5 34.667 48.5 54c-19.333 16.667 -33.833 37.5 -43.5 62.5s-14.5 55.5 -14.5 91.5
c0 66 16.833 116.333 50.5 151s82.5 52 146.5 52c59.333 0 103.666 -16.667 132.999 -50c6.66699 11.333 16.334 22.333 29.001 33s27 19.667 43 27l20 10l36 -76c-10 -3.33301 -25 -9.16602 -45 -17.499s-35.667 -15.833 -47 -22.5c6.66699 -14 11.834 -30.667 15.501 -50
s5.5 -38.666 5.5 -57.999c0 -63.333 -15.833 -112.333 -47.5 -147s-79.167 -52 -142.5 -52c-33.333 0 -63 4.66699 -89 14c-10.667 -13.333 -16 -25.666 -16 -36.999c0 -8 4 -14.333 12 -19s21.667 -8 41 -10l139 -15c94.667 -10.667 142 -60.334 142 -149.001
c0 -55.333 -18.833 -96.5 -56.5 -123.5s-98.167 -40.5 -181.5 -40.5c-64 0 -114.5 9.66699 -151.5 29zM279.999 300.499c6.66699 15.667 10 43.8359 10 84.5029c0 41.333 -3.33301 70.166 -10 86.499s-20 24.5 -40 24.5s-33.5 -8.33301 -40.5 -25
s-10.5 -45.334 -10.5 -86.001c0 -38.667 3.5 -66.334 10.5 -83.001s20.5 -25 40.5 -25s33.333 7.83301 40 23.5zM335.499 -74.499c18.333 7 27.499 19.5 27.499 37.5c0 15.333 -6 26.5 -18 33.5s-34.333 11.833 -67 14.5l-104 11c-11.333 -10 -20.166 -19.5 -26.499 -28.5
s-9.5 -18.833 -9.5 -29.5c0 -16.667 8.66699 -29 26 -37s46 -12 86 -12c38.667 0 67.167 3.5 85.5 10.5zM171.998 802.001h144v-146h-144v146z" />
    <glyph glyph-name="Gcommaaccent" unicode="&#x122;" horiz-adv-x="572" 
d="M99.5 60.5c-33.667 48.333 -50.501 117.5 -50.501 207.5v271c0 92 17.833 161.833 53.5 209.5s96.834 71.5 183.501 71.5c83.333 0 142.666 -20.333 177.999 -61s53 -99.334 53 -176.001v-47h-160v57c0 37.333 -4.16699 64.833 -12.5 82.5s-27.166 26.5 -56.499 26.5
c-30 0 -49.333 -10 -58 -30s-13 -49 -13 -87v-360c0 -38 5.33301 -67.167 16 -87.5s30.667 -30.5 60 -30.5c28.667 0 48.834 10.833 60.501 32.5s17.5 51.834 17.5 90.501v86h-79v100h228v-416h-108l-11 72c-24.667 -56 -69 -84 -133 -84
c-78.667 0 -134.834 24.167 -168.501 72.5zM224.999 -287c20.667 3.33301 36.999 10.832 48.999 22.499s18 29.834 18 54.501h-78v143h144v-125c-0.666992 -48 -10.167 -84.667 -28.5 -110s-48.166 -38.333 -89.499 -39z" />
    <glyph glyph-name="gcommaaccent" unicode="&#x123;" horiz-adv-x="487" 
d="M79.5 -166c-37 19.333 -55.501 47.999 -55.501 85.999c0 50.667 29.667 89 89 115c-50.667 13.333 -76 41.666 -76 84.999c0 21.333 5.16699 40.333 15.5 57s26.5 34.667 48.5 54c-19.333 16.667 -33.833 37.5 -43.5 62.5s-14.5 55.5 -14.5 91.5
c0 66 16.833 116.333 50.5 151s82.5 52 146.5 52c59.333 0 103.666 -16.667 132.999 -50c6.66699 11.333 16.334 22.333 29.001 33s27 19.667 43 27l20 10l36 -76c-10 -3.33301 -25 -9.16602 -45 -17.499s-35.667 -15.833 -47 -22.5c6.66699 -14 11.834 -30.667 15.501 -50
s5.5 -38.666 5.5 -57.999c0 -63.333 -15.833 -112.333 -47.5 -147s-79.167 -52 -142.5 -52c-33.333 0 -63 4.66699 -89 14c-10.667 -13.333 -16 -25.666 -16 -36.999c0 -8 4 -14.333 12 -19s21.667 -8 41 -10l139 -15c94.667 -10.667 142 -60.334 142 -149.001
c0 -55.333 -18.833 -96.5 -56.5 -123.5s-98.167 -40.5 -181.5 -40.5c-64 0 -114.5 9.66699 -151.5 29zM279.999 300.499c6.66699 15.667 10 43.8359 10 84.5029c0 41.333 -3.33301 70.166 -10 86.499s-20 24.5 -40 24.5s-33.5 -8.33301 -40.5 -25
s-10.5 -45.334 -10.5 -86.001c0 -38.667 3.5 -66.334 10.5 -83.001s20.5 -25 40.5 -25s33.333 7.83301 40 23.5zM335.499 -74.499c18.333 7 27.499 19.5 27.499 37.5c0 15.333 -6 26.5 -18 33.5s-34.333 11.833 -67 14.5l-104 11c-11.333 -10 -20.166 -19.5 -26.499 -28.5
s-9.5 -18.833 -9.5 -29.5c0 -16.667 8.66699 -29 26 -37s46 -12 86 -12c38.667 0 67.167 3.5 85.5 10.5zM304.998 863.001c-20.667 -3.33301 -36.999 -10.832 -48.999 -22.499s-18 -29.834 -18 -54.501h78v-143h-144v125c0.666992 48 10.167 84.667 28.5 110
s48.166 38.333 89.499 39z" />
    <glyph glyph-name="Hcircumflex" unicode="&#x124;" horiz-adv-x="599" 
d="M63 810h165v-332h143v332h165v-810h-165v359h-143v-359h-165v810zM235 1066h128l95 -188h-111l-48 120l-47 -120h-110z" />
    <glyph glyph-name="hcircumflex" unicode="&#x125;" horiz-adv-x="496" 
d="M53 810l151 0.000976562v-285c42 42 89.333 63 142 63c32.667 0 57.667 -12.333 75 -37s26 -56.334 26 -95.001v-456h-150v432c0 16 -2.66699 27.833 -8 35.5s-14.333 11.5 -27 11.5c-16.667 0 -36 -8.33301 -58 -25v-454h-151v810zM64 1066h128l95 -188h-111l-48 120
l-47 -120h-110z" />
    <glyph glyph-name="Hbar" unicode="&#x126;" horiz-adv-x="545" 
d="M43 616h-50v56h50v138h165v-138h137v138h165v-138h41v-56h-41v-616h-165v359h-137v-359h-165v616zM345 478v138h-137v-138h137z" />
    <glyph glyph-name="hbar" unicode="&#x127;" horiz-adv-x="496" 
d="M53 675l-50.001 0.000976562v72h50v63h151v-63h119v-72h-119v-150c42 42 89.333 63 142 63c33.333 0 58.666 -12.333 75.999 -37s26 -56.334 26 -95.001v-456h-150v432c0 16 -2.66699 27.833 -8 35.5s-14.666 11.5 -27.999 11.5c-15.333 0 -34.666 -8.33301 -57.999 -25
v-454h-151v675z" />
    <glyph glyph-name="Itilde" unicode="&#x128;" horiz-adv-x="289" 
d="M63 810h164v-810h-164v810zM190.5 913.5c-11 4.33301 -23.499 10.834 -37.499 19.501c-22.667 14 -40.667 21 -54 21c-24 0 -36 -13.667 -36 -41h-74c-1.33301 90 27.667 135 87 135c11.333 0 22.166 -2 32.499 -6s21.833 -10 34.5 -18
c12 -6.66699 22.333 -11.834 31 -15.501s17.667 -5.5 27 -5.5c20.667 0 31 13 31 39h69c0 -40 -5.16699 -72.5 -15.5 -97.5s-30.5 -37.5 -60.5 -37.5c-12 0 -23.5 2.16699 -34.5 6.5z" />
    <glyph glyph-name="itilde" unicode="&#x129;" horiz-adv-x="268" 
d="M60 578h151v-578h-151v578zM181.5 681.5c-11 4.33301 -23.499 10.834 -37.499 19.501c-22.667 14 -40.667 21 -54 21c-24 0 -36 -13.667 -36 -41h-74c-1.33301 90 27.667 135 87 135c11.333 0 22.166 -2 32.499 -6s21.833 -10 34.5 -18
c12 -6.66699 22.333 -11.834 31 -15.501s17.667 -5.5 27 -5.5c20.667 0 31 13 31 39h69c0 -40 -5.16699 -72.5 -15.5 -97.5s-30.5 -37.5 -60.5 -37.5c-12 0 -23.5 2.16699 -34.5 6.5z" />
    <glyph glyph-name="Imacron" unicode="&#x12a;" horiz-adv-x="289" 
d="M63 810h164v-810h-164v810zM16 977h258v-75h-258v75z" />
    <glyph glyph-name="imacron" unicode="&#x12b;" horiz-adv-x="268" 
d="M60 578h151v-578h-151v578zM7 745h258v-75h-258v75z" />
    <glyph glyph-name="Ibreve" unicode="&#x12c;" horiz-adv-x="289" 
d="M63 810h164v-810h-164v810zM33.5 914c-27 26.667 -40.499 64 -40.499 112h86c0 -25.333 5 -43.833 15 -55.5s27 -17.5 51 -17.5c23.333 0 40.166 6 50.499 18s15.5 30.333 15.5 55h85c0 -48 -13.333 -85.333 -40 -112s-63.667 -40 -111 -40s-84.5 13.333 -111.5 40z" />
    <glyph glyph-name="ibreve" unicode="&#x12d;" horiz-adv-x="268" 
d="M60 578h151v-578h-151v578zM24.5 682c-27 26.667 -40.499 64 -40.499 112h86c0 -25.333 5 -43.833 15 -55.5s27 -17.5 51 -17.5c23.333 0 40.166 6 50.499 18s15.5 30.333 15.5 55h85c0 -48 -13.333 -85.333 -40 -112s-63.667 -40 -111 -40s-84.5 13.333 -111.5 40z" />
    <glyph glyph-name="Iogonek" unicode="&#x12e;" horiz-adv-x="289" 
d="M63 810h164v-810h-164v810zM70 -232.5c-29.333 14.333 -44.001 41.832 -44.001 82.499c0 26 8.5 53.333 25.5 82s36.833 51.334 59.5 68.001h69c-30.667 -45.333 -46 -86.333 -46 -123c0 -37.333 22.333 -56 67 -56c9.33301 0 19.333 0.666992 30 2l-16 -74
c-9.33301 -2 -20.666 -3 -33.999 -3c-44.667 0 -81.667 7.16699 -111 21.5z" />
    <glyph glyph-name="iogonek" unicode="&#x12f;" horiz-adv-x="258" 
d="M53 786h152v-113h-152v113zM54 578h151v-578h-151v578zM55 -232.5c-29.333 14.333 -44.001 41.832 -44.001 82.499c0 26 8.5 53.333 25.5 82s36.833 51.334 59.5 68.001h69c-30.667 -45.333 -46 -86.333 -46 -123c0 -37.333 22.333 -56 67 -56
c9.33301 0 19.333 0.666992 30 2l-16 -74c-9.33301 -2 -20.666 -3 -33.999 -3c-44.667 0 -81.667 7.16699 -111 21.5z" />
    <glyph glyph-name="Idotaccent" unicode="&#x130;" horiz-adv-x="289" 
d="M63 810h164v-810h-164v810zM73 1034h144v-146h-144v146z" />
    <glyph glyph-name="dotlessi" unicode="&#x131;" horiz-adv-x="268" 
d="M60 578h151v-578h-151v578z" />
    <glyph glyph-name="IJ" unicode="&#x132;" horiz-adv-x="628" 
d="M63 810h164v-810h-164v810zM301 95c27.333 0 47.999 2.33203 61.999 6.99902s24 13.334 30 26.001s9 32 9 58v624h165v-631c0 -46 -5.5 -83.5 -16.5 -112.5s-30.167 -50.667 -57.5 -65s-64.666 -21.5 -111.999 -21.5h-80v115z" />
    <glyph glyph-name="ij" unicode="&#x133;" horiz-adv-x="525" 
d="M53 786h152v-113h-152v113zM54 578h151v-578h-151v578zM323 786h152v-113h-152v113zM247 -161l-0.000976562 108c18 -2 27.667 -3 29 -3c31.333 0 47 17.667 47 53v581h151v-599c0 -46.667 -12.667 -83.667 -38 -111s-61.666 -41 -108.999 -41c-29.333 0 -56 4 -80 12z
" />
    <glyph glyph-name="Jcircumflex" unicode="&#x134;" horiz-adv-x="339" 
d="M12 95c27.333 0 47.999 2.33203 61.999 6.99902s24 13.334 30 26.001s9 32 9 58v624h165v-631c0 -46 -5.5 -83.5 -16.5 -112.5s-30.167 -50.667 -57.5 -65s-64.666 -21.5 -111.999 -21.5h-80v115zM130.999 1066h128l95 -188h-111l-48 120l-47 -120h-110z" />
    <glyph glyph-name="jcircumflex" unicode="&#x135;" horiz-adv-x="267" 
d="M-11 -161l-0.000976562 108c18 -2 27.667 -3 29 -3c31.333 0 47 17.667 47 53v581h151v-599c0 -46.667 -12.667 -83.667 -38 -111s-61.666 -41 -108.999 -41c-29.333 0 -56 4 -80 12zM75.999 834h128l95 -188h-111l-48 120l-47 -120h-110z" />
    <glyph glyph-name="Kcommaaccent" unicode="&#x136;" horiz-adv-x="552" 
d="M61 810h164v-342l147 342h160l-152 -364l164 -446h-167l-125 362l-27 -44v-318h-164v810zM215 -287c20.667 3.33301 36.999 10.832 48.999 22.499s18 29.834 18 54.501h-78v143h144v-125c-0.666992 -48 -10.167 -84.667 -28.5 -110s-48.166 -38.333 -89.499 -39z" />
    <glyph glyph-name="kcommaaccent" unicode="&#x137;" horiz-adv-x="517" 
d="M52 810h150v-456l145 224h168l-150 -235l148 -343h-163l-103 280l-45 -60v-220h-150v810zM198 -287c20.667 3.33301 36.999 10.832 48.999 22.499s18 29.834 18 54.501h-78v143h144v-125c-0.666992 -48 -10.167 -84.667 -28.5 -110s-48.166 -38.333 -89.499 -39z" />
    <glyph glyph-name="kgreenlandic" unicode="&#x138;" horiz-adv-x="492" 
d="M52 578h151v-244l120 244h161l-121 -250l123 -328h-158l-93 271l-32 -48v-223h-151v578z" />
    <glyph glyph-name="Lacute" unicode="&#x139;" horiz-adv-x="433" 
d="M61 810h164v-698h191v-112h-355v810zM156 1071h154l-123 -201h-92z" />
    <glyph glyph-name="lacute" unicode="&#x13a;" horiz-adv-x="264" 
d="M59 810h150v-810h-150v810zM147 1071h154l-123 -201h-92z" />
    <glyph glyph-name="Lcommaaccent" unicode="&#x13b;" horiz-adv-x="433" 
d="M61 810h164v-698h191v-112h-355v810zM177 -287c20.667 3.33301 36.999 10.832 48.999 22.499s18 29.834 18 54.501h-78v143h144v-125c-0.666992 -48 -10.167 -84.667 -28.5 -110s-48.166 -38.333 -89.499 -39z" />
    <glyph glyph-name="lcommaaccent" unicode="&#x13c;" horiz-adv-x="264" 
d="M59 810h150v-810h-150v810zM73 -287c20.667 3.33301 36.999 10.832 48.999 22.499s18 29.834 18 54.501h-78v143h144v-125c-0.666992 -48 -10.167 -84.667 -28.5 -110s-48.166 -38.333 -89.499 -39z" />
    <glyph glyph-name="Lcaron" unicode="&#x13d;" horiz-adv-x="433" 
d="M61 810h164v-698h191v-112h-355v810zM305 577c46 12.667 69 41.666 69 86.999h-80v146h145v-129c0 -93.333 -40.667 -144.666 -122 -153.999z" />
    <glyph glyph-name="lcaron" unicode="&#x13e;" horiz-adv-x="387" 
d="M59 810h150v-810h-150v810zM270 577c46 12.667 69 41.666 69 86.999h-80v146h145v-129c0 -93.333 -40.667 -144.666 -122 -153.999z" />
    <glyph glyph-name="Ldot" unicode="&#x13f;" horiz-adv-x="433" 
d="M61 810h164v-698h191v-112h-355v810zM308 522h104v-143h-104v143z" />
    <glyph glyph-name="ldot" unicode="&#x140;" horiz-adv-x="346" 
d="M59 810h150v-810h-150v810zM256 512h104v-143h-104v143z" />
    <glyph glyph-name="Lslash" unicode="&#x141;" horiz-adv-x="439" 
d="M67 362l-62 -30v95l62 31v352h165v-273l100 49v-95l-100 -49v-330h190v-112h-355v362z" />
    <glyph glyph-name="lslash" unicode="&#x142;" horiz-adv-x="319" 
d="M86 414l-67 -30v90l67 30v306h151v-241l73 32v-90l-73 -31v-480h-151v414z" />
    <glyph glyph-name="Nacute" unicode="&#x143;" horiz-adv-x="554" 
d="M61 810h115l180 -421v421h137v-810h-111l-180 448v-448h-141v810zM290 1071h154l-123 -201h-92z" />
    <glyph glyph-name="nacute" unicode="&#x144;" horiz-adv-x="493" 
d="M52 578l149.999 0.000976562v-58c46.667 45.333 93.334 68 140.001 68c33.333 0 58.833 -12.333 76.5 -37s26.5 -56.334 26.5 -95.001v-456h-151v432c0 16 -2.66699 27.833 -8 35.5s-14.333 11.5 -27 11.5c-15.333 0 -34.333 -8 -57 -24v-455h-150v578zM259.999 839.001
h154l-123 -201h-92z" />
    <glyph glyph-name="Ncommaaccent" unicode="&#x145;" horiz-adv-x="554" 
d="M61 810h115l180 -421v421h137v-810h-111l-180 448v-448h-141v810zM216 -287c20.667 3.33301 36.999 10.832 48.999 22.499s18 29.834 18 54.501h-78v143h144v-125c-0.666992 -48 -10.167 -84.667 -28.5 -110s-48.166 -38.333 -89.499 -39z" />
    <glyph glyph-name="ncommaaccent" unicode="&#x146;" horiz-adv-x="493" 
d="M52 578l149.999 0.000976562v-58c46.667 45.333 93.334 68 140.001 68c33.333 0 58.833 -12.333 76.5 -37s26.5 -56.334 26.5 -95.001v-456h-151v432c0 16 -2.66699 27.833 -8 35.5s-14.333 11.5 -27 11.5c-15.333 0 -34.333 -8 -57 -24v-455h-150v578zM185.999 -286.999
c20.667 3.33301 36.999 10.832 48.999 22.499s18 29.834 18 54.501h-78v143h144v-125c-0.666992 -48 -10.167 -84.667 -28.5 -110s-48.166 -38.333 -89.499 -39z" />
    <glyph glyph-name="Ncaron" unicode="&#x147;" horiz-adv-x="554" 
d="M61 810h115l180 -421v421h137v-810h-111l-180 448v-448h-141v810zM116 1054h108l53 -111l53 111h108l-88 -183h-147z" />
    <glyph glyph-name="ncaron" unicode="&#x148;" horiz-adv-x="493" 
d="M52 578l149.999 0.000976562v-58c46.667 45.333 93.334 68 140.001 68c33.333 0 58.833 -12.333 76.5 -37s26.5 -56.334 26.5 -95.001v-456h-151v432c0 16 -2.66699 27.833 -8 35.5s-14.333 11.5 -27 11.5c-15.333 0 -34.333 -8 -57 -24v-455h-150v578zM85.999 822.001
h108l53 -111l53 111h108l-88 -183h-147z" />
    <glyph glyph-name="napostrophe" unicode="&#x149;" horiz-adv-x="567" 
d="M39 673c45.333 12.667 68 41.667 68 87h-79v146h145v-129c-1.33301 -93.333 -42 -145 -122 -155zM139 578l149.999 0.000976562v-58c46.667 45.333 93.334 68 140.001 68c33.333 0 58.833 -12.333 76.5 -37s26.5 -56.334 26.5 -95.001v-456h-151v432
c0 16 -2.66699 27.833 -8 35.5s-14.333 11.5 -27 11.5c-15.333 0 -34.333 -8 -57 -24v-455h-150v578z" />
    <glyph glyph-name="Eng" unicode="&#x14a;" horiz-adv-x="560" 
d="M250 -103c31.333 0 55.332 2.83301 71.999 8.5s28.334 15.167 35.001 28.5s10 32 10 56v79l-165 379v-448h-139v810h116l182 -421v421h135v-810c0 -47.333 -5.16699 -85.5 -15.5 -114.5s-28.5 -51 -54.5 -66s-62.667 -22.5 -110 -22.5h-66v100z" />
    <glyph glyph-name="eng" unicode="&#x14b;" horiz-adv-x="458" 
d="M173 -94c31.333 0 54.833 2.66895 70.5 8.00195s26.5 14.166 32.5 26.499s9 30.5 9 54.5v437c0 16 -2.5 27.833 -7.5 35.5s-14.167 11.5 -27.5 11.5c-17.333 0 -36 -8 -56 -24v-455h-151v578h151v-52c41.333 41.333 88 62 140 62c33.333 0 58.666 -12.333 75.999 -37
s26 -56.334 26 -95.001v-462c0 -66 -16.167 -113.667 -48.5 -143s-86.166 -44 -161.499 -44h-53v99z" />
    <glyph glyph-name="Omacron" unicode="&#x14c;" horiz-adv-x="576" 
d="M104 56.5c-36.667 45 -55 111.167 -55 198.5v302c0 87.333 18.333 153 55 197s98 66 184 66c85.333 0 146.5 -22.167 183.5 -66.5s55.5 -109.833 55.5 -196.5v-303c0 -86.667 -18.5 -152.5 -55.5 -197.5s-98.167 -67.5 -183.5 -67.5c-86 0 -147.333 22.5 -184 67.5z
M344.5 135.5c9.66699 19 14.5 45.167 14.5 78.5v383c0 33.333 -4.83301 59.166 -14.5 77.499s-28.5 27.5 -56.5 27.5s-46.833 -9.16699 -56.5 -27.5s-14.5 -44.166 -14.5 -77.499v-383c0 -34 4.66699 -60.333 14 -79s28.333 -28 57 -28c28 0 46.833 9.5 56.5 28.5zM159 977
h258v-75h-258v75z" />
    <glyph glyph-name="omacron" unicode="&#x14d;" horiz-adv-x="471" 
d="M90.5 40c-33.667 33.333 -50.5 81.666 -50.5 144.999v208c0 63.333 16.833 111.666 50.5 144.999s81.834 50 144.501 50s110.834 -16.667 144.501 -50s50.5 -81.666 50.5 -144.999v-208c0 -63.333 -16.833 -111.666 -50.5 -144.999s-81.834 -50 -144.501 -50
s-110.834 16.667 -144.501 50zM271.5 112.5c6.33301 13.667 9.5 34.167 9.5 61.5v229c0 27.333 -3.16699 48 -9.5 62s-18.166 21 -35.499 21c-18 0 -30.333 -7.16699 -37 -21.5s-10 -34.833 -10 -61.5v-229c0 -26.667 3.33301 -47 10 -61s19 -21 37 -21
c17.333 0 29.166 6.83301 35.499 20.5zM106 745h258v-75h-258v75z" />
    <glyph glyph-name="Obreve" unicode="&#x14e;" horiz-adv-x="576" 
d="M104 56.5c-36.667 45 -55 111.167 -55 198.5v302c0 87.333 18.333 153 55 197s98 66 184 66c85.333 0 146.5 -22.167 183.5 -66.5s55.5 -109.833 55.5 -196.5v-303c0 -86.667 -18.5 -152.5 -55.5 -197.5s-98.167 -67.5 -183.5 -67.5c-86 0 -147.333 22.5 -184 67.5z
M344.5 135.5c9.66699 19 14.5 45.167 14.5 78.5v383c0 33.333 -4.83301 59.166 -14.5 77.499s-28.5 27.5 -56.5 27.5s-46.833 -9.16699 -56.5 -27.5s-14.5 -44.166 -14.5 -77.499v-383c0 -34 4.66699 -60.333 14 -79s28.333 -28 57 -28c28 0 46.833 9.5 56.5 28.5z
M176.5 914c-27 26.667 -40.499 64 -40.499 112h86c0 -25.333 5 -43.833 15 -55.5s27 -17.5 51 -17.5c23.333 0 40.166 6 50.499 18s15.5 30.333 15.5 55h85c0 -48 -13.333 -85.333 -40 -112s-63.667 -40 -111 -40s-84.5 13.333 -111.5 40z" />
    <glyph glyph-name="obreve" unicode="&#x14f;" horiz-adv-x="471" 
d="M90.5 40c-33.667 33.333 -50.5 81.666 -50.5 144.999v208c0 63.333 16.833 111.666 50.5 144.999s81.834 50 144.501 50s110.834 -16.667 144.501 -50s50.5 -81.666 50.5 -144.999v-208c0 -63.333 -16.833 -111.666 -50.5 -144.999s-81.834 -50 -144.501 -50
s-110.834 16.667 -144.501 50zM271.5 112.5c6.33301 13.667 9.5 34.167 9.5 61.5v229c0 27.333 -3.16699 48 -9.5 62s-18.166 21 -35.499 21c-18 0 -30.333 -7.16699 -37 -21.5s-10 -34.833 -10 -61.5v-229c0 -26.667 3.33301 -47 10 -61s19 -21 37 -21
c17.333 0 29.166 6.83301 35.499 20.5zM123.5 682c-27 26.667 -40.499 64 -40.499 112h86c0 -25.333 5 -43.833 15 -55.5s27 -17.5 51 -17.5c23.333 0 40.166 6 50.499 18s15.5 30.333 15.5 55h85c0 -48 -13.333 -85.333 -40 -112s-63.667 -40 -111 -40
s-84.5 13.333 -111.5 40z" />
    <glyph glyph-name="Ohungarumlaut" unicode="&#x150;" horiz-adv-x="576" 
d="M104 56.5c-36.667 45 -55 111.167 -55 198.5v302c0 87.333 18.333 153 55 197s98 66 184 66c85.333 0 146.5 -22.167 183.5 -66.5s55.5 -109.833 55.5 -196.5v-303c0 -86.667 -18.5 -152.5 -55.5 -197.5s-98.167 -67.5 -183.5 -67.5c-86 0 -147.333 22.5 -184 67.5z
M344.5 135.5c9.66699 19 14.5 45.167 14.5 78.5v383c0 33.333 -4.83301 59.166 -14.5 77.499s-28.5 27.5 -56.5 27.5s-46.833 -9.16699 -56.5 -27.5s-14.5 -44.166 -14.5 -77.499v-383c0 -34 4.66699 -60.333 14 -79s28.333 -28 57 -28c28 0 46.833 9.5 56.5 28.5zM218 1073
h123l-101 -206h-77zM392 1073h134l-119 -206h-78z" />
    <glyph glyph-name="ohungarumlaut" unicode="&#x151;" horiz-adv-x="471" 
d="M90.5 40c-33.667 33.333 -50.5 81.666 -50.5 144.999v208c0 63.333 16.833 111.666 50.5 144.999s81.834 50 144.501 50s110.834 -16.667 144.501 -50s50.5 -81.666 50.5 -144.999v-208c0 -63.333 -16.833 -111.666 -50.5 -144.999s-81.834 -50 -144.501 -50
s-110.834 16.667 -144.501 50zM271.5 112.5c6.33301 13.667 9.5 34.167 9.5 61.5v229c0 27.333 -3.16699 48 -9.5 62s-18.166 21 -35.499 21c-18 0 -30.333 -7.16699 -37 -21.5s-10 -34.833 -10 -61.5v-229c0 -26.667 3.33301 -47 10 -61s19 -21 37 -21
c17.333 0 29.166 6.83301 35.499 20.5zM165 841h123l-101 -206h-77zM339 841h134l-119 -206h-78z" />
    <glyph glyph-name="OE" unicode="&#x152;" horiz-adv-x="710" 
d="M105 69c-37.333 46 -56 113.333 -56 202v254c0 89.333 18.667 158.833 56 208.5s99 74.5 185 74.5h393v-114h-174v-218h132v-116h-132v-248h175v-112h-391c-88 0 -150.667 23 -188 69zM345 115v576.001h-52c-24 0 -41.667 -6.33301 -53 -19s-18.5 -28.834 -21.5 -48.501
s-4.5 -45.5 -4.5 -77.5v-299c0 -29.333 1.66699 -53 5 -71s10.833 -32.667 22.5 -44s29.167 -17 52.5 -17h51z" />
    <glyph glyph-name="oe" unicode="&#x153;" horiz-adv-x="701" 
d="M90 37.5c-30.667 33 -46.001 80.498 -46.001 142.498v235c0 60 15.333 105.5 46 136.5s74 46.5 130 46.5c30 0 57.833 -6.33301 83.5 -19s43.167 -30.334 52.5 -53.001c10 22.667 28.167 40.334 54.5 53.001s53.5 19 81.5 19c61.333 0 104.833 -18 130.5 -54
s38.5 -88.333 38.5 -157v-106h-224v-89c0 -33.333 3.16699 -59.166 9.5 -77.499s17.833 -27.5 34.5 -27.5c13.333 0 22.833 5.5 28.5 16.5s8.5 27.5 8.5 49.5v69h143v-68c0 -53.333 -14 -94.333 -42 -123s-68.667 -43 -122 -43c-35.333 0 -65.5 6.33301 -90.5 19
s-42.833 30.334 -53.5 53.001c-25.333 -48 -71.666 -72 -138.999 -72c-52 0 -93.333 16.5 -124 49.5zM270.499 107.998c7 14 10.5 36.668 10.5 68.001v245c0 26.667 -3.33301 46.667 -10 60s-18 20 -34 20s-27.333 -6.5 -34 -19.5s-10 -33.167 -10 -60.5v-244
c0 -28.667 3 -50.834 9 -66.501s17 -23.5 33 -23.5c16.667 0 28.5 7 35.5 21zM518.999 359.999v70c0 21.333 -3.33301 38.5 -10 51.5s-17 19.5 -31 19.5c-13.333 0 -23.5 -6.33301 -30.5 -19s-10.5 -30 -10.5 -52v-70h82z" />
    <glyph glyph-name="Racute" unicode="&#x154;" horiz-adv-x="583" 
d="M61 810h210c87.333 0 153 -16 197 -48s66 -87.333 66 -166c0 -52.667 -7.33301 -95.167 -22 -127.5s-40.667 -56.833 -78 -73.5l112 -395h-169l-92 367h-60v-367h-164v810zM274 465c38.667 0 65.833 9.5 81.5 28.5s23.5 48.833 23.5 89.5c0 40 -7 69.333 -21 88
s-39.333 28 -76 28h-57v-234h49zM304.999 1071h154l-123 -201h-92z" />
    <glyph glyph-name="racute" unicode="&#x155;" horiz-adv-x="370" 
d="M54 578h151v-93c20 34.667 39.5 60 58.5 76s41.167 24 66.5 24c6 0 13.667 -0.666992 23 -2v-154c-17.333 8 -35.333 12 -54 12c-36.667 0 -68 -18.667 -94 -56v-385h-151v578zM208 839h154l-123 -201h-92z" />
    <glyph glyph-name="Rcommaaccent" unicode="&#x156;" horiz-adv-x="583" 
d="M61 810h210c87.333 0 153 -16 197 -48s66 -87.333 66 -166c0 -52.667 -7.33301 -95.167 -22 -127.5s-40.667 -56.833 -78 -73.5l112 -395h-169l-92 367h-60v-367h-164v810zM274 465c38.667 0 65.833 9.5 81.5 28.5s23.5 48.833 23.5 89.5c0 40 -7 69.333 -21 88
s-39.333 28 -76 28h-57v-234h49zM230.999 -287c20.667 3.33301 36.999 10.832 48.999 22.499s18 29.834 18 54.501h-78v143h144v-125c-0.666992 -48 -10.167 -84.667 -28.5 -110s-48.166 -38.333 -89.499 -39z" />
    <glyph glyph-name="rcommaaccent" unicode="&#x157;" horiz-adv-x="370" 
d="M54 578h151v-93c20 34.667 39.5 60 58.5 76s41.167 24 66.5 24c6 0 13.667 -0.666992 23 -2v-154c-17.333 8 -35.333 12 -54 12c-36.667 0 -68 -18.667 -94 -56v-385h-151v578zM69 -287c20.667 3.33301 36.999 10.832 48.999 22.499s18 29.834 18 54.501h-78v143h144
v-125c-0.666992 -48 -10.167 -84.667 -28.5 -110s-48.166 -38.333 -89.499 -39z" />
    <glyph glyph-name="Rcaron" unicode="&#x158;" horiz-adv-x="583" 
d="M61 810h210c87.333 0 153 -16 197 -48s66 -87.333 66 -166c0 -52.667 -7.33301 -95.167 -22 -127.5s-40.667 -56.833 -78 -73.5l112 -395h-169l-92 367h-60v-367h-164v810zM274 465c38.667 0 65.833 9.5 81.5 28.5s23.5 48.833 23.5 89.5c0 40 -7 69.333 -21 88
s-39.333 28 -76 28h-57v-234h49zM130.999 1054h108l53 -111l53 111h108l-88 -183h-147z" />
    <glyph glyph-name="rcaron" unicode="&#x159;" horiz-adv-x="370" 
d="M54 578h151v-93c20 34.667 39.5 60 58.5 76s41.167 24 66.5 24c6 0 13.667 -0.666992 23 -2v-154c-17.333 8 -35.333 12 -54 12c-36.667 0 -68 -18.667 -94 -56v-385h-151v578zM34 822h108l53 -111l53 111h108l-88 -183h-147z" />
    <glyph glyph-name="Sacute" unicode="&#x15a;" horiz-adv-x="505" 
d="M102 50.5c-37.333 41 -57.668 104.5 -61.001 190.5l142 24c1.33301 -51.333 8.5 -89.166 21.5 -113.499s32.5 -36.5 58.5 -36.5c19.333 0 33.333 6.16699 42 18.5s13 28.166 13 47.499c0 32 -7.16699 59.167 -21.5 81.5s-36.833 46.833 -67.5 73.5l-84 73
c-33.333 28 -58.833 58 -76.5 90s-26.5 70.333 -26.5 115c0 66 19.5 116.833 58.5 152.5s92.833 53.5 161.5 53.5c73.333 0 124.333 -21.167 153 -63.5s45 -96.166 49 -161.499l-143 -21c-1.33301 42.667 -6.16602 74.167 -14.499 94.5s-24.833 30.5 -49.5 30.5
c-18 0 -32 -6.83301 -42 -20.5s-15 -29.834 -15 -48.501c0 -26.667 5.83301 -49.167 17.5 -67.5s30.167 -38.5 55.5 -60.5l82 -72c38.667 -34 69 -69.833 91 -107.5s33 -81.834 33 -132.501c0 -38.667 -8.66699 -73.167 -26 -103.5s-41.833 -54.166 -73.5 -71.499
s-68.167 -26 -109.5 -26c-74.667 0 -130.667 20.5 -168 61.5zM265.998 1071h154l-123 -201h-92z" />
    <glyph glyph-name="sacute" unicode="&#x15b;" horiz-adv-x="413" 
d="M96 26.5c-32.667 24.333 -57.6621 61.834 -74.9951 112.501l106 44c20 -59.333 48.333 -89 85 -89c14 0 24.5 3.16699 31.5 9.5s10.5 15.166 10.5 26.499c0 15.333 -4.83301 29 -14.5 41s-28.834 30.333 -57.501 55l-54 46c-32 27.333 -55.667 52.666 -71 75.999
s-23 51.333 -23 84c0 30.667 7.66699 57.834 23 81.501s36.166 42 62.499 55s55.166 19.5 86.499 19.5c46.667 0 85.167 -13.167 115.5 -39.5s51.166 -63.166 62.499 -110.499l-98 -44c-6 24 -15.667 44.5 -29 61.5s-29 25.5 -47 25.5c-12 0 -21.667 -3.5 -29 -10.5
s-11 -16.167 -11 -27.5s5.66699 -23.5 17 -36.5s29 -29.833 53 -50.5l54 -48c31.333 -26.667 55.833 -52.334 73.5 -77.001s26.5 -53.334 26.5 -86.001c0 -32 -7.83301 -59.667 -23.5 -83s-36.834 -41.166 -63.501 -53.499s-55.667 -18.5 -87 -18.5
c-50 0 -91.333 12.167 -124 36.5zM220.005 839.001h154l-123 -201h-92z" />
    <glyph glyph-name="Scircumflex" unicode="&#x15c;" horiz-adv-x="505" 
d="M102 50.5c-37.333 41 -57.668 104.5 -61.001 190.5l142 24c1.33301 -51.333 8.5 -89.166 21.5 -113.499s32.5 -36.5 58.5 -36.5c19.333 0 33.333 6.16699 42 18.5s13 28.166 13 47.499c0 32 -7.16699 59.167 -21.5 81.5s-36.833 46.833 -67.5 73.5l-84 73
c-33.333 28 -58.833 58 -76.5 90s-26.5 70.333 -26.5 115c0 66 19.5 116.833 58.5 152.5s92.833 53.5 161.5 53.5c73.333 0 124.333 -21.167 153 -63.5s45 -96.166 49 -161.499l-143 -21c-1.33301 42.667 -6.16602 74.167 -14.499 94.5s-24.833 30.5 -49.5 30.5
c-18 0 -32 -6.83301 -42 -20.5s-15 -29.834 -15 -48.501c0 -26.667 5.83301 -49.167 17.5 -67.5s30.167 -38.5 55.5 -60.5l82 -72c38.667 -34 69 -69.833 91 -107.5s33 -81.834 33 -132.501c0 -38.667 -8.66699 -73.167 -26 -103.5s-41.833 -54.166 -73.5 -71.499
s-68.167 -26 -109.5 -26c-74.667 0 -130.667 20.5 -168 61.5zM187.998 1066h128l95 -188h-111l-48 120l-47 -120h-110z" />
    <glyph glyph-name="scircumflex" unicode="&#x15d;" horiz-adv-x="413" 
d="M96 26.5c-32.667 24.333 -57.6621 61.834 -74.9951 112.501l106 44c20 -59.333 48.333 -89 85 -89c14 0 24.5 3.16699 31.5 9.5s10.5 15.166 10.5 26.499c0 15.333 -4.83301 29 -14.5 41s-28.834 30.333 -57.501 55l-54 46c-32 27.333 -55.667 52.666 -71 75.999
s-23 51.333 -23 84c0 30.667 7.66699 57.834 23 81.501s36.166 42 62.499 55s55.166 19.5 86.499 19.5c46.667 0 85.167 -13.167 115.5 -39.5s51.166 -63.166 62.499 -110.499l-98 -44c-6 24 -15.667 44.5 -29 61.5s-29 25.5 -47 25.5c-12 0 -21.667 -3.5 -29 -10.5
s-11 -16.167 -11 -27.5s5.66699 -23.5 17 -36.5s29 -29.833 53 -50.5l54 -48c31.333 -26.667 55.833 -52.334 73.5 -77.001s26.5 -53.334 26.5 -86.001c0 -32 -7.83301 -59.667 -23.5 -83s-36.834 -41.166 -63.501 -53.499s-55.667 -18.5 -87 -18.5
c-50 0 -91.333 12.167 -124 36.5zM142.005 834.001h128l95 -188h-111l-48 120l-47 -120h-110z" />
    <glyph glyph-name="Scedilla" unicode="&#x15e;" horiz-adv-x="505" 
d="M102 50.5c-37.333 41 -57.668 104.5 -61.001 190.5l142 24c1.33301 -51.333 8.5 -89.166 21.5 -113.499s32.5 -36.5 58.5 -36.5c19.333 0 33.333 6.16699 42 18.5s13 28.166 13 47.499c0 32 -7.16699 59.167 -21.5 81.5s-36.833 46.833 -67.5 73.5l-84 73
c-33.333 28 -58.833 58 -76.5 90s-26.5 70.333 -26.5 115c0 66 19.5 116.833 58.5 152.5s92.833 53.5 161.5 53.5c73.333 0 124.333 -21.167 153 -63.5s45 -96.166 49 -161.499l-143 -21c-1.33301 42.667 -6.16602 74.167 -14.499 94.5s-24.833 30.5 -49.5 30.5
c-18 0 -32 -6.83301 -42 -20.5s-15 -29.834 -15 -48.501c0 -26.667 5.83301 -49.167 17.5 -67.5s30.167 -38.5 55.5 -60.5l82 -72c38.667 -34 69 -69.833 91 -107.5s33 -81.834 33 -132.501c0 -38.667 -8.66699 -73.167 -26 -103.5s-41.833 -54.166 -73.5 -71.499
s-68.167 -26 -109.5 -26c-74.667 0 -130.667 20.5 -168 61.5zM196.998 -257l0.000976562 66.999c20 -5.33301 38.667 -8 56 -8c18.667 0 33.667 2.83301 45 8.5s17 14.834 17 27.501c0 16.667 -8.66699 29.167 -26 37.5s-39 13.5 -65 15.5v109h58v-64
c41.333 0 73.666 -8.5 96.999 -25.5s35 -41.833 35 -74.5c0 -34.667 -13.5 -60.667 -40.5 -78s-61.167 -26 -102.5 -26c-24 0 -48.667 3.66699 -74 11z" />
    <glyph glyph-name="scedilla" unicode="&#x15f;" horiz-adv-x="413" 
d="M96 26.5c-32.667 24.333 -57.6621 61.834 -74.9951 112.501l106 44c20 -59.333 48.333 -89 85 -89c14 0 24.5 3.16699 31.5 9.5s10.5 15.166 10.5 26.499c0 15.333 -4.83301 29 -14.5 41s-28.834 30.333 -57.501 55l-54 46c-32 27.333 -55.667 52.666 -71 75.999
s-23 51.333 -23 84c0 30.667 7.66699 57.834 23 81.501s36.166 42 62.499 55s55.166 19.5 86.499 19.5c46.667 0 85.167 -13.167 115.5 -39.5s51.166 -63.166 62.499 -110.499l-98 -44c-6 24 -15.667 44.5 -29 61.5s-29 25.5 -47 25.5c-12 0 -21.667 -3.5 -29 -10.5
s-11 -16.167 -11 -27.5s5.66699 -23.5 17 -36.5s29 -29.833 53 -50.5l54 -48c31.333 -26.667 55.833 -52.334 73.5 -77.001s26.5 -53.334 26.5 -86.001c0 -32 -7.83301 -59.667 -23.5 -83s-36.834 -41.166 -63.501 -53.499s-55.667 -18.5 -87 -18.5
c-50 0 -91.333 12.167 -124 36.5zM151.005 -256.999l0.000976562 66.999c20 -5.33301 38.667 -8 56 -8c18.667 0 33.667 2.83301 45 8.5s17 14.834 17 27.501c0 16.667 -8.66699 29.167 -26 37.5s-39 13.5 -65 15.5v109h58v-64c41.333 0 73.666 -8.5 96.999 -25.5
s35 -41.833 35 -74.5c0 -34.667 -13.5 -60.667 -40.5 -78s-61.167 -26 -102.5 -26c-24 0 -48.667 3.66699 -74 11z" />
    <glyph glyph-name="Scaron" unicode="&#x160;" horiz-adv-x="505" 
d="M102 50.5c-37.333 41 -57.668 104.5 -61.001 190.5l142 24c1.33301 -51.333 8.5 -89.166 21.5 -113.499s32.5 -36.5 58.5 -36.5c19.333 0 33.333 6.16699 42 18.5s13 28.166 13 47.499c0 32 -7.16699 59.167 -21.5 81.5s-36.833 46.833 -67.5 73.5l-84 73
c-33.333 28 -58.833 58 -76.5 90s-26.5 70.333 -26.5 115c0 66 19.5 116.833 58.5 152.5s92.833 53.5 161.5 53.5c73.333 0 124.333 -21.167 153 -63.5s45 -96.166 49 -161.499l-143 -21c-1.33301 42.667 -6.16602 74.167 -14.499 94.5s-24.833 30.5 -49.5 30.5
c-18 0 -32 -6.83301 -42 -20.5s-15 -29.834 -15 -48.501c0 -26.667 5.83301 -49.167 17.5 -67.5s30.167 -38.5 55.5 -60.5l82 -72c38.667 -34 69 -69.833 91 -107.5s33 -81.834 33 -132.501c0 -38.667 -8.66699 -73.167 -26 -103.5s-41.833 -54.166 -73.5 -71.499
s-68.167 -26 -109.5 -26c-74.667 0 -130.667 20.5 -168 61.5zM91.998 1054h108l53 -111l53 111h108l-88 -183h-147z" />
    <glyph glyph-name="scaron" unicode="&#x161;" horiz-adv-x="413" 
d="M96 26.5c-32.667 24.333 -57.6621 61.834 -74.9951 112.501l106 44c20 -59.333 48.333 -89 85 -89c14 0 24.5 3.16699 31.5 9.5s10.5 15.166 10.5 26.499c0 15.333 -4.83301 29 -14.5 41s-28.834 30.333 -57.501 55l-54 46c-32 27.333 -55.667 52.666 -71 75.999
s-23 51.333 -23 84c0 30.667 7.66699 57.834 23 81.501s36.166 42 62.499 55s55.166 19.5 86.499 19.5c46.667 0 85.167 -13.167 115.5 -39.5s51.166 -63.166 62.499 -110.499l-98 -44c-6 24 -15.667 44.5 -29 61.5s-29 25.5 -47 25.5c-12 0 -21.667 -3.5 -29 -10.5
s-11 -16.167 -11 -27.5s5.66699 -23.5 17 -36.5s29 -29.833 53 -50.5l54 -48c31.333 -26.667 55.833 -52.334 73.5 -77.001s26.5 -53.334 26.5 -86.001c0 -32 -7.83301 -59.667 -23.5 -83s-36.834 -41.166 -63.501 -53.499s-55.667 -18.5 -87 -18.5
c-50 0 -91.333 12.167 -124 36.5zM46.0049 822.001h108l53 -111l53 111h108l-88 -183h-147z" />
    <glyph glyph-name="uni0162" unicode="&#x162;" horiz-adv-x="438" 
d="M137 688h-125v122h414v-122h-123v-688h-166v688zM163 -257l0.000976562 66.999c20 -5.33301 38.667 -8 56 -8c18.667 0 33.667 2.83301 45 8.5s17 14.834 17 27.501c0 16.667 -8.66699 29.167 -26 37.5s-39 13.5 -65 15.5v109h58v-64c41.333 0 73.666 -8.5 96.999 -25.5
s35 -41.833 35 -74.5c0 -34.667 -13.5 -60.667 -40.5 -78s-61.167 -26 -102.5 -26c-24 0 -48.667 3.66699 -74 11z" />
    <glyph glyph-name="uni0163" unicode="&#x163;" horiz-adv-x="344" 
d="M104.5 32c-22.333 26 -33.5 65.667 -33.5 119v328h-57v99h57v174h153v-174h84v-99h-84v-313c0 -34 17 -51 51 -51c18 0 32.333 1.33301 43 4v-118c-35.333 -5.33301 -66.333 -8 -93 -8c-58 0 -98.167 13 -120.5 39zM160 -257l0.000976562 66.999
c20 -5.33301 38.667 -8 56 -8c18.667 0 33.667 2.83301 45 8.5s17 14.834 17 27.501c0 16.667 -8.66699 29.167 -26 37.5s-39 13.5 -65 15.5v109h58v-64c41.333 0 73.666 -8.5 96.999 -25.5s35 -41.833 35 -74.5c0 -34.667 -13.5 -60.667 -40.5 -78s-61.167 -26 -102.5 -26
c-24 0 -48.667 3.66699 -74 11z" />
    <glyph glyph-name="Tcaron" unicode="&#x164;" horiz-adv-x="438" 
d="M137 688h-125v122h414v-122h-123v-688h-166v688zM58 1054h108l53 -111l53 111h108l-88 -183h-147z" />
    <glyph glyph-name="tcaron" unicode="&#x165;" horiz-adv-x="414" 
d="M104.5 32c-22.333 26 -33.5 65.667 -33.5 119v328h-57v99h57v174h153v-174h84v-99h-84v-313c0 -34 17 -51 51 -51c18 0 32.333 1.33301 43 4v-118c-35.333 -5.33301 -66.333 -8 -93 -8c-58 0 -98.167 13 -120.5 39zM279 674c46 12.667 69 41.666 69 86.999h-80v146h145
v-129c0 -93.333 -40.667 -144.666 -122 -153.999z" />
    <glyph glyph-name="Tbar" unicode="&#x166;" horiz-adv-x="437" 
d="M303 688v-232h93v-82h-93v-374h-166v374h-92v82h92v232h-125v122h414v-122h-123z" />
    <glyph glyph-name="tbar" unicode="&#x167;" horiz-adv-x="317" 
d="M318 119v-118c-35.333 -5.33301 -66.333 -8 -93 -8c-58 0 -98.167 13 -120.5 39s-33.5 65.667 -33.5 119v160h-55v67h55v101h-57v99h57v174h153v-174h84v-99h-84v-101h86v-67h-86v-145c0 -34 17 -51 51 -51c18 0 32.333 1.33301 43 4z" />
    <glyph glyph-name="Utilde" unicode="&#x168;" horiz-adv-x="578" 
d="M148 19.5c-34 20.333 -57.998 49.833 -71.998 88.5s-21 88 -21 148v554h162v-577c0 -38.667 4.66699 -69 14 -91s28.666 -33 57.999 -33s48.666 11 57.999 33s14 52.333 14 91v577h163v-554c0 -60 -7 -109.333 -21 -148s-38.167 -68.167 -72.5 -88.5
s-81.5 -30.5 -141.5 -30.5s-107 10.167 -141 30.5zM335.502 913.5c-11 4.33301 -23.499 10.834 -37.499 19.501c-22.667 14 -40.667 21 -54 21c-24 0 -36 -13.667 -36 -41h-74c-1.33301 90 27.667 135 87 135c11.333 0 22.166 -2 32.499 -6s21.833 -10 34.5 -18
c12 -6.66699 22.333 -11.834 31 -15.501s17.667 -5.5 27 -5.5c20.667 0 31 13 31 39h69c0 -40 -5.16699 -72.5 -15.5 -97.5s-30.5 -37.5 -60.5 -37.5c-12 0 -23.5 2.16699 -34.5 6.5z" />
    <glyph glyph-name="utilde" unicode="&#x169;" horiz-adv-x="490" 
d="M72.5 27c-17.667 24.667 -26.5 56.333 -26.5 95v456h151v-435c0 -16 2.83301 -28 8.5 -36s15.167 -12 28.5 -12c14 0 31.667 7.33301 53 22v461h151v-578h-151v54c-46 -42.667 -92 -64 -138 -64c-33.333 0 -58.833 12.333 -76.5 37zM290.5 681.499
c-11 4.33301 -23.499 10.834 -37.499 19.501c-22.667 14 -40.667 21 -54 21c-24 0 -36 -13.667 -36 -41h-74c-1.33301 90 27.667 135 87 135c11.333 0 22.166 -2 32.499 -6s21.833 -10 34.5 -18c12 -6.66699 22.333 -11.834 31 -15.501s17.667 -5.5 27 -5.5
c20.667 0 31 13 31 39h69c0 -40 -5.16699 -72.5 -15.5 -97.5s-30.5 -37.5 -60.5 -37.5c-12 0 -23.5 2.16699 -34.5 6.5z" />
    <glyph glyph-name="Umacron" unicode="&#x16a;" horiz-adv-x="578" 
d="M148 19.5c-34 20.333 -57.998 49.833 -71.998 88.5s-21 88 -21 148v554h162v-577c0 -38.667 4.66699 -69 14 -91s28.666 -33 57.999 -33s48.666 11 57.999 33s14 52.333 14 91v577h163v-554c0 -60 -7 -109.333 -21 -148s-38.167 -68.167 -72.5 -88.5
s-81.5 -30.5 -141.5 -30.5s-107 10.167 -141 30.5zM161.002 977h258v-75h-258v75z" />
    <glyph glyph-name="umacron" unicode="&#x16b;" horiz-adv-x="490" 
d="M72.5 27c-17.667 24.667 -26.5 56.333 -26.5 95v456h151v-435c0 -16 2.83301 -28 8.5 -36s15.167 -12 28.5 -12c14 0 31.667 7.33301 53 22v461h151v-578h-151v54c-46 -42.667 -92 -64 -138 -64c-33.333 0 -58.833 12.333 -76.5 37zM116 744.999h258v-75h-258v75z" />
    <glyph glyph-name="Ubreve" unicode="&#x16c;" horiz-adv-x="578" 
d="M148 19.5c-34 20.333 -57.998 49.833 -71.998 88.5s-21 88 -21 148v554h162v-577c0 -38.667 4.66699 -69 14 -91s28.666 -33 57.999 -33s48.666 11 57.999 33s14 52.333 14 91v577h163v-554c0 -60 -7 -109.333 -21 -148s-38.167 -68.167 -72.5 -88.5
s-81.5 -30.5 -141.5 -30.5s-107 10.167 -141 30.5zM178.502 914c-27 26.667 -40.499 64 -40.499 112h86c0 -25.333 5 -43.833 15 -55.5s27 -17.5 51 -17.5c23.333 0 40.166 6 50.499 18s15.5 30.333 15.5 55h85c0 -48 -13.333 -85.333 -40 -112s-63.667 -40 -111 -40
s-84.5 13.333 -111.5 40z" />
    <glyph glyph-name="ubreve" unicode="&#x16d;" horiz-adv-x="490" 
d="M72.5 27c-17.667 24.667 -26.5 56.333 -26.5 95v456h151v-435c0 -16 2.83301 -28 8.5 -36s15.167 -12 28.5 -12c14 0 31.667 7.33301 53 22v461h151v-578h-151v54c-46 -42.667 -92 -64 -138 -64c-33.333 0 -58.833 12.333 -76.5 37zM133.5 681.999
c-27 26.667 -40.499 64 -40.499 112h86c0 -25.333 5 -43.833 15 -55.5s27 -17.5 51 -17.5c23.333 0 40.166 6 50.499 18s15.5 30.333 15.5 55h85c0 -48 -13.333 -85.333 -40 -112s-63.667 -40 -111 -40s-84.5 13.333 -111.5 40z" />
    <glyph glyph-name="Uring" unicode="&#x16e;" horiz-adv-x="578" 
d="M148 19.5c-34 20.333 -57.998 49.833 -71.998 88.5s-21 88 -21 148v554h162v-577c0 -38.667 4.66699 -69 14 -91s28.666 -33 57.999 -33s48.666 11 57.999 33s14 52.333 14 91v577h163v-554c0 -60 -7 -109.333 -21 -148s-38.167 -68.167 -72.5 -88.5
s-81.5 -30.5 -141.5 -30.5s-107 10.167 -141 30.5zM206.502 877c-21.667 19.333 -32.499 46.333 -32.499 81s10.833 61.667 32.5 81s49.167 29 82.5 29s61.166 -9.83301 83.499 -29.5s33.5 -46.5 33.5 -80.5c0 -34.667 -11 -61.667 -33 -81s-50 -29 -84 -29
c-33.333 0 -60.833 9.66699 -82.5 29zM327.503 920c9 10 13.5 22.667 13.5 38c0 16 -4.5 29 -13.5 39s-21.833 15 -38.5 15c-16 0 -28.5 -5 -37.5 -15s-13.5 -23 -13.5 -39c0 -15.333 4.5 -28 13.5 -38s21.5 -15 37.5 -15c16.667 0 29.5 5 38.5 15z" />
    <glyph glyph-name="uring" unicode="&#x16f;" horiz-adv-x="490" 
d="M72.5 27c-17.667 24.667 -26.5 56.333 -26.5 95v456h151v-435c0 -16 2.83301 -28 8.5 -36s15.167 -12 28.5 -12c14 0 31.667 7.33301 53 22v461h151v-578h-151v54c-46 -42.667 -92 -64 -138 -64c-33.333 0 -58.833 12.333 -76.5 37zM161.5 644.999
c-21.667 19.333 -32.499 46.333 -32.499 81s10.833 61.667 32.5 81s49.167 29 82.5 29s61.166 -9.83301 83.499 -29.5s33.5 -46.5 33.5 -80.5c0 -34.667 -11 -61.667 -33 -81s-50 -29 -84 -29c-33.333 0 -60.833 9.66699 -82.5 29zM282.501 687.999
c9 10 13.5 22.667 13.5 38c0 16 -4.5 29 -13.5 39s-21.833 15 -38.5 15c-16 0 -28.5 -5 -37.5 -15s-13.5 -23 -13.5 -39c0 -15.333 4.5 -28 13.5 -38s21.5 -15 37.5 -15c16.667 0 29.5 5 38.5 15z" />
    <glyph glyph-name="Uhungarumlaut" unicode="&#x170;" horiz-adv-x="578" 
d="M148 19.5c-34 20.333 -57.998 49.833 -71.998 88.5s-21 88 -21 148v554h162v-577c0 -38.667 4.66699 -69 14 -91s28.666 -33 57.999 -33s48.666 11 57.999 33s14 52.333 14 91v577h163v-554c0 -60 -7 -109.333 -21 -148s-38.167 -68.167 -72.5 -88.5
s-81.5 -30.5 -141.5 -30.5s-107 10.167 -141 30.5zM220.002 1073h123l-101 -206h-77zM394.002 1073h134l-119 -206h-78z" />
    <glyph glyph-name="uhungarumlaut" unicode="&#x171;" horiz-adv-x="490" 
d="M72.5 27c-17.667 24.667 -26.5 56.333 -26.5 95v456h151v-435c0 -16 2.83301 -28 8.5 -36s15.167 -12 28.5 -12c14 0 31.667 7.33301 53 22v461h151v-578h-151v54c-46 -42.667 -92 -64 -138 -64c-33.333 0 -58.833 12.333 -76.5 37zM175 840.999h123l-101 -206h-77z
M349 840.999h134l-119 -206h-78z" />
    <glyph glyph-name="Uogonek" unicode="&#x172;" horiz-adv-x="578" 
d="M148 19.5c-34 20.333 -57.998 49.833 -71.998 88.5s-21 88 -21 148v554h162v-577c0 -38.667 4.66699 -69 14 -91s28.666 -33 57.999 -33s48.666 11 57.999 33s14 52.333 14 91v577h163v-554c0 -60 -7 -109.333 -21 -148s-38.167 -68.167 -72.5 -88.5
s-81.5 -30.5 -141.5 -30.5s-107 10.167 -141 30.5zM242.002 -232.5c-29.333 14.333 -44.001 41.832 -44.001 82.499c0 26 8.5 53.333 25.5 82s36.833 51.334 59.5 68.001h69c-30.667 -45.333 -46 -86.333 -46 -123c0 -37.333 22.333 -56 67 -56
c9.33301 0 19.333 0.666992 30 2l-16 -74c-9.33301 -2 -20.666 -3 -33.999 -3c-44.667 0 -81.667 7.16699 -111 21.5z" />
    <glyph glyph-name="uogonek" unicode="&#x173;" horiz-adv-x="490" 
d="M72.5 27c-17.667 24.667 -26.5 56.333 -26.5 95v456h151v-435c0 -16 2.83301 -28 8.5 -36s15.167 -12 28.5 -12c14 0 31.667 7.33301 53 22v461h151v-578h-151v54c-46 -42.667 -92 -64 -138 -64c-33.333 0 -58.833 12.333 -76.5 37zM288 -232.501
c-29.333 14.333 -44.001 41.832 -44.001 82.499c0 26 8.5 53.333 25.5 82s36.833 51.334 59.5 68.001h69c-30.667 -45.333 -46 -86.333 -46 -123c0 -37.333 22.333 -56 67 -56c9.33301 0 19.333 0.666992 30 2l-16 -74c-9.33301 -2 -20.666 -3 -33.999 -3
c-44.667 0 -81.667 7.16699 -111 21.5z" />
    <glyph glyph-name="Wcircumflex" unicode="&#x174;" horiz-adv-x="704" 
d="M29 810h139l57 -495l71 494h111l74 -492l57 493h137l-104 -810h-141l-78 513l-75 -513h-143zM287 1066h128l95 -188h-111l-48 120l-47 -120h-110z" />
    <glyph glyph-name="wcircumflex" unicode="&#x175;" horiz-adv-x="595" 
d="M23 578h125l46 -349l52 349h110l47 -354l51 354h119l-89 -578h-129l-56 343l-61 -343h-129zM233 834h128l95 -188h-111l-48 120l-47 -120h-110z" />
    <glyph glyph-name="Ycircumflex" unicode="&#x176;" horiz-adv-x="491" 
d="M167 321l-158 489h155l87 -285l80 285h151l-156 -489v-321h-159v321zM181 1066h128l95 -188h-111l-48 120l-47 -120h-110z" />
    <glyph glyph-name="ycircumflex" unicode="&#x177;" horiz-adv-x="436" 
d="M62 -57c34 0 58.5 3.49902 73.5 10.499s22.5 19.5 22.5 37.5c0 8.66699 -2.16699 22.334 -6.5 41.001s-9.16602 38 -14.499 58l-132 488h144l73 -355l60 355h144l-134 -596c-12 -53.333 -34.333 -90.833 -67 -112.5s-76.334 -32.5 -131.001 -32.5h-32v106zM153 833.999
h128l95 -188h-111l-48 120l-47 -120h-110z" />
    <glyph glyph-name="Ydieresis" unicode="&#x178;" horiz-adv-x="491" 
d="M167 321l-158 489h155l87 -285l80 285h151l-156 -489v-321h-159v321zM79 1042h125v-140h-125v140zM287 1042h126v-140h-126v140z" />
    <glyph glyph-name="Zacute" unicode="&#x179;" horiz-adv-x="429" 
d="M31 102l207 595h-197v113h360v-90l-211 -608h213v-112h-372v102zM228 1071h154l-123 -201h-92z" />
    <glyph glyph-name="zacute" unicode="&#x17a;" horiz-adv-x="382" 
d="M34 98l163 370h-149v110h307v-90l-164 -377h165v-111h-322v98zM205 839h154l-123 -201h-92z" />
    <glyph glyph-name="Zdotaccent" unicode="&#x17b;" horiz-adv-x="429" 
d="M31 102l207 595h-197v113h360v-90l-211 -608h213v-112h-372v102zM143 1034h144v-146h-144v146z" />
    <glyph glyph-name="zdotaccent" unicode="&#x17c;" horiz-adv-x="382" 
d="M34 98l163 370h-149v110h307v-90l-164 -377h165v-111h-322v98zM120 802h144v-146h-144v146z" />
    <glyph glyph-name="Zcaron" unicode="&#x17d;" horiz-adv-x="429" 
d="M31 102l207 595h-197v113h360v-90l-211 -608h213v-112h-372v102zM54 1054h108l53 -111l53 111h108l-88 -183h-147z" />
    <glyph glyph-name="zcaron" unicode="&#x17e;" horiz-adv-x="382" 
d="M34 98l163 370h-149v110h307v-90l-164 -377h165v-111h-322v98zM31 822h108l53 -111l53 111h108l-88 -183h-147z" />
    <glyph glyph-name="longs" unicode="&#x17f;" horiz-adv-x="313" 
d="M75 475h-58.001v103h58v40c0 38.667 3.66699 70 11 94s21.833 42.667 43.5 56s53.834 20 96.501 20c27.333 0 53 -1.66699 77 -5v-112c-16.667 3.33301 -28.667 5 -36 5c-27.333 0 -41 -17 -41 -51v-625h-151v475z" />
    <glyph glyph-name="uni018F" unicode="&#x18f;" horiz-adv-x="572" 
d="M106 53.5c-40.667 43 -61.001 105.168 -61.001 186.501v181h310v181c0 35.333 -5.5 60.833 -16.5 76.5s-29.167 23.5 -54.5 23.5s-43.5 -7.83301 -54.5 -23.5s-16.5 -41.167 -16.5 -76.5v-106h-168v75c0 81.333 20.5 143.166 61.5 185.499s100.833 63.5 179.5 63.5
c76 0 134.5 -22.5 175.5 -67.5s61.5 -108.167 61.5 -189.5v-317c0 -80.667 -20.667 -143.667 -62 -189s-99.666 -68 -174.999 -68c-79.333 0 -139.333 21.5 -180 64.5zM338.499 131.501c11 16.333 16.5 41.833 16.5 76.5v109h-142v-109c0 -34.667 5.5 -60.167 16.5 -76.5
s29.167 -24.5 54.5 -24.5s43.5 8.16699 54.5 24.5z" />
    <glyph glyph-name="florin" unicode="&#x192;" horiz-adv-x="443" 
d="M17 -162l11.002 112.001c13.333 -2.66699 25 -4 35 -4c14.667 0 25.667 4 33 12s12 20.667 14 38l50 476h-59v106h70l5 43c4 38 10.833 68.667 20.5 92s26.167 41.666 49.5 54.999s56.333 20 99 20c26 0 51 -1.66699 75 -5l-12 -112c-16.667 3.33301 -28.334 5 -35.001 5
c-27.333 0 -42.666 -17 -45.999 -51l-5 -47h66v-106h-78l-49 -472c-4 -38 -10.833 -68.833 -20.5 -92.5s-26.334 -42 -50.001 -55s-56.834 -19.5 -99.501 -19.5c-17.333 0 -42 1.66699 -74 5z" />
    <glyph glyph-name="Ohorn" unicode="&#x1a0;" horiz-adv-x="576" 
d="M104 56.5c-36.667 45 -55 111.167 -55 198.5v302c0 87.333 18.333 153 55 197s98 66 184 66c85.333 0 146.5 -22.167 183.5 -66.5s55.5 -109.833 55.5 -196.5v-303c0 -86.667 -18.5 -152.5 -55.5 -197.5s-98.167 -67.5 -183.5 -67.5c-86 0 -147.333 22.5 -184 67.5z
M344.5 135.5c9.66699 19 14.5 45.167 14.5 78.5v383c0 33.333 -4.83301 59.166 -14.5 77.499s-28.5 27.5 -56.5 27.5s-46.833 -9.16699 -56.5 -27.5s-14.5 -44.166 -14.5 -77.499v-383c0 -34 4.66699 -60.333 14 -79s28.333 -28 57 -28c28 0 46.833 9.5 56.5 28.5zM338 810
h20.001c19.333 0 33.166 6.66699 41.499 20s12.5 34.333 12.5 63h107c0 -48 -14.333 -84.333 -43 -109s-67.667 -37 -117 -37h-21v63z" />
    <glyph glyph-name="ohorn" unicode="&#x1a1;" horiz-adv-x="471" 
d="M90.5 40c-33.667 33.333 -50.5 81.666 -50.5 144.999v208c0 63.333 16.833 111.666 50.5 144.999s81.834 50 144.501 50s110.834 -16.667 144.501 -50s50.5 -81.666 50.5 -144.999v-208c0 -63.333 -16.833 -111.666 -50.5 -144.999s-81.834 -50 -144.501 -50
s-110.834 16.667 -144.501 50zM271.5 112.5c6.33301 13.667 9.5 34.167 9.5 61.5v229c0 27.333 -3.16699 48 -9.5 62s-18.166 21 -35.499 21c-18 0 -30.333 -7.16699 -37 -21.5s-10 -34.833 -10 -61.5v-229c0 -26.667 3.33301 -47 10 -61s19 -21 37 -21
c17.333 0 29.166 6.83301 35.499 20.5zM259 578h10.001c19.333 0 33.166 6.66699 41.499 20s12.5 34.333 12.5 63h107c0 -48 -14.333 -84.333 -43 -109s-67.667 -37 -117 -37h-11v63z" />
    <glyph glyph-name="Uhorn" unicode="&#x1af;" horiz-adv-x="578" 
d="M148 19.5c-34 20.333 -57.998 49.833 -71.998 88.5s-21 88 -21 148v554h162v-577c0 -38.667 4.66699 -69 14 -91s28.666 -33 57.999 -33s48.666 11 57.999 33s14 52.333 14 91v577h163v-554c0 -60 -7 -109.333 -21 -148s-38.167 -68.167 -72.5 -88.5
s-81.5 -30.5 -141.5 -30.5s-107 10.167 -141 30.5zM422.002 810h10.001c19.333 0 33.166 6.66699 41.499 20s12.5 34.333 12.5 63h107c0 -48 -14.333 -84.333 -43 -109s-67.667 -37 -117 -37h-11v63z" />
    <glyph glyph-name="uhorn" unicode="&#x1b0;" horiz-adv-x="490" 
d="M72.5 27c-17.667 24.667 -26.5 56.333 -26.5 95v456h151v-435c0 -16 2.83301 -28 8.5 -36s15.167 -12 28.5 -12c14 0 31.667 7.33301 53 22v461h151v-578h-151v54c-46 -42.667 -92 -64 -138 -64c-33.333 0 -58.833 12.333 -76.5 37zM330 577.999h10.001
c19.333 0 33.166 6.66699 41.499 20s12.5 34.333 12.5 63h107c0 -48 -14.333 -84.333 -43 -109s-67.667 -37 -117 -37h-11v63z" />
    <glyph glyph-name="uni01B7" unicode="&#x1b7;" horiz-adv-x="493" 
d="M415.5 427.5c29.667 -44.333 44.499 -108.167 44.499 -191.5c0 -78 -17.333 -139.167 -52 -183.5s-89.667 -66.5 -165 -66.5c-77.333 0 -133 21.333 -167 64s-51 103 -51 181v28h154v-27c0 -45.333 4.66699 -77.833 14 -97.5s26.333 -29.5 51 -29.5s41.334 10 50.001 30
s13 52.667 13 98c0 42.667 -3.33301 76 -10 100s-18.667 41.667 -36 53s-42.333 17 -75 17h-87v84l156 210h-208v113h379v-90l-170 -226h1c76 0 128.833 -22.167 158.5 -66.5z" />
    <glyph glyph-name="uni01C4" unicode="&#x1c4;" horiz-adv-x="996" 
d="M61 810l198.001 0.00195312c68 0 121.167 -8.83301 159.5 -26.5s65.666 -44.834 81.999 -81.501s24.5 -85.334 24.5 -146.001v-295c0 -62 -8 -111.833 -24 -149.5s-43 -65.667 -81 -84s-90.333 -27.5 -157 -27.5h-202v810zM261.001 115.002
c28.667 0 49.8311 4.49805 63.498 13.498s22.334 22.167 26.001 39.5s5.5 42.333 5.5 75v335c0 30.667 -2.16699 53.834 -6.5 69.501s-13.166 27.334 -26.499 35.001s-34.333 11.5 -63 11.5h-35v-579h36zM597.998 102l207 595h-197v113h360v-90l-211 -608h213v-112h-372v102
zM620.998 1054h108l53 -111l53 111h108l-88 -183h-147z" />
    <glyph glyph-name="uni01C5" unicode="&#x1c5;" horiz-adv-x="955" 
d="M61 810l198.001 0.00195312c68 0 121.167 -8.83301 159.5 -26.5s65.666 -44.834 81.999 -81.501s24.5 -85.334 24.5 -146.001v-295c0 -62 -8 -111.833 -24 -149.5s-43 -65.667 -81 -84s-90.333 -27.5 -157 -27.5h-202v810zM261.001 115.002
c28.667 0 49.8311 4.49805 63.498 13.498s22.334 22.167 26.001 39.5s5.5 42.333 5.5 75v335c0 30.667 -2.16699 53.834 -6.5 69.501s-13.166 27.334 -26.499 35.001s-34.333 11.5 -63 11.5h-35v-579h36zM606.998 98l163 370h-149v110h307v-90l-164 -377h165v-111h-322v98z
M603.998 822h108l53 -111l53 111h108l-88 -183h-147z" />
    <glyph glyph-name="uni01C6" unicode="&#x1c6;" horiz-adv-x="872" 
d="M42 181v212.001c0 59.333 11.333 106.666 34 141.999s56.667 53 102 53c38 0 74.667 -15.333 110 -46v268h151v-810h-151v43c-35.333 -35.333 -72 -53 -110 -53c-90.667 0 -136 63.667 -136 191zM288 107.001v368.001c-17.333 10 -33.333 15 -48 15
c-16 0 -27.667 -6.83301 -35 -20.5s-11 -31.834 -11 -54.501v-245c0 -53.333 15.333 -80 46 -80c14.667 0 30.667 5.66699 48 17zM524 98.002l163 370h-149v110h307v-90l-164 -377h165v-111h-322v98zM521 822.002h108l53 -111l53 111h108l-88 -183h-147z" />
    <glyph glyph-name="uni01C7" unicode="&#x1c7;" horiz-adv-x="772" 
d="M61 810h164v-698h191v-112h-355v810zM445 95c27.333 0 47.999 2.33203 61.999 6.99902s24 13.334 30 26.001s9 32 9 58v624h165v-631c0 -46 -5.5 -83.5 -16.5 -112.5s-30.167 -50.667 -57.5 -65s-64.666 -21.5 -111.999 -21.5h-80v115z" />
    <glyph glyph-name="uni01C8" unicode="&#x1c8;" horiz-adv-x="700" 
d="M61 810h164v-698h191v-112h-355v810zM498 786h152v-113h-152v113zM422 -161l-0.000976562 108c18 -2 27.667 -3 29 -3c31.333 0 47 17.667 47 53v581h151v-599c0 -46.667 -12.667 -83.667 -38 -111s-61.666 -41 -108.999 -41c-29.333 0 -56 4 -80 12z" />
    <glyph glyph-name="uni01C9" unicode="&#x1c9;" horiz-adv-x="531" 
d="M59 810h150v-810h-150v810zM329 786h152v-113h-152v113zM253 -161l-0.000976562 108c18 -2 27.667 -3 29 -3c31.333 0 47 17.667 47 53v581h151v-599c0 -46.667 -12.667 -83.667 -38 -111s-61.666 -41 -108.999 -41c-29.333 0 -56 4 -80 12z" />
    <glyph glyph-name="uni01CA" unicode="&#x1ca;" horiz-adv-x="893" 
d="M61 810h115l180 -421v421h137v-810h-111l-180 448v-448h-141v810zM566 95c27.333 0 47.999 2.33203 61.999 6.99902s24 13.334 30 26.001s9 32 9 58v624h165v-631c0 -46 -5.5 -83.5 -16.5 -112.5s-30.167 -50.667 -57.5 -65s-64.666 -21.5 -111.999 -21.5h-80v115z" />
    <glyph glyph-name="uni01CB" unicode="&#x1cb;" horiz-adv-x="821" 
d="M61 810h115l180 -421v421h137v-810h-111l-180 448v-448h-141v810zM619 786h152v-113h-152v113zM543 -161l-0.000976562 108c18 -2 27.667 -3 29 -3c31.333 0 47 17.667 47 53v581h151v-599c0 -46.667 -12.667 -83.667 -38 -111s-61.666 -41 -108.999 -41
c-29.333 0 -56 4 -80 12z" />
    <glyph glyph-name="uni01CC" unicode="&#x1cc;" horiz-adv-x="760" 
d="M52 578l149.999 0.000976562v-58c46.667 45.333 93.334 68 140.001 68c33.333 0 58.833 -12.333 76.5 -37s26.5 -56.334 26.5 -95.001v-456h-151v432c0 16 -2.66699 27.833 -8 35.5s-14.333 11.5 -27 11.5c-15.333 0 -34.333 -8 -57 -24v-455h-150v578zM557.999 786.001
h152v-113h-152v113zM481.999 -160.999l-0.000976562 108c18 -2 27.667 -3 29 -3c31.333 0 47 17.667 47 53v581h151v-599c0 -46.667 -12.667 -83.667 -38 -111s-61.666 -41 -108.999 -41c-29.333 0 -56 4 -80 12z" />
    <glyph glyph-name="uni01CD" unicode="&#x1cd;" horiz-adv-x="538" 
d="M178 810h183l156 -810h-152l-30 178h-128l-31 -178h-155zM319 280l-49 326l-48 -326h97zM109 1054h108l53 -111l53 111h108l-88 -183h-147z" />
    <glyph glyph-name="uni01CE" unicode="&#x1ce;" horiz-adv-x="466" 
d="M98 10c-20 13.333 -35.168 30.8311 -45.501 52.498s-15.5 44.167 -15.5 67.5c0 44.667 11 81.334 33 110.001s48.5 51 79.5 67s72.167 33.333 123.5 52v54c0 20.667 -2.83301 36.334 -8.5 47.001s-15.834 16 -30.501 16s-25 -4.66699 -31 -14
s-9.66699 -22.666 -11 -39.999l-3 -40l-142 6c2.66699 68.667 20.334 119.167 53.001 151.5s81.667 48.5 147 48.5c56.667 0 99.334 -15.667 128.001 -47s43 -74.333 43 -129v-269c0 -45.333 3.33301 -93 10 -143h-135c-2.66699 19.333 -7 47 -13 83
c-8 -26.667 -21.5 -48.834 -40.5 -66.501s-42.833 -26.5 -71.5 -26.5c-26.667 0 -50 6.66699 -70 20zM250.499 106.998c9 6.66699 16.5 14.333 22.5 23v159c-31.333 -18 -55.333 -36.667 -72 -56s-25 -43 -25 -71c0 -20.667 4 -36.667 12 -48s19.333 -17 34 -17
c10 0 19.5 3.33301 28.5 10zM84.999 821.997h108l53 -111l53 111h108l-88 -183h-147z" />
    <glyph glyph-name="uni01D3" unicode="&#x1d3;" horiz-adv-x="578" 
d="M148 19.5c-34 20.333 -57.998 49.833 -71.998 88.5s-21 88 -21 148v554h162v-577c0 -38.667 4.66699 -69 14 -91s28.666 -33 57.999 -33s48.666 11 57.999 33s14 52.333 14 91v577h163v-554c0 -60 -7 -109.333 -21 -148s-38.167 -68.167 -72.5 -88.5
s-81.5 -30.5 -141.5 -30.5s-107 10.167 -141 30.5zM129.002 1054h108l53 -111l53 111h108l-88 -183h-147z" />
    <glyph glyph-name="uni01D4" unicode="&#x1d4;" horiz-adv-x="490" 
d="M72.5 27c-17.667 24.667 -26.5 56.333 -26.5 95v456h151v-435c0 -16 2.83301 -28 8.5 -36s15.167 -12 28.5 -12c14 0 31.667 7.33301 53 22v461h151v-578h-151v54c-46 -42.667 -92 -64 -138 -64c-33.333 0 -58.833 12.333 -76.5 37zM84 821.999h108l53 -111l53 111h108
l-88 -183h-147z" />
    <glyph glyph-name="uni01E4" unicode="&#x1e4;" horiz-adv-x="572" 
d="M575 193l-55 0.000976562v-193h-108l-11 72c-24.667 -56 -69 -84 -133 -84c-78.667 0 -134.834 24.167 -168.501 72.5s-50.5 117.5 -50.5 207.5v271c0 92 17.833 161.833 53.5 209.5s96.834 71.5 183.501 71.5c83.333 0 142.666 -20.333 177.999 -61
s53 -99.334 53 -176.001v-47h-160v57c0 37.333 -4.16699 64.833 -12.5 82.5s-27.166 26.5 -56.499 26.5c-30 0 -49.333 -10 -58 -30s-13 -49 -13 -87v-360c0 -38 5.33301 -67.167 16 -87.5s30.667 -30.5 60 -30.5c24 0 41.833 7.5 53.5 22.5s19.167 36.167 22.5 63.5h-50v84
h52v39h-79v100h228v-139h55v-84z" />
    <glyph glyph-name="uni01E5" unicode="&#x1e5;" horiz-adv-x="487" 
d="M505 -55l-37.001 -0.000976562c-5.33301 -46.667 -26.833 -81.667 -64.5 -105s-95.167 -35 -172.5 -35c-64.667 0 -115.334 10 -152.001 30s-55 51.333 -55 94c0 7.33301 0.333008 12.666 1 15.999h-35v51h56c14.667 20.667 36.334 37.334 65.001 50.001
c-23.333 6.66699 -41.5 16.667 -54.5 30s-19.5 28 -19.5 44c0 21.333 5.16699 40.333 15.5 57s26.5 34.667 48.5 54c-19.333 16.667 -33.833 37.5 -43.5 62.5s-14.5 55.5 -14.5 91.5c0 66 16.833 116.333 50.5 151s82.5 52 146.5 52c59.333 0 103.666 -16.667 132.999 -50
c6.66699 11.333 16.334 22.333 29.001 33s27 19.667 43 27l20 10l36 -76c-10 -3.33301 -25 -9.16602 -45 -17.499s-35.667 -15.833 -47 -22.5c6.66699 -14 11.834 -30.667 15.501 -50s5.5 -38.666 5.5 -57.999c0 -63.333 -15.833 -112.333 -47.5 -147
s-79.167 -52 -142.5 -52c-33.333 0 -63 4.66699 -89 14c-10.667 -10.667 -16 -21.334 -16 -32.001c0 -6.66699 3.83301 -11.5 11.5 -14.5s21.5 -5.5 41.5 -7.5l139 -15c44 -4.66699 77.5 -18 100.5 -40s36.5 -53.333 40.5 -94h37v-51zM199.499 470.999
c-7 -16.667 -10.5 -45.332 -10.5 -85.999c0 -38.667 3.5 -66.334 10.5 -83.001s20.5 -25 40.5 -25s33.333 7.83301 40 23.5s10 43.834 10 84.501c0 41.333 -3.33301 70.166 -10 86.499s-20 24.5 -40 24.5s-33.5 -8.33301 -40.5 -25zM140.999 -3.99902h215.999
c-4.66699 8 -13.167 14 -25.5 18s-30.166 7 -53.499 9l-104 11c-17.333 -16 -28.333 -28.667 -33 -38zM322.998 -81.499c17.333 5.66699 29.001 14.5 35.001 26.5h-219c5.33301 -12 16.833 -20.833 34.5 -26.5s43.167 -8.5 76.5 -8.5c31.333 0 55.666 2.83301 72.999 8.5z
" />
    <glyph glyph-name="Gcaron" unicode="&#x1e6;" horiz-adv-x="572" 
d="M99.5 60.5c-33.667 48.333 -50.501 117.5 -50.501 207.5v271c0 92 17.833 161.833 53.5 209.5s96.834 71.5 183.501 71.5c83.333 0 142.666 -20.333 177.999 -61s53 -99.334 53 -176.001v-47h-160v57c0 37.333 -4.16699 64.833 -12.5 82.5s-27.166 26.5 -56.499 26.5
c-30 0 -49.333 -10 -58 -30s-13 -49 -13 -87v-360c0 -38 5.33301 -67.167 16 -87.5s30.667 -30.5 60 -30.5c28.667 0 48.834 10.833 60.501 32.5s17.5 51.834 17.5 90.501v86h-79v100h228v-416h-108l-11 72c-24.667 -56 -69 -84 -133 -84
c-78.667 0 -134.834 24.167 -168.501 72.5zM124.999 1054h108l53 -111l53 111h108l-88 -183h-147z" />
    <glyph glyph-name="gcaron" unicode="&#x1e7;" horiz-adv-x="487" 
d="M79.5 -166c-37 19.333 -55.501 47.999 -55.501 85.999c0 50.667 29.667 89 89 115c-50.667 13.333 -76 41.666 -76 84.999c0 21.333 5.16699 40.333 15.5 57s26.5 34.667 48.5 54c-19.333 16.667 -33.833 37.5 -43.5 62.5s-14.5 55.5 -14.5 91.5
c0 66 16.833 116.333 50.5 151s82.5 52 146.5 52c59.333 0 103.666 -16.667 132.999 -50c6.66699 11.333 16.334 22.333 29.001 33s27 19.667 43 27l20 10l36 -76c-10 -3.33301 -25 -9.16602 -45 -17.499s-35.667 -15.833 -47 -22.5c6.66699 -14 11.834 -30.667 15.501 -50
s5.5 -38.666 5.5 -57.999c0 -63.333 -15.833 -112.333 -47.5 -147s-79.167 -52 -142.5 -52c-33.333 0 -63 4.66699 -89 14c-10.667 -13.333 -16 -25.666 -16 -36.999c0 -8 4 -14.333 12 -19s21.667 -8 41 -10l139 -15c94.667 -10.667 142 -60.334 142 -149.001
c0 -55.333 -18.833 -96.5 -56.5 -123.5s-98.167 -40.5 -181.5 -40.5c-64 0 -114.5 9.66699 -151.5 29zM279.999 300.499c6.66699 15.667 10 43.8359 10 84.5029c0 41.333 -3.33301 70.166 -10 86.499s-20 24.5 -40 24.5s-33.5 -8.33301 -40.5 -25
s-10.5 -45.334 -10.5 -86.001c0 -38.667 3.5 -66.334 10.5 -83.001s20.5 -25 40.5 -25s33.333 7.83301 40 23.5zM335.499 -74.499c18.333 7 27.499 19.5 27.499 37.5c0 15.333 -6 26.5 -18 33.5s-34.333 11.833 -67 14.5l-104 11c-11.333 -10 -20.166 -19.5 -26.499 -28.5
s-9.5 -18.833 -9.5 -29.5c0 -16.667 8.66699 -29 26 -37s46 -12 86 -12c38.667 0 67.167 3.5 85.5 10.5zM82.998 822.001h108l53 -111l53 111h108l-88 -183h-147z" />
    <glyph glyph-name="uni01E8" unicode="&#x1e8;" horiz-adv-x="552" 
d="M61 810h164v-342l147 342h160l-152 -364l164 -446h-167l-125 362l-27 -44v-318h-164v810zM125 1054h108l53 -111l53 111h108l-88 -183h-147z" />
    <glyph glyph-name="uni01E9" unicode="&#x1e9;" horiz-adv-x="517" 
d="M52 810h150v-456l145 224h168l-150 -235l148 -343h-163l-103 280l-45 -60v-220h-150v810zM175 997h108l53 -111l53 111h108l-88 -183h-147z" />
    <glyph glyph-name="uni01EA" unicode="&#x1ea;" horiz-adv-x="576" 
d="M104 56.5c-36.667 45 -55 111.167 -55 198.5v302c0 87.333 18.333 153 55 197s98 66 184 66c85.333 0 146.5 -22.167 183.5 -66.5s55.5 -109.833 55.5 -196.5v-303c0 -86.667 -18.5 -152.5 -55.5 -197.5s-98.167 -67.5 -183.5 -67.5c-86 0 -147.333 22.5 -184 67.5z
M344.5 135.5c9.66699 19 14.5 45.167 14.5 78.5v383c0 33.333 -4.83301 59.166 -14.5 77.499s-28.5 27.5 -56.5 27.5s-46.833 -9.16699 -56.5 -27.5s-14.5 -44.166 -14.5 -77.499v-383c0 -34 4.66699 -60.333 14 -79s28.333 -28 57 -28c28 0 46.833 9.5 56.5 28.5z
M241 -232.5c-29.333 14.333 -44.001 41.832 -44.001 82.499c0 26 8.5 53.333 25.5 82s36.833 51.334 59.5 68.001h69c-30.667 -45.333 -46 -86.333 -46 -123c0 -37.333 22.333 -56 67 -56c9.33301 0 19.333 0.666992 30 2l-16 -74c-9.33301 -2 -20.666 -3 -33.999 -3
c-44.667 0 -81.667 7.16699 -111 21.5z" />
    <glyph glyph-name="uni01EB" unicode="&#x1eb;" horiz-adv-x="471" 
d="M90.5 40c-33.667 33.333 -50.5 81.666 -50.5 144.999v208c0 63.333 16.833 111.666 50.5 144.999s81.834 50 144.501 50s110.834 -16.667 144.501 -50s50.5 -81.666 50.5 -144.999v-208c0 -63.333 -16.833 -111.666 -50.5 -144.999s-81.834 -50 -144.501 -50
s-110.834 16.667 -144.501 50zM271.5 112.5c6.33301 13.667 9.5 34.167 9.5 61.5v229c0 27.333 -3.16699 48 -9.5 62s-18.166 21 -35.499 21c-18 0 -30.333 -7.16699 -37 -21.5s-10 -34.833 -10 -61.5v-229c0 -26.667 3.33301 -47 10 -61s19 -21 37 -21
c17.333 0 29.166 6.83301 35.499 20.5zM198 -229.5c-29.333 14.333 -44.001 41.832 -44.001 82.499c0 26 8.5 53.333 25.5 82s36.833 51.334 59.5 68.001h69c-30.667 -45.333 -46 -86.333 -46 -123c0 -37.333 22.333 -56 67 -56c9.33301 0 19.333 0.666992 30 2l-16 -74
c-9.33301 -2 -20.666 -3 -33.999 -3c-44.667 0 -81.667 7.16699 -111 21.5z" />
    <glyph glyph-name="uni01EE" unicode="&#x1ee;" horiz-adv-x="493" 
d="M415.5 427.5c29.667 -44.333 44.499 -108.167 44.499 -191.5c0 -78 -17.333 -139.167 -52 -183.5s-89.667 -66.5 -165 -66.5c-77.333 0 -133 21.333 -167 64s-51 103 -51 181v28h154v-27c0 -45.333 4.66699 -77.833 14 -97.5s26.333 -29.5 51 -29.5s41.334 10 50.001 30
s13 52.667 13 98c0 42.667 -3.33301 76 -10 100s-18.667 41.667 -36 53s-42.333 17 -75 17h-87v84l156 210h-208v113h379v-90l-170 -226h1c76 0 128.833 -22.167 158.5 -66.5zM85.999 1054h108l53 -111l53 111h108l-88 -183h-147z" />
    <glyph glyph-name="uni01EF" unicode="&#x1ef;" horiz-adv-x="479" 
d="M408.5 228c29 -41.333 43.5 -101.667 43.5 -181c0 -78 -17.167 -139.167 -51.5 -183.5s-89.166 -66.5 -164.499 -66.5c-141.333 0 -212 81.667 -212 245v28h148v-26c0 -50 4.66699 -85.5 14 -106.5s26.666 -31.5 51.999 -31.5c24.667 0 41.167 10.667 49.5 32
s12.5 56.666 12.5 105.999c0 42.667 -3 75.834 -9 99.501s-17 41.167 -33 52.5s-39.333 17 -70 17h-72v89l130 166h-188v110h349v-90l-151 -192c72.667 -4 123.5 -26.667 152.5 -68zM79 821.999h108l53 -111l53 111h108l-88 -183h-147z" />
    <glyph glyph-name="uni01F1" unicode="&#x1f1;" horiz-adv-x="996" 
d="M61 810l198.001 0.00195312c68 0 121.167 -8.83301 159.5 -26.5s65.666 -44.834 81.999 -81.501s24.5 -85.334 24.5 -146.001v-295c0 -62 -8 -111.833 -24 -149.5s-43 -65.667 -81 -84s-90.333 -27.5 -157 -27.5h-202v810zM261.001 115.002
c28.667 0 49.8311 4.49805 63.498 13.498s22.334 22.167 26.001 39.5s5.5 42.333 5.5 75v335c0 30.667 -2.16699 53.834 -6.5 69.501s-13.166 27.334 -26.499 35.001s-34.333 11.5 -63 11.5h-35v-579h36zM597.998 102l207 595h-197v113h360v-90l-211 -608h213v-112h-372v102
z" />
    <glyph glyph-name="uni01F2" unicode="&#x1f2;" horiz-adv-x="955" 
d="M61 810l198.001 0.00195312c68 0 121.167 -8.83301 159.5 -26.5s65.666 -44.834 81.999 -81.501s24.5 -85.334 24.5 -146.001v-295c0 -62 -8 -111.833 -24 -149.5s-43 -65.667 -81 -84s-90.333 -27.5 -157 -27.5h-202v810zM261.001 115.002
c28.667 0 49.8311 4.49805 63.498 13.498s22.334 22.167 26.001 39.5s5.5 42.333 5.5 75v335c0 30.667 -2.16699 53.834 -6.5 69.501s-13.166 27.334 -26.499 35.001s-34.333 11.5 -63 11.5h-35v-579h36zM606.998 98l163 370h-149v110h307v-90l-164 -377h165v-111h-322v98z
" />
    <glyph glyph-name="uni01F3" unicode="&#x1f3;" horiz-adv-x="872" 
d="M42 181v212.001c0 59.333 11.333 106.666 34 141.999s56.667 53 102 53c38 0 74.667 -15.333 110 -46v268h151v-810h-151v43c-35.333 -35.333 -72 -53 -110 -53c-90.667 0 -136 63.667 -136 191zM288 107.001v368.001c-17.333 10 -33.333 15 -48 15
c-16 0 -27.667 -6.83301 -35 -20.5s-11 -31.834 -11 -54.501v-245c0 -53.333 15.333 -80 46 -80c14.667 0 30.667 5.66699 48 17zM524 98.002l163 370h-149v110h307v-90l-164 -377h165v-111h-322v98z" />
    <glyph glyph-name="uni01F4" unicode="&#x1f4;" horiz-adv-x="572" 
d="M99.5 60.5c-33.667 48.333 -50.501 117.5 -50.501 207.5v271c0 92 17.833 161.833 53.5 209.5s96.834 71.5 183.501 71.5c83.333 0 142.666 -20.333 177.999 -61s53 -99.334 53 -176.001v-47h-160v57c0 37.333 -4.16699 64.833 -12.5 82.5s-27.166 26.5 -56.499 26.5
c-30 0 -49.333 -10 -58 -30s-13 -49 -13 -87v-360c0 -38 5.33301 -67.167 16 -87.5s30.667 -30.5 60 -30.5c28.667 0 48.834 10.833 60.501 32.5s17.5 51.834 17.5 90.501v86h-79v100h228v-416h-108l-11 72c-24.667 -56 -69 -84 -133 -84
c-78.667 0 -134.834 24.167 -168.501 72.5zM298.999 1071h154l-123 -201h-92z" />
    <glyph glyph-name="uni01F5" unicode="&#x1f5;" horiz-adv-x="487" 
d="M79.5 -166c-37 19.333 -55.501 47.999 -55.501 85.999c0 50.667 29.667 89 89 115c-50.667 13.333 -76 41.666 -76 84.999c0 21.333 5.16699 40.333 15.5 57s26.5 34.667 48.5 54c-19.333 16.667 -33.833 37.5 -43.5 62.5s-14.5 55.5 -14.5 91.5
c0 66 16.833 116.333 50.5 151s82.5 52 146.5 52c59.333 0 103.666 -16.667 132.999 -50c6.66699 11.333 16.334 22.333 29.001 33s27 19.667 43 27l20 10l36 -76c-10 -3.33301 -25 -9.16602 -45 -17.499s-35.667 -15.833 -47 -22.5c6.66699 -14 11.834 -30.667 15.501 -50
s5.5 -38.666 5.5 -57.999c0 -63.333 -15.833 -112.333 -47.5 -147s-79.167 -52 -142.5 -52c-33.333 0 -63 4.66699 -89 14c-10.667 -13.333 -16 -25.666 -16 -36.999c0 -8 4 -14.333 12 -19s21.667 -8 41 -10l139 -15c94.667 -10.667 142 -60.334 142 -149.001
c0 -55.333 -18.833 -96.5 -56.5 -123.5s-98.167 -40.5 -181.5 -40.5c-64 0 -114.5 9.66699 -151.5 29zM279.999 300.499c6.66699 15.667 10 43.8359 10 84.5029c0 41.333 -3.33301 70.166 -10 86.499s-20 24.5 -40 24.5s-33.5 -8.33301 -40.5 -25
s-10.5 -45.334 -10.5 -86.001c0 -38.667 3.5 -66.334 10.5 -83.001s20.5 -25 40.5 -25s33.333 7.83301 40 23.5zM335.499 -74.499c18.333 7 27.499 19.5 27.499 37.5c0 15.333 -6 26.5 -18 33.5s-34.333 11.833 -67 14.5l-104 11c-11.333 -10 -20.166 -19.5 -26.499 -28.5
s-9.5 -18.833 -9.5 -29.5c0 -16.667 8.66699 -29 26 -37s46 -12 86 -12c38.667 0 67.167 3.5 85.5 10.5zM256.998 839.001h154l-123 -201h-92z" />
    <glyph glyph-name="Aringacute" unicode="&#x1fa;" horiz-adv-x="538" 
d="M178 810h183l156 -810h-152l-30 178h-128l-31 -178h-155zM319 280l-49 326l-48 -326h97zM186.5 877c-21.667 19.333 -32.499 46.333 -32.499 81s10.833 61.667 32.5 81s49.167 29 82.5 29s61.166 -9.83301 83.499 -29.5s33.5 -46.5 33.5 -80.5
c0 -34.667 -11 -61.667 -33 -81s-50 -29 -84 -29c-33.333 0 -60.833 9.66699 -82.5 29zM307.501 920c9 10 13.5 22.667 13.5 38c0 16 -4.5 29 -13.5 39s-21.833 15 -38.5 15c-16 0 -28.5 -5 -37.5 -15s-13.5 -23 -13.5 -39c0 -15.333 4.5 -28 13.5 -38s21.5 -15 37.5 -15
c16.667 0 29.5 5 38.5 15zM283.001 1314h154l-123 -201h-92z" />
    <glyph glyph-name="aringacute" unicode="&#x1fb;" horiz-adv-x="466" 
d="M98 10c-20 13.333 -35.168 30.8311 -45.501 52.498s-15.5 44.167 -15.5 67.5c0 44.667 11 81.334 33 110.001s48.5 51 79.5 67s72.167 33.333 123.5 52v54c0 20.667 -2.83301 36.334 -8.5 47.001s-15.834 16 -30.501 16s-25 -4.66699 -31 -14
s-9.66699 -22.666 -11 -39.999l-3 -40l-142 6c2.66699 68.667 20.334 119.167 53.001 151.5s81.667 48.5 147 48.5c56.667 0 99.334 -15.667 128.001 -47s43 -74.333 43 -129v-269c0 -45.333 3.33301 -93 10 -143h-135c-2.66699 19.333 -7 47 -13 83
c-8 -26.667 -21.5 -48.834 -40.5 -66.501s-42.833 -26.5 -71.5 -26.5c-26.667 0 -50 6.66699 -70 20zM250.499 106.998c9 6.66699 16.5 14.333 22.5 23v159c-31.333 -18 -55.333 -36.667 -72 -56s-25 -43 -25 -71c0 -20.667 4 -36.667 12 -48s19.333 -17 34 -17
c10 0 19.5 3.33301 28.5 10zM162.499 644.997c-21.667 19.333 -32.499 46.333 -32.499 81s10.833 61.667 32.5 81s49.167 29 82.5 29s61.166 -9.83301 83.499 -29.5s33.5 -46.5 33.5 -80.5c0 -34.667 -11 -61.667 -33 -81s-50 -29 -84 -29
c-33.333 0 -60.833 9.66699 -82.5 29zM283.5 687.997c9 10 13.5 22.667 13.5 38c0 16 -4.5 29 -13.5 39s-21.833 15 -38.5 15c-16 0 -28.5 -5 -37.5 -15s-13.5 -23 -13.5 -39c0 -15.333 4.5 -28 13.5 -38s21.5 -15 37.5 -15c16.667 0 29.5 5 38.5 15zM259 1082h154
l-123 -201h-92z" />
    <glyph glyph-name="AEacute" unicode="&#x1fc;" horiz-adv-x="692" 
d="M329 800h342v-113h-178v-211h127v-115h-127v-248h178v-113h-321v177h-134l-73 -177h-164zM350 282v267l-100 -267h100zM435 1071h154l-123 -201h-92z" />
    <glyph glyph-name="aeacute" unicode="&#x1fd;" horiz-adv-x="673" 
d="M488 202l140.999 0.000976562v-42c0 -54.667 -13.833 -96.834 -41.5 -126.501s-67.834 -44.5 -120.501 -44.5c-34 0 -63.833 8.83301 -89.5 26.5s-41.5 42.167 -47.5 73.5c-10 -31.333 -28 -55.833 -54 -73.5s-55.667 -26.5 -89 -26.5c-46 0 -82.5 12.833 -109.5 38.5
s-40.5 60.167 -40.5 103.5c0 52 15.167 92.167 45.5 120.5s71.5 48.833 123.5 61.5l64 15v80c0 23.333 -3.16699 40.333 -9.5 51s-16.5 16 -30.5 16c-15.333 0 -26.5 -6.66699 -33.5 -20s-10.5 -35.666 -10.5 -66.999l-147 4c0.666992 63.333 15.834 111.833 45.501 145.5
s74.167 50.5 133.5 50.5c30.667 0 56.5 -5.83301 77.5 -17.5s35.833 -26.834 44.5 -45.501c10.667 18.667 28.5 33.834 53.5 45.501s53.167 17.5 84.5 17.5c50.667 0 89 -12.5 115 -37.5s39 -58.5 39 -100.5c0 -46 -13 -80.333 -39 -103s-63 -39.334 -111 -50.001l-67 -15
v-117c0 -22.667 2.5 -39.5 7.5 -50.5s14.833 -16.5 29.5 -16.5s24.334 5.66699 29.001 17s7 28.333 7 51v36zM413.999 352.001l23.999 6c23.333 4.66699 40.333 12.167 51 22.5s16 25.5 16 45.5c0 14.667 -3.66699 26.667 -11 36s-18 14 -32 14
c-17.333 0 -29.666 -5.5 -36.999 -16.5s-11 -27.5 -11 -49.5v-58zM269.998 259.001l-34 -13.998c-22 -8.66699 -38 -20.334 -48 -35.001s-15 -32.667 -15 -54c0 -18.667 4 -33.834 12 -45.501s20 -17.5 36 -17.5c32.667 0 49 23 49 69v97zM349.998 839.003h154l-123 -201
h-92z" />
    <glyph glyph-name="Oslashacute" unicode="&#x1fe;" horiz-adv-x="565" 
d="M505 697c14.667 -38 21.999 -84.667 21.999 -140v-303c0 -86.667 -18.5 -152.5 -55.5 -197.5s-98.167 -67.5 -183.5 -67.5c-49.333 0 -91 7.66699 -125 23l-35 -99l-39 15l38 107c-27.333 22 -47.166 51.167 -59.499 87.5s-18.5 80.5 -18.5 132.5v302
c0 87.333 18.333 153 55 197s98 66 184 66c42 0 78.333 -5.66699 109 -17l28 80l40 -14l-30 -84c32 -20.667 55.333 -50 70 -88zM216.999 292l132 373.999c-10.667 24 -31 36 -61 36c-28 0 -46.833 -9.16699 -56.5 -27.5s-14.5 -44.166 -14.5 -77.499v-305zM344.499 135.499
c9.66699 19 14.501 45.167 14.501 78.5v354l-140 -396c3.33301 -20.667 10.166 -36.667 20.499 -48s26.5 -17 48.5 -17c28 0 46.833 9.5 56.5 28.5zM296 1071h154l-123 -201h-92z" />
    <glyph glyph-name="oslashacute" unicode="&#x1ff;" horiz-adv-x="466" 
d="M430 393v-208.001c0 -63.333 -16.833 -111.666 -50.5 -144.999s-81.834 -50 -144.501 -50c-35.333 0 -67 5.66699 -95 17l-38 -97l-36 15l40 102c-44 32.667 -66 85.334 -66 158.001v208c0 63.333 16.833 111.666 50.5 144.999s81.834 50 144.501 50
c31.333 0 60 -4.66699 86 -14l38 98l39 -15l-40 -101c48 -32.667 72 -87 72 -163zM189 238.999l86 218c-6.66699 19.333 -19.667 29 -39 29c-18 0 -30.333 -7.16699 -37 -21.5s-10 -34.833 -10 -61.5v-164zM271.5 112.499c6.33301 13.667 9.5 34.167 9.5 61.5v188l-89 -226
c4.66699 -29.333 19.334 -44 44.001 -44c17.333 0 29.166 6.83301 35.499 20.5zM246 838.999h154l-123 -201h-92z" />
    <glyph glyph-name="uni0200" unicode="&#x200;" horiz-adv-x="538" 
d="M178 810h183l156 -810h-152l-30 178h-128l-31 -178h-155zM319 280l-49 326l-48 -326h97zM52 1069h121l63 -198h-81zM232 1069h112l55 -198h-79z" />
    <glyph glyph-name="uni0201" unicode="&#x201;" horiz-adv-x="466" 
d="M98 10c-20 13.333 -35.168 30.8311 -45.501 52.498s-15.5 44.167 -15.5 67.5c0 44.667 11 81.334 33 110.001s48.5 51 79.5 67s72.167 33.333 123.5 52v54c0 20.667 -2.83301 36.334 -8.5 47.001s-15.834 16 -30.501 16s-25 -4.66699 -31 -14
s-9.66699 -22.666 -11 -39.999l-3 -40l-142 6c2.66699 68.667 20.334 119.167 53.001 151.5s81.667 48.5 147 48.5c56.667 0 99.334 -15.667 128.001 -47s43 -74.333 43 -129v-269c0 -45.333 3.33301 -93 10 -143h-135c-2.66699 19.333 -7 47 -13 83
c-8 -26.667 -21.5 -48.834 -40.5 -66.501s-42.833 -26.5 -71.5 -26.5c-26.667 0 -50 6.66699 -70 20zM250.499 106.998c9 6.66699 16.5 14.333 22.5 23v159c-31.333 -18 -55.333 -36.667 -72 -56s-25 -43 -25 -71c0 -20.667 4 -36.667 12 -48s19.333 -17 34 -17
c10 0 19.5 3.33301 28.5 10zM27.999 836.997h121l63 -198h-81zM207.999 836.997h112l55 -198h-79z" />
    <glyph glyph-name="uni0202" unicode="&#x202;" horiz-adv-x="538" 
d="M178 810h183l156 -810h-152l-30 178h-128l-31 -178h-155zM319 280l-49 326l-48 -326h97zM158 999.5c26 27.667 63.333 41.501 112 41.501c49.333 0 87 -13.833 113 -41.5s39 -66.167 39 -115.5h-86c0 27.333 -5 47.166 -15 59.499s-27 18.5 -51 18.5s-41 -6 -51 -18
s-15 -32 -15 -60h-86c0.666992 49.333 14 87.833 40 115.5z" />
    <glyph glyph-name="uni0203" unicode="&#x203;" horiz-adv-x="466" 
d="M98 10c-20 13.333 -35.168 30.8311 -45.501 52.498s-15.5 44.167 -15.5 67.5c0 44.667 11 81.334 33 110.001s48.5 51 79.5 67s72.167 33.333 123.5 52v54c0 20.667 -2.83301 36.334 -8.5 47.001s-15.834 16 -30.501 16s-25 -4.66699 -31 -14
s-9.66699 -22.666 -11 -39.999l-3 -40l-142 6c2.66699 68.667 20.334 119.167 53.001 151.5s81.667 48.5 147 48.5c56.667 0 99.334 -15.667 128.001 -47s43 -74.333 43 -129v-269c0 -45.333 3.33301 -93 10 -143h-135c-2.66699 19.333 -7 47 -13 83
c-8 -26.667 -21.5 -48.834 -40.5 -66.501s-42.833 -26.5 -71.5 -26.5c-26.667 0 -50 6.66699 -70 20zM250.499 106.998c9 6.66699 16.5 14.333 22.5 23v159c-31.333 -18 -55.333 -36.667 -72 -56s-25 -43 -25 -71c0 -20.667 4 -36.667 12 -48s19.333 -17 34 -17
c10 0 19.5 3.33301 28.5 10zM133.999 767.497c26 27.667 63.333 41.501 112 41.501c49.333 0 87 -13.833 113 -41.5s39 -66.167 39 -115.5h-86c0 27.333 -5 47.166 -15 59.499s-27 18.5 -51 18.5s-41 -6 -51 -18s-15 -32 -15 -60h-86c0.666992 49.333 14 87.833 40 115.5z
" />
    <glyph glyph-name="uni0204" unicode="&#x204;" horiz-adv-x="439" 
d="M61 810h353v-114h-189v-215h146v-115h-146v-254h191v-112h-355v810zM22 1069h121l63 -198h-81zM202 1069h112l55 -198h-79z" />
    <glyph glyph-name="uni0205" unicode="&#x205;" horiz-adv-x="459" 
d="M89.5 42c-33 34.667 -49.501 84.667 -49.501 150v194c0 65.333 16.667 115.333 50 150s81.333 52 144 52c64.667 0 112 -17.333 142 -52s45 -86 45 -154v-101h-231v-112c0 -24.667 3.83301 -42.667 11.5 -54s18.834 -17 33.501 -17c30 0 45 21.667 45 65v56h140v-50
c0 -58 -16 -102.333 -48 -133s-78 -46 -138 -46c-63.333 0 -111.5 17.333 -144.5 52zM279.999 353v56c0 25.333 -3.66699 43.5 -11 54.5s-19 16.5 -35 16.5c-15.333 0 -26.5 -6 -33.5 -18s-10.5 -33.333 -10.5 -64v-45h90zM13.999 837h121l63 -198h-81zM193.999 837h112
l55 -198h-79z" />
    <glyph glyph-name="uni0206" unicode="&#x206;" horiz-adv-x="439" 
d="M61 810h353v-114h-189v-215h146v-115h-146v-254h191v-112h-355v810zM128 999.5c26 27.667 63.333 41.501 112 41.501c49.333 0 87 -13.833 113 -41.5s39 -66.167 39 -115.5h-86c0 27.333 -5 47.166 -15 59.499s-27 18.5 -51 18.5s-41 -6 -51 -18s-15 -32 -15 -60h-86
c0.666992 49.333 14 87.833 40 115.5z" />
    <glyph glyph-name="uni0207" unicode="&#x207;" horiz-adv-x="459" 
d="M89.5 42c-33 34.667 -49.501 84.667 -49.501 150v194c0 65.333 16.667 115.333 50 150s81.333 52 144 52c64.667 0 112 -17.333 142 -52s45 -86 45 -154v-101h-231v-112c0 -24.667 3.83301 -42.667 11.5 -54s18.834 -17 33.501 -17c30 0 45 21.667 45 65v56h140v-50
c0 -58 -16 -102.333 -48 -133s-78 -46 -138 -46c-63.333 0 -111.5 17.333 -144.5 52zM279.999 353v56c0 25.333 -3.66699 43.5 -11 54.5s-19 16.5 -35 16.5c-15.333 0 -26.5 -6 -33.5 -18s-10.5 -33.333 -10.5 -64v-45h90zM119.999 767.5
c26 27.667 63.333 41.501 112 41.501c49.333 0 87 -13.833 113 -41.5s39 -66.167 39 -115.5h-86c0 27.333 -5 47.166 -15 59.499s-27 18.5 -51 18.5s-41 -6 -51 -18s-15 -32 -15 -60h-86c0.666992 49.333 14 87.833 40 115.5z" />
    <glyph glyph-name="uni0208" unicode="&#x208;" horiz-adv-x="289" 
d="M63 810h164v-810h-164v810zM-73 1069h121l63 -198h-81zM107 1069h112l55 -198h-79z" />
    <glyph glyph-name="uni0209" unicode="&#x209;" horiz-adv-x="268" 
d="M60 578h151v-578h-151v578zM-82 837h121l63 -198h-81zM98 837h112l55 -198h-79z" />
    <glyph glyph-name="uni020A" unicode="&#x20a;" horiz-adv-x="289" 
d="M63 810h164v-810h-164v810zM33 999.5c26 27.667 63.333 41.501 112 41.501c49.333 0 87 -13.833 113 -41.5s39 -66.167 39 -115.5h-86c0 27.333 -5 47.166 -15 59.499s-27 18.5 -51 18.5s-41 -6 -51 -18s-15 -32 -15 -60h-86c0.666992 49.333 14 87.833 40 115.5z" />
    <glyph glyph-name="uni020B" unicode="&#x20b;" horiz-adv-x="268" 
d="M60 578h151v-578h-151v578zM24 767.5c26 27.667 63.333 41.501 112 41.501c49.333 0 87 -13.833 113 -41.5s39 -66.167 39 -115.5h-86c0 27.333 -5 47.166 -15 59.499s-27 18.5 -51 18.5s-41 -6 -51 -18s-15 -32 -15 -60h-86c0.666992 49.333 14 87.833 40 115.5z" />
    <glyph glyph-name="uni020C" unicode="&#x20c;" horiz-adv-x="576" 
d="M104 56.5c-36.667 45 -55 111.167 -55 198.5v302c0 87.333 18.333 153 55 197s98 66 184 66c85.333 0 146.5 -22.167 183.5 -66.5s55.5 -109.833 55.5 -196.5v-303c0 -86.667 -18.5 -152.5 -55.5 -197.5s-98.167 -67.5 -183.5 -67.5c-86 0 -147.333 22.5 -184 67.5z
M344.5 135.5c9.66699 19 14.5 45.167 14.5 78.5v383c0 33.333 -4.83301 59.166 -14.5 77.499s-28.5 27.5 -56.5 27.5s-46.833 -9.16699 -56.5 -27.5s-14.5 -44.166 -14.5 -77.499v-383c0 -34 4.66699 -60.333 14 -79s28.333 -28 57 -28c28 0 46.833 9.5 56.5 28.5zM70 1069
h121l63 -198h-81zM250 1069h112l55 -198h-79z" />
    <glyph glyph-name="uni020D" unicode="&#x20d;" horiz-adv-x="471" 
d="M90.5 40c-33.667 33.333 -50.5 81.666 -50.5 144.999v208c0 63.333 16.833 111.666 50.5 144.999s81.834 50 144.501 50s110.834 -16.667 144.501 -50s50.5 -81.666 50.5 -144.999v-208c0 -63.333 -16.833 -111.666 -50.5 -144.999s-81.834 -50 -144.501 -50
s-110.834 16.667 -144.501 50zM271.5 112.5c6.33301 13.667 9.5 34.167 9.5 61.5v229c0 27.333 -3.16699 48 -9.5 62s-18.166 21 -35.499 21c-18 0 -30.333 -7.16699 -37 -21.5s-10 -34.833 -10 -61.5v-229c0 -26.667 3.33301 -47 10 -61s19 -21 37 -21
c17.333 0 29.166 6.83301 35.499 20.5zM17 837h121l63 -198h-81zM197 837h112l55 -198h-79z" />
    <glyph glyph-name="uni020E" unicode="&#x20e;" horiz-adv-x="576" 
d="M104 56.5c-36.667 45 -55 111.167 -55 198.5v302c0 87.333 18.333 153 55 197s98 66 184 66c85.333 0 146.5 -22.167 183.5 -66.5s55.5 -109.833 55.5 -196.5v-303c0 -86.667 -18.5 -152.5 -55.5 -197.5s-98.167 -67.5 -183.5 -67.5c-86 0 -147.333 22.5 -184 67.5z
M344.5 135.5c9.66699 19 14.5 45.167 14.5 78.5v383c0 33.333 -4.83301 59.166 -14.5 77.499s-28.5 27.5 -56.5 27.5s-46.833 -9.16699 -56.5 -27.5s-14.5 -44.166 -14.5 -77.499v-383c0 -34 4.66699 -60.333 14 -79s28.333 -28 57 -28c28 0 46.833 9.5 56.5 28.5z
M176 999.5c26 27.667 63.333 41.501 112 41.501c49.333 0 87 -13.833 113 -41.5s39 -66.167 39 -115.5h-86c0 27.333 -5 47.166 -15 59.499s-27 18.5 -51 18.5s-41 -6 -51 -18s-15 -32 -15 -60h-86c0.666992 49.333 14 87.833 40 115.5z" />
    <glyph glyph-name="uni020F" unicode="&#x20f;" horiz-adv-x="471" 
d="M90.5 40c-33.667 33.333 -50.5 81.666 -50.5 144.999v208c0 63.333 16.833 111.666 50.5 144.999s81.834 50 144.501 50s110.834 -16.667 144.501 -50s50.5 -81.666 50.5 -144.999v-208c0 -63.333 -16.833 -111.666 -50.5 -144.999s-81.834 -50 -144.501 -50
s-110.834 16.667 -144.501 50zM271.5 112.5c6.33301 13.667 9.5 34.167 9.5 61.5v229c0 27.333 -3.16699 48 -9.5 62s-18.166 21 -35.499 21c-18 0 -30.333 -7.16699 -37 -21.5s-10 -34.833 -10 -61.5v-229c0 -26.667 3.33301 -47 10 -61s19 -21 37 -21
c17.333 0 29.166 6.83301 35.499 20.5zM123 767.5c26 27.667 63.333 41.501 112 41.501c49.333 0 87 -13.833 113 -41.5s39 -66.167 39 -115.5h-86c0 27.333 -5 47.166 -15 59.499s-27 18.5 -51 18.5s-41 -6 -51 -18s-15 -32 -15 -60h-86
c0.666992 49.333 14 87.833 40 115.5z" />
    <glyph glyph-name="uni0210" unicode="&#x210;" horiz-adv-x="583" 
d="M61 810h210c87.333 0 153 -16 197 -48s66 -87.333 66 -166c0 -52.667 -7.33301 -95.167 -22 -127.5s-40.667 -56.833 -78 -73.5l112 -395h-169l-92 367h-60v-367h-164v810zM274 465c38.667 0 65.833 9.5 81.5 28.5s23.5 48.833 23.5 89.5c0 40 -7 69.333 -21 88
s-39.333 28 -76 28h-57v-234h49zM73.999 1069h121l63 -198h-81zM253.999 1069h112l55 -198h-79z" />
    <glyph glyph-name="uni0211" unicode="&#x211;" horiz-adv-x="370" 
d="M54 578h151v-93c20 34.667 39.5 60 58.5 76s41.167 24 66.5 24c6 0 13.667 -0.666992 23 -2v-154c-17.333 8 -35.333 12 -54 12c-36.667 0 -68 -18.667 -94 -56v-385h-151v578zM-23 837h121l63 -198h-81zM157 837h112l55 -198h-79z" />
    <glyph glyph-name="uni0212" unicode="&#x212;" horiz-adv-x="583" 
d="M61 810h210c87.333 0 153 -16 197 -48s66 -87.333 66 -166c0 -52.667 -7.33301 -95.167 -22 -127.5s-40.667 -56.833 -78 -73.5l112 -395h-169l-92 367h-60v-367h-164v810zM274 465c38.667 0 65.833 9.5 81.5 28.5s23.5 48.833 23.5 89.5c0 40 -7 69.333 -21 88
s-39.333 28 -76 28h-57v-234h49zM179.999 999.5c26 27.667 63.333 41.501 112 41.501c49.333 0 87 -13.833 113 -41.5s39 -66.167 39 -115.5h-86c0 27.333 -5 47.166 -15 59.499s-27 18.5 -51 18.5s-41 -6 -51 -18s-15 -32 -15 -60h-86c0.666992 49.333 14 87.833 40 115.5z
" />
    <glyph glyph-name="uni0213" unicode="&#x213;" horiz-adv-x="370" 
d="M54 578h151v-93c20 34.667 39.5 60 58.5 76s41.167 24 66.5 24c6 0 13.667 -0.666992 23 -2v-154c-17.333 8 -35.333 12 -54 12c-36.667 0 -68 -18.667 -94 -56v-385h-151v578zM83 767.5c26 27.667 63.333 41.501 112 41.501c49.333 0 87 -13.833 113 -41.5
s39 -66.167 39 -115.5h-86c0 27.333 -5 47.166 -15 59.499s-27 18.5 -51 18.5s-41 -6 -51 -18s-15 -32 -15 -60h-86c0.666992 49.333 14 87.833 40 115.5z" />
    <glyph glyph-name="uni0214" unicode="&#x214;" horiz-adv-x="578" 
d="M148 19.5c-34 20.333 -57.998 49.833 -71.998 88.5s-21 88 -21 148v554h162v-577c0 -38.667 4.66699 -69 14 -91s28.666 -33 57.999 -33s48.666 11 57.999 33s14 52.333 14 91v577h163v-554c0 -60 -7 -109.333 -21 -148s-38.167 -68.167 -72.5 -88.5
s-81.5 -30.5 -141.5 -30.5s-107 10.167 -141 30.5zM72.002 1069h121l63 -198h-81zM252.002 1069h112l55 -198h-79z" />
    <glyph glyph-name="uni0215" unicode="&#x215;" horiz-adv-x="490" 
d="M72.5 27c-17.667 24.667 -26.5 56.333 -26.5 95v456h151v-435c0 -16 2.83301 -28 8.5 -36s15.167 -12 28.5 -12c14 0 31.667 7.33301 53 22v461h151v-578h-151v54c-46 -42.667 -92 -64 -138 -64c-33.333 0 -58.833 12.333 -76.5 37zM27 836.999h121l63 -198h-81z
M207 836.999h112l55 -198h-79z" />
    <glyph glyph-name="uni0216" unicode="&#x216;" horiz-adv-x="578" 
d="M148 19.5c-34 20.333 -57.998 49.833 -71.998 88.5s-21 88 -21 148v554h162v-577c0 -38.667 4.66699 -69 14 -91s28.666 -33 57.999 -33s48.666 11 57.999 33s14 52.333 14 91v577h163v-554c0 -60 -7 -109.333 -21 -148s-38.167 -68.167 -72.5 -88.5
s-81.5 -30.5 -141.5 -30.5s-107 10.167 -141 30.5zM178.002 999.5c26 27.667 63.333 41.501 112 41.501c49.333 0 87 -13.833 113 -41.5s39 -66.167 39 -115.5h-86c0 27.333 -5 47.166 -15 59.499s-27 18.5 -51 18.5s-41 -6 -51 -18s-15 -32 -15 -60h-86
c0.666992 49.333 14 87.833 40 115.5z" />
    <glyph glyph-name="uni0217" unicode="&#x217;" horiz-adv-x="490" 
d="M72.5 27c-17.667 24.667 -26.5 56.333 -26.5 95v456h151v-435c0 -16 2.83301 -28 8.5 -36s15.167 -12 28.5 -12c14 0 31.667 7.33301 53 22v461h151v-578h-151v54c-46 -42.667 -92 -64 -138 -64c-33.333 0 -58.833 12.333 -76.5 37zM133 767.499
c26 27.667 63.333 41.501 112 41.501c49.333 0 87 -13.833 113 -41.5s39 -66.167 39 -115.5h-86c0 27.333 -5 47.166 -15 59.499s-27 18.5 -51 18.5s-41 -6 -51 -18s-15 -32 -15 -60h-86c0.666992 49.333 14 87.833 40 115.5z" />
    <glyph glyph-name="Scommaaccent" unicode="&#x218;" horiz-adv-x="505" 
d="M102 50.5c-37.333 41 -57.668 104.5 -61.001 190.5l142 24c1.33301 -51.333 8.5 -89.166 21.5 -113.499s32.5 -36.5 58.5 -36.5c19.333 0 33.333 6.16699 42 18.5s13 28.166 13 47.499c0 32 -7.16699 59.167 -21.5 81.5s-36.833 46.833 -67.5 73.5l-84 73
c-33.333 28 -58.833 58 -76.5 90s-26.5 70.333 -26.5 115c0 66 19.5 116.833 58.5 152.5s92.833 53.5 161.5 53.5c73.333 0 124.333 -21.167 153 -63.5s45 -96.166 49 -161.499l-143 -21c-1.33301 42.667 -6.16602 74.167 -14.499 94.5s-24.833 30.5 -49.5 30.5
c-18 0 -32 -6.83301 -42 -20.5s-15 -29.834 -15 -48.501c0 -26.667 5.83301 -49.167 17.5 -67.5s30.167 -38.5 55.5 -60.5l82 -72c38.667 -34 69 -69.833 91 -107.5s33 -81.834 33 -132.501c0 -38.667 -8.66699 -73.167 -26 -103.5s-41.833 -54.166 -73.5 -71.499
s-68.167 -26 -109.5 -26c-74.667 0 -130.667 20.5 -168 61.5zM191.998 -287c20.667 3.33301 36.999 10.832 48.999 22.499s18 29.834 18 54.501h-78v143h144v-125c-0.666992 -48 -10.167 -84.667 -28.5 -110s-48.166 -38.333 -89.499 -39z" />
    <glyph glyph-name="scommaaccent" unicode="&#x219;" horiz-adv-x="413" 
d="M96 26.5c-32.667 24.333 -57.6621 61.834 -74.9951 112.501l106 44c20 -59.333 48.333 -89 85 -89c14 0 24.5 3.16699 31.5 9.5s10.5 15.166 10.5 26.499c0 15.333 -4.83301 29 -14.5 41s-28.834 30.333 -57.501 55l-54 46c-32 27.333 -55.667 52.666 -71 75.999
s-23 51.333 -23 84c0 30.667 7.66699 57.834 23 81.501s36.166 42 62.499 55s55.166 19.5 86.499 19.5c46.667 0 85.167 -13.167 115.5 -39.5s51.166 -63.166 62.499 -110.499l-98 -44c-6 24 -15.667 44.5 -29 61.5s-29 25.5 -47 25.5c-12 0 -21.667 -3.5 -29 -10.5
s-11 -16.167 -11 -27.5s5.66699 -23.5 17 -36.5s29 -29.833 53 -50.5l54 -48c31.333 -26.667 55.833 -52.334 73.5 -77.001s26.5 -53.334 26.5 -86.001c0 -32 -7.83301 -59.667 -23.5 -83s-36.834 -41.166 -63.501 -53.499s-55.667 -18.5 -87 -18.5
c-50 0 -91.333 12.167 -124 36.5zM146.005 -286.999c20.667 3.33301 36.999 10.832 48.999 22.499s18 29.834 18 54.501h-78v143h144v-125c-0.666992 -48 -10.167 -84.667 -28.5 -110s-48.166 -38.333 -89.499 -39z" />
    <glyph glyph-name="uni021A" unicode="&#x21a;" horiz-adv-x="438" 
d="M137 688h-125v122h414v-122h-123v-688h-166v688zM158 -287c20.667 3.33301 36.999 10.832 48.999 22.499s18 29.834 18 54.501h-78v143h144v-125c-0.666992 -48 -10.167 -84.667 -28.5 -110s-48.166 -38.333 -89.499 -39z" />
    <glyph glyph-name="uni021B" unicode="&#x21b;" horiz-adv-x="344" 
d="M104.5 32c-22.333 26 -33.5 65.667 -33.5 119v328h-57v99h57v174h153v-174h84v-99h-84v-313c0 -34 17 -51 51 -51c18 0 32.333 1.33301 43 4v-118c-35.333 -5.33301 -66.333 -8 -93 -8c-58 0 -98.167 13 -120.5 39zM155 -287c20.667 3.33301 36.999 10.832 48.999 22.499
s18 29.834 18 54.501h-78v143h144v-125c-0.666992 -48 -10.167 -84.667 -28.5 -110s-48.166 -38.333 -89.499 -39z" />
    <glyph glyph-name="uni021E" unicode="&#x21e;" horiz-adv-x="599" 
d="M63 810h165v-332h143v332h165v-810h-165v359h-143v-359h-165v810zM139 1054h108l53 -111l53 111h108l-88 -183h-147z" />
    <glyph glyph-name="uni021F" unicode="&#x21f;" horiz-adv-x="496" 
d="M53 810l151 0.000976562v-285c42 42 89.333 63 142 63c32.667 0 57.667 -12.333 75 -37s26 -56.334 26 -95.001v-456h-150v432c0 16 -2.66699 27.833 -8 35.5s-14.333 11.5 -27 11.5c-16.667 0 -36 -8.33301 -58 -25v-454h-151v810zM166 1012h108l53 -111l53 111h108
l-88 -183h-147z" />
    <glyph glyph-name="uni022A" unicode="&#x22a;" horiz-adv-x="576" 
d="M104 56.5c-36.667 45 -55 111.167 -55 198.5v302c0 87.333 18.333 153 55 197s98 66 184 66c85.333 0 146.5 -22.167 183.5 -66.5s55.5 -109.833 55.5 -196.5v-303c0 -86.667 -18.5 -152.5 -55.5 -197.5s-98.167 -67.5 -183.5 -67.5c-86 0 -147.333 22.5 -184 67.5z
M344.5 135.5c9.66699 19 14.5 45.167 14.5 78.5v383c0 33.333 -4.83301 59.166 -14.5 77.499s-28.5 27.5 -56.5 27.5s-46.833 -9.16699 -56.5 -27.5s-14.5 -44.166 -14.5 -77.499v-383c0 -34 4.66699 -60.333 14 -79s28.333 -28 57 -28c28 0 46.833 9.5 56.5 28.5zM121 1042
h125v-140h-125v140zM329 1042h126v-140h-126v140zM159 1209h258v-75h-258v75z" />
    <glyph glyph-name="uni022B" unicode="&#x22b;" horiz-adv-x="471" 
d="M90.5 40c-33.667 33.333 -50.5 81.666 -50.5 144.999v208c0 63.333 16.833 111.666 50.5 144.999s81.834 50 144.501 50s110.834 -16.667 144.501 -50s50.5 -81.666 50.5 -144.999v-208c0 -63.333 -16.833 -111.666 -50.5 -144.999s-81.834 -50 -144.501 -50
s-110.834 16.667 -144.501 50zM271.5 112.5c6.33301 13.667 9.5 34.167 9.5 61.5v229c0 27.333 -3.16699 48 -9.5 62s-18.166 21 -35.499 21c-18 0 -30.333 -7.16699 -37 -21.5s-10 -34.833 -10 -61.5v-229c0 -26.667 3.33301 -47 10 -61s19 -21 37 -21
c17.333 0 29.166 6.83301 35.499 20.5zM68 810h125v-140h-125v140zM276 810h126v-140h-126v140zM106 977h258v-75h-258v75z" />
    <glyph glyph-name="uni022C" unicode="&#x22c;" horiz-adv-x="576" 
d="M104 56.5c-36.667 45 -55 111.167 -55 198.5v302c0 87.333 18.333 153 55 197s98 66 184 66c85.333 0 146.5 -22.167 183.5 -66.5s55.5 -109.833 55.5 -196.5v-303c0 -86.667 -18.5 -152.5 -55.5 -197.5s-98.167 -67.5 -183.5 -67.5c-86 0 -147.333 22.5 -184 67.5z
M344.5 135.5c9.66699 19 14.5 45.167 14.5 78.5v383c0 33.333 -4.83301 59.166 -14.5 77.499s-28.5 27.5 -56.5 27.5s-46.833 -9.16699 -56.5 -27.5s-14.5 -44.166 -14.5 -77.499v-383c0 -34 4.66699 -60.333 14 -79s28.333 -28 57 -28c28 0 46.833 9.5 56.5 28.5z
M333.5 913.5c-11 4.33301 -23.499 10.834 -37.499 19.501c-22.667 14 -40.667 21 -54 21c-24 0 -36 -13.667 -36 -41h-74c-1.33301 90 27.667 135 87 135c11.333 0 22.166 -2 32.499 -6s21.833 -10 34.5 -18c12 -6.66699 22.333 -11.834 31 -15.501s17.667 -5.5 27 -5.5
c20.667 0 31 13 31 39h69c0 -40 -5.16699 -72.5 -15.5 -97.5s-30.5 -37.5 -60.5 -37.5c-12 0 -23.5 2.16699 -34.5 6.5zM159.001 1215h258v-75h-258v75z" />
    <glyph glyph-name="uni022D" unicode="&#x22d;" horiz-adv-x="471" 
d="M90.5 40c-33.667 33.333 -50.5 81.666 -50.5 144.999v208c0 63.333 16.833 111.666 50.5 144.999s81.834 50 144.501 50s110.834 -16.667 144.501 -50s50.5 -81.666 50.5 -144.999v-208c0 -63.333 -16.833 -111.666 -50.5 -144.999s-81.834 -50 -144.501 -50
s-110.834 16.667 -144.501 50zM271.5 112.5c6.33301 13.667 9.5 34.167 9.5 61.5v229c0 27.333 -3.16699 48 -9.5 62s-18.166 21 -35.499 21c-18 0 -30.333 -7.16699 -37 -21.5s-10 -34.833 -10 -61.5v-229c0 -26.667 3.33301 -47 10 -61s19 -21 37 -21
c17.333 0 29.166 6.83301 35.499 20.5zM280.5 681.5c-11 4.33301 -23.499 10.834 -37.499 19.501c-22.667 14 -40.667 21 -54 21c-24 0 -36 -13.667 -36 -41h-74c-1.33301 90 27.667 135 87 135c11.333 0 22.166 -2 32.499 -6s21.833 -10 34.5 -18
c12 -6.66699 22.333 -11.834 31 -15.501s17.667 -5.5 27 -5.5c20.667 0 31 13 31 39h69c0 -40 -5.16699 -72.5 -15.5 -97.5s-30.5 -37.5 -60.5 -37.5c-12 0 -23.5 2.16699 -34.5 6.5zM106.001 983.001h258v-75h-258v75z" />
    <glyph glyph-name="uni0230" unicode="&#x230;" horiz-adv-x="576" 
d="M104 56.5c-36.667 45 -55 111.167 -55 198.5v302c0 87.333 18.333 153 55 197s98 66 184 66c85.333 0 146.5 -22.167 183.5 -66.5s55.5 -109.833 55.5 -196.5v-303c0 -86.667 -18.5 -152.5 -55.5 -197.5s-98.167 -67.5 -183.5 -67.5c-86 0 -147.333 22.5 -184 67.5z
M344.5 135.5c9.66699 19 14.5 45.167 14.5 78.5v383c0 33.333 -4.83301 59.166 -14.5 77.499s-28.5 27.5 -56.5 27.5s-46.833 -9.16699 -56.5 -27.5s-14.5 -44.166 -14.5 -77.499v-383c0 -34 4.66699 -60.333 14 -79s28.333 -28 57 -28c28 0 46.833 9.5 56.5 28.5zM216 1034
h144v-146h-144v146zM159 1201h258v-75h-258v75z" />
    <glyph glyph-name="uni0231" unicode="&#x231;" horiz-adv-x="471" 
d="M90.5 40c-33.667 33.333 -50.5 81.666 -50.5 144.999v208c0 63.333 16.833 111.666 50.5 144.999s81.834 50 144.501 50s110.834 -16.667 144.501 -50s50.5 -81.666 50.5 -144.999v-208c0 -63.333 -16.833 -111.666 -50.5 -144.999s-81.834 -50 -144.501 -50
s-110.834 16.667 -144.501 50zM271.5 112.5c6.33301 13.667 9.5 34.167 9.5 61.5v229c0 27.333 -3.16699 48 -9.5 62s-18.166 21 -35.499 21c-18 0 -30.333 -7.16699 -37 -21.5s-10 -34.833 -10 -61.5v-229c0 -26.667 3.33301 -47 10 -61s19 -21 37 -21
c17.333 0 29.166 6.83301 35.499 20.5zM163 802h144v-146h-144v146zM106 969h258v-75h-258v75z" />
    <glyph glyph-name="uni0232" unicode="&#x232;" horiz-adv-x="491" 
d="M167 321l-158 489h155l87 -285l80 285h151l-156 -489v-321h-159v321zM117 977h258v-75h-258v75z" />
    <glyph glyph-name="uni0233" unicode="&#x233;" horiz-adv-x="436" 
d="M62 -57c34 0 58.5 3.49902 73.5 10.499s22.5 19.5 22.5 37.5c0 8.66699 -2.16699 22.334 -6.5 41.001s-9.16602 38 -14.499 58l-132 488h144l73 -355l60 355h144l-134 -596c-12 -53.333 -34.333 -90.833 -67 -112.5s-76.334 -32.5 -131.001 -32.5h-32v106zM89 744.999
h258v-75h-258v75z" />
    <glyph glyph-name="uni0237" unicode="&#x237;" horiz-adv-x="267" 
d="M-11 -161l-0.000976562 108c18 -2 27.667 -3 29 -3c31.333 0 47 17.667 47 53v581h151v-599c0 -46.667 -12.667 -83.667 -38 -111s-61.666 -41 -108.999 -41c-29.333 0 -56 4 -80 12z" />
    <glyph glyph-name="uni0259" unicode="&#x259;" horiz-adv-x="459" 
d="M84 40.5c-30 34.333 -45 85.5 -45 153.5v101h231v112c0 48.667 -14.667 73 -44 73c-15.333 0 -26.833 -5.16699 -34.5 -15.5s-11.5 -26.833 -11.5 -49.5v-55h-141v49c0 58 16 102.333 48 133s78 46 138 46c63.333 0 111.5 -17.333 144.5 -52s49.5 -84.334 49.5 -149.001
v-197c0 -65.333 -16.5 -115.166 -49.5 -149.499s-81.167 -51.5 -144.5 -51.5c-64 0 -111 17.167 -141 51.5zM259.5 115c7 12 10.5 33 10.5 63v45h-90v-56c0 -25.333 3.66699 -43.333 11 -54s19 -16 35 -16c15.333 0 26.5 6 33.5 18z" />
    <glyph glyph-name="uni0292" unicode="&#x292;" horiz-adv-x="479" 
d="M408.5 228c29 -41.333 43.5 -101.667 43.5 -181c0 -78 -17.167 -139.167 -51.5 -183.5s-89.166 -66.5 -164.499 -66.5c-141.333 0 -212 81.667 -212 245v28h148v-26c0 -50 4.66699 -85.5 14 -106.5s26.666 -31.5 51.999 -31.5c24.667 0 41.167 10.667 49.5 32
s12.5 56.666 12.5 105.999c0 42.667 -3 75.834 -9 99.501s-17 41.167 -33 52.5s-39.333 17 -70 17h-72v89l130 166h-188v110h349v-90l-151 -192c72.667 -4 123.5 -26.667 152.5 -68z" />
    <glyph glyph-name="uni02BC" unicode="&#x2bc;" horiz-adv-x="378" 
d="M93 810h125l-51 -289h-74v289z" />
    <glyph glyph-name="circumflex" unicode="&#x2c6;" horiz-adv-x="392" 
d="M135 810h128l95 -194h-111l-48 125l-47 -125h-110z" />
    <glyph glyph-name="caron" unicode="&#x2c7;" horiz-adv-x="388" 
d="M34 810h108l51 -111l53 111h108l-89 -183h-145z" />
    <glyph glyph-name="uni02C9" unicode="&#x2c9;" horiz-adv-x="350" 
d="M55 810h240v-74h-240v74z" />
    <glyph glyph-name="breve" unicode="&#x2d8;" horiz-adv-x="330" 
d="M63.5 715c-21.667 22.667 -32.499 54.334 -32.499 95.001h69c0 -23.333 4.33301 -39.833 13 -49.5s24 -14.5 46 -14.5s37.5 5 46.5 15s13.5 26.333 13.5 49h69c0 -40.667 -10.833 -72.334 -32.5 -95.001s-53.834 -34 -96.501 -34c-42 0 -73.833 11.333 -95.5 34z" />
    <glyph glyph-name="dotaccent" unicode="&#x2d9;" horiz-adv-x="239" 
d="M55 791h143v-143h-143v143z" />
    <glyph glyph-name="ring" unicode="&#x2da;" horiz-adv-x="318" 
d="M75.5 630c-21.667 19.333 -32.5 46.333 -32.5 81s10.833 61.667 32.5 81s49.167 29 82.5 29s61 -9.83301 83 -29.5s33 -46.5 33 -80.5c0 -34.667 -10.833 -61.667 -32.5 -81s-49.5 -29 -83.5 -29c-33.333 0 -60.833 9.66699 -82.5 29zM195.5 672.5
c9 10.333 13.5 23.166 13.5 38.499s-4.5 28.166 -13.5 38.499s-21.5 15.5 -37.5 15.5s-28.5 -5.16699 -37.5 -15.5s-13.5 -23.166 -13.5 -38.499s4.5 -28.166 13.5 -38.499s21.5 -15.5 37.5 -15.5s28.5 5.16699 37.5 15.5z" />
    <glyph glyph-name="ogonek" unicode="&#x2db;" horiz-adv-x="389" 
d="M136 -232.5c-29.333 14.333 -44.001 41.832 -44.001 82.499c0 26 8.5 53.333 25.5 82s36.833 51.334 59.5 68.001h69c-30.667 -45.333 -46 -86.333 -46 -123c0 -37.333 22.333 -56 67 -56c9.33301 0 19.333 0.666992 30 2l-16 -74c-9.33301 -2 -20.666 -3 -33.999 -3
c-44.667 0 -81.667 7.16699 -111 21.5z" />
    <glyph glyph-name="tilde" unicode="&#x2dc;" horiz-adv-x="424" 
d="M264.5 681c-11 4 -26.499 10.666 -46.499 19.999c-28 14 -47.333 21 -58 21c-18 0.666992 -27 -13 -27 -41h-74c-0.666992 42.667 5 75.5 17 98.5s34 34.833 66 35.5c16 1.33301 31.667 -0.666992 47 -6s31.666 -12.666 48.999 -21.999s29.333 -14.333 36 -15
c18.667 -2.66699 28 10 28 38h69c0 -40 -5.16699 -72.5 -15.5 -97.5s-29.833 -37.5 -58.5 -37.5c-10.667 0 -21.5 2 -32.5 6z" />
    <glyph glyph-name="hungarumlaut" unicode="&#x2dd;" horiz-adv-x="471" 
d="M109 841h123l-101 -206h-77zM283 841h134l-119 -206h-78z" />
    <glyph glyph-name="gravecomb" unicode="&#x300;" 
d="M-167 839h155l60 -201h-91z" />
    <glyph glyph-name="acutecomb" unicode="&#x301;" 
d="M13 839h154l-123 -201h-92z" />
    <glyph glyph-name="uni0302" unicode="&#x302;" 
d="M-65 834h128l95 -188h-111l-48 120l-47 -120h-110z" />
    <glyph glyph-name="tildecomb" unicode="&#x303;" 
d="M45.5 681.5c-11 4.33301 -23.499 10.834 -37.499 19.501c-22.667 14 -40.667 21 -54 21c-24 0 -36 -13.667 -36 -41h-74c-1.33301 90 27.667 135 87 135c11.333 0 22.166 -2 32.499 -6s21.833 -10 34.5 -18c12 -6.66699 22.333 -11.834 31 -15.501s17.667 -5.5 27 -5.5
c20.667 0 31 13 31 39h69c0 -40 -5.16699 -72.5 -15.5 -97.5s-30.5 -37.5 -60.5 -37.5c-12 0 -23.5 2.16699 -34.5 6.5z" />
    <glyph glyph-name="uni0304" unicode="&#x304;" 
d="M-129 745h258v-75h-258v75z" />
    <glyph glyph-name="uni0306" unicode="&#x306;" 
d="M-111.5 682c-27 26.667 -40.499 64 -40.499 112h86c0 -25.333 5 -43.833 15 -55.5s27 -17.5 51 -17.5c23.333 0 40.166 6 50.499 18s15.5 30.333 15.5 55h85c0 -48 -13.333 -85.333 -40 -112s-63.667 -40 -111 -40s-84.5 13.333 -111.5 40z" />
    <glyph glyph-name="uni0307" unicode="&#x307;" 
d="M-72 802h144v-146h-144v146z" />
    <glyph glyph-name="uni0308" unicode="&#x308;" 
d="M-167 810h125v-140h-125v140zM41 810h126v-140h-126v140z" />
    <glyph glyph-name="hookabovecomb" unicode="&#x309;" 
d="M-50 678c25.333 12 43.334 22.166 54.001 30.499s16 19.166 16 32.499c0 24 -19.333 36 -58 36c-20.667 0 -40.334 -2.33301 -59.001 -7v65c33.333 8.66699 65.666 13 96.999 13c34.667 0 63.334 -8 86.001 -24s34 -40.333 34 -73c0 -31.333 -10.5 -56.166 -31.5 -74.499
s-50.5 -34.166 -88.5 -47.499z" />
    <glyph glyph-name="uni030A" unicode="&#x30a;" 
d="M-83.5 645c-21.667 19.333 -32.499 46.333 -32.499 81s10.833 61.667 32.5 81s49.167 29 82.5 29s61.166 -9.83301 83.499 -29.5s33.5 -46.5 33.5 -80.5c0 -34.667 -11 -61.667 -33 -81s-50 -29 -84 -29c-33.333 0 -60.833 9.66699 -82.5 29zM37.501 688
c9 10 13.5 22.667 13.5 38c0 16 -4.5 29 -13.5 39s-21.833 15 -38.5 15c-16 0 -28.5 -5 -37.5 -15s-13.5 -23 -13.5 -39c0 -15.333 4.5 -28 13.5 -38s21.5 -15 37.5 -15c16.667 0 29.5 5 38.5 15z" />
    <glyph glyph-name="uni030B" unicode="&#x30b;" 
d="M-70 841h123l-101 -206h-77zM104 841h134l-119 -206h-78z" />
    <glyph glyph-name="uni030C" unicode="&#x30c;" 
d="M-161 822h108l53 -111l53 111h108l-88 -183h-147z" />
    <glyph glyph-name="uni030F" unicode="&#x30f;" 
d="M-218 837h121l63 -198h-81zM-38 837h112l55 -198h-79z" />
    <glyph glyph-name="uni0311" unicode="&#x311;" 
d="M-112 767.5c26 27.667 63.333 41.501 112 41.501c49.333 0 87 -13.833 113 -41.5s39 -66.167 39 -115.5h-86c0 27.333 -5 47.166 -15 59.499s-27 18.5 -51 18.5s-41 -6 -51 -18s-15 -32 -15 -60h-86c0.666992 49.333 14 87.833 40 115.5z" />
    <glyph glyph-name="uni0312" unicode="&#x312;" 
d="M61 863c-20.667 -3.33301 -36.999 -10.832 -48.999 -22.499s-18 -29.834 -18 -54.501h78v-143h-144v125c0.666992 48 10.167 84.667 28.5 110s48.166 38.333 89.499 39z" />
    <glyph glyph-name="uni031B" unicode="&#x31b;" 
d="M-10 578h10.001c19.333 0 33.166 6.66699 41.499 20s12.5 34.333 12.5 63h107c0 -48 -14.333 -84.333 -43 -109s-67.667 -37 -117 -37h-11v63z" />
    <glyph glyph-name="dotbelowcomb" unicode="&#x323;" 
d="M-66 -68h132v-133h-132v133z" />
    <glyph glyph-name="uni0324" unicode="&#x324;" 
d="M-167 -68h125v-140h-125v140zM41 -68h126v-140h-126v140z" />
    <glyph glyph-name="uni0326" unicode="&#x326;" 
d="M-61 -288c20.667 3.33301 36.999 10.832 48.999 22.499s18 29.834 18 54.501h-78v143h144v-125c-0.666992 -48 -10.167 -84.667 -28.5 -110s-48.166 -38.333 -89.499 -39z" />
    <glyph glyph-name="uni0327" unicode="&#x327;" 
d="M-56 -257l0.000976562 66.999c20 -5.33301 38.667 -8 56 -8c18.667 0 33.667 2.83301 45 8.5s17 14.834 17 27.501c0 16.667 -8.66699 29.167 -26 37.5s-39 13.5 -65 15.5v109h58v-64c41.333 0 73.666 -8.5 96.999 -25.5s35 -41.833 35 -74.5
c0 -34.667 -13.5 -60.667 -40.5 -78s-61.167 -26 -102.5 -26c-24 0 -48.667 3.66699 -74 11z" />
    <glyph glyph-name="uni0328" unicode="&#x328;" 
d="M-75 -232.5c-29.333 14.333 -44.001 41.832 -44.001 82.499c0 26 8.5 53.333 25.5 82s36.833 51.334 59.5 68.001h69c-30.667 -45.333 -46 -86.333 -46 -123c0 -37.333 22.333 -56 67 -56c9.33301 0 19.333 0.666992 30 2l-16 -74c-9.33301 -2 -20.666 -3 -33.999 -3
c-44.667 0 -81.667 7.16699 -111 21.5z" />
    <glyph glyph-name="uni032E" unicode="&#x32e;" 
d="M-111.5 -198c-27 26.667 -40.499 64 -40.499 112h86c0 -25.333 5 -43.833 15 -55.5s27 -17.5 51 -17.5c23.333 0 40.166 6 50.499 18s15.5 30.333 15.5 55h85c0 -48 -13.333 -85.333 -40 -112s-63.667 -40 -111 -40s-84.5 13.333 -111.5 40z" />
    <glyph glyph-name="uni0331" unicode="&#x331;" 
d="M-129 -134h258v-75h-258v75z" />
    <glyph glyph-name="uni0335" unicode="&#x335;" 
d="M-120 402h240v-74h-240v74z" />
    <glyph glyph-name="Pi" unicode="&#x3a0;" horiz-adv-x="599" 
d="M54 810h492v-810h-148v691h-197v-691h-147v810z" />
    <glyph glyph-name="pi" unicode="&#x3c0;" horiz-adv-x="576" 
d="M402.5 6.5c-30.333 11 -51.334 27.168 -63.001 48.501s-17.5 50 -17.5 86v336h-90v-477h-150v477h-63v101h525v-101h-71v-277c0 -30.667 1.33301 -52.834 4 -66.501s8.5 -23 17.5 -28s23.5 -7.5 43.5 -7.5l-7 -108c-55.333 0 -98.166 5.5 -128.499 16.5z" />
    <glyph glyph-name="uni0400" unicode="&#x400;" horiz-adv-x="439" 
d="M61 810h353v-114h-189v-215h146v-115h-146v-254h191v-112h-355v810zM73 1071h155l60 -201h-91z" />
    <glyph glyph-name="uni0401" unicode="&#x401;" horiz-adv-x="439" 
d="M61 810h353v-114h-189v-215h146v-115h-146v-254h191v-112h-355v810zM73 1042h125v-140h-125v140zM281 1042h126v-140h-126v140z" />
    <glyph glyph-name="uni0402" unicode="&#x402;" horiz-adv-x="612" 
d="M111 694l-115.001 0.00195312v116h416v-116h-138v-250c18 14 38 24.667 60 32s44.333 11 67 11c30 0 58 -5.83301 84 -17.5s46.833 -28.834 62.5 -51.501s23.5 -49.334 23.5 -80.001v-137c0 -49.333 -6.83301 -88.5 -20.5 -117.5s-35.667 -50.167 -66 -63.5
s-71.166 -20 -122.499 -20h-34v97c32.667 0 56.167 8.5 70.5 25.5s21.5 43.167 21.5 78.5v122c0 17.333 -5.66699 32.833 -17 46.5s-28 20.5 -50 20.5c-22.667 0 -49 -9.33301 -79 -28v-362h-163v694z" />
    <glyph glyph-name="uni0403" unicode="&#x403;" horiz-adv-x="446" 
d="M63 810h360v-122h-195v-688h-165v810zM237 1071h154l-123 -201h-92z" />
    <glyph glyph-name="uni0404" unicode="&#x404;" horiz-adv-x="543" 
d="M103 58.5c-36 46.333 -54.001 113.163 -54.001 200.496v290c0 89.333 17.833 156.833 53.5 202.5s96.834 68.5 183.501 68.5c82.667 0 141.167 -20.167 175.5 -60.5s51.5 -98.166 51.5 -173.499v-44h-160v51c0 24 -1.16699 43.333 -3.5 58s-8.33301 26.834 -18 36.501
s-24.5 14.5 -44.5 14.5c-30 0 -49.333 -9.66699 -58 -29s-13 -47.666 -13 -84.999v-131h144v-92h-144v-145c0 -38 5 -66.333 15 -85s28.667 -28 56 -28c28 0 46 9.5 54 28.5s12 47.167 12 84.5v50h160v-38c0 -77.333 -17 -137.166 -51 -179.499s-92.667 -63.5 -176 -63.5
c-86 0 -147 23.167 -183 69.5z" />
    <glyph glyph-name="uni0405" unicode="&#x405;" horiz-adv-x="505" 
d="M102 50.5c-37.333 41 -57.668 104.5 -61.001 190.5l142 24c1.33301 -51.333 8.5 -89.166 21.5 -113.499s32.5 -36.5 58.5 -36.5c19.333 0 33.333 6.16699 42 18.5s13 28.166 13 47.499c0 32 -7.16699 59.167 -21.5 81.5s-36.833 46.833 -67.5 73.5l-84 73
c-33.333 28 -58.833 58 -76.5 90s-26.5 70.333 -26.5 115c0 66 19.5 116.833 58.5 152.5s92.833 53.5 161.5 53.5c73.333 0 124.333 -21.167 153 -63.5s45 -96.166 49 -161.499l-143 -21c-1.33301 42.667 -6.16602 74.167 -14.499 94.5s-24.833 30.5 -49.5 30.5
c-18 0 -32 -6.83301 -42 -20.5s-15 -29.834 -15 -48.501c0 -26.667 5.83301 -49.167 17.5 -67.5s30.167 -38.5 55.5 -60.5l82 -72c38.667 -34 69 -69.833 91 -107.5s33 -81.834 33 -132.501c0 -38.667 -8.66699 -73.167 -26 -103.5s-41.833 -54.166 -73.5 -71.499
s-68.167 -26 -109.5 -26c-74.667 0 -130.667 20.5 -168 61.5z" />
    </font>
</defs>
</svg>
