<?xml version="1.0" standalone="no"?>
<!DOCTYPE svg PUBLIC "-//W3C//DTD SVG 1.1//EN" "http://www.w3.org/Graphics/SVG/1.1/DTD/svg11.dtd" >
<svg xmlns="http://www.w3.org/2000/svg">
<metadata></metadata>
<defs>
<font id="hautecombe-2015regular" horiz-adv-x="2048" >
<font-face units-per-em="2048" ascent="1920" descent="-128" />
<missing-glyph horiz-adv-x="1024" />
<glyph unicode=" "  horiz-adv-x="1024" />
<glyph unicode="&#x09;" horiz-adv-x="1024" />
<glyph unicode="&#xa0;" horiz-adv-x="1024" />
<glyph unicode="!" d="M992 1204h-2h-6l-2 -2l-2 -2q-174 -46 -520 -136q-4 -4 -10 -6t-10 -6l-8 -8l-8 -8q0 -4 -2 -10t-6 -14q0 -4 2 -8t2 -12q74 -274 220 -820q0 -4 2 -8l6 -12q4 -4 8 -6t8 -6l12 -6t8 -2h14h10q174 46 520 140q4 0 10 4t10 4l8 8t4 12q4 4 6 10t2 10v10v14 q-74 272 -220 816q0 8 -4 12l-8 8q0 4 -4 8t-12 8q-4 0 -6 2t-6 2q-4 4 -8 4h-8zM1108 1124q50 -192 204 -768q4 -12 4 -22v-22q0 -8 -4 -18t-8 -18q-8 -12 -14 -20t-14 -16q-8 -4 -18 -8t-18 -4q-78 -22 -236 -64h304h12h8q8 4 12 8l8 8l8 8t4 8q4 8 4 12v12v848v10t-4 10 q0 4 -4 10t-8 10t-8 6t-12 2q-4 4 -8 6t-12 2h-200zM1412 1040v-820q0 -12 -2 -22t-6 -18q0 -8 -6 -18t-14 -18t-16 -12t-20 -8q-8 -4 -18 -6t-22 -2h-156q52 -14 212 -56q4 -4 10 -4h10q8 0 12 2t8 6h4l8 8l8 8t6 8t2 12q74 272 220 816q0 8 2 12v2t-2 6q0 8 -2 14t-2 10 l-8 8l-8 8t-10 6t-10 6q-66 18 -200 52z" />
<glyph unicode="&#x22;" d="M796 1164h-10h-14q-4 0 -10 -2t-14 -2q-16 -4 -34 -12t-34 -20q-12 -8 -24 -22t-24 -30q-8 -16 -14 -34t-10 -38q-2 -12 -2 -24v-10q2 -18 6 -38q4 -16 10 -34t18 -34q12 -12 26 -24t30 -24l32 -16t32 -12h38t38 4q20 8 36 14t28 18q16 12 30 24t22 28q12 20 18 36t6 32 q4 20 4 38t-4 38t-12 36t-20 28q-8 16 -22 28t-30 24q-12 8 -24 12l-24 8t-24 6t-24 2zM1268 1092q-4 0 -8 -2t-12 -2h-10t-10 -4q-16 -4 -32 -10t-28 -18q-12 -8 -24 -20t-20 -28q-8 -12 -14 -28t-10 -32q-2 -10 -2 -22v-10q2 -16 6 -32q4 -20 10 -34t14 -30q12 -12 24 -22 t28 -22q12 -8 28 -14t32 -10h32t36 4q16 4 30 12t26 16q16 8 26 20t22 28q8 16 14 32t6 28q4 16 4 34t-4 34t-10 32t-18 28q-8 12 -20 24t-28 20q-12 8 -22 12t-22 8q-8 4 -20 6t-24 2zM772 744h-14t-14 -4h-10h-10q-48 -4 -88 -14t-68 -26t-44 -40t-24 -52t-20 -66t-28 -90 l-36 -108t-44 -136h168q8 28 16 50t16 42q8 24 14 46t10 38v-176h396q8 78 28 312q56 0 106 2t94 2q48 4 88 10t76 14q36 4 64 12t48 12q20 8 32 16t16 12q8 8 10 16t2 12q4 8 6 16v6t-2 10q0 8 -2 16t-6 16t-10 12t-10 12l-16 8t-16 4q-4 4 -12 4h-16q-68 -8 -134 -14 t-130 -6t-124 4t-120 12h-4q-28 4 -54 6t-50 2q-20 4 -42 6t-42 2zM1568 544q-12 -8 -28 -16t-40 -16q-20 -4 -46 -10t-58 -14q-32 -4 -68 -10t-76 -10q-40 0 -84 -4t-92 -4q-8 -70 -24 -212q2 -10 4 -40h396v176q4 -16 10 -38t14 -46q8 -20 16 -42t16 -50h168 q-20 56 -34 104t-30 88q-12 44 -22 80t-22 64z" />
<glyph unicode="#" d="M764 1164h-10h-10t-12 -2t-12 -2q-20 -4 -36 -12t-32 -20q-16 -8 -26 -22t-26 -30q-4 -16 -14 -34t-10 -38q0 -16 -2 -34v-6q0 -16 10 -32q0 -16 8 -34t16 -34q12 -12 26 -24t30 -24q20 -8 34 -16t34 -12h36t40 4q16 8 34 14t30 18t26 24t22 28q16 20 20 36l8 32 q2 14 2 26v12q-2 18 -2 38q-8 20 -14 36t-18 28q-12 16 -24 28t-32 24q-8 8 -22 12t-26 8q-8 4 -22 6t-22 2h-4zM1208 1108h-8t-12 -4h-8t-8 -4q-24 -4 -36 -10t-28 -18q-16 -8 -24 -20t-24 -24q-4 -16 -12 -32t-8 -32t-2 -32v-6q0 -14 6 -26q0 -20 10 -34t14 -30 q8 -12 22 -22t26 -22q20 -8 34 -14t30 -10h34t34 4q12 4 30 12t26 16q12 8 26 20t18 28q16 16 20 32l8 32q2 10 2 22v10q-2 16 -2 32q-8 16 -14 32t-18 28t-22 24t-26 20q-8 8 -20 12l-24 8q-8 4 -20 6t-20 2h-4zM1340 752q4 0 0 0h-8l-4 -2t0 -2q-32 -4 -56 -10l-56 -14 q-28 -4 -52 -8t-52 -8q-24 0 -50 2t-50 2t-50 2t-46 6h-14h-22q-12 4 -28 4t-40 4q-20 0 -38 2t-30 2h-24h-16h-16t-12 -4q-8 0 -14 -2t-14 -2q-4 -4 -14 -8t-14 -8t-12 -10t-8 -10q-12 -4 -16 -12t-12 -16q-4 -4 -6 -12t-10 -12q0 -12 -4 -20t-4 -16t-4 -18t0 -18 q-2 -118 -4 -356h340q8 78 28 312h4h4h52h52t48 2t44 2q24 4 38 8t30 8q20 4 34 8t34 8q28 12 54 20t42 16q20 12 34 20t14 16q8 4 10 12t6 16q2 4 2 10v6q-2 8 -2 16q-4 8 -4 16t-8 12l-6 12t-14 12l-6 4t-10 4l-8 2l-8 2h-4zM1460 680q8 -8 4 -20l-8 -24q0 -8 -6 -18 t-10 -22h-4q0 -12 -16 -22t-36 -22t-52 -24t-68 -24q-20 -4 -30 -8t-26 -8t-30 -6t-34 -6q10 -90 28 -268h328q4 88 12 356q-4 8 -4 18t-4 18t-4 16t-8 20q0 4 -4 10t-8 10q0 8 -6 14l-10 10h-4z" />
<glyph unicode="$" d="M1024 1216l-568 -440v-180l568 440l568 -440v180zM1024 932q-108 -80 -428 -320v-428h284v284h288v-284h284v428q-106 80 -428 320z" />
<glyph unicode="%" d="M1120 972h-28t-28 -4q-12 0 -28 -2t-24 -6h-8h-4t-4 -2t-8 -2h4q-12 0 -18 -2l-18 -6l-18 -6l-18 -6q-8 -4 -24 -10t-28 -14q-12 -4 -26 -12t-26 -16t-18 -16t-18 -16q-8 -8 -10 -20t-10 -24q4 0 0 -2t-4 -6q4 0 2 0t2 -4q-8 -4 -6 -10t-2 -14q0 -4 2 -10t-2 -14 q4 0 2 -2t-2 -6q4 0 2 -2t2 -6l24 -228h-216h-16t-16 -4q-8 -4 -12 -8t-12 -8q-4 -8 -10 -14t-10 -14q0 -8 -2 -14t2 -14q-2 -6 -2 -10v-6q2 -8 2 -16q4 -8 10 -14l10 -10l12 -12t12 -8q12 0 16 -2t16 -2h308h12h8l12 6l12 6q0 4 8 8t8 8t6 8t6 8q4 8 4 12v8q4 8 2 14t2 10 q-8 54 -24 160q24 4 40 8l32 8l30 6t22 6h-4q4 0 2 0t2 0h26t22 -4h26t22 -4h4v0q4 0 2 0t2 0q-46 -30 -140 -92q4 -4 0 -4h-4q4 0 0 -2t0 -2q-4 -2 -12 -8l-2 -2t2 -2l-12 -12q0 -4 -4 -16q-8 0 -6 -4t-2 -8t-2 -8t-2 -4l4 -4q-4 -4 -2 -6t-2 -6l2 -2t-2 -2q2 -4 8 -12 q-2 -2 -4 -8q8 -4 8 -8t4 -12q4 -4 6 -8t10 -8q-4 0 -2 0t-2 0q8 0 6 -2t2 -6h4h4l12 -12q8 0 10 -2t6 -2h8h8h2h2h4h4h528q8 0 18 2t14 2q8 4 18 10t14 10q8 8 12 16l8 16t4 16t4 20q-4 8 -4 18t-4 18t-8 14t-12 14q-4 8 -14 12t-18 8q-4 4 -14 6t-18 2h-236q12 6 48 28 l6 2t10 2q4 4 10 8l6 4q16 8 22 18t14 18q8 12 12 24t8 28q-4 0 -2 0t-2 0l2 2t-2 2q8 12 6 26t-2 26q0 16 -6 28t-10 24q-12 24 -26 44t-34 36q-20 20 -38 34t-46 30h4q-20 8 -40 18t-44 14q-20 8 -42 12t-50 8h4h-16h-12h-12h-12zM556 892h-16h-12t-12 -2t-12 -2 q-16 -4 -34 -12t-30 -20q-12 -8 -28 -22t-20 -30q-16 -16 -20 -34t-8 -34q-2 -10 -2 -22v-14q2 -20 2 -36q8 -20 14 -36t18 -32t24 -28t32 -20q12 -12 32 -18t36 -10q10 -2 22 -2q6 -2 14 0q20 2 36 6q20 4 36 12l32 16q16 12 26 26t26 30q4 16 12 34t8 34q4 16 6 36v6 q0 16 -10 30q0 20 -8 36t-20 32q-8 16 -24 28t-28 20t-22 14t-26 10q-12 4 -22 4h-26h4z" />
<glyph unicode="&#x26;" d="M1440 1240h-10t-14 -4h-14t-14 -4q-4 0 -10 -2t-10 -6q-4 0 -10 -2t-10 -6q-8 -4 -14 -8t-14 -12q-8 -4 -14 -12t-14 -16q-4 -12 -10 -20t-10 -20q-4 -8 -8 -18t-4 -22q-4 -48 -12 -92t-20 -88q-8 -40 -20 -80t-24 -76q-4 -12 -8 -22t-8 -22q-4 -8 -8 -18t-8 -18l-2 2 l-2 2l-2 2l-2 2q-12 16 -24 28t-28 24q-12 12 -28 22t-32 22v0h-4v2v2q-14 6 -40 20q-12 8 -22 12t-22 8q-8 4 -18 8t-22 4q-16 8 -34 10t-34 2q-16 4 -32 4t-32 -4l-32 -8t-32 -12q-12 -4 -26 -12t-26 -20q-8 -4 -14 -12t-14 -16q-8 -4 -12 -12t-12 -16q-4 -12 -8 -20 t-8 -20q-4 -8 -8 -18t-8 -18q0 -12 -4 -22t-4 -22q0 -8 -2 -18t-2 -22v-22v-22t2 -22t6 -18q0 -12 2 -22t6 -22q4 -8 8 -18t8 -18q8 -12 12 -20t12 -20l14 -14l14 -14q16 -16 36 -28t40 -20t44 -14t52 -6t56 4l56 8q28 8 56 18t52 26q20 8 36 20l32 24t32 26t32 30 q4 -4 6 -8t2 -8q4 -4 6 -10t2 -10q8 -16 14 -34t14 -38q8 -16 14 -34t14 -38q0 -4 2 -12t6 -20q4 -8 8 -22t8 -26q0 -4 2 -8t2 -8q4 0 6 -2l2 -2q4 0 6 -2l2 -2q4 4 8 4h8q0 4 4 6l4 2q4 4 8 6t8 6q0 4 4 6t4 6q4 4 6 8t2 8q4 8 6 14t2 10q4 8 6 16t2 16v12t-4 16 q0 12 -2 20t-2 20q-8 28 -18 56t-22 52q-8 28 -22 54t-30 50q20 28 36 56l32 56l32 64t28 68q20 44 34 88t26 92q16 48 26 98t22 106v18v18t-4 14t-8 10q0 4 -4 8t-12 4q-4 4 -10 4h-14zM852 724h4v0h8t8 -4h8h8l24 -8l24 -8t24 -12l24 -16h4q16 -12 28 -24t24 -28 q16 -12 30 -28t26 -32l-8 -8t-8 -12q0 -4 -4 -8l-8 -8q-16 -20 -32 -38t-36 -34q-16 -12 -34 -24t-34 -20q-20 -8 -38 -14t-38 -10q-16 0 -34 2t-34 6q-8 4 -16 6t-16 6l-8 8l-12 12q-4 4 -8 10t-8 14t-6 16t-6 16q0 8 -2 16t-2 16v16v20q0 8 2 16t2 16q0 12 4 20l8 16 q0 8 4 16l8 16q8 8 12 14t12 14q4 8 10 12t14 8q8 8 16 12t16 4q4 4 8 4h8q8 4 12 4h12z" />
<glyph unicode="'" d="M944 1204q-48 0 -94 -10t-90 -30q-40 -16 -80 -42t-72 -58q-36 -36 -62 -74t-46 -82q-16 -40 -24 -84t-8 -96q-2 -16 -2 -32t2 -32l8 -64q8 -28 16 -60t24 -60q8 -24 22 -50t30 -50t36 -46t40 -42t40 -38t40 -34q24 -16 46 -32t46 -28q24 -16 46 -26t46 -22q24 -8 46 -16 t46 -12q20 -8 42 -12t42 -8h40t44 4q16 0 34 2t34 6q20 8 36 12t32 12q12 8 26 14t22 14q12 8 22 18t22 18v4v0q8 8 16 20t12 20q4 12 6 22t2 22v20v16q0 12 -2 20t-6 12q0 8 -2 12t-6 8q0 8 -4 14t-8 14l-2 4t-6 4q0 4 -2 6l-2 2q0 4 -2 6t-6 2v6v2v2t-4 2q0 4 -2 10t-6 10 v14v10v14v14t2 14t2 18l2 4t2 8t2 10t6 14v4v8q4 4 4 8t4 8q0 8 4 18t4 18q4 12 6 20t2 16q4 8 4 16v16q4 8 4 14v14v6v2v8v4v26v26t-2 24t-6 28l-36 -36t-36 -32q-16 -12 -32 -26t-32 -30l-4 -2t-8 -6l-2 -2l-6 -6q-12 -8 -22 -16t-22 -16l-16 -16t-20 -12q-8 -8 -14 -12 t-14 -12q-8 -4 -14 -8t-10 -8h-6t-2 -4h-2t-6 -4q4 0 4 -4v-8v-4v-4v-12v-12v-8v-8q-4 -12 -6 -22t-10 -22q-4 -8 -12 -18t-20 -18l-10 -10t-14 -10t-14 -6t-14 -6h-4l-4 -2t-8 -2l-4 -2t-8 -2t-6 -2t-6 -2v0h-4v-2v-2v0v-4q0 -8 -2 -18t-6 -22q-4 -8 -10 -16t-10 -16 q-8 -8 -18 -14t-18 -10t-18 -6t-22 -2t-22 2t-18 6t-18 10t-14 14q-8 8 -14 16t-10 16q-4 12 -6 22t-2 18q0 12 2 22t6 18q4 12 10 20t14 16q0 4 4 6t8 6t8 6t12 2q0 12 4 24t8 20q4 12 8 22t8 18q8 12 16 22t16 18q12 12 22 20t18 12q12 8 22 12t22 8t24 6t28 2q0 4 2 6 l2 2q4 4 4 6t4 6t8 10t8 10l8 16l8 16q8 8 16 18t16 18q8 12 14 22t18 18q20 24 42 50t42 50q24 28 50 54l54 54q-4 4 -8 10t-8 10l-8 8l-12 12q-32 32 -72 58t-84 42q-40 20 -86 30t-94 10zM1628 1200q-8 0 -16 -4l-24 -12q-12 -4 -26 -14t-34 -22q-24 -16 -52 -36t-56 -44 t-58 -52t-58 -56l-2 -2l-2 -2q-20 -20 -38 -40t-34 -40q-16 -16 -32 -34t-28 -34q26 -26 76 -80l32 24t28 24q16 16 32 30t32 30q4 4 8 6t8 6t6 8t6 8l60 60t48 56q24 28 46 56t38 52t26 42t14 30q8 16 10 24v4q0 6 -2 8l-2 2l-2 2h-2h-2zM876 1092q12 0 22 -2t18 -6 q12 -4 20 -10t16 -10q8 -8 14 -18t10 -18t6 -18t2 -22t-2 -22t-6 -18t-10 -18t-14 -14q-8 -8 -16 -14t-20 -10q-8 -4 -18 -6t-22 -2q-8 0 -18 2t-22 6q-8 4 -16 10t-16 14q-8 4 -14 14t-10 18t-6 18t-2 22t2 22t6 18t10 18t14 18q8 4 16 10t16 10q12 4 22 6t18 2zM672 804 q12 0 22 -2t18 -6t18 -10t18 -14t12 -16l8 -16t6 -18t2 -22t-2 -22t-6 -22l-8 -16t-12 -16t-18 -12t-18 -8t-18 -6t-22 -2t-22 2t-18 6l-16 8t-16 12t-14 16t-10 16q-4 12 -6 22t-2 22t2 22t6 18t10 16t14 16t16 14t16 10t18 6t22 2zM1144 776l-14 -14l-14 -14 q-4 -8 -10 -16t-10 -16t-10 -14t-10 -14q-4 -4 -8 -10t-4 -10q-4 -4 -6 -8t-6 -8l-2 -4t-2 -8l-8 -8h-8q-12 0 -24 -2t-24 -6q-12 0 -22 -4t-18 -12q-8 -4 -16 -10t-16 -14t-14 -16t-10 -20q-4 -4 -8 -12l-8 -16q0 -4 -4 -12t-4 -12q-4 -8 -4 -12t-4 -12v-8t-4 -12 q0 -8 -2 -18t-2 -22v-18v-22l8 8t8 4l8 8l8 8q8 4 14 8t14 4l16 8t20 8h2h2q4 0 6 2t6 2h2h2q4 0 6 2l2 2q4 0 8 2l4 2q4 0 8 2l4 2q8 0 14 4t10 4q4 4 10 8t10 8q8 4 14 12t10 16t6 14t6 14v8v8v8v8v6t-4 6v10v10q-2 4 -4 12q4 2 12 8q4 4 10 6t10 6t10 6t14 6q4 4 8 6t8 6 t8 6t8 6q8 8 14 12t14 8q8 8 16 14t16 14zM1208 388q12 0 22 -2t18 -6t18 -10t18 -14q4 -8 10 -16t10 -20q4 -8 6 -18t2 -18q0 -12 -2 -22t-6 -22q-4 -8 -10 -16t-10 -16q-8 -8 -18 -14t-18 -10t-18 -6t-22 -2t-22 2t-18 6t-18 10t-14 14q-4 0 -6 2l-2 2q0 4 -2 6t-2 6 q-8 4 -10 12t-6 12q-4 8 -4 16v20v16t4 12q4 8 6 16t10 16l2 2l2 2q0 4 2 6t6 2q4 8 14 14t18 10t18 6t22 2z" />
<glyph unicode="(" d="M508 1128h-2h-2q-4 0 -8 -2t-8 -2l-2 -4t-6 -4v-2v-2q0 -4 -2 -4t-2 -4q-2 -10 -4 -28v-2v-2q-2 -8 -4 -24h-4v0v-2v-2v-2v-2v-2v-2v-2v-2v-6v-6q4 0 6 -2l6 -6h4t4 -4q4 0 6 2t6 2h4v4h2h2l2 2l2 2v2v2h2h2l16 16q8 6 24 20l4 4v0q0 4 2 4h2q0 4 2 8l2 4q0 4 -2 8t-2 8 t-2 4h-2q0 4 -2 6t-6 2q0 4 -4 6t-4 6h-4v0q-4 4 -8 4h-8q0 4 -4 4h-4h-2h-2zM504 1124q-2 -6 -4 -20h-4h-2h-6h-2t-2 -4v8q0 4 2 4h2l2 2l2 2q4 4 6 4t6 4zM512 1124q4 -4 6 -4h2q4 0 6 -2t6 -2q-4 -6 -12 -16l-2 2t-6 2h-2h-6q2 6 8 20zM536 1112q4 0 6 -2t2 -6q4 0 4 -2 t4 -2q-4 -6 -12 -16q-4 4 -4 6t-4 2l-2 2l-2 2q2 6 8 16zM976 1108h-4h-8l-4 -2t-8 -2q-8 0 -18 -6t-22 -14q-8 -4 -16 -12t-12 -16q-8 -12 -12 -22t-4 -22v-20v-24q4 -8 8 -18t12 -22q8 -8 16 -14t16 -14q12 -4 22 -8t18 -8h22t22 4q12 0 22 6t18 10l16 16l16 16q4 12 8 22 t4 18q4 12 4 24t-4 20q0 12 -6 22t-14 18q-4 12 -12 18t-16 14q-8 4 -16 6t-16 6q-4 4 -12 4h-16v0h-4zM496 1100q0 -4 -4 -16v0h-4h-2h-2h-2h-2v4v4h4l2 2l2 2l4 2zM504 1100l2 -2l2 -2h6h6q-4 -6 -12 -16h-2h-2q0 4 -2 4h-6q2 6 8 16zM552 1096v-2v-2h4v0v-4v-8v-2v-6h-4 v0v-2v-2l-4 -4v4h-4v6v6q2 4 6 14q2 0 2 2zM524 1092l2 -2t2 -6h4l4 -4l-12 -12l-2 2l-2 2l-2 2l-2 2q2 6 8 16zM488 1080l-8 -24q-4 0 -4 -2v-2h-2h-2q2 6 4 20q4 0 4 2v2q4 0 6 2zM496 1076h2h2h4h4q-6 -8 -16 -24v0h-4q2 8 8 24zM536 1076q4 -4 4 -6v-6v-2v-2v-2t-4 -2 l-2 -2l-2 -2v2v2v2t-4 2v4v0q2 4 8 12zM512 1072l2 -2l2 -2l2 -2l2 -2q-6 -6 -16 -20v0h-4v4v0zM524 1056l2 -2t2 -4v-2h-2t-2 -4l-12 -12h-2h-2v4v0v2v2zM1284 1024h-6h-6t-6 -2t-6 -2q-46 -24 -140 -72l-2 -2l-2 -2h-2h-2q-42 -30 -124 -92q-4 0 -4 -2t-4 -6h-2t-2 -4 q-26 -34 -80 -100h-172q-8 0 -12 -2l-12 -6q-4 0 -8 -4l-8 -8q-4 0 -6 -4t-6 -8v-4t-4 -8q-24 12 -44 24t-36 24t-28 20t-20 20v4v4v8v4q-4 4 -4 8t-4 8q0 8 -2 12t-2 8q-8 12 -16 22t-16 18q-8 12 -20 20t-28 12q-12 8 -26 12t-26 4q-12 4 -26 2t-26 -2l-24 -8t-20 -12 l-16 -16t-12 -20q-8 -8 -10 -20t-2 -24q4 -8 6 -20t10 -24q4 -12 12 -24t16 -20l24 -16l24 -16q12 -4 26 -8t26 -8h28t28 4q4 0 10 2t10 2q8 4 12 8t8 4l4 4v0l4 4h4q12 0 28 -4t36 -12q20 -4 44 -14t48 -22q4 -4 4 -6v-6l6 -6l6 -6l8 -8l8 -8h12h12h32l12 -6t8 -6 q8 0 12 -2t8 -6q4 6 12 20h112h8h4t8 2l4 2q4 4 8 4h4q4 4 6 8l2 4q26 34 80 104q0 -4 2 -4h2v-2v-2q46 -56 136 -168q-48 -24 -188 -92l-6 -6l-6 -6l-4 -2t-4 -6q-4 -4 -4 -6t-4 -6v-6t-4 -6q-6 -82 -20 -248v-12v-12q4 -4 6 -8t6 -8l8 -8l8 -8q4 0 10 -2t10 -2h12h8l12 6 t8 6q8 4 10 8t6 8t4 10v10q6 74 20 220q60 28 236 112v-204v-8v-8q4 -4 6 -8l2 -4q4 -4 6 -8t6 -8q4 0 6 -2l6 -6q78 -34 232 -100q8 0 12 -2t8 -2q8 0 14 2t10 2q4 4 10 6t10 6t6 8l6 12q0 4 2 10t2 10t-2 10t-2 10l-6 12t-6 8t-8 6l-12 6q-66 28 -196 84l8 264v16t-4 12 q0 8 -4 16t-8 12q-58 74 -176 220q14 6 56 28l240 -56q4 0 10 -2t10 -2l12 6t8 6q8 0 12 4t4 8q4 4 6 10t6 10v12v8q0 8 -2 12l-6 12l-8 8t-8 4q-4 4 -8 6l-12 6q-86 20 -256 60h-6h-6h-2h-2zM380 912h16t16 -4q8 0 16 -4t16 -4q8 -8 18 -14t18 -14t16 -18t12 -18q0 -4 2 -6 t2 -6l2 -2t2 -6q0 -8 2 -14v-4q0 -4 -2 -10v-16t-4 -12q-4 -8 -8 -12l-8 -8q0 -4 -6 -8t-10 -8q-4 0 -6 -2l-6 -6q-4 0 -10 -2t-10 -2q-8 -4 -20 -4h-24q-12 4 -22 8t-22 8t-22 12t-18 16t-14 16t-14 20q-4 8 -6 18t-2 18q0 12 2 22t6 18t10 16t14 12q8 8 16 12t20 4 q4 4 8 4h4h8h8z" />
<glyph unicode=")" d="M1080 936h-6t-10 -4h-4l-8 -4q-78 -42 -236 -124q-8 0 -12 -4l-8 -8t-4 -8t-8 -8h4q-4 -8 -4 -12v-12q0 -4 2 -10t2 -10q8 -4 8 -8t4 -8l12 -6l12 -6h8h8q4 0 12 2l8 2q70 36 208 108q16 -18 60 -68q-74 -40 -296 -156q-4 0 -2 0t-2 0q4 0 2 -2l-2 -2q-28 -14 -84 -40 q4 0 2 0t2 0l4 2t0 2q-14 -10 -44 -28l4 -2l4 -2l4 -2l4 -2h4l4 -2l4 -2h10t2 0h10h6t6 2t6 2h-4q8 0 8 2t4 2t6 2t14 6h-4h4v0l4 4h4l2 2l2 2h2h2q4 4 2 4h-2q4 0 2 0t2 0l4 2t8 2q4 4 12 4t12 4q4 0 2 0t2 0t2 0t2 0h12h12t8 -4h12t16 -4h-4q4 0 6 -2t6 -2t6 -2t10 -6 l4 -2t0 -2h4l6 -2t6 -6q4 0 8 -2l4 -2h4l4 -2l4 -2h8h4h8h4q8 0 10 2t10 2h-4q4 0 6 2t6 2l6 6t10 2q-4 0 -2 0t-2 0q4 0 4 2v2h4h4q0 4 6 6l6 2q4 0 8 2l4 2h4q0 4 8 4h12q4 4 12 4h12h12h8q8 0 12 -2t12 -2q-4 0 -2 0t-2 0q8 -4 10 -6t6 -2q8 0 10 -2t10 -6q-4 0 -2 0 t-2 0h4t0 0q4 0 6 -2l6 -6q4 0 6 -2t10 -2q-4 0 2 -2l6 -2h4t0 -4q20 10 60 32l4 2l4 2l2 2t2 6q16 12 22 24t10 24q2 8 2 16t-2 14q-4 14 -8 26h-4q4 4 -2 10l-10 10q0 4 -6 10t-6 10q-70 74 -212 220q0 4 -4 6t-8 2q0 4 -6 6l-6 2q-8 0 -6 0t-2 0t-2 0t-6 0h4zM1476 840 h-10t-10 -4h-4h-8l-20 -10t-20 -14q-4 -4 -14 -12t-10 -20q-12 -8 -12 -18t-4 -22q-2 -8 -2 -14v-8q2 -10 2 -22q4 -4 4 -10t4 -10t6 -8t6 -8q0 -4 6 -8t6 -8q4 -4 12 -8t8 -8q16 -4 24 -8t20 -8q12 0 22 2t26 2q4 4 16 8t16 8q4 8 14 14t10 14q4 0 4 2v2l4 4l4 4q0 8 6 18 t6 22v22t-8 22q4 12 -4 22t-12 18t-14 16t-18 12q-12 4 -16 6t-12 2l-12 6t-16 2zM352 528h-2h-2h-4t0 0q-2 -26 -4 -76q4 0 4 2t4 2h4h4h4t0 0h4t0 0h10t10 -4h10t14 -4l4 -2l4 -2q4 0 10 -2t2 -6q8 0 10 -2l6 -6q8 0 10 -2t6 -2q0 -4 8 -4t8 -4h10h6h14h6q8 0 10 2t14 2 q-4 4 2 4h6q4 4 10 6t6 6q8 4 10 6t6 2q8 4 10 4t10 4l6 2t10 2h10h6h14h10t10 -2t10 -2q0 -4 6 -4t6 -4l8 -2t8 -6q8 -4 10 -6l6 -6h10t6 -4l6 -2t10 -2h10h6h12h12q8 4 10 6t10 2l2 2l2 2l4 2l4 2q4 0 4 2t4 2t2 0t6 0q-4 4 2 4h6q4 4 10 6t6 6q8 0 10 2t6 2h10h10h10 t10 -4q4 0 12 -2t12 -2q4 -4 6 -4t6 -4q4 0 4 -2t8 -2q0 -4 6 -6l6 -2l6 -2t2 -2q8 -4 12 -4t8 -4h10h10h10h10q4 4 12 6t12 2q8 4 8 6t4 2q8 0 10 2t10 6q-4 0 2 2l6 2l6 2t6 6q8 0 10 2t10 2h10h10h8h8q4 0 12 -2l8 -2l8 -4l4 -4q8 0 10 -2t14 -6q0 -4 6 -6t6 -6h8t4 -4 q8 0 10 -2t6 -2h12h12h8h8q4 4 12 6l8 2q8 0 8 2t4 2q8 4 8 6t8 2q4 4 16 8t16 8q8 4 18 4h10h10t10 -4h10t10 -4l6 -2l6 -2q4 0 8 -2t4 -6q8 0 10 -2l6 -6q8 0 8 -2t8 -2q0 -4 8 -4t8 -4h10h6h12h8q8 0 10 2t10 2q0 4 6 4h6q0 4 8 6t8 6q8 4 10 6t6 2q8 4 10 4t6 4 q4 0 10 2l6 2h12h8h4v0h4h4q-4 0 0 0h4q2 22 4 68h-4h-4v0h-8q0 4 -4 4h-4h-4t0 0h-14t-10 -4h-10t-10 -4l-6 -2t-6 -6l-8 -2l-8 -2q-8 -4 -10 -6t-10 -6q-4 0 -4 -2t-8 -2l-6 -2t-10 -2t-10 -2l-6 -2q-8 0 -10 2t-6 2h-6h-10q4 4 0 4h-4l-4 2t0 2h-4h-4v2t-8 2q0 4 -4 4h-4 q0 4 -2 4t2 0q-8 0 -8 2t-8 2l-4 4l-8 4l-8 2t-12 2q0 4 -8 4h-8h-12t-12 -4q-4 0 -6 -2t-14 -2q4 0 -2 -2l-6 -2l-4 -2t-4 -6q-8 0 -10 -2t-10 -6q-4 0 -4 -2t-8 -2q-4 -4 -10 -6t-10 -2t-12 -2l-8 -2q-8 0 -12 2t-12 2q-4 0 -8 2t-16 6q0 4 -6 4h-6q0 4 -4 6l-4 2 q-8 4 -10 6t-10 2q-4 0 -6 2t-10 6h-6h-10q0 4 -6 4h-6h-14t-10 -4h-10t-10 -4l-6 -2t-10 -6l-6 -2l-6 -2q-8 -4 -10 -6t-10 -6q-4 0 -6 -2t-6 -2l-8 -2t-12 -2l-6 -2l-6 -2q-8 0 -10 2t-10 2q-4 0 -6 2t-10 2l-4 2t-8 2q0 4 -8 6t-8 6q-8 0 -10 2t-10 2l-6 6t-10 2 q0 4 -6 4h-10q0 4 -6 4h-6h-20q0 -4 -8 -4t-12 -4l-6 -2t-2 -2q-8 0 -8 -2t-4 -6q-4 0 -6 -2t-10 -2q0 -4 -6 -6t-10 -2l-4 -2t0 -2q-8 0 -12 -2t-12 -2q-4 0 -6 -2t-10 -2l-6 2t-10 2l-6 2l-6 2q-8 0 -10 2t-6 2q-4 4 -8 6l-12 6l-6 2t-10 2q0 4 -6 6t-2 2q-12 4 -14 4h-10 q-4 4 -8 4h-12h-8t-12 -4h-8t-8 -4q-8 0 -8 -2t-8 -6q-4 0 -6 -2t-14 -2q0 -4 -6 -6t-10 -6l-4 -2l-4 -2q-8 0 -10 -2t-10 -2t-10 -2t-10 -2l-6 2l-6 2h-6t-2 0l-8 4h-4t-2 2t-6 2l-4 2l-4 2l-8 4h-4q-4 4 -2 4t-2 0l-4 2l-4 2q0 4 -6 4t-6 4q-8 0 -12 2t-12 2q-4 4 -8 4 h-12z" />
<glyph unicode="*" d="M472 1048h1104l-552 -960z" />
<glyph unicode="+" d="M1132 1184h-8t-8 -4h-2t-6 -4q-238 -138 -716 -416v-4l-2 -2t-6 -2l-2 -2t-2 -6q-4 0 -6 -4t-2 -8l-2 -4t-6 -4q0 -8 -2 -16t-6 -16v-16v-16v-8v-30t4 -30l8 -32t12 -28q4 -16 12 -28t12 -20l16 -16l16 -16q30 -18 92 -52l448 -264l720 424v56l-96 56q0 -8 2 -14t2 -14 q4 -4 6 -8t6 -8q-160 -94 -644 -376l-480 280l-10 10t-14 10l-8 16l-8 16t-6 16t-6 16q0 12 -2 20t-2 16v12v8v8q4 4 4 8v8h4h-2h-2h4v0q178 -104 532 -312q180 104 720 420v60q-136 78 -540 312q-4 4 -8 4h-8q0 4 -4 4h-4zM988 968l120 -72q26 14 104 60l72 -40 q-26 -16 -100 -60q28 -18 116 -72l-64 -40l-120 72q-64 -38 -256 -148q-18 10 -72 44q62 36 252 148q-28 16 -116 68zM1572 792h-2h-2h2h2zM436 756h2h2h4v-4q-2 0 -6 2zM440 512l4 -4v0h-4v2v2z" />
<glyph unicode="," d="M628 1368q-12 -6 -48 -20q42 -106 168 -420q-20 -2 -80 -4q16 -96 60 -380q0 -4 0 -2t0 -2v0v-4q30 -186 92 -556q100 -2 400 -4q22 140 92 564q22 130 64 388q-140 -2 -564 -4q-2 2 -12 8q-10 26 -40 108q-34 82 -132 328zM1348 1148q-10 2 -18 2q-14 0 -26 -4 q-20 -6 -44 -14q-20 -8 -38 -22t-34 -26q-12 -16 -24 -30t-20 -34q-8 -16 -12 -30t-8 -38q94 2 284 4q-10 -66 -40 -260q16 4 36 6t36 10q20 12 36 20t28 28q0 -4 2 -2l2 2q16 20 30 36t22 36q8 24 12 44t4 48q0 20 -4 44t-12 40q-8 20 -22 40t-30 32q-2 2 -4 8 q-16 12 -34 26t-38 18q-20 8 -40 14t-44 2zM732 872q10 -2 36 -4q28 -74 116 -292q-26 -2 -104 -4q-12 74 -48 300zM824 868q122 0 484 4q-12 -76 -48 -300q-80 0 -320 4q-28 72 -116 292z" />
<glyph unicode="-" d="M888 1400h-2h-2h-2h-2q-4 -4 -10 -6t-10 -6l-4 -4t-4 -8q-4 -8 -4 -12t-4 -8v-10v-10q-40 -12 -76 -26t-68 -34q-32 -16 -64 -36t-64 -44q-28 -24 -54 -52t-50 -60q-24 -28 -44 -60t-36 -68t-30 -72t-22 -76q-8 -36 -12 -76t-4 -80q0 -48 6 -96t18 -92t30 -86t42 -82 t50 -76t58 -68t68 -58t76 -50t82 -42t86 -30t92 -18t96 -6t96 6t92 18t86 30t82 42t76 50t68 58t58 68t50 76t42 82t30 86t18 92t6 96t-6 96t-18 92t-30 86t-42 82t-50 76t-58 68t-68 58t-76 50t-82 42t-86 30t-92 18t-96 6h-22h-22h-18t-22 -4q0 8 -4 12l-8 8q0 4 -4 8 l-8 8l-6 6t-6 2q-4 4 -8 4h-8zM1024 1216q28 0 52 -2t48 -10q24 -4 48 -10t48 -14q32 -12 60 -28t56 -36q28 -16 54 -38t46 -46q24 -24 44 -50t36 -58q16 -28 28 -58t24 -66q-20 -14 -60 -44l72 -8q4 -36 6 -72v-26q0 -22 -2 -46q-4 -36 -10 -70t-18 -66t-26 -62t-34 -62 q-20 -28 -40 -52t-48 -48q-24 -24 -50 -44t-58 -40q-28 -16 -60 -28t-68 -24q-14 22 -44 68q-2 -20 -12 -80q-36 -4 -74 -6h-26q-24 0 -48 2q-36 4 -70 12t-66 20q-36 12 -66 28t-58 36t-54 42t-50 50q-24 24 -44 54t-36 58q-16 32 -28 66t-20 70q20 14 60 40l-72 16 q-2 26 -2 52v24q2 36 6 68q4 36 12 68t20 64q16 32 32 62t32 54q20 28 44 54t48 46q24 24 52 42t56 34q32 16 64 28t64 20q14 -20 40 -60q2 16 12 68q12 4 22 4h18q12 0 22 2t18 2zM1300 1064q-92 -84 -364 -336l-192 -480l368 344q46 118 188 472zM1024 720h12t8 -4 q4 0 10 -2t10 -6l8 -8t4 -8q4 -4 8 -10t4 -14v-14t-4 -14q0 -4 -2 -8l-6 -12l-8 -8t-12 -8q-4 -4 -10 -6t-10 -2h-14h-14q-4 4 -10 6t-10 6l-8 8l-8 8q-4 8 -6 14t-2 10v14v10q0 8 4 14t8 10l8 8l8 8t10 6t14 2h2h2v0h4z" />
<glyph unicode="." d="M1032 1472q-16 -20 -26 -40t-18 -40t-10 -40t-10 -44q4 -8 2 -18t2 -22q4 -8 2 -18t6 -18q-4 -8 0 -16t4 -16t4 -20t4 -24q4 -8 4 -18t4 -22q4 -8 4 -14t4 -14q-4 -8 0 -16t0 -16q0 -8 2 -14t-2 -14q4 -4 0 -6t-4 -6q4 0 2 -2t2 -2q0 4 4 6t4 6l8 8l4 4q8 8 10 14t6 14 t4 14t4 14q-4 8 -2 14t-2 14q0 8 2 16t-6 20q4 4 0 10t-4 14q4 12 -2 22t-2 22q-8 8 -8 20t-4 20t-4 16t-4 16q4 8 0 18t-4 18q4 12 0 22t4 18q-4 12 -2 24t2 24t6 24t6 28h4zM848 1240q-8 0 -8 -2t-4 -6q-4 0 -4 -4t-8 -4q4 -4 0 -8t-4 -12q0 -4 -4 -8t0 -8q-4 -8 -2 -12 t-2 -8q0 -4 2 -10t-2 -14q8 -4 6 -8t2 -12q4 -4 2 -10t6 -14q-4 -8 0 -16t4 -16q0 -4 2 -8t-2 -12q8 -4 6 -12t-2 -16q4 -4 2 -10t2 -14q-4 -8 -2 -16t-2 -16t-4 -16t-8 -16q16 12 20 26t12 26t8 28t4 28q-4 8 -2 14t-2 10q0 8 2 16t-6 12q4 4 2 10t-2 10q0 8 -4 16t0 16 q-8 8 -6 14t-2 10q-4 8 -2 12t-6 8q4 8 2 12t-2 8q4 8 2 12t2 8q-4 4 -2 6t-2 2l2 2l2 2h4zM1232 1240q-16 -12 -20 -24t-12 -28q-8 -12 -8 -26t-4 -30q4 -8 2 -14t-2 -14q4 -4 4 -10t4 -14q-4 -4 -2 -10t2 -14q0 -4 4 -10t0 -14q8 -8 8 -16v-16q4 -4 4 -8t4 -8 q-4 -4 -2 -10t-2 -14q0 -4 2 -8t-2 -8q4 -4 2 -4t-2 -4q4 0 2 -2t2 -2q-4 0 0 2t4 6t4 6l4 2q4 4 4 10t4 10t4 8t4 12q-4 4 -2 8t-2 8q0 8 2 12t-2 12q0 4 -2 8t-2 8q0 8 -2 14t-2 14q-4 8 -4 16t-4 12q-4 8 -2 14t-2 10q0 4 -2 12t-2 12q4 8 2 14t2 14q-4 8 -2 16t2 16 t4 16t4 16h4zM584 852q-2 -82 -4 -324q4 -24 4 -42t4 -38q8 -16 10 -30t10 -30q0 -12 10 -26t14 -26q8 -12 20 -22t20 -18h676q8 8 20 18t20 22t16 26t8 26q8 4 6 4h-2q4 4 2 6t2 2q0 -8 6 -14t6 -10q4 -4 12 -8t12 -8l8 -4h4h10h10q-4 4 2 6l6 2q0 4 4 6t4 6q4 4 4 6v6 q4 4 0 8t0 8q-4 0 -4 4t-4 4q-4 4 -4 6t-8 6q4 0 0 0h-4q4 4 2 4t2 0q-4 4 0 8t0 4q0 4 4 6l4 2q16 12 24 20t20 12q12 8 18 14t18 10h-4q12 8 20 14t20 14t20 14t24 14q16 12 34 26t26 30t18 34t6 38q4 12 4 22q0 8 -2 16q-6 18 -10 34q-4 20 -18 34l-26 26h-4q-8 8 -20 14 l-20 10t-22 6t-22 2q-16 0 -26 -2t-26 -6q-12 0 -22 -6t-26 -10h4q-12 -4 -18 -10t-18 -10q-8 -4 -14 -10t-18 -10q2 22 4 64h-860h4zM1596 780h12t12 -4q4 0 10 -2t6 -6q16 -8 20 -16t8 -20q8 -8 8 -18t4 -18q-8 -12 -10 -22t-10 -22l-16 -16t-24 -16q-8 -8 -22 -14 t-22 -14t-20 -14t-20 -14h-4q0 -4 -10 -10t-18 -14t-22 -16t-22 -20h-4l-4 -2t-4 -6l-4 -2t0 -6q-4 4 -2 10t-2 10q0 4 2 8t-2 12q2 24 4 72q0 4 2 6t-2 2q4 12 6 26t6 26q8 12 12 24t16 20q0 12 10 22l14 14q4 8 14 14t14 10q12 4 18 8t14 4q12 4 16 4h16zM540 252l-6 -2 l-6 -2l-6 -2t-2 -6q-8 -4 -8 -6t-4 -6t-2 -8t-2 -8q4 -4 2 -6t2 -6t4 -6t8 -6q-4 -4 2 -6t6 -6h6h6h32l76 -76q8 0 6 -2l-2 -2q4 0 2 0t6 0h704q4 0 2 0t2 0t2 2t2 2q26 26 80 76h28h6h6q4 4 8 6t4 6q8 4 8 6v6q4 4 4 6t4 6q-4 4 -4 8t-4 8v6t-8 6q0 4 -4 6t-8 2l-6 2l-6 2 h-940z" />
<glyph unicode="/" d="M1052 1456q-4 0 -6 -2l-6 -6t-2 -8t-2 -12v-20q-4 -2 -20 -8q4 -4 -4 -6t-12 -6t-14 -8t-14 -8q-12 -4 -18 -8t-18 -8t-20 -8t-24 -8q-8 -8 -20 -12t-20 -8q-4 -4 -16 -8t-16 -8q-16 -4 -26 -8t-26 -8q-12 -4 -24 -10t-32 -10q-8 -8 -26 -14t-34 -14q-12 -4 -32 -10 t-32 -10q-8 -4 -10 -4t-10 -4q-4 0 -4 -2t-8 -2q4 -4 0 -6t-4 -6q4 0 2 -2t2 -2q-4 -4 -2 -6t-2 -6h4t0 0l8 -4h4h6h10l10 2t14 2q8 0 22 2t26 6q32 4 60 10t60 10q32 8 58 14t54 10q24 8 52 14t52 10q24 8 52 14t48 14q8 0 12 2t8 2q8 0 10 2t10 2q0 4 6 4h6l6 2t2 2 q12 0 16 2t8 6q8 4 8 8t4 8q-4 4 -2 6t-2 2q-4 4 -2 6t-2 2q4 4 0 6l-4 2q0 4 -4 8t-4 8q-12 8 -16 18t-16 14q-8 8 -12 16t-16 16q-4 4 -12 10t-16 10q-4 4 -10 6t-10 2t-2 0t-2 0t-2 0t-6 0h4zM1184 1284h-4h-4v0h-4q4 0 0 -2l-4 -2l-4 -2t0 -6q-4 -4 -4 -6t-4 -6 q0 -4 4 -8t0 -8q4 -4 2 -6t-2 -6q4 0 2 -2t2 -2q-4 -4 -2 -6t-2 -6v-2t-4 -2q0 -4 -4 -10t-8 -14q0 -8 -6 -16t-10 -20q-8 -12 -12 -22t-12 -22q-8 -8 -12 -18t-12 -18q-4 -12 -10 -20t-6 -12t-4 -8l-4 -4q-4 0 -4 -2t-8 -2t-16 -2t-20 -6q-4 0 -16 -2t-24 -6q-8 0 -20 -2 t-20 -2q-8 -4 -10 -4h-6h-6h-6q-28 -8 -56 -12t-52 -8l-48 -8t-40 -8q-20 -4 -36 -6t-36 -6t-32 -6t-32 -6h-8t-12 -4h-6h-10h-10t-10 -4h-4h-8h-16l-16 24q0 12 -8 18t-12 10q0 4 -6 4h-6q-4 0 -2 -2t-2 -2t-2 -2t-2 -2q4 0 0 -4t-4 -8q4 -4 2 -8t2 -8q-4 -12 -2 -20 t-2 -16t-4 -16t-8 -16q4 -4 -2 -10t-6 -14t-6 -14t-10 -14q-4 -4 -2 -4t-2 -4q-4 0 -2 -2t-2 -2q0 -4 -4 -6t-4 -6q4 0 0 -2t0 -6q-4 0 -2 -2t-2 -6q0 -4 2 -8t-2 -8q4 -8 2 -14t2 -14t2 -14t6 -10q-4 -8 0 -14t4 -10t6 -8t2 -8q8 0 8 -2t4 -2h4h8h6h6l4 2l4 2q8 4 12 10 t8 10q8 8 10 18t10 22q0 8 4 20t4 20q0 12 4 24t4 24q4 0 2 2l-2 2q4 4 2 6t2 6v24q4 0 12 4h8h12q8 4 20 6t24 2q16 4 30 6t30 6q20 4 36 6t36 6q16 0 36 4t36 4q16 4 36 6t36 6q20 4 34 6t30 2q16 4 28 6t24 2q16 4 36 6t36 6t38 6t38 6q24 0 40 4t36 4q20 4 34 6t34 6 q16 0 32 2t28 2q12 4 26 6t18 2h8h4t2 0t6 4h10h6h8t0 0q8 0 6 0h-2q4 0 2 0t2 0q-4 -4 -2 -4t-2 -4h2t-6 -4q4 0 0 -4t-4 -8t-6 -10t-6 -10q-12 -8 -14 -14t-10 -14q-4 -4 -6 -10t-10 -10q0 -4 -6 -8t-10 -8q0 -4 -4 -6t-4 -6h-4h-4v0h-8q4 0 -2 0h-10q0 4 -10 6l-10 2 l-36 12t-28 4l-18 6l-18 6h-12h-12l-6 -2t-2 -2q-8 -4 -6 -4t-2 -4l2 -2l2 -2q4 -4 4 -6t4 -6q8 0 10 -4t10 -8q4 -4 14 -10t14 -14q8 -4 18 -12t10 -12h4v-4q4 0 2 0t2 0q4 -8 14 -14t18 -14t18 -16t18 -20q12 -8 18 -16t14 -16q12 -4 16 -10t16 -10q0 -4 6 -6t6 -6 q4 0 10 -2l6 -2q12 0 16 2t12 2q8 4 8 8t8 8q0 8 2 14t-2 10v16t-4 16q0 8 -6 16t-10 12q0 8 -8 16t-8 16h-4h-4l2 2t-2 2l-16 16q20 10 76 40q12 4 18 8t14 8q12 4 16 8t16 4q4 4 10 6l6 2q4 4 8 4t0 4h4h4h4h4h6h6l6 2l6 2h10h6h8h8q-4 4 0 4h4l2 2l2 2q4 4 4 8v4l2 2 q0 4 -2 6q-4 4 -4 12q-4 0 -6 2l-6 6t-8 6t-12 10q4 0 0 0h-4q0 4 -2 4h-2l-14 14t-18 10q-8 8 -16 12t-20 12q-4 4 -12 10t-16 10q-4 4 -10 6t-6 6h-8h-4h-6h-6h-6t-10 -4l-8 -2t-12 -2q-8 0 -14 -2l-18 -6q-8 0 -18 -2t-26 -6q-12 -4 -28 -6t-32 -6q-16 0 -38 -4t-38 -8 h-10h-10t-10 -2t-10 -2h-4t-4 -4h-4t0 0q-4 0 -2 0t-2 0q0 4 4 6t0 2q16 8 22 14l14 14q12 8 20 16t20 16q8 8 18 16t14 12q8 8 18 14t10 14q12 4 16 8l8 8t4 6t4 2q0 8 2 16t-6 16l-8 16t-16 16q0 4 -6 8t-10 4q-4 4 -10 8t-10 4l-12 6t-12 2q-4 4 -8 4t-16 4q4 0 -2 0h-6 h-4h-4zM792 1200q4 0 0 0t-4 -4l-2 -2v-2q-2 -2 2 -4q-4 -4 0 -10t4 -14q0 -4 6 -12t10 -16q8 -12 14 -20t14 -16t14 -16t14 -16q8 -12 18 -20t18 -16l16 -8t12 -4q8 -4 12 -4h8q8 0 10 2t10 6q-4 0 2 4t2 8q0 8 4 12q2 2 2 4q0 4 -2 8q4 8 0 14t-4 10q4 8 0 14t-4 14 q-8 4 -8 8t-8 8q-4 4 -4 8t-8 8q0 4 -6 6t-10 6q0 4 -6 6t-10 2q-12 4 -18 8t-18 8q-8 4 -14 6l-18 6q-4 0 -14 2t-14 2q0 4 -6 4h-6q-4 0 -2 0t-2 0v0h-4zM544 1156q-4 0 -4 -2t-4 -2l2 -4t-2 -4q4 -4 4 -10t4 -14l8 -16t12 -16q4 -8 14 -18t14 -18l18 -18t14 -18 q8 -4 8 -6v-2q4 0 4 -2t4 -2q0 -4 4 -6t4 -6l4 -2l4 -2q4 0 4 -2t4 -6q8 0 8 -2t8 -2q4 -4 12 -4t12 -4q4 0 12 2t8 6q8 0 6 4t2 4q4 4 4 8t4 12q-4 0 -2 4t-2 4q-4 4 -2 8t-2 4q4 12 -2 20t-10 16q0 8 -6 14t-10 14l-6 6t-10 2l-6 6t-10 6q-4 4 -12 6t-16 6t-22 8t-22 12 q-8 0 -12 2t-12 2q-4 4 -6 4t-10 4h-6h-6q0 4 -2 4h-2q-4 0 -2 0t-2 0h4zM832 888h-8l-4 -4q-4 0 -4 -2t-4 -6q4 -4 2 -8t-2 -8q4 -4 4 -8t8 -8q-4 -4 -2 -4t2 -4l2 -2t-2 -2q8 -4 10 -8t6 -8q8 -4 12 -10t16 -10q4 -8 14 -14t14 -14l20 -10t20 -14q8 -4 10 -6l6 -6h10h6h4 h4t8 2t0 2q8 4 6 6t2 2q4 4 4 6t4 6q-4 4 -2 8t2 8t2 10t-2 14q4 4 4 6v6q4 4 2 8t2 8q-4 0 0 2t0 2l2 2t-2 2q4 0 2 4l-2 4q4 4 4 6t4 2q-4 8 0 12t0 8q0 4 2 6v0q0 2 -2 2q4 4 2 6l-2 2h-6h-6q-8 0 -12 -2t-16 -2q-8 0 -18 -2l-30 -6q4 0 -2 -2l-6 -2h-6t-2 0h-8l-4 -4h-4 h-4q4 0 0 2l-4 2h-4t0 0q-8 0 -8 2t-8 2q-4 0 -4 2t-8 2q0 4 -6 6t-10 2l-6 2t-2 2zM632 852q-6 -2 -16 -4q-2 -4 -4 -16q-6 -8 -20 -28q0 -8 -4 -12t-4 -12q0 -4 -6 -10t-6 -10q-8 -4 -8 -10t-4 -10t-4 -6t-8 -6q0 -8 -6 -12t-6 -12q0 -4 -4 -8l-4 -4t-2 -8t-2 -8t-2 -8 t-2 -8q4 -4 2 -8t2 -8t2 -8t2 -8q0 -12 4 -20t4 -16q0 -4 6 -10t6 -10q8 -4 10 -4h6q8 0 12 2t12 2q4 4 14 12t14 20t12 26t8 30q4 12 4 26t4 26q4 16 4 32t4 36q-4 8 -2 14t-2 10q0 8 2 12t-2 8q4 0 2 2l-2 2q4 0 2 2t2 2q-4 0 -2 2t-2 2v2t-4 2q4 4 2 4h-2q0 4 -2 4t2 4 h-4h-4v0h-4zM700 828q-4 0 -2 0t-2 0q0 -4 -2 -4h-2l-2 -2l-2 -2q-8 -4 -6 -6t-2 -10q0 -4 4 -10t4 -14q16 -20 26 -36t26 -32q20 -16 36 -28t44 -24q16 -12 42 -20t50 -16q28 -8 62 -12t62 -8h10h10h12h16q4 0 14 -2t14 -2q8 0 18 2t14 2h46h34q20 4 32 6t24 2q8 4 16 6 t12 6t8 10t0 10q4 4 2 6l-2 2q4 4 2 6t2 2q-4 0 -4 2t-4 2l2 2t-6 2q4 0 2 2l-2 2l-4 2l-4 2l-4 4h-8q-4 4 -4 6t-8 2q-4 4 -14 8t-18 8q-4 8 -14 12t-14 12q-12 4 -18 10t-18 14t-22 18t-26 22q0 4 -6 8t-10 8q0 4 -4 6t0 2q-8 0 -8 2t-4 2t-2 0t-6 0q4 0 0 0h-4q4 0 0 -2 t0 -2q-4 0 -2 0t-2 -4l2 -2t-2 -6q4 0 2 -2t-2 -6q4 -4 4 -6t4 -6q-4 0 0 -4t4 -12q0 -4 4 -8t4 -12q8 -4 8 -10t4 -14q4 -4 4 -6t4 -6q-4 0 -2 -2t-2 -6q0 -4 -8 -6t-20 -2h-32t-36 4q-28 0 -44 2t-36 2q-20 4 -34 6t-34 6q-8 4 -24 8t-24 8t-20 8t-16 8q-8 4 -10 6t-10 6 l-6 6t-10 6q0 4 -6 8t-10 8q0 4 -6 8t-6 8l-10 10l-6 6l-6 6t-10 2h4zM772 640q-8 0 -6 0t-2 -4h-4h-4q4 -4 0 -6t-4 -6q4 0 2 -2t2 -6q-4 -4 0 -10t0 -14q0 -4 2 -10t-2 -10q0 -4 -2 -8t-2 -12q0 -4 -6 -10t-6 -14q-12 -12 -18 -26t-22 -30q-12 -16 -26 -34t-34 -34 q-4 -12 -16 -22t-20 -22q-8 -8 -20 -18t-20 -22q-16 -12 -24 -22t-24 -22q-12 -8 -20 -18t-24 -18q-4 -4 -10 -8t-10 -8q0 -4 -6 -8t-2 -8q-8 -4 -10 -6l-6 -6q-4 0 -2 -2t-2 -2q4 0 2 -2t-2 -6q4 0 2 -2t2 -2q-4 -4 0 -4t4 -4h4h4h4h4l4 4l8 4l6 2t10 6t12 6t8 6 q16 8 26 16t22 12q12 8 18 14t18 10q4 4 14 10t14 10q8 8 16 12t12 12q8 0 10 4t6 4q8 4 10 8t10 8q0 4 6 6t6 6q4 4 10 6t6 6q8 4 10 8t6 4q8 4 10 6l6 6q0 4 6 6l6 2q0 4 2 4t-2 0q8 4 6 4t2 0h4h4q0 -4 6 -4t6 -4q4 -4 12 -6t12 -6q8 -4 10 -6l6 -6l12 -6l12 -6l6 -2 t6 -6q4 -4 8 -4t4 -4q4 -2 12 -4l8 -8q-4 -4 -12 -16q-20 -16 -36 -30t-40 -30q-20 -16 -40 -30t-44 -30q-20 -12 -44 -26t-44 -26t-44 -24t-40 -24q-12 -4 -18 -8t-14 -8q-4 -4 -2 -8t2 -8q4 -4 10 -6t22 -2q16 4 32 10t44 14q44 16 90 36t86 40q44 24 90 48t82 52l8 4v0 l4 4h4h4t0 0l6 -6l6 -6q8 -4 14 -10t18 -14q8 -8 20 -16t20 -20q12 -8 26 -18t22 -18q20 -12 30 -22l22 -22q16 -8 24 -16t24 -16q4 -8 14 -14t14 -10t10 -8t2 -4h8l4 -4h6h10q-4 0 2 0h10q8 0 22 2t22 2q20 0 32 2t32 2q20 4 36 4t36 4q20 0 44 2t40 2q16 4 32 6t20 2 q16 0 24 2t16 2t10 2t10 2l2 2l2 2l2 2t-2 6h2v2l-2 2q4 0 0 2t0 2q-4 4 -6 4h-6q-4 4 -8 4t-12 4q-4 0 -12 4t-16 4q-4 4 -14 6t-14 6q-88 20 -156 44t-132 44q-64 24 -116 46t-100 46q-10 6 -32 16l8 16q8 6 36 28q0 8 8 12t12 8q4 8 12 14t12 14q12 4 16 12t12 12 q8 8 12 14t16 10q4 8 14 14t10 10q4 8 10 12t6 8q8 4 6 6t2 2q4 4 2 4t2 4q-4 0 -4 2t-4 6t-4 6t-8 6l-6 2t-10 2q0 4 -8 6t-8 6q-12 4 -16 6t-12 2q-8 4 -12 8t-12 4q-4 4 -10 6t-10 2l-4 2l-4 2h-6t-10 -4q-4 0 -8 -2t-16 -2q0 -4 -8 -6t-12 -6q-4 0 -14 -2t-14 -6 q-12 0 -18 -2l-18 -6q-8 0 -16 -2t-20 -6q-4 0 -14 -2t-18 -6h-14t-14 -4h-20l12 12q-4 0 0 2l4 2q0 4 2 6t-2 2q4 4 2 6l-2 2q4 4 0 6t0 2q-4 4 -4 8t-8 4q-4 4 -4 8t-8 12q0 4 -6 8t-10 4q0 4 -4 8l-4 4q-8 4 -8 6t-8 2l-6 6t-10 2q-4 4 -10 4h-10q0 4 -4 6l-4 2h-4h-4h2 t-6 0q4 0 2 0t2 0z" />
<glyph unicode="0" d="M720 1348h-30t-30 -4t-30 -10t-26 -10q-16 -8 -28 -16l-24 -16t-22 -20t-22 -20q-12 -12 -20 -26t-20 -26q-8 -12 -14 -26t-14 -30t-12 -32l-8 -32l-8 -32t-4 -32v-32v-32t4 -32t8 -36q0 -12 4 -24t8 -28q8 -12 14 -28t14 -32q4 -8 8 -18t8 -22q8 -12 14 -28t14 -32 l8 -24l8 -24t6 -24t2 -20q4 -64 12 -118t20 -98q16 -44 32 -78t40 -62q20 -24 46 -42t54 -26q26 -6 54 -6h12q34 2 70 14q24 8 42 16t34 16q16 12 26 24t18 28q8 12 14 26t6 30q4 16 4 34t-4 38q0 16 -4 32t-8 36t-12 42t-16 46q-8 32 -16 58t-16 46q-4 24 -10 38t-6 22 q-8 28 -12 54t-8 50q0 28 2 52t2 52q4 12 6 22t2 18q0 12 2 20t2 12q0 12 2 20t2 16v20v12q-4 36 -8 64t-12 56q-4 28 -12 50t-20 42q-12 24 -28 42t-36 30q-16 12 -38 18q-14 4 -26 4q-10 0 -20 -2zM684 1196l2 -2l6 -6t6 -10l6 -18q4 -8 6 -16t2 -20q4 -8 6 -16t2 -16 q20 -4 36 -14t28 -26q16 -12 28 -30t24 -42l16 -48t12 -48t8 -54t8 -58l-6 -24t-6 -8q-4 4 -8 12t-8 28t-10 38t-14 34t-16 34t-20 34q-8 16 -18 28t-22 20q-8 8 -20 12t-20 4q-12 0 -24 -4t-24 -12t-22 -20t-22 -28q-12 -20 -22 -42t-22 -50t-22 -62t-18 -70q-8 0 -14 4 t-10 12t-6 20t-2 28q0 24 2 44t6 40q8 24 16 44l16 40l24 40t28 40t32 38t40 38q0 4 2 8t2 8v8v8q4 4 4 8v8t-2 10t-2 10v12v8v6v2q4 4 4 6v2l6 6zM1316 1144v0h-4v0h-4q-24 0 -44 -6t-40 -18q-16 -12 -30 -32t-26 -44q-12 -20 -18 -42t-14 -50q-4 -28 -6 -58t-6 -62 q0 -8 2 -16t2 -16t2 -18t2 -18t2 -14t2 -18q4 -8 6 -18t6 -26q4 -24 6 -48t-2 -52q0 -24 -2 -50t-6 -54q-4 -8 -8 -24t-8 -36t-12 -48t-16 -60q-8 -24 -12 -46t-8 -42t-6 -38t-6 -30v-38t4 -34t10 -30t14 -26t20 -24t28 -24q16 -8 34 -16t42 -12q36 -12 70 -12t62 8 q32 12 56 30t44 42q20 28 36 64t28 80q12 48 18 102t6 114q0 12 2 22t2 22q4 12 8 26t8 26q8 16 12 32t8 28q8 12 12 24t8 20q4 16 10 30t10 30t8 28t4 24q4 16 6 34t2 34v32t-4 32q0 16 -4 32l-8 32t-10 32t-14 28q-8 16 -16 30t-16 26t-18 24t-22 24t-24 22t-24 18t-26 16 t-26 12t-26 10t-30 6q-12 4 -26 6h-10q-10 0 -20 -2zM1352 992h6t2 -4l2 -2t2 -6v-4v-8t2 -8t2 -8v-12v-8v-8v-8v-8v-8q4 -4 6 -8t2 -8v-4q24 -16 42 -34t34 -38q16 -16 30 -34t22 -38q12 -20 22 -42t14 -42q8 -20 10 -42t6 -42q0 -16 -2 -28t-6 -20t-10 -14t-14 -6 q-12 40 -22 72t-22 60t-24 50t-24 38t-24 28t-24 20t-24 12t-24 4q-8 -4 -20 -8t-24 -12q-8 -8 -16 -22t-20 -30q-8 -16 -16 -34t-16 -34q-4 -16 -10 -36t-10 -36l-6 -30t-6 -14q-4 0 -6 8l-6 24q0 32 2 60t6 52q4 28 10 52t14 44l22 44t22 32q16 16 32 26t32 18q4 8 4 16 v16q4 12 6 20t6 20q4 8 6 14t2 10l6 6z" />
<glyph unicode="1" d="M768 1352h-4h-4h-4t0 0q-12 -4 -16 -6l-12 -6t-10 -8t-10 -12q0 -4 -4 -10t-4 -14q4 -8 2 -14t6 -14q-4 0 -2 -2t2 -6h2t-2 -4q8 -4 10 -8t6 -8q8 -4 10 -8t14 -8q0 -4 6 -6l6 -2q4 0 10 -2l6 -2q4 0 2 0t2 0t2 0t2 0q42 -12 124 -36q8 0 6 0h-2q4 0 2 0t2 0q-4 -4 2 -4 h6h4h4q8 0 8 2t4 2q4 4 4 6t8 2q-4 4 0 6t0 6q0 4 2 6v0q0 2 -6 6q4 0 2 2l-2 2q0 4 -4 6t0 6h-4h-4q-32 30 -96 92q-4 0 -2 0t-2 0q-6 8 -20 24q-4 0 -2 0t-2 0t-2 0t-2 0q0 4 -8 6t-12 2q-4 4 -12 4h-8h-4zM772 1316h8l4 -4h8h8q-4 0 -2 -2t-2 -2q6 -4 16 -12 q22 -18 64 -52q-4 -4 -2 -4t-2 0h4v-4q4 0 2 0t2 0q-4 -4 -2 -4t-2 -4q4 0 2 -2l-2 -2h-2h-2h-4h-2h-2h-4q4 0 2 0t2 0q-4 0 -2 0t-2 0l-72 24q-8 0 -6 0t-2 0h2t-6 0q4 0 0 0h-4l-4 2l-4 2h-4q4 0 2 2l-2 2q-8 4 -8 6t-4 2q-4 4 -2 6t-6 6q4 0 2 0t2 0q-4 4 -2 6t-2 6 q0 4 2 6t2 6h4q-4 4 0 6l4 2q4 4 8 6l4 2q8 0 6 0t2 0t2 0t2 0h-4zM716 1152q4 0 0 0h-4q-2 -18 -4 -52q4 0 2 0t2 0h4h4h48h-2h-2h-2h-2h532h-2h-2h-2h-2h52q2 2 4 8q-4 0 0 2t0 2l2 2t-2 2q2 6 4 20q-4 0 -2 2t-2 2v2t-4 2q2 2 4 8q-4 0 -2 0t-2 0v0h-4h-612h-4zM756 1072 l-10 -2t-14 -6t-10 -8t-10 -8q-4 0 -2 -2t-2 -2t-2 0t-2 -4t-10 -12t-6 -16t-4 -16t0 -16q-2 -118 -4 -356q8 0 10 2t6 2q4 4 6 4t10 4q16 8 42 20t54 28t62 36t66 44q40 24 70 44t58 36l52 26t40 18h-4l60 20t52 12q32 4 56 4t52 -8q-2 22 -4 64q4 8 0 16t-4 16t-6 16 t-10 12t-2 4t-2 0t-2 2t-2 2q0 4 -8 8t-12 8t-14 6l-10 2h-540zM1316 896q-20 0 -36 -2t-40 -6q-20 -4 -36 -10t-40 -14q-12 -8 -36 -18t-52 -26q-24 -16 -56 -36l-64 -40h-4q-32 -24 -68 -46t-64 -38t-54 -28t-42 -20h-4q0 -4 -6 -6t-10 -6h-10t-6 -4q-4 0 -2 0t-2 0v0h-4 q2 -110 4 -328q-4 0 -2 -2l2 -2h4q8 0 20 -2t20 -6h22t18 -4h4q28 0 62 2t66 10t66 18t66 22q20 12 46 24t50 28q28 16 64 36t68 44q16 8 28 18t24 18q16 8 26 14t26 14h-4h4v0l4 4h4q-2 130 -4 388h-4h-10h-14q-4 4 -12 4h-12zM1368 472q-8 -8 -20 -14t-24 -14 q-8 -8 -22 -14t-26 -18q-40 -24 -70 -44t-62 -36l-56 -28l-48 -24h4q-40 -16 -72 -26t-68 -18q-36 -4 -68 -8t-68 0h-20h-24q-8 4 -20 6t-20 6q-2 -42 -4 -128q4 0 2 0t-2 -4q4 0 2 0t2 0q-4 -4 -2 -4t-2 -4l4 -2t0 -2q4 -8 4 -14t4 -14q8 -4 10 -10t10 -10q4 -8 14 -14 t14 -10q8 -4 20 -4h16h500h16t16 4q8 4 18 10t14 14q8 4 12 12t8 12q8 8 8 18t4 18q-4 0 -2 0t-2 0h2t-2 4q2 120 4 360h-4z" />
<glyph unicode="2" d="M1516 1384h-10t-10 -4q-4 0 -10 -2t-10 -6q-40 -28 -156 -112l-8 -8l-8 -8q-4 0 -6 -6t-6 -10t-6 -8l-6 -12q-4 -4 -8 -12t-8 -12q0 -4 -2 -4t-2 -4v-2v-2q-4 -4 -4 -8t-4 -8v-4t4 -8h-2h-2q-18 -14 -52 -40h-2h-2v-2v-2h-2h-2q-4 4 -10 6t-10 2t-10 -2t-10 -2l-12 -6 t-8 -6t-6 -8l-6 -12l-2 -4t-2 -8v-8v-8h-2h-2v-2t-4 -2q-158 -114 -476 -340l-2 -2l-2 -2v0v-4q-4 4 -10 6t-10 2h-10h-10q-4 -4 -10 -6t-10 -6q-4 0 -8 -4t-4 -12q-4 0 -4 -2v-6h-2t-2 -4v-6t-4 -6v-6t4 -6h-4v0h-2t-2 -4q-18 -12 -52 -36l-4 -4v0v0l-4 -4h-2h-6t-8 -2 t-8 -2q-8 -4 -14 -6t-14 -6q-4 0 -10 -2t-10 -6q-4 0 -10 -2t-10 -6t-8 -6t-8 -6q-52 -38 -156 -112q-4 -4 -10 -8t-10 -12q-4 -4 -8 -10t-8 -10q0 -8 -2 -12t-2 -12q0 -4 2 -8t6 -8q0 -4 4 -6t8 -6h10h14q4 0 10 2t10 2l16 8t12 8q40 28 156 112q4 0 6 4l2 4q4 4 8 6t4 6h4 v0q4 4 4 6t4 2q0 4 4 8l8 8q4 8 10 12t10 12l6 6t2 6t2 6l2 2h2h2q0 4 2 4h2q18 14 56 40l2 -2l2 -2h2t2 -4q70 -42 208 -128l4 -2l4 -2q4 0 8 -2l4 -2h8h4t8 2l4 2q58 20 176 60q4 -4 4 -8v-8q4 -4 6 -8t2 -8q4 -12 6 -22t2 -18t2 -18t2 -18q82 -22 248 -68h2t2 -4h2h2v4v0 v36t-4 36q0 20 -2 36t-6 36q-4 8 -8 18t-8 18q-4 12 -8 22t-8 18v2v2q16 30 48 88l40 88q4 4 4 6v2q4 4 4 8v4v8v4t-2 6t-2 6q-34 94 -104 280h-4v0v2v2l56 40q0 -4 4 -6t8 -2h14h14q8 4 16 4h12q8 4 14 6t10 2q8 4 12 4t8 4l12 6t8 6l156 108v4l10 10l10 10q4 8 6 14t2 14 v14t-4 14q0 8 -2 14t-6 14l-10 10t-14 10q-4 4 -10 6t-14 2h-6h-6h-2h-2zM1128 1008l88 -232q-12 -26 -52 -104q-44 -10 -180 -36l-2 -2l-2 -2h-2h-2q-54 -18 -160 -56q-40 24 -156 96q116 84 468 336zM1024 888q-4 0 -8 -2t-8 -2h-8t-8 -4q-12 -4 -22 -8t-18 -12l-16 -16 t-12 -16q-4 -12 -8 -22t-8 -22q0 -12 2 -22t6 -22t8 -20t12 -20q8 -8 16 -14t20 -10q8 -8 18 -10t22 -6q12 0 22 2t22 6q12 0 22 6t18 10q8 8 14 18t14 18q4 12 8 22t4 18v24t-4 24q-4 8 -10 18t-14 18q-4 8 -12 16t-20 12q-8 4 -14 6t-14 2q-4 4 -12 6t-12 2zM852 428h-2 h-6v0h-4l-2 -2t-6 -2l-2 -2t-6 -2q-12 -12 -26 -18t-30 -14t-34 -14t-38 -10q-24 -4 -44 -8t-44 -8q-20 -4 -42 -8t-46 -4q-92 -10 -276 -32q4 -8 8 -14t8 -14l8 -16l8 -16h2t2 -4h8h4l2 -2l2 -2h4h4q0 -4 2 -4h2q4 0 4 -2t4 -2l2 -2l2 -2q4 0 6 -2l2 -2h6t2 -4h2h2v0v-4h4 v0h4v0h2h2q0 -4 2 -4h2h6h6h8h4t8 2t8 2q4 4 6 4h6l6 6t10 2q0 4 2 4h2q4 4 6 4t6 4h2h6q4 4 6 4h2l12 6t8 2h14h14h14h10q8 0 14 -2t10 -6h2t6 -4h6h6q0 -4 2 -4t2 -4h6t6 -4q4 0 6 -2l6 -6h6t6 -4q4 0 8 -2l4 -2h8h8h4h4q4 4 8 4h4h4v0l2 2t6 2q4 4 8 4t8 4l4 2l4 2 q4 4 6 4t6 4q4 0 8 2t8 2q4 4 10 6t14 2h4h4h12v0h4h14t10 -4q8 0 16 -2t12 -2t4 -2v-2h6h2q0 -4 2 -4h2q4 0 6 -2l2 -2l2 -2l2 -2q4 0 6 -2l2 -2h6t2 -4h2h2h2t2 -4v0h4h2h2q0 -4 2 -4h2h6h2h4h4h4q4 4 8 4h4h2h2q0 4 4 4h4q4 4 8 6t8 2q4 4 6 4h2q4 4 6 4t2 4h6h2q4 4 6 4 h6q4 4 10 6t10 2h14h14h4h14h10q8 0 14 -2t10 -6h6t2 -4h6h6q0 -4 2 -4t2 -4h6t6 -4q4 0 8 -2t4 -6h8t4 -4h8t4 -4h6h6h6h2q4 4 8 4h4h4v0l4 4v0q4 0 8 2l4 2q4 4 8 6t8 2q0 4 2 4h2h4v4h6h2q4 4 6 4h2q4 4 8 4h8q4 4 8 4h8h2h2v0h4h4h4v0h4h10h10q8 0 12 -2l12 -6h2t6 -4h6 h2q4 -4 6 -4t2 -4h6h2l12 -6t4 -6h8t4 -4h2h2h4t4 -4h6h6h4h4q4 4 8 4h8q4 4 6 4h2q4 4 8 6t8 2q4 4 6 4h2q4 4 6 4t2 4h6h2q4 4 8 4h4q4 4 10 6t10 2h14h14h2h2h12h8q8 0 12 -2t8 -2t6 -2l6 -6h6h6q0 -4 2 -4h2q4 0 6 -2l2 -2q4 0 6 -2l6 -6h6t6 -4h2h2q4 0 4 -2t4 -2h6 t2 -4h8h8h4h4q4 4 8 4h4h4v0l4 4h4l4 2l4 2q4 4 8 6t8 2l4 4v0h4l4 4q4 8 10 18t10 22q8 12 12 22t12 22q0 8 4 16l8 16t6 16t6 16q-110 8 -328 24q-12 0 -18 2t-14 2h-8h-4t-8 -2t-8 -2l-2 -2t-2 -6q-8 -12 -18 -24t-22 -24q-8 -8 -18 -16t-22 -12l-2 -2l-2 -2h-2h-2 q-8 -4 -20 -6t-24 -2h-24t-24 4q-6 2 -16 4q-96 26 -388 108h-2h-2h-2h-2zM240 224h-2h-6h-2h-2v-72h2h2h6h6h2h2h4h4h4h8h8t8 -4h2h2h2h2q4 -4 8 -4t4 -4q4 0 8 -2l4 -2q4 -4 8 -6t8 -6q4 0 8 -2l4 -2q8 -4 12 -4t8 -4h8h12h8h8q4 4 10 4t10 4l4 2t8 2t8 4t8 4q4 4 8 6t8 2 q4 4 8 6t8 2h4v0q4 4 8 4h8h8h12h8h8h8t8 -4h2h2q4 0 8 -2t8 -6q4 0 8 -2t8 -6q4 0 8 -4t8 -4t8 -2l4 -2q4 -4 10 -4t10 -4h8h8h12h8l12 6t12 2q0 4 2 4h2q4 0 6 2l2 2q4 0 4 2v2q4 0 6 2l2 2h4h8q4 4 8 6t8 6h2h2h4v0q0 4 2 4h2h2h2h6h6h2h2h2h2h8h8t6 -2t6 -2h6t2 -4h2h6 t6 -2t2 -6h6t6 -4q4 0 8 -2t4 -6q4 0 8 -2l4 -2q8 0 12 -2t8 -6h8h8h8h8h8q8 4 12 4t8 4q4 0 6 2t6 2t8 4t8 4q4 4 10 6l6 2q4 4 8 6t8 2h4v0q4 0 8 2t8 2h8h8h8h8t8 -2t8 -2h4v0q4 0 8 -2t4 -6q4 0 10 -2t10 -6q4 0 8 -4t8 -4t6 -2t6 -2q4 -4 8 -4t8 -4h12h8h4h12h8l12 6 t12 2q0 4 2 4h2q4 0 6 2l2 2q4 0 4 2v2q4 0 6 2l2 2h4h8q4 4 8 6t8 6h2h2q4 0 8 2t8 2h6h6h6h6t8 -2t8 -2h4h4q4 -4 8 -4t4 -4q4 0 8 -2l4 -2q4 -4 8 -6t8 -6q4 0 8 -2l4 -2q8 -4 12 -4t8 -4h8h8h4h14h10q8 4 14 6t10 6q4 0 8 2l4 2q4 4 8 6t8 2t6 2t6 2q4 4 6 4t10 4v0h4 l4 2t8 2h8h8h4v0h4v0h4h4h4h4t6 -2t6 -2h4v0q4 0 8 -2t8 -6q4 0 8 -2t8 -6q4 0 8 -4t8 -4t8 -2l4 -2q4 -4 8 -4t8 -4h12h8h10h10l12 6t8 2q4 4 8 4h4l6 6t6 2l2 2l2 2h2h2q4 4 8 6t8 2t6 2t6 2h4v0l4 4v0v72h-6t-6 -4h-8t-8 -4h-4h-4v-2t-4 -2h-2t-6 -4h-2h-2q-4 -4 -8 -6 t-8 -6h-4t-8 -4v0h-4q-4 -4 -8 -6t-12 -2h-8h-8h-12h-8t-10 2t-10 6h-2h-2q-4 4 -8 6t-8 2t-6 2t-6 2q0 4 -2 4h-6q0 4 -2 4h-6l-2 2t-6 2l-4 2l-4 2q-4 0 -8 2t-8 2h-8h-8h-2h-2h-10t-10 -4h-10t-10 -4h-2h-6v-2t-4 -2l-2 -2t-6 -2t-6 -2l-2 -2q-4 -4 -8 -6t-8 -2t-6 -2 l-2 -2h-4v-4h-2h-2q-4 0 -8 -2t-8 -2h-8h-8h-8h-8t-8 2t-8 2v0h-4v4v0q-4 0 -6 2t-6 2t-8 2t-8 6l-4 2t-8 2l-2 2l-2 2q-4 0 -6 2l-2 2h-2h-2q-4 4 -10 4h-10q-4 4 -8 4h-8h-4v0h-4h-4h-2h-2q-4 0 -6 -2t-6 -2t-8 -2t-8 -2v0h-4l-2 -2l-2 -2h-2t-6 -4h-2h-2q-4 -4 -8 -6 t-8 -6h-6t-6 -4h-2h-2q-4 -4 -8 -4t-12 -4h-8h-8h-8h-8t-8 2t-8 2h-2h-2v4v0q-4 0 -6 2t-6 2t-8 2t-4 6q-4 0 -6 2t-6 2l-4 2l-4 2l-2 2t-6 2h-2h-2q-4 4 -10 4h-10q-4 4 -10 4h-10h-4h-10t-10 -4h-10t-10 -4h-2h-6l-2 -2l-2 -2q-4 0 -6 -2t-6 -2l-2 -2t-6 -2l-6 -6t-6 -2 t-6 -2t-6 -2v0l-4 -4q-4 0 -8 -2t-8 -2h-8h-8h-8h-8h-4t-4 4h-6h-6v4v0h-2h-6q0 4 -2 4t-6 4h-2h-6q0 4 -2 4h-2l-2 2t-6 2l-2 2t-6 2v0h-4v4v0q-8 0 -12 2t-12 2q-4 4 -10 4h-10h-2h-2h-12t-14 -2t-10 -6q-4 0 -6 -2t-6 -2t-6 -2l-6 -6h-4t-4 -4q-4 0 -8 -2t-8 -2l-2 -2 t-6 -2v0l-4 -4q-4 0 -8 -2t-8 -2h-8h-8h-10h-10t-8 2t-8 2h-2h-2v4h-4l-2 2t-6 2t-8 2t-8 6l-2 2t-6 2t-6 2l-2 2q-4 0 -4 2t-4 2h-2h-2q-4 4 -10 4h-10q-4 4 -10 4h-10h-10t-10 -4h-10t-10 -4h-2h-6v-2t-4 -2l-2 -2t-6 -2t-6 -2l-2 -2q-4 -4 -8 -6t-8 -2l-4 -2l-4 -2h-4v-4 h-2h-2q-4 0 -8 -2t-8 -2h-10h-10h-8h-8h-4t-4 4h-6h-6v4v0h-4h-4q0 4 -2 4t-6 4h-4h-4q0 4 -2 4h-2q-4 0 -6 2l-2 2l-2 2t-6 2v0h-4v4v0q-8 0 -12 2t-12 2q-4 4 -10 4h-10z" />
<glyph unicode="3" d="M760 1328q70 -106 276 -424q-4 -8 -6 -10t-6 -10q0 -4 -2 -8t-2 -12q4 -4 4 -10v-10q4 -4 8 -10t8 -6q4 -8 8 -8t8 -4t10 -2t10 -2q8 2 24 4q20 -24 76 -96q-6 -2 -20 -8q-28 16 -108 68q-8 8 -12 8h-8q-4 4 -8 4t-8 4q-8 -8 -12 -6t-8 -2t-8 -4t-8 -8q-68 -58 -204 -176 q-4 -8 -8 -10t-8 -10q0 -4 -2 -8t-2 -16v-8v-12q4 0 8 -8t8 -8q4 -8 8 -10t8 -6t10 -4t14 -4q4 4 10 2t10 2l12 6t8 10q58 48 172 144l128 -80q-30 -20 -124 -80q-4 4 -6 -2t-6 -6t-6 -6t-6 -6q-34 -68 -100 -204q-4 0 -6 -8t-2 -12v-12t4 -8q0 -12 4 -14t8 -10q4 -4 8 -6 t8 -10q8 4 12 0t8 -4q8 4 14 2t10 2q8 0 12 4t8 4q4 4 8 10t8 10q32 62 96 188q40 22 160 92q0 4 2 2t2 2t2 2t2 2q18 12 56 36q16 -18 60 -68v-4l-4 -4v-4v-8q-4 0 -4 -8v-12q4 0 6 -8t6 -8q0 -8 4 -8t8 -8q4 -4 8 -4t8 -4q-106 -160 -320 -480q8 -2 32 -4q78 120 316 484 l4 2t4 -2q4 0 6 4t6 0q50 36 152 108q0 -4 4 2l4 6q4 0 6 4l2 4q0 8 2 8t2 4q0 8 2 10t2 10q-2 90 -8 268v6v6t-2 4t-2 4t-4 14t-12 14q-4 4 -10 12t-14 8q-8 12 -16 14t-16 6q-8 8 -20 8t-20 8q0 -4 -2 -2t-2 -2q0 4 -2 2t-2 2q0 -4 0 -2t0 -2q0 4 -2 2t-6 -2q0 4 0 2t-4 2 l-420 -12q-4 4 -6 2t-6 -2l-2 -2t-6 2q-90 136 -268 408q-8 0 -28 4v-4zM440 1324q-12 -8 -48 -28q26 -42 108 -168q10 -70 44 -276l432 -944q12 6 52 28q-108 232 -428 928q-10 72 -44 292q-28 42 -116 168zM1480 1168q-12 -4 -22 -4t-22 -8q-8 -4 -18 -8t-18 -16 q-8 -4 -14 -16l-10 -20t-6 -20t-2 -20q0 -16 2 -26t6 -22t12 -18t16 -18q8 -4 16 -12t16 -12q12 0 24 -4q6 -2 12 -2t12 2q12 -4 22 0t18 4q12 4 20 12t16 12q12 16 18 22t10 18t4 22v26q0 4 -2 18t-6 22t-10 18t-14 14q-8 12 -18 16t-22 8q-8 8 -18 8t-22 4zM1320 816 q-30 -20 -124 -76l-64 72q48 2 188 8v-4zM1524 812v0v-4q0 4 0 2t0 2l-4 -4q0 2 4 8v-4zM1528 680v-96l-128 -88q0 4 0 2t0 2q-18 20 -56 60q46 30 184 124v-4z" />
<glyph unicode="4" d="M676 728q0 12 -2 24t-6 20q0 12 -6 20t-14 16t-18 16t-22 12q-8 4 -18 6t-22 2q-8 2 -14 2h-8q-10 -2 -22 -6q-8 -4 -18 -10t-18 -14t-14 -16t-14 -20q-4 -8 -6 -20t-2 -20q0 -12 2 -24t6 -24l8 -16t12 -20q8 -4 16 -10t16 -14q8 -4 16 -6t20 -2h2t2 -4h4h4q12 0 22 2 t18 6q12 4 22 10t18 14t14 16t10 16q8 12 10 22t2 22zM1692 780q-4 4 -6 10t-10 10q-4 4 -8 6l-12 6q-4 0 -10 2t-14 2q-4 0 -10 -2t-10 -6q-180 -66 -540 -200l-448 472l-8 8t-12 4q-4 4 -10 6t-10 2q-8 0 -14 -2t-14 -6q-4 0 -8 -4l-8 -8l-8 -8t-8 -12q0 -4 -2 -10t-2 -10 v-14v-14l8 -8l8 -8q16 -16 72 -78t120 -134q64 -68 118 -128t66 -68q-60 20 -102 32t-74 16q-28 8 -48 8t-32 -8q-8 -8 -16 -14t-16 -14q-8 -4 -14 -10t-10 -14q-8 -8 -14 -22t-6 -26t2 -26t10 -26l96 -180q28 -52 108 -208q4 -4 6 -8t6 -8t8 -6t12 -2q4 -4 8 -4h8q8 0 12 2 t8 6q8 0 12 4t4 8q4 4 6 8t6 8q0 8 2 12t-2 8v12t-4 8l-132 252q4 -2 16 -4q10 -16 40 -60q40 -54 156 -216l8 -8l8 -8q4 0 8 -2l12 -6h10h10q4 4 8 6l12 6l6 6l6 6l6 12t2 8v12t-4 8q0 8 -2 12t-6 8q-46 64 -136 192h2h2q4 4 8 4t8 4q8 4 14 6t14 6q234 104 700 312 q4 0 8 4l8 8t8 10t8 10q0 8 2 14v4q0 4 -2 6v10t-4 14z" />
<glyph unicode="5" d="M656 1176h-24t-24 -4q-8 -4 -18 -8t-22 -12q-12 -4 -22 -12t-22 -20q-8 -8 -14 -20t-14 -24q398 -106 1192 -316q2 8 2 16v8q-2 12 -6 24q0 16 -6 28t-14 24q-8 16 -20 28l-24 24t-28 18t-32 10q-286 78 -856 232q-8 0 -14 2t-14 2h-10h-10zM436 856q-18 -66 -72 -260 q-4 -20 -6 -38v-12q0 -12 2 -22l8 -32t16 -32q8 -16 20 -28l24 -24t28 -18t32 -10q286 -78 856 -232q20 -4 36 -6t32 -2q20 4 36 10t32 18q16 8 28 18t24 22q12 16 18 32t10 32q24 86 72 260q-300 80 -1196 324zM568 672h6h2q4 0 6 -2t6 -2q-12 -46 -48 -180l-12 6l-12 6 l-8 8l-8 8q0 8 -2 14t-6 10q0 8 2 12t2 12q6 22 16 64q4 4 6 10t6 10l8 8l8 8q4 0 8 2t8 2q4 4 6 4h6zM632 656q18 -6 72 -20q4 0 8 -2t8 -6l8 -8l8 -8l6 -12t2 -12v-10t-4 -14v-8l-128 32q4 16 20 68zM600 548q32 -10 128 -36q-2 -2 -4 -8q0 -8 -4 -14t-8 -10q0 -4 -6 -8 t-10 -8q-4 0 -10 -2t-10 -6h-10t-10 4q-24 6 -72 16z" />
<glyph unicode="6" d="M1308 1080h-8h-8h-4t-8 -4v0h-4q-12 -4 -20 -8t-16 -12q-8 -4 -16 -12t-12 -20q-8 -8 -10 -18t-6 -22v-22t4 -22t8 -22t8 -18l16 -16t20 -12q8 -8 20 -10t20 -6h22t22 4t22 8t18 8l16 16t12 20q8 8 12 20t4 20v22t-4 22t-8 22t-12 18q-4 8 -12 16t-20 12q-4 4 -12 8 t-16 4q-4 4 -12 4h-16zM648 1052q-2 -4 -12 -12l40 -40l-8 -8q-4 0 -4 -2t-4 -6v-4v-4v-6v-6q4 0 4 -2t4 -6l12 -12l2 -2t2 -6h8h4h6h2l6 6t6 2l8 8q4 -6 20 -20l-8 -8q0 -4 -2 -6t-2 -6v-2v-6v-6v-6l2 -2t2 -6q4 -2 12 -8l6 -6l2 -2h6h6h6h2q4 0 6 2t2 6q2 2 8 4 q6 -4 20 -16l-8 -8q0 -4 -2 -6t-2 -6l-2 -2t-2 -6t2 -6t2 -6l2 -2l2 -2l12 -12l6 -6l2 -2h6h6h4h4t6 2t2 6q2 2 8 4q34 -34 136 -132v-2v-2h-2t-2 -4v-2v-6h-2t-2 -4v-6v-6t2 -8t2 -8q4 -4 6 -8t6 -8l8 -8t8 -4q62 -26 188 -80q4 0 6 -2t6 -2h6h6q-72 -50 -216 -152l-8 -8 t-8 -12q-4 -4 -6 -10t-2 -10q-4 -8 -2 -14t2 -14q0 -4 2 -10t6 -10l10 -10l10 -10q4 0 10 -2t14 -6h10h10q8 4 14 6t14 6q60 42 180 128q58 -32 228 -128q4 -4 12 -8t16 -4t16 -2t16 -2h16h12l16 8t12 8h6h2q0 4 2 4t6 4l2 2l2 2l6 6t6 2q8 8 14 20l10 20q8 12 10 24t2 24 v12t-4 8v8v12l-12 24v0h-4v4v0v2v2v2v2h-4q-30 70 -92 212l-48 112q0 8 -4 14t-8 10q0 8 -4 14t-12 10l-2 2t-6 2q0 4 -2 4t-2 4l-16 8t-16 4q-8 4 -16 6t-16 2t-18 -2t-22 -6q-8 -4 -16 -10t-20 -14v-4h-4q0 -4 -6 -10t-14 -18t-20 -28t-28 -36q-4 -8 -10 -16t-14 -16 l-8 -16t-12 -16q0 -4 -2 -6l-6 -6l-2 -4t-6 -4l-144 60q-8 4 -12 4h-12h-8t-8 -4h-6t-6 -4l-2 -2l-2 -2l-136 136q2 0 8 4q4 4 4 6v2q4 4 4 6v6v6t-4 2v6t-4 6l-12 12l-2 2t-6 2h-4h-4h-6h-6l-2 -2t-6 -2l-8 -8q-6 4 -20 16l8 8l6 6l2 2v6v6v6v2q0 4 -2 6l-6 6l-12 12l-2 2 t-6 2h-2h-6h-6h-6l-2 -2l-6 -6q-2 -2 -8 -4q-6 4 -20 20l8 8l2 4l2 4q4 4 4 6v6v4t-4 4q0 4 -2 6l-2 2l-12 12q-4 4 -6 4h-6q0 4 -2 4h-6h-4t-8 -4h-2t-2 -4l-8 -8zM556 964v-22v-22q0 -8 -2 -18t-6 -18q-4 -12 -8 -22t-8 -22q-4 -8 -10 -18t-10 -18q-8 -8 -14 -18t-14 -18 q-4 -8 -10 -18t-14 -18v12v8q0 8 -2 14t-2 10t-2 8t-6 8q0 8 -2 14t-6 10q0 -8 -2 -14t-2 -14t-4 -14t-4 -10q-4 -8 -8 -14t-8 -14q0 -8 -4 -14t-8 -14q0 -4 -4 -10t-8 -14q0 -4 -2 -10t-2 -14v0v-4h-2h-2q0 -12 -2 -20t-2 -20q0 -8 2 -16t2 -16l8 -16l8 -16t10 -16t14 -16 q4 -8 14 -14t18 -14l24 -16l24 -16q-4 12 -8 20t-8 12v16t-4 16v10v10q4 8 6 14t2 10l6 12t2 8q4 8 8 12t4 8q4 4 8 10t4 10q4 4 6 10t6 10v2v2q4 4 4 6v2q0 4 2 6l2 2v6t4 6v2v2v6v2l2 -2l2 -2v-2t4 -6v-2v-6q4 -4 4 -6v-6h4v-4v-8v-12v-8v-12q4 4 8 10t4 10q4 8 8 14t4 10 l2 2l2 2q4 8 6 14t2 14t2 14t2 10v14v10v8v8q8 -8 16 -14t12 -14q8 -4 14 -12t14 -20q0 -4 4 -8t4 -8q4 -4 6 -10t6 -10q0 -4 2 -8t2 -12q4 -4 6 -8t2 -8q4 -12 6 -22t2 -22v-18v-22q0 -8 -2 -18t-6 -22q0 -8 -4 -18t-8 -22q16 12 30 22t26 18l22 22t18 22q8 8 14 20l10 20 q8 12 10 24t6 20v8v8v8v8v14t-4 10v16t-4 12q-4 12 -6 22t-6 18l-8 16t-12 16q-4 12 -8 18t-12 14q-4 8 -8 14t-8 10q-8 4 -12 10t-8 6q0 4 -4 8t-8 4q4 -4 4 -6v-6q4 -4 4 -8v-8q4 -4 4 -8v-12q0 -4 -2 -8t-2 -8t-2 -8t-6 -8l-2 -4t-6 -4q-4 12 -8 26t-12 22l-8 24t-12 20 q-4 8 -10 16t-14 16q-4 8 -10 14l-10 10q-8 4 -12 8t-12 8q-4 4 -8 6t-8 6q-4 0 -6 2t-6 2l-2 2zM1336 636q20 -46 80 -180l-120 64q-4 4 -8 6t-8 2h-8h-8h-2h-2q0 4 2 4h2l6 6t2 6q22 30 64 92zM412 452q-6 -22 -28 -88q100 -32 396 -124q8 22 28 88q-98 30 -396 124z M824 424l-176 -32q42 -14 168 -52v-2v-2h4v0q10 2 28 4q-6 20 -24 84zM404 344l-40 -8q6 -22 24 -84q48 8 192 36z" />
<glyph unicode="7" d="M1024 1288h-4v-4v-112q-12 -12 -22 -24t-22 -24q-8 -12 -20 -24l-24 -24h188q-12 12 -22 24t-22 24t-22 24t-22 24v68h6h6h6t2 -4h2h2h2h6l2 -2l2 -2h4h4h6h6h6h6t8 2t8 2q4 4 10 8t10 4h-8h-8q-4 4 -6 4h-6l-2 2t-6 2v0l-4 4l-2 2l-2 2h-2h-2l-6 6t-6 2l-6 6t-6 2h-8h-8 q-4 4 -8 4h-8v4v0h-4v0h-2h-2zM916 1056q-8 -4 -16 -12l-16 -16l-12 -12l-12 -12l-28 -28t-28 -24q-12 -12 -26 -24t-26 -24q-36 -28 -70 -54t-70 -54q-32 -24 -68 -48t-72 -44h1108l-2 2t-6 2l-2 2t-6 2q-32 20 -66 44t-66 44q-32 24 -64 50t-64 54q-16 12 -30 24t-26 24 t-26 24t-26 28q-8 4 -16 12t-16 12q-4 8 -12 16l-12 12h-224zM456 684v0v-4t2 -4t2 -4v0v-4v-2v-2l2 -2l2 -2v-2v-6q4 0 4 -2v-6q4 0 4 -2v-6q4 0 6 -2l2 -2q0 -4 2 -6l2 -2q4 0 6 -2l2 -2q4 -4 8 -6t8 -6q4 0 8 -2t12 -2h2h2h2h2h14h10q8 4 12 8t12 8l2 2l2 2q4 0 4 2t4 6 q4 0 6 4t2 8q4 4 6 8t2 8q4 4 4 6v6t2 6t2 6h-164zM620 684v-6v-6q4 -4 4 -6v-6h2t2 -4v0v-4l2 -4t2 -8q4 0 6 -4t6 -4q0 -4 2 -6l2 -2q4 0 4 -2t4 -2q4 -4 10 -8t10 -8h14h10h14h10q4 4 10 8t10 8q4 0 6 2l2 2l2 2t2 6q4 0 8 4t4 8q4 4 6 8t2 8t2 6t2 6v6v6h-160zM784 684 v-6v-6t2 -6t2 -6v-4v-8q4 0 6 -2l2 -2q0 -4 2 -6t2 -6l2 -2l2 -2q4 0 4 -2v-6h6h2q4 -8 10 -10t10 -6q8 0 14 -2t14 -2t14 2t10 2l12 6l12 6v0v4h2h2q0 4 2 6l2 2q4 4 6 8t6 8t6 8t2 8t2 6t2 6v6v6h-160zM944 684q0 -4 2 -6t2 -6v-6v-6q4 -4 6 -8t2 -8q4 -4 6 -8t6 -8l2 -2 t2 -6h4h4q0 -4 2 -6t2 -6h8t4 -4h8t8 -4h8h8h6h6q4 4 8 4t8 4h6h2l6 6l6 6l6 6l2 2q4 4 6 8t2 8q4 4 6 8t6 8v6v6q4 4 4 6v6h-164zM1108 684v-6v-6q4 -4 4 -6v-6q4 -4 6 -8t2 -8q4 -4 6 -8t6 -8l2 -2l2 -2v-2t4 -2v-4v0h2h2q4 -4 10 -8t10 -8h14h10h14t10 4q8 4 14 6t10 10 h4v0l4 4l4 4t6 8t2 8q4 4 6 8t2 8q4 4 4 6v6t2 6t2 6h-164zM1272 684v-6v-6t2 -6t2 -6t2 -8t2 -8l8 -8l8 -8v-4v-4h4h4q4 -8 10 -10t10 -6q8 -4 14 -4h14h14t10 4q8 4 14 6t10 10h2h2l4 4v4l8 8t4 8q4 4 6 8t2 8t2 6t2 6v6v6h-160zM1432 684q0 -4 2 -6t2 -6v-6t4 -6 q0 -4 2 -8t2 -8l8 -8t4 -8l4 -4v-4h4v0q8 -8 14 -10t10 -6q8 -4 14 -4h14h2h2h2h6t8 2t8 2q8 4 12 8l8 8h2h2q0 4 2 6l2 2q4 0 4 2v2q4 4 4 6t4 6l2 2l2 2q0 4 2 8l2 4v4v0q2 6 4 20h-164zM1268 616v-4h-4v0v-4q-4 0 -6 -4t-6 -8q-4 0 -8 -2l-4 -2v-6v-6l2 -2l2 -2 q4 -12 6 -24t6 -24q4 -8 6 -18t6 -18q8 -28 16 -52l16 -48q8 -20 14 -38t14 -34q4 -12 10 -24l10 -20t10 -16t10 -12h132q-8 8 -12 18t-12 18l-8 16t-12 20q-8 20 -18 40t-22 40q-8 20 -16 44t-20 48q-4 8 -8 18t-8 22t-8 22t-8 22v2v2h-10h-14q-4 4 -10 6t-10 2q-4 4 -8 6 t-8 2l-8 8t-4 8h-4v0v0h-4v2v2zM1108 616v-4v0h-2h-2v0h-4v-2v-2l-8 -8t-12 -8q-4 0 -8 -2t-8 -6h-4v0h-2t-2 -4h-8h-8t-6 -2t-6 -2t-4 2t-4 2v0h-4v0v-4q-4 0 -6 2t-6 2h-6h-6v0h-4v4v0q-8 0 -12 4t-12 4l-8 8l-8 8q0 4 -2 4h-2h-2h-2l-2 -2l-2 -2v-2t-4 -2l-2 -2l-2 -2h-2 t-2 -4q-2 -2 -12 -8v-2t-4 -6v-2v-2q-4 -12 -6 -22t-6 -22q0 -12 -4 -22t-4 -18q-8 -28 -14 -52t-14 -48q-4 -20 -12 -38t-12 -34q-4 -12 -8 -22t-8 -18t-6 -16t-6 -16v0v-4h84v4v0h4v0l10 10t10 14t8 20t12 28q4 12 6 28t6 32t8 36l8 40h100v4h24q0 -24 4 -44t8 -36l8 -32 t8 -28q4 -16 8 -28t8 -20q8 -8 12 -14t12 -10h86h2h-2h-2q0 8 -4 16l-8 16t-8 18t-8 22q-4 16 -10 34t-14 38q-4 24 -12 48t-12 52q-4 8 -6 18t-6 22t-6 22t-6 22v2v2q0 4 -2 6l-2 2l-12 12h-2h-2q0 4 -2 4h-2q0 4 -2 4t-2 4h-2h-2v0v4zM780 612h-4v0v-2v-2q-4 -4 -8 -6 t-8 -6q-4 0 -8 -4t-8 -4q-4 -4 -10 -6t-10 -2h-10h-14v-4v0q-4 -12 -8 -22t-8 -22t-8 -22t-8 -18q-8 -24 -18 -48t-22 -44q-8 -20 -18 -40t-18 -40q-4 -12 -10 -20t-10 -16t-10 -18t-10 -18v0h-4v0v-4h132v4v0h4v0q4 4 8 12l8 16l10 20t10 24q8 16 14 34t14 38l16 48t16 52 q4 8 8 18t4 18l8 24l8 24v2v2v6t4 2q-4 4 -8 6t-8 2q0 4 -4 6t-8 6v2v2h-2h-2zM1436 608q4 -4 6 -8t2 -8t2 -8t6 -8q4 -12 8 -22t8 -22t8 -22t8 -18q8 -28 18 -50t18 -46q12 -20 22 -40l18 -36q4 -12 10 -20t10 -20q4 -8 10 -16t10 -16h96q-4 8 -10 18t-14 18q-4 8 -8 18 t-12 18q-12 24 -24 44l-24 40q-12 24 -22 46t-18 42l-10 20l-10 20q-4 12 -8 22t-8 22v4v0v0h-4h-2h-6h-2h-2h-16h-16l-16 8t-12 8t-6 4h-2q0 4 -2 6t-6 2zM612 608q-4 0 -4 -2t-4 -6l-2 -2t-6 -2q-4 -4 -12 -8l-16 -8h-12h-20h-2h-6h-2h-2h-2h-2v-2v-2q-4 -12 -8 -22 t-8 -22q-4 -8 -8 -20t-12 -20q-8 -20 -18 -42t-22 -46l-24 -40t-24 -44q-4 -8 -10 -18t-14 -18q-4 -8 -8 -18t-12 -18v0v-4h96v4v0q8 8 12 16l8 16q4 12 10 20t10 20q12 16 20 36l16 40q12 24 22 46t18 50q4 8 10 18t10 22t8 22t8 22q0 4 2 8t2 8q4 4 4 8t4 8zM488 600 l-176 -280l-40 -64q-6 8 -24 36v0h-4v4h-4v0h-4h-2t-2 -4h-2t-2 -4l-4 -4v-4h2h2q10 -12 32 -36h16v4v0h4v0q50 82 152 244q4 4 12 20q4 8 10 16t10 16t10 16t10 16l4 4v4l4 4l-2 2l-2 2v4v4zM1564 596v-4l-4 -4v-2v-2v-2v-2h2t2 -4q4 -8 10 -16t10 -16t10 -16t10 -16 q4 -6 12 -20q38 -62 152 -244h4v0v0v-4h16q8 8 32 36h2h2v4v4h-4v0q0 4 -2 4h-2q0 4 -2 4h-6h-4l-4 -4l-24 -36q-52 84 -212 340zM1132 592l4 -4v4v0h-2h-2zM916 592v0h-4v-2v-2z" />
<glyph unicode="8" d="M924 1020q-4 0 -10 -2t-10 -6q-4 0 -10 -4t-6 -8q-16 -16 -18 -30t-2 -30q0 -12 8 -24t20 -24q-16 -20 -36 -34t-36 -22q-12 -8 -30 -12t-26 -4q-36 -4 -64 0t-60 16q-28 12 -48 32t-44 48q4 0 0 0h-8l-6 -2t-6 -6q-8 -4 -10 -6t-10 -6q-4 -4 -6 -10t-14 -10q0 -4 -6 -10 l-10 -10q0 -4 -6 -8t-6 -12q-8 -4 -10 -8t-6 -8t-2 -6t-2 -6q-10 -72 -28 -216q0 -8 6 -14t10 -14q8 -4 18 -8t18 -8q16 -4 28 -6t28 -6h38h42l6 -2t10 -2t12 -2t12 -6q4 0 8 -2l12 -6q8 0 18 -4t26 -8t36 -10t32 -10t26 -6t22 -2q20 4 38 2t38 -2q24 0 42 -2t42 -6 q8 0 26 -2t34 -6q16 0 38 -4t42 -8q28 -4 46 -6t38 -6t32 -6t28 -2q16 -4 38 -6t38 -2h36h36q36 0 64 4l56 8q32 8 52 18l44 22q12 12 28 26t24 26q12 16 22 34t14 38q-8 16 -22 28t-30 20q-12 12 -34 20t-38 12q-12 0 -18 2t-18 2t-20 2t-24 2q-8 0 -16 2t-12 2h-12h-8h-4 h-4l2 -2t-2 -2l-24 -48q-8 -4 -6 -4t-2 -4h-4h-4q0 -4 -4 -4h-4l-4 2t0 2q-8 0 -8 2t-4 2v6t-4 2q4 4 2 6l-2 2q4 4 4 6t4 2q8 14 24 44q-4 4 -10 4h-10q-4 4 -10 6t-6 6q-8 0 -6 0t-2 0l2 -2t-2 -2q-8 -14 -24 -44q-4 -4 -4 -6t-4 -2t-2 -2t-6 -2q4 0 0 0h-4l-4 2l-4 2 q-4 0 -4 2t-4 2q-4 4 -2 6t-2 2q4 4 2 6l-2 2q4 4 2 4t2 4q8 14 24 44q0 4 -6 6t-10 2q-4 4 -10 6t-6 6q-4 0 -2 0t-2 0l-24 -48q-4 0 -4 -2t-4 -6h-4h-4h-4h-4h-4t0 0q-8 4 -6 4t-2 0q-4 4 -2 6t-6 2q4 4 2 6l-2 2q4 4 4 6t4 2l24 48q0 4 -6 6t-10 2q-4 4 -10 8l-6 4 q-10 -14 -32 -44q4 -4 0 -4t-4 -4h-4t0 0l-8 -4h-4l-4 4h-4l-2 2l-2 2q0 4 -2 6t2 2q-8 4 -6 6t-2 2q0 4 4 6t0 2q10 16 32 48q-4 0 -2 0t-2 0q0 4 -6 6t-10 6q0 4 -6 6t-6 6q-10 -16 -32 -48q4 0 0 -2l-4 -2l-4 -2t0 -2h-8h-4h-4l-4 4l-2 2l-2 2l-2 2t2 6q-8 0 -6 2t-2 2 q0 4 4 6t0 6q10 16 32 48q-4 0 -2 0t-2 0h4t0 0q-4 4 -10 6t-10 6q0 4 -6 8l-6 4q-10 -14 -32 -44q4 -4 0 -4t-4 -4h-4t0 0l-8 -4h-4q-4 4 -2 4t-6 0q4 0 0 2l-4 2q0 4 -2 6t2 2q-4 4 -2 6t-2 2q0 4 2 6t-2 2l36 48q-4 0 -2 2t-2 2q-8 8 -22 18t-26 22q-8 12 -22 22t-22 22 q-12 4 -16 8t-12 4l-12 6t-12 2zM1740 552q-12 -20 -18 -40t-22 -40q-12 -16 -26 -30t-34 -26q-16 -16 -42 -26t-54 -18q-24 -4 -56 -8t-64 -4h-38h-38q-20 4 -38 6t-42 2q-8 0 -24 2t-32 6t-40 6t-44 6q-28 4 -46 8t-38 4q-20 4 -34 6t-30 6q-20 0 -42 2t-42 2q-16 4 -38 4 h-38h-22t-26 4t-34 10t-42 10q-8 8 -20 10t-20 2q-4 4 -10 6l-6 2q-12 4 -16 6t-12 2t-10 2t-10 2h-42h-38q-12 4 -28 6t-24 6q-12 4 -20 8l-16 8t-12 10t-8 14v-4q-8 -8 -10 -18t-6 -22t-4 -22t-4 -22q0 -8 -2 -18v-8q0 -6 2 -14q4 -12 4 -22t8 -18q4 -12 18 -20t26 -16 q16 -4 36 -8t36 -8q24 -4 44 -4h44t44 4t44 8l6 2t10 2q8 4 18 6t14 6q12 0 18 4t14 4q12 4 18 4t14 4q16 4 38 6t38 2q20 4 42 2t38 -6q16 0 26 -2t26 -6q20 -4 36 -6t44 -6q12 -4 32 -6t32 -6q16 0 32 -2t24 -6q40 -4 74 -6t66 -2q36 0 66 2t66 6q12 4 32 6t32 6 q16 8 34 14t30 14q16 8 26 16t22 16q16 8 24 18t20 22q4 8 12 18t12 18q4 12 10 24t2 20q4 4 4 6v2q4 0 2 2t2 2q-4 8 -2 12t-2 8q0 4 2 8t-2 8h4z" />
<glyph unicode="9" d="M560 1196q-36 -10 -140 -36q-2 -34 -4 -132q4 4 -2 6t-10 2h-4h-4h-14t-6 -4q-4 0 -6 -2t-10 -2q0 -4 -4 -6t-4 -6t-2 -6v-2t2 -4q-4 -4 -2 -8t2 -8l4 -4l4 -4q8 -4 10 -6t6 -2t6 -2t14 -2l6 2l6 2q4 0 8 2t4 6q8 0 8 4t4 4q4 4 2 8t2 8q-2 30 -4 92q28 8 116 32 q-2 -20 -4 -76l-6 2l-6 2l-6 2l-6 2q-8 0 -10 -2t-10 -2q-4 0 -6 -2t-10 -6q4 -4 -2 -6t-6 -6q4 0 0 -4t0 -8q-4 -4 0 -6t0 -6q0 -4 6 -6t2 -6q8 -4 10 -6t6 -2h10h10h6h6q4 0 10 2t2 6q8 4 8 6t4 6t4 6t4 6q-2 58 -4 172zM548 1160q-2 -4 -4 -16q-28 -8 -108 -28 q-2 4 -4 16q28 6 116 28zM1036 1140q-12 0 -28 -4t-28 -8t-26 -12t-18 -20q-16 -8 -22 -20l-14 -28q-8 -12 -8 -26t-4 -30q4 -16 4 -30t8 -30q8 -12 14 -24t22 -20q4 -12 18 -20t26 -16q12 -4 28 -6t28 -2q20 0 32 2t28 6q16 8 26 16t22 20q8 8 18 20t10 24q4 16 10 30 q4 8 4 18q0 6 -2 12q4 16 -2 30t-10 26q0 16 -10 28t-18 20q-12 12 -22 20t-26 12t-28 8t-32 4zM720 980q-14 -4 -56 -12q2 -32 4 -128q-4 0 -6 2t-10 2q-4 0 -4 2t-8 2l-8 -2l-8 -2l-6 -2t-6 -6q-8 0 -8 -4t-4 -8q-4 0 -2 -4t-2 -8q4 -4 2 -6t2 -6t4 -6t8 -6l6 -2t6 -6h8h8 h10h6q8 4 8 6t8 2q0 4 4 6t4 6t2 6t-2 6q2 42 4 128l32 8q2 8 4 32zM1508 928h-4h-4h-4t-4 -4q-8 0 -14 -4t-14 -8l-8 -8l-12 -12q-30 -52 -88 -156q-38 14 -152 60l-6 2t-10 2l-10 2t-14 2h-256q-4 0 -16 -2t-20 -6q-4 -4 -12 -8t-8 -8q-8 -8 -10 -12t-6 -8q-4 0 -4 -2 t-4 -2q-60 -86 -180 -256q-8 -4 -8 -8t-4 -12q-4 -4 -4 -8t-4 -12q8 -16 10 -28t14 -24q12 -8 22 -12t30 -8h6h6q4 4 8 4t4 4q38 10 116 28q0 -46 -4 -184h392q0 96 -4 388l136 -48q4 -4 12 -4h12h12t8 4q12 0 16 4l8 8q8 4 10 8t10 12q38 70 116 208q8 8 10 14t2 10 q2 4 2 10v6q-2 8 -2 16q-4 4 -6 12t-10 12q-4 4 -6 10t-14 10l-6 2t-10 2q-4 4 -10 4h-6h-4zM840 716q50 -16 200 -60l168 56q2 -66 4 -264l-176 -56l-144 48q24 8 34 18l18 18q12 12 10 26t-2 26q-8 16 -14 26t-22 14q-12 8 -26 8t-34 -4q-4 -2 -12 -4q0 36 -4 148z" />
<glyph unicode=":" d="M1348 1200l176 -176l-220 -220q58 -56 228 -220q-44 -44 -180 -176q-54 56 -220 224q-128 -130 -516 -516q-42 44 -172 176l512 512q-54 56 -220 224l168 176q58 -56 228 -224q54 54 216 220z" />
<glyph unicode=";" d="M1468 1252h-2h-2h-6t-6 -4l-2 -2t-6 -2q0 -4 -2 -6l-6 -6v-2v-6v-4v-8h2t2 -4l96 -96l2 -2l2 -2h6h6t6 2l2 2q4 0 6 2l6 6l2 2t2 6q4 4 4 6v2v6v2q0 4 -2 6l-2 2l-96 96q0 4 -2 4h-6v0h-4zM1276 1244h-2h-2q-4 0 -8 -2t-8 -2l-4 -4t-8 -4q-62 -64 -188 -192l-6 -6l-6 -6 v-8v-8v-6v-6t2 -6l6 -6l4 -2t4 -6h8h8t8 2t8 2t6 2l6 6q62 64 188 192l6 6t2 6q4 4 6 8t2 8v4t-4 8q0 4 -2 6t-2 6h-4l-2 2t-6 2q-4 4 -6 4h-6zM1364 1188l-4 -2t-8 -2l-2 -2l-2 -2q-4 0 -4 -2t-4 -6v0l-4 -4q-60 -56 -116 -112l-104 -104t-88 -94t-76 -86l148 -148 q40 36 84 78t92 90q52 48 106 102l114 114l4 4v0q4 4 4 6t4 2q4 4 4 10v10q0 8 -2 16t-10 16q-4 4 -6 10t-10 10q-4 8 -8 14t-12 10v4v0h-2h-2v2v2l-4 4q-2 0 -8 4v4v0h-4q-8 8 -14 12t-10 8q-4 8 -10 12t-10 4l-12 6t-8 2q-4 4 -8 4t-8 4zM804 740q-114 -70 -452 -280 l776 -464q114 70 452 284q-120 70 -484 284v0l-4 -4v0v-4h-4v-2v-2q-4 0 -8 -4l-8 -8q-4 0 -8 -4l-8 -8q-4 0 -6 -2l-6 -6l-6 -6t-6 -2q130 -78 392 -236l-296 -184l-624 368q72 44 288 180l2 2l2 2q0 4 2 6l2 2q4 8 10 16t10 16q8 8 14 16t10 16q-14 8 -40 24zM916 732 q-4 -4 -6 -8t-6 -8t-6 -8t-6 -8q-36 -48 -62 -86t-42 -70q-12 -32 -16 -56q-2 -8 -2 -16q0 -14 6 -24q10 -6 24 -6q8 0 16 2q24 4 52 16q32 16 72 42t88 62l8 8l4 4l8 8t8 4q-46 48 -140 144zM944 356q-12 -8 -52 -32q66 -40 264 -156q12 8 52 32q-66 38 -264 156z" />
<glyph unicode="&#x3c;" d="M600 1284h-4l-4 -4h-4h-8q-8 -8 -22 -18t-26 -26q-8 -12 -18 -28t-14 -40h-4q0 -8 -4 -16l-8 -16q0 -8 -4 -16t0 -20h-4q4 -8 0 -16t-4 -16q4 -4 2 -10t2 -14h-4q4 -8 2 -18t-2 -22q4 -8 4 -16t4 -20h-4q4 -8 4 -14t4 -14t2 -16t6 -12q-16 -16 -24 -26t-16 -18l-12 -12 l-8 -8l-4 -4l-4 -4l-4 -4h2t-6 0q-2 -6 -8 -20h-4l-10 -10t-10 -14q0 -4 -6 -10t-6 -10h-4q-16 -28 -30 -52t-22 -48q-4 -24 -8 -46t0 -46h-4q8 -12 8 -24t4 -24q4 -8 6 -20t14 -20q0 -12 8 -22t12 -18q8 -8 18 -16t14 -16q12 -8 20 -14t20 -10t20 -8t24 -8h-4q12 -4 22 -6 t22 -2h26h26q4 0 14 2t14 2q8 4 16 6t12 2q8 -26 24 -76h-4q4 -4 4 -10v-10q4 -4 2 -10t2 -14h-4q4 -8 0 -16t-4 -16t-6 -16t-10 -12h-4q0 -8 -10 -14t-18 -10q-4 -4 -16 -6t-16 -6q-8 0 -10 -2t-10 -2q-4 4 -8 4h-12q4 0 0 0h-4q0 4 -2 4t2 0q-4 0 -2 0t-2 0h4t0 0 q8 4 10 6t6 2t6 2t10 6q4 8 12 14t8 14l8 16t0 20q4 8 0 14t-8 10q0 8 -6 14l-10 10q-8 4 -14 8t-14 4h-14h-18q-4 -4 -14 -6t-18 -10q-4 -4 -12 -10t-8 -14h-4q-4 -8 -10 -16t-6 -16t-2 -16t2 -16q0 -8 4 -18t8 -22q8 -8 18 -14t18 -14h4l8 -4l8 -4q4 0 12 -2t12 -2h12h12 h12h16q12 4 26 10t22 10q12 8 24 14t16 18q12 8 18 18t10 22q8 12 8 24t4 24q-4 4 -2 6t-2 2q0 4 2 6t-2 2q4 0 2 2l-2 2q4 4 0 6t0 6h-4q2 2 4 8h1048q2 6 4 28h-1064q-2 16 -8 68v4q12 4 20 10t16 14q12 8 16 14t16 14h180q4 -8 4 -14t4 -14l12 -12t16 -12q4 -4 16 -10 l20 -10t20 -4h20h26t22 4t20 10t20 10q0 8 8 12t8 12q4 8 10 14t2 14h596q0 6 -4 28h-584q0 30 -4 124h72q0 -8 4 -14t4 -14q4 -8 12 -14t12 -10l18 -12t18 -8t22 -6t26 -2q8 0 22 2t22 6t18 8t14 12q12 4 16 10t8 10q8 8 8 14t4 14q2 0 4 4h284q2 6 4 28h-292q2 30 4 124 h284q2 6 4 28h-292q2 30 4 120h284q2 6 4 28h-292q2 40 4 160q-86 -34 -348 -136q0 -6 4 -24h-440q8 20 12 36l8 32q8 20 8 36t4 32q-4 8 -2 16t-2 16v16t-8 16h4q-2 0 -4 4q4 8 -2 16t-6 16t-6 16t-6 16q-4 4 -2 6t-2 2q-4 4 -4 8t-4 4q0 8 -4 12t-4 8t-6 8t-2 4l-12 12 t-12 4q-4 4 -8 6t-12 2h4zM612 1152h4t4 -4h2t2 -4h4q-4 0 0 -2t0 -6q0 -4 4 -6l2 -2q0 -2 -2 -4q4 -12 0 -24l-8 -24q0 -12 -8 -26t-12 -26q-8 -12 -14 -22t-14 -22q-8 -8 -14 -16t-18 -16q0 8 -2 14t-2 14t-2 14t2 14h-4q4 12 4 22t4 22t4 22t8 22q4 12 12 22t12 18t14 12 t14 8q4 0 2 0t2 0zM652 912h456q-2 -30 -4 -120h-508q-4 6 -12 24q16 12 22 24t18 24t16 24t16 24h-4zM1356 912h52q0 -30 -4 -120h-252q0 10 -4 40q54 20 212 80h-4zM532 784q4 -18 16 -68q-12 -4 -18 -10t-18 -14q-8 -8 -14 -16t-18 -16q-4 -12 -12 -22t-12 -22 q0 -8 -4 -20t0 -20q-4 -12 0 -22t4 -22q4 -8 12 -16t8 -16q12 -8 18 -16t14 -12q12 -4 20 -8t24 -8h-4h8q-4 0 0 0h4q0 4 4 4t4 4q4 0 4 2t4 2q4 4 2 6t2 2h-4q4 4 0 6l-4 2q4 4 -2 6t-2 2q-4 0 -2 0t-2 0v0h-4q0 4 -6 6t-10 2q0 4 -6 6t-6 6q-2 2 -8 4q4 0 0 4t-4 8t-2 8 t2 12h-4q4 4 2 10t2 10q4 8 6 16t10 12q0 4 6 8t6 8q4 4 10 8l6 4q16 -62 48 -184q-8 0 -12 -2l-12 -6h-6h-10q-4 -4 -14 -4h-18h-18t-14 4q-12 0 -18 2t-14 6t-14 6t-14 6q-4 4 -12 10t-12 10q0 4 -6 10t-6 14h-4h4q-8 8 -8 14t-4 14t-4 16t-4 16h4q-4 16 2 32t10 32t14 32 t18 32q12 12 20 22t20 22q12 16 24 28t32 28h-4zM596 764h512q-2 -32 -4 -124h-324q-4 0 -2 2t-2 2v6t-4 2l4 4q-8 4 -10 12t-10 12l-8 16t-12 12h4q-12 8 -16 12t-16 8q-8 4 -12 8t-16 4q-4 4 -16 6t-20 2h-16h-16h-4h-2h-2q-2 6 -8 16zM1152 764h252q2 -18 4 -68 q-12 4 -18 8t-18 4l-18 6t-22 2q-8 0 -22 -2t-22 -6t-18 -8t-14 -12q-12 -4 -16 -10t-12 -14q-4 -4 -4 -12t-8 -12h-64q0 30 -4 124h4zM616 636h14t14 -4t12 -6t12 -6q12 -8 16 -14t8 -14q8 -8 8 -16t4 -20q-4 -8 -2 -14t-2 -14t-6 -16t-10 -12h4q0 -2 -4 -4q0 -4 -6 -8 t-10 -12q0 -4 -6 -8t-6 -8q-14 58 -44 176h4zM788 612h316q0 -18 4 -68q-12 4 -18 8t-18 4q-12 4 -20 6t-24 2q-8 0 -20 -2t-20 -6q-8 0 -20 -6t-16 -14q-4 0 -2 0t-2 0q-4 -4 -12 -10t-12 -14q0 -4 -4 -10t0 -14h-168q12 12 16 24l8 24q8 12 8 24t4 28h-4q4 4 2 6t-2 6 q4 4 2 6t2 6z" />
<glyph unicode="=" d="M1024 1420q-16 0 -34 -2t-38 -2q-16 0 -32 -2t-32 -6q-56 -12 -110 -30t-106 -46q-48 -24 -94 -58t-86 -74h-2t-2 -4q-56 -56 -98 -116t-70 -128t-40 -140t-12 -152q0 -76 12 -150t40 -142q28 -64 70 -126t98 -118t118 -96t126 -68q68 -28 140 -42t152 -14t152 14t136 38 q68 28 130 70t114 98h4v2v2q56 52 98 114t70 126q28 68 40 142t12 150q0 80 -12 152t-40 140t-70 128t-98 116t-118 98t-130 70q-64 28 -136 42t-152 14zM1024 1268q64 0 122 -12t110 -36q56 -20 104 -52t92 -80q44 -44 78 -92t54 -104q24 -52 36 -110t12 -122 q0 -52 -8 -102t-24 -98q-16 -44 -40 -88t-56 -84l-852 852q28 24 60 42t64 34t66 26t70 18q16 0 28 2t24 2q16 4 30 4h30zM1072 1216h-2h-2l-2 -2l-2 -2q-4 0 -4 -2v-2v-2v-2v-4v-4v-2t4 -2h2t2 -4h2h2h14t10 -4h14t10 -4q8 -4 14 -8t10 -12q8 -4 14 -12t14 -20q0 -4 2 -8 t2 -12q4 -4 4 -10t4 -14v-14v-14q4 -8 4 -16v-20t2 -22t2 -18v-12v-8q0 -8 2 -16t2 -16q0 -4 2 -8t6 -8t8 -10t8 -10t10 -8t14 -8q4 -4 10 -6t10 -6q8 0 16 -4t16 -4q4 -4 10 -6t14 -6q8 0 16 -2t20 -6q8 -4 16 -6t16 -6t14 -6t10 -6q12 -4 18 -10t14 -10t12 -10t8 -10 q4 -8 8 -14t4 -14q4 -8 6 -16t2 -16v-2v-2l2 -2l2 -2l2 -2l2 -2h4h4h2h2l2 2l2 2v2v2q4 0 4 2v2q0 12 -2 22t-6 18q-4 12 -8 20l-8 16q-8 4 -14 12t-14 12q-4 8 -14 14t-18 10t-14 8t-14 4q-8 4 -18 8t-18 4q-12 4 -20 8t-16 4q-8 4 -14 6t-10 2q-8 4 -14 6t-14 2 q-4 4 -10 6t-10 6t-8 6t-8 6l-8 8t-4 8q-4 0 -4 4t-4 8v10v14l-2 6t-2 14v18v18q0 12 -2 22t-2 18v14t-4 14q0 8 -2 16t-6 12q0 8 -2 14t-6 10q-4 12 -12 22t-16 18t-16 14t-16 10q-4 4 -12 6t-16 2q-4 4 -14 4h-18zM1100 1088h-4v0h-2h-2q0 -4 -2 -4h-2v-2v-2 q-2 -10 -8 -32q-4 -8 -4 -14t-4 -14v-8v-8q-2 -14 -2 -28v-12q2 -20 6 -40q4 -16 12 -30t20 -26q8 -8 16 -14t16 -14q12 -4 22 -10t22 -10q8 -4 18 -8t18 -8q12 0 24 -2t24 -6q8 0 16 -2t16 -6h22t22 -4q8 0 16 -2t12 -6q8 0 14 -2t10 -6t8 -6t8 -6l6 -6l6 -6q0 -4 2 -8 t2 -8t2 -8t2 -8v-2v-6h2h2q0 -4 2 -4h2h2h2h4v0q4 0 4 2t4 2v2v2l2 2v0q0 2 -2 2v14t-4 10q0 8 -2 12t-2 8q-4 4 -8 10t-8 10t-10 8t-10 8q-8 4 -14 6t-14 2q-4 4 -14 6t-22 6q-12 0 -22 2t-22 2q-8 4 -16 4t-16 4q-12 0 -22 2t-22 6q-8 4 -16 6t-16 6q-12 4 -20 8l-16 8 q-8 8 -16 14t-16 14t-14 20t-10 28t-6 32t-2 36q4 0 4 4v8q0 8 2 14t2 14q2 6 8 28v2v2v4v4h-2h-2q0 4 -2 4h-2h-2h-2zM544 1032q212 -214 852 -852q-40 -32 -82 -56t-90 -40q-48 -12 -98 -20t-102 -8q-64 0 -122 10t-114 30q-52 24 -100 58t-92 78t-78 94t-58 102 q-20 52 -32 110t-12 122q0 52 8 102t24 98t40 90t56 82zM536 680v-160h268v160h-268zM820 680v-160h220l-160 160h-60zM1132 680l160 -160h124v160h-284zM1432 680v-160h32v160h-32zM1480 680v-160h32v160h-32z" />
<glyph unicode="&#x3e;" d="M856 1336q-24 0 -46 -4t-42 -12t-38 -20t-34 -32q-20 -16 -32 -34t-20 -38t-12 -42t-4 -46t4 -46t12 -42t20 -38t32 -34q4 -8 12 -14t16 -14q8 -4 16 -10t16 -10v-120q-32 8 -124 32v-276q30 2 124 12v-116h4v-4h96l-128 -392h100l128 392h88v-544h96v544h80l144 -392 h100l-144 392h92v472q8 4 14 10t14 10t16 12l12 12q4 0 4 2v2q16 16 28 34t20 38t12 42t4 46t-4 46t-12 42t-20 38t-28 34v0h-4q-16 20 -34 32t-38 20t-42 12t-46 4t-46 -4t-42 -12t-38 -20t-34 -32q-16 -12 -26 -26t-18 -30t-14 -32t-6 -32q-4 16 -10 32t-14 32t-18 30 t-22 26q-20 20 -38 32t-38 20t-42 12t-46 4zM856 1164q4 0 10 -2t10 -6q4 0 10 -2t10 -6v-4q4 -4 6 -8t2 -8q4 -4 6 -10t2 -10t-2 -10t-6 -10q0 -4 -2 -10t-6 -10t-10 -6t-10 -6q-4 0 -10 -2t-10 -2t-10 2t-10 2q-4 4 -8 6t-8 6h-4q-4 4 -6 8t-6 8q0 8 -2 12t-2 12q0 4 2 10 t2 10q4 4 6 10t6 10h4q4 4 8 6t8 2q4 4 10 6t10 2zM1308 1164q4 0 10 -2t10 -6q4 0 10 -2t10 -6v-4q4 -4 6 -8t2 -8q4 -4 6 -10t2 -10t-2 -10t-6 -10q0 -4 -2 -10t-6 -10t-10 -6t-10 -6q-4 0 -10 -2t-10 -2t-10 2t-10 2q-4 4 -8 6t-8 6h-4q-4 4 -6 8t-6 8q0 8 -2 12t-2 12 q0 4 2 10t2 10q4 4 6 10t6 10h4q4 4 8 6t8 2q4 4 10 6t10 2zM1084 1068q0 -16 6 -32t14 -32t18 -30t26 -26q4 -8 8 -12l8 -8q8 -4 14 -8t10 -8h-212q8 4 12 8l8 8q8 4 12 8t12 8v2v2q12 12 22 26t18 30t14 32t10 32zM400 864v-356q44 4 176 20v296z" />
<glyph unicode="?" d="M1312 1460q-8 0 -16 -2t-16 -6q-8 0 -18 -2t-18 -6q-24 -16 -48 -26t-48 -22q-24 -8 -50 -16t-54 -16t-56 -12l-56 -8t-52 -4t-48 4h-28t-24 -4q-8 0 -20 -2t-20 -6t-14 -8t-14 -12l-8 -8t-4 -12q-4 -8 -4 -14v-14q4 -4 8 -10t12 -14q8 -4 16 -12l16 -16l24 -8l24 -8 q28 -8 52 -16t44 -16q24 -4 46 -8t42 -8v-224h-20v-140h20v-88h-4h-8h-4h-4q-36 -8 -66 -16t-58 -24t-56 -36t-52 -44q-32 -32 -54 -64t-38 -72q-16 -36 -24 -76t-8 -84q0 -28 4 -52t8 -52q8 -24 16 -46t20 -46h-48v-80h104l6 -6t2 -6q4 0 6 -2l6 -6v0v-4h4v0q32 -28 64 -52 t68 -40q40 -12 78 -20t82 -8t84 8t76 20q36 16 70 40t62 52h2h2v4v0q32 32 54 66t38 70t24 76t8 84q0 28 -4 56t-12 52q-4 28 -14 52t-22 48h52v80h-112l-8 8h-2h-2q-4 4 -6 8t-6 4l-8 8l-4 4q-2 2 -8 4q-20 20 -44 34t-48 26t-50 20t-54 12h-6h-6h-6h-6v88h24v140h-24v216 h38h34q20 4 36 8l32 8q20 4 36 12l32 16t30 18t26 22q8 12 18 26t18 26q12 16 18 32t10 36q4 8 6 16t2 16t-2 14t-2 14q-4 8 -6 14t-6 10l-10 10t-10 6q-8 4 -14 8t-14 4q-8 4 -14 4h-14zM980 572v-204l-2 -2l-6 -6h-6t-2 -4h-4l-4 -4v0v-4h-2t-2 -4h-2h-2q0 -4 -2 -6l-2 -2 l-2 -2t-2 -6q-4 0 -4 -2t-4 -6v-6v-2q0 -4 -2 -6t-2 -6v-4v-4v-4v-4v-2v-2v-2v-6v0v-4v-2v-6v-2v-2q4 -4 4 -6v-6l2 -2l2 -2q-46 -50 -136 -148q-8 8 -14 18t-14 18q-4 8 -8 18t-8 18q-4 4 -4 6t-4 2v6v6q-4 0 -4 4v4t-2 6t-2 6t-2 10t-2 10q0 8 -2 14t-2 10v6v6v6v2v4v0v6 v2v2v2v4v4v4v4v6v6q0 8 2 14t2 14q4 8 6 16t2 16l2 2t2 6t2 6l2 2q0 4 2 6l2 2q0 4 2 8l2 4q0 4 2 6l2 2q0 4 2 6t2 6l8 8t4 8q4 8 8 12l8 8t4 6v2l6 6l2 2q4 0 4 2v2q4 0 4 2v2l2 2l2 2l2 2l2 2q4 0 6 2l2 2l6 6l2 2q8 8 14 12t14 8l16 8t12 8l4 4v0h6t2 4h6h2q4 4 6 4t6 4 q8 0 14 2t10 2q8 4 16 4t12 4zM1068 572q8 -4 16 -6t16 -6q8 0 16 -2t16 -6q4 0 6 -2l2 -2q4 0 8 -2l4 -2q4 0 8 -2t8 -6q4 0 6 -2l6 -6v-40q-24 -28 -100 -108q-2 -4 -12 -12v204zM1244 472l10 -10t10 -14q4 -4 8 -10t8 -14l2 -2l2 -2v-2v-2q4 -4 4 -6v-6q4 0 4 -2t4 -6v-2 v-2v-2v-2l2 -2t2 -6v0v-4q4 0 4 -4v-8l2 -2t2 -6v-6v-6q4 0 4 -4v-4v-6v-6q4 -4 4 -6v-6v-6v-6v-4v-4v-4v-4v-2v-2v-2v-6v0v-4v0v-4v0v-4v-2v-6v0v-4q0 -8 -2 -14t-6 -14v-14t-4 -14v-2v-2q0 -4 -2 -6t-2 -6l-2 -2l-2 -2v-6t-4 -6l-2 -2t-2 -6l-2 -4t-2 -8l-2 -2l-2 -2 q-4 -4 -4 -6t-4 -2v-2v-6q-4 0 -6 -4t-6 -8l-2 -4t-6 -8l-2 -2l-6 -6l-2 -2t-2 -6h-2h-2v-2v-2h-2h-2v0v-4h-2t-2 -4h-2h-2q-4 -4 -4 -6t-4 -2l-2 -2l-6 -6q-4 0 -8 -4l-8 -8q-4 0 -8 -4t-8 -4q0 -4 -2 -4t-6 -4l-2 -2t-6 -2h-2t-6 -4v0h-4l-2 -2l-2 -2h-2h-2q-4 -4 -6 -4 t-6 -4h-2h-6l-2 -2t-6 -2t-6 -2l-2 -2q-8 0 -14 -2t-10 -2t-10 -2t-14 -2h-4h-8h-4h-4h-4h-4h-2h-2h-2h-6h-6h-6h-4h-4q-8 0 -16 2t-16 2q-4 4 -12 4t-16 4l-4 2t-8 2l-2 2t-6 2t-6 2t-6 2l-2 2t-6 2l-2 2t-6 2l-4 2l-4 2l-2 2l-2 2h-2h-2l-2 2l-2 2v48q26 28 104 116h2h2 q4 -4 6 -4t2 -4h6h6l4 -2l4 -2h6h6h6h2h2h2h4h4h2h2h6t6 4h2h2q4 0 6 2l2 2h4v0q0 4 2 4h2h2h2l2 2l2 2l2 2l2 2q4 0 4 2v2q4 0 4 2v2v0h4v2v2l2 2l2 2l2 2l2 2v2t4 2v4v0q4 0 4 4v4q4 4 4 6v2v4v0l2 2t2 6v6v2v4v0v0v4v4v0v2v2v4v4v4v4v4v0q0 4 -2 4h-2v6v2l-2 2l-2 2v2v2 v2t-4 2q46 48 136 144z" />
<glyph unicode="@" d="M1524 916q0 -2 4 -8q12 -24 20 -50t12 -54q4 -24 4 -50t-4 -54q-4 -56 -28 -118t-68 -126q-40 -60 -98 -124t-134 -132q-20 -16 -42 -34t-50 -38q-24 -20 -54 -44t-62 -48q-32 24 -62 48t-58 44q-24 20 -46 38t-42 34q-76 68 -134 132t-102 124q-40 64 -64 126t-28 118 q-4 28 -4 54t4 50q4 28 12 54t20 50q2 2 4 8v4v0v2t4 2q4 8 10 18t10 18q8 12 16 20t16 20l2 2l2 2q4 0 6 2l2 2q4 8 10 12t10 8q8 4 12 8t12 4q16 12 32 18t32 10q20 8 38 10t38 2q32 0 58 -6t50 -18q24 -8 48 -22t44 -34q8 -8 14 -16t10 -16q8 -8 14 -16t10 -20 q4 12 10 20t10 16q8 8 14 16t14 16q20 20 44 34t48 22q24 12 50 18t54 6q32 0 58 -6t50 -18q24 -8 48 -22t44 -34q8 -12 16 -20t12 -20q8 -8 14 -18t10 -18l2 -2l2 -2v0v-4z" />
<glyph unicode="A" d="M1100 1420q-16 0 -30 -2t-30 -6q-12 -4 -24 -10l-28 -14q-12 -12 -24 -20t-24 -20q-8 -12 -18 -22t-18 -26q-8 -12 -14 -26t-10 -26t-6 -26t-2 -30v-456h-116l-24 24q-12 12 -22 20t-22 12q-8 8 -20 14l-28 14q-12 4 -26 8t-30 4q-12 4 -26 6t-30 2q-20 0 -36 -2t-36 -6 q-16 -4 -32 -10t-28 -10q-16 -8 -30 -16t-26 -20l-20 -20t-20 -24t-14 -26t-14 -30q-4 -12 -6 -26t-2 -30q0 -8 2 -18t2 -22q4 -8 6 -16t6 -20q4 -8 10 -16t10 -16t12 -16t12 -16q12 -8 22 -16t18 -16q12 -8 24 -14t28 -10q12 -8 26 -12t26 -8q16 0 30 -2t30 -2q20 0 36 2 t32 6t32 10t32 14q16 4 28 14t24 18t22 20t18 24h120v-116q-12 -12 -24 -22t-24 -22l-16 -24t-16 -28q-4 -16 -10 -30t-10 -34q-4 -16 -6 -32t-2 -36q0 -16 2 -30t2 -30q4 -12 8 -26t12 -26q4 -12 10 -24t14 -24t16 -22t16 -18t16 -14t16 -14q8 -4 16 -10t16 -10t18 -6 t18 -6q12 0 22 -2t18 -2q16 0 30 4t26 8q16 4 30 10t26 14l22 22t18 22q12 12 22 24t14 28q8 16 14 32t10 32t6 34t2 34t-2 30t-6 30q0 16 -4 28t-8 28q-8 12 -14 24t-14 20l-16 24t-16 20l-24 24v116h456q12 0 26 2t26 6q16 4 30 10t26 14t24 18t24 18q12 12 20 24t16 28 q8 12 14 24t10 24q8 16 10 30t2 30h-684v684zM528 732h18t18 -4q12 0 20 -2t16 -6l16 -8t12 -8q8 -4 14 -8t14 -12l4 -4t4 -8l6 -6l6 -6q0 -4 2 -10t2 -10q4 -4 4 -10v-10v-10t-4 -10q0 -4 -2 -8t-2 -8q-4 -4 -6 -8t-6 -8q0 -4 -4 -6t-4 -6q-8 -4 -14 -10t-14 -10 q-4 -4 -10 -8t-14 -4q-12 -4 -20 -6t-20 -6q-8 0 -16 -2t-20 -2q-8 0 -18 2t-22 2q-8 4 -16 6t-16 6t-16 6t-16 6l-10 10l-10 10l-6 6l-6 6t-6 8t-2 8q-4 4 -6 8t-6 8v10v10v12v8l6 12t2 8q4 4 6 8l2 4l8 8l4 4q8 8 14 12t10 8l16 8l16 8t16 6t16 2q12 4 20 4h20zM984 724 q12 0 22 -2t18 -6t16 -10t16 -14t14 -16t10 -16t6 -18t2 -22q0 -8 -2 -18t-6 -22q-4 -8 -10 -16t-14 -16t-16 -12l-16 -8t-18 -6t-22 -2q-8 0 -18 2t-22 6l-16 8t-16 12t-12 16l-8 16q-4 12 -6 22t-2 18q0 12 2 22t6 18l8 16t12 16t16 14t16 10q12 4 22 6t18 2zM984 320h10 t10 -4q4 0 8 -2t8 -2q4 -4 8 -6t8 -6q4 0 6 -4t6 -4q4 -8 10 -14t10 -14q4 -4 8 -10t8 -14q0 -12 4 -20t4 -20q4 -8 4 -16v-20v-18t-4 -22q0 -8 -4 -16t-4 -16l-8 -16l-8 -16q-4 -4 -8 -10t-12 -10q0 -4 -4 -6t-8 -6l-6 -6t-6 -2q-4 -4 -10 -6t-10 -2t-8 -2t-12 -2 q-4 0 -10 2t-10 2t-8 2t-8 6q-4 0 -8 4t-8 4l-6 6l-6 6l-10 10l-10 10l-8 16t-4 16q-4 8 -8 18t-4 18t-2 18t-2 18v22v18q4 8 8 18t4 18q4 8 8 14t8 14t10 14l10 10l6 6t6 2l6 6l6 6q4 0 10 2t10 2q4 4 10 4h10z" />
<glyph unicode="B" d="M840 1264h-10t-10 -4h-10h-10q-20 -8 -36 -14t-32 -18t-26 -24t-26 -32q-4 -16 -14 -32t-10 -36q0 -16 -2 -34v-8q0 -14 6 -30q4 -20 12 -36l16 -32q12 -12 26 -24t26 -24q24 -12 38 -18t34 -10h36t40 4q16 4 34 12t30 16l26 26t22 30q12 16 18 34t10 34q2 14 2 26v12 q-2 18 -2 38q-8 16 -14 34t-18 30q-12 16 -24 28t-32 24q-8 8 -22 12t-26 8t-26 6t-22 2h-4zM1124 1008q4 0 0 0h-4h-4t0 0q-20 0 -32 -4t-28 -12q-12 -8 -20 -16t-24 -20q4 -4 0 -8t-4 -8l-4 -4t-4 -8q-4 -4 -6 -10t-6 -10v-10t-4 -10q-14 -50 -44 -148q-50 26 -204 108 q-4 4 -14 8t-14 4h-14t-14 -4q-12 0 -16 -4t-12 -8t-12 -10t-8 -14q0 -8 -4 -14t-4 -14q4 -8 2 -16t6 -16q0 -8 6 -14t6 -14q4 -4 12 -10t12 -10q96 -50 288 -152q0 -4 8 -6t8 -6h12h12q8 0 10 2t10 2t10 2t10 6q-4 0 -2 0t-2 0h4t0 4q8 0 10 4t6 8t6 10t6 10q8 30 24 88 q8 -8 10 -18t6 -22q8 -8 8 -20t8 -24q-4 -12 0 -22t0 -22q0 -12 2 -26t-2 -26q4 0 2 -2l-2 -2q4 0 2 -2t2 -2l-168 -120q-50 -38 -200 -148q-4 0 -4 -2t-4 -2v-2t-4 -2l-4 -4q-4 0 -2 -2t-2 -2t-2 0t-2 0q-2 -4 -4 -12q-2 -4 -12 -16q0 -4 -2 -8t-2 -8l-2 -4t2 -8l-4 -4 q4 0 2 -2t-2 -6q4 0 2 -2t2 -6v-8q2 -2 4 -8q0 -8 4 -12t4 -8t6 -8t6 -8q4 0 2 -2t2 -2l2 -2l2 -2l4 -2t0 -2q6 -2 20 -8q0 -4 6 -4h6q4 0 8 -2l4 -2h8v0h4h8h520q16 0 22 2t14 6q12 4 18 8l18 12q0 8 8 14t8 14t4 18t0 18q2 6 2 10q0 6 -2 10q-4 8 -4 16t-8 16t-8 12 q-12 8 -18 14t-18 6q-8 4 -14 6t-22 2h-228q8 8 20 12t16 8q8 8 16 12t12 4q12 8 20 14t16 10q12 4 18 8t14 8t18 10t18 10l16 8t8 8q8 0 10 4t6 4q8 4 10 6t10 2q-4 0 0 2l4 2h2t2 4q4 0 6 2t6 2l6 6l6 6q8 8 18 20t14 24t10 26t2 30q8 80 -4 152t-36 132q-20 60 -60 110 t-88 90q-16 8 -24 14t-24 10q-12 4 -22 6t-26 2z" />
<glyph unicode="C" d="M472 1068h1104q-138 -110 -552 -436l-120 96v0h-4q-142 114 -428 340zM472 940q82 -64 324 -252q-80 -78 -324 -312v564zM1576 940v-564q-82 78 -324 312q80 62 324 252zM876 624q38 -30 148 -116q36 28 148 116q96 -94 388 -372h-1072q98 92 388 372z" />
<glyph unicode="D" d="M1164 1184q-8 0 -12 -2l-12 -6q-8 0 -12 -2t-16 -6q-4 -4 -16 -12t-16 -16t-12 -18t-8 -18q-4 -12 -4 -24t-4 -24q0 -8 6 -18t6 -22q12 -8 16 -18t12 -18q12 -4 20 -10t24 -10q8 0 20 -2t20 -2q12 0 24 4t20 8q12 8 18 14l14 14q12 8 14 18t10 22q0 12 4 22q2 4 2 10 t-2 12q-4 12 -4 22t-12 22q0 8 -10 16t-18 16q-4 8 -16 12t-16 8q-8 4 -12 4h-12q-4 0 -6 2t-10 2zM1656 1148q-82 -24 -332 -92l24 -104q-32 -34 -128 -132q-42 40 -164 160q0 4 -8 8t-12 4q-4 4 -12 6t-12 2h-252q-4 -4 -12 -4t-12 -4l-6 -4t-6 -8q-60 -66 -180 -200 q0 -4 -6 -8t-6 -12q0 -4 -2 -8t2 -12q-4 -4 -2 -10t2 -10t6 -8t6 -8q4 -4 8 -6t8 -6q8 0 10 -2t14 -2l8 2t12 2q4 4 10 8t6 8q54 62 164 184h88q-86 -100 -340 -400h-116h4h-76h-4h-4h-2h-2q-12 -4 -14 -6t-10 -6t-10 -8t-10 -8q0 -4 -4 -10t-4 -14q4 -4 2 -10t2 -14 q0 -4 4 -10t4 -10t6 -8t6 -8q8 -4 10 -6t10 -6h10h14h68h4h144h20h16l12 6l12 6l6 4l6 4l4 2t0 2q46 50 140 152q36 -34 140 -136l-24 -120h-4q-4 -30 -20 -120q-8 -4 -6 -6t-2 -6l2 -2t-2 -2q4 -8 4 -14t4 -14q4 -4 6 -8t10 -8q0 -4 6 -8t10 -8q4 0 12 -2t12 -2q8 0 12 2 t8 2l12 6l12 6q0 4 4 8t4 8l8 8t0 12q10 34 28 100h-4q10 44 44 180q-4 12 0 20t0 12q0 8 2 14t-6 14q0 4 -4 8l-4 4q4 4 0 4t0 0l-124 124q42 46 164 188q24 -26 96 -100q4 0 2 -2t2 -2t4 -2t8 -2q-4 -4 2 -6l6 -2h10h6q12 0 14 2t10 2q8 4 12 8t16 12q36 38 108 116 q2 -4 8 -12q84 22 332 88q-14 60 -60 240h-4zM1628 1096l48 -160q-64 -18 -260 -68l-40 160q64 16 252 68z" />
<glyph unicode="E" d="M716 1276q-8 0 -16 -2t-20 -6q-8 -4 -18 -8t-18 -12l-4 -4t-12 -8q-4 -4 -12 -14t-20 -18l-26 -26l-26 -26l-24 -24l-28 -28l-64 -64t-48 -52q-20 -20 -32 -34t-12 -18q-4 -4 -4 -10t-4 -10v-8v-12v-10v-14l8 -8l8 -8q60 -48 124 -96l128 -96t128 -98t128 -98 q132 -100 230 -174t166 -126t106 -82t46 -34q12 -8 22 -10t18 -2q12 0 24 6t24 14q4 4 8 6t8 6l8 8l8 8q0 4 4 6t4 6q4 4 4 6v6l-8 -8t-12 -4q-4 0 -10 -2t-14 2q-8 0 -20 4t-28 8q-12 8 -26 16t-30 20q-140 110 -420 328l-8 8t-12 8l-10 10l-10 10l-2 2l-2 2l-2 2l-2 2 q-24 20 -42 38t-38 34q-16 20 -32 36t-28 36v0h-4v0v4q-40 48 -70 98t-46 98t-20 94t4 90q4 8 6 18t6 18t8 18t8 18v2v2l2 2t2 6l6 6l2 2q0 4 2 6t2 6q4 4 8 10t4 14q4 8 6 14t2 10t2 6l2 2v6t-4 6v0h-4h-2h-6l-4 -2l-4 -2q-4 -4 -8 -6t-8 -6q-4 0 -8 -4t-4 -8 q-82 -80 -244 -240q0 -4 -2 -4t-2 -4h-2h-2q0 -4 -2 -4t-6 -4v0v-4q8 4 16 10t16 14q12 8 22 16t22 16l2 2l2 2q0 4 2 4t2 4h4q8 8 22 20t26 24l24 24l28 28l10 10l10 10q4 8 10 14t14 10v2v2h6h2h2h2h4v-4h4v-4v-2v-2v-2v-6v0h-4q-4 -8 -10 -14t-10 -14q-4 -4 -10 -8 t-14 -12l-26 -26l-26 -26l-24 -24t-24 -20l-4 -4l-4 -4l-2 -2l-2 -2q-12 -8 -24 -18t-24 -18q-8 -4 -16 -10t-16 -14h-2h-2v0h-4q0 -4 -4 -4t-8 -4h-4h-4h-6h-6v0l-4 4l-2 2l-2 2q0 4 -2 6l-2 2q0 4 2 10t6 10t8 10t12 14l4 4v0q0 4 2 4h2l244 244l8 8l8 8t8 6l12 6q4 0 8 2 t8 2q4 4 8 4h8t8 -2t4 -6q4 0 8 -2t4 -6q4 -4 4 -8v-8v-10v-10q-4 -4 -4 -10t-4 -14q-4 -4 -8 -12l-8 -16q0 -4 -2 -8l-6 -12q-4 -4 -6 -8t-2 -8q-16 -32 -22 -66t-6 -70t10 -72t30 -76q20 -36 46 -76t62 -80t78 -84t94 -84q138 -110 416 -332q12 -8 26 -16t22 -16 q12 -4 22 -8t22 -4h12t12 4q8 8 16 14t20 18q4 8 8 14t4 14q4 8 4 14v14v22t-4 18q-4 12 -8 22t-12 18q-258 316 -772 948q-4 4 -6 8t-6 4q0 4 -4 6t-4 6q-4 4 -8 6t-12 2q-4 0 -8 2t-8 2z" />
<glyph unicode="F" d="M1248 1272h-14t-14 -4q-8 0 -14 -2t-14 -6q-72 -28 -150 -60t-158 -60t-162 -56t-170 -56q-4 -4 -8 -6l-12 -6q-4 0 -8 -2t-8 -6l-2 -2t-6 -2l-2 -2t-2 -6q-4 0 -4 -2t-4 -2v-2v-2l-6 -6l-6 -6v-6t-4 -6v-2v-2v0l-4 -4q-4 -12 -6 -24t-2 -24l8 -24l8 -24v-4 q44 -64 86 -134t78 -146q40 -72 78 -150t70 -158q8 -12 16 -22t16 -22q12 -8 26 -14t26 -14q16 -4 30 -6t26 -2q16 0 30 2t26 6q80 32 156 64t156 60l160 56t160 52h2h2l2 2l2 2h6h2q0 4 2 4h2q4 0 6 2l2 2h2t6 4q4 0 6 2l2 2l6 6t6 2v4v0h2h2q4 4 6 10t6 10t6 10t6 10 q4 12 6 26t2 26t-4 24t-12 24q-40 64 -80 134t-80 142t-76 150t-76 162q-4 12 -14 24t-22 20q-8 8 -20 16t-28 12q-4 4 -12 6t-16 2t-14 2t-14 2zM460 952l-8 -8q-4 0 -6 -2l-6 -6v-2t-4 -2v-2v-2h-2h-2q0 -4 -4 -8l-8 -8q0 -4 -2 -8t-2 -8q-4 -12 -6 -24t-2 -24t4 -26 t12 -26q44 -68 84 -138t80 -142t76 -150t68 -158q8 -12 16 -22t20 -22l24 -16t28 -12q12 -4 26 -8t26 -4q16 0 30 4t30 8q76 32 154 62t154 58q80 32 160 58t160 54h4v0h4h4q4 4 6 4h6l6 6t6 2v2v2h2h2l2 2l2 2q4 0 6 2l2 2q0 4 2 4h2l4 4v4q4 4 14 10l2 2h-2h-2l-162 -54 t-158 -58q-80 -28 -158 -58t-154 -62q-16 -8 -30 -10t-30 -2t-32 4l-32 8t-30 12t-26 16q-12 12 -22 26t-18 26q-32 80 -68 156t-76 148q-40 76 -80 146t-84 138q-8 12 -12 24l-8 24q0 16 2 28t6 24zM384 876l-8 -8q-4 0 -6 -2l-6 -6v-2t-4 -2v-2v-2h-2h-2q0 -4 -4 -8l-8 -8 q0 -4 -2 -8t-2 -8q-4 -12 -6 -24t-2 -24t4 -26t12 -26q44 -68 84 -138t80 -142t76 -150t72 -158q0 -4 4 -8t4 -8l8 -8l8 -8q4 -8 10 -12t14 -12l16 -8t20 -8q4 0 12 -2t16 -6h14h14q6 -4 10 -2h4q6 2 14 2t14 2t14 6q76 32 154 64t154 60l160 56t160 52h4v0h4l4 4q4 0 6 2 t6 2t6 2t6 2v4v0h2h2l2 2l2 2q4 0 6 2l2 2v2v2h2h2v2v2h4l4 4l10 10l2 2h-2h-2q-80 -28 -160 -54t-160 -58q-80 -28 -158 -58t-154 -62q-16 -8 -30 -10t-30 -2t-32 4l-32 8q-16 8 -30 16t-26 16q-12 12 -22 24t-18 24q-32 80 -68 158t-76 150t-80 142t-84 138q-8 12 -12 24 l-8 24q0 16 2 28t6 24z" />
<glyph unicode="G" d="M736 992l240 -96q-60 -26 -240 -100q-60 24 -244 100q62 24 244 96zM1072 896l240 96q60 -24 244 -96q-62 -26 -244 -100q-60 24 -240 100zM1120 1184q-24 -60 -96 -236q-24 58 -96 236q24 60 96 244q24 -62 96 -244zM844 228q-36 -22 -148 -88q82 178 328 716 q82 -180 328 -716q-38 22 -148 88q10 -44 40 -172v4q-30 26 -124 104l-96 -264l-96 264q-32 -26 -124 -104q10 40 40 164v4z" />
<glyph unicode="H" d="M764 1332h-8t-8 -4q-4 0 -8 -2t-8 -2q-4 -4 -6 -8t-6 -8t-4 -10t-4 -10q-4 -32 -4 -64t4 -64q4 -28 10 -54t18 -54q12 -24 26 -48t34 -44q20 -16 44 -32t48 -28v0v-4v-4v-8v-4v-8q4 -52 4 -108v-112v-116v-120v-4v-4q0 -48 2 -96t2 -92t2 -88t2 -88q0 -8 2 -14t2 -10 l8 -8l8 -8t10 -8t10 -8h10h14h10t10 4l12 6t8 6q4 8 8 12t4 8q4 8 4 14v10q-4 44 -4 88t-4 88v90v94v4v0v2v2v18v18v20v20h16v-20v-20v-18v-18v-2v-2v0v-4v-94t-4 -90v-88t-4 -88v-10v-14l8 -8t8 -12q4 -4 8 -6t8 -6q8 -4 14 -4h10h14h10q4 4 10 8t10 8l8 8t4 8q4 4 6 10 t2 14q0 44 2 88t2 88t2 92t2 96v4v4v120v116v112t4 108v8v4v8v4v4v0q24 12 48 28t44 32q20 20 34 44t26 48q12 28 18 54t10 54q4 32 4 64t-4 64q-4 4 -4 10t-4 10t-6 8t-6 8q-4 0 -8 4t-12 4h-8h-8q-8 0 -12 -2t-8 -6q-4 0 -8 -2t-8 -6l-6 -12t-2 -8t-2 -8t2 -12 q0 -28 2 -52t-2 -48t-8 -44t-12 -40t-20 -36t-28 -28q-12 -12 -30 -22t-42 -18h-144q-24 8 -42 18t-34 22q-12 12 -24 28t-20 36t-12 40t-8 44t-2 48t2 52q4 8 2 12t-2 8t-2 8l-6 12q-4 4 -8 6t-8 2q-4 4 -8 6t-12 2v0h-4zM1028 1232h-6h-6h-2h-6q-12 -4 -22 -8t-18 -8 t-16 -12t-16 -20q-8 -8 -12 -18t-8 -22v-20v-24q4 -8 8 -20t8 -20q8 -8 14 -16t18 -16q8 -4 18 -10t18 -10h24h24q12 4 22 8t18 8l16 16l16 16t12 18t4 22q4 12 4 22v22q-4 12 -8 22t-12 18q-4 8 -10 16t-18 16q-8 4 -14 8t-14 8t-16 4h-16h-2h-2z" />
<glyph unicode="I" d="M708 1184h-8t-12 -4h-8t-8 -4q-8 0 -16 -6t-16 -14q-4 -4 -10 -12t-10 -16t-6 -18t-6 -18q0 -8 2 -18t6 -18q4 -12 8 -20l8 -16q8 -4 16 -10t16 -10t18 -6t18 -2h20t20 4l16 8t12 8q8 8 14 16t10 20q4 8 6 16t2 16q2 8 2 14v8q-2 10 -6 18l-8 16t-12 16q-4 8 -12 12 l-16 8l-12 6t-12 2q-4 4 -8 4h-8zM1320 1004h-8h-8t-8 -2t-8 -2l-16 -8t-16 -12q-4 -4 -10 -12t-10 -16l-2 -4t-2 -8v-2t-4 -6v-10v-14q0 -4 2 -10t2 -14l8 -16l8 -16q8 -4 16 -10t16 -10t16 -6t16 -2h20t16 4h4v0l4 4v0q8 4 14 8t10 8q8 8 12 14t8 14t6 16t2 16q2 8 2 14v6 q-2 8 -6 16l-8 16t-12 12q-4 8 -10 14t-18 10q-4 4 -8 4h-12q-4 4 -8 4h-8zM584 1004h-6t-6 -4h-2h-6q-70 -30 -208 -92l-4 -2t-8 -6l-2 -2t-2 -6q-22 -62 -64 -188v-10v-10t2 -8t2 -8q4 -4 6 -8t6 -8q4 0 8 -4t8 -4t8 -2t8 -2q4 4 10 4t10 4q4 0 8 4t4 8l6 6t2 10 q18 50 52 148q24 10 96 44q-16 -64 -60 -252v-2t-4 -6v-2v-2v-228l-112 -152l-6 -12t-6 -8v-10v-10q0 -8 2 -12t6 -8t6 -8t6 -8h4v-4q4 0 10 -2t10 -6h8h8t6 2t6 2t6 2t6 2q0 4 2 4h2l6 6t2 6q42 54 128 164q0 4 2 8t2 8q4 4 4 8v8v204q52 -36 204 -144q4 -58 16 -228 q0 -4 2 -10t2 -10l8 -8l8 -8l2 -2l2 -2q4 0 4 -2t4 -2l4 -2t8 -2h8h8h4h4t6 2t6 2l2 2l2 2l6 6t6 2q4 4 6 10t2 10q4 4 4 10v10q-6 84 -16 252q0 4 -2 8t-6 8q0 8 -4 12l-8 8q-60 50 -180 152q10 38 36 156q8 -24 36 -92q0 -4 2 -6t2 -6l2 -2l2 -2l6 -6l2 -2q4 0 6 -2t6 -2 q48 -22 144 -64q4 0 10 -2t10 -2t8 2t12 2q4 4 8 6t4 6l8 8t4 8q4 4 4 10v10v8t-4 8q0 8 -4 12t-8 4q0 4 -4 8t-8 4q-42 18 -128 52l-64 176q-4 4 -4 6t-4 2q0 4 -2 6t-2 6q-4 0 -6 2t-6 2q0 4 -2 6t-6 2q-42 14 -128 40q-4 0 -6 2t-6 2h-2h-2zM1704 936h-8t-8 -4 q-4 0 -8 -2t-8 -6q-34 -36 -104 -108h-232h-2t-6 -4h-6h-2q-102 -46 -304 -140q-4 -4 -8 -6t-8 -6t-6 -8t-2 -8q-4 -4 -4 -8v-8t2 -8t2 -12l6 -6t2 -6q4 -4 8 -6t8 -2q8 -4 12 -4h8h8t8 4q74 34 224 104l64 -192q-20 -10 -84 -36q-4 0 -6 -2l-6 -6l-2 -2l-6 -6l-2 -4t-6 -8 v-2t-4 -6l-48 -228v-10v-10t2 -10t6 -10h2t2 -4t2 -4t2 -4q4 0 6 -2l2 -2l4 -2l4 -2q4 0 6 -2t6 -2h10h10t10 2t10 6l2 2l2 2l4 4l4 4l2 4l2 4q4 4 4 8v8q14 66 44 200l184 80q-12 -30 -36 -88q-4 -4 -4 -8t-4 -8v-8t4 -8q0 -4 2 -8t2 -8q4 -4 6 -8t6 -4q56 -54 168 -160 l2 -2l2 -2q4 0 4 -2t4 -2l4 -2t8 -2h6h6h6h6t6 2t6 2l2 2l2 2l6 6l2 2l8 8t4 8q4 8 4 12v12q0 4 -2 10t-6 10q0 4 -2 8t-6 8q-46 44 -140 132q14 32 56 132q30 4 116 16q-64 52 -260 212h88h12h8q4 4 8 6t8 6q38 42 116 124l6 6t2 6l6 12t2 8t-2 8t-6 8q0 4 -2 8t-6 8t-8 6 t-8 2q-4 4 -8 4h-8z" />
<glyph unicode="J" d="M752 1324q-8 0 -16 -2t-16 -6l-16 -8t-12 -12q-8 -4 -14 -12t-10 -16q0 -8 -2 -16t-2 -20v-68h-84q-16 0 -30 -4t-30 -12q-12 -4 -24 -12t-24 -20q-12 -8 -20 -22t-16 -26q-4 -12 -6 -28t-2 -32v-776q0 -16 2 -30t6 -30l16 -24t20 -24t24 -20l24 -16q16 -4 30 -6t30 -2 h888q16 0 30 2t26 6q16 8 28 16t24 20t20 24t12 24q8 16 10 30t2 30v776q0 16 -2 32t-10 28q-4 12 -12 26t-20 22q-12 12 -24 20t-28 12q-12 8 -26 12t-30 4h-84v68q0 12 -2 20t-6 16q0 8 -6 16t-14 12q-4 8 -12 12l-16 8t-16 6t-16 2q-12 0 -20 -2t-16 -6l-16 -8t-12 -12 q-8 -4 -12 -12l-8 -16t-6 -16t-2 -20v-68h-360v68q0 12 -2 20t-6 16l-8 16t-12 12q-4 8 -12 12l-16 8t-16 6t-20 2zM664 1080q0 -8 2 -16t6 -16t8 -14t12 -14q4 -4 12 -10t16 -10q8 0 16 -2t16 -2q12 0 20 2t16 2q8 4 16 10t12 10q8 8 12 14t8 14t6 16t2 16v-48q0 -8 -2 -16 t-6 -16l-8 -16t-12 -12q-4 -8 -12 -12l-16 -8t-16 -6t-20 -2q-8 0 -16 2t-16 6l-16 8t-12 12q-8 4 -14 12t-10 16q0 8 -2 16t-2 16v48zM1204 1080q0 -8 2 -16t6 -16t8 -14t12 -14q4 -4 12 -10t16 -10q8 0 16 -2t20 -2q8 0 16 2t16 2q8 4 16 10t12 10q8 8 12 14t8 14t6 16 t2 16v-48q0 -8 -2 -16t-6 -16q0 -8 -6 -16t-14 -12q-4 -8 -12 -12l-16 -8t-16 -6t-16 -2q-12 0 -20 2t-16 6l-16 8t-12 12q-8 4 -12 12l-8 16t-6 16t-2 16v48zM528 836h992v-284h-4q0 -8 -4 -32q0 -8 -2 -18t-6 -18t-6 -18t-6 -18q-4 -4 -4 -8t-4 -8l-2 -4t-6 -8 q-8 -12 -16 -22t-16 -22t-18 -22t-22 -18q-12 -12 -24 -20l-24 -16t-26 -16t-26 -16q-4 0 -10 -2t-10 -6q-4 0 -10 -2t-10 -6q-4 0 -8 -2t-8 -6h-8t-8 -4q-8 0 -12 -2l-12 -6h-10t-14 -4q-10 -2 -32 -4v-4h-496q-16 0 -28 4l-24 8q-8 4 -20 12t-20 16t-16 18t-12 22t-6 24 t-2 24v488zM796 760q-4 -8 -10 -18t-14 -18q-4 -8 -10 -14l-14 -14t-18 -14t-22 -10t-24 -10t-28 -10v-92q12 0 20 4l16 8t16 6t12 6q8 4 14 8t14 8t14 8t14 12v-272h116v412h-96zM1176 760h-26t-26 -4q-8 0 -18 -4t-18 -8q-8 0 -16 -6t-16 -10q-4 -4 -8 -10t-12 -14 q-4 -8 -6 -16t-6 -16t-6 -20t-6 -24q38 -2 116 -8q0 8 2 16t2 12l6 12t6 8t8 6t8 2q4 4 10 6t10 2t10 -2t10 -6q4 0 8 -2t8 -6q4 0 6 -4t2 -8q4 -4 4 -8v-8v-12t-4 -8q0 -4 -4 -8t-4 -8q-4 -8 -10 -14l-14 -14q-8 -4 -18 -12t-22 -16q-20 -16 -38 -30t-34 -26 q-12 -12 -22 -24t-18 -24t-14 -24t-10 -24t-6 -24t-6 -24h340v92h-176l8 8t4 8q4 4 8 6t8 2q0 4 4 8l8 8l16 8t16 12q16 8 28 18t20 18q12 12 18 20t14 16l8 16l8 16q4 12 4 20v20v16t-4 16q0 8 -4 16t-8 12q-8 8 -12 14t-12 10q-8 8 -14 12t-14 8q-12 4 -22 6t-22 2 q-8 4 -22 4h-30zM1520 368v-20q0 -12 -2 -24t-6 -24t-12 -22t-16 -18t-20 -16t-24 -12q-8 -4 -20 -8t-28 -4h-36l24 16l24 16t22 16t22 16l22 22l18 18q8 12 16 22t16 22z" />
<glyph unicode="K" d="M952 1284q-56 0 -108 -10t-100 -26t-92 -42t-84 -58t-68 -68t-48 -76t-32 -80t-16 -88v-6v-6v-8v-8v-6v-6v-6v-6v-6v-6v-2v-6q4 -24 10 -50t14 -50t20 -46t28 -46q0 -4 4 -8l8 -8t6 -8t6 -8q-8 -32 -16 -60l-16 -56q-8 -24 -14 -44t-14 -40l-36 -108q94 30 380 124 q-4 12 -6 22t-2 18v22v18v10v10v10v10q-64 -22 -192 -64q4 12 8 28l8 32t8 34t12 34q2 10 8 32l-24 24q-4 4 -8 10t-12 10q-4 4 -8 10t-8 14q-8 12 -16 30t-16 34t-12 34t-4 38v4v0v6v2v6v2v8v4v6v6v6v2q0 36 10 66t22 58q16 32 38 58t50 50q36 28 70 48t74 32q40 16 82 22 t86 6q48 0 90 -6t78 -22q40 -12 76 -32t68 -48q28 -24 48 -50t36 -54q16 -24 26 -54t14 -62v-2t4 -2q12 0 26 -6t26 -10q16 -4 28 -10t24 -14h4v0v0v-4v6v2q0 4 2 6l2 2q0 4 -2 8t-2 8v6v6q0 48 -12 88t-32 80t-50 76t-70 68t-84 58t-92 42t-100 26t-108 10zM1252 764 q-40 0 -76 -6t-72 -18q-32 -12 -64 -30t-60 -42t-50 -50t-38 -58q-12 -28 -18 -58t-6 -66q0 -32 6 -64t18 -60q16 -28 38 -54t50 -50t60 -42t64 -30q36 -12 72 -18t76 -6h32h32l32 8t28 8h4v0h4h4q28 -16 60 -32t64 -28q32 -8 64 -18t68 -14q-16 28 -30 56t-22 56t-12 56 t-4 56q8 8 14 18t10 18q8 12 12 20t8 20l8 24t4 24q4 12 4 26v26q0 36 -6 66t-22 58q-12 32 -34 58t-50 50t-60 42t-68 30q-32 12 -68 18t-76 6zM1104 488q4 0 8 -2t8 -6q8 0 12 -2t8 -6t6 -8t2 -8q4 -4 4 -10v-10v-10t-4 -10q0 -4 -2 -8t-6 -8l-8 -8t-12 -4q-4 0 -8 -2 t-8 -2q-8 0 -12 2t-8 2t-10 4t-6 8l-8 8l-8 8v10v10v10v10l8 8l8 8q0 4 6 6t10 2q4 4 8 6t12 2zM1252 488q8 0 12 -2t8 -6q4 0 10 -2t6 -6l8 -8t4 -8q4 -4 4 -10v-10v-10t-4 -10q0 -4 -4 -8l-8 -8q0 -4 -6 -8t-10 -4t-8 -2t-12 -2q-4 0 -8 2t-12 2q-4 0 -8 4l-8 8t-6 8t-6 8 v10v10v10v10q4 4 6 8t6 8t8 6t8 2l12 6t8 2zM1404 488q8 0 12 -2t8 -6q4 0 8 -2t8 -6l8 -8t4 -8q4 -4 4 -10v-10v-10t-4 -10q0 -4 -4 -8l-8 -8l-8 -8t-8 -4t-8 -2t-12 -2q-4 0 -8 2t-12 2q-4 0 -8 4l-8 8t-6 8t-6 8q0 4 -2 10t-2 10t2 10t2 10q4 4 6 8t6 8t8 6t8 2l12 6t8 2 z" />
<glyph unicode="L" d="M1560 1264q-28 -32 -60 -58t-64 -50q-28 -20 -62 -36t-66 -28q-20 -4 -30 -8t-30 -8q-16 0 -30 -2t-34 -6q-12 0 -30 -2t-30 -6h-22t-18 -4q-32 0 -58 -6t-54 -10q-24 -4 -46 -12t-46 -16q-16 -8 -40 -18t-40 -22t-34 -26t-30 -30q-32 -36 -52 -80t-36 -100 q-12 -52 -14 -114t2 -138q16 12 26 24t26 24t30 24t34 24q8 8 22 16t26 16q16 12 36 22l36 18t28 16t32 16t40 20t48 24q16 12 38 24t38 24l40 24t36 24q0 -8 -10 -20t-22 -24t-30 -26t-38 -30q-12 -4 -18 -10t-18 -14t-24 -18t-32 -18q-12 -12 -30 -22t-30 -22 q-8 -8 -22 -16t-18 -12q-36 -24 -64 -48t-60 -48q-28 -20 -50 -42t-46 -42q-28 -32 -54 -62t-46 -62q-20 -28 -42 -58t-30 -62q-12 -20 -12 -36v-8q4 -20 12 -36q8 -12 32 -20t52 -12q20 40 36 78t40 74q28 36 52 70t56 66q40 -20 86 -32t86 -20q40 -4 82 -4t82 4 q44 8 80 18t72 26q36 20 66 44t62 52q28 32 56 68t48 76t40 86t28 98q16 56 22 114t10 122q2 26 2 50q0 40 -4 80q-6 66 -10 138h-4z" />
<glyph unicode="M" d="M880 1428q-8 -2 -28 -4q2 -20 8 -76q-72 -24 -136 -52t-124 -56q-56 -24 -108 -52t-100 -52q-40 -24 -72 -46t-56 -50q-24 -24 -40 -46t-20 -46v-16q0 -8 4 -8t4 -8q4 -4 8 -4t8 -8q8 0 14 -4t14 -4h16t16 4q12 -4 18 2t14 6q8 4 14 12t10 8q4 8 6 10t2 6q4 8 4 10t4 10 q2 -2 8 -4l4 -4l4 -4q4 0 8 -6t8 -2q8 -8 14 -10t14 -6q8 0 16 2t20 -2q8 8 16 8t12 4q8 8 14 12t10 12q4 0 6 6l2 6q4 4 4 10t4 6l8 8q0 -8 4 -10t4 -6q4 -4 8 -6t8 -6q8 0 14 -6t14 -6q8 4 16 2t20 2q8 0 16 4t12 4q8 4 14 12t10 12q4 8 6 8t2 4q4 8 4 10t4 10h8l4 -6 l4 -6q4 0 8 -4t8 -4q8 -8 16 -8t12 -4q8 -4 18 -2t18 2q8 4 16 4t12 4q8 8 14 12t10 16q4 0 6 6l2 6q4 4 6 8l2 4l8 8q0 -8 4 -8t4 -8q4 -4 8 -4t8 -8q4 4 10 -2t10 -6q4 4 10 0t10 0q34 -176 104 -528q12 -8 48 -28l-112 560q4 8 8 8t8 4q4 8 8 10t8 10q4 0 6 6l2 6 q4 0 4 6v6q4 2 12 8q0 -8 4 -10t4 -6q4 -4 8 -4t8 -8q8 0 14 -4t14 -4t16 -2t20 6q8 -4 14 2t14 6q8 4 14 10l10 10q4 8 6 10t2 6q4 8 4 10t4 10q2 -2 8 -4l4 -4t4 -8q4 0 8 -4t8 -4q8 -8 14 -8t14 -4t16 -2t20 2q8 4 16 6t12 6q8 8 14 12t10 12q4 0 6 6l2 6q4 4 4 10t4 6 q2 2 8 4q0 -8 4 -8t4 -8q4 -4 8 -4t8 -4q8 0 14 -6t14 -6q8 4 16 2t20 2q8 -4 16 2t12 6q8 4 14 12t10 8q4 8 6 10t2 6q4 8 4 10t4 10q2 -2 8 -4q0 4 4 -2l4 -6q4 0 8 -6t8 -2q8 -8 16 -10t12 -6q8 0 18 2t18 -2q8 8 16 8t12 4q8 8 14 12t10 16q4 -4 6 4t2 12v12v12 q-16 24 -38 38t-54 26q-32 16 -70 24t-86 16q-52 4 -110 10t-122 6t-134 2t-146 -2q-6 26 -20 76v-4zM612 760q0 4 -4 2t-8 -2q0 4 -4 2t-8 -2q-8 -4 -16 -6t-16 -10q-8 -4 -14 -8t-10 -12q-4 0 -4 -4t-4 -4l-2 -4t-2 0l-12 -24t-4 -20v-22v-22q4 -4 6 -14t6 -14t8 -10 t8 -10q0 -4 4 -6t4 -6q4 -4 8 -4t8 -8q12 0 22 -6t18 -6q12 0 22 -2h4q8 0 18 6q12 -4 22 4t18 12t16 14t16 14q4 16 8 24t4 20q4 12 4 22t-4 26q0 4 -6 16t-14 20q-4 8 -12 16t-16 12q-8 8 -16 10t-16 6q-4 4 -12 2t-16 2q0 -4 0 -2t0 -2v2t-4 -2zM416 616q-12 -22 -52 -84 l192 -112q-54 -86 -220 -344q20 0 84 4q48 74 196 296q100 -62 400 -244q0 -8 4 -6t4 -2q4 -4 8 -2t8 -2q0 4 4 2l4 -2q4 4 8 4t4 4q82 44 248 132q98 -46 392 -180q10 20 40 84l-416 192q-4 -4 -6 0t-6 0l-4 2t-4 -2q-4 4 -6 2t-6 -2q-4 4 -6 0t-2 0q-82 -46 -244 -136 q-156 98 -624 396zM784 604l-4 -2t-8 -2q0 4 -2 2t-6 2q-8 -8 -16 -10t-16 -10q-8 -4 -14 -10t-10 -18q-8 -4 -10 -14t-6 -18v-18t4 -14q0 -16 6 -24t10 -20q8 -8 16 -14t20 -14q82 -50 248 -152q12 -12 22 -12t22 -4q12 0 24 4t20 8l84 48q34 16 136 68l208 -88q4 -8 10 -8 t10 -4q8 0 14 4t14 0q4 8 10 8t10 4q4 8 8 12t4 12q4 4 6 12t2 12v12t-4 8q-4 12 -6 16t-6 8q-4 8 -10 10t-10 6q-78 34 -236 104q-4 8 -8 6t-8 -2q0 4 -4 4t-8 4q-4 -4 -8 -4t-8 -4h-6t-6 -4q-10 -6 -32 -16v-4l-128 -64q-66 40 -268 160q-8 8 -14 10t-14 6t-14 2t-14 6 q0 -4 0 -2t0 -2l-2 2t-2 -2z" />
<glyph unicode="N" d="M468 1360v-152h344q-98 -180 -396 -716h604v148h-344l400 720h-608zM1252 1032v-112h252q-72 -132 -292 -528h444v108h-252q74 132 292 532h-444zM948 260v-72h156q-46 -84 -184 -332h280v68h-160q48 84 188 336h-280z" />
<glyph unicode="O" d="M704 1328q-28 0 -56 -4t-56 -16q-24 -12 -48 -28t-44 -36l-16 -16t-16 -20q-4 -8 -10 -16t-10 -20q-8 -16 -14 -30t-10 -34q-4 -16 -6 -32t-2 -36v-4v-8v-2v-2v-908q0 -8 2 -14t2 -10q4 -4 8 -10t8 -10l8 -8l8 -8q8 0 14 -2t14 -2q4 0 10 2t10 2q8 4 14 8t10 8t8 10t4 10 q4 4 4 10v14v908v4v0v2v2v6v2q0 16 4 32t8 28q8 16 16 30t20 26l6 6l2 2q4 4 8 6l4 2q12 8 22 14t22 10t26 6t26 2t26 -2t26 -6t22 -10t22 -14q-30 -94 -88 -284q0 -8 -2 -12t-2 -8t2 -8t2 -12q0 -4 2 -8t6 -8t6 -8t6 -4q4 -4 8 -6t8 -6q4 0 10 -2t10 -2h8h8l12 6t8 2 q142 84 428 252q4 0 8 4t8 4q4 4 6 8t6 8q0 4 2 10t2 10v8v8q0 8 -2 12t-6 8q0 4 -2 8t-6 8l-4 2t-8 2q0 4 -2 6t-6 2l-2 2t-6 2h-2h-2l-312 72q-20 20 -44 36t-48 24q-24 12 -52 16t-56 4zM1216 984h-8t-8 -4q-4 0 -6 -2t-6 -2q0 -4 -2 -6l-6 -6v-8v-8v-8v-8q4 0 6 -4l2 -4 q0 -4 2 -4h2l2 -2l2 -2l4 -2l4 -2h6h6h6h2q4 0 6 2t6 2l2 2l2 2v0v4q4 0 6 4l2 4q4 4 4 8v8v8t-4 8q0 4 -2 6l-6 6l-4 2t-8 2q0 4 -4 4h-8zM1120 928h-8t-8 -4q-4 0 -6 -2t-6 -2v-2v-2q-4 0 -6 -4t-2 -8l-2 -4t-2 -8t2 -8t2 -8l2 -4t6 -8q4 0 6 -2l6 -6h8h8h6h6q4 4 8 6l4 2 q4 4 6 8l2 4q4 4 4 8v8v8t-4 4q0 4 -2 8l-2 4h-2h-2v2v2l-4 2t-8 2q-4 4 -6 4h-6zM1292 916h-8t-8 -4l-4 -2t-4 -6q-4 0 -6 -4t-6 -8v-4v-8v-8v-8l6 -6l6 -6q4 0 6 -2l6 -6h6h6h8h8l6 6t6 2l6 6t2 6t2 8t2 8t-2 8l-2 4q0 4 -2 8t-6 4l-6 6t-6 2q0 4 -4 4h-8v0h-4zM1012 872 h-8t-8 -4l-4 -2t-4 -6l-6 -6l-6 -6v-6v-6v-8v-8l6 -6l6 -6q0 -4 4 -6l4 -2q4 0 8 -2t8 -2t8 2t8 2t6 2l6 6q0 4 2 6t2 6q4 4 4 8v8v6t-4 6q0 4 -2 6t-2 6l-6 6t-6 2q-4 4 -8 4h-8zM1372 848h-8t-8 -4l-4 -2t-8 -6l-2 -4t-6 -8v-6v-6v-8v-8l6 -6t2 -6q4 -4 8 -6l4 -2 q4 0 8 -2t8 -2t8 2l4 2q4 0 8 2t8 6q0 4 2 6t2 6q4 4 4 8v8v6t-4 6q0 4 -2 8l-2 4q-4 4 -8 6t-8 2q0 4 -4 4h-8zM1180 848q-4 0 -6 -2t-6 -2t-8 -2t-4 -6l-6 -6l-6 -6v-8v-8v-8v-8q4 0 6 -4t6 -4q0 -4 4 -6t8 -6h6h6h8h8l6 6l6 6q4 0 6 4l2 4q0 4 2 8t2 8t-2 8t-2 8t-2 6 l-6 6l-6 6t-6 2t-8 2t-8 2zM924 816q-4 0 -8 -2t-8 -2t-6 -2l-6 -6l-6 -6t-2 -6t-2 -8t-2 -8t2 -6t2 -6t2 -8t6 -4l6 -6l6 -6h8h8h8h4q4 4 8 6t4 6q4 0 6 4t2 8q4 4 4 6v6v8t-4 8q0 4 -2 6l-6 6q0 4 -4 6t-8 2l-4 2t-8 2zM1064 780h-8t-8 -4q-4 0 -6 -2l-6 -6q-4 0 -6 -4 t-2 -8t-2 -6t-2 -6t2 -8t2 -8t2 -6l6 -6l6 -6t6 -2t8 -2t8 -2t6 2t6 2t8 2t4 6l6 6t2 6q4 4 4 8v8v6t-4 6q0 4 -2 8t-6 4q0 4 -4 6t-8 2q-4 4 -6 4h-6zM1448 780l-4 -2t-8 -2t-6 -2l-6 -6l-6 -6l-6 -6v-8v-8v-6v-6q4 -4 6 -8t6 -4l6 -6l6 -6h8h4h8h8l6 6l6 6q4 0 6 4t2 8 t2 6t2 6t-2 8t-2 8t-2 6l-6 6l-6 6t-6 2t-8 2t-8 2zM1244 764q-4 0 -8 -2t-8 -2l-4 -2t-4 -6l-6 -6l-6 -6v-8v-8v-6v-6q4 -4 6 -8t6 -4q0 -4 4 -6t4 -6h8h8h8h8l6 6l6 6l2 4t2 8q4 4 4 6v6v8t-4 8q0 4 -2 6t-2 6l-6 6t-6 2t-8 2t-8 2zM952 716q-4 0 -8 -2t-8 -2l-4 -2t-8 -6 q0 -4 -2 -6l-6 -6v-8v-8v-2v-6v-2t4 -6v-2v-2q4 0 4 -2v-2q4 -4 8 -6t4 -6h8h8h8h4q4 4 8 6t8 6l2 2l2 2v2t4 2v6v2v6v2v8t-4 8q0 4 -2 6t-2 6q-4 4 -8 6t-8 2l-4 2t-8 2zM1528 708h-8t-8 -4l-4 -2t-8 -2q0 -4 -2 -6l-6 -6v-8v-8v-2v-6v0v-4l2 -2t2 -6l2 -2t2 -6q4 0 8 -2 t4 -6h8h8h8h4q4 4 8 6t8 2q0 4 2 6l2 2q0 4 2 6l2 2v4v0v6v2v8t-4 8q0 4 -2 6t-2 6q-4 0 -8 2t-8 2q0 4 -4 4h-8zM1112 688h-8t-8 -4l-4 -2t-8 -6l-2 -2t-2 -6l-2 -2t-2 -6v-2v-2v-2v-2v-8v-8l6 -6t2 -6q4 0 8 -4l4 -4q4 0 8 -2t8 -2t8 2t8 2t6 4t6 4q0 4 2 6t2 6q4 4 4 8v8 v2v2v2v2v6t-4 2q0 4 -2 6l-2 2l-6 6t-6 2q-4 4 -8 4h-8zM1308 680h-8t-8 -4q-4 0 -6 -2l-6 -6v-2t-4 -2v-2v-2q-4 0 -4 -2v-6v-6v-2v-8v-8l6 -6t2 -6l6 -6t6 -2t8 -2t8 -2t8 2l4 2q4 0 8 2t4 6l6 6t2 6q4 4 4 8v8v2v6t-2 6l-2 2v2t-4 2v2t-4 2q0 4 -4 6t-8 2q0 4 -4 4h-8z M1608 640h-8t-8 -4q-4 0 -6 -2l-6 -6q-4 0 -6 -4t-2 -8l-2 -4t-2 -8t2 -8t2 -8t2 -6l6 -6q4 0 6 -4t6 -4t8 -2t8 -2t6 2t6 2t6 4t6 4l6 6t2 6q4 4 4 8v8v8t-4 4q0 4 -2 8t-6 4l-6 6t-6 2q-4 4 -6 4h-6zM980 616q-4 0 -6 -2l-6 -6q-4 0 -8 -2l-4 -2l-6 -6l-6 -6v-8v-8v-8v-8 q4 0 6 -4t6 -4q0 -4 4 -6t8 -6h6h6h8h8l6 6l6 6q4 0 6 4l2 4q0 4 2 8t2 8t-2 8t-2 8t-2 6l-6 6q-4 0 -6 2t-6 2q-4 4 -8 6t-8 2zM1164 596h-8t-8 -4q-4 0 -6 -2l-6 -6q-4 0 -6 -4t-2 -8l-2 -4t-2 -8t2 -8t2 -8t2 -6l6 -6q4 0 6 -2l6 -6h8h8h6h6l6 6t6 2l6 6t2 6q4 4 4 8v8v8 t-4 4q0 4 -2 8t-6 4q0 4 -4 6t-8 2q-4 4 -6 4h-6zM1372 596h-8t-8 -4q-4 0 -6 -2l-6 -6q-4 0 -6 -4t-2 -8l-2 -4t-2 -8t2 -8t2 -8t2 -6l6 -6l6 -6t6 -2t8 -2t8 -2t6 2t6 2t8 2t4 6l6 6t2 6q4 4 4 8v8v8t-4 4q0 4 -2 8t-6 4q0 4 -4 6t-8 2q-4 4 -6 4h-6zM1684 572q-4 0 -8 -2 t-8 -2l-4 -2t-8 -6q0 -4 -2 -6l-6 -6v-8v-8v-6v-6l6 -6t2 -6q4 -4 8 -6t4 -6h8h8h8h8l6 6l6 6q0 4 2 6t2 6q4 4 4 6v6v8t-4 8q0 4 -2 6t-2 6l-6 6t-6 2t-8 2t-8 2zM1012 512h-8t-8 -4q-4 0 -6 -2t-6 -2l-6 -6t-2 -6t-2 -8t-2 -8t2 -8t2 -8l2 -4t6 -4l6 -6l6 -6h8h8h6h6 q4 4 8 6t4 6q4 0 6 4l2 4q4 4 4 8v8v8t-4 8q0 4 -2 6l-6 6l-4 2t-8 2q-4 4 -6 4h-6zM1432 512h-6t-6 -4q-4 0 -8 -2l-4 -2q-4 -4 -6 -8t-6 -8v-4v-8v-8v-8q4 0 6 -4t6 -8l4 -2t8 -6h6h6h8h8l6 6t6 2q4 4 6 8l2 4q0 4 2 8t2 8t-2 8l-2 4q0 4 -2 8t-6 8q-4 0 -6 2t-6 2 q-4 4 -8 4h-8zM1212 504h-8t-8 -4l-4 -2t-8 -2q0 -4 -2 -8t-6 -8v-4v-8v-8v-8q4 0 6 -4t2 -8q4 0 8 -2t4 -6h8h8h8h4q4 4 8 6t8 2q0 4 2 8l2 4q4 4 4 8v8v8t-4 4q0 4 -2 8t-2 8q-4 0 -8 2t-8 2q0 4 -4 4h-8zM1764 504q-4 0 -8 -2t-8 -2t-6 -4t-6 -4l-6 -6t-2 -6t-2 -8t-2 -8 t2 -8t2 -8l2 -4t6 -4l6 -6l6 -6h8h8h6h6q4 4 8 6t4 6q4 0 6 4l2 4q4 4 4 8v8v8t-4 8q0 4 -2 6l-6 6l-4 4t-8 4t-6 2t-6 2zM1496 428h-8t-8 -4l-4 -2t-8 -2q0 -4 -2 -4t-2 -4l-2 -2t-2 -6v-2v-6v0v-4v-8v-8q4 0 6 -4l2 -4q4 -4 8 -6t4 -6h8h8h8h4q4 4 8 6t8 6l2 4l2 4 q4 4 4 8v8v4v0v6v2q0 4 -2 6l-2 2q0 4 -2 4t-2 4q-4 0 -8 2t-8 2q0 4 -4 4h-8zM1040 412h-8h-8l-2 -2l-6 -6h-2h-2q0 -4 -2 -8t-6 -8v-4v-8v-8v-8q4 0 6 -4t2 -8q4 0 8 -2t4 -6h8h8h8h4q4 4 8 6t8 2q0 4 2 8l2 4q4 4 4 8v8v8t-4 4q0 4 -2 8t-2 8h-2h-2l-6 6t-6 2h-6h-6z M1264 412h-8h-8l-4 -2t-4 -6h-4v0q-4 -4 -6 -8t-2 -8l-2 -4t-2 -8t2 -8t2 -8l2 -4t6 -8q4 0 6 -2l6 -6h8h8h6h6l6 6t6 2q4 4 6 8l2 4q4 4 4 8v8v8t-4 4q0 4 -2 8t-6 8v0h-4q0 4 -4 6t-8 2h-4h-4zM1560 348q-4 0 -8 -2t-8 -2t-6 -2l-6 -6q0 -4 -4 -6t-4 -6t-2 -8t-2 -8t2 -6 t2 -6t4 -8l4 -4l6 -6l6 -6h8h8h8h4q4 4 8 6t4 6q4 0 6 4t2 8q4 4 4 6v6v8t-4 8q0 4 -2 6l-6 6q0 4 -4 6t-8 2l-4 2t-8 2zM1312 320h-8t-8 -4l-4 -2t-8 -2q0 -4 -2 -8t-6 -8v-4v-8v-8v-8q4 0 6 -4t2 -8q4 0 8 -2t4 -6h8h8h8h4q4 4 8 6t8 2q0 4 2 8l2 4q4 4 4 8v8v8t-4 4 q0 4 -2 8t-2 8q-4 0 -8 2t-8 2q0 4 -4 4h-8zM1068 312h-8t-8 -4l-4 -2l-4 -2q-4 -4 -6 -8t-6 -8v-4v-8v-8v-8q4 0 6 -4t6 -8l4 -2t4 -6h8h8h8h8l6 6t6 2q4 4 6 8l2 4q0 4 2 8t2 8t-2 8l-2 4q0 4 -2 8t-6 8q-4 0 -6 2t-6 2q-4 4 -8 4h-8zM1624 264h-8t-8 -4q-4 0 -6 -2l-6 -6 l-6 -6t-2 -6t-2 -6t-2 -6t2 -8t2 -8t2 -6l6 -6l6 -6t6 -2t8 -2t8 -2t6 2t6 2t6 2l6 6l6 6t2 6q4 4 4 8v8v6t-4 6q0 4 -2 6l-6 6l-6 6t-6 2q-4 4 -6 4h-6zM1360 228h-4t-8 -4q-4 0 -6 -2t-6 -2l-6 -6l-6 -6v-8v-8v-8v-8q4 0 6 -4t6 -4l6 -6l6 -6h8h4h8h8l6 6l6 6q4 0 6 4l2 4 q4 4 4 8v8v8t-4 8q0 4 -2 6l-6 6q-4 0 -6 2t-6 2q-4 4 -8 4h-8zM1100 212h-8t-8 -4q-4 0 -6 -2t-6 -2q-4 -4 -6 -8t-2 -8l-2 -4t-2 -8t2 -8t2 -8l2 -4t6 -8q4 0 6 -2l6 -6h8h8h6h6l6 6t6 2q4 4 6 8l2 4q4 4 4 8v8v8t-4 4q0 4 -2 8t-6 8l-4 2t-8 2q-4 4 -6 4h-6zM1412 140 q-4 0 -8 -2t-8 -2l-4 -4t-8 -4q0 -4 -2 -6l-6 -6v-8v-8v-8v-8q4 0 6 -4l2 -4q4 -4 8 -6t4 -6h8h8h8h4q4 4 8 6t8 6l2 4l2 4q4 4 4 8v8v8t-4 8q0 4 -2 6t-2 6q-4 0 -8 4t-8 4l-4 2t-8 2zM1128 112h-8t-8 -4q-4 0 -6 -2t-6 -2q0 -4 -2 -8t-6 -8v-4v-8v-8v-8l6 -6t2 -6 q4 0 6 -2l6 -6h8h8h8h4q4 4 8 6l4 2l6 6t2 6q4 4 4 8v8v8t-4 4q0 4 -2 8t-6 8l-4 2t-8 2q0 4 -4 4h-8z" />
<glyph unicode="P" d="M1828 336h-2h-2v0v4h-4h-4l-2 2l-2 2q-4 0 -10 2t-10 2q-4 4 -10 4h-10h-8t-8 -4h-10t-10 -4q-4 0 -6 -2t-6 -2l-2 -2t-6 -2q-4 -4 -12 -8l-16 -8t-18 -6t-22 -2h-4v0h-2h-2q-4 0 -8 2t-8 2t-8 2l-12 6l-4 2t-8 2q-4 4 -6 4h-2l-12 6t-8 2q-4 4 -6 4t-6 4q-4 0 -10 2 t-10 2h-6h-6h-10t-10 -4h-8t-8 -4h-4v0h-2h-2h-2t-2 -4v0h-4v0l-4 -4h-2h-2h-2t-2 -4v0h-4q-4 -4 -8 -6t-8 -6h-6h-6q-4 -4 -8 -4t-8 -4h-8h-8h-8h-8q-4 4 -8 4t-8 4h-6h-6q-4 4 -8 6t-8 6h-2h-2q0 4 -2 4h-2q-4 0 -6 2t-6 2q-4 4 -6 4h-2q-8 4 -12 4h-8q-4 4 -8 4h-8h-12 q-8 -4 -12 -4t-8 -4q-4 0 -8 -2l-4 -2h-2t-2 -4h-2h-2q-4 0 -4 -2t-4 -2h-2t-2 -4q-8 0 -14 -4t-14 -8q-8 0 -14 -2t-14 -2h-12h-8q-4 4 -8 4t-8 4h-6h-6q-4 4 -8 6t-8 6h-2h-2v4h-4l-4 2t-8 2q0 4 -4 4h-4q-4 4 -6 4h-6h-4t-4 4h-6h-6h-2h-6h-2h-6v0h-4t-6 -2t-6 -2h-6 t-6 -4q-4 0 -6 -2t-6 -2t-8 -2t-8 -6q-4 0 -6 -2l-6 -6h-2t-6 -4v4q-4 -4 -10 -6t-14 -2q-4 0 -10 -2t-10 -2q-8 0 -14 2t-10 2t-6 2t-6 2l-2 2l-2 2h-2h-2h-2t-2 4q-4 0 -6 2t-6 2h-2h-2v4v0q-4 0 -6 2t-6 2l-2 2l-2 2q-8 0 -12 2t-12 2q-4 4 -8 4h-8v0h-4h-16l-4 -2t-8 -2 h-2t-2 -4h-6h-6l-2 -2l-2 -2h-2t-2 -4h-2h-2q-4 0 -4 -2t-4 -2h-2t-2 -4q-8 0 -14 -4t-14 -8q-4 0 -12 -2t-16 -2h-8h-12q-4 4 -8 4t-8 4h-4h-8q0 4 -4 6l-12 6v0h-4v4v0q-4 0 -8 2t-8 2q0 4 -2 4h-6q-4 4 -8 4h-12q-4 4 -8 4h-8h-6h-6t-6 -2t-6 -2h-2h-6l-2 -2t-6 -2h-2 t-6 -4h-2t-6 -4h-2h-6v-2t-4 -2v0l-4 -4q-4 0 -8 -2t-8 -6h-2h-6q-4 -4 -8 -4t-8 -4h-8h-12t-14 2t-10 2t-6 2t-6 2l-4 2t-8 2q-4 4 -8 6l-4 2l-6 4t-14 8t-18 6t-22 2h-2h-6h-2h-2v-72q4 4 8 4h4h8h4q8 0 18 -2t18 -6q8 0 14 -4t10 -8q8 0 14 -4t14 -8t16 -6t20 -2 q20 0 34 6t26 14q16 8 32 14t36 6q24 0 38 -6t26 -14q16 -8 30 -14t34 -6q12 0 22 4t18 4q8 4 14 8t10 4q4 4 8 6t8 2l12 6t12 2l4 2t8 2h6h2q16 0 26 -4t18 -8q8 0 12 -4l4 -4q8 0 14 -4t14 -8t16 -6t16 -2h8q20 0 34 6t26 14q16 8 30 14t38 6q20 0 36 -6t28 -14 q16 -8 30 -14t34 -6q12 0 22 4t18 4q8 4 14 8t10 4q4 4 12 8t12 4q8 4 16 6t20 2t22 -2t18 -6q12 -4 16 -8l4 -4q4 0 10 -4t14 -8t18 -6t18 -2q12 0 24 4t20 8l16 8t12 4q4 4 10 6t14 2q8 4 16 6t16 2q24 0 38 -6t26 -14q16 -8 30 -14t34 -6q12 0 22 4t18 4q8 4 14 8l6 4 q8 4 14 8t14 4q12 4 20 6t16 2h8t8 -4h10t10 -4h2h2h2h2l2 -2l2 -2v60l-2 2zM1648 340v0v-4h8h8q4 4 8 6t8 2l4 2l4 2q4 4 8 6t8 2q4 4 6 4h6l6 6t6 2t10 2t10 2q8 4 14 4h10h10t14 -4q8 0 14 -2t10 -6h4v0h2h2v196h-104q-20 -34 -84 -132v-2v-2q4 0 6 -4t2 -8v-10v-10v-16 v-16v-10v-10zM1472 984q0 -12 4 -22t8 -18q8 -8 14 -16t14 -12q12 -8 22 -12t18 -8h22h18q12 4 22 8t18 8t16 12l16 16q4 8 10 18t6 18q4 12 4 22t-4 22q0 12 -4 22t-12 18q-4 8 -10 16t-18 12q-8 8 -16 12t-20 4q-8 4 -18 4h-22v0h-4q-8 -4 -18 -6t-22 -10q-8 -4 -14 -12 t-14 -16q-4 -8 -10 -18t-10 -22v-18t4 -22zM1112 560q-22 -34 -84 -132v-2v-2q4 0 4 -4v-8q4 -4 4 -10v-10v-6v-6v-2v-2h2h2q0 -4 4 -4h4t8 -2l4 -2h4v0l4 -2l4 -2q4 0 8 -2t8 -6h2h2l2 -2l2 -2q4 0 8 -2t4 -6q4 0 8 -2l4 -2h8t4 -4h8h8h4h4q4 4 6 4h6t6 2l2 2q4 0 8 2t8 6 h2h2l4 4h4l2 2l2 2h2h2v2v2q4 0 8 2t8 2t10 2t10 6h4v0h2h2h12h12t8 -4h12t12 -4l4 -2l4 -2q4 0 8 -2t8 -6q4 0 4 -2t4 -2t8 -2t4 -6q4 0 8 -2l4 -2h6t6 -4h6h6h4h8q4 4 6 4h6t6 2t6 2l6 6t6 2t4 2v2h4v0q4 0 4 2v2h6t2 4h2h2h4v0v4v-4v2v2h4h4l2 2l2 2h6h6q2 6 8 16l2 2 l2 2q0 4 2 4t2 4q4 0 6 2l2 2l6 6t6 2q4 4 8 6t8 6q8 4 14 8t10 8l12 6t8 2h12h8q24 38 72 112h-204q24 44 100 176l176 -96q12 -8 20 -10t12 -2q8 0 16 2t12 6q8 4 12 8l8 8q4 8 6 14t2 14t-2 14t-6 10q-4 8 -12 14t-16 14q-18 10 -56 28h4l-216 120q-12 8 -26 12t-26 4 q-8 4 -18 4t-22 -4q-8 0 -16 -4l-16 -8l-10 -10l-10 -10l-6 -12t-6 -8l-2 -2l-2 -2q-54 -94 -160 -280h-104zM856 984q4 -12 8 -22t8 -18t12 -16t16 -12q8 -8 18 -12t18 -8h22h22q12 4 22 8t18 8t16 12t12 16q8 8 12 18t4 18q4 12 4 22v22t-4 22t-12 18q-4 8 -12 16t-16 12 q-8 8 -18 12t-18 4q-8 4 -18 4h-22v0h-4q-12 -4 -22 -6t-18 -10q-8 -4 -16 -12t-12 -16q-8 -8 -12 -18t-8 -22v-18v-22zM320 376q8 -4 14 -8t14 -8l16 -8t16 -4q0 -4 4 -4t4 -4h6h6h2h2h2h2q4 0 6 2l2 2q4 0 6 2l6 6h4v0l4 4v0q4 0 6 2l2 2q4 0 6 2t6 2t6 2l2 2q4 0 6 2l2 2 h6h6t6 2t6 2h8h8h10t10 -4h14t10 -4q4 0 6 -2t6 -2t6 -2l6 -6h4v0q4 0 4 -2v-2q4 0 8 -2t8 -6q4 0 6 -2l2 -2h8t4 -4h8h8h4h4q4 4 8 4h4t6 2l2 2q4 0 8 2t8 6h4v0q4 4 6 4h2l2 2l2 2h2h2v2v2h2h2h2h2q4 4 6 4h6l2 2t6 2h6t6 4h4v0h16h2h2h10t10 -4q8 0 14 -2t14 -6h6t2 -4 q4 0 6 -2t6 -2v0h4v-2v-2q4 0 6 -2t6 -2h2t2 -4h2h2q10 14 28 44l2 2l2 2q0 4 2 4t2 4l4 2l4 2l6 6l2 2q4 4 10 6t10 6t10 8t14 8q4 4 10 6t10 2h12h8q22 38 68 112h-200q24 44 100 176l176 -96q8 -8 16 -10t16 -2t16 2t12 6q8 4 12 8t4 8q4 8 6 14t2 14t-2 14t-6 10 q-4 8 -10 14l-14 14q-18 10 -56 28q-52 30 -212 120q-16 8 -28 12t-24 4q-12 4 -22 4t-18 -4q-8 0 -16 -4l-16 -8l-10 -10l-10 -10q-4 -8 -8 -12l-8 -8v-2v-2q-54 -94 -164 -280h-16q0 4 -2 4h-2q-32 -4 -62 4t-58 24q-24 16 -42 36t-22 44t4 60t20 68q16 36 28 66t16 38 q20 36 12 66t-36 50q-24 24 -62 38t-82 14q-12 0 -24 -2t-24 -6t-24 -10t-20 -14q-8 -4 -16 -14t-12 -18t-8 -18t-4 -22q0 -8 2 -16t6 -16t10 -16t14 -16h140q-60 -88 -86 -154t-34 -114q-8 -44 -4 -74t8 -42q4 -20 14 -42t22 -42q12 -16 28 -32t36 -28z" />
<glyph unicode="Q" d="M1512 1236q-14 -10 -52 -36q-4 -4 -8 -6t-8 -6q-4 0 -8 -4t-8 -4q-8 -8 -18 -12t-18 -12q-8 -4 -18 -8t-18 -8l-2 -2t-6 -2t-6 -2l-2 -2q-12 -4 -24 -6t-24 -6q-8 0 -18 -2t-22 -2q-8 4 -18 4h-22q-8 4 -18 8t-22 4q0 4 -8 6t-20 6q-8 4 -22 10t-34 10q-12 8 -24 12 l-24 8t-24 6t-20 6q-16 4 -30 4h-30q-12 4 -26 2t-26 -2q-32 -4 -66 -16t-74 -32q-36 -16 -72 -42t-76 -62q-6 -4 -20 -12q52 -152 212 -608q8 8 36 32t52 42t48 30q24 16 44 24t40 12q8 4 16 4h12h16h16t14 -2t14 -6q8 0 16 -2t20 -2q16 -8 28 -12t20 -8q8 0 14 -2l6 -2 q12 0 22 -2t18 -6q12 0 22 -2t18 -2q16 0 28 -2t24 -6q12 0 22 2t22 2q8 0 18 2t18 2l24 8l24 8q12 0 24 6l20 10q12 4 22 10t18 10q12 8 20 14t16 14q12 8 18 16t14 16q-34 200 -100 600zM516 1120h-2h-2h-2h-6h-2t-2 -4q-30 -10 -88 -28l-6 -6l-6 -6q-4 0 -6 -2t-2 -6 q-4 -4 -4 -8v-8v-8v-8t2 -8t6 -8q4 0 6 -2l6 -6q4 0 8 -2t8 -2t8 2t8 2q2 2 8 4q100 -290 404 -1156q18 6 76 28q-100 288 -404 1156h4q4 0 6 2t6 2q4 4 6 8t2 8q4 4 4 8v4v8v8q-4 4 -4 8t-4 4q-4 4 -6 8t-6 4t-6 2t-6 2h-2h-2z" />
<glyph unicode="R" d="M1352 256l96 -96q-20 -16 -36 -28t-36 -24t-36 -22t-40 -22q-14 42 -40 128q8 8 22 14t22 14q12 8 26 16t22 20zM1496 432q30 -12 124 -48q-8 -20 -20 -38t-24 -38q-8 -16 -22 -34t-26 -34q-34 32 -100 96q16 8 22 20t14 24q12 12 16 26t16 26zM1544 660h136 q-4 -20 -2 -42t-2 -46q-4 -20 -6 -40t-14 -40q-40 14 -120 44q-2 6 -2 12q0 10 4 18q6 14 6 30t2 32t-2 32zM984 1000h124q0 -118 4 -472h-412q2 30 4 124h276q0 86 4 348zM1024 1316q72 0 132 -12t120 -36t112 -60t104 -84q-4 0 -2 -2t-2 -2h4t0 -4q4 0 2 0t2 0t2 -2t2 -2 q34 34 100 104l80 -376l-384 72q28 26 108 108q-4 0 -2 0t-2 0v2t-4 2q0 4 -2 4t2 0q-44 40 -84 68t-88 44q-48 20 -96 30t-104 10q-48 0 -100 -10t-96 -30q-44 -16 -88 -44t-80 -68q-40 -36 -68 -78t-48 -90q-20 -44 -28 -94t-12 -106q4 -52 12 -102t28 -98q20 -44 48 -86 t68 -82q36 -36 80 -66t88 -50q44 -16 96 -26t100 -10q20 0 34 2t30 2q20 0 32 4t32 8q14 -42 44 -128q-16 -4 -36 -8l-40 -8q-16 0 -38 -2t-38 -2h-4h-4h-4h-8h-14h-18h-12h-12q-64 8 -116 22t-104 38t-96 56t-92 76q-44 48 -82 100t-58 108q-20 60 -34 122q-10 48 -10 100 v30q-4 68 10 132t34 120t58 110t82 102q52 48 104 84t112 60t120 36t132 12h-4z" />
<glyph unicode="S" d="M944 1296v-180h128v180h-128zM1288 1196h-4h-4v-2v-2q-4 0 -4 -2v-2v-2v-2v-112h-572h-4l-4 -4h-2h-2v-2t-4 -6v0v-4v-264v-2v-6h4v-4h2h2h4h4h240v-156h128v156h204v-116v0v-4v0l4 -4v0v-4h4h4h2h2h2t2 4q126 86 380 256q0 4 2 4h2v2v2q4 0 4 2v2v2t-4 2v2v2l-2 2l-2 2 q-126 86 -380 260h-2h-2h-2h-2zM728 704v0l-4 -4q-128 -86 -384 -260v0l-4 -4v-4v-4v-4v-4h4v0q128 -86 384 -260h6h2h2h2h2t2 4h2h2v6v2v112h200v-416h128v416h244h2h2q4 0 4 2v2q4 0 4 2v2v2v2v268v2v2v2t-4 2v4h-4h-2h-2h-572v112v4v0q0 4 -2 4t-2 4h-2h-2l-2 2l-2 2h-2 h-2z" />
<glyph unicode="T" d="M1076 820v-224h-304v-304h-224v304h-304v224h304v300h224v-300h304zM1428 68v224h228v-224h-228zM976 68v224h228v-224h-228z" />
<glyph unicode="U" d="M720 1156h-8h-8l-4 -2l-4 -2q-4 -4 -6 -4t-6 -4v-2v-2q-14 -44 -40 -132q-12 -4 -24 -10t-24 -14l-24 -16t-20 -16q-54 16 -160 48h-4h-4t-6 -2l-2 -2q-4 0 -6 -2l-6 -6l-2 -4l-2 -4q-22 -34 -68 -104q0 -4 -2 -6l-6 -6v-4v-4v-6v-6v-2t4 -2q42 -40 124 -120q0 -8 -2 -16 t-2 -16v-12v-16v-14v-14t2 -16t2 -16q-42 -40 -124 -120q-4 0 -4 -2v-6v-2v-2v-6v-6l6 -6t2 -6q22 -34 68 -100q0 -4 2 -6t2 -6q4 0 6 -2l6 -6l2 -2t6 -2h4h4q54 16 160 48q8 -8 18 -14t22 -14t22 -12t22 -8q10 -46 32 -140l2 -2l2 -2q4 0 6 -2l2 -2q4 -4 6 -4h6t6 -2t6 -2 h132q4 0 8 2l4 2h8t4 4q4 0 6 2l2 2q4 0 4 2t4 2q12 46 36 136q12 4 24 10t24 10l24 16l24 16q54 -16 160 -48h2h2q4 0 6 2l2 2l6 6l2 2l6 6l6 6q22 34 64 100q4 4 4 6v6q4 4 4 6v6v2v2v6t-4 2q-42 40 -124 120q4 8 4 16v16v14v14v16v12v16t-4 16q42 40 124 120q4 0 4 2v2v6 v6v4t-4 4v6t-4 6q-22 34 -64 104q-4 0 -6 4t-6 4q0 4 -2 6l-2 2q-4 0 -6 2t-6 2h-2h-2q-54 -16 -160 -48q-12 8 -22 16t-22 12q-8 8 -20 14l-20 10q-12 46 -36 136l-2 2l-2 2q0 4 -2 4t-6 4q-4 0 -6 2t-6 2h-6h-6h-132zM780 848q16 0 34 -4t34 -12q20 -8 34 -18t26 -22 q16 -12 26 -28t14 -32q8 -16 12 -34t4 -38t-4 -38t-12 -34q-4 -16 -14 -30t-26 -30q-12 -12 -26 -22t-34 -18q-16 -8 -34 -10t-34 -2q-20 0 -38 2t-34 10t-32 18t-28 22q-16 16 -26 30t-18 30q-4 16 -8 34t-4 38t4 38t8 34q8 16 18 32t26 28q12 12 28 22t32 18t34 12t38 4z M1464 712h-2t-6 -4v0h-4v0l-4 -4q-6 -22 -20 -68q-4 0 -10 -4t-14 -8q-4 -4 -10 -6t-14 -6q-26 8 -76 24l-2 -2l-2 -2h-2h-2q-4 0 -4 -2t-4 -2v-2v-2q-10 -18 -32 -52q-4 0 -4 -2v-6v0l-4 -4v-2v-2h4v-4q20 -18 60 -56v-8v-8v-8v-8v-6v-6v-8v-8l-60 -60v0l-4 -4v0v-4 q4 0 4 -2v-2v-2t4 -2q10 -18 32 -52v-2v-6h4h4l2 -2l2 -2h2h2q26 8 76 24q8 -4 12 -8l8 -8q8 0 14 -2t10 -6q6 -22 16 -68l2 -2l2 -2v0h4q0 -4 2 -4h2h2h6h64h2h2h6t2 4h2h2l2 2l2 2q6 22 16 64q8 4 14 6t10 6q8 4 14 8t10 8q26 -8 80 -24q4 0 4 2t4 2h2h2v6t4 2 q10 18 32 52l2 2l2 2v2v2v4v0v4v0q-22 20 -64 60q0 4 2 8t2 8v6v6v8v8t-2 8t-2 8q22 18 64 56v4v0v2v2v4v0q0 4 -2 6l-2 2q-10 18 -32 52q-4 0 -4 2v2l-2 2l-2 2h-4h-4v2v2q-26 -8 -80 -24q-4 0 -10 4t-10 8t-10 6t-10 6q-6 22 -20 68q0 4 -2 4h-2h-2h-6q0 4 -2 4h-2h-68z M1496 556q8 0 18 -2t18 -6q8 0 14 -6t14 -10q8 -8 12 -16l8 -16t6 -16t2 -20q0 -8 -2 -18t-6 -18t-8 -14t-12 -14t-14 -12t-14 -8t-18 -6t-18 -2q-12 0 -20 2t-16 6l-16 8t-16 12q-4 8 -10 14t-10 14q0 8 -2 18t-2 18q0 12 2 20t2 16q4 8 10 16t10 16q8 4 16 10t16 6 q8 4 16 6t20 2z" />
<glyph unicode="V" d="M528 1352h-2h-6h-2h-2q-4 -4 -8 -6t-8 -6q-4 0 -8 -4t-4 -8q-16 -32 -28 -66t-24 -70q-8 -32 -12 -68t-4 -76q0 -36 4 -74t12 -74l24 -64t28 -64q0 -4 4 -8l8 -8t8 -6t8 -2q4 -4 8 -4h8q8 0 12 2t8 6q4 0 8 4l4 4t6 8l6 12v8v8v10t-4 10q-12 24 -24 52t-20 56 q-4 32 -8 62t-4 62t4 62t8 58q8 32 20 60l24 56q4 4 4 8v8v8v12q-4 4 -6 8t-6 8q0 4 -4 6t-8 6q-4 0 -6 2t-6 2h-4h-8zM1516 1352h-6t-6 -4h-2h-6q-4 -4 -8 -6t-8 -6q0 -4 -2 -8t-6 -8v-12v-8t2 -8t2 -8q16 -28 26 -56t14 -60q8 -28 12 -58t4 -62v-6v-6v-8v-8q-4 -28 -8 -54 t-12 -54q-4 -24 -14 -48t-22 -48q-4 -4 -4 -10v-10v-8v-8l6 -12t2 -8q4 0 8 -4t8 -4q4 -4 8 -6t8 -2h12t8 4q4 0 8 2t8 6t8 6t4 10q16 28 28 56t20 60t12 64l8 64v8v8v8v8q0 40 -4 76t-16 68q-8 36 -20 70t-28 66q0 4 -4 8t-8 4q-4 4 -8 6t-8 2q0 4 -2 4h-6h-2h-6z M1324 1268h-6t-6 -4h-6h-2q-4 -4 -8 -6t-8 -6t-6 -8t-2 -8t-2 -8t-2 -8q4 -4 4 -8t4 -8v-4q8 -16 16 -34t12 -38t6 -40t2 -40v-6v-6v-6v-6q0 -16 -4 -34t-8 -34t-10 -30t-14 -30q-4 -4 -4 -8t-4 -8q0 -4 2 -10t2 -10t2 -8t6 -8q4 0 8 -4t8 -4q4 -4 8 -6t8 -2h8t8 4q4 0 8 2 t8 2q4 4 6 8t2 8h4v0l16 40t12 40q8 20 12 42t4 46v8v4v8v8q0 28 -2 54t-10 50q-4 24 -12 46t-20 46q-4 4 -6 8t-6 4q-4 4 -8 6t-8 2q0 4 -2 4h-6h-2h-2zM724 1268h-2h-6h-2t-2 -4q-4 0 -8 -2t-8 -6q-4 0 -6 -4t-6 -8q-12 -24 -20 -46t-16 -46q-4 -24 -6 -50t-2 -54v-8v-8 v-4v-8q0 -24 4 -46t8 -42l16 -40l16 -40l6 -6l6 -6t8 -6t8 -2t8 -2t8 -2t8 2t8 6h2h2q4 0 6 4t6 4q4 4 6 8t2 8t2 8v2t-2 6v8t-4 8v2v2q-8 16 -14 30t-10 30t-6 34t-6 34v6v6v6v6q0 20 2 40t6 40q8 20 14 38t14 34q4 8 4 12v8q4 4 2 8t-2 8t-2 8t-6 8l-6 6l-6 6h-6h-6 q-4 4 -6 4h-6zM1028 1188h-2h-2h-6h-6h-2h-6t-10 -2t-10 -6q-4 0 -8 -2t-8 -2q-4 -4 -10 -8t-14 -8l-8 -8l-8 -8v-4v0h-2h-2q-4 -12 -8 -20l-8 -16t-4 -18v-18v-6v-6v-2v-6q4 -8 6 -16t2 -16q4 -4 8 -10t8 -14l6 -6l6 -6t8 -6t8 -6l2 -2l2 -2q4 0 6 -2l2 -2q8 -4 18 -8 t18 -4h22h18l24 8t20 8q12 8 20 16t16 20q4 4 8 12l8 16q4 12 4 20v16q4 2 2 4v2q-2 2 -2 6v6v6l-8 24t-12 20q-4 12 -12 20l-16 16l-16 8t-20 8q-8 4 -16 4h-16zM948 912v0h-4h-8h-6h-6t-8 -2l-4 -2q-4 0 -8 -2t-8 -2l-4 -2l-4 -2q-8 -4 -16 -10t-16 -14q-4 -4 -8 -12 l-8 -16q-50 -126 -148 -380q0 -4 -2 -8t-2 -12q0 -4 2 -8t2 -8q4 -4 6 -8t6 -8t8 -6t8 -2q4 -4 10 -4h10h8t8 4q4 0 8 4t8 4q4 4 6 8t2 12q38 98 116 292v-16v-16v-18v-18v-8v-8v-8v-8v-34v-34v-34v-34v-2v-2v-2v-2v0v-4v-16v-16v-16v-16v-28v-28q0 -12 2 -26t2 -26v-4v-4v0 v-4v-102v-98q4 -48 4 -96t4 -96q0 -4 2 -10t2 -10q4 -4 6 -8t6 -8t10 -6t10 -6h10h10h10h10l8 8l8 8t6 8t2 8l6 12t2 12q-4 44 -6 92t-2 96t-2 98t-2 102v8v18v18v22v22v2v2l2 2l2 2l4 4h4h16h4v-4h4v0l2 -2l2 -2v-2v-2v-22v-22v-18v-18v-8q0 -52 -2 -102t-2 -98t-2 -96 t-6 -92q0 -8 2 -12t2 -12q4 -4 6 -8t6 -8l8 -8l8 -8h10h10h12h8q4 4 10 6t10 6t6 8t2 8q4 4 6 10t2 10q0 48 2 96t2 96q4 48 4 98v102q0 4 2 4h2v4v4v26v26v28v28v16v16v16v16v4v0v2v2v2v2v34v34v34v34v8v8v8v8v18v18v16v16q10 -22 28 -68l88 -224q0 -8 2 -12t6 -8q4 0 8 -4 t8 -4q4 -4 8 -4h8h10t10 4q4 0 8 2t8 6t6 8t6 8q0 4 2 8t2 8q0 8 -2 12t-2 8q-26 64 -76 192q-18 46 -72 188l-8 16t-12 12q-4 8 -12 14t-16 10q-4 4 -12 6t-16 2q-8 4 -16 4h-16h-152z" />
<glyph unicode="W" d="M1024 1368q48 -116 196 -460l504 -48q-94 -82 -380 -328l112 -496l-432 264l-432 -264l112 496q-96 80 -380 324v4q124 12 500 48q50 114 200 460z" />
<glyph unicode="X" d="M1020 1468q-6 -68 -28 -268h8h4h10h10h6h6h8h4q-6 90 -20 268h-12h4zM788 1440q18 -70 76 -276q12 4 16 8t12 4q12 4 16 6t16 6q-46 84 -140 252h4zM1268 1436q-36 -64 -140 -252q8 0 14 -2t14 -6l12 -6t16 -6q26 90 80 272h4zM580 1304q44 -56 180 -224l6 6t6 2q4 4 4 8 t8 4q-4 4 2 6t6 6t4 6l4 2q-74 62 -220 184zM1464 1304q-54 -46 -220 -184l4 -2t4 -6t6 -6t2 -6q4 0 2 0t2 0l4 -4t4 -8l6 -2t2 -6q62 74 188 224h-4zM1020 1112q-24 0 -50 -4t-46 -16q-20 -8 -42 -22t-38 -30q-20 -20 -32 -40t-24 -44q-12 -20 -14 -44t-6 -52q4 -28 6 -52 t14 -48l24 -40t32 -40q16 -16 38 -30t42 -26q20 -8 46 -12t50 -4q32 0 54 4t46 12q24 12 42 26t42 30q12 20 28 40t24 40q8 24 14 48q4 14 4 30q0 10 -2 22q4 28 -2 52t-14 44q-8 24 -24 44t-28 40q-24 16 -42 30t-42 22q-24 12 -46 16t-54 4zM448 1104l248 -136q4 4 6 12 t6 12q4 8 6 14t10 14q-94 28 -280 84h4zM1604 1096l-280 -80q8 -8 10 -14t6 -14t4 -14t8 -14q82 46 248 136h4zM684 888q-72 -8 -292 -28q74 -8 292 -28q-4 4 -2 8t-2 4q0 4 2 8t-2 8q4 4 2 8t-2 8q4 4 2 8t2 4zM1360 888q4 0 2 -4t-2 -8q4 -4 2 -8t2 -8q-4 -4 -2 -8t-2 -8 l2 -4t-2 -8q98 10 292 28q-74 6 -292 28zM696 760l-256 -136q70 20 280 84q-8 4 -10 10t-6 14t-4 14t-8 14h4zM1348 756q-4 -8 -6 -16t-6 -16q-4 -4 -6 -10t-10 -14q94 -28 280 -84q-64 34 -256 140h4zM1284 640q-4 0 -6 -4t-6 -8q-4 0 -4 -2t-8 -6h4l-6 -6l-6 -6 q-4 0 -4 -2t-8 -6q76 -62 228 -184q-46 56 -188 224h4zM764 640q-46 -56 -188 -224q56 46 228 184q-8 4 -8 6t-4 2l-6 6l-6 6q0 4 -4 6l-4 2q0 4 -6 8t-2 4zM772 500h-2h-2q-4 -4 -2 -4t-2 0v-2t-4 -2q4 0 2 -2l-2 -2q4 0 2 -2t2 -2q0 -28 6 -56t6 -52q0 -20 6 -40t6 -36 q8 -20 10 -34t6 -30q8 -12 10 -24t14 -20h-4q8 -8 12 -18t12 -18q8 -4 14 -12t18 -12h-4q8 -4 12 -8l12 -12q12 -4 20 -10t24 -10q-4 -16 -2 -30t-2 -26t-6 -24t-10 -20h4q-8 -4 -8 -10t-8 -10t-10 -8t-14 -8h4h-4l-4 -4h-6t-10 -4h4h-8l-8 -4h-4h-4q-4 -4 -10 -8t-10 -12 q0 -4 -4 -10t0 -14q-4 0 -2 0t-2 -4l4 -4v0q4 0 2 -2t6 -2h380q8 0 6 2l-2 2h4l4 4q-4 0 -2 0t-2 0q0 4 2 4t-2 0q4 8 0 14t-8 10q0 8 -6 12t-10 8h-4h-8l-4 4h-8h4q-8 4 -10 4h-6l-4 4h-4h4q-12 4 -14 8t-10 8q-4 4 -6 10t-10 10q0 8 -6 20t-6 24t-2 26t2 30l20 10t16 10 q8 8 16 12t8 8q12 4 18 12t14 12q8 8 12 18t12 18l10 20t6 24q4 16 10 30t6 34q8 16 10 36t6 40q4 24 6 52t10 56q-4 0 -2 2t-2 2l2 2t-2 2q4 0 2 2l-2 2h-2t2 4q-8 0 -6 0t-2 0t-2 0t-2 0h-492h-4zM996 432h52q-2 -16 -4 -60h64q-2 -12 -4 -48h-56q-2 -20 -4 -80h-44 q-2 20 -4 80h-56q0 12 -4 48h64q-2 14 -4 60z" />
<glyph unicode="Y" d="M1380 1124q-6 -46 -24 -180q-12 8 -30 14t-34 10q-12 8 -30 12t-30 8q-20 4 -34 8t-34 4q-20 4 -36 6t-40 2t-52 -4t-48 -12q-20 -4 -42 -14t-34 -26q-20 -12 -34 -28t-30 -36q-12 -20 -18 -40t-18 -44h404l-56 -136h-364q-4 -8 -2 -14t-2 -14q0 -4 2 -10t-2 -14 q4 -8 2 -14t-2 -14q4 -4 4 -10t4 -10h380q-10 -34 -44 -136h-296q16 -16 24 -30t20 -26q16 -12 28 -24t32 -20q8 -8 28 -16t36 -12t40 -6t40 -2q24 0 40 2t36 2q20 4 34 6t34 6q12 8 30 12t30 8q16 8 34 14l30 10q8 -58 24 -176q-16 -8 -30 -14t-34 -14q-20 -4 -36 -8 t-36 -8q-16 -4 -38 -6t-38 -6h-38h-34q-44 0 -82 4t-74 12q-36 12 -68 28t-68 36q-24 20 -54 44t-50 52l-40 64t-32 68h-228q12 34 52 136h140q0 4 -2 10t-2 10q4 8 2 14t2 14q-4 8 -2 16t-2 12v14t-4 10h-144l48 136h120q0 20 8 42t16 38q8 20 18 40l18 36q16 16 26 32 t26 32t28 30t32 26q12 12 32 22l36 18q16 12 36 20t36 16q24 4 42 10t42 6q24 4 44 6t48 2h34t38 -4q16 0 38 -4t38 -4q20 -4 36 -8t36 -12q20 -4 34 -10t30 -14z" />
<glyph unicode="Z" d="M1024 1208q-68 0 -132 -10t-124 -30t-114 -50t-102 -70q-52 -40 -88 -84t-60 -96q-24 -48 -36 -100t-12 -108t12 -108t36 -104q24 -48 60 -92t88 -84q12 -12 24 -20l24 -16l24 -16t28 -16q20 -12 40 -22t40 -18q24 -8 46 -16t46 -12q-22 -92 -68 -276q74 62 300 252 q64 4 124 14t112 30q56 20 108 50t96 66q52 40 88 84t60 92q24 52 36 104t12 108t-12 108t-36 100q-24 52 -60 96t-88 84q-48 40 -102 70t-114 50t-124 30t-132 10zM1424 876q14 -4 56 -12q-2 -8 -4 -28l-16 -48t-20 -48q-8 -20 -20 -40t-28 -40q16 -20 28 -40t20 -44 q12 -20 20 -44l16 -48q2 -10 4 -28q-14 -4 -56 -12q-2 6 -8 28q-4 20 -10 38t-14 34q-8 20 -18 36t-22 36v-4h-4v-2v-2q-36 -36 -74 -62t-82 -46q-40 -16 -86 -26t-94 -10q-52 0 -98 10t-90 26q-40 20 -78 46t-74 62l-8 8l-8 8q0 4 -4 8l-8 8q-6 6 -16 20q4 4 16 20l8 8t4 8 l8 8l8 8q36 36 74 62t78 42q44 20 90 30t98 10q48 0 94 -10t86 -30q44 -16 82 -42t74 -62v-2v-2h4v-4q12 20 22 36t18 32q8 20 14 38t10 38q2 10 8 28zM1012 796q-44 0 -84 -8t-80 -24q-36 -16 -70 -40t-62 -52l-4 -4l-4 -4v-2t-4 -2q4 0 4 -2v-6h4l4 -4q28 -28 62 -52 t70 -40q40 -16 80 -24t84 -8q40 0 82 8t78 24t70 40t66 52q0 4 2 4h2q0 4 2 6l2 2l-2 2l-2 2q0 4 -2 4t-2 4q-32 28 -66 52t-70 40t-78 24t-82 8zM868 752h40v-44h40v-40h-40v-100h-40v100h-44v40h44v44z" />
<glyph unicode="[" d="M1480 1204q-4 0 -8 -2t-8 -2t-8 -2t-8 -6q-140 -102 -420 -304h-2t-2 -4v0l-4 -4v0v-4q-8 -12 -16 -22t-20 -18q-8 -8 -20 -14t-24 -10q-16 -4 -28 -6t-24 -2l-24 8t-24 12v0h-4q-12 4 -20 12l-16 16q-8 12 -14 22t-10 22q-92 2 -276 8h-10t-10 -4q-4 0 -8 -2l-12 -6 q-4 -4 -6 -10t-6 -10q0 -4 -2 -10t-2 -10v-12v-12l8 -8l8 -8l8 -8l8 -8h10h10q40 -2 120 -4q66 -2 268 -8q16 -14 68 -56q4 0 4 -2v-2q64 -50 192 -148q-52 -32 -212 -128q-4 0 -4 -2t-4 -2l-2 -2l-2 -2l-6 -6l-6 -6l-2 -4t-2 -8v-4t-4 -8v-2v-6v-6v-6q4 -4 4 -6v-6 q4 0 4 -4v-8q4 0 6 -2l6 -6l2 -2l2 -2q4 0 6 -2l2 -2q54 -30 164 -92q-26 -46 -108 -184l-6 -12t-2 -12v-10t4 -10q0 -4 2 -10t6 -10l8 -8t8 -4q4 -4 10 -6t10 -2h12h12q4 4 8 6t8 6q8 4 10 8t6 8l108 180q4 0 10 -2t10 -2h10t10 4q8 0 12 2t8 6q8 4 10 8t6 8l6 12t2 8v14 v10l-6 12t-6 8q0 4 -4 8t-8 4q38 64 112 192l2 2l2 2q4 4 4 8v4q8 8 10 14t6 10q4 8 6 14t6 14q0 4 2 10t2 10v14v14q0 12 -6 24t-18 28q-8 16 -20 32t-28 32q-4 0 -8 4l-8 8l-8 8l-12 12q-6 6 -20 16q-34 30 -100 92q84 62 332 248q8 4 10 8t6 8t6 8t2 12v10t-4 10 q0 8 -2 12t-6 8l-8 8t-8 4q-4 4 -8 6l-12 6h-2h-2h-2h-2zM904 1052h-8t-8 -4h-8h-8q-12 -4 -22 -10t-18 -14q-8 -4 -14 -12t-10 -16h-4v0v-2v-2q-4 -8 -8 -20l-8 -24q0 -8 2 -18t6 -22q0 -12 6 -22t10 -18q8 -8 16 -14t20 -14q12 -4 22 -8t18 -8q12 0 24 2t20 6q12 0 22 6 t18 10q8 8 16 18t12 18q0 4 2 4h2q0 4 2 6t2 6q4 8 4 16v16q2 4 2 10v6q-2 8 -2 16v4h-4q0 12 -6 22t-14 18q-4 8 -12 16t-20 12q-4 4 -12 6t-16 2q-4 4 -10 6t-14 2zM1024 888v-2v-2v2v2zM1240 496q-22 -36 -84 -144q-20 10 -80 44q40 24 164 100z" />
<glyph unicode="\" d="M1136 1240h160v-200h-100h-20t-16 -4q-4 0 -10 -2t-10 -2q-4 -4 -8 -6t-8 -6q0 -4 -2 -8t-2 -8t-2 -10t-2 -10v-10v-14v-100h180q-4 -50 -20 -200h-160v-580h-220v580h-144v200h144v120q0 20 2 38t2 34q4 20 8 36l8 32q4 12 12 26t16 22q8 12 20 22t24 18t28 14t32 10 q20 4 42 6t46 2z" />
<glyph unicode="]" d="M1024 1384q-48 0 -94 -8t-86 -24t-78 -42t-74 -62q-32 -28 -54 -62t-42 -70q-16 -32 -26 -70t-14 -78v-14v-14v-10v-14q0 -48 8 -94t24 -86t42 -78t62 -74q28 -28 56 -48t56 -36q32 -16 66 -28t66 -20v-132h-208v-176h208v-208h176v208h208v176h-208v132q32 8 66 20 t62 28q32 16 60 36t56 48q36 36 62 74t42 78t24 86t8 94v14v10v14v14q-4 40 -14 78t-30 70q-16 36 -38 70t-54 62v0h-4v4v0q-36 36 -72 60t-80 40q-40 16 -84 24t-92 8zM1024 1212q32 0 58 -4t50 -16q28 -12 52 -26t48 -38q20 -20 34 -38t22 -38q12 -20 18 -42t10 -42 q0 -8 2 -14t2 -14v-10v-14q0 -32 -6 -60t-18 -56q-8 -24 -24 -48t-40 -44q-20 -24 -42 -40t-50 -28q-24 -8 -52 -14t-56 -6h-2h-2h-2h-2q-32 0 -60 6t-56 14q-24 12 -48 28t-44 40q-24 20 -40 44t-28 48q-8 28 -14 56t-6 60v14v10q0 8 2 14t2 14q4 20 10 42t14 42 q12 20 26 38t34 38t44 36t48 28q28 12 56 16t60 4z" />
<glyph unicode="^" d="M1428 1200q32 -34 132 -132l-404 -404l408 -408q-32 -34 -132 -132q-102 100 -408 404l-408 -408q-34 34 -132 136l408 408l-404 404q34 32 132 132l404 -404z" />
<glyph unicode="_" d="M636 1312h-6t-6 -4h-6t-6 -4t-8 -6t-8 -6t-6 -10t-6 -10v-10v-14q0 -4 2 -8t2 -8q94 -174 284 -520l2 -2l2 -2v-14v-14v-10v-10v-32v-36v-32v-32v-4v0v-40v-40v-36v-40v-2v-2v0v-4v0v-4h2h2v-18v-22v-18v-18v-32v-32v-28v-32v-4v-4v0v-4v-40v-40v-40v-40h4v-12v-8 q4 -4 6 -10t6 -10l8 -8l8 -8q8 0 14 -2t10 -2h14h10q8 4 14 6t10 6q8 10 24 28v156v4v8v8v8v26v26v24v24v2v2q0 4 2 4h2v4h24v-4h2t2 -4v-2v-2v-16v-20v-16v-20v-4v-8v-2v-6v-40v-40v-34v-38q-4 0 -4 -2v-6t2 -8t2 -12v-10v-10l6 -6t2 -6l8 -8l8 -8q4 0 8 -2t8 -2v-2v-2h4h4 v4v-4v0h4h4h4h4h4v0h4v0q4 0 8 2t8 2t8 4t8 4q90 72 272 216q4 4 8 10t8 10q4 8 6 14t2 14v10t-4 10q0 8 -4 14t-8 14l-8 8t-12 8q-4 4 -10 4t-14 4h-12t-16 -4q-4 0 -10 -4t-10 -8q-54 -44 -164 -132v6v6v6v6v4v0v4v4q0 16 2 32t2 28v32v32v18v18v22v18v2v2v4v0v2v2v40v36 v40v40v34v34v34v34v10v10v14v14l2 2l2 2q94 174 284 520q0 4 2 8t2 8v14v10q-4 4 -6 10t-6 10t-8 6t-8 6t-10 6t-10 2h-10t-10 -4q-8 0 -12 -2t-8 -6l-8 -8t-4 -8q-78 -142 -236 -428v0v-4v0h-4v0h-4h-184h-4v0h-4h-2h-2l-2 2l-2 2h-2t-2 4q-78 142 -232 424q0 4 -4 8l-8 8 t-8 6t-12 2l-2 2t-6 2h-2h-6zM1028 1144h-2h-2q-4 0 -6 -2t-6 -2h-2h-6t-10 -2t-10 -2t-8 -2t-8 -6t-10 -6t-14 -10l-8 -8l-8 -8v-2v-2h-2h-2q-4 -12 -10 -22t-10 -22v-24v-24q4 -8 6 -16t2 -16q4 -4 8 -10t8 -14q4 0 6 -4t6 -8q4 0 8 -4l8 -8h2t2 -4q4 0 6 -2l2 -2 q8 -4 18 -6t18 -6h22h18l24 8t20 8q12 8 20 16t16 20q8 8 12 20t4 20q4 12 6 24v8q0 8 -2 16l-8 24t-12 20q-4 12 -12 20l-16 16l-16 8t-20 8q-8 4 -16 6t-16 2zM1240 292q-4 0 -10 -2t-10 -6q-4 0 -8 -2t-8 -6q-4 -2 -12 -8v-28v-24v-26v-26q26 22 108 88q0 4 -2 6l-2 2 q0 4 -2 4t-2 4q-4 4 -10 8t-10 8t-10 4t-14 4h-2h-2h-2h-2z" />
<glyph unicode="`" d="M1240 1468q-18 -44 -76 -176q-46 -4 -188 -16q36 -32 144 -124q-12 -48 -44 -188q40 24 164 100q42 -26 164 -100q-10 46 -44 188q36 30 144 124q-48 4 -188 16q-20 44 -76 176zM1240 1360q10 -26 44 -100q26 -4 108 -12q-20 -18 -84 -68q8 -28 28 -108l-96 56l-96 -56 q6 26 28 108q-22 16 -84 68v4q28 2 108 8q12 24 44 100zM748 1132q-8 -20 -32 -76l-80 -8q16 -14 60 -52q-6 -20 -20 -80q18 10 72 44q18 -12 68 -44l-16 80q16 12 60 52l-80 8q-8 18 -32 76zM1084 824h-2h-2l-2 -2l-2 -2l-2 -2t-6 -2v-2v-6q-22 -62 -68 -188h-456l312 -432 v-140q-50 -22 -196 -84q-4 -4 -6 -4t-2 -4l-2 -2l-2 -2l-2 -2t-2 -6v-2v-2q4 -4 4 -6v-2l2 -2l2 -2l4 -4v0q4 0 6 -2t6 -2h420l2 2l2 2h6t2 4q4 0 4 2v2q4 0 4 2v6v2v2v6v2q-4 0 -4 2t-4 2q0 4 -2 4t-2 4q-66 28 -196 84v140q50 70 204 284q36 50 108 148h-172q16 40 60 160 q64 -14 252 -52l8 40l-272 56h-2h-2zM580 808q-20 0 -36 -4t-32 -12q-16 -4 -30 -12t-26 -24q-12 -12 -22 -26t-18 -30q-4 -12 -8 -30t-4 -34q0 -20 4 -36l8 -32q8 -12 18 -26t22 -30q12 -12 26 -22t30 -18q16 -4 32 -6t36 -2h10h10t10 2t10 2q-42 58 -124 176h256 q0 8 -2 12t-2 8q0 8 -2 14t-2 10q-4 8 -8 18t-12 18q-4 8 -10 16t-14 16q-12 16 -26 24t-30 12q-16 8 -32 12t-32 4zM1460 596q-14 -32 -56 -124q-32 -4 -132 -16q26 -22 100 -88q-8 -34 -32 -132l120 72q28 -18 116 -72q-8 32 -32 132l104 88l-136 16q-14 30 -52 124z M624 580h360q-6 -18 -28 -72h-280q-14 18 -52 72zM1028 580h100q-14 -18 -52 -72h-76q6 18 28 72z" />
<glyph unicode="a" d="M948 1472q4 -20 4 -42t-4 -42q0 -20 -4 -42t-12 -46q-8 -20 -16 -42t-20 -42q-8 -20 -18 -42t-26 -42l-24 -40t-28 -40q-12 -16 -26 -34t-30 -38v24t-4 24q0 12 -2 22t-2 22q-4 8 -6 20t-6 20q-4 12 -10 24t-14 24q0 -16 -2 -30t-6 -30t-10 -30t-10 -26q-8 -16 -14 -30 t-14 -30q-8 -12 -14 -26t-14 -26q-8 -16 -14 -30t-10 -30q-4 -12 -10 -28t-6 -28q-8 -24 -10 -44t-2 -40q0 -16 2 -34t6 -38q8 -16 14 -34t14 -34l24 -32t28 -32l34 -34t38 -34q24 -16 50 -32t54 -32q-8 20 -16 38t-12 34t-6 30t-6 30v28v24l8 24l8 24t10 22t10 22t12 22 t12 18l16 24t12 20q8 12 12 22t8 18q4 12 8 20t4 16l6 18t6 14q0 4 2 10l2 6v6v2h4v-4q4 -4 6 -8t2 -8q4 -4 6 -10t2 -14q4 -4 6 -12t6 -16q0 -12 2 -20t2 -20t-2 -22t-2 -22q8 12 18 24t18 24q8 16 14 30t10 26q8 16 12 30t4 26q4 16 6 30t6 26v24v20v20t-4 16 q20 -12 36 -26t32 -30t28 -32t24 -36q12 -16 24 -36t20 -40t16 -42t12 -42q8 -24 12 -44t4 -44q4 -20 4 -44t-4 -44q0 -24 -4 -46t-12 -42q-4 -20 -12 -42t-16 -42l66 44t54 40q28 24 50 46t42 46q16 24 30 48t22 44q12 24 18 48t10 48q4 20 4 44t-4 44q0 24 -4 46t-8 42 q-8 24 -14 44t-18 40q-8 20 -16 38t-20 38q-12 16 -22 32t-22 28q-8 16 -18 30t-22 26q-8 12 -18 22l-18 18t-14 12t-10 8q4 -8 6 -14t2 -14q4 -8 6 -18t2 -18v-18v-18t-2 -18t-2 -18q-4 -8 -6 -16t-6 -16t-10 -14t-14 -10l-16 56t-20 52q-12 28 -22 50t-22 42 q-16 20 -28 36l-24 32t-24 28l-24 24q-12 8 -24 18t-24 18q-8 8 -18 14t-18 10t-14 6t-10 2q-4 4 -6 4h-6zM640 376l-56 -192q210 -66 844 -264q14 48 60 192zM1524 320q-94 -20 -376 -76l360 -112h2h2v-2t4 -2l60 12q-14 44 -52 180zM624 144l-88 -16q14 -46 52 -180 q104 20 412 80q-94 28 -376 116z" />
<glyph unicode="b" d="M888 128q4 0 8 -2t8 -6q4 0 8 -2t8 -2l4 -4l4 -4h6t6 -4q198 42 596 124q12 4 24 10t20 18q12 12 20 24t16 32v2v2v2v6v2v6t-2 6t-6 2l-2 2t-6 2q-4 4 -6 4h-6q-4 -4 -8 -4t-8 -4q0 -4 -4 -8t-4 -12q-8 -12 -14 -20t-14 -16q-8 -4 -18 -8t-18 -8q-210 -44 -628 -132 q4 0 6 -2l2 -2h6t2 -4v4v-4zM1572 120v0h-4h-8h-2h-2q-12 -4 -24 -6t-24 -6q-8 -4 -14 -8t-10 -4q-4 -4 -14 -10t-22 -10t-28 -10t-32 -6q-28 0 -50 10t-42 22t-42 20t-54 8h-8q-36 0 -58 -8t-42 -20t-42 -22t-50 -10q-12 0 -20 2t-16 2q-4 4 -8 6t-8 2q-4 4 -8 6t-12 2 q-4 4 -10 8t-10 4l-8 6t-20 10t-28 8t-36 4h-2h-2h-20q-24 -8 -34 -10t-18 -6q-4 -4 -10 -8t-18 -8t-20 -10t-20 -10t-22 -6t-26 -2q-28 0 -50 10t-42 18q-20 12 -44 22t-56 10h-6h-6h-2h-2v-104h8h8q4 4 10 4h10q32 0 56 -10t44 -22t42 -20t50 -8q20 0 34 4t26 8t22 10 t14 10q4 0 8 2t8 2q8 4 14 8t14 4l2 2l2 2h6t6 4v-4q4 4 10 4h10q4 4 8 4h8q16 0 34 -6l30 -10t18 -10l6 -6q8 -4 18 -8t22 -12q12 -4 24 -6t28 -2h8q28 0 50 8t42 20t44 22t56 10q32 -4 54 -12t42 -20t42 -20t50 -8h8q20 0 34 4t26 8t20 10t16 10q12 4 22 8t18 8q12 4 22 8 t26 4q4 0 8 -2t8 -2q8 0 12 -2t8 -2v96q-4 4 -12 6t-16 2q-4 4 -10 4h-14h-8zM1144 1024h700v-40h-700v40zM568 1120q12 0 24 2t20 6q12 4 20 10t16 14q12 8 18 18t10 18q4 12 6 22t2 22t-2 22t-6 18q-4 12 -10 22t-18 18q-8 8 -16 14t-20 10q-8 4 -20 6t-24 2q-8 0 -20 -2 t-24 -6q-8 -4 -16 -10t-20 -14q-8 -8 -14 -18t-10 -22q-4 -8 -6 -18t-2 -22t2 -22t6 -22q4 -8 10 -18t14 -18q12 -8 20 -14t16 -10q12 -4 24 -6t20 -2zM512 1076l-8 -8t-8 -12v-10v-10q22 -102 64 -308v-4v0v-2v-2q4 -8 8 -20t12 -28q8 -12 18 -24t26 -20q28 -20 62 -40 t62 -40q32 -16 54 -28l22 -12v-2v-2l2 -2t2 -6h4v-4h2h2q18 -90 56 -268q0 -4 2 -10t6 -14q4 -4 10 -8t10 -8q8 -4 14 -6t10 -6h14t14 4q4 0 10 2t10 6q8 4 12 8t8 12q4 4 6 10t2 14q4 8 4 14t-4 14q-24 110 -72 328q-2 0 -4 4v4v4l-2 4l-2 4q0 4 -2 6t-6 2q-50 38 -152 116 v0h-4v4l-4 4l-6 6t-6 2v6v6l-2 2l-2 2v4v0q-14 74 -44 220h348q8 0 12 2t8 2q4 4 10 6t10 6q0 4 4 8t4 8q4 8 4 12v8v12t-4 8q0 8 -4 12t-4 8q-4 4 -10 6t-10 2q-4 4 -10 6h-4q-4 0 -6 -2h-516h-8t-12 -4q-4 0 -8 -2t-4 -6z" />
<glyph unicode="c" d="M520 1016q126 -128 508 -508q124 126 500 504q42 -42 172 -168q-170 -168 -676 -672q-168 168 -668 676q40 42 164 168z" />
<glyph unicode="d" d="M840 1332l672 -672q-170 -168 -676 -672l-168 168q128 126 508 504l-504 504z" />
<glyph unicode="e" d="M1212 1332l168 -168q-128 -126 -508 -504l504 -504l-168 -168l-672 672q170 168 676 672z" />
<glyph unicode="f" d="M1696 472l-168 -168q-126 126 -504 508l-504 -504l-168 168l672 672q168 -170 672 -676z" />
<glyph unicode="g" d="M864 1296q-8 0 -16 -2t-16 -6q-4 0 -12 -4l-16 -8q-8 -8 -16 -14t-16 -18q-4 -8 -8 -18t-8 -22v-22v-22q4 -8 8 -18t8 -22l16 -16l16 -16q8 -4 18 -8t22 -8h2h2h6h2q8 -4 14 -2h6q8 2 16 2q12 4 20 8l16 8q12 8 20 16t12 16q8 8 12 18t4 22q4 12 4 22t-4 18q0 12 -4 24 t-12 20q-4 8 -12 16t-20 12q-8 8 -18 12t-22 8h-4h-8q0 4 -2 4h-6v0h-4zM992 1084h-6t-6 -4h-4h-4q-24 -10 -72 -28q-28 -10 -108 -36q-34 -14 -132 -56q-4 -4 -8 -6t-8 -6q-4 0 -6 -4t-6 -8q-42 -50 -128 -152q-4 -4 -6 -10t-6 -14q0 -4 -2 -8v-4t2 -8q0 -4 2 -10t2 -14 l8 -8l8 -8t8 -6t8 -6h14h10q8 0 12 2t8 2l12 6t8 6v2v2q42 50 128 152q4 2 20 8q22 8 88 36q6 -18 20 -68q16 -52 64 -204v-2v-2q-30 -58 -88 -172q-4 -4 -4 -6t-4 -6v-8v-8q-2 -100 -8 -300v-14t4 -14q4 -4 6 -10t10 -10l8 -8l8 -8q8 0 14 -2t14 -2h14h10q8 4 14 8t10 8 q4 8 8 12l8 8q4 8 4 14t4 10v2v2q2 94 4 284q22 36 92 148q34 -52 136 -204l6 -6t2 -6l6 -6t6 -2l4 -4h2t2 -4h4h4t6 -2l2 -2h8h4h6h6h6h6q80 6 240 16q4 0 12 2t12 6q8 4 12 8l8 8t8 10t4 10q4 8 6 14v4q0 4 -2 10v12t-4 8q0 8 -4 12l-8 8v2t-4 2v0v4l-12 6t-12 2 q-4 4 -12 6t-12 2q-74 -6 -220 -16l-112 216q-24 66 -92 264q30 -12 116 -44q16 -42 60 -164q0 -4 2 -10t6 -10q4 0 8 -4t8 -4l4 -4v0q4 0 6 -2t6 -2h2h2h6h2q4 0 4 2v2h4h4t8 4t8 4l8 8t4 8q4 8 4 12v8v10v10q-24 70 -72 208l-6 6t-6 2l-6 6t-6 2l-228 96v0h-4h-4h-8 q0 4 -2 4h-2zM1160 232q-4 0 -10 -2t-10 -2t-10 -2t-10 -2v0v-4q14 -6 40 -20q10 6 44 24h-4q-4 0 -8 2t-12 2q-4 0 -8 2t-12 2zM1080 192l-6 -6t-2 -6t-2 -6l-6 -6q0 -4 -2 -10t-2 -10t-2 -10t-2 -10v-2v-2v-2v-2q10 6 32 20v48q-2 0 -8 4zM1240 188h-4v-48q6 -6 28 -20v-2 v-2v0v4v2v2v0v4v10v10t-2 10t-6 10l-2 2l-6 6q0 4 -2 6zM1160 164q-10 -6 -36 -24q4 -12 16 -44h44q4 10 16 44zM1248 72v0v-4h-44q-4 -10 -12 -36v-4h2h2l2 2l2 2q8 0 12 4t8 4l8 8t8 4q0 4 2 6l2 2l6 6t2 6zM1076 68q0 -4 2 -4t2 -4q4 0 6 -2t2 -6q4 0 8 -4l8 -8q4 0 8 -4 t8 -4t4 -2v-2h6h2v4q-4 8 -16 36h-40z" />
<glyph unicode="h" d="M1144 1324h-16t-20 -4q-8 -4 -14 -10t-14 -10q-8 -8 -12 -16l-8 -16t-6 -16t-2 -16v-252l32 16q68 36 268 148h6h2h6h2q0 -4 -2 -4t-6 -4l-2 -2l-6 -6l-300 -204v-128q0 -12 2 -20t6 -16l8 -16t12 -12l14 -14t14 -10q12 0 20 -2t16 -2h452q8 0 18 2t18 2q8 4 16 10t12 14 q8 4 14 12t6 16q4 8 6 16t2 20v436q0 8 -2 16t-6 16q0 8 -6 16t-14 16q-4 4 -12 10t-16 10t-18 4h-18h-452zM516 1100h-4v0h-6h-6l-2 -2l-2 -2h-8t-8 -4q-4 0 -8 -2t-8 -2q-4 -4 -10 -6t-10 -6l-8 -8t-8 -12t-8 -14t-8 -14q0 -4 -2 -12t-2 -16v-4v-8v-6v-6q0 -8 2 -14t6 -14 q4 -4 6 -10t6 -10l6 -6l6 -6q4 0 6 -2l6 -6l2 -2l2 -2q4 0 6 -2l2 -2q4 0 8 -2t8 -6q4 0 8 -2t8 -2h8h8h8t12 4q8 0 18 4t18 8t16 12l16 16l8 16t4 16q4 12 4 20v16v4v0v6v2v2v2q0 4 -2 6l-2 2q0 8 -4 16t-12 12q-4 8 -10 14l-14 14q-4 4 -12 8t-16 4q-8 4 -14 6t-14 2z M960 948h-6t-6 -4h-2h-2q-18 -8 -52 -24t-140 -60h-216q-44 4 -78 -4t-58 -32q-20 -20 -30 -52t-10 -80v-8v-8v-8v-8v-22v-22v-20v-20v-2v-2v-34v-34v-34v-34v0v-4v-2v-2v-18v-18v-16v-16v-10v-10v-10v-10q4 -8 4 -16v-16v-18v-18v-2v-2v-2v-2v-28v-28v-26v-26h12v2v2v6v2v6 v2v2t4 2q2 8 8 24v4v0q18 44 52 132q2 2 8 12v4q4 12 10 22t14 18q12 8 22 16t22 12q4 4 8 6t8 2t8 2t8 2l2 2l2 2h6h6q-2 2 -4 8l-8 16l-8 16l-8 16t-4 20q-4 12 -4 26t4 26q4 16 10 30t14 26v2v2h4v0v4v0l8 8l8 8l8 8t8 4q0 4 2 4h2l4 4h4q0 4 2 4h2l2 2l2 2h2h2v4v8v4v8 v8v2v2v14v10v8v4q54 12 164 36q40 20 156 80q10 4 40 20q4 0 8 2t8 6t6 8t2 8q4 4 4 8v8v8t-4 8q0 4 -4 8t-8 4q0 4 -4 6t-8 6h-2h-6q-4 4 -6 4h-2zM680 636h-6h-6l-2 -2t-6 -2h-8t-8 -4q-4 0 -8 -2t-8 -2v-2v-2h-6t-6 -4h-2t-2 -4q-4 0 -6 -4t-6 -8q-4 0 -6 -4t-6 -4v-4v0 q-8 -12 -12 -22t-8 -22q-4 -8 -4 -20t4 -24q0 -8 2 -14t2 -14q4 -4 8 -10t8 -14q4 0 6 -4t6 -8q4 0 6 -2l6 -6v0h4q0 -4 2 -4t2 -4h2h6v-4v0h4v0q8 -4 16 -6t16 -6h18t18 4h8h8l6 6t6 2q8 4 14 8t10 8q8 4 12 10t12 14q4 8 10 18t6 18q4 12 4 24t-4 24q0 12 -4 22t-12 18 q-4 12 -12 20t-16 12q-8 8 -16 12t-16 4q-8 4 -16 6t-16 2h-2h-2zM1348 636h-6h-6l-2 -2t-6 -2h-8t-8 -4q-4 0 -8 -2t-8 -2v-2v-2h-6t-2 -4h-2t-6 -4q-4 0 -6 -4t-6 -8l-4 -4l-4 -4l-4 -4v0q-8 -12 -12 -22t-8 -22q0 -8 -2 -20v-8q0 -8 2 -16q0 -8 2 -14t6 -14q4 -4 6 -10 t10 -14l2 -4t6 -8q4 0 6 -2l6 -6h4v0q0 -4 2 -4t2 -4h4h4v-4v0h4v0q8 -4 16 -6t16 -6h18t18 4h8h8l6 6t6 2q8 4 14 8t10 8q8 4 14 10t10 14t10 18t6 18q4 12 4 24v24q-4 12 -8 22t-12 18q-4 12 -12 20t-16 12q-8 8 -16 12t-16 4q-8 4 -16 6t-16 2v0h-4zM596 388h-12h-6 t-6 -4h-8h-8q-4 -4 -6 -4t-6 -4h-6t-6 -4l-16 -8t-16 -12q-4 -8 -10 -16t-10 -16q-16 -36 -60 -144q-2 -8 -8 -28v-4v-8v-2v-2v-6v-2l2 -2t2 -6l2 -2t2 -6t2 -6t6 -2l2 -2t2 -6h6h6q4 -4 8 -4h8h12h12q8 4 16 6t12 6q8 4 16 12t12 16v-72q2 -2 4 -8v-4v-4v-2v-2v-40h272v12 v12q4 8 4 14v14v8v72q4 -8 12 -16l12 -12q8 -4 16 -6t16 -6h12h8h12t8 4h6h2l6 6l2 2q4 0 6 2t2 6t2 6l2 2q4 4 4 6v2v2v6v2v2v8v4q-2 6 -8 28q-4 10 -20 44q-10 24 -40 100l-8 16t-12 16t-16 12l-16 8t-14 6t-14 2q-8 4 -18 6t-18 2h-168zM1264 388h-8h-8t-8 -4h-8h-8 q0 -4 -4 -4t-8 -4h-6t-6 -4l-16 -8t-16 -12q-4 -8 -10 -16t-10 -16l-56 -144q-4 -8 -12 -28v-4v-8v-2v-2v-6v-2l2 -2t2 -6l2 -2t2 -6l6 -6l2 -2q4 0 6 -2t2 -6h4h4q4 -4 10 -4h10h10h10q8 4 16 6t16 6t14 12t14 16v-48v-24v-8v-2v-2v-48h276v44v2v2v2v2v8v24v48q4 -8 12 -16 t16 -12t16 -6t16 -6h10h10h8t8 4h6h2l6 6l2 2q4 0 6 2t2 6q4 4 4 6t4 2v6v2l2 2t2 6v2v2q0 4 -2 8l-2 4q-2 6 -8 28q-6 10 -20 44q-10 24 -40 100l-8 16t-12 16q-4 8 -12 12t-20 8q-4 4 -12 6t-16 2q-8 4 -16 6t-20 2h-168zM364 60v-32h144v32h-144zM856 60v-32h316v32h-316 zM1524 60v-32h140v32h-140z" />
<glyph unicode="i" d="M688 324q-24 20 -42 44t-34 52t-28 56t-20 60q10 2 28 8l-72 56q-10 -22 -44 -88l24 8q12 -36 26 -70t30 -66q16 -28 38 -56t46 -52l-20 -20h92q-2 22 -4 88zM1124 272q-4 0 -10 4t-14 4q-4 4 -10 6t-14 2q8 4 14 8t10 4q8 4 12 10t12 10q8 12 16 22t12 22q8 12 10 26 t2 30q0 12 -2 26t-10 26q-4 12 -12 24t-16 20q-12 12 -24 20t-24 12t-24 6t-28 2t-28 -2t-24 -6t-24 -12t-24 -20q-8 -8 -16 -20l-16 -24q-4 -12 -6 -26t-2 -26q0 -16 2 -30t6 -26q8 -12 16 -22t16 -22q4 -4 8 -6t4 -6q4 0 8 -4t8 -4q0 -4 4 -4t4 -4h6t6 -4q-8 0 -14 -2 t-14 -6q-4 0 -10 -2t-10 -6q-24 -12 -44 -26t-36 -34q-12 -16 -22 -36t-18 -44q-4 -16 -6 -30t-6 -30v-34v-34h464v34t-4 34q0 16 -2 30t-6 30q-4 24 -16 44t-28 36q-12 20 -32 34t-44 26zM1528 592q-18 -12 -68 -48l24 -8q-8 -28 -18 -58t-26 -58q-16 -24 -36 -48t-44 -48 l-20 20q-2 -24 -12 -92q24 0 100 4q-6 4 -20 20q24 28 46 56t38 56q20 32 34 64t22 68q10 -2 28 -8zM1676 828q-8 24 -18 44t-26 36q-16 20 -34 34t-42 26l-12 6t-12 2q-4 4 -12 6t-12 2q4 4 10 8t10 8q8 4 14 8t10 8q12 12 20 22t12 22t6 26t2 30q0 12 -2 26t-6 26t-12 24 t-20 20q-8 12 -20 20t-24 12t-26 8t-26 4q-16 0 -30 -4t-26 -8t-24 -12t-20 -20q-12 -8 -18 -20t-14 -24q-4 -12 -6 -26t-2 -26q0 -16 2 -30t6 -26q8 -12 14 -22t18 -22l6 -6l6 -6q4 0 8 -4l4 -4t6 -4t2 -4h8t4 -4q-4 0 -10 -2t-14 -6q-4 0 -10 -2t-14 -6q-20 -12 -40 -26 t-36 -34q-12 -16 -24 -36t-20 -44q-4 -16 -6 -30t-2 -30v-34v-34h460q0 16 2 34v10q0 12 -2 24q0 16 -2 30t-6 30zM900 1120q32 8 62 12t58 4q32 0 64 -4t64 -12q-2 -10 -8 -28q20 8 84 36q-14 20 -52 80l-8 -24q-36 8 -72 12t-72 4q-32 0 -68 -4t-68 -12q-2 10 -8 28 q-10 -20 -44 -80q20 -10 76 -40q-2 6 -8 28zM816 828q-8 24 -18 44t-26 36q-16 20 -36 34t-40 26q-8 4 -14 6t-14 2q-4 4 -10 6t-10 2q4 4 10 8t10 8q8 4 14 8t10 8q12 12 18 22t10 22q8 12 10 26t2 30q0 12 -2 26t-10 26q-4 12 -10 24t-18 20q-8 12 -20 20t-24 12t-26 8 t-26 4q-16 0 -30 -4t-26 -8t-24 -12t-20 -20q-12 -8 -18 -20t-14 -24q-4 -12 -6 -26t-2 -26q0 -16 2 -30t6 -26q8 -12 14 -22t18 -22l6 -6l6 -6q4 0 8 -4l4 -4t6 -4t2 -4h8t4 -4q-4 0 -10 -2t-14 -6q-4 0 -10 -2t-14 -6q-20 -12 -40 -26t-36 -34q-16 -16 -26 -36t-18 -44 q-4 -16 -6 -30t-6 -30q0 -16 2 -34t2 -34h460q0 16 2 34v10q0 12 -2 24q0 16 -2 30t-6 30z" />
<glyph unicode="j" d="M640 1260h-6t-2 -4t-2 -8t-2 -8t-2 -10t-2 -14v-18v-22v-6t-4 -6q0 -4 -4 -8l-8 -8l-8 -8t-8 -4l-2 -2t-6 -2q-16 -8 -30 -14t-26 -14q-8 -4 -14 -8t-10 -4l-2 -2t-6 -2h-2t-2 -4h-4v0v0h-4q-12 -8 -22 -12t-18 -8q-4 -4 -12 -8t-12 -8q-8 -8 -16 -14t-16 -14t-16 -18 t-12 -18q38 -40 112 -120q0 -4 4 -8l8 -8l8 -8l8 -8q0 -4 4 -6t4 -6q4 0 6 -2t6 -2q8 -4 14 -8t10 -8h12h12q0 -4 4 -4h8h8h8q20 0 34 -2t26 -2q16 0 26 -2t14 -2h12h4h8h8h-8q16 0 30 -2t22 -2h18h6l8 2t20 6t30 8t42 12q20 8 38 14t34 10q20 8 38 14t34 10l-276 300 q-4 0 -6 4t-6 8l-8 8l-8 8q-4 8 -8 12l-8 8q-4 8 -6 10l-6 6q-8 8 -18 16t-18 12t-16 6t-16 2zM1444 1128q-34 -30 -136 -116q-14 20 -60 84l-76 -76v-120q-20 -16 -76 -64l280 -304q92 74 364 300l-168 168q-46 -32 -180 -128q36 42 140 168zM720 1112q4 0 10 -2t10 -2 t10 -2t10 -6t8 -6t8 -6l8 -8t4 -8q4 -4 6 -8t2 -12q4 -4 4 -8v-8q-4 -4 -6 -8t-6 -8q0 -4 -4 -8t-12 -8q-56 -38 -168 -112l-2 -2t-6 -2l-4 -2t-8 -2t-6 -2t-6 -2h-2h-6h-4q-20 20 -76 80v4v0q4 4 4 6t4 2q0 4 2 6l2 2l6 6t6 2q56 38 168 112q4 0 8 2l4 2q4 4 8 4h4t6 2l2 2 h6h6zM1052 840q-32 -12 -60 -20t-52 -16q-20 -8 -38 -14l-30 -10t-22 -6t-18 -6q-8 0 -14 -2t-14 -6q-70 6 -212 16q-4 -12 -16 -44l72 24q-6 -16 -20 -60q16 6 68 24q-6 -16 -20 -60l72 24q-6 -16 -24 -60q18 4 72 20q-6 -16 -24 -60l72 24q-6 -16 -24 -60l72 24 q-6 -16 -24 -60q16 4 28 8t20 8q12 4 16 6t8 2q-6 -20 -20 -60q18 6 68 24q-4 -16 -20 -64q18 6 68 24q-4 -16 -20 -60l72 24q-6 -16 -24 -60l72 24q-6 -16 -24 -60q16 4 30 8t22 8t14 6l6 2l-24 -60l72 24l-24 -64l72 24q-4 -16 -20 -60q18 6 68 24q-4 -16 -20 -60 q18 6 68 24q-4 -16 -20 -60l72 24l-24 -64l72 24q28 32 52 52t40 36t24 22t8 10q-182 198 -548 592zM796 560q-8 -4 -36 -12q-66 -56 -268 -220l236 -236q22 16 84 64q-14 -24 -56 -92l32 -32q74 64 300 256l-24 -8q6 14 20 60q-16 -6 -68 -24q6 14 20 60q-16 -6 -68 -24 q6 14 20 60l-72 -24l24 64l-72 -24q6 14 24 60h-4l-4 -4h-2h-2q-20 -6 -60 -20q6 14 24 60l-72 -24q6 14 24 60zM988 416v0v-4v4z" />
<glyph unicode="k" d="M1076 1352q-8 0 -16 -2t-16 -6q-8 0 -16 -2t-16 -6q-114 -50 -344 -148v0h-4q-30 -14 -124 -56q-16 -4 -28 -12t-24 -20q-8 -12 -18 -24t-14 -28v0v-4h-2h-2q-4 -16 -6 -30t-2 -30t4 -30t8 -30q18 -42 56 -124q20 -50 84 -200l88 -208l88 -200q12 -32 52 -124q4 -8 8 -14 t8 -14q4 -4 8 -10t8 -10q8 -8 14 -12t10 -8q8 -4 14 -8t14 -8h2h2q16 -8 32 -10t32 -2t30 2t30 10q158 68 472 204q16 8 28 16l24 16q12 12 20 26t12 30q8 16 10 30t2 30t-2 32t-10 28q-92 214 -368 860q-8 8 -12 18t-12 18t-14 16t-18 12q0 4 -4 6t-8 2q-4 4 -8 6l-12 6 q-4 2 -12 4q-8 0 -14 2t-14 2q-4 4 -10 4h-10zM1100 1244h2h2q4 0 6 -2t6 -2t8 -4l8 -8q4 0 6 -4t2 -8l24 -56q4 -4 4 -6v-6v-2t-4 -2v-4l-4 -4l-2 -2l-2 -2q-30 -12 -88 -36l-2 -2t-6 -2l-2 2t-6 2h-2h-6v6t-4 2q-10 26 -32 80q0 4 -2 6l-2 2q0 4 2 6l2 2q0 4 2 6l2 2l2 2 t6 2q22 10 64 28h2h2q4 4 6 4h6zM900 1160h4v0h2h2q4 -4 6 -4t2 -4l2 -2l2 -2q12 -26 36 -80v-4v-4v-2v-6q-4 0 -4 -2t-4 -6h-2t-2 -4q-30 -14 -92 -40h-6h-6h-2h-2q-4 0 -6 2l-2 2q0 4 -2 4t-2 4q-12 26 -36 80v2v2v6v6l2 2l2 2l4 4h4q30 14 92 40l4 4v0h4v0zM684 1064h4h4 l2 -2l2 -2q4 0 4 -2v-6q12 -26 36 -80v-2v-6v-2v-2q0 -4 -2 -6l-2 -2l-2 -2t-6 -2q-28 -14 -84 -40h-6h-6h-2h-2q-4 4 -6 4h-2q0 4 -2 6l-2 2q-8 18 -24 56q-4 4 -4 8v8v8t4 8v4v0q0 4 2 8t6 4l8 8t8 4q22 10 64 28h2h2v0h4zM1200 1048h2h2l2 -2l2 -2h4v-4q4 0 6 -2l2 -2 q10 -26 32 -80q4 -4 4 -6v-6v-2t-4 -2v-4l-4 -4l-2 -2l-2 -2q-30 -12 -88 -36l-2 -2t-6 -2h-2t-6 4h-2h-6v6t-4 2q-10 26 -32 80q0 4 -2 6l-2 2q0 4 2 6l2 2q0 4 2 4h2q0 4 2 6t6 2l84 36l2 2l2 2h2h2zM988 956h4v0h2h2q4 -4 6 -4t2 -4l2 -2l2 -2q12 -26 36 -80v-6v-6v0v-4 q-4 0 -4 -2t-4 -6l-2 -2l-2 -2q-32 -14 -96 -40h-2h-6h-2h-2q-4 0 -6 2l-2 2q0 4 -2 4t-2 4q-12 26 -36 80v2v2v6v6l2 2l2 2l4 4h4q30 14 92 40l4 4v0h4v0zM772 860h4h4l2 -2l2 -2q4 0 4 -2v-6q12 -26 36 -80v-2v-6v-2v-6l-2 -2t-2 -6h-2h-6q-28 -14 -84 -40h-6h-6h-2h-2 q-4 0 -6 2l-2 2q0 4 -2 6l-2 2q-12 26 -36 80v2v2v6v6q4 0 4 2v2q4 4 6 4t2 4q30 12 88 36h4h4zM1288 844h2t2 -4h2h2q4 0 4 -2v-2q4 0 6 -2l2 -2q10 -26 32 -80q4 -4 4 -6v-6v-2v-2q-4 -4 -4 -6t-4 -2l-2 -2l-2 -2q-30 -12 -88 -36q0 -4 -2 -4h-6h-2t-6 4h-2h-6v6v2 q-12 26 -36 80q0 4 -2 6l-2 2q0 4 2 6l2 2q0 4 2 4h2q0 4 2 6t6 2l84 36h4v0q0 4 2 4h2zM1076 752h4v0h4v-4h6t2 -4l2 -2l2 -2q12 -26 36 -80v-6v-6v-2v-2l-4 -4l-4 -4l-2 -2l-2 -2q-30 -14 -92 -40h-6h-6h-2h-2q-4 0 -6 2l-2 2l-2 2t-2 6q-12 26 -36 80v2v2v6v6q4 0 4 2v2 q4 4 6 4h2q30 14 92 40q4 0 4 2v2h4v0zM860 656h4h4l2 -2t2 -6h4v-4q12 -26 36 -80v-2v-6v-2v-6l-2 -2t-2 -6h-2h-6q-28 -14 -84 -40h-6h-6h-2h-2q-4 0 -4 2t-4 2q0 4 -2 4t-2 4q-12 26 -36 80v2v2v6v6q4 0 4 2v2q4 4 6 4h2q30 14 88 40h2h2v0h4zM1376 636h2h2h2h2q4 0 4 -2 v-2q4 0 6 -2t2 -6q10 -26 32 -80q4 0 4 -2v-6v-2v-2q-4 -4 -4 -6t-4 -2l-2 -2l-2 -2q-30 -12 -88 -36q0 -4 -2 -4h-6h-2h-6q0 4 -2 4h-6v6v2q-12 26 -36 80v6v2v2v6l2 2l2 2q0 4 2 4t6 4l84 36h4v0h2h2zM1164 548h4v0q4 0 4 -2v-2h6t2 -4l2 -2l2 -2q12 -26 36 -80v-6v-6v-2 v-2l-4 -4l-4 -4l-2 -2l-2 -2q-30 -14 -92 -40h-6h-6h-2h-2q-4 0 -6 2l-2 2l-2 2t-2 6q-12 26 -36 80v2v2v6v2q4 4 4 6v2q4 0 6 2l2 2q30 14 92 40q4 0 4 2v2h4v0zM948 452h4h4l2 -2t2 -6h4v-4q12 -26 36 -80v-2v-6v-2v-6l-2 -2t-2 -6h-2h-6q-28 -14 -84 -40h-6h-6h-2h-2 q-4 0 -4 2t-4 2l-2 2t-2 6q-10 26 -32 80q-4 0 -4 2v2v6v6q4 0 4 2v2q4 4 6 4h2q30 14 88 40h2h2v0h4zM1464 432h2h2h2h2q4 0 4 -2v-2q4 0 6 -2t2 -6l24 -60q4 -4 4 -8v-8v-8v-8q-4 -4 -6 -8t-6 -8q0 -4 -4 -6t-8 -2q-22 -10 -64 -28q-4 -4 -6 -4h-6h-2h-2q-4 4 -6 4h-2 q0 4 -2 6l-2 2l-36 84v2v2v6v6l2 2l2 2q0 4 2 4t6 4l84 36h4v0h4v0zM1252 344h4v-4h4v0h6t2 -4l2 -2l2 -2l36 -84v-6v-6v-2v-2q0 -4 -2 -4t-2 -4l-2 -2t-6 -2q-30 -14 -92 -40h-2h-6h-2h-6l-2 2t-6 2v2t-4 6q-12 26 -36 80v6v2v6v2q4 4 4 6v2q4 0 6 2l2 2q30 14 92 40h4v0 l4 4v0zM1512 336v-4v4zM1036 248h4h4q0 -4 2 -4t2 -4q4 0 4 -2v-2l36 -84q4 0 4 -2v-6v-2t-4 -6v-2t-4 -6h-2h-2q-22 -10 -64 -28q-4 -4 -10 -4h-10h-8t-8 4h-2h-2l-2 2l-2 2l-2 2t-6 2v4v0l-2 2l-2 2l-2 2l-2 2q-8 22 -24 64q-4 0 -4 2v2v6v2q4 4 4 6v2q4 4 6 4h2 q30 14 88 40h2h2h2h2z" />
<glyph unicode="l" d="M1024 1404q-20 0 -40 -4t-40 -12q-16 -8 -32 -18t-32 -26l-24 -32t-20 -36q-8 -16 -12 -36t-4 -40q0 -8 2 -14t2 -14q0 -4 2 -10t2 -14h8h8q4 4 8 4h8q24 0 46 -4t42 -12t40 -20t36 -28q16 16 36 28t40 20t42 12t46 4h8t8 -4h10h10q0 8 2 14t2 10v14v14q0 20 -4 40 t-12 36q-4 20 -16 36t-28 32q-12 16 -30 26t-38 18q-16 8 -34 12t-42 4zM860 1112q-20 0 -40 -4t-40 -12q-16 -8 -32 -18t-32 -26l-24 -32t-20 -36q-8 -16 -10 -36t-2 -40t2 -40t10 -40q8 -16 20 -32l24 -32q16 -16 32 -26t32 -18q20 -8 40 -12t40 -4q24 0 42 4t34 12 q20 8 38 18t30 26q16 16 28 32t16 32q8 20 12 40t4 40t-4 40t-12 36q-4 20 -16 36t-28 32q-12 16 -30 26t-38 18q-16 8 -34 12t-42 4zM1188 1112q-20 0 -38 -4t-38 -12q-16 -4 -32 -14t-28 -22v0v-4h2h2q4 -4 6 -8t2 -8l6 -6l6 -6q0 -4 2 -6t2 -6l2 -4l2 -4v-2v-2 q8 -12 10 -24t6 -24t4 -24v-24q0 -20 -2 -40t-10 -40q-4 -16 -14 -34t-22 -34l-2 -2l-2 -2q12 -16 28 -24l32 -16q20 -4 38 -8t38 -4t40 4t36 12q20 8 36 18t32 26l24 32t20 32q8 20 12 40t4 40t-4 40t-12 36q-8 20 -20 36l-24 32q-16 16 -32 26t-36 18q-16 8 -36 12t-40 4z M1024 724q-16 -12 -36 -24t-40 -20t-42 -12t-46 -4h-24t-24 4q-8 4 -20 6t-20 6q2 -4 4 -12l184 -680l8 -16t4 -16q4 -8 8 -14t8 -10t8 -6t8 -6q8 0 12 -2t8 -2q8 0 12 2t8 2q4 4 10 6t6 6q4 4 8 10t8 14l8 16t4 16q62 226 188 680q2 2 4 12q-12 -4 -22 -6t-22 -6 q-12 0 -24 -2t-24 -2q-24 0 -46 4t-42 12t-38 18t-38 26z" />
<glyph unicode="m" d="M1124 1248q-12 -20 -44 -80q26 -16 108 -60q2 2 8 12l-2 2l-2 2v0v4q-4 0 -6 2l-2 2q0 4 -2 8t-2 8l2 4l2 4q0 4 2 6l6 6l2 2l2 2q4 0 8 2t8 2l2 -2l2 -2h6h2q2 8 8 24q-28 12 -108 52zM936 1148h-16t-16 -4q-4 0 -12 -2t-12 -2q-12 -4 -22 -10t-22 -14q-8 -4 -16 -12 t-12 -20l-2 -2t-2 -6v-2v-6q140 -82 420 -244l4 4v0l6 6l2 2q4 12 8 22t4 18q4 12 4 24t-4 24l-8 24t-12 24q-4 12 -12 22t-16 22l-6 6t-6 2q0 4 -2 6t-2 6q-6 2 -16 8q4 4 12 20q-34 20 -136 84q-4 -6 -12 -24q-6 2 -28 12q0 4 -4 4h-8l-2 2t-6 2h-14h-14q-4 4 -10 4h-10z M1220 1144l400 -528q6 4 28 20q-88 116 -356 464q146 -16 580 -64q0 8 4 32q-164 18 -656 76zM780 1036q-96 -170 -388 -676v-4l424 -248q98 168 392 676q-106 62 -428 252zM804 756q16 0 34 -4t30 -12q16 -4 30 -14t26 -22q16 -12 24 -26t12 -30q8 -16 12 -32t4 -32 q0 -20 -4 -36t-12 -32q-4 -16 -12 -30t-24 -26q-12 -12 -26 -22t-30 -18q-12 -4 -30 -6t-34 -2t-34 2t-34 6q-12 8 -26 18t-26 22q-16 12 -24 26t-16 30l-8 32t-4 36q0 16 4 32l8 32q8 16 16 30t24 26q12 12 26 22t26 14q16 8 34 12t34 4zM368 320q-16 -26 -60 -100 q106 -62 428 -248q16 24 60 100q-106 62 -428 248z" />
<glyph unicode="n" d="M644 1068q-16 0 -32 -4t-32 -12q-12 -4 -26 -12t-26 -20t-22 -26t-18 -30q-4 -12 -6 -28t-2 -36q0 -16 2 -32t6 -32q8 -12 18 -26t22 -26q4 -4 8 -6t8 -6t8 -6t8 -6q0 -4 4 -4t4 -4q4 0 8 -2l4 -2q-56 -16 -98 -46t-70 -74q-28 -40 -38 -96q-6 -32 -6 -68q0 -28 4 -60 h332v6v2q4 4 4 6v2q8 32 22 60t30 48q20 24 42 44t50 36q-8 12 -16 22t-12 22t-10 24t-6 28q-12 4 -22 12t-26 12q-12 4 -24 10t-28 10l16 8t12 8q8 4 14 10t14 10q12 12 20 26t12 26q8 16 12 32t4 32q0 20 -4 36t-12 28q-4 16 -12 30t-20 26t-26 20t-30 12q-12 8 -28 12 t-36 4zM1404 1068q-20 0 -36 -4t-32 -12q-12 -4 -26 -12t-26 -20t-20 -26t-16 -30q-4 -12 -8 -28t-4 -36q0 -16 4 -32l8 -32q8 -12 16 -26t20 -26q4 -4 8 -6t8 -6t8 -6t8 -6t6 -4t6 -4q4 0 6 -2t6 -2q-16 -4 -28 -8t-24 -12q-12 -4 -24 -12t-24 -12q0 -16 -4 -28t-12 -24 q-4 -12 -12 -22t-16 -22q28 -16 50 -36t38 -44q20 -20 34 -48t22 -60v-2v-6q4 0 4 -2v-6h332q4 32 4 60q0 36 -6 68q-10 56 -38 96q-28 44 -70 74t-98 46q4 4 12 8t12 8q8 4 16 10t12 10q12 12 22 26t14 26q8 16 10 32t2 32q0 20 -2 36t-10 28q-4 16 -14 30t-22 26t-26 20 t-30 12q-12 8 -28 12t-32 4zM1024 916q-16 0 -32 -4t-32 -12q-16 -4 -28 -14t-24 -22t-22 -24t-18 -28q-4 -16 -6 -32t-2 -32t2 -32t6 -32q8 -16 18 -28t22 -24q4 -4 6 -8t6 -8q4 0 8 -4t8 -4q4 -4 8 -6l4 -2q4 0 6 -2t6 -2q-8 -4 -14 -6t-14 -6t-14 -6t-14 -6 q-28 -12 -50 -28t-42 -40q-16 -20 -30 -44t-22 -56q-4 -16 -6 -34t-6 -38v-36v-44h552v44t-4 36q0 20 -2 38t-6 34q-8 32 -22 56t-34 44q-16 24 -38 40t-50 28q-8 4 -14 6t-14 6t-14 6t-14 6q8 0 14 4t14 8q8 8 14 12t10 12q12 12 22 24t14 28q8 16 10 32t2 32t-2 32t-10 32 q-4 16 -14 28t-22 24t-24 22t-28 14q-16 8 -32 12t-32 4z" />
<glyph unicode="o" d="M1024 1232q138 -240 552 -956q-276 -2 -1104 -4q138 240 552 964v-4z" />
<glyph unicode="p" d="M1024 1264q-64 0 -122 -10t-110 -34q-52 -20 -102 -54t-94 -78t-78 -94t-58 -102q-20 -52 -30 -110t-10 -122t10 -122t30 -110q24 -52 58 -102t78 -94t92 -76t100 -56q52 -20 108 -32t116 -12h2h2h6h2h18h18q12 0 20 2t16 2q52 4 100 18t92 34q44 24 86 54t78 66 q44 44 78 94t54 102q24 52 34 110t10 122t-10 122t-34 110q-20 52 -54 102t-78 94t-94 78t-102 54q-52 24 -110 34t-122 10zM1024 1116q8 0 12 -2t8 -6q8 0 14 -4t10 -8t6 -8l6 -12q4 -4 4 -10v-14v-472v-14t-4 -10q0 -4 -4 -8l-8 -8l-8 -8l-8 -8q-4 0 -10 -2t-10 -2 q-2 -2 -6 -2q-2 -2 -4 0q-6 2 -14 2q-4 0 -8 2t-8 6q-90 60 -272 180l-8 8l-8 8t-6 10t-2 14q-4 4 -4 10v10q4 8 6 14t6 10l8 8l8 8t10 6t10 2q8 4 14 4t10 -4q8 0 12 -2l12 -6q58 -38 176 -116v360q0 8 2 14t2 10l6 12t6 8t10 8t10 4l12 6t12 2z" />
<glyph unicode="q" d="M1048 1196v-172q54 -2 216 -4q-40 -40 -160 -156q-32 20 -62 36t-66 24q-32 8 -66 16t-74 4q-48 4 -94 -6t-86 -26t-78 -44t-74 -60q-32 -36 -58 -72t-46 -80q-16 -44 -24 -86t-8 -98q0 -44 8 -90t24 -86q20 -40 46 -80t58 -72q36 -36 74 -60t78 -44t86 -26t94 -10 q4 4 4 2v-2q4 4 6 2t2 2q48 -4 90 8t82 24q40 16 78 44t70 56v4q36 32 62 72t42 80t26 86t10 90t-6 76t-18 68q-8 36 -24 66t-36 62q54 52 160 156v-212q44 -2 176 -4v516q-128 -2 -512 -4zM836 776q32 -4 60 -8t52 -16q28 -12 50 -26t46 -38q0 4 0 2t0 2v-4v-4l2 2t2 -2 q20 -20 36 -46t28 -50t16 -54t4 -58q0 -32 -4 -58t-16 -58q-12 -28 -28 -50t-36 -46q-24 -16 -46 -34t-50 -30q-24 -8 -52 -16t-56 -4v-4q0 4 -2 2l-2 -2q0 4 -2 2t-2 2q-28 -4 -58 4t-58 16q-24 8 -48 28t-44 36q-24 24 -40 46t-28 50q-8 32 -14 58t-6 58q0 28 6 58t14 54 q12 24 28 50t40 46v4q20 16 44 34t48 26q28 12 58 20t58 4v4z" />
<glyph unicode="r" d="M1228 1252h-8t-8 -4h-8h-8t-8 -2t-8 -2t-8 -2t-8 -2q-8 -4 -18 -10t-18 -14l-16 -16l-16 -16q-68 -104 -140 -192t-148 -156t-152 -118t-156 -82q-16 -8 -28 -16t-24 -20q-8 -8 -18 -20t-14 -28q-8 -16 -10 -30t-2 -30q0 -12 2 -26t6 -30q8 20 20 34t24 26t28 22t32 14 q80 32 164 86t172 130q88 80 178 180t186 224q4 8 12 16t12 16q8 8 18 14t18 14l8 8l4 4l6 6l2 2q4 0 4 2v2v2v2q-4 0 -10 2t-14 2q-4 4 -12 4h-16q0 4 -4 4h-8h-2h-6zM1408 1244h-2h-6v0h-4q-12 0 -24 -4t-24 -12q-12 -4 -24 -14t-24 -22q-8 -4 -14 -10l-14 -14 q-4 -8 -12 -18t-16 -18q-96 -128 -188 -230t-184 -182q-88 -80 -174 -134t-166 -86l-12 -6l-12 -6q-4 0 -10 -4t-10 -8q-8 -8 -16 -14t-16 -14l-10 -10t-14 -10q-12 -20 -22 -38t-14 -38q-2 -10 -2 -22v-14q2 -20 10 -36q4 -12 10 -20t10 -16q8 -8 16 -12t20 -8q8 -4 14 -6 t14 -6q8 0 16 2t16 2h2h2v0v-4q0 12 2 20t6 16l8 16l8 16q12 16 24 30t24 22q16 12 34 20t34 12q96 28 184 78t168 122q84 76 162 174t154 222q8 20 20 32t28 24t32 20t36 12q8 4 18 4h18q8 4 18 4t18 -4v2v2v0h-4v2t4 2q0 4 2 10t2 14q4 8 4 16v16v16t-4 16q0 8 -2 16 t-6 12q-4 12 -8 18t-12 10q-4 8 -10 14t-14 10q-4 4 -12 6t-16 6t-18 4h-18zM1360 1156v0h4l2 -2l2 -2h2h2q4 -4 6 -4t2 -4q4 0 4 -2v-6q4 -16 6 -30v-8q0 -10 -2 -18q0 -8 -4 -18t-12 -14t-14 -8t-14 -8t-18 -6t-22 -2q-8 0 -14 -2t-10 -2h-6h-2h-8t-8 -4h-4h-4 q-4 -4 -8 -6t-8 -6v-4v-8v-4v-8v-10v-10v-12v-12v-8v-8q-4 -12 -6 -24t-10 -24q-4 -8 -10 -14t-14 -10q-4 -4 -8 -4t-8 -4h-8t-12 -4h-4h-8t-8 -2t-12 -2t-14 -2t-14 -2q-4 0 -8 -2t-8 -6q-4 0 -8 -4l-8 -8q0 -4 -2 -8l-6 -12q0 -4 -2 -10t-2 -14t-2 -16t-2 -16 q0 -12 -4 -22t-12 -18q-4 -8 -12 -14t-20 -10q-4 -4 -8 -4h-8t-8 -2t-12 -2h-10h-10h-8h-4q-8 -4 -14 -4t-14 -4q-4 0 -8 -4l-8 -8q0 -4 -2 -8l-6 -12q0 -4 -2 -10t-6 -14q-4 -12 -6 -20t-6 -16t-6 -14t-6 -10q-4 -8 -12 -14t-16 -10t-20 -6t-24 -2h-8h-12q-4 4 -10 4t-14 4 q-4 0 -8 2t-8 2h-2h-2h-2t-6 -4v-2v-2q-4 -4 -6 -8t-6 -8q0 -4 -2 -10t-6 -14q-4 -12 -8 -18t-8 -14q0 -8 -4 -12l-8 -8q-4 -8 -10 -14t-14 -10t-16 -6t-16 -2h-8h-8q0 4 -4 4h-8l-4 2t-12 2q-4 4 -14 8t-26 8q-4 0 -6 2t-6 2v2t-4 6v4v4v6v6l2 2l2 2q4 4 4 6t4 2q4 4 6 4h2 h6h6l24 -8t20 -8q8 0 12 -2l4 -2h2h2v0h4h4h4l6 6l2 2q4 4 6 8t2 8q4 8 8 14t4 10q4 12 8 20t4 12q4 8 8 12t4 8q4 8 10 14t14 10t14 6t14 2h4t8 -4q4 0 10 -2t14 -2q4 -4 8 -4t8 -4h6h6t10 2t10 2t8 4l4 4t6 8t2 8q4 8 6 14t2 14q4 12 6 20t6 16t8 14t4 10v4q8 8 16 14 t16 10q12 4 22 8t26 4h4h8h10t10 4h8h4h8t4 4q4 0 6 2l2 2q4 4 6 8t2 8v18v18l6 18t2 14q4 8 8 18t8 18l14 14t14 10q4 4 12 6t16 2q8 4 18 6t22 6h10h6h8t4 4h6h2q4 0 6 2t6 2t6 4t2 8q4 4 4 10v10v8v8q4 4 4 8t-4 12v10v10v8v4q4 16 6 26t6 18q8 8 16 14t20 10q4 4 8 4h8 q4 4 8 4h12h2h6q8 4 12 4h12t14 2t10 2q8 4 10 4t6 4t4 8v8v10t-4 14v4v4t2 6l2 2q0 4 2 6l2 2q4 4 6 4h6l4 4v0zM1492 1020q-4 0 -8 -2t-8 -2h-10t-10 -4q-16 -4 -30 -10t-26 -14q-8 -8 -18 -20t-18 -24q-76 -128 -158 -230t-170 -178q-84 -76 -174 -128t-186 -76 q-16 -4 -30 -10t-26 -18q-12 -8 -22 -18t-18 -26q-8 -12 -14 -26t-10 -30v-28t4 -32q4 -12 10 -26t14 -26l22 -22t26 -18q12 -8 26 -14t26 -10h32t32 4q124 28 240 90t224 154q112 96 216 224t196 288q8 12 14 26t6 26q4 16 4 32t-4 32t-12 28l-16 24t-20 22t-24 18 q-8 8 -18 12t-22 4q-8 4 -18 6t-22 2z" />
<glyph unicode="s" d="M1024 1256q-60 0 -118 -10t-110 -34q-52 -20 -100 -54t-92 -78t-78 -92t-58 -100q-20 -52 -30 -110t-10 -118t10 -118t30 -110q24 -52 58 -100t78 -92q32 -36 72 -64t80 -52q40 -20 84 -34t92 -18q12 -4 24 -4t20 -4h24h24h24h20q12 4 24 4t24 4q12 0 22 2t22 2 q12 4 22 8t22 4q24 8 48 18t44 22q24 12 46 26t42 30q8 8 16 14t16 10l16 16t12 16q44 44 78 92t54 100q24 52 34 110t10 118t-10 118t-34 110q-20 52 -54 100t-78 92t-92 78t-100 54q-52 24 -110 34t-118 10zM1024 1032h18t18 -4t16 -10t16 -14q8 -4 12 -12l8 -16t6 -18 t2 -18v-12t-4 -8v-8t-4 -8q0 -4 -2 -10t-6 -10l-6 -6l-6 -6q-8 -8 -16 -14t-16 -10t-18 -4h-18h-18t-18 4t-16 10t-16 14l-6 6l-6 6t-6 10t-2 10q-4 4 -4 8t-4 8v8v12t2 18t6 18l8 16t12 12q8 8 16 14t16 10t18 4h18zM936 744h176v-420h-176v420z" />
<glyph unicode="t" d="M1024 1272h-28t-28 -4q-12 0 -28 -2t-24 -6q-44 -8 -80 -20t-72 -28t-66 -36l-66 -44q-24 -28 -54 -56t-50 -60t-40 -66t-32 -70q-24 -56 -32 -114t-12 -118q0 -56 14 -112t34 -116q24 -44 46 -84t54 -76q36 -36 70 -66t78 -58q40 -24 86 -42t90 -30t94 -14q18 -2 34 0 q32 0 64 2q56 4 106 16t98 32q48 24 88 54t84 66q32 32 60 68t48 72q20 40 38 82t22 90q16 44 16 86v86t-12 86t-24 86q-24 56 -52 104t-68 88q-40 44 -82 78t-102 62q-28 16 -64 28t-68 20t-68 12t-68 4h-4zM1248 768h58h54h60h60q-4 0 0 -2t0 -2h4t0 -4q4 -24 2 -48 t-2 -48q4 -24 2 -48t2 -48q-4 -4 -2 -6t-2 -6q-4 0 -6 -2t-10 -2h-222h-226h-226h-222q-4 0 -4 2t-4 2v0l-4 4q4 24 2 50t-2 50q4 24 2 50t2 50q-4 0 0 2t0 2l4 2t0 2h114h114h114h114h54h58h58h54z" />
<glyph unicode="u" d="M1028 1380q-44 0 -86 -8t-82 -24q-36 -16 -70 -40t-66 -56q-16 -12 -28 -28l-24 -32t-20 -32l-16 -32q-16 -34 -48 -100q52 -24 204 -96q10 26 44 104q4 8 10 16t10 16t10 14l14 14q16 16 32 26t36 18t40 12t40 4t40 -4t40 -12t36 -18t32 -26t26 -32t18 -36t12 -40t4 -40 q0 -16 -2 -30t-6 -26q0 -12 -6 -24t-14 -24l-8 -8l-12 -12q-4 -4 -8 -10t-12 -10q-4 -4 -8 -10t-12 -14q-8 -4 -16 -10t-16 -14q-12 -8 -20 -16l-16 -16t-16 -14t-12 -10q-12 -12 -20 -22t-16 -18t-16 -18t-16 -22q-16 -24 -28 -50t-24 -58q-8 -28 -12 -60t-4 -64v-56h224 v56q0 16 2 30t6 26q4 16 10 28t14 24q0 4 6 10l10 10q4 8 8 12l12 12q4 4 10 8t10 8l16 16t16 12q12 12 22 20t18 12l14 14t10 14q12 8 20 18t16 18q8 12 16 20t12 16q20 28 32 54t20 54q12 28 16 60t4 64q0 44 -8 86t-24 78q-16 40 -40 74t-56 66t-66 56t-74 40 q-36 16 -78 24t-86 8zM916 176v-236h224v236h-224z" />
<glyph unicode="v" d="M1216 1348v0h-4q-8 -4 -16 -4t-16 -4q-8 0 -16 -4l-16 -8q-8 -8 -18 -14t-18 -18q-4 -8 -10 -18t-10 -18q0 -4 -2 -4t-2 -4v-2v-2q-4 -16 -4 -28v-24t6 -24t10 -24q8 -12 16 -22t16 -18q12 -8 24 -14t24 -10q16 -4 28 -4h24q16 4 28 8l24 8q12 8 22 16t18 16q8 12 12 24 t8 28q4 8 4 16v16v16v12q-4 8 -4 12t-4 8q0 4 -2 10t-6 10q-8 12 -16 22t-20 18q-8 8 -20 12l-24 8q-4 4 -10 4h-10t-8 2t-8 2zM800 1184h-4h-8l-2 -2t-6 -2t-8 -2t-8 -6t-8 -6t-8 -6q-50 -60 -152 -180q-4 -4 -8 -10t-8 -14v-10v-10h-6h-6h-2h-6l-12 -6l-12 -6l-8 -8l-8 -8 v-4l-88 56q-4 4 -10 6t-14 2q-4 0 -10 -6l-10 -10q-40 -62 -120 -188q-4 -8 -6 -14t-2 -14l8 -8t12 -8q106 -68 316 -204q4 -4 10 -6t10 -2q8 4 14 8t10 12q40 62 120 184q4 8 6 14t-2 10q0 8 -4 14t-12 10q-28 18 -84 56q4 4 6 10t2 10v14v14v4v0q4 4 8 6l4 2q4 4 8 6t8 6 q42 50 124 148l136 -48q-24 -84 -92 -332l-128 -256q-66 4 -260 20q-8 0 -16 -2t-16 -6q-8 0 -14 -4t-14 -8v-2t-4 -2v-2v-2q-4 -4 -8 -10t-8 -14q0 -4 -2 -10t-2 -14v-16v-16q4 -4 8 -12t12 -12q4 -8 10 -12t10 -8q8 -4 16 -6t16 -2q94 -6 284 -20h8h4h8h8h6h6t6 2t6 2t6 2 l2 2l2 2t6 2h4l6 6t2 6q4 4 8 6t4 6q50 76 152 228q50 -40 200 -156q28 -80 108 -320q0 -8 4 -14t8 -14q8 -4 14 -8t14 -8t14 -6t14 -2h16t16 4t14 8t10 8q8 4 14 10t6 14q4 8 6 16t2 16q4 8 2 14t-6 14q-38 112 -112 336q-4 4 -6 8t-6 8q0 4 -2 8t-6 8q-54 54 -164 160v2v2 h2h2q22 68 84 276l104 -40q4 0 8 -2t8 -2h8h8t8 2t8 2q4 4 8 6t8 2q70 52 212 156q8 4 12 8l8 8q4 8 6 14t6 14v14t-4 14q0 8 -4 14t-8 10q-4 8 -8 12t-12 8q-4 4 -10 6t-14 2h-14h-14q-4 0 -10 -4t-14 -8l-180 -132l-96 32l-120 -152q6 28 20 116q12 14 44 56l-64 24 q4 -20 12 -76l-72 -96q0 48 4 192q-68 22 -272 92l-4 2t-8 2h-2h-6zM572 908h2h2l2 -2l2 -2h6h2q0 -4 2 -6t2 -6l6 -6t6 -2q4 -4 8 -6t8 -6q4 0 10 -2t10 -2v-4v-4q4 0 4 -2v-2v-8v-8l-2 -4l-2 -4q-24 14 -96 60q4 0 6 4l2 4q4 4 8 4h8q0 4 2 4h2z" />
<glyph unicode="w" d="M1072 1264h-2h-6l-2 -2t-6 -2q-174 -46 -524 -140q-4 0 -10 -4t-14 -8q-4 0 -8 -6t-8 -10q0 -8 -2 -14t-6 -14v-10t4 -14l204 -756q14 178 60 716q0 8 4 18t8 18q4 12 10 20t14 12q8 8 18 14t18 6q12 4 22 6t18 -2q104 -10 312 -28l-40 152q0 4 -4 10t-8 10q-4 8 -8 12 l-8 8h-4l-6 2t-10 2q-4 4 -8 4h-8zM856 1056q-8 0 -12 -2l-12 -6q-4 0 -8 -2t-8 -6q-8 -4 -12 -10t-8 -10q0 -4 -2 -10t-2 -14q-26 -282 -76 -844q0 -8 2 -14t2 -14q0 -4 4 -10t8 -10t10 -8t10 -8t10 -4t14 -4q180 -14 540 -44q6 -4 10 -2h4q6 2 10 2q8 4 14 6t10 6t8 10 t8 10q4 8 6 14t2 10q24 282 72 844v14t-4 10q0 8 -2 14t-6 10q-8 4 -12 8t-12 8q-4 4 -10 6t-10 2q-182 16 -544 48v0h-4zM1108 780h4l8 -16t12 -20q8 -8 16 -18t16 -22q4 -4 8 -10t8 -14l6 -6l6 -6q4 -8 8 -12t8 -12q4 -4 6 -8t6 -8q8 -8 14 -18t10 -22q8 -8 12 -16l8 -16 q4 -12 8 -22t4 -18q4 -8 4 -18v-18t-4 -18t-8 -18t-10 -14l-14 -14t-16 -12t-20 -8q-8 0 -18 -2t-18 2q-12 0 -22 2t-18 6t-16 10t-12 14l-6 6l-6 6q0 4 -2 8t-6 4q4 -20 10 -42t14 -42t20 -36t28 -32q-12 4 -22 6t-22 2q-12 4 -22 4h-22v8v-8q-8 4 -20 4h-24h-20h-24 q20 12 34 26t26 30q12 20 22 40t14 44q0 -4 -2 -8t-6 -8q-4 0 -6 -2l-6 -6q-8 -4 -16 -10t-20 -10q-8 0 -18 -2t-18 2q-12 0 -22 2t-18 6t-16 10t-12 14q-8 8 -12 16l-8 16t-4 18v18q0 12 2 20t6 16q4 12 8 20t12 16q4 8 10 16t10 16l16 16l20 20q4 4 8 6t8 6t8 10t8 10 q4 0 8 4l8 8t10 8t10 12q12 8 22 18l18 18l14 14t10 14z" />
<glyph unicode="x" d="M1128 1284v0h-4q-12 0 -22 -2t-22 -6q-8 -4 -16 -10t-16 -14q-12 -12 -18 -20t-10 -20q-4 -8 -4 -18v-22t2 -24t6 -24q4 -8 10 -16t14 -16t16 -14t16 -10q12 -4 22 -6t22 -2h4q12 0 22 2t18 6q12 4 22 10t18 14q8 12 14 20t10 16q4 12 6 22t2 22t-2 24t-10 20 q-4 12 -10 20t-14 16t-16 14t-20 10q-8 4 -18 6t-22 2zM1092 1024h-10h-10h-12t-16 -4q-86 -12 -260 -36q-4 0 -8 -2t-8 -6l-4 -2t-8 -2l-6 -6l-6 -6q0 -4 -2 -8t-2 -8t-2 -8t-2 -8t2 -6t2 -6q18 -68 56 -204q0 -4 2 -10t6 -10l8 -8t8 -4l12 -6t8 -2h12h12q4 4 10 6t10 6 t6 8t6 8t6 10t2 10v10t-4 10l-36 144q24 2 92 12q-20 -140 -84 -560l-112 -192q-6 -8 -20 -32v-4l-8 -16q-4 -4 -6 -10t-2 -10v-10v-10l6 -12t2 -8l8 -8t12 -8q4 0 8 -2t8 -6q8 0 14 2t10 2t10 2t10 6l8 8t4 8q2 2 4 8h4v0q46 82 140 248q4 0 4 4v4t2 6l2 2q10 62 32 184v0 v-4v-4q28 -32 116 -124q-18 -54 -76 -216q-4 -10 -12 -32q0 -4 -2 -10t-2 -14q0 -4 2 -8l6 -12q0 -4 4 -8l8 -8t8 -6l12 -6h10h10h10t10 4t10 6t6 6q4 4 8 10t4 10q34 94 100 280v4v8v8v8t-2 8l-2 4q0 4 -4 8l-4 4q-38 42 -112 124q8 56 32 228q8 -18 28 -68q0 -4 2 -6t2 -6 q4 -4 8 -6t4 -6q4 0 8 -2t8 -6h6h6h8h8t8 2t8 2q60 30 180 92q4 0 8 4l8 8t6 8l6 12q0 4 2 10v4q0 4 -2 6v10t-4 10l-6 12t-6 4q-4 4 -10 8t-10 4q-4 4 -10 4h-14q-4 0 -8 -2t-8 -6q-42 -20 -128 -60l-56 136q-4 12 -8 20l-8 16t-8 14t-8 10t-8 10t-8 6l-8 8t-8 4 q-4 4 -10 6t-10 2h-10h-14h-2h-2z" />
<glyph unicode="y" d="M1316 1252h-2h-2h-4t0 -4q-8 0 -8 -2t-4 -6q-4 0 -2 -2t-6 -2q-30 -90 -92 -272h-652q112 -156 444 -620q0 -50 -4 -200q-70 -30 -276 -120q-4 0 -4 -2t-4 -6q-4 0 -4 -2t-4 -2q0 -4 -2 -6t-2 -6q4 0 2 -4t2 -4q-4 -4 0 -6t0 -6l4 -2t4 -6q4 0 4 -2t4 -2h6h6h600h6h6t4 2 t4 2q0 4 4 6t0 2q0 4 4 6t0 6q4 0 2 4l-2 4q4 4 2 6t-2 6q-4 0 -4 2t-4 2q-4 4 -4 6t-4 2l-276 120q0 50 -4 200q74 102 292 408q52 70 156 212h-248q22 56 88 228l360 -72q2 14 12 56q-96 18 -388 76h-2h-2h-4zM592 1232q-20 0 -46 -4t-46 -16q-20 -8 -42 -22t-38 -30 q-20 -20 -32 -40l-24 -40q-8 -20 -12 -44t-8 -52l8 -48t12 -48l24 -40t32 -36q16 -20 38 -32t42 -24q20 -8 46 -12t46 -4h18h14q12 0 16 2t16 6q-62 84 -184 252h368q-4 8 -2 16t-2 12q-4 8 -4 16t-4 16q0 12 -8 26t-16 26q-4 12 -16 24t-20 24q-20 16 -38 30t-42 22 q-24 12 -46 16t-50 4zM664 904h508q-10 -26 -36 -104h-404q-16 26 -68 104zM1232 904h148q-20 -26 -76 -104h-104z" />
<glyph unicode="z" d="M1024 1352q-40 0 -80 -8t-76 -24q-36 -12 -68 -34t-60 -50q-32 -32 -54 -64t-38 -68q-12 -36 -20 -74t-8 -82q0 -12 2 -26t2 -26t2 -24t6 -24q4 -8 6 -14t2 -14q4 -4 6 -12t2 -12q4 -8 6 -14t6 -14q4 -4 6 -10t6 -14q24 -48 48 -102t52 -114q28 -56 58 -120t62 -136 q28 -68 52 -122t40 -94q20 -36 28 -58t12 -30q4 8 12 30t24 58q20 40 44 94t52 122q32 72 62 136t58 120q28 60 52 114t48 102q4 8 6 14t6 10q4 8 6 14t6 14q0 4 2 12t2 12q4 8 6 14t6 14q4 12 6 24t2 24t2 26t2 26q0 44 -8 82t-24 74q-12 36 -34 68t-54 64q-28 28 -60 50 t-68 34q-36 16 -76 24t-80 8zM1024 1172q24 0 46 -4t42 -12t38 -20t34 -28t28 -34t20 -38t12 -42t4 -46t-4 -44t-12 -40t-20 -38t-28 -34q-16 -20 -34 -32t-38 -20t-42 -12t-46 -4t-46 4t-42 12t-38 20t-34 32q-16 16 -28 34t-20 38t-12 40t-4 44t4 46t12 42t20 38t28 34 t34 28t38 20t42 12t46 4z" />
<glyph unicode="{" d="M1120 1272q-8 0 -18 -2t-18 -6l-12 -12t-12 -16q-4 0 -2 -2t-2 -6q-4 0 -2 -2t-2 -2q2 -66 4 -196q-40 -60 -160 -236l-40 -24q-4 4 -2 6t-2 2v2t-4 6l-2 2l-2 2h-4h-4h-380q4 0 0 0h-4h-4t0 -4h-4l-4 -4v0l-4 -4q4 0 2 -2l-2 -2q4 0 2 -2t2 -6q12 -178 36 -532q4 0 4 -2 v-6q4 0 4 -2t4 -2q-4 -4 0 -4t4 -4h4h4h336h4h4q0 4 2 4t2 4q4 0 4 2v2q4 4 2 6t2 6q-2 22 -4 64h36q18 -12 72 -44q8 -4 6 -4t2 0h4h4h476q12 0 18 2t18 2q12 4 18 10t18 10q-4 0 -2 0t-2 0q12 8 18 14t10 14q8 8 10 18t10 18q-4 12 -2 20t-2 16q-4 12 -6 20t-10 16 q4 0 0 0h-4q4 0 2 0t2 4q-4 0 0 0h4q0 4 2 4t-2 0q16 8 20 14t12 14t10 18t6 18q0 12 2 20t-2 16q-4 12 -6 20t-10 16h-2h-2q4 0 2 0t2 4q0 4 4 4t0 0h4q4 8 14 16t14 12q4 8 10 18t2 18h4q0 12 2 20t-2 16q-4 12 -6 20t-14 16q4 0 2 0t2 0q-4 0 -2 0t-2 0l2 2t-6 2q8 0 6 0 t2 0l4 4h4q4 8 14 16t14 16t10 16t2 16q6 10 6 18v4q-2 10 -2 18t-6 16t-10 16q-8 4 -12 10t-16 10q-8 4 -14 6t-18 2q4 0 0 0h-4q4 0 2 0t2 0h-344q6 42 28 172q-4 0 -2 0t-2 0q4 28 -2 54t-14 50t-22 46t-26 42q-4 0 -2 2t-2 2t-2 0t-2 0q-8 8 -20 14l-20 10t-20 6t-16 2 t-2 0t-2 0t-2 0t-2 0zM1128 1228h10t14 -4t12 -8t12 -8q20 -16 28 -36l16 -40t10 -42t6 -42q-10 -66 -28 -196q4 0 2 -2t-2 -6q4 0 2 0t2 -4q-4 0 0 -2t0 -2l4 -2t0 -2q4 0 4 -2t4 -2h4h4h360q8 0 10 -2t6 -2q8 0 8 -2t8 -6h-4q8 -4 8 -8v-8q4 -4 2 -8t2 -8q-8 -8 -8 -12 t-8 -12q-4 -4 -6 -8t-10 -8h4q-12 -4 -14 -6t-10 -6t-12 -4h-12h-4t-4 -4l-4 -2t0 -2q-4 0 -4 -2t-4 -6v-2t-4 -6q4 0 4 -2v-6q4 0 4 -2t4 -2q-4 -4 0 -4t4 -4h4h4h4l6 -2l6 -2q4 0 10 -4t2 -4h4q0 -4 4 -8t0 -8q0 -4 2 -8t-2 -8h4q-8 -8 -8 -12t-8 -12q-4 -4 -6 -8t-10 -8 h4l-12 -6l-12 -6t-12 -4h-12l-4 -2l-4 -2l-2 -2l-2 -2q-4 0 -4 -2t-4 -6l2 -2t-2 -6q4 0 2 -2t-2 -6q4 0 4 -2t4 -2q0 -4 4 -4t0 -4h4h4h4l6 -2l6 -2q4 0 10 -4t2 -4h4q0 -4 4 -8t0 -8q0 -4 2 -8t-2 -8q4 -8 -2 -12t-6 -12q0 -4 -8 -8t-8 -8h-4q0 -4 -8 -8t-12 -8h-12h-8 t-8 -2t-4 -2v-2t-8 -2q4 0 0 -2t-4 -6q4 0 2 -2t2 -6q-4 0 -2 -2t2 -6l2 -2t2 -6h4l4 -4h4h4h-4q12 0 14 -2t6 -2t6 -4t10 -4h-4q4 -4 4 -8t4 -8t0 -8t0 -8q-4 -8 -4 -12t-8 -12q-4 -4 -6 -8t-14 -8h4q-8 -4 -12 -8t-12 -8h-8h-16h-464q-22 10 -84 44q4 4 0 4h-4h-44 q0 94 4 376q18 10 68 40q4 0 2 0t2 0q4 4 2 4t2 0q54 82 160 244l4 4v0q4 4 2 6t2 2q-2 66 -4 196q8 4 8 6t4 2q8 4 10 4h10zM716 372h10t6 -4q8 0 10 -2l6 -6l4 -4t4 -8t2 -8v-2q0 -4 -2 -6q4 -4 2 -8t-2 -8t-4 -6t-4 -6t-6 -6t-10 -6h-6h-6h-10h-10q-4 4 -4 6t-8 6 q0 4 -4 6t-4 6t-2 8v2q-2 2 2 6q-4 4 -2 8t2 8t4 8l4 4h4q0 4 6 6l6 2q0 4 6 4h6z" />
<glyph unicode="|" d="M1532 1276q-28 0 -52 -4t-48 -16q-24 -8 -42 -20l-42 -28l-4 -2t-4 -6l-4 -4l-4 -4q-12 -12 -20 -22t-20 -22q-8 -8 -12 -20t-12 -24q-4 -12 -10 -26t-6 -30q0 -12 -4 -26q-2 -6 -2 -14t2 -16q-4 -28 4 -56l16 -56q8 -24 26 -46t34 -42q24 -20 46 -36t46 -28 q28 -8 54 -14t58 -6h14h14q4 4 14 4t10 4q24 0 42 8t38 16q20 12 34 24t34 28q16 20 34 42t26 46l16 56q6 18 6 38q0 8 -2 18q4 28 -4 56t-16 52t-26 48t-34 44q-8 0 -8 4t-4 4q-4 4 -4 6t-8 2q-12 16 -36 28t-44 20q-20 12 -46 16t-50 4zM1552 1200h16h12q12 0 18 -2t18 -2 q4 0 12 -2t12 -6q4 0 14 -2t10 -6q-2 -24 -4 -72q-12 4 -16 6t-12 2l-12 6t-16 2q0 4 -10 4h-14q-4 4 -14 4h-14q-12 0 -20 -2t-20 -6q-12 0 -18 -4t-14 -8q-4 -8 -12 -14t-12 -14q0 -8 -6 -16t-6 -16h156l-16 -56h-152q4 0 2 -2t-2 -6q4 -4 2 -6t2 -6q-4 0 -2 -4t-2 -8 l2 -2l2 -2h152q-6 -14 -20 -56h-112q0 -4 6 -10t6 -14q4 -4 12 -8t12 -8l12 -6l12 -6h18h18h14h14t14 2l10 2q12 4 16 6t12 2l12 6t16 6q2 -24 4 -72q0 -4 -10 -6t-14 -6q-4 0 -12 -2t-12 -2q-12 0 -18 -2t-18 -2h-12h-16t-30 2t-30 6t-28 10t-24 14q-16 8 -24 16l-20 20 q-8 12 -14 26t-14 26h-88l16 56h60q-4 0 -2 2t-2 2q0 4 2 8t-2 4q4 4 2 8l-2 4q4 4 2 6t2 2h-64l24 56h40q8 8 8 16t4 16q8 8 10 16t10 12q0 8 8 14t8 10q4 8 12 14t12 10q8 4 14 10t14 6q8 4 14 8t18 8q4 0 14 2t14 2q8 4 18 4h18zM1024 1164h-8q-28 -4 -60 -10t-60 -18 t-60 -30t-56 -38q-64 -48 -120 -114t-112 -154t-104 -200t-100 -244v-8q194 -36 772 -140q2 2 4 8q-4 20 -2 40t-2 40q0 20 2 40t-2 36q4 56 2 106t-2 98q4 48 0 92t-4 84q-4 48 -6 90t-10 78q-4 40 -6 72t-14 56q0 28 -8 50t-16 34q-4 16 -14 24t-14 4l-4 4h4zM1080 1164 q2 -4 4 -12q24 -32 36 -98t20 -162q12 -96 14 -226t6 -294q-4 -16 -2 -36t-2 -40q0 -16 2 -36t-2 -40q2 -4 4 -12q138 46 548 188v8q-16 36 -26 72t-26 68q-12 32 -22 64t-26 60q-8 0 -20 -2t-20 -2q-4 0 -16 -2t-20 -2q-36 0 -66 6t-62 18t-56 30t-52 42q-20 28 -40 54 t-32 54t-20 60t-4 68q-4 16 0 34t4 34q4 16 12 32t8 32q-12 8 -30 14t-34 10t-34 8t-34 4q-6 2 -16 4h4zM820 828q-4 0 0 0h4t8 -2t0 -2q16 0 24 -4t20 -8t18 -10t18 -14q4 -8 12 -16t12 -20q4 -8 12 -20t8 -24q12 -28 16 -60t8 -72q8 -36 6 -82t2 -98q-142 26 -428 80 q20 44 34 82t30 70q20 36 36 64t36 52q8 12 20 24l20 20q8 12 20 18l20 10t10 6t10 2t10 2t14 2z" />
<glyph unicode="}" d="M596 1280l-240 -240q78 -78 316 -312q16 -20 38 -28t38 -8q20 4 44 14t44 30q26 -26 80 -76q0 4 6 8t6 8t6 8t6 8q8 4 10 8t6 8q8 4 10 8t10 12q-26 22 -76 68q24 24 32 46t8 42q4 24 -6 44t-22 36q-106 106 -320 316h4zM1376 1260q-36 0 -64 -6t-60 -18q-28 -12 -52 -28 t-48 -40l-40 -48t-28 -52t-16 -58t-4 -66q-4 -4 -2 -10t-2 -14q0 -4 2 -10t2 -14q4 -8 4 -18t4 -22q8 -8 8 -18t8 -18q-8 -8 -12 -16t-16 -20l-16 -24t-24 -28q0 -8 -10 -16t-14 -16t-14 -16t-10 -16q-12 -8 -14 -14t-10 -14q-8 -4 -12 -10t-16 -14q-4 -8 -14 -18t-18 -22 q-8 -8 -18 -16t-14 -16q-4 0 -4 -2t-4 -6q-4 0 -4 -2t-8 -6q4 0 -2 -2t-6 -6l-4 -2t0 -6q-16 -8 -24 -18t-20 -14t-16 -8t-12 -4l-8 2t-12 2h-6h-6q-24 0 -38 -4t-30 -8t-28 -14t-32 -22q4 0 2 0t-2 -4q-20 -16 -28 -30t-16 -30t-10 -34t-6 -38q4 -16 6 -34t10 -34l16 -32 t28 -28q8 -12 24 -22t28 -18q16 -8 36 -10t36 -2q24 0 38 2t30 10q20 8 34 18t30 22q-4 0 0 2t0 2l4 2t0 2q16 12 22 26t14 30t8 32t4 32q-4 4 -2 10t-2 10q0 4 2 8t-2 8q4 4 4 12t8 16t14 18t22 22q-4 4 0 6l4 2q0 4 4 6l4 2q4 4 4 6t4 2q4 4 4 6t8 6q4 8 14 16t14 16 q8 8 20 18t20 18q8 4 12 10t12 10q12 8 16 14t16 10q4 8 14 14t14 14q8 8 18 14t14 14q20 12 30 22t22 18t20 14t16 10q8 -4 18 -8t18 -8q8 0 20 -4t20 -4h12t12 -4h14h14q28 0 60 6t56 18q28 12 56 28t48 40q24 24 40 50t28 50q16 28 18 58t6 66q-4 4 -2 12t-2 12q0 8 2 14 t-6 14q4 12 -2 20t-14 8q-4 4 -16 -2t-20 -22q-50 -50 -152 -148q-16 -20 -38 -28t-42 -8q-20 4 -46 16t-46 36q-28 28 -40 50t-16 42q-4 24 8 46t28 42q50 50 152 148q8 12 16 22t4 14q0 8 -6 12t-26 8h-10h-14q-4 4 -12 4h-12zM1248 620q0 -4 -10 -10t-18 -14 q-4 -4 -16 -12t-16 -16q-12 -8 -20 -14t-20 -14q-8 -4 -14 -12t-18 -16q0 -4 -8 -10t-16 -14q-4 -4 -12 -8t-8 -12q-16 -8 -22 -16t-18 -16t-18 -16t-18 -16h4q-4 -4 -4 -6t-4 -6q-4 0 -4 -2t-8 -6q4 0 2 0t2 0q94 -94 280 -284q36 -32 64 -46t60 -14q36 4 68 22t68 54 q32 32 52 64t20 64t-14 64t-50 64q-76 78 -228 232q-12 0 -16 2t-12 2l-12 6t-16 6zM1320 488q-4 0 2 0t6 -4q4 0 8 -2t4 -6q58 -56 172 -168l4 -4t0 -8l4 -4q2 -2 2 -4t-2 -4q4 -4 0 -8t-4 -8q4 0 0 -4t-4 -8q-8 0 -8 -2t-8 -6h-6h-10q4 0 -2 0h-10q0 4 -4 6l-4 2 q-58 56 -172 168q0 4 -4 8l-4 4q4 4 0 8l-2 2q0 4 2 6q-4 4 0 8t0 4q0 4 4 8l4 4q8 4 8 6t4 2q8 4 10 4h10zM716 384q12 0 20 -2t16 -6q12 0 18 -6t18 -14q4 -8 10 -14t6 -18l8 -16q2 -4 2 -10q0 -4 -2 -10q4 -8 0 -16t-4 -16t-6 -14t-10 -14q-4 0 -2 0t-2 -4q-4 0 -2 0 t-2 -4t-14 -10t-18 -10q-4 -4 -16 -4h-16h-22t-18 4q-8 4 -14 10t-18 10q-4 8 -10 16t-10 16q0 8 -4 18t0 18q-2 6 -2 10q0 6 2 10q4 8 4 16q4 12 10 18t10 14q4 0 4 2v2q4 0 4 2t4 2q0 4 10 8t14 8q8 4 18 4h14zM1188 356h4t4 -4q4 0 8 -2l4 -2q58 -56 172 -168q0 -4 4 -8 t0 -8l4 -4q2 -2 2 -6l-2 -2q4 -4 0 -8t-4 -8q4 0 0 -4l-4 -4q-8 -4 -8 -6t-8 -6h-4h-8h-6h-10q0 4 -4 6t-4 6q-58 56 -172 168q4 0 -2 4l-6 4q4 4 0 8l-2 2q0 4 2 6q-4 4 0 8l4 4q0 4 4 8t0 8q8 0 8 2t4 2q8 4 10 4h10zM1276 -28q-4 0 -2 0t-2 0h4t0 0h4h-4z" />
<glyph unicode="~" d="M1008 1240h-8h-8l-2 -2t-6 -2v0h-4v-2t-4 -2v-60q0 -12 -4 -48v-40h-40h-10h-18h-18h-22q-16 4 -26 4h-22h-20h-16h-32h-28t-20 -2t-12 -2l-2 -2t-6 -2v-2t-4 -2q2 -20 8 -60h6h6h8t8 4h8h8h16h16h2h6h12h16h16h12h14h10h10h10h14h10h16h12h14h6q4 -4 6 -4h2v0h4h28 q0 -22 4 -88v-2v-2q4 0 4 -2v-2q4 4 4 6v2v2v2v4v0v20v16v14v10v12v8v8t-4 4v8v2t-4 2h-10h-10h-6h-6h-4h-4h-24h-24h-14h-10h-8h-12q-4 4 -8 4h-12h-8h-8h-2h-2h-12h-12h-10h-10t-6 -2t-6 -2h-8h-8h-2h-6h-4h-8h-6h-6v-2v-2q-6 2 -16 4v24q20 0 80 4v-4h100h112v2v2v2v2 l4 4v96v44h36v-44q0 -26 -4 -100h2h2v-2v-2v0v-4h164h6h6q8 0 16 -2t20 -2h20h12h12h4q0 -4 2 -4h6h8h8h2h2q4 0 8 -2t8 -2v-28q-44 4 -180 16h-8h-12q-4 0 -12 2t-16 2h-14h-14h-6h-6h-28v-2v-2h-2h-2v0l-4 -4q4 -16 4 -30v-26q0 -8 2 -14l2 -6v-2t-4 -6v-2v-6l2 -4t2 -8 l2 -2l2 -2h2h2v4v0v12v22v14v16v12v2v2v6v2v4h96l2 -2l2 -2h6h2h6h2h4v0l2 -2l2 -2h8h8h6t6 -4h4v0h2h2h6h2h12h4h4t8 -2t12 -2h10h6h6h2h16h4v-4h6h2h6h2h2h2h8h4v0h4h4h2h2h2h2q2 18 8 56q-2 2 -4 12q-4 0 -20 4q-24 2 -100 8h-188v116v36h-2h-6h-4t-4 4h-6h-6zM1268 984 v0v-4h-2h-2v0l-4 -4l-2 -2l-2 -2l-2 -2t-2 -6v-2v-2q-4 0 -4 -2v-6v-6v-6q4 -4 6 -8l2 -4q0 -4 2 -4t2 -4v-2t4 -2v0v-4h-2h-2l-8 -8v-4v-8v-4v-8v-4t-4 -4v-2v-2v-6v-6h4v0v0h4v-4q2 -2 4 -8q2 0 4 4v4v40q4 2 20 12v2v2v2v2v0v4q-6 6 -20 24v12q0 4 2 4h2q0 4 2 4t6 4h2h2 h2h2h6t2 -4h4l4 -4l2 -2t2 -6v-2v-6v0v-4v0v-4v-2v-2l-4 -4v-4h2h2v-2v-2h2t2 -4v0h4q4 2 12 4h4h2h2l2 -2t2 -6v-4v-4v-6v-2v-2t-4 -2q0 -4 -2 -6l-2 -2l-2 -2l-2 -2q2 -8 8 -24l8 -16q-2 -2 -8 -4q0 -8 2 -14t2 -10v-10t4 -10v-2v-6v-2v-2v-6v-6h4v0v2v6t2 8t2 8v2v2v2v2 v24l16 8v2v2v2v6v4l-24 16v8q4 4 12 16h4v0h4v0h4l4 -4h2t2 -4h4h4v-8v-8v-2v-6v-2v-6v0l4 -4v-2v-2v-2v-2q4 2 12 4q10 -12 44 -48q2 -4 8 -12v2v2v2v2v4q0 4 -2 6t-2 6t-4 8t-4 8l-6 6l-2 2q0 4 -2 6l-2 2q-4 0 -4 4t-4 4q0 4 -2 6t-6 2v2v2v0h-4v2v2h-12v2v2v6t-4 6v6 t-4 2v6v2v4h-4q0 4 -2 4t-2 4h-2h-6q0 4 -2 4h-2h-2h-2h-2h-2h-2h-2q-4 0 -4 2v2q0 4 -2 6l-2 2q0 4 -2 6l-2 2l-2 2t-2 6l-4 4h-16v8v8t-2 8t-6 8q0 4 -2 6t-6 2q0 4 -4 6l-4 2h-24zM1096 976h-2t-6 -4h-2h-6v0l-4 -4l-4 -4v0l-2 -2l-2 -2l-2 -2t-2 -6v-6v-6v-2v-2v-2v-6 v-2v-6l2 -2l2 -2v0v-4q-4 -2 -12 -4q-4 0 -4 -2t-4 -6v-6v-6q-4 -4 -4 -8v-8v-10t-4 -10v-14v-14v-18v-18v-8v-24v0v-4h4v0v-4v0q4 0 4 -2v-2q0 4 2 4t2 4v8v12v2v2v6v6v2v2v2v2v10v14t2 16t2 16v2v2v6v2v2v2q0 4 2 6l2 2v6v2q4 4 4 6v2h20v4v0v6v2v4v0v2t-4 2v2v2v2v2h-2 h-2v2v2v6v2v4v0v4v0v2v2v0v4h2h2v2v2h4v0h4l2 2l2 2h2h2h6t2 -4h6h2v-2v-2v-2v-2v-6v-6v-6v-2l-2 -2l-2 -2v-2v-2l-2 -2t-2 -6v0v-4l2 -2l2 -2q6 -6 20 -16q2 -8 4 -32l16 -64q4 -16 12 -64l4 -4v0v-4h2t2 -2v-2v2v2v0h4v4v4v4q-2 8 -4 36v2v6t-2 8t-2 8v4v0q-4 8 -4 14 t-4 6v6v2v2v6t-2 10t-2 14q0 4 -2 8t-2 8v8v8h-4v0v2v2v2v2q0 4 -2 4h-2q0 4 -2 6t-6 2q0 4 -4 4h-8l2 2l2 2v2v2v2v2v2v2v6v2l4 4v4t-2 6t-2 6t-2 8t-6 4q0 4 -2 6t-6 2l-4 2t-8 2zM848 972q-8 -2 -32 -4v0h-4v-4l-4 -4t-6 -8t-2 -8v-10v-10h-12l-8 -8q0 -2 -4 -8 q-4 0 -6 -4t-6 -8q0 -4 -2 -8t-6 -4q0 -4 -2 -6l-6 -6v-2v-2l4 -4v-2v-2q4 0 4 -2v-2q0 4 4 8l8 8q8 8 12 16t12 16h2t2 -4h6h2h4v-4h4v0h2h2v4v0v4v0v2v2v6v2v6v2q0 4 -2 8t-2 8q2 4 8 12h2h2v0h4l2 2l2 2h4v0l2 -2l2 -2h2h2l2 -2l2 -2v-2v-2v-2v-2v-2v-2v-2v-2v-2v-6v0v-4 h-2h-2v-2v-2l-2 -2t-2 -6h-2t-2 -4q2 -4 4 -12q2 -2 12 -4q-2 -10 -4 -36l-8 -64q-2 -8 -4 -28q-4 -10 -12 -36q-2 -2 -4 -8h4v-2v-2q4 0 4 -2v-2q0 4 2 6l2 2v6t4 2q0 8 2 14t2 10q4 4 6 10t2 10l2 4l2 4v6t4 6v10v10q4 4 4 10v14q4 0 4 2v2v6v6v4v0v6v2v4v0v36q-2 0 -8 4 q2 2 4 12q2 6 4 28q-4 6 -16 28zM1520 968h-4h-4h-2h-6q0 -4 -2 -4t-6 -4l-2 -2l-2 -2q-4 -4 -6 -8t-2 -12q4 -4 6 -8l6 -12v-2v-6h4l4 -4h-2t-2 -4h-2t-6 -4q2 -8 8 -24h-2h-2v0l-4 -4h-2h-2v0h-4q0 -4 -2 -4t-2 -4l-2 -2t-2 -6l-2 -2t-2 -6v0v-4q4 -10 12 -28 q-4 -4 -16 -12v-2v-6v-2v-2q0 -8 -2 -18t-2 -18t-2 -14t-2 -14v-2t-4 -6v-2v-2v-8t-4 -8v-6v-2q-2 4 -4 12h-68l-4 -4q0 4 -2 6l-6 6q0 4 -2 8t-6 8v2t-4 2v6v2q-8 8 -12 16t-12 12q-4 8 -8 14t-8 10h-16v8v12t-4 8v8t-4 8q-4 0 -6 2t-6 2q0 4 -4 4h-8h-2t-6 -4h-4t-4 -4 q-4 0 -6 -4t-6 -8l-2 -6t-2 -10v-2v-2l2 -2l2 -2v-2v-2v-2v-2l2 -2t2 -6v-2v-6l-2 -2l-2 -2v-2t-4 -2v-4v-4v0v-4v-2v-6q4 -4 4 -8v-12v-2v-2v-2v-2q4 -4 4 -8v-8t2 -10t2 -10v-2v-6v-2v-2l-4 -2t-12 -2q-4 0 -16 -2t-24 -2l-2 -2t-2 -6h-2t-2 -4l-8 -8v-4l-8 -8v0v-4v0h-4 v-2v-2l-2 -2t-2 -6t-2 -6l-6 -6v-2t-4 -2h-32q0 -2 -4 -4v8q-22 2 -84 12q0 4 -2 10t-2 10q0 8 -2 14t-6 14v2v2q0 4 -2 4t-2 4t-2 10t-2 10t-2 4t-2 4q4 4 4 6v2l6 6l2 2l2 2l2 2v4h4v4v4v6v6v2v2v4v4l-2 4l-2 4v6t-4 6q0 4 -2 4h-2q0 4 -2 4h-6v0h-4v0h-4v0h-4h-2h-2h-2 t-2 -4v0h-4l4 4v0v2v2v8v8v6v6q4 0 4 4v4v2v2q-2 2 -8 4l6 6t2 6t2 6l2 2v2v2h2h2v4v0v4v0v6t-4 2v8v4q-4 4 -4 6t-4 2l-2 2l-2 2h-6h-2h-2h-2h-6h-6v0h-4q0 -4 -4 -6t-8 -2q-2 -12 -4 -36h-8q-4 0 -6 -4t-6 -8q-4 0 -8 -6t-8 -10l-8 -8l-8 -8q0 -4 -4 -8l-8 -8v0v-4h-2h-2 v-2t-4 -6l-2 -4t-2 -8l-2 -2t-2 -6t-2 -6l-2 -2l2 -2l2 -2v-2v-2h2h2q4 4 6 10t6 10q4 8 8 14t8 10v2v2h4v4l8 8l8 8t10 8t10 12q6 -2 20 -4v4v4v4v0v2v2v2t-4 6v2v2l2 2l2 2q0 4 2 6t2 6q2 2 4 8h12q2 -2 12 -8v-6t-4 -6v-2v-6v-2t-4 -2v0v-4v0h-4v-2v-2l-2 -2l-2 -2v0v-4 v-2v-2v-2v-2l2 -2l2 -2l4 -4q0 -8 -4 -28h2h2v-2v-2v-2v-2v0v-4v0v-4h-2t-2 -4q-4 0 -4 -2t-4 -6v-2t-4 -2v-2v-6l-2 -2t-2 -6v-2v-2v-2t-4 -6l-4 4l-8 -8q-12 -16 -48 -60h-4v-4v0q0 -4 -2 -8l-6 -12q-4 -4 -8 -12t-12 -20q0 -8 -2 -12t-2 -8v-2v-2v-8q-2 -12 -4 -44 q0 -4 2 -8t2 -8v-6v-2q4 -4 4 -6v-6q4 -4 8 -4h8l-4 -4q-10 -8 -36 -28q4 -4 16 -12q8 4 14 10l10 10l12 6l4 2h4v0h4v0q4 0 4 2v2v2v2v2v2v2v2v4q-8 4 -28 16q-4 0 -4 2v2v8v4v4v4v6v6v12v2v2v6v2v2v2v2v2v6v2q4 0 4 2v2v4v0q4 4 4 6v2q4 4 6 8l6 12q0 4 2 8t6 8t6 10t6 10 l2 2l2 2q0 4 2 4t2 4t4 6t8 6q4 8 8 12t8 12h8h2h2h6h6v20v2v2v2v2v6v2l2 2l2 2v4v0q4 0 4 2v2q4 0 4 2t4 2h4h4q4 4 8 4h8q2 -8 4 -24q0 -4 -2 -4h-2v-6t-4 -6l-8 -8t-12 -8v-2v-2q4 0 4 -2v-2q0 -4 2 -6t2 -6l2 -2l2 -2v-6v-6q4 0 4 -4t4 -8v-6v-6l2 -2t2 -6q0 -8 2 -16 t2 -12q4 -4 6 -8t2 -8h2t2 -4h8h8l2 -2l2 -2h6h2h2h2h8h8l2 -2l2 -2h6h6h8h8q8 0 16 -2t20 -2h6t2 -4v0h-4q0 -4 -2 -4t-6 -4h-8h-8h-16q-4 -2 -16 -4q-12 2 -52 12q-4 0 -20 4q-10 6 -36 24h-4v-4h-2h-2v0v-4h-2t-2 -4v0v-4v-2v-2q-4 0 -4 -2v-2v-2v-2v-2v-2v-6v-6l2 -2 l2 -2v-6v-6q4 -4 6 -4t2 -4q4 -4 8 -6l4 -2q4 0 4 -2v-2q12 -4 20 -10t12 -10q4 0 6 -2t6 -2v-12v-44q4 2 16 12v32v12q-4 4 -6 8t-6 4l-8 8l-8 8l-8 8t-8 4q-4 4 -6 4t-6 4h-2h-6v4l-4 4v0h-4v4v0v6v2v4v0v4v4l2 -2l2 -2h2h2q4 -4 8 -6t8 -2t10 -2t14 -6q12 -4 22 -6t14 -6 q8 0 12 -2l4 -2q-4 0 -6 -2t-6 -2h-2t-2 -4h-2h-2h-2t-2 -4v-2v-2l2 -2l2 -2q0 -4 2 -6t2 -6l2 -4t6 -8l2 -2t2 -6h2t2 -4h2t2 -4v0h4l6 -6l6 -6q4 0 6 -2t6 -2q0 -4 4 -4h4h8h4h14h10q4 4 10 8t10 8l4 4v0l4 4v0l4 4v0q4 4 4 6v2l6 6l2 2q0 4 2 6l2 2v12q-4 2 -12 12 q2 6 4 28l16 8l16 -72v-2v-2q4 0 4 -2v-6l4 4v0q0 4 2 6l2 2v4h-4v6v2v6v2v4v0q0 4 -2 4h-2v6v2v6v2v6v6q-4 4 -4 6v2v2v6v2t-4 2v2v2v2t-4 2v6v2q-10 -2 -32 -4v-4l-4 -4v0v-4q-4 0 -4 -2v-2v-2v-2h-2t-2 -4v-2v-2v-2v-2q-6 -2 -16 -4q2 0 4 4l-2 2l-2 2v6v6v6v6q4 4 6 8 t2 8q4 0 4 2v6l6 6l6 6q4 0 6 4l2 4q4 4 4 6t4 2q22 2 64 4v6v2v6v2v4v0v2v2v2v6q-4 4 -4 6v6t-2 10t-2 10v2v2v4v4q-4 4 -4 8v4v8v8q6 2 16 8v16q0 4 -4 6l-4 2q0 4 -2 6l-2 2l-4 4v0v6v6v2v2v2v2l4 4v0q4 0 6 2t6 2t6 -2l2 -2h6h2l2 -2t2 -6v-2v-6v-2v-2v-2t-4 -2v-6v-6 h-2t-2 -4v0v-4h4v-4h2t2 -4h24q8 -8 14 -16t10 -16q8 -8 14 -16t10 -16q0 -4 4 -10t4 -10q4 -4 6 -10t2 -10q4 -8 4 -14v-14q4 -4 6 -12t2 -12q-4 -4 -8 -4t-8 -4h-10h-10h-4h-4l-2 -2l-2 -2v-2v-2v-4l4 -4h52q0 2 4 8v8v12v8v10t-4 10v4t-4 4v6v6t-2 6l-2 2q0 4 -2 6l-2 2 q22 2 64 4q0 -4 -2 -6t-2 -6l-2 -4l-2 -4v-2v-2h-2h-2v-2v-2l-2 -2l-6 -6l-10 -10t-10 -14q0 -8 2 -14t2 -10q4 -4 6 -8t2 -8v-2v-2h4v0v-4v0v4q0 4 4 20v4v0q0 4 -2 6t-2 6q8 8 12 16t8 12q4 8 8 12t4 8t2 4h2q0 4 2 8t2 12t2 16t6 16q0 8 2 14t2 10v10v2v2v6q4 4 4 10v14 l16 16v4v0v4v0v4q-2 6 -12 24q4 4 12 16q2 0 12 4q4 0 6 -2t2 -6l2 -2l2 -2v-4v-4v-2v-2v-2v-6v-2v-2l-2 -2l-2 -2v-2v-2l2 -2t2 -6l2 -2l2 -2q4 2 12 4q4 -4 6 -8t2 -8q4 -4 6 -8t2 -8l2 -4t2 -8q4 -4 4 -8v-8q4 0 4 -4v-8l2 -4t2 -12q4 -4 4 -10v-14q4 -4 4 -8v-8t2 -6 t2 -6v-2v-2v-8v-8q4 -4 4 -6v-6v-4v-8v-2v-2v-6v-6v-2v-6q-8 0 -16 -4l-16 -8h-6h-2h-2h-2v-2v-2h2h2v-4v0v-4v0h4v0v-4q8 4 12 4h8t6 2t6 2h4h20q-4 8 -4 14v10v12v8v2v2v4v0v2t-4 6v10v14v2v2q0 4 -2 6l-2 2v12h6h6h2h2h6h6h6h6h6t6 4h8h4h6h2v2v2v4v0v6t-4 2v4h-8v8v8v14 t4 14v12v8t2 6l2 2v4v8t2 10t2 14h8h4h4l4 4v16q-4 0 -4 2t-4 2l-2 2t-2 6q-4 4 -4 6t-4 2v4v4h4v4q4 0 4 2v2h4v0h2h2l4 2l4 2h4v-4q4 0 6 -2l2 -2q0 -4 2 -4t2 -4v-2v-2v-2v-2v-2t-4 -6v-6v-2v-2v-2v-2v-2l2 -2l2 -2v-2v-2h4v0h8q0 -4 4 -10t4 -14q4 -8 6 -16t6 -16t4 -14 v-14q4 -4 4 -8v-8l2 -4t2 -12v-12t4 -20v-2v-6v-2v-2q0 -8 2 -14t2 -10v-6v-6v-20q-8 -4 -36 -16v0v-4l4 -4l4 -4q4 0 8 2l4 2h6h6v4v0h4v0h4v0h2h2l4 4v0q0 4 2 4h2v2v2v6v6v2v2v6v2v8v8t-2 6l-2 2v2v2v6v6v2v2v0v4t-2 8t-2 8v6v6v2t-4 2v8v12q0 4 -2 10t-2 10t-2 8t-2 8 q-4 12 -6 24t-6 24t-8 20l-8 16q-2 2 -8 4v2v2v4v4v6v6t-2 6l-2 2q0 4 -2 4h-6q0 4 -2 8t-6 8h-4h-4h-2h-2h-2h-6l-2 -2l-2 -2q-4 0 -4 -2t-4 -2l-8 -8q0 -4 -2 -4t-2 -4v-2v-2v-4v-4v-2v-2l2 -2l2 -2v-2v-2v0v-4h4v0v-2v-2v0v-4v0h-4v-2v-2q-4 0 -4 -2v-6l-2 -2t-2 -6v-6 v-2v-2v-2l-2 -2t-2 -6v-10t-4 -10v-14v-10v-10v-10v-6v-6v-4v-8h2h2h-2t-2 -4h-2h-2h-4h-8h-2h-6h-8h-8h-6h-2v0v-4v0h-4h-12q0 8 -2 18t-6 18q0 12 -2 22t-6 22q0 4 -2 8t-6 8v8t-4 4q-2 4 -4 12q-2 0 -12 4v32q-4 4 -20 16q-2 2 -4 12h16v6v2v4v0v2v2v2v2v4q-4 0 -4 2 t-4 2l-2 2l-2 2v2t-4 2l-6 6l-2 2q0 4 -2 6l-2 2l2 2l2 2l2 2l2 2q4 0 6 2l2 2h2h6h2h2q4 0 6 -2l2 -2q4 0 4 -2v-6v-2v-6v0v-4v-2v-6v-2v-2v0v-4v-2t4 -2v-2v-2q6 2 20 4l14 -14t10 -14q8 -4 12 -10t8 -14l2 -4l2 -4v-2t4 -2l12 -48v-6v-2q4 0 4 -2v-2v-2v-2q4 0 4 -2v-2 q2 8 4 24q0 4 -2 8t-2 8q0 8 -2 14t-6 14q-4 4 -6 10t-6 10q0 8 -2 12t-6 8l-2 4t-6 4q0 4 -2 6l-2 2v2t-4 2q0 4 -2 4t-2 4q-4 0 -4 2t-4 2v2t-4 2v0v4h-2h-2v0v4h-2h-2h-2h-2h-2h-2l-4 -4v14t-4 10q0 4 -2 8t-6 8q-4 0 -6 2t-6 2q0 4 -4 4h-4zM404 908h-8h-2t-2 -4v0h-4v0 l-4 -4v-2t-4 -2v-2t-4 -6v-2v-6q-4 -4 -4 -6v-6v0v-4h-2h-2h-4q-4 0 -4 -2t-4 -6v-2v-2q-4 -4 -6 -8t-6 -8q0 -4 -4 -8t-8 -12l-2 -4t-2 -8h-2t-2 -4v-2t-4 -6v-2v-2q-4 -4 -6 -10t-6 -14q0 -4 -4 -10t-4 -14q-4 0 -4 -2v-6v-2v-6q-4 0 -4 -4v-8v-2t-4 -6v-8t-4 -8v-2v-2v-2 v-6v-8t-4 -8v-2v-6v-2v-2q0 -8 -2 -16t-2 -12v-6v-6v-4v-8t2 -6t2 -6v-2v-2l2 -2l2 -2v-4v0v-2v-2l4 4v2v2q0 8 2 14t2 10v14v10v8v4v4v0v6v2v4v4v0l4 4v4v0v8q0 8 2 12t2 8q4 8 4 14v10q2 2 4 8v8h2h2v2v2l6 12t2 8t2 6t2 6q2 2 4 8v2v2q0 4 2 6l2 2q0 4 2 6t2 6l6 6l6 6 t6 8t2 8l6 6l6 6h4v0q4 0 4 -2t4 -2h4v0q4 0 4 2v2v4v0v2v2v2v2v6t-4 2v0v4h2h2q0 4 2 6t2 6q2 4 4 12h4v0h4h4h2h2h4v0l4 -4v-4l2 -4t2 -8v-2v-2l-2 -2l-2 -2v-2v-2v-2t-4 -2l-2 -2l-2 -2l-2 -2l-6 -6v-2v-6h2t2 -4l2 -2l2 -2v-2v-2v-4v-4v-4v-8v-2v-6v-2v-2v-2v-6v0v-4 v-14v-14q4 -4 4 -8t4 -8v-2v-2v-2v-2q4 0 4 -4v-8q4 0 6 -4l2 -4h8v16v0h-4v2v2q0 4 -2 6t-2 6t-2 8t-2 8v8v8t-2 10t-2 10q4 8 4 14v10v14v14v2v2q4 4 4 6v2q0 4 2 6l2 2v6v2v8t-4 8v6t-4 6q0 4 -4 6t-8 2q0 4 -4 4h-8zM532 880q-4 -8 -8 -12l-8 -8l-2 -2l-2 -2v0v-4v-2v-2 v0l-4 -4v0v-4q4 0 4 -2v-2v-2v-6q-6 -2 -20 -4q-2 -4 -12 -16v-2t-4 -6l-2 -2t-2 -6v0l-4 -4q0 -4 -2 -6t-2 -6l-2 -2l-2 -2v-2v-6t-2 -8t-2 -12q-4 0 -4 -4v-8l-2 -4l-2 -4v-2v-2v0v-4v0v-4q4 0 4 -2v-2h8v6v2q4 4 4 6v2v2v2q0 4 2 6t2 6t2 8l6 12q2 6 4 20q4 0 4 2v2v2 t4 2v2v2l2 2l2 2l2 2l2 2l2 2l2 2h28q0 10 -4 40l8 8q0 2 4 8q6 -2 24 -4v0v-4t-2 -8t-2 -12q0 -4 -2 -6t-2 -6t-2 -6l-2 -2v-2t-4 -2q4 0 4 -2v-6q4 0 4 -2v-2q4 -2 12 -8l-8 -64v-12v-2v-2l2 -2l2 -2h4q0 4 2 6l2 2v4v4l4 4v4v8t2 8t2 8v12v8l4 4v0v4v0v6v2v0v4l-2 2l-2 2 v2v2l-2 2l-2 2l-2 2l-2 2v2v2q0 4 2 6t2 6t2 6l2 2v8v4v4v0v2v2q0 4 -2 4h-2v2t-4 2v6t-4 2q-2 4 -8 12h-24zM732 856h-2h-2h-6h-2l-2 -2l-2 -2q-4 0 -4 -2t-4 -2v-2v-2l-6 -6t-2 -6l-2 -4t-2 -8v-20h-2h-6h-2h-2q-4 0 -4 -2t-4 -2l-2 -2l-2 -2v-2v-2h-2h-2v-4v-8l-2 -4 t-2 -8q-4 -8 -4 -12t-4 -8v-6v-6v-2v-2v-2v-2q-4 -12 -4 -20t-4 -16v-8v-4v-2v-6v-2v-6v-8v-8v-10v-10v-10v-10v-8v-8q4 0 4 -2v-6q4 0 4 -2t4 -2v-2v-2q18 2 56 8v8v8q-12 0 -48 4l-12 12q0 4 2 8t2 8v16t4 16v4v4v6v2q2 14 8 44v4v0v2v2v4v4q4 4 4 6v2v4v0v8v2v2q4 0 4 2 v6l2 2l2 2v4v0q8 0 12 2t8 2h6h2v16v2v2v6t-4 6v8l16 16h16h4v-8v-8t-2 -8l-2 -4q0 -4 -2 -6l-2 -2v-2v-2v-4h-4v-2v-2v0h-4l4 -4v-4h2t2 -4h4v-4h2h2v-4v-12q4 -8 4 -16v-16v-2v-2v-2v-2v-12v-2v-2h2t2 -4v-2v-2h-2h-6t-10 -2t-14 -2q-2 -2 -4 -8q2 -2 4 -8h6h6q8 0 14 -2 t14 -2t14 -2t10 -2h6h2h92v16q-4 4 -10 4h-14h-14h-14h-22h-22q-8 4 -14 4h-10v10v10v8t-4 8v8v8v8v4v6v2v4v0v4v0l-4 4v0v2v2v4q-2 2 -4 8l-4 4v4l6 6l2 2v6v2v24q-4 4 -12 16v4h-4h-4h-2h-2zM1124 812v-4l-4 -4v-8v-8v-14v-14v-18v-18v-6v-6v-2v-6h4h2h2q2 2 8 4v16 q0 6 4 24v2v2v2t-4 2v4v0v12v6v2v6t-4 2v2v2v4v0q0 4 -2 6l-2 2v4zM388 768l-4 -4q-4 -8 -4 -12t-4 -12v-8v-8q-4 -8 -4 -14v-14t-2 -14t-2 -14v-2v-2l2 -2l2 -2v-2v-6v0v-4v-8v-8v-4v-4v-8v-8v-4v-8q4 -4 4 -6v-6t2 -6t4 -2h2v2v2v2v2v4v0v56v2v2v6v6v8v8v14v10t2 8l2 4v6 v6v6v2v2v2q2 -4 8 -12q4 -8 12 -32q2 0 8 4q0 4 -2 6l-2 2q0 4 -2 10t-2 10v2v2h-2h-2q0 8 -2 14t-6 10v8v4q-2 2 -8 4zM440 704v-2t-4 -6v-2v-2v-2v-2v-2v-2l2 -2l2 -2v-2v-2h38h30q16 0 28 -2t20 -2h14h10h8h4h8h8h6h6h2h2q4 0 8 2t8 2v2v2v2v2v4v2v2h-26h-26h-20h-20 t-20 2t-28 2q-12 0 -26 2t-32 6h-2zM1084 696q-12 0 -20 -2t-16 -2h-10h-10h-12q2 -6 12 -20q48 0 196 4v16q-34 0 -140 4zM1108 556h28q-4 -2 -12 -4q2 -6 8 -20l4 -4l40 8v-4h4v0v-2v-2l2 -2t2 -6h4v0v-2t-4 -6l-2 -2t-6 -2q0 -4 -2 -6l-6 -6q-4 0 -4 -2t-4 -2h-2t-2 -4 h-2h-6h-4h-4q-4 -4 -8 -4h-8h-2h-2h-4h-8q0 4 -4 6t-8 6l-6 6l-6 6t-4 8t-4 8q14 2 44 8v4q0 2 -4 12h-16zM364 464h-8h-8l-4 -2t-8 -2t-8 -2t-8 -6l-4 -2t-4 -6q-4 0 -6 -4t-6 -8l-2 -4t-6 -8v-6t-4 -6v0v-4v-6v-6v-2v-6v-8v-8v-8t4 -8v-2v-2q0 -4 2 -6t2 -6q4 0 6 -4l2 -4 q4 0 4 -2v-2v0h4v-4v-4h6h2l4 -4v-4h6h6q4 -4 8 -4h4t8 -2t8 -2t6 2l2 2h6h2h6h2l4 4h4v2v2h4l4 4l4 4v0l-2 2l-2 2v0l-4 4v0h-4v0h-4h-4v-4h-2h-2h-2h-2h-2h-2l-2 -2t-6 -2v0h-4h-4h-8q0 4 -2 4h-2h-2h-2v4v0q-4 0 -4 2t-4 2l-2 2l-2 2q0 4 -2 4h-6v8t-4 4v4v0v6t-4 6v8v8 v6v2v6t4 6v2v2v2v2q0 4 2 6l2 2q4 4 4 6t4 6l2 2l2 2q4 4 6 4t6 4h2h2h8h4h4v0h6h2h2h2h2h2h2t2 -4v0h4h2h2h2h2h4v0v4v0h2h2v4v0v0h-4v4v0l-2 2l-2 2h-2t-2 4h-4h-4l-2 2t-6 2h-2h-6h-2h-6zM1520 464h-4v0l-2 -2l-2 -2h-2h-2h-4l-4 -4h-2t-2 -4l-2 -2l-2 -2l-2 -2l-2 -2 l-2 -2t-6 -2v-2v-2l-2 -2t-6 -2v-2v-2h4h4h6h6q4 4 6 4h2q4 0 6 2t6 2l2 2l2 2l4 4v4q4 0 4 2v2v6v2q0 4 -2 4h-2zM1408 448h-8h-8l-2 -2t-6 -2q0 -4 -2 -6t-2 -6l-2 -2t-2 -6v-20v-48v-2v-2v-6v-6q4 0 4 -2v-6v0v-4h4v0v-4v-4q4 0 4 -2t4 -2q0 -4 2 -4t2 -4q4 0 4 -2t4 -2 h2h2q4 0 6 -2t6 -2l2 2l2 2h6t2 4h4v0l2 2l2 2v2v2v2v2v2v2v0h-4h-2h-2h-2h-2h-4h-4l-2 2l-2 2h-4v0v0v4h-2h-2v6v2q0 4 -2 4h-2v6v2v2v2v32h8q4 0 6 2l2 2q4 0 6 2t6 2v2v2l2 2l2 2v2v2v2v2h-32v16v2v2v4v0v4v0v4v0l2 2zM468 412h-6h-6t-6 -2t-6 -2v0l-4 -4l-2 -2t-6 -2v-2 t-4 -2q0 -4 -2 -6t-2 -6l-2 -2l-2 -2q0 -4 -2 -6t-2 -6v-6v-6v-2v-2v-2v-6q4 -4 4 -6v-2v-2v-2q4 0 4 -2v-2q0 -4 2 -4t2 -4h2t2 -4h2h2q0 -4 2 -4t2 -4h4h4q0 -4 4 -4h4t6 -2t6 -2l4 2l4 2h6t6 4h4v0q4 4 6 4t2 4h2h2q0 4 2 4h2q0 4 2 4t2 4v2v2l2 2l2 2v2v6t2 6l2 2v2v2 q0 4 -2 6t-2 6v6v6q-4 0 -4 2t-4 2q0 4 -2 6t-2 6l-2 2t-6 2v2t-4 2v0h-4v4v0q-4 0 -6 2t-6 2h-4h-4zM584 412h-2h-6h-2h-6q0 -4 -2 -4h-6l-2 -2l-2 -2h-2h-2q0 -4 -2 -6t-6 -2v-4t-4 -4v-6t-4 -6v-6v-6v-12v-24v-6v-2q4 0 4 -2v-2v-4v0h4v0q0 -4 4 -4t4 -4h8h4v4v0v2v2v0v4 v2v2v2v6v36v2v2v6t4 2v4v0q0 4 2 4t2 4l4 4v0h4v0h4v0h4v0h4v0h4v-4h2h2q0 -4 2 -4t2 -4v0v-4l2 -2t2 -6v-2v-2v-12v-24v-6v-2l2 -2l2 -2v-4v0h2h2q0 -4 2 -4t6 -4h6h6v4v0v2v2v0v4v2v2v2v6v36v2v2v6v2q0 4 2 4h2v4l4 4l4 4v0h2h2h2h2h2h2h2h2h2t2 -4h2h2q0 -4 2 -4t2 -4v0 v-4l2 -2t2 -6v-2v-2v-12v-24v-6v-2v-2t4 -2v-4v0v0h4q0 -4 2 -4t6 -4h6h6v4v0v2v2v0v4v2v2v2v6v36v6t-4 6v6v6q-4 0 -4 4t-4 4l-2 2t-2 6h-2h-2l-2 2t-6 2h-2t-2 4h-6h-6h-2h-6h-4h-8h-2t-2 -4h-6h-6v-2t-4 -2l-2 -2l-2 -2v2v2v0h-4l-2 2t-6 2v0h-4q0 4 -4 4h-8h-2h-6z M776 412h-4h-8h-2h-2q-4 -4 -6 -4h-2l-2 -2t-6 -2q-4 -4 -4 -6t-4 -2l-2 -4l-2 -4q0 -4 -2 -6t-2 -6v-6v-6v-12v-24v-6v-2v-2t4 -2v-4v0v0h4q0 -4 2 -4t6 -4h6h6v4v0v2v2v0v4v2v2v2v6v36v2v2v6v2q0 4 2 4h2v4v4h4v0q0 4 2 4h2h2h2h2h2h2h2h2h2h2t2 -4h2h2v-4v-4h4v-4v-2v-6 v-2v-2v-12v-24q0 -4 2 -6l2 -2v-2v-2l4 -4v0q4 -4 6 -4t2 -4h8h8v4v0v2v2v0v4q-4 0 -4 2v2v2v6v36v2v2q4 4 4 6v2v4v0l4 4v4h2h2q0 4 2 4h2h2h2h2h2h2h2h2h2h2t2 -4v0h4v-4v-4h2t2 -4v-2v-6v-2v-2v-12v-24q0 -4 2 -6l2 -2v-2v-2q0 -4 2 -4h2q4 -4 6 -4t2 -4h8h8v4v0l-2 2 l-2 2v0v4v2v2v2v6v36v6v6v6t-4 6l-2 4l-2 4l-2 2l-6 6q-4 0 -4 2t-4 2h-2t-6 4h-2h-6h-4h-4h-6h-6h-2t-6 -4h-2h-6l-2 -2l-2 -2v0h-4v-2v-2v2t-4 2l-2 2t-6 2h-2h-2q-4 4 -6 4h-6h-2h-6zM1080 412h-6h-6h-2h-2q-4 -4 -6 -4h-6v-2t-4 -2l-6 -6l-2 -2l-2 -4l-2 -4q0 -4 -2 -6 t-2 -6v-6v-6v-12v-24v-6v-2v-2t4 -2v-4v0q4 -4 6 -4t2 -4h8h8v4v2v2v0v4v2v2v2v6v36v2v2v6v2q0 4 2 4h2v4v4h4v0q0 4 2 4h2h2h2h2h2h2h2h2h2h2t2 -4v0h4v-4v-4h4v-4v-2v-6v-2v-2v-12v-24q0 -4 2 -6l2 -2v-2v-2q0 -4 2 -4h2q4 -4 6 -4t2 -4h8h8v12q0 2 -4 12v24v12v6v6t-2 6 t-2 6l-2 4l-2 4l-2 2l-6 6q-4 0 -4 2t-4 2h-2t-6 4h-2h-6h-4h-4zM1188 412h-4t-8 -4h-2h-6v-2t-4 -2l-2 -2t-6 -2v-2t-4 -2v-4h2t2 -4h4v0h2h2h2h2h4v0h2h2l2 2l2 2h2h2h4v0h4h2h2h4v0h2h2q0 -4 2 -4t2 -4l2 -2l2 -2v-2v-6l2 -2l2 -2h-6h-6q-4 4 -6 4h-6h-6h-6l-2 -2l-2 -2 h-4l-4 -4h-2h-6q0 -4 -2 -4t-2 -4h-2t-2 -4l-2 -2t-2 -6v-2v-6v-2v-2v-2v-2l2 -2l2 -2v-2v-2l2 -2l2 -2v-4v0h4v0l2 -2l2 -2h2t2 -4h4v0h6h2h2t2 -4h4h4h2h2v4v0h6h2q4 0 6 2t6 2l2 2l2 2h2t2 4q4 0 4 2v2l2 2l2 2v2v2q4 0 4 4v8q4 4 4 6v6v2v2v0v4v12t-4 8q0 8 -2 12t-6 4 q0 4 -2 4h-2l-2 2l-2 2h-2h-2q0 4 -2 4h-2l-4 2t-8 2h-2h-6h-4zM1504 412h-6h-6t-6 -2t-6 -2v0l-4 -4q-4 0 -4 -2t-4 -2v-2t-4 -2q0 -4 -2 -6t-2 -6l-2 -2l-2 -2q0 -4 -2 -6t-2 -6v-6v-6v-2v-2v-4v-8l2 -2l2 -2v-2v-2l2 -2l2 -2v-4v-4h4l4 -4v0h4q0 -4 2 -4t2 -4h2h6 q0 -4 4 -4h4t6 -2t6 -2l4 2l4 2h8t4 4h6h2q0 4 2 4t6 4l2 2l2 2l-2 2l-2 2v0v4h-4v0v0h-4v0h-4t-4 -2v-2h-2h-2h-2h-2h-2h-2l-2 -2l-2 -2h-2h-2h-2h-2l-2 2l-2 2v0h-4v0l-4 4v0h-4v4v4l-2 2l-2 2v6v2h2h2h2h2q4 0 4 -2v-2h6h6h2h2q4 4 6 4h2h4v0q4 0 6 2t6 2t4 2v2q4 0 4 2 v2l4 4v0q0 4 2 6t2 6v6t-4 2v6v2l-4 4h-4q0 4 -2 6l-2 2q-4 0 -6 2l-2 2h-2h-6q0 4 -2 4h-6h-2h-2zM940 408h-6h-6t-6 -2l-2 -2q-4 0 -6 -2t-2 -6v-6v-6v-32v-8v-8v-4t4 -4v-6v-2q4 0 6 -2l2 -2v-4v0h2h2l2 -2t2 -6h6h6h2h6t6 -2l2 -2q4 0 6 2l2 2h6h6h2h2l6 6t6 2v0l4 4v2 v2q4 0 4 2t4 6v4v4q4 4 4 8v8v36v2v2v4v4v4v0v2v2h-6h-6t-6 -2l-2 -2q-4 0 -6 -2t-2 -6v-6v-6v-32v-6t-4 -6v-2v-2v-2t-4 -6l-2 -2l-2 -2h-2h-2l-2 -2l-2 -2h-2h-2v0h-4v2t-4 2v0h-4v2v2h-4v0q0 4 -2 6l-2 2v2v2v6v6v36v2v2v4v4v4v0v2v2zM1288 408h-6h-6t-6 -2l-2 -2h-2h-2 l-2 -2t-2 -6v-6v-6q-2 -10 -4 -32q0 -4 2 -8t2 -8v-4t4 -4v-6v-2q4 0 4 -2t4 -2v-4v0v0h4l2 -2t2 -6h6h6h2h2q4 0 6 -2t6 -2t6 2l2 2h6h2h6h2l6 6l2 2h4v0v0v4q4 0 4 2v2q4 0 4 2v6h4v0v4v4t2 8t2 8v36v2v2v4v4v4v0v2v2h-8h-8l-2 -2l-2 -2h-2h-2l-2 -2t-2 -6t-2 -6t-2 -6 v-32v-6v-6v-2v-2v-2t-4 -6l-2 -2l-2 -2h-2h-2l-2 -2l-2 -2h-2h-2h-2h-2l-2 2l-2 2h-2h-2v2t-4 2q0 4 -2 6l-2 2v2v2v6v6v36v2v2v4v4v4v0v2v2zM1504 392h6h2l2 -2l2 -2q4 0 4 -2v-2v-2v-2v-6v-2l-2 -2l-2 -2l-2 -2t-6 -2h-2h-2h-2h-6h-2h-2h-6h-2l-2 2l-2 2v2v2q4 4 4 6v2 l2 2l2 2v2v2h4v0l4 4v0h2h2v0h4zM468 392h4h4v-2v-2h4v-4h4v-4l2 -2l2 -2v-6v-6q4 0 4 -2v-6v-4t-4 -8v-2v-2q0 -4 -2 -4t-2 -4v-2t-4 -2v-2t-4 -2t-4 -2t-4 -2h-2h-2l-2 2l-2 2h-2h-2l-2 2l-2 2l-2 2l-2 2v4v4q-4 0 -4 2v2v8v4v6v2v6t4 6v2v2q0 4 2 4h2q0 4 2 4h2l2 2l2 2 h2h2h2h2zM1196 352h4h4h4v0h2h2v0h4v-4v-4h-2t-2 -4v0v-4v-2v-2h-2t-2 -4v0h-4v-2v-2h-2t-6 -4v0h-4h-4h-2h-2q0 4 -2 4h-2h-2h-2v2v2h-2h-2v2v2v4v0v4v0v2v2h2h2v4v0q4 0 4 2t4 2h4v0h2h2v0h4zM424 268h-2h-6h-2t-2 -4h-2t-2 -4v-2v-6v-20q-4 0 -6 2t-6 2h-2h-2h-4h-4 l-2 -2l-2 -2h-6t-2 -4h-2t-2 -4l-2 -2l-2 -2l-2 -2l-2 -2v-6v-2v-2v-6v-4v-4v-2v-2l4 -4v-4l2 -2l2 -2l2 -2l2 -2q4 0 4 -2t4 -2h2t2 -4h4h4h2h2q4 4 6 4h2q4 0 4 2v2q4 0 6 2l2 2l2 2l2 2v4l4 4v2v2v4v4v52v12v2v2zM1756 260h-6h-6h-6t-6 -4h-2t-2 -4h-2h-2q0 -4 -2 -4h-2 v0v-4q-4 0 -6 -2t-2 -6l-2 -2t-2 -6v-6t-4 -6v-4v-4v-8v-52v-24v-2v-2v-2v-2q4 0 4 -2v-6h2t2 -4q4 0 6 -2l2 -2h8h8h-4v0v2v2v4v4v2v2v4v28v36h8h6h2q4 4 6 4t2 4h4v0q0 4 2 4t2 4v4v4h-32v4v0v6v2l2 2l2 2v2v2v2v2q4 0 4 2v2h2h2v2t4 2h4v0h2h2h4v0h4h4h4h4v4v0v2v2v0v4 q-4 0 -4 2v2l-2 2l-2 2h-4h-4h-2h-2zM616 260h-6h-6t-8 -2t-8 -2l-2 -2t-6 -2v0h-4q0 -4 -2 -4t-6 -4l-2 -2l-2 -2l-6 -6l-6 -6q0 -4 -2 -6l-6 -6v-6v-6l-2 -2l-2 -2v-6v-6v-4v-4v-8v-8t2 -8t2 -8v0v-4q4 -4 6 -8t2 -8l6 -6l6 -6l6 -6t6 -2t6 -2t6 -2q4 -4 8 -4t8 -4h6h6h6 h2q4 0 6 2t6 2h2h2q4 0 6 2l2 2l2 2l2 2h2h2q0 4 2 4h2v2v2l-2 2l-2 2l-2 2l-2 2h-2h-2v0h-4v-2v-2h-2h-2h-2h-2v0h-4v-2t-4 -2h-2h-2h-2h-6h-2h-6l-2 2t-6 2t-6 2t-6 2v4l-4 4l-2 2t-6 2v6v6l-2 2l-2 2v4t-4 8v8v8v4v4q4 4 4 6v6v2v2v0v4q4 0 4 4v4l6 6t2 6q4 0 4 2v2 q4 4 6 4h6q4 4 6 4h2h6h2h6h2h2h2h4v0h4v-4h2h2h2h2h4v0h2h2h2h2v4v0h4v0v2v2l-2 2l-2 2v0h-4v2v2v0h-4q0 4 -2 4h-6l-2 2l-2 2h-6h-6h-2h-6zM1108 260h-2h-2h-2h-2q0 -4 -2 -4h-2v-2t-4 -2v-4v0v-2v-2v-2v-2v0v-4h4v-4h2h2h4v0h6h2q4 0 6 2t2 6v4v4v0v4t-2 4h-2v2t-4 2v0 h-4zM700 260h-8t-8 -4h-2t-6 -4t-4 -6v-6v-2v-6v-32v-52v-24v-2v-2v-2v-2v-2v-6h4v-4q4 0 6 -2l2 -2h8h8v2v2v52v6v2v6v2l2 2l2 2v4v0l4 4v0h2t2 4h2h2h2h2h2h2h2h2q0 -4 2 -4h2v0l4 -4v0v-4q4 0 4 -2v-2v-2v-6v-2v-6v-8t4 -24v-2v-2v-2v-2v-2v-6h4v-4q4 0 6 -2l2 -2h8h8v4 v4v4v2v2v4v0v36q0 4 -2 8t-2 8v6t-4 6v2t-4 2q0 4 -2 6l-2 2q-4 0 -4 2v2h-2h-6q0 4 -2 4h-6l-2 2t-6 2h-2h-6h-2h-6v0h-4l-2 -2t-6 -2v0h-4v32v4v0q0 4 2 6l2 2v2v2v2v2v4zM1336 260h-2h-2h-4v0l-4 -4v0v-132v-2v-2v-2v-2v-2v-6h4v-4q4 0 6 -2l2 -2h8h8v4v4v4v2v2v4v0v28 q-2 20 -4 84q4 -4 6 -10t6 -14q4 -4 6 -10t2 -10q4 -4 4 -6v-6q4 0 4 -2v-2q4 -4 4 -6v-6l2 -2t2 -6v0v-4h4v0v-2v-2l2 -2l2 -2v-4v-4h4v-4l2 -2t2 -6l2 -2l2 -2l2 -2t2 -6h4v0q4 -4 8 -4t4 -4h8h8h2h2h2h2h2h2v48v52v36v4v0v6v2v2v2v2v2v4h-6t-6 -4h-6t-2 -4v0h-4 q0 -4 -2 -6t-2 -6v-2v-6v-32v-52v-16v6t-4 2v6v2q-4 4 -6 8l-2 4q0 4 -2 8t-2 8q-4 0 -4 2t-4 2v6v6l-2 2l-2 2v2v2v2t-4 2v2v2l-2 2l-2 2v4v4l-2 2l-2 2v0v4l-6 6l-6 6q0 4 -2 6l-6 6q-4 0 -6 2t-6 2t-8 2t-8 2zM456 236q-4 0 -6 -2t-6 -2v0h-4v-4l-4 -4v-2v-2v-20v-4v-2 v-6l2 -2t2 -6l2 -2l2 -2l2 -2l2 -2l2 -2l2 -2h2h2q4 0 4 -2v-2h6h2h4v0q4 0 6 2l2 2h2h2q4 0 4 2t4 2l2 2l2 2v2t4 2v6v2v6v2v4v20v8v4v0v2v2l-2 -2t-6 -2h-2h-2q0 -4 -2 -4t-2 -4v-2v-2v-20v-4v-2v-2l-2 -2l-2 -2v-2v-2v0v-4h-2h-2v0h-4h-2h-2h-2h-2v0h-4v4h-4v2v2v2v2v2v2 v4v20v2v2v2v2v4v2v2zM392 224h4v0l2 -2l2 -2l2 -2l2 -2v-2v-2l2 -2t2 -6v0v-4v-2v-6h-2t-2 -4v0v-4h-2h-2v-4v0h-2h-2v0h-4v0h-4h-2h-2v0v4h-4v0v4v0l-4 4v0v6v2v4v0v6t4 2v2v2v2t4 2l2 2l2 2h4v0zM840 208h-6t-6 -4h-6h-2q-4 0 -4 -2v-2h-2h-2l-2 -2t-6 -2v-2t-4 -2 q0 -4 -2 -6t-2 -6l-2 -2t-2 -6l-2 -4t-2 -8v-2v-6v0v-4v-6v-6q4 0 4 -2v-2q0 -4 2 -6t2 -6l2 -2l2 -2l2 -2l2 -2l2 -2t2 -6h6t6 -4h4t4 -4h6h6h6h2q4 4 8 4h4q4 4 6 4h2l6 6l6 6l-2 2l-2 2l-2 2l-2 2h-2h-2v0h-4v-2v-2h-2h-2h-2h-2h-2h-2l-2 -2l-2 -2h-2h-2h-2h-2h-2h-2h-2 h-2v2t-4 2l-4 4v0q0 4 -2 4h-2v4h-4v6v6h2h2l2 -2l2 -2h6h2h2h6h2h2h6h2q4 4 6 4h2h2t6 4q4 0 4 2v2q4 0 4 2t4 2v2v2q4 4 4 6v6v2t-4 6v4v4q-4 0 -4 2t-4 2q0 4 -2 4t-2 4h-4h-4q0 4 -2 4h-6l-2 2t-6 2h-2h-2zM952 208h-6h-6l-2 -2t-6 -2h-2t-6 -4h-2h-2l-2 -2l-2 -2l-2 -2 l-6 -6v-2t-4 -2v-6t-4 -6v-8v-8v-8v-24v-2v-2v-2t4 -2v-2v-6h2t2 -4q4 0 6 -2l2 -2h8h8l-2 2l-2 2v4v4v2v2v4v0v36v6v2q0 4 2 6l2 2v2v2q0 4 2 4h2q0 4 2 4h2v0l4 4h4h4h4v0l4 -4v0h4v-4h2t2 -4v-2t4 -2v-2v-6v-2v-6v-8v-24v-2v-2v-2v-2l2 -2t2 -6h2t2 -4l2 -2t6 -2h6h6v2v2 v4v4v2v2v4v0v36v6v2v6v2q4 0 4 2v2q0 4 2 4h2v4v0h4v4h4v0h4v0h4v0h4v0l4 -4v0h2t2 -4h2t2 -4v-2v-2q4 0 4 -2v-6v-2v-6v-8v-24v-2v-2v-2v-2l2 -2t2 -6v0l4 -4l2 -2t6 -2h6h6v2v2v4v4v2v2v4v0v36v8t-4 8v6v6q-4 0 -4 2t-4 2q0 4 -2 6l-2 2v2t-4 2h-2h-6q0 4 -2 4h-2 q-4 0 -6 2t-6 2h-2h-6h-2h-6t-6 -2l-2 -2h-6t-2 -4h-2h-2h-4v-4h-4v0v4v0h-6h-2q0 4 -2 4h-6l-2 2t-6 2h-6h-2zM1200 208h-6h-6l-2 -2t-6 -2h-2t-6 -4h-2h-2l-2 -2l-2 -2l-2 -2l-6 -6v-2v-2q-4 -4 -4 -6v-6t-2 -8t-2 -8v-8v-24v-2v-2l2 -2l2 -2v-2v-6h2t2 -4q4 0 6 -2l2 -2 h8h8v4v4l-4 4v2v2v4v0v36v6v2q4 4 4 6v2v2v2l4 4v0q0 4 2 4h2h2t2 4h2h2v0h4h4h4v-4v0h4v-4h4v-4l2 -2l2 -2v-2v-6v-2v-6v-8v-24v-2v-2v-2v-2l2 -2t2 -6h2t2 -4l4 -2l4 -2h6h6v16v32v8v8v8t-2 6t-2 6l-2 2t-6 2v6t-4 2v2v2h-6h-6v4h-4l-4 2t-8 2h-2h-2zM1524 208h-6t-6 -4 h-6h-6v-2t-4 -2t-4 -2t-4 -2v-2t-4 -2q0 -4 -2 -6t-2 -6l-2 -2t-2 -6l-2 -4t-2 -8v-2v-6v0v-4v-6v-6l2 -2l2 -2q0 -4 2 -6t2 -6l2 -2l2 -2l2 -2l2 -2l2 -2t2 -6h6t6 -4h4t4 -4h6h6h4h4q4 4 8 4h4q4 4 6 4h2l6 6l6 6l-2 2l-2 2q-4 0 -4 2v2h-2h-2v0h-4v-2v-2h-4v0h-2h-2h-2 h-2l-2 -2l-2 -2h-2h-2h-2h-2h-2h-2h-2h-2v2t-4 2v0h-4v4h-4v4v0q0 4 -2 4h-2v6v6h2h2l2 -2l2 -2h4v0h6h6h2h2h6h2l4 4v0h6t6 4q4 0 4 2v2q4 0 4 2v2q4 0 4 2v2q0 4 2 6t2 6v2t-4 6v4v4q-4 0 -4 2t-4 2q0 4 -2 4t-2 4h-6h-2q0 4 -2 4h-6l-2 2t-6 2h-2h-2zM1120 204h-4h-8 l-4 -2l-4 -2q0 -4 -2 -6l-6 -6v-2v-6v-32v-24v-2v-2v-2v-2h2h2v-4v-4h2t2 -4h2t2 -4h2h2l2 -2l2 -2h6h2q4 0 4 2v2h6h2v4v0l4 4v0v4v0v2v2v4v0h-2t-2 -4v0h-4h-2h-2v4v0q-4 0 -4 2v2v2v2v56v2v2v4v4v2v2v2v2zM1612 204h-4h-8l-2 -2t-6 -2q-4 -4 -4 -6t-4 -6v-2v-6v-32v-8v-8 t2 -6t2 -6v0v-4h4v0l2 -2t2 -6h2h2q0 -4 2 -4t2 -4h6h6t6 -2l2 -2h6h2h6h2q4 0 6 2t6 2h4h4l4 4l4 4h2h2q0 4 2 6l2 2l4 4v0q0 4 2 6t2 6v8v8v32v6v2v2v2v4v0v2v2v2v2h-6h-6l-2 -2t-6 -2q-4 -4 -4 -6t-4 -6v-2v-6v-32v-6v-6v-2t-4 -2v-4v-4h-2h-2v-4h-4v-2t-4 -2v0h-4v0h-4 v0h-4t-4 2t-4 2v0v4h-2h-2v4v4q-4 0 -4 2v2v6v6v32v6v2v2v2v4v0v2v2v2v2zM840 188h6t2 -4h2h2q4 0 4 -2v-6h2v0q0 -2 -2 -4v-2v-6h-2h-2l-2 -2t-6 -2v0h-4h-2h-6h-2h-2h-4h-4h-2h-2v6v2l4 4v4h2h2v4l4 4h4v4h4v0h2h2zM1524 188h6t2 -4h2h2q4 0 4 -2v-6v0v-4v-2v-6h-2h-2 l-2 -2t-6 -2h-2h-2h-2h-6h-2h-2h-6h-2h-2h-2v6v2l4 4v4h2h2v4l4 4h4v4h2h2h2h2z" />
<glyph unicode="&#xad;" d="M888 1400h-2h-2h-2h-2q-4 -4 -10 -6t-10 -6l-4 -4t-4 -8q-4 -8 -4 -12t-4 -8v-10v-10q-40 -12 -76 -26t-68 -34q-32 -16 -64 -36t-64 -44q-28 -24 -54 -52t-50 -60q-24 -28 -44 -60t-36 -68t-30 -72t-22 -76q-8 -36 -12 -76t-4 -80q0 -48 6 -96t18 -92t30 -86t42 -82 t50 -76t58 -68t68 -58t76 -50t82 -42t86 -30t92 -18t96 -6t96 6t92 18t86 30t82 42t76 50t68 58t58 68t50 76t42 82t30 86t18 92t6 96t-6 96t-18 92t-30 86t-42 82t-50 76t-58 68t-68 58t-76 50t-82 42t-86 30t-92 18t-96 6h-22h-22h-18t-22 -4q0 8 -4 12l-8 8q0 4 -4 8 l-8 8l-6 6t-6 2q-4 4 -8 4h-8zM1024 1216q28 0 52 -2t48 -10q24 -4 48 -10t48 -14q32 -12 60 -28t56 -36q28 -16 54 -38t46 -46q24 -24 44 -50t36 -58q16 -28 28 -58t24 -66q-20 -14 -60 -44l72 -8q4 -36 6 -72v-26q0 -22 -2 -46q-4 -36 -10 -70t-18 -66t-26 -62t-34 -62 q-20 -28 -40 -52t-48 -48q-24 -24 -50 -44t-58 -40q-28 -16 -60 -28t-68 -24q-14 22 -44 68q-2 -20 -12 -80q-36 -4 -74 -6h-26q-24 0 -48 2q-36 4 -70 12t-66 20q-36 12 -66 28t-58 36t-54 42t-50 50q-24 24 -44 54t-36 58q-16 32 -28 66t-20 70q20 14 60 40l-72 16 q-2 26 -2 52v24q2 36 6 68q4 36 12 68t20 64q16 32 32 62t32 54q20 28 44 54t48 46q24 24 52 42t56 34q32 16 64 28t64 20q14 -20 40 -60q2 16 12 68q12 4 22 4h18q12 0 22 2t18 2zM1300 1064q-92 -84 -364 -336l-192 -480l368 344q46 118 188 472zM1024 720h12t8 -4 q4 0 10 -2t10 -6l8 -8t4 -8q4 -4 8 -10t4 -14v-14t-4 -14q0 -4 -2 -8l-6 -12l-8 -8t-12 -8q-4 -4 -10 -6t-10 -2h-14h-14q-4 4 -10 6t-10 6l-8 8l-8 8q-4 8 -6 14t-2 10v14v10q0 8 4 14t8 10l8 8l8 8t10 6t14 2h2h2v0h4z" />
</font>
</defs>
</svg>
