<?xml version="1.0" standalone="no"?>
<!DOCTYPE svg PUBLIC "-//W3C//DTD SVG 1.1//EN" "http://www.w3.org/Graphics/SVG/1.1/DTD/svg11.dtd" >
<svg>
<metadata>
Created by FontForge 20090622 at Wed Jul  5 14:46:35 2017
 By deploy user
&#194;&#169; 2013 Microsoft Corporation. All Rights Reserved.
</metadata>
<defs>
<font id="MyanmarText-Bold" horiz-adv-x="0" >
  <font-face 
    font-family="Myanmar Text"
    font-weight="700"
    font-stretch="normal"
    units-per-em="2048"
    panose-1="2 11 8 2 4 2 4 2 2 3"
    ascent="1638"
    descent="-410"
    x-height="1024"
    cap-height="1434"
    bbox="-1840 -1502 4547 2131"
    underline-thickness="119"
    underline-position="-119"
    unicode-range="U+000D-U+AA7B"
  />
<missing-glyph horiz-adv-x="1322" 
d="M166 0v1398h990v-1398h-990zM314 148h694v1102h-694v-1102z" />
    <glyph glyph-name=".notdef" horiz-adv-x="1322" 
d="M166 0v1398h990v-1398h-990zM314 148h694v1102h-694v-1102z" />
    <glyph glyph-name="glyph1" 
 />
    <glyph glyph-name="glyph1" 
 />
    <glyph glyph-name="uni000D" unicode="&#xd;" horiz-adv-x="561" 
 />
    <glyph glyph-name="space" unicode=" " horiz-adv-x="565" 
 />
    <glyph glyph-name="space" unicode="&#xa0;" horiz-adv-x="565" 
 />
    <glyph glyph-name="A" unicode="A" horiz-adv-x="1440" 
d="M1425 0h-352l-102 319h-510l-101 -319h-350l522 1434h383zM897 567l-154 482q-17 54 -24 129h-8q-5 -63 -25 -125l-156 -486h367z" />
    <glyph glyph-name="B" unicode="B" horiz-adv-x="1313" 
d="M164 0v1434h522q240 0 369 -88t129 -248q0 -116 -78.5 -203t-200.5 -121v-4q153 -19 244.5 -113t91.5 -229q0 -197 -141 -312.5t-385 -115.5h-551zM487 1196v-340h142q100 0 157.5 48.5t57.5 133.5q0 158 -236 158h-121zM487 616v-378h175q112 0 175.5 52t63.5 142
q0 86 -62.5 135t-174.5 49h-177z" />
    <glyph glyph-name="C" unicode="C" horiz-adv-x="1278" 
d="M1192 51q-157 -76 -410 -76q-330 0 -519 194t-189 517q0 344 212.5 558t551.5 214q210 0 354 -53v-311q-144 86 -328 86q-202 0 -326 -127t-124 -344q0 -208 117 -331.5t315 -123.5q189 0 346 92v-295z" />
    <glyph glyph-name="D" unicode="D" horiz-adv-x="1510" 
d="M164 0v1434h508q764 0 764 -699q0 -335 -208.5 -535t-555.5 -200h-508zM487 1171v-909h160q210 0 329.5 126t119.5 343q0 205 -118.5 322.5t-332.5 117.5h-158z" />
    <glyph glyph-name="E" unicode="E" horiz-adv-x="1090" 
d="M1024 0h-860v1434h827v-263h-504v-319h469v-262h-469v-328h537v-262z" />
    <glyph glyph-name="F" unicode="F" horiz-adv-x="1065" 
d="M993 1171h-506v-352h465v-262h-465v-557h-323v1434h829v-263z" />
    <glyph glyph-name="G" unicode="G" horiz-adv-x="1456" 
d="M1341 96q-210 -121 -522 -121q-346 0 -545.5 191.5t-199.5 527.5q0 338 218 551t580 213q228 0 402 -63v-303q-166 96 -406 96q-201 0 -327.5 -130.5t-126.5 -348.5q0 -221 113.5 -342t306.5 -121q116 0 184 33v280h-287v258h610v-721z" />
    <glyph glyph-name="H" unicode="H" horiz-adv-x="1569" 
d="M1405 0h-324v584h-594v-584h-323v1434h323v-572h594v572h324v-1434z" />
    <glyph glyph-name="I" unicode="I" horiz-adv-x="649" 
d="M607 1434v-250h-120v-934h120v-250h-563v250h120v934h-120v250h563z" />
    <glyph glyph-name="J" unicode="J" horiz-adv-x="912" 
d="M762 569q0 -288 -133.5 -441t-386.5 -153q-113 0 -209 39v303q83 -63 186 -63q221 0 221 328v852h322v-865z" />
    <glyph glyph-name="K" unicode="K" horiz-adv-x="1329" 
d="M1356 0h-408l-418 623q-12 18 -38 79h-5v-702h-323v1434h323v-678h5q12 28 40 80l396 598h385l-500 -684z" />
    <glyph glyph-name="L" unicode="L" horiz-adv-x="1047" 
d="M1018 0h-854v1434h323v-1172h531v-262z" />
    <glyph glyph-name="M" unicode="M" horiz-adv-x="1960" 
d="M1798 0h-319v858q0 139 12 307h-8q-25 -132 -45 -190l-336 -975h-264l-342 965q-14 39 -45 200h-9q13 -212 13 -372v-793h-291v1434h473l293 -850q35 -102 51 -205h6q27 119 57 207l293 848h461v-1434z" />
    <glyph glyph-name="N" unicode="N" horiz-adv-x="1618" 
d="M1454 0h-326l-591 901q-52 79 -72 119h-4q8 -76 8 -232v-788h-305v1434h348l569 -873q39 -59 72 -117h4q-8 50 -8 197v793h305v-1434z" />
    <glyph glyph-name="O" unicode="O" horiz-adv-x="1553" 
d="M770 -25q-308 0 -502 200.5t-194 522.5q0 340 197 550t522 210q307 0 496.5 -201t189.5 -530q0 -338 -196.5 -545t-512.5 -207zM784 1180q-170 0 -270 -127.5t-100 -337.5q0 -213 100 -337t262 -124q167 0 265 120.5t98 334.5q0 223 -95 347t-260 124z" />
    <glyph glyph-name="P" unicode="P" horiz-adv-x="1258" 
d="M487 494v-494h-323v1434h506q542 0 542 -457q0 -216 -155.5 -349.5t-415.5 -133.5h-154zM487 1186v-447h127q258 0 258 226q0 221 -258 221h-127z" />
    <glyph glyph-name="Q" unicode="Q" horiz-adv-x="1553" 
d="M784 1180q-169 0 -270 -128q-100 -127 -100 -337q0 -212 99 -337q100 -124 263 -124q168 0 265 120q98 122 98 335q0 221 -94 345q-94 126 -261 126zM1040 27q52 -56 99 -92t94.5 -57t97.5 -29t109 -8q16 0 35 1.5t38.5 5t37.5 8t33 10.5v-272q-32 -9 -88.5 -18
t-137.5 -9q-98 0 -180.5 32t-158 87.5t-147 130.5l-148.5 161q-147 4 -267 61t-205 153.5t-131.5 226.5t-46.5 279q0 341 196 550q197 210 525 210q305 0 494 -202q190 -200 190 -529q0 -257 -116 -442q-116 -183 -323 -258z" />
    <glyph glyph-name="R" unicode="R" horiz-adv-x="1337" 
d="M1367 0h-371l-223 369q-25 42 -48 75t-46.5 56.5t-49 36t-55.5 12.5h-87v-549h-323v1434h512q522 0 522 -390q0 -75 -23 -138.5t-65 -114.5t-101.5 -88t-132.5 -58v-4q32 -10 62 -32.5t58 -52.5t53.5 -64.5t46.5 -67.5zM487 1192v-399h140q104 0 167 60q64 61 64 151
q0 188 -225 188h-146z" />
    <glyph glyph-name="S" unicode="S" horiz-adv-x="1148" 
d="M98 55v320q87 -73 189 -109.5t206 -36.5q61 0 106.5 11t76 30.5t45.5 46t15 57.5q0 42 -24 75t-65.5 61t-98.5 54t-123 53q-168 70 -250.5 171t-82.5 244q0 112 45 192.5t122.5 132.5t179.5 76.5t216 24.5q112 0 198.5 -13.5t159.5 -41.5v-299q-36 25 -78.5 44
t-87.5 31.5t-89.5 18.5t-84.5 6q-55 0 -100 -10.5t-76 -29.5t-48 -45.5t-17 -59.5q0 -36 19 -64.5t54 -54t85 -50t113 -50.5q86 -36 154.5 -76.5t117.5 -91.5t75 -116.5t26 -152.5q0 -120 -45.5 -201.5t-123.5 -132t-181.5 -72.5t-218.5 -22q-118 0 -224.5 20t-184.5 60z
" />
    <glyph glyph-name="T" unicode="T" horiz-adv-x="1200" 
d="M1171 1171h-409v-1171h-324v1171h-407v263h1140v-263z" />
    <glyph glyph-name="U" unicode="U" horiz-adv-x="1481" 
d="M1333 621q0 -646 -602 -646q-584 0 -584 631v828h324v-832q0 -348 272 -348q267 0 267 336v844h323v-813z" />
    <glyph glyph-name="V" unicode="V" horiz-adv-x="1366" 
d="M1358 1434l-494 -1434h-366l-488 1434h348l299 -998q24 -81 29 -143h6q7 67 31 147l297 994h338z" />
    <glyph glyph-name="W" unicode="W" horiz-adv-x="2058" 
d="M2040 1434l-379 -1434h-358l-238 920q-19 72 -23 161h-4q-9 -98 -26 -161l-244 -920h-373l-377 1434h353l202 -955q13 -61 19 -164h6q4 77 29 168l260 951h346l235 -963q13 -53 23 -154h4q4 79 21 160l198 957h326z" />
    <glyph glyph-name="X" unicode="X" horiz-adv-x="1342" 
d="M1335 0h-383l-247 467q-14 26 -29 96h-4q-7 -33 -33 -100l-248 -463h-385l457 717l-418 717h393l205 -430q24 -51 43 -121h4q12 42 45 125l228 426h360l-430 -711z" />
    <glyph glyph-name="Y" unicode="Y" horiz-adv-x="1243" 
d="M1245 1434l-467 -924v-510h-323v504l-455 930h369l231 -535q6 -15 33 -117h4q13 72 31 113l235 539h342z" />
    <glyph glyph-name="Z" unicode="Z" horiz-adv-x="1243" 
d="M1196 0h-1155v186l735 985h-682v263h1100v-181l-719 -991h721v-262z" />
    <glyph glyph-name="Agrave" unicode="&#xc0;" horiz-adv-x="1440" 
d="M1425 0h-352l-102 319h-510l-101 -319h-350l522 1434h383zM897 567l-154 482q-17 54 -24 129h-8q-5 -63 -25 -125l-156 -486h367zM916 1567h-227l-314 323h281z" />
    <glyph glyph-name="Aacute" unicode="&#xc1;" horiz-adv-x="1440" 
d="M1425 0h-352l-102 319h-510l-101 -319h-350l522 1434h383zM897 567l-154 482q-17 54 -24 129h-8q-5 -63 -25 -125l-156 -486h367zM1036 1890l-313 -323h-228l260 323h281z" />
    <glyph glyph-name="Acircumflex" unicode="&#xc2;" horiz-adv-x="1440" 
d="M1425 0h-352l-102 319h-510l-101 -319h-350l522 1434h383zM897 567l-154 482q-17 54 -24 129h-8q-5 -63 -25 -125l-156 -486h367zM1078 1567h-207l-158 188l-147 -188h-207l235 325h248z" />
    <glyph glyph-name="Atilde" unicode="&#xc3;" horiz-adv-x="1440" 
d="M1425 0h-352l-102 319h-510l-101 -319h-350l522 1434h383zM897 567l-154 482q-17 54 -24 129h-8q-5 -63 -25 -125l-156 -486h367zM1077 1878q0 -140 -55.5 -216.5t-151.5 -76.5q-86 0 -168 43q-89 47 -123 47q-80 0 -80 -108h-141q0 139 55 216t154 77q81 0 168 -49
q79 -44 120 -44q78 0 78 111h144z" />
    <glyph glyph-name="Adieresis" unicode="&#xc4;" horiz-adv-x="1440" 
d="M1425 0h-352l-102 319h-510l-101 -319h-350l522 1434h383zM897 567l-154 482q-17 54 -24 129h-8q-5 -63 -25 -125l-156 -486h367zM945 1567q-67 0 -110 39t-43 98q0 61 43 99t110 38t110.5 -38.5t43.5 -98.5t-43 -98.5t-111 -38.5zM487 1567q-68 0 -111 39.5t-43 97.5
q0 60 44 98.5t110 38.5q68 0 110.5 -38.5t42.5 -98.5q0 -61 -42.5 -99t-110.5 -38z" />
    <glyph glyph-name="Aring" unicode="&#xc5;" horiz-adv-x="1440" 
d="M1425 0h-352l-102 319h-510l-101 -319h-350l512 1407q-53 54 -53 137q0 106 73.5 169t180.5 63q114 0 184 -63.5t70 -164.5q0 -80 -53 -137zM719 1645q-47 0 -75 -28.5t-28 -70.5q0 -98 103 -98q48 0 77 28.5t29 69.5q0 43 -29.5 71t-76.5 28zM893 584l-152 465
q-13 40 -22 120h-8q-7 -68 -23 -116l-153 -469h358z" />
    <glyph glyph-name="AE" unicode="&#xc6;" horiz-adv-x="1915" 
d="M1849 0h-858v319h-471l-147 -319h-375l725 1434h1094v-263h-504v-319h469v-262h-469v-328h536v-262zM991 567v604h-78l-282 -604h360z" />
    <glyph glyph-name="Ccedilla" unicode="&#xc7;" horiz-adv-x="1278" 
d="M1192 51q-157 -76 -410 -76q-330 0 -519 194t-189 517q0 344 212.5 558t551.5 214q210 0 354 -53v-311q-144 86 -328 86q-202 0 -326 -127t-124 -344q0 -208 117 -331.5t315 -123.5q189 0 346 92v-295zM610 -451v138q35 -6 72 -6q123 0 123 73q0 66 -111 66q-13 0 -37 -2
v182h172v-82q187 -8 187 -166q0 -207 -318 -207q-46 0 -88 4z" />
    <glyph glyph-name="Egrave" unicode="&#xc8;" horiz-adv-x="1090" 
d="M1024 0h-860v1434h827v-263h-504v-319h469v-262h-469v-328h537v-262zM766 1567h-227l-314 323h281z" />
    <glyph glyph-name="Eacute" unicode="&#xc9;" horiz-adv-x="1090" 
d="M1024 0h-860v1434h827v-263h-504v-319h469v-262h-469v-328h537v-262zM934 1890l-313 -323h-228l260 323h281z" />
    <glyph glyph-name="Ecircumflex" unicode="&#xca;" horiz-adv-x="1090" 
d="M1024 0h-860v1434h827v-263h-504v-319h469v-262h-469v-328h537v-262zM932 1567h-207l-158 188l-147 -188h-207l235 325h248z" />
    <glyph glyph-name="Edieresis" unicode="&#xcb;" horiz-adv-x="1090" 
d="M1024 0h-860v1434h827v-263h-504v-319h469v-262h-469v-328h537v-262zM812 1567q-67 0 -110 39t-43 98q0 61 43 99t110 38t110.5 -38.5t43.5 -98.5t-43 -98.5t-111 -38.5zM354 1567q-68 0 -111 39.5t-43 97.5q0 60 44 98.5t110 38.5q68 0 110.5 -38.5t42.5 -98.5
q0 -61 -42.5 -99t-110.5 -38z" />
    <glyph glyph-name="Igrave" unicode="&#xcc;" horiz-adv-x="649" 
d="M607 1434v-250h-120v-934h120v-250h-563v250h120v934h-120v250h563zM532 1567h-227l-314 323h281z" />
    <glyph glyph-name="Iacute" unicode="&#xcd;" horiz-adv-x="649" 
d="M607 1434v-250h-120v-934h120v-250h-563v250h120v934h-120v250h563zM651 1890l-313 -323h-228l260 323h281z" />
    <glyph glyph-name="Icircumflex" unicode="&#xce;" horiz-adv-x="649" 
d="M607 1434v-250h-120v-934h120v-250h-563v250h120v934h-120v250h563zM691 1567h-207l-158 188l-147 -188h-207l235 325h248z" />
    <glyph glyph-name="Idieresis" unicode="&#xcf;" horiz-adv-x="649" 
d="M607 1434v-250h-120v-934h120v-250h-563v250h120v934h-120v250h563zM559 1567q-67 0 -110 39t-43 98q0 61 43 99t110 38t110.5 -38.5t43.5 -98.5t-43 -98.5t-111 -38.5zM101 1567q-68 0 -111 39.5t-43 97.5q0 60 44 98.5t110 38.5q68 0 110.5 -38.5t42.5 -98.5
q0 -61 -42.5 -99t-110.5 -38z" />
    <glyph glyph-name="Ntilde" unicode="&#xd1;" horiz-adv-x="1618" 
d="M1454 0h-326l-591 901q-52 79 -72 119h-4q8 -76 8 -232v-788h-305v1434h348l569 -873q39 -59 72 -117h4q-8 50 -8 197v793h305v-1434zM1206 1878q0 -140 -55.5 -216.5t-151.5 -76.5q-86 0 -168 43q-89 47 -123 47q-80 0 -80 -108h-141q0 139 55 216t154 77q81 0 168 -49
q79 -44 120 -44q78 0 78 111h144z" />
    <glyph glyph-name="Ograve" unicode="&#xd2;" horiz-adv-x="1553" 
d="M770 -25q-308 0 -502 200.5t-194 522.5q0 340 197 550t522 210q307 0 496.5 -201t189.5 -530q0 -338 -196.5 -545t-512.5 -207zM784 1180q-170 0 -270 -127.5t-100 -337.5q0 -213 100 -337t262 -124q167 0 265 120.5t98 334.5q0 223 -95 347t-260 124zM971 1567h-227
l-314 323h281z" />
    <glyph glyph-name="Oacute" unicode="&#xd3;" horiz-adv-x="1553" 
d="M770 -25q-308 0 -502 200.5t-194 522.5q0 340 197 550t522 210q307 0 496.5 -201t189.5 -530q0 -338 -196.5 -545t-512.5 -207zM784 1180q-170 0 -270 -127.5t-100 -337.5q0 -213 100 -337t262 -124q167 0 265 120.5t98 334.5q0 223 -95 347t-260 124zM1110 1890
l-313 -323h-228l260 323h281z" />
    <glyph glyph-name="Ocircumflex" unicode="&#xd4;" horiz-adv-x="1553" 
d="M770 -25q-308 0 -502 200.5t-194 522.5q0 340 197 550t522 210q307 0 496.5 -201t189.5 -530q0 -338 -196.5 -545t-512.5 -207zM784 1180q-170 0 -270 -127.5t-100 -337.5q0 -213 100 -337t262 -124q167 0 265 120.5t98 334.5q0 223 -95 347t-260 124zM1149 1567h-207
l-158 188l-147 -188h-207l235 325h248z" />
    <glyph glyph-name="Otilde" unicode="&#xd5;" horiz-adv-x="1553" 
d="M770 -25q-308 0 -502 200.5t-194 522.5q0 340 197 550t522 210q307 0 496.5 -201t189.5 -530q0 -338 -196.5 -545t-512.5 -207zM784 1180q-170 0 -270 -127.5t-100 -337.5q0 -213 100 -337t262 -124q167 0 265 120.5t98 334.5q0 223 -95 347t-260 124zM1147 1878
q0 -140 -55.5 -216.5t-151.5 -76.5q-86 0 -168 43q-89 47 -123 47q-80 0 -80 -108h-141q0 139 55 216t154 77q81 0 168 -49q79 -44 120 -44q78 0 78 111h144z" />
    <glyph glyph-name="Odieresis" unicode="&#xd6;" horiz-adv-x="1553" 
d="M770 -25q-308 0 -502 200.5t-194 522.5q0 340 197 550t522 210q307 0 496.5 -201t189.5 -530q0 -338 -196.5 -545t-512.5 -207zM784 1180q-170 0 -270 -127.5t-100 -337.5q0 -213 100 -337t262 -124q167 0 265 120.5t98 334.5q0 223 -95 347t-260 124zM1004 1567
q-67 0 -110 39t-43 98q0 61 43 99t110 38t110.5 -38.5t43.5 -98.5t-43 -98.5t-111 -38.5zM546 1567q-68 0 -111 39.5t-43 97.5q0 60 44 98.5t110 38.5q68 0 110.5 -38.5t42.5 -98.5q0 -61 -42.5 -99t-110.5 -38z" />
    <glyph glyph-name="Oslash" unicode="&#xd8;" horiz-adv-x="1553" 
d="M348 109l-143 -170l-125 104l149 176q-155 192 -155 479q0 340 196.5 550t522.5 210q234 0 401 -119l129 150l125 -103l-135 -157q166 -196 166 -502q0 -338 -196.5 -545t-512.5 -207q-240 0 -422 134zM1016 1130q-97 76 -232 76q-181 0 -287 -136.5t-106 -360.5
q0 -146 47 -252zM1110 995l-578 -676q101 -92 244 -92q175 0 281 128.5t106 351.5q0 164 -53 288z" />
    <glyph glyph-name="OE" unicode="&#x152;" horiz-adv-x="1925" 
d="M1860 0h-828q-26 0 -117 -12q-90 -13 -157 -13q-307 0 -495.5 203t-188.5 520q0 342 194 551t516 209q63 0 151 -12q89 -12 109 -12h783v-263h-504v-323h469v-264h-469v-322h537v-262zM991 305v823q-86 52 -209 52q-168 0 -267 -129.5t-99 -339.5q0 -208 101 -332.5
t261 -124.5q116 0 213 51z" />
    <glyph glyph-name="Scaron" unicode="&#x160;" horiz-adv-x="1148" 
d="M98 55v320q87 -73 189 -109.5t206 -36.5q61 0 106.5 11t76 30.5t45.5 46t15 57.5q0 42 -24 75t-65.5 61t-98.5 54t-123 53q-168 70 -250.5 171t-82.5 244q0 112 45 192.5t122.5 132.5t179.5 76.5t216 24.5q112 0 198.5 -13.5t159.5 -41.5v-299q-36 25 -78.5 44
t-87.5 31.5t-89.5 18.5t-84.5 6q-55 0 -100 -10.5t-76 -29.5t-48 -45.5t-17 -59.5q0 -36 19 -64.5t54 -54t85 -50t113 -50.5q86 -36 154.5 -76.5t117.5 -91.5t75 -116.5t26 -152.5q0 -120 -45.5 -201.5t-123.5 -132t-181.5 -72.5t-218.5 -22q-118 0 -224.5 20t-184.5 60z
M973 1861l-238 -325h-248l-235 325h205l155 -188l156 188h205z" />
    <glyph glyph-name="Ugrave" unicode="&#xd9;" horiz-adv-x="1481" 
d="M1333 621q0 -646 -602 -646q-584 0 -584 631v828h324v-832q0 -348 272 -348q267 0 267 336v844h323v-813zM920 1567h-227l-314 323h281z" />
    <glyph glyph-name="Uacute" unicode="&#xda;" horiz-adv-x="1481" 
d="M1333 621q0 -646 -602 -646q-584 0 -584 631v828h324v-832q0 -348 272 -348q267 0 267 336v844h323v-813zM1088 1890l-313 -323h-228l260 323h281z" />
    <glyph glyph-name="Ucircumflex" unicode="&#xdb;" horiz-adv-x="1481" 
d="M1333 621q0 -646 -602 -646q-584 0 -584 631v828h324v-832q0 -348 272 -348q267 0 267 336v844h323v-813zM1099 1567h-207l-158 188l-147 -188h-207l235 325h248z" />
    <glyph glyph-name="Udieresis" unicode="&#xdc;" horiz-adv-x="1481" 
d="M1333 621q0 -646 -602 -646q-584 0 -584 631v828h324v-832q0 -348 272 -348q267 0 267 336v844h323v-813zM969 1567q-67 0 -110 39t-43 98q0 61 43 99t110 38t110.5 -38.5t43.5 -98.5t-43 -98.5t-111 -38.5zM511 1567q-68 0 -111 39.5t-43 97.5q0 60 44 98.5t110 38.5
q68 0 110.5 -38.5t42.5 -98.5q0 -61 -42.5 -99t-110.5 -38z" />
    <glyph glyph-name="Yacute" unicode="&#xdd;" horiz-adv-x="1243" 
d="M1245 1434l-467 -924v-510h-323v504l-455 930h369l231 -535q6 -15 33 -117h4q13 72 31 113l235 539h342zM903 1857l-313 -323h-228l260 323h281z" />
    <glyph glyph-name="Ydieresis" unicode="&#x178;" horiz-adv-x="1243" 
d="M1245 1434l-467 -924v-510h-323v504l-455 930h369l231 -535q6 -15 33 -117h4q13 72 31 113l235 539h342zM858 1567q-67 0 -110 39t-43 98q0 61 43 99t110 38t110.5 -38.5t43.5 -98.5t-43 -98.5t-111 -38.5zM400 1567q-68 0 -111 39.5t-43 97.5q0 60 44 98.5t110 38.5
q68 0 110.5 -38.5t42.5 -98.5q0 -61 -42.5 -99t-110.5 -38z" />
    <glyph glyph-name="Zcaron" unicode="&#x17d;" horiz-adv-x="1243" 
d="M1196 0h-1155v186l735 985h-682v263h1100v-181l-719 -991h721v-262zM990 1858l-238 -325h-248l-235 325h205l155 -188l156 188h205z" />
    <glyph glyph-name="Eth" unicode="&#xd0;" horiz-adv-x="1510" 
d="M164 0v586h-164v266h164v582h508q764 0 764 -699q0 -335 -208.5 -535t-555.5 -200h-508zM487 1171v-319h271v-266h-271v-324h160q210 0 329.5 126t119.5 343q0 205 -118.5 322.5t-332.5 117.5h-158z" />
    <glyph glyph-name="Thorn" unicode="&#xde;" horiz-adv-x="1258" 
d="M487 281v-281h-323v1434h323v-211h183q542 0 542 -457q0 -216 -155.5 -350.5t-415.5 -134.5h-154zM487 975v-447h127q258 0 258 226q0 221 -258 221h-127z" />
    <glyph glyph-name="a" unicode="a" horiz-adv-x="1102" 
d="M985 0h-299v147h-4q-103 -172 -305 -172q-149 0 -234.5 84.5t-85.5 225.5q0 298 353 344l278 37q0 168 -182 168q-183 0 -348 -109v238q66 34 180.5 60t208.5 26q438 0 438 -437v-612zM688 416v69l-186 -24q-154 -20 -154 -139q0 -54 37.5 -88.5t101.5 -34.5
q89 0 145 61.5t56 155.5z" />
    <glyph glyph-name="b" unicode="b" horiz-adv-x="1270" 
d="M453 119h-4v-119h-316v1516h316v-646h4q117 179 333 179q198 0 305 -136t107 -372q0 -256 -125 -411t-334 -155q-189 0 -286 144zM444 551v-105q0 -99 57 -164t146 -65q108 0 167.5 83.5t59.5 236.5q0 127 -54.5 198.5t-155.5 71.5q-95 0 -157.5 -71t-62.5 -185z" />
    <glyph glyph-name="c" unicode="c" horiz-adv-x="983" 
d="M909 37q-107 -62 -309 -62q-236 0 -382 143t-146 369q0 261 156.5 411.5t418.5 150.5q181 0 262 -48v-268q-99 74 -221 74q-136 0 -215.5 -79.5t-79.5 -219.5q0 -136 76 -213.5t209 -77.5q118 0 231 74v-254z" />
    <glyph glyph-name="d" unicode="d" horiz-adv-x="1268" 
d="M1135 0h-316v141h-4q-108 -166 -317 -166q-192 0 -309 135.5t-117 378.5q0 254 129 407t338 153q198 0 276 -142h4v609h316v-1516zM825 498v77q0 100 -58 166t-151 66q-105 0 -164 -82.5t-59 -226.5q0 -135 57 -208t158 -73q96 0 156.5 77t60.5 204z" />
    <glyph glyph-name="e" unicode="e" horiz-adv-x="1108" 
d="M1053 422h-668q16 -223 281 -223q169 0 297 80v-228q-142 -76 -369 -76q-248 0 -385 137.5t-137 383.5q0 255 148 404t364 149q224 0 346.5 -133t122.5 -361v-133zM760 616q0 220 -178 220q-76 0 -131.5 -63t-67.5 -157h377z" />
    <glyph glyph-name="f" unicode="f" horiz-adv-x="785" 
d="M801 1274q-61 24 -117 24q-152 0 -152 -165v-109h234v-233h-234v-791h-315v791h-172v233h172v127q0 175 114 282t310 107q96 0 160 -20v-246z" />
    <glyph glyph-name="g" unicode="g" horiz-adv-x="1268" 
d="M1137 117q0 -285 -165 -441.5t-478 -156.5q-207 0 -328 59v266q158 -92 319 -92q160 0 248 84.5t88 229.5v81h-4q-108 -172 -319 -172q-196 0 -311 138t-115 370q0 260 128 413t337 153q187 0 280 -144h4v119h316v-907zM825 492v81q0 97 -57.5 165.5t-149.5 68.5
q-105 0 -165 -82t-60 -231q0 -128 57 -202.5t156 -74.5q98 0 158.5 75.5t60.5 199.5z" />
    <glyph glyph-name="h" unicode="h" horiz-adv-x="1233" 
d="M1116 0h-315v582q0 225 -164 225q-84 0 -136 -63t-52 -160v-584h-316v1516h316v-644h4q116 177 315 177q348 0 348 -420v-629z" />
    <glyph glyph-name="i" unicode="i" horiz-adv-x="582" 
d="M293 1186q-80 0 -131 47.5t-51 116.5q0 71 51 116t131 45q81 0 131.5 -45t50.5 -116q0 -72 -50.5 -118t-131.5 -46zM449 0h-316v1024h316v-1024z" />
    <glyph glyph-name="j" unicode="j" horiz-adv-x="582" 
d="M293 1186q-80 0 -131 47.5t-51 116.5q0 71 51 116t131 45q81 0 131.5 -45t50.5 -116q0 -72 -50.5 -118t-131.5 -46zM449 18q0 -227 -111 -363t-320 -136q-69 0 -151 30v248q66 -37 117 -37q149 0 149 234v1030h316v-1006z" />
    <glyph glyph-name="k" unicode="k" horiz-adv-x="1145" 
d="M1159 0h-379l-327 508h-4v-508h-316v1516h316v-965h4l305 473h375l-367 -481z" />
    <glyph glyph-name="l" unicode="l" horiz-adv-x="582" 
d="M449 0h-316v1516h316v-1516z" />
    <glyph glyph-name="m" unicode="m" horiz-adv-x="1876" 
d="M1759 0h-315v584q0 223 -164 223q-78 0 -127 -67t-49 -167v-573h-316v590q0 217 -161 217q-81 0 -129.5 -64t-48.5 -174v-569h-316v1024h316v-160h4q49 82 137.5 133.5t193.5 51.5q217 0 297 -191q117 191 344 191q334 0 334 -412v-637z" />
    <glyph glyph-name="n" unicode="n" horiz-adv-x="1239" 
d="M1122 0h-315v569q0 238 -170 238q-82 0 -135 -63t-53 -160v-584h-316v1024h316v-162h4q113 187 329 187q340 0 340 -422v-627z" />
    <glyph glyph-name="o" unicode="o" horiz-adv-x="1252" 
d="M621 -25q-256 0 -402.5 143.5t-146.5 389.5q0 254 152 397.5t411 143.5q255 0 400 -143.5t145 -379.5q0 -255 -149.5 -403t-409.5 -148zM629 807q-112 0 -174 -77t-62 -218q0 -295 238 -295q227 0 227 303q0 287 -229 287z" />
    <glyph glyph-name="p" unicode="p" horiz-adv-x="1270" 
d="M453 119h-4v-590h-316v1495h316v-154h4q117 179 329 179q199 0 307.5 -136.5t108.5 -371.5q0 -256 -126.5 -411t-336.5 -155q-185 0 -282 144zM444 539v-82q0 -106 56 -173t147 -67q108 0 167.5 83.5t59.5 236.5q0 270 -210 270q-97 0 -158.5 -73.5t-61.5 -194.5z" />
    <glyph glyph-name="q" unicode="q" horiz-adv-x="1268" 
d="M1135 -471h-316v612h-4q-107 -166 -315 -166q-193 0 -310.5 134.5t-117.5 377.5q0 256 129 409t336 153q188 0 278 -144h4v119h316v-1495zM825 489v82q0 100 -58 168t-149 68q-105 0 -165 -82.5t-60 -228.5q0 -131 58.5 -205t152.5 -74q100 0 160.5 75t60.5 197z" />
    <glyph glyph-name="r" unicode="r" horiz-adv-x="815" 
d="M801 739q-57 31 -133 31q-103 0 -161 -75.5t-58 -205.5v-489h-316v1024h316v-190h4q75 208 270 208q50 0 78 -12v-291z" />
    <glyph glyph-name="s" unicode="s" horiz-adv-x="901" 
d="M66 27v256q78 -47 155.5 -70t146.5 -23q84 0 132.5 23t48.5 70q0 30 -22 50t-56.5 35t-75.5 27t-79 27q-61 23 -107.5 49.5t-78 61.5t-48 81t-16.5 109q0 86 37.5 148t100 101.5t143 58t167.5 18.5q68 0 138 -10.5t138 -30.5v-244q-60 35 -128.5 52.5t-134.5 17.5
q-31 0 -58.5 -5.5t-48.5 -16t-33 -27t-12 -37.5q0 -28 18 -48t47 -34.5t64.5 -26l70.5 -23.5q63 -22 114 -48t87.5 -61t56 -82t19.5 -112q0 -91 -39.5 -155.5t-105 -105t-151 -59t-177.5 -18.5q-169 0 -313 52z" />
    <glyph glyph-name="t" unicode="t" horiz-adv-x="797" 
d="M752 12q-70 -37 -211 -37q-334 0 -334 347v469h-166v233h166v221l315 90v-311h230v-233h-230v-414q0 -160 127 -160q50 0 103 29v-234z" />
    <glyph glyph-name="u" unicode="u" horiz-adv-x="1239" 
d="M1106 0h-315v156h-5q-117 -181 -313 -181q-356 0 -356 431v618h315v-590q0 -217 172 -217q85 0 136 59.5t51 161.5v586h315v-1024z" />
    <glyph glyph-name="v" unicode="v" horiz-adv-x="1110" 
d="M1108 1024l-381 -1024h-360l-363 1024h338l178 -631q30 -107 35 -182h4q7 71 37 176l182 637h330z" />
    <glyph glyph-name="w" unicode="w" horiz-adv-x="1633" 
d="M1616 1024l-295 -1024h-332l-151 600q-15 60 -17 131h-6q-7 -78 -20 -127l-162 -604h-328l-289 1024h322l141 -668q10 -47 15 -114h6q5 70 18 118l176 664h301l158 -668q6 -25 14 -116h7q5 58 16 116l133 668h293z" />
    <glyph glyph-name="x" unicode="x" horiz-adv-x="1131" 
d="M1122 1024l-338 -496l336 -528h-364l-148 276q-18 33 -43 93h-4q-15 -42 -41 -90l-149 -279h-363l346 510l-325 514h366l146 -287q29 -57 41 -96h4q16 47 43 98l149 285h344z" />
    <glyph glyph-name="y" unicode="y" horiz-adv-x="1102" 
d="M1108 1024l-416 -1106q-150 -399 -452 -399q-115 0 -189 26v252q63 -37 137 -37q122 0 170 115l54 127l-416 1022h350l191 -623q18 -58 28 -137h4q9 58 33 135l193 625h313z" />
    <glyph glyph-name="z" unicode="z" horiz-adv-x="981" 
d="M944 0h-919v131l514 660h-463v233h864v-156l-487 -635h491v-233z" />
    <glyph glyph-name="agrave" unicode="&#xe0;" horiz-adv-x="1102" 
d="M985 0h-299v147h-4q-103 -172 -305 -172q-149 0 -234.5 84.5t-85.5 225.5q0 298 353 344l278 37q0 168 -182 168q-183 0 -348 -109v238q66 34 180.5 60t208.5 26q438 0 438 -437v-612zM688 416v69l-186 -24q-154 -20 -154 -139q0 -54 37.5 -88.5t101.5 -34.5
q89 0 145 61.5t56 155.5zM775 1186h-227l-314 323h281z" />
    <glyph glyph-name="aacute" unicode="&#xe1;" horiz-adv-x="1102" 
d="M985 0h-299v147h-4q-103 -172 -305 -172q-149 0 -234.5 84.5t-85.5 225.5q0 298 353 344l278 37q0 168 -182 168q-183 0 -348 -109v238q66 34 180.5 60t208.5 26q438 0 438 -437v-612zM688 416v69l-186 -24q-154 -20 -154 -139q0 -54 37.5 -88.5t101.5 -34.5
q89 0 145 61.5t56 155.5zM891 1509l-313 -323h-228l260 323h281z" />
    <glyph glyph-name="acircumflex" unicode="&#xe2;" horiz-adv-x="1102" 
d="M985 0h-299v147h-4q-103 -172 -305 -172q-149 0 -234.5 84.5t-85.5 225.5q0 298 353 344l278 37q0 168 -182 168q-183 0 -348 -109v238q66 34 180.5 60t208.5 26q438 0 438 -437v-612zM688 416v69l-186 -24q-154 -20 -154 -139q0 -54 37.5 -88.5t101.5 -34.5
q89 0 145 61.5t56 155.5zM914 1186h-207l-158 188l-147 -188h-207l235 325h248z" />
    <glyph glyph-name="atilde" unicode="&#xe3;" horiz-adv-x="1102" 
d="M985 0h-299v147h-4q-103 -172 -305 -172q-149 0 -234.5 84.5t-85.5 225.5q0 298 353 344l278 37q0 168 -182 168q-183 0 -348 -109v238q66 34 180.5 60t208.5 26q438 0 438 -437v-612zM688 416v69l-186 -24q-154 -20 -154 -139q0 -54 37.5 -88.5t101.5 -34.5
q89 0 145 61.5t56 155.5zM907 1497q0 -140 -55.5 -216.5t-151.5 -76.5q-86 0 -168 43q-89 47 -123 47q-80 0 -80 -108h-141q0 139 55 216t154 77q81 0 168 -49q79 -44 120 -44q78 0 78 111h144z" />
    <glyph glyph-name="adieresis" unicode="&#xe4;" horiz-adv-x="1102" 
d="M985 0h-299v147h-4q-103 -172 -305 -172q-149 0 -234.5 84.5t-85.5 225.5q0 298 353 344l278 37q0 168 -182 168q-183 0 -348 -109v238q66 34 180.5 60t208.5 26q438 0 438 -437v-612zM688 416v69l-186 -24q-154 -20 -154 -139q0 -54 37.5 -88.5t101.5 -34.5
q89 0 145 61.5t56 155.5zM787 1186q-67 0 -110 39t-43 98q0 61 43 99t110 38t110.5 -38.5t43.5 -98.5t-43 -98.5t-111 -38.5zM329 1186q-68 0 -111 39.5t-43 97.5q0 60 44 98.5t110 38.5q68 0 110.5 -38.5t42.5 -98.5q0 -61 -42.5 -99t-110.5 -38z" />
    <glyph glyph-name="aring" unicode="&#xe5;" horiz-adv-x="1102" 
d="M985 0h-299v147h-4q-103 -172 -305 -172q-149 0 -234.5 84.5t-85.5 225.5q0 298 353 344l278 37q0 168 -182 168q-183 0 -348 -109v238q66 34 180.5 60t208.5 26q438 0 438 -437v-612zM688 416v69l-186 -24q-154 -20 -154 -139q0 -54 37.5 -88.5t101.5 -34.5
q89 0 145 61.5t56 155.5zM573 1186q-102 0 -168.5 59.5t-66.5 155.5q0 101 69.5 161t170.5 60q107 0 173 -59.5t66 -155.5q0 -98 -71.5 -159.5t-172.5 -61.5zM573 1499q-96 0 -96 -94t96 -94q45 0 74 27.5t29 66.5q0 41 -28.5 67.5t-74.5 26.5z" />
    <glyph glyph-name="ae" unicode="&#xe6;" horiz-adv-x="1696" 
d="M1640 422h-667q20 -223 282 -223q160 0 297 80v-226q-156 -78 -378 -78q-269 0 -398 179h-4q-141 -179 -362 -179q-166 0 -259.5 82.5t-93.5 229.5q0 146 96.5 234t276.5 102l256 20q0 191 -184 191q-174 0 -344 -107v236q187 86 370 86q234 0 324 -134h4
q132 134 326 134q214 0 336 -133t122 -365v-129zM1348 616q0 220 -177 220q-75 0 -131.5 -62t-66.5 -158h375zM686 414v45l-156 -13q-184 -15 -184 -131q0 -50 39 -83t102 -33q86 0 142.5 59.5t56.5 155.5z" />
    <glyph glyph-name="ccedilla" unicode="&#xe7;" horiz-adv-x="983" 
d="M909 37q-107 -62 -309 -62q-236 0 -382 143t-146 369q0 261 156.5 411.5t418.5 150.5q181 0 262 -48v-268q-99 74 -221 74q-136 0 -215.5 -79.5t-79.5 -219.5q0 -136 76 -213.5t209 -77.5q118 0 231 74v-254zM426 -451v138q35 -6 72 -6q123 0 123 73q0 66 -111 66
q-13 0 -37 -2v182h172v-82q187 -8 187 -166q0 -207 -318 -207q-46 0 -88 4z" />
    <glyph glyph-name="egrave" unicode="&#xe8;" horiz-adv-x="1108" 
d="M1053 422h-668q16 -223 281 -223q169 0 297 80v-228q-142 -76 -369 -76q-248 0 -385 137.5t-137 383.5q0 255 148 404t364 149q224 0 346.5 -133t122.5 -361v-133zM760 616q0 220 -178 220q-76 0 -131.5 -63t-67.5 -157h377zM795 1186h-227l-314 323h281z" />
    <glyph glyph-name="eacute" unicode="&#xe9;" horiz-adv-x="1108" 
d="M1053 422h-668q16 -223 281 -223q169 0 297 80v-228q-142 -76 -369 -76q-248 0 -385 137.5t-137 383.5q0 255 148 404t364 149q224 0 346.5 -133t122.5 -361v-133zM760 616q0 220 -178 220q-76 0 -131.5 -63t-67.5 -157h377zM921 1509l-313 -323h-228l260 323h281z" />
    <glyph glyph-name="ecircumflex" unicode="&#xea;" horiz-adv-x="1108" 
d="M1053 422h-668q16 -223 281 -223q169 0 297 80v-228q-142 -76 -369 -76q-248 0 -385 137.5t-137 383.5q0 255 148 404t364 149q224 0 346.5 -133t122.5 -361v-133zM760 616q0 220 -178 220q-76 0 -131.5 -63t-67.5 -157h377zM949 1186h-207l-158 188l-147 -188h-207
l235 325h248z" />
    <glyph glyph-name="edieresis" unicode="&#xeb;" horiz-adv-x="1108" 
d="M1053 422h-668q16 -223 281 -223q169 0 297 80v-228q-142 -76 -369 -76q-248 0 -385 137.5t-137 383.5q0 255 148 404t364 149q224 0 346.5 -133t122.5 -361v-133zM760 616q0 220 -178 220q-76 0 -131.5 -63t-67.5 -157h377zM808 1186q-67 0 -110 39t-43 98q0 61 43 99
t110 38t110.5 -38.5t43.5 -98.5t-43 -98.5t-111 -38.5zM350 1186q-68 0 -111 39.5t-43 97.5q0 60 44 98.5t110 38.5q68 0 110.5 -38.5t42.5 -98.5q0 -61 -42.5 -99t-110.5 -38z" />
    <glyph glyph-name="igrave" unicode="&#xec;" horiz-adv-x="582" 
d="M449 0h-316v1024h316v-1024zM514 1186h-227l-314 323h281z" />
    <glyph glyph-name="iacute" unicode="&#xed;" horiz-adv-x="582" 
d="M449 0h-316v1024h316v-1024zM612 1509l-313 -323h-228l260 323h281z" />
    <glyph glyph-name="icircumflex" unicode="&#xee;" horiz-adv-x="582" 
d="M449 0h-316v1024h316v-1024zM657 1186h-207l-158 188l-147 -188h-207l235 325h248z" />
    <glyph glyph-name="idieresis" unicode="&#xef;" horiz-adv-x="582" 
d="M449 0h-316v1024h316v-1024zM526 1186q-67 0 -110 39t-43 98q0 61 43 99t110 38t110.5 -38.5t43.5 -98.5t-43 -98.5t-111 -38.5zM68 1186q-68 0 -111 39.5t-43 97.5q0 60 44 98.5t110 38.5q68 0 110.5 -38.5t42.5 -98.5q0 -61 -42.5 -99t-110.5 -38z" />
    <glyph glyph-name="ntilde" unicode="&#xf1;" horiz-adv-x="1239" 
d="M1122 0h-315v569q0 238 -170 238q-82 0 -135 -63t-53 -160v-584h-316v1024h316v-162h4q113 187 329 187q340 0 340 -422v-627zM982 1497q0 -140 -55.5 -216.5t-151.5 -76.5q-86 0 -168 43q-89 47 -123 47q-80 0 -80 -108h-141q0 139 55 216t154 77q81 0 168 -49
q79 -44 120 -44q78 0 78 111h144z" />
    <glyph glyph-name="ograve" unicode="&#xf2;" horiz-adv-x="1252" 
d="M621 -25q-256 0 -402.5 143.5t-146.5 389.5q0 254 152 397.5t411 143.5q255 0 400 -143.5t145 -379.5q0 -255 -149.5 -403t-409.5 -148zM629 807q-112 0 -174 -77t-62 -218q0 -295 238 -295q227 0 227 303q0 287 -229 287zM852 1186h-227l-314 323h281z" />
    <glyph glyph-name="oacute" unicode="&#xf3;" horiz-adv-x="1252" 
d="M621 -25q-256 0 -402.5 143.5t-146.5 389.5q0 254 152 397.5t411 143.5q255 0 400 -143.5t145 -379.5q0 -255 -149.5 -403t-409.5 -148zM629 807q-112 0 -174 -77t-62 -218q0 -295 238 -295q227 0 227 303q0 287 -229 287zM968 1509l-313 -323h-228l260 323h281z" />
    <glyph glyph-name="ocircumflex" unicode="&#xf4;" horiz-adv-x="1252" 
d="M621 -25q-256 0 -402.5 143.5t-146.5 389.5q0 254 152 397.5t411 143.5q255 0 400 -143.5t145 -379.5q0 -255 -149.5 -403t-409.5 -148zM629 807q-112 0 -174 -77t-62 -218q0 -295 238 -295q227 0 227 303q0 287 -229 287zM988 1186h-207l-158 188l-147 -188h-207
l235 325h248z" />
    <glyph glyph-name="otilde" unicode="&#xf5;" horiz-adv-x="1252" 
d="M621 -25q-256 0 -402.5 143.5t-146.5 389.5q0 254 152 397.5t411 143.5q255 0 400 -143.5t145 -379.5q0 -255 -149.5 -403t-409.5 -148zM629 807q-112 0 -174 -77t-62 -218q0 -295 238 -295q227 0 227 303q0 287 -229 287zM985 1497q0 -140 -55.5 -216.5t-151.5 -76.5
q-86 0 -168 43q-89 47 -123 47q-80 0 -80 -108h-141q0 139 55 216t154 77q81 0 168 -49q79 -44 120 -44q78 0 78 111h144z" />
    <glyph glyph-name="odieresis" unicode="&#xf6;" horiz-adv-x="1252" 
d="M621 -25q-256 0 -402.5 143.5t-146.5 389.5q0 254 152 397.5t411 143.5q255 0 400 -143.5t145 -379.5q0 -255 -149.5 -403t-409.5 -148zM629 807q-112 0 -174 -77t-62 -218q0 -295 238 -295q227 0 227 303q0 287 -229 287zM859 1186q-67 0 -110 39t-43 98q0 61 43 99
t110 38t110.5 -38.5t43.5 -98.5t-43 -98.5t-111 -38.5zM401 1186q-68 0 -111 39.5t-43 97.5q0 60 44 98.5t110 38.5q68 0 110.5 -38.5t42.5 -98.5q0 -61 -42.5 -99t-110.5 -38z" />
    <glyph glyph-name="oslash" unicode="&#xf8;" horiz-adv-x="1252" 
d="M1206 1010l-139 -146q113 -143 113 -338q0 -259 -148 -404t-411 -145q-198 0 -328 86l-135 -141l-119 107l137 143q-104 141 -104 338q0 253 152.5 397t412.5 144q179 0 311 -82l139 147zM772 791q-56 40 -141 40q-258 0 -258 -317q0 -73 18 -121zM862 651l-393 -409
q61 -45 160 -45q252 0 252 323q0 74 -19 131z" />
    <glyph glyph-name="oe" unicode="&#x153;" horiz-adv-x="1893" 
d="M1837 422h-670q14 -223 283 -223q167 0 295 80v-228q-142 -76 -346 -76q-252 0 -391 189h-4q-137 -187 -408 -187q-234 0 -379 143t-145 388q0 251 147 397t389 146q134 0 238.5 -49.5t154.5 -127.5h5q118 175 376 175q213 0 334 -134t121 -358v-135zM1542 616
q0 220 -174 220q-80 0 -135 -63.5t-66 -156.5h375zM631 807q-113 0 -175.5 -77.5t-62.5 -217.5q0 -293 236 -293q229 0 229 297q0 138 -59.5 214.5t-167.5 76.5z" />
    <glyph glyph-name="scaron" unicode="&#x161;" horiz-adv-x="901" 
d="M66 27v256q78 -47 155.5 -70t146.5 -23q84 0 132.5 23t48.5 70q0 30 -22 50t-56.5 35t-75.5 27t-79 27q-61 23 -107.5 49.5t-78 61.5t-48 81t-16.5 109q0 86 37.5 148t100 101.5t143 58t167.5 18.5q68 0 138 -10.5t138 -30.5v-244q-60 35 -128.5 52.5t-134.5 17.5
q-31 0 -58.5 -5.5t-48.5 -16t-33 -27t-12 -37.5q0 -28 18 -48t47 -34.5t64.5 -26l70.5 -23.5q63 -22 114 -48t87.5 -61t56 -82t19.5 -112q0 -91 -39.5 -155.5t-105 -105t-151 -59t-177.5 -18.5q-169 0 -313 52zM811 1511l-238 -325h-248l-235 325h205l155 -188l156 188h205z
" />
    <glyph glyph-name="germandbls" unicode="&#xdf;" horiz-adv-x="1286" 
d="M545 8v262q83 -53 176 -53q83 0 132.5 52.5t49.5 144.5q0 116 -89 183.5t-251 72.5v221q111 8 172.5 68t61.5 159q0 84 -44.5 132t-119.5 48q-184 0 -184 -245v-1053h-316v1049q0 223 137 357t381 134q217 0 343 -109.5t126 -281.5q0 -122 -71.5 -214t-184.5 -126v-4
q363 -69 363 -399q0 -180 -126.5 -305.5t-342.5 -125.5q-105 0 -213 33z" />
    <glyph glyph-name="ugrave" unicode="&#xf9;" horiz-adv-x="1239" 
d="M1106 0h-315v156h-5q-117 -181 -313 -181q-356 0 -356 431v618h315v-590q0 -217 172 -217q85 0 136 59.5t51 161.5v586h315v-1024zM784 1186h-227l-314 323h281z" />
    <glyph glyph-name="uacute" unicode="&#xfa;" horiz-adv-x="1239" 
d="M1106 0h-315v156h-5q-117 -181 -313 -181q-356 0 -356 431v618h315v-590q0 -217 172 -217q85 0 136 59.5t51 161.5v586h315v-1024zM977 1509l-313 -323h-228l260 323h281z" />
    <glyph glyph-name="ucircumflex" unicode="&#xfb;" horiz-adv-x="1239" 
d="M1106 0h-315v156h-5q-117 -181 -313 -181q-356 0 -356 431v618h315v-590q0 -217 172 -217q85 0 136 59.5t51 161.5v586h315v-1024zM970 1186h-207l-158 188l-147 -188h-207l235 325h248z" />
    <glyph glyph-name="udieresis" unicode="&#xfc;" horiz-adv-x="1239" 
d="M1106 0h-315v156h-5q-117 -181 -313 -181q-356 0 -356 431v618h315v-590q0 -217 172 -217q85 0 136 59.5t51 161.5v586h315v-1024zM844 1186q-67 0 -110 39t-43 98q0 61 43 99t110 38t110.5 -38.5t43.5 -98.5t-43 -98.5t-111 -38.5zM386 1186q-68 0 -111 39.5t-43 97.5
q0 60 44 98.5t110 38.5q68 0 110.5 -38.5t42.5 -98.5q0 -61 -42.5 -99t-110.5 -38z" />
    <glyph glyph-name="yacute" unicode="&#xfd;" horiz-adv-x="1102" 
d="M1108 1024l-416 -1106q-150 -399 -452 -399q-115 0 -189 26v252q63 -37 137 -37q122 0 170 115l54 127l-416 1022h350l191 -623q18 -58 28 -137h4q9 58 33 135l193 625h313zM834 1509l-313 -323h-228l260 323h281z" />
    <glyph glyph-name="ydieresis" unicode="&#xff;" horiz-adv-x="1102" 
d="M1108 1024l-416 -1106q-150 -399 -452 -399q-115 0 -189 26v252q63 -37 137 -37q122 0 170 115l54 127l-416 1022h350l191 -623q18 -58 28 -137h4q9 58 33 135l193 625h313zM793 1186q-67 0 -110 39t-43 98q0 61 43 99t110 38t110.5 -38.5t43.5 -98.5t-43 -98.5
t-111 -38.5zM335 1186q-68 0 -111 39.5t-43 97.5q0 60 44 98.5t110 38.5q68 0 110.5 -38.5t42.5 -98.5q0 -61 -42.5 -99t-110.5 -38z" />
    <glyph glyph-name="zcaron" unicode="&#x17e;" horiz-adv-x="981" 
d="M944 0h-919v131l514 660h-463v233h864v-156l-487 -635h491v-233zM872 1511l-238 -325h-248l-235 325h205l155 -188l156 188h205z" />
    <glyph glyph-name="eth" unicode="&#xf0;" horiz-adv-x="1215" 
d="M756 965l4 2q-84 147 -195 237l-291 -143l-81 141l241 115q-157 125 -270 199h352q11 -6 131 -97l273 133l77 -137l-215 -104q361 -291 361 -748q0 -260 -150 -424t-395 -164q-248 0 -387 144.5t-139 394.5q0 231 132.5 378.5t346.5 147.5q117 0 205 -75zM612 807
q-103 0 -161 -78.5t-58 -214.5q0 -140 57 -218.5t158 -78.5q98 0 155.5 81.5t57.5 221.5q0 287 -209 287z" />
    <glyph glyph-name="thorn" unicode="&#xfe;" horiz-adv-x="1270" 
d="M453 119h-4v-590h-316v1987h316v-646h4q117 179 329 179q199 0 307.5 -136.5t108.5 -371.5q0 -256 -126.5 -411t-336.5 -155q-185 0 -282 144zM444 539v-82q0 -106 56 -173t147 -67q108 0 167.5 83.5t59.5 236.5q0 270 -210 270q-97 0 -158.5 -73.5t-61.5 -194.5z" />
    <glyph glyph-name="ampersand" unicode="&#x26;" horiz-adv-x="1740" 
d="M1479 -23q-53 0 -100.5 14t-90 38t-80.5 56.5t-72 69.5q-37 -30 -89 -62t-117.5 -57.5t-144.5 -42t-169 -16.5q-117 0 -216.5 28t-171.5 83.5t-112.5 137.5t-40.5 190q0 85 30.5 151.5t79.5 116.5t111 86t126 60q-31 24 -62.5 55.5t-56.5 69t-40.5 81.5t-15.5 93
q0 79 32 140t89.5 103t137.5 64t176 22q92 0 168.5 -23t131.5 -64t85 -98.5t30 -126.5q0 -111 -66.5 -192.5t-187.5 -132.5q48 -22 92 -50t86 -64t82 -81.5t79 -104.5q82 103 117.5 219.5t35.5 242.5q0 38 -4.5 73t-14.5 65h269q11 -32 16 -62t5 -71q0 -97 -20.5 -189
t-57.5 -176t-89.5 -159t-115.5 -140q49 -51 101 -78.5t98 -27.5q48 0 98 10.5t87 29.5v-238q-55 -22 -108.5 -32.5t-119.5 -10.5zM632 216q59 0 111 11.5t98 30.5t85.5 44t72.5 52q-51 80 -101 135.5t-99 95t-97.5 66.5t-97.5 49q-41 -20 -78.5 -44.5t-66.5 -57t-46.5 -74
t-17.5 -95.5q0 -48 17 -87t48.5 -67t75 -43.5t96.5 -15.5zM817 1124q0 29 -11 52t-30 38.5t-43 24t-51 8.5q-33 0 -60.5 -10t-48 -27t-31.5 -40.5t-11 -50.5q0 -56 35 -103t87 -76q33 12 62.5 28t52 38t36 51t13.5 67z" />
    <glyph glyph-name="comma" unicode="," horiz-adv-x="555" 
d="M432 252l-147 -506h-246l102 506h291z" />
    <glyph glyph-name="semicolon" unicode=";" horiz-adv-x="555" 
d="M281 707q-79 0 -131 48t-52 117q0 73 52.5 118.5t132.5 45.5q81 0 132.5 -46.5t51.5 -117.5q0 -73 -51 -119t-135 -46zM432 252l-147 -506h-246l102 506h291z" />
    <glyph glyph-name="colon" unicode=":" horiz-adv-x="555" 
d="M274 707q-78 0 -130 47.5t-52 117.5q0 72 53.5 118t133.5 46q81 0 132.5 -46.5t51.5 -117.5q0 -73 -52.5 -119t-136.5 -46zM274 -25q-78 0 -130 48t-52 118q0 72 53.5 118t133.5 46q81 0 132.5 -46.5t51.5 -117.5q0 -73 -52.5 -119.5t-136.5 -46.5z" />
    <glyph glyph-name="period" unicode="." horiz-adv-x="555" 
d="M274 -25q-78 0 -130 48t-52 118q0 72 53.5 118t133.5 46q81 0 132.5 -46.5t51.5 -117.5q0 -73 -52.5 -119.5t-136.5 -46.5z" />
    <glyph glyph-name="ellipsis" unicode="&#x2026;" horiz-adv-x="1868" 
d="M1554 -23q-78 0 -130 48t-52 118q0 72 52.5 118t131.5 46q81 0 133 -46.5t52 -117.5q0 -73 -51.5 -119.5t-135.5 -46.5zM932 -23q-78 0 -129 48t-51 118q0 72 51.5 118t130.5 46q81 0 132.5 -46.5t51.5 -117.5q0 -73 -51.5 -119.5t-134.5 -46.5zM309 -23q-78 0 -129 48
t-51 118q0 72 51.5 118t130.5 46q81 0 133 -46.5t52 -117.5q0 -73 -51.5 -119.5t-135.5 -46.5z" />
    <glyph glyph-name="exclam" unicode="!" horiz-adv-x="670" 
d="M500 1434l-39 -988h-256l-37 988h332zM336 -23q-80 0 -132 48.5t-52 117.5q0 72 52.5 118t131.5 46q80 0 131 -46.5t51 -117.5q0 -72 -50.5 -119t-131.5 -47z" />
    <glyph glyph-name="exclamdown" unicode="&#xa1;" horiz-adv-x="670" 
d="M336 721q-81 0 -132.5 46t-51.5 116q0 72 51.5 119t132.5 47q79 0 130.5 -48t51.5 -118q0 -72 -51.5 -117t-130.5 -45zM504 -408h-332l37 990h256z" />
    <glyph glyph-name="question" unicode="?" horiz-adv-x="897" 
d="M263 415q-10 26 -15.5 58.5t-5.5 61.5q0 46 9 84t27 71.5t45 64t63 60.5q38 32 66.5 59.5t48.5 55t30 57t10 65.5q0 31 -11 57.5t-31.5 45.5t-50 30t-65.5 11q-78 0 -162 -32.5t-159 -98.5v301q77 46 168 69t188 23q93 0 173 -20.5t139.5 -64.5t93 -112.5t33.5 -164.5
q0 -61 -14 -110.5t-41 -93.5t-67 -84.5t-92 -83.5q-35 -29 -61.5 -54t-44 -49.5t-26.5 -52t-9 -62.5q0 -24 6.5 -49t17.5 -42h-263zM409 -23q-80 0 -133 48q-53 50 -53 118q0 70 53 117t133 47q79 0 131 -47q52 -46 52 -117q0 -72 -51 -119q-52 -47 -132 -47z" />
    <glyph glyph-name="questiondown" unicode="&#xbf;" horiz-adv-x="897" 
d="M647 611q10 -26 15.5 -58.5t5.5 -61.5q0 -46 -9 -84t-27 -71.5t-45 -64t-63 -60.5q-37 -32 -66 -59.5t-49 -55t-30 -57t-10 -65.5q0 -31 11 -57.5t31.5 -45.5t50 -30t65.5 -11q78 0 162 32.5t159 98.5v-301q-77 -46 -168 -69t-188 -23q-93 0 -173 20.5t-139.5 64.5
t-93 112.5t-33.5 164.5q0 61 14 110.5t41 93.5t67 84.5t92 83.5q35 29 61.5 54t44 49.5t26.5 52t9 62.5q0 24 -6.5 49t-17.5 42h263zM501 1049q81 0 133 -48q53 -50 53 -118q0 -70 -53 -117t-133 -47q-79 0 -131 47q-52 46 -52 117q0 73 51 119q52 47 132 47z" />
    <glyph glyph-name="parenleft" unicode="(" horiz-adv-x="756" 
d="M739 -326h-258q-323 356 -323 875q0 501 323 885h256q-303 -402 -303 -885t305 -875z" />
    <glyph glyph-name="parenright" unicode=")" horiz-adv-x="756" 
d="M274 -326h-256q306 390 306 875q0 481 -306 885h258q324 -385 324 -885q0 -515 -326 -875z" />
    <glyph glyph-name="bracketleft" unicode="[" horiz-adv-x="756" 
d="M686 -326h-469v1760h469v-201h-209v-1358h209v-201z" />
    <glyph glyph-name="bracketright" unicode="]" horiz-adv-x="756" 
d="M541 -326h-471v201h211v1358h-211v201h471v-1760z" />
    <glyph glyph-name="braceleft" unicode="{" horiz-adv-x="756" 
d="M674 -326q-218 0 -317 80t-99 285v240q0 184 -152 184v184q152 0 152 191v223q0 206 98 289.5t318 83.5v-187q-160 0 -160 -174v-213q0 -240 -154 -303v-4q154 -62 154 -307v-205q0 -98 37.5 -139t122.5 -41v-187z" />
    <glyph glyph-name="braceright" unicode="}" horiz-adv-x="756" 
d="M651 463q-153 0 -153 -187v-231q0 -211 -97.5 -291t-316.5 -80v187q84 0 122 40.5t38 137.5v213q0 239 153 299v4q-153 63 -153 313v205q0 174 -160 174v187q218 0 316 -83.5t98 -285.5v-229q0 -189 153 -189v-184z" />
    <glyph glyph-name="bar" unicode="|" horiz-adv-x="668" 
d="M461 -481h-252v2048h252v-2048z" />
    <glyph glyph-name="slash" unicode="/" horiz-adv-x="908" 
d="M932 1434l-699 -1672h-282l696 1672h285z" />
    <glyph glyph-name="backslash" unicode="\" horiz-adv-x="893" 
d="M961 -238h-279l-682 1672h281z" />
    <glyph glyph-name="quotesingle" unicode="'" horiz-adv-x="600" 
d="M430 1452l-31 -442h-200l-29 442h260z" />
    <glyph glyph-name="quotedbl" unicode="&#x22;" horiz-adv-x="1010" 
d="M834 1452l-31 -444h-201l-31 444h263zM438 1452l-30 -442h-203l-29 442h262z" />
    <glyph glyph-name="quoteleft" unicode="&#x2018;" horiz-adv-x="594" 
d="M481 1468l-110 -444h-275l189 444h196z" />
    <glyph glyph-name="quoteright" unicode="&#x2019;" horiz-adv-x="594" 
d="M500 1468l-193 -444h-194l114 444h273z" />
    <glyph glyph-name="quotedblleft" unicode="&#x201c;" horiz-adv-x="1010" 
d="M897 1468l-113 -444h-272l190 444h195zM481 1468l-110 -444h-275l189 444h196z" />
    <glyph glyph-name="quotedblright" unicode="&#x201d;" horiz-adv-x="1010" 
d="M915 1468l-190 -444h-197l113 444h274zM500 1468l-193 -444h-194l114 444h273z" />
    <glyph glyph-name="quotesinglbase" unicode="&#x201a;" horiz-adv-x="594" 
d="M477 219l-192 -444h-195l115 444h272z" />
    <glyph glyph-name="quotedblbase" unicode="&#x201e;" horiz-adv-x="1010" 
d="M893 219l-193 -444h-194l112 444h275zM477 219l-192 -444h-195l115 444h272z" />
    <glyph glyph-name="guilsinglleft" unicode="&#x2039;" horiz-adv-x="705" 
d="M651 201h-268l-330 336l330 344h268l-334 -344z" />
    <glyph glyph-name="guilsinglright" unicode="&#x203a;" horiz-adv-x="705" 
d="M651 537l-329 -336h-269l334 336l-332 344h267z" />
    <glyph glyph-name="guillemotleft" unicode="&#xab;" horiz-adv-x="1190" 
d="M1137 201h-269l-327 336l327 344h269l-334 -344zM651 201h-268l-330 336l330 344h266l-334 -344z" />
    <glyph glyph-name="guillemotright" unicode="&#xbb;" horiz-adv-x="1190" 
d="M1137 537l-328 -336h-268l333 336l-331 344h266zM651 537l-329 -336h-269l336 336l-334 344h267z" />
    <glyph glyph-name="asterisk" unicode="*" horiz-adv-x="932" 
d="M864 1053l-274 -37l196 -211l-182 -125l-137 254l-137 -254l-183 125l197 211l-274 37l71 202l252 -108l-43 287h234l-43 -287l250 108z" />
    <glyph glyph-name="dagger" unicode="&#x2020;" horiz-adv-x="832" 
d="M798 868l-273 30l-45 -696h-129l-45 696l-273 -30v226l293 -30l-30 370h239l-30 -370l293 30v-226z" />
    <glyph glyph-name="daggerdbl" unicode="&#x2021;" horiz-adv-x="832" 
d="M798 482l-298 30l35 -310h-239l35 310l-298 -30v226l268 -30l33 140l-33 140l-268 -30v226l298 -30l-35 310h239l-35 -310l298 30v-226l-268 30l-33 -140l33 -140l268 30v-226z" />
    <glyph glyph-name="periodcentered" unicode="&#xb7;" horiz-adv-x="555" 
d="M274 487q-78 0 -130 48t-52 118q0 72 53.5 118t133.5 46q81 0 132.5 -46.5t51.5 -117.5q0 -73 -52.5 -119.5t-136.5 -46.5z" />
    <glyph glyph-name="bullet" unicode="&#x2022;" horiz-adv-x="865" 
d="M434 281q-113 0 -193.5 81t-80.5 195t80 194t194 80t195.5 -80.5t81.5 -193.5t-81.5 -194.5t-195.5 -81.5z" />
    <glyph glyph-name="at" unicode="@" horiz-adv-x="1954" 
d="M1122 371h-6q-70 -191 -254 -191q-138 0 -222.5 100t-84.5 277q0 229 117 372.5t282 143.5q149 0 187 -117h4l10 99h225q-45 -426 -45 -557q0 -140 76 -140q80 0 132 106t52 277q0 234 -149 383.5t-416 149.5q-286 0 -475.5 -199.5t-189.5 -486.5q0 -278 167.5 -438
t462.5 -160q225 0 412 86v-191q-171 -73 -440 -73q-369 0 -600.5 211.5t-231.5 568.5q0 364 247 612t636 248q360 0 582.5 -192.5t222.5 -507.5q0 -259 -136 -415.5t-337 -156.5q-99 0 -161 53t-67 138zM989 899q-90 0 -146.5 -102.5t-56.5 -237.5q0 -96 38.5 -149.5
t99.5 -53.5q94 0 148 101t54 270q0 80 -37.5 126t-99.5 46z" />
    <glyph glyph-name="copyright" unicode="&#xa9;" horiz-adv-x="1790" 
d="M893 -25q-333 0 -547.5 207t-214.5 531q0 317 220.5 531t549.5 214q328 0 544 -208.5t216 -532.5q0 -317 -221.5 -529.5t-546.5 -212.5zM897 1346q-275 0 -454 -180t-179 -449q0 -272 181.5 -450.5t451.5 -178.5q265 0 448 179.5t183 447.5q0 272 -180 451.5t-451 179.5z
M1204 295q-125 -68 -274 -68q-209 0 -346.5 134t-137.5 335q0 231 143.5 370.5t373.5 139.5q125 0 239 -55v-236q-98 76 -244 76q-115 0 -192.5 -76.5t-77.5 -205.5q0 -122 78.5 -197.5t198.5 -75.5q141 0 239 76v-217z" />
    <glyph glyph-name="registered" unicode="&#xae;" horiz-adv-x="1790" 
d="M893 -25q-333 0 -547.5 207t-214.5 531q0 317 220.5 531t549.5 214q328 0 544 -208.5t216 -532.5q0 -317 -221.5 -529.5t-546.5 -212.5zM897 1346q-275 0 -454 -180t-179 -449q0 -272 181.5 -450.5t451.5 -178.5q265 0 448 179.5t183 447.5q0 272 -180 451.5t-451 179.5z
M1288 264h-254l-76 232q-40 122 -110 122h-74v-354h-211v922h320q370 0 370 -262q0 -189 -217 -244v-4q90 -20 142 -146zM774 1010v-230h111q139 0 139 119q0 111 -160 111h-90z" />
    <glyph glyph-name="trademark" unicode="&#x2122;" horiz-adv-x="1579" 
d="M1395 772h-150v445h-4l-160 -445h-135l-145 445h-6v-445h-148v662h217l156 -453h4l168 453h203v-662zM582 1311h-179v-539h-155v539h-172v123h506v-123z" />
    <glyph glyph-name="section" unicode="&#xa7;" horiz-adv-x="994" 
d="M752 434q82 -75 82 -174q0 -149 -108.5 -237.5t-285.5 -88.5q-163 0 -290 68v248q180 -105 311 -105q127 0 127 99q0 61 -96 108q-141 65 -210 112.5t-110 116.5t-41 150q0 143 125 234q-88 88 -88 215q0 140 102.5 225.5t274.5 85.5q139 0 260 -55v-250q-139 96 -260 96
q-123 0 -123 -94q0 -45 40.5 -77.5t184.5 -96.5q254 -112 254 -309q0 -167 -149 -271zM432 864q-65 -38 -65 -110q0 -57 51 -102t178 -99q66 44 66 123q0 62 -53.5 100.5t-176.5 87.5z" />
    <glyph glyph-name="paragraph" unicode="&#xb6;" horiz-adv-x="1043" 
d="M946 1272h-117v-1272h-174v1272h-118v-1272h-177v836q-115 7 -191.5 92t-76.5 211q0 129 85.5 212t211.5 83h557v-162z" />
    <glyph glyph-name="hyphen" unicode="-" horiz-adv-x="828" 
d="M690 436h-547v221h547v-221z" />
    <glyph glyph-name="hyphen" unicode="&#xad;" horiz-adv-x="828" 
d="M690 436h-547v221h547v-221z" />
    <glyph glyph-name="endash" unicode="&#x2013;" horiz-adv-x="1024" 
d="M1024 436h-1024v221h1024v-221z" />
    <glyph glyph-name="emdash" unicode="&#x2014;" horiz-adv-x="2048" 
d="M2048 436h-2048v221h2048v-221z" />
    <glyph glyph-name="figuredash" unicode="&#x2012;" horiz-adv-x="1104" 
d="M1014 436h-924v221h924v-221z" />
    <glyph glyph-name="afii00208" unicode="&#x2015;" horiz-adv-x="2048" 
d="M2048 436h-2048v221h2048v-221z" />
    <glyph glyph-name="numbersign" unicode="#" horiz-adv-x="1213" 
d="M1176 1069l-39 -180h-185l-55 -248h207l-45 -180h-199l-78 -346h-200l73 346h-229l-74 -346h-200l71 346h-186l37 180h188l53 248h-202l34 180h205l74 356h205l-74 -356h229l76 356h203l-74 -356h185zM750 889h-232l-55 -248h231z" />
    <glyph glyph-name="zero" unicode="0" horiz-adv-x="1178" 
d="M582 -25q-512 0 -512 719q0 373 138.5 568.5t401.5 195.5q500 0 500 -731q0 -364 -136.5 -558t-391.5 -194zM596 1217q-205 0 -205 -515q0 -485 201 -485q196 0 196 500t-192 500z" />
    <glyph glyph-name="one" unicode="1" horiz-adv-x="1178" 
d="M1077 0h-907v250h297v893l-305 -66v256l620 125v-1208h295v-250z" />
    <glyph glyph-name="two" unicode="2" horiz-adv-x="1178" 
d="M471 268v-6h582v-262h-944v246l411 393q124 119 174.5 199.5t50.5 169.5q0 198 -213 198q-185 0 -354 -147v278q187 121 422 121q220 0 343.5 -110.5t123.5 -298.5q0 -251 -301 -519z" />
    <glyph glyph-name="three" unicode="3" horiz-adv-x="1178" 
d="M147 47v275q144 -105 336 -105q121 0 188.5 52t67.5 145q0 96 -83.5 148t-229.5 52h-129v242h119q280 0 280 186q0 175 -215 175q-144 0 -280 -93v258q151 76 352 76q220 0 342.5 -99t122.5 -257q0 -281 -285 -352v-5q152 -19 240 -110.5t88 -224.5q0 -201 -147 -318
t-406 -117q-222 0 -361 72z" />
    <glyph glyph-name="four" unicode="4" horiz-adv-x="1178" 
d="M1124 305h-172v-305h-288v305h-625v201l602 928h311v-904h172v-225zM668 1118h-6q-14 -36 -54 -112l-307 -476h363v451q0 60 4 137z" />
    <glyph glyph-name="five" unicode="5" horiz-adv-x="1178" 
d="M164 37v270q147 -90 313 -90q125 0 195.5 59.5t70.5 161.5q0 213 -301 213q-98 0 -237 -18v801h794v-258h-524v-287q63 6 119 6q221 0 346 -116t125 -312q0 -217 -149 -354.5t-404 -137.5q-207 0 -348 62z" />
    <glyph glyph-name="six" unicode="6" horiz-adv-x="1178" 
d="M1008 1419v-264q-109 62 -238 62q-159 0 -256.5 -121.5t-101.5 -325.5h6q103 152 301 152q180 0 285.5 -122t105.5 -323q0 -216 -140 -359t-356 -143q-242 0 -378 175t-136 491q0 372 175 594.5t475 222.5q166 0 258 -39zM612 688q-87 0 -138.5 -61t-51.5 -156
q0 -105 52.5 -179.5t139.5 -74.5q85 0 136 66.5t51 173.5q0 231 -189 231z" />
    <glyph glyph-name="seven" unicode="7" horiz-adv-x="1178" 
d="M1094 1288l-506 -1288h-334l510 1176h-668v258h998v-146z" />
    <glyph glyph-name="eight" unicode="8" horiz-adv-x="1178" 
d="M371 745v5q-246 101 -246 327q0 166 132 273.5t341 107.5q213 0 340 -100.5t127 -259.5q0 -235 -272 -346v-4q146 -43 226.5 -141.5t80.5 -221.5q0 -190 -140.5 -300t-392.5 -110q-218 0 -351.5 107.5t-133.5 284.5q0 257 289 378zM768 1071q0 73 -46.5 116.5
t-123.5 43.5q-75 0 -124.5 -45.5t-49.5 -116.5q0 -134 172 -203q172 71 172 205zM582 625q-201 -79 -201 -242q0 -78 61.5 -129t149.5 -51q95 0 153 50t58 132q0 164 -221 240z" />
    <glyph glyph-name="nine" unicode="9" horiz-adv-x="1178" 
d="M160 31v260q113 -74 272 -74q166 0 256.5 112.5t91.5 319.5l-6 2q-95 -141 -289 -141q-176 0 -291.5 123t-115.5 319q0 229 141 367.5t365 138.5q230 0 366.5 -174t136.5 -498q0 -384 -164.5 -597.5t-459.5 -213.5q-175 0 -303 56zM575 1217q-82 0 -135 -66.5t-53 -171.5
q0 -109 52.5 -171.5t142.5 -62.5q82 0 134 59.5t52 149.5q0 113 -54.5 188t-138.5 75z" />
    <glyph glyph-name="uni00B9" unicode="&#xb9;" horiz-adv-x="807" 
d="M721 584h-563v172h176v477l-191 -41v180l406 82v-698h172v-172z" />
    <glyph glyph-name="uni00B2" unicode="&#xb2;" horiz-adv-x="828" 
d="M721 584h-604v157l248 234q77 73 95.5 110t18.5 82q0 42 -28.5 69.5t-75.5 27.5q-98 0 -211 -103v215q118 78 250 78q136 0 215.5 -68.5t79.5 -189.5q0 -70 -37.5 -141t-179.5 -197l-105 -92v-4h334v-178z" />
    <glyph glyph-name="uni00B3" unicode="&#xb3;" horiz-adv-x="828" 
d="M131 616v181q107 -68 221 -68q150 0 150 102q0 103 -172 103h-117v166h113q149 0 149 96q0 90 -119 90q-107 0 -198 -65v176q99 57 239 57q134 0 211.5 -60.5t77.5 -160.5q0 -147 -143 -195v-4q172 -41 172 -198q0 -123 -98 -198t-257 -75q-133 0 -229 53z" />
    <glyph glyph-name="percent" unicode="%" horiz-adv-x="1776" 
d="M430 707q-153 0 -246.5 97t-93.5 261q0 179 99.5 284t265.5 105q159 0 248.5 -95t89.5 -267q0 -177 -99 -281t-264 -104zM449 1278q-146 0 -146 -203q0 -192 139 -192q142 0 142 200q0 195 -135 195zM1477 1434l-934 -1434h-244l932 1434h246zM1323 -20q-153 0 -246.5 97
t-93.5 261q0 179 99.5 284t265.5 105q160 0 249 -94t89 -266q0 -177 -99 -282t-264 -105zM1339 551q-145 0 -145 -203q0 -192 141 -192q142 0 142 200q0 93 -38 144t-100 51z" />
    <glyph glyph-name="perthousand" unicode="&#x2030;" horiz-adv-x="2573" 
d="M430 707q-153 0 -246.5 97t-93.5 261q0 179 99.5 284t265.5 105q159 0 248.5 -95t89.5 -267q0 -177 -99 -281t-264 -104zM449 1278q-146 0 -146 -203q0 -192 139 -192q142 0 142 200q0 195 -135 195zM1477 1434l-934 -1434h-244l934 1434h244zM2118 -20q-153 0 -246.5 97
t-93.5 261q0 179 99.5 284t264.5 105q161 0 250.5 -94t89.5 -266q0 -177 -99.5 -282t-264.5 -105zM2136 551q-145 0 -145 -203q0 -192 139 -192q143 0 143 200q0 93 -38 144t-99 51zM1323 -20q-153 0 -246.5 97t-93.5 261q0 179 99.5 284t265.5 105q160 0 249 -94t89 -266
q0 -177 -99 -282t-264 -105zM1339 551q-145 0 -145 -203q0 -192 141 -192q142 0 142 200q0 93 -38 144t-100 51z" />
    <glyph glyph-name="fraction" unicode="&#x2044;" horiz-adv-x="719" 
d="M932 1434l-891 -1434h-244l891 1434h244z" />
    <glyph glyph-name="fraction" unicode="&#x2215;" horiz-adv-x="719" 
d="M932 1434l-891 -1434h-244l891 1434h244z" />
    <glyph glyph-name="onequarter" unicode="&#xbc;" horiz-adv-x="1950" 
d="M676 584h-563v172h176v477l-191 -41v180l406 82v-698h172v-172zM1505 1434l-891 -1434h-244l891 1434h244zM1845 176h-110v-176h-213v176h-395v141l350 533h258v-519h110v-155zM1526 678h-8q-14 -36 -39 -76l-168 -271h211v263q0 47 4 84z" />
    <glyph glyph-name="onehalf" unicode="&#xbd;" horiz-adv-x="1977" 
d="M676 584h-563v172h176v477l-191 -41v180l406 82v-698h172v-172zM1506 1434l-891 -1434h-244l891 1434h244zM1843 0h-604v157l248 234q77 73 95.5 110t18.5 82q0 42 -28.5 69.5t-75.5 27.5q-98 0 -211 -103v215q118 78 250 78q136 0 215.5 -68.5t79.5 -189.5
q0 -70 -37.5 -141t-179.5 -197l-105 -92v-4h334v-178z" />
    <glyph glyph-name="threequarters" unicode="&#xbe;" horiz-adv-x="1950" 
d="M131 616v181q107 -68 221 -68q150 0 150 102q0 103 -172 103h-117v166h113q149 0 149 96q0 90 -119 90q-107 0 -198 -65v176q99 57 239 57q134 0 211.5 -60.5t77.5 -160.5q0 -147 -143 -195v-4q172 -41 172 -198q0 -123 -98 -198t-257 -75q-133 0 -229 53zM1565 1434
l-891 -1434h-244l891 1434h244zM1892 176h-110v-176h-213v176h-395v141l350 533h258v-519h110v-155zM1573 678h-8q-14 -36 -39 -76l-168 -271h211v263q0 47 4 84z" />
    <glyph glyph-name="plus" unicode="+" horiz-adv-x="1448" 
d="M1212 485h-385v-385h-202v385h-387v203h387v387h202v-387h385v-203z" />
    <glyph glyph-name="minus" unicode="&#x2212;" horiz-adv-x="1448" 
d="M1212 485h-974v203h974v-203z" />
    <glyph glyph-name="plusminus" unicode="&#xb1;" horiz-adv-x="1448" 
d="M1212 694h-385v-387h-202v387h-383v203h383v391h202v-391h385v-203zM1210 0h-972v203h972v-203z" />
    <glyph glyph-name="multiply" unicode="&#xd7;" horiz-adv-x="1448" 
d="M1210 248l-145 -144l-338 340l-340 -340l-145 146l340 336l-340 340l141 145l344 -340l342 340l139 -151l-338 -334z" />
    <glyph glyph-name="divide" unicode="&#xf7;" horiz-adv-x="1448" 
d="M731 846q-59 0 -100 40t-41 97q0 62 39.5 103.5t101.5 41.5t99.5 -40t37.5 -103q0 -61 -40.5 -100t-96.5 -39zM1212 485h-974v203h974v-203zM727 47q-59 0 -100 39t-41 96q0 62 39.5 104t101.5 42t99.5 -40.5t37.5 -103.5q0 -61 -40 -99t-97 -38z" />
    <glyph glyph-name="equal" unicode="=" horiz-adv-x="1448" 
d="M1212 700h-974v205h974v-205zM1212 266h-974v203h974v-203z" />
    <glyph glyph-name="less" unicode="&#x3c;" horiz-adv-x="1448" 
d="M1192 63l-934 426v162l934 447v-238l-666 -285v-6l666 -268v-238z" />
    <glyph glyph-name="greater" unicode="&#x3e;" horiz-adv-x="1448" 
d="M1192 502l-934 -426v237l668 267v4l-668 286v238l934 -444v-162z" />
    <glyph glyph-name="logicalnot" unicode="&#xac;" horiz-adv-x="1448" 
d="M1212 266h-202v389h-772v203h974v-592z" />
    <glyph glyph-name="degree" unicode="&#xb0;" horiz-adv-x="778" 
d="M399 895q-119 0 -201.5 82.5t-82.5 200.5t82.5 199t201.5 81q118 0 201.5 -81t83.5 -199t-83.5 -200.5t-201.5 -82.5zM399 1307q-54 0 -91.5 -37.5t-37.5 -91.5t37.5 -92.5t91.5 -38.5q53 0 91 38.5t38 92.5t-37.5 91.5t-91.5 37.5z" />
    <glyph glyph-name="asciicircum" unicode="^" horiz-adv-x="1448" 
d="M1249 610h-243l-287 586h-4l-271 -586h-241l430 848h162z" />
    <glyph glyph-name="asciitilde" unicode="~" horiz-adv-x="1448" 
d="M1255 772q-6 -168 -89.5 -266t-223.5 -98q-106 0 -258 88q-109 63 -156 63q-123 0 -129 -160h-204q6 169 89.5 267t227.5 98q112 0 238 -76q130 -78 180 -78q52 0 85.5 44.5t35.5 117.5h204z" />
    <glyph glyph-name="brokenbar" unicode="&#xa6;" horiz-adv-x="668" 
d="M461 684h-252v883h252v-883zM461 -481h-252v895h252v-895z" />
    <glyph glyph-name="underscore" unicode="_" horiz-adv-x="850" 
d="M850 -297h-850v119h850v-119z" />
    <glyph glyph-name="ordfeminine" unicode="&#xaa;" horiz-adv-x="840" 
d="M739 717h-213v86h-4q-87 -107 -219 -107q-101 0 -166 61t-65 158q0 211 262 244l192 25q0 114 -139 114q-118 0 -246 -77v176q124 57 287 57q311 0 311 -299v-438zM526 985v70l-123 -17q-116 -16 -116 -96q0 -88 104 -88q54 0 94.5 38.5t40.5 92.5z" />
    <glyph glyph-name="ordmasculine" unicode="&#xba;" horiz-adv-x="934" 
d="M459 696q-185 0 -287 99.5t-102 277.5q0 179 108.5 280t292.5 101q181 0 284 -101.5t103 -265.5q0 -184 -106.5 -287.5t-292.5 -103.5zM465 1280q-164 0 -164 -203q0 -207 164 -207q160 0 160 209q0 201 -160 201z" />
    <glyph glyph-name="currency" unicode="&#xa4;" horiz-adv-x="1139" 
d="M1087 358l-141 -145l-143 141q-105 -65 -234 -65q-127 0 -233 65l-143 -141l-142 145l142 138q-66 110 -66 229q0 121 66 229l-142 140l142 145l143 -141q106 65 233 65q129 0 234 -65l143 141l141 -145l-141 -140q68 -111 68 -229q0 -115 -68 -229zM569 965
q-100 0 -169.5 -69.5t-69.5 -168.5t69.5 -168.5t169.5 -69.5t171 69.5t71 168.5q0 98 -73 168t-169 70z" />
    <glyph glyph-name="Euro" unicode="&#x20ac;" horiz-adv-x="1178" 
d="M1094 45q-118 -72 -308 -72q-225 0 -367 124.5t-188 355.5h-122v190h96q-2 25 -2 59q0 18 4 82h-98v187h127q55 231 208 359t381 128q167 0 269 -55v-260q-112 88 -254 88q-110 0 -193.5 -71t-118.5 -189h426v-187h-456q-4 -59 -4 -82q0 -27 2 -59h458v-190h-428
q75 -252 299 -252q141 0 269 90v-246z" />
    <glyph glyph-name="dollar" unicode="$" horiz-adv-x="1178" 
d="M674 8v-217h-146v211q-203 1 -378 92v277q58 -47 173 -87t205 -46v364q-234 87 -319.5 188.5t-85.5 247.5q0 157 111 267.5t294 128.5v186h146v-182q211 -10 315 -68v-270q-140 85 -315 104v-379q219 -79 314 -180.5t95 -245.5q0 -166 -106 -267.5t-303 -123.5zM528 883
v317q-139 -25 -139 -145q0 -103 139 -172zM674 545v-303q143 22 143 143q0 98 -143 160z" />
    <glyph glyph-name="cent" unicode="&#xa2;" horiz-adv-x="1178" 
d="M1004 207q-73 -42 -181 -55v-189h-161v184q-216 12 -354 151.5t-138 358.5q0 234 134 381.5t358 171.5v211h161v-207q110 -6 181 -45v-272q-76 58 -181 70v-574q108 17 181 68v-254zM662 399v559q-195 -59 -195 -280q0 -222 195 -279z" />
    <glyph glyph-name="sterling" unicode="&#xa3;" horiz-adv-x="1178" 
d="M1114 0h-971v227q193 52 193 269v116h-172v217h172v187q0 198 122 320t330 122q127 0 234 -49v-258q-98 66 -209 66q-184 0 -184 -230v-158h268v-217h-268v-86q0 -184 -152 -284h637v-242z" />
    <glyph glyph-name="yen" unicode="&#xa5;" horiz-adv-x="1178" 
d="M1157 1434l-354 -641h252v-189h-305v-153h305v-189h-305v-262h-308v262h-315v189h315v153h-315v189h256l-342 641h321l246 -570h4q4 11 37 90l203 480h305z" />
    <glyph glyph-name="florin" unicode="&#x192;" horiz-adv-x="1178" 
d="M1044 1174q-64 30 -133 30q-124 0 -147 -137l-23 -137h158v-215h-192l-91 -594q-30 -196 -140 -311t-277 -115q-50 0 -121 20v242q39 -20 92 -20q123 0 154 202l88 576h-105v215h142l22 149q25 167 135 267t279 100q82 0 159 -23v-249z" />
    <glyph glyph-name="grave" unicode="`" horiz-adv-x="643" 
d="M596 1186h-227l-314 323h281z" />
    <glyph glyph-name="acute" unicode="&#xb4;" horiz-adv-x="621" 
d="M596 1509l-313 -323h-228l260 323h281z" />
    <glyph glyph-name="circumflex" unicode="&#x2c6;" horiz-adv-x="785" 
d="M750 1186h-207l-158 188l-147 -188h-207l235 325h248z" />
    <glyph glyph-name="caron" unicode="&#x2c7;" horiz-adv-x="785" 
d="M754 1511l-238 -325h-248l-235 325h205l155 -188l156 188h205z" />
    <glyph glyph-name="tilde" unicode="&#x2dc;" horiz-adv-x="785" 
d="M754 1497q0 -140 -55.5 -216.5t-151.5 -76.5q-86 0 -168 43q-89 47 -123 47q-80 0 -80 -108h-141q0 139 55 216t154 77q81 0 168 -49q79 -44 120 -44q78 0 78 111h144z" />
    <glyph glyph-name="dieresis" unicode="&#xa8;" horiz-adv-x="946" 
d="M698 1186q-67 0 -110 39t-43 98q0 61 43 99t110 38t110.5 -38.5t43.5 -98.5t-43 -98.5t-111 -38.5zM240 1186q-68 0 -111 39.5t-43 97.5q0 60 44 98.5t110 38.5q68 0 110.5 -38.5t42.5 -98.5q0 -61 -42.5 -99t-110.5 -38z" />
    <glyph glyph-name="macron" unicode="&#xaf;" horiz-adv-x="690" 
d="M637 1186h-586v172h586v-172z" />
    <glyph glyph-name="breve" unicode="&#x2d8;" horiz-adv-x="709" 
d="M692 1493q-12 -141 -102.5 -224t-237.5 -83q-146 0 -238 85.5t-96 221.5h179q17 -135 159 -135q137 0 156 135h180z" />
    <glyph glyph-name="ring" unicode="&#x2da;" horiz-adv-x="555" 
d="M274 1186q-102 0 -168.5 59.5t-66.5 155.5q0 101 69.5 161t170.5 60q107 0 173 -59.5t66 -155.5q0 -98 -71.5 -159.5t-172.5 -61.5zM274 1499q-96 0 -96 -94t96 -94q45 0 74 27.5t29 66.5q0 41 -28.5 67.5t-74.5 26.5z" />
    <glyph glyph-name="cedilla" unicode="&#xb8;" horiz-adv-x="441" 
d="M51 -451v138q35 -6 72 -6q123 0 123 73q0 66 -111 66q-13 0 -37 -2v182h172v-82q187 -8 187 -166q0 -207 -318 -207q-46 0 -88 4z" />
    <glyph glyph-name="uni00B5" unicode="&#xb5;" horiz-adv-x="1255" 
d="M1161 0h-324q-25 70 -25 154h-4q-57 -177 -216 -177q-97 0 -140 64h-3v-436h-316v1419h316v-589q0 -207 170 -207q184 0 184 254v542h319v-710q0 -236 39 -314z" />
    <glyph glyph-name="uni25FB" unicode="&#x25fb;" horiz-adv-x="1220" 
d="M180 1147h860v-860h-860v860zM260 367h700v700h-700v-700z" />
    <glyph glyph-name="uni25FC" unicode="&#x25fc;" horiz-adv-x="1220" 
d="M180 1147h860v-860h-860v860z" />
    <glyph glyph-name="uni25FD" unicode="&#x25fd;" horiz-adv-x="1220" 
d="M352 975h516v-516h-516v516zM422 530h376v375h-376v-375z" />
    <glyph glyph-name="uni25FE" unicode="&#x25fe;" horiz-adv-x="1220" 
d="M352 975h516v-516h-516v516z" />
    <glyph glyph-name="afii61664" unicode="&#x200c;" 
d="M36 1750v-2158h-72v2158h72z" />
    <glyph glyph-name="afii301" unicode="&#x200d;" 
d="M36 -408h-72v1859l-134 -136l-49 49l171 169l-171 168l49 49l170 -171l170 171l49 -49l-171 -168l171 -169l-49 -49l-134 136v-1859z" />
    <glyph glyph-name="uni25CC" unicode="&#x25cc;" horiz-adv-x="1217" 
d="M980 918q0 -50 -48 -50q-52 0 -52 50t52 50q48 0 48 -50zM832 1016q0 -49 -48 -49q-52 0 -52 49q0 51 52 51q48 0 48 -51zM1079 770q0 -51 -51 -51q-49 0 -49 51q0 49 51 49q49 0 49 -49zM1115 596q0 -50 -48 -50q-52 0 -52 50t52 50q48 0 48 -50zM658 1053
q0 -51 -50 -51t-50 51q0 49 50 49t50 -49zM485 1016q0 -49 -51 -49q-49 0 -49 49q0 51 49 51q51 0 51 -51zM1079 422q0 -49 -51 -49q-49 0 -49 49q0 51 49 51q51 0 51 -51zM337 918q0 -50 -50 -50t-50 47q0 53 50 53t50 -50zM980 272q0 -49 -48 -49q-52 0 -52 49q0 51 52 51
q48 0 48 -51zM832 174q0 -48 -48 -48q-52 0 -52 48q0 52 52 52q48 0 48 -52zM238 770q0 -51 -48 -51q-52 0 -52 51q0 49 50 49t50 -49zM202 596q0 -50 -48 -50q-52 0 -52 50t52 50q48 0 48 -50zM658 141q0 -51 -50 -51t-50 51q0 49 50 49t50 -49zM238 422q0 -49 -50 -49
t-50 49q0 51 50 51t50 -51zM485 178q0 -52 -51 -52q-49 0 -49 48q0 52 49 52q51 0 51 -48zM337 272q0 -49 -50 -49t-50 49q0 51 50 51t50 -51z" />
    <glyph glyph-name="uni034F" unicode="&#x34f;" 
 />
    <glyph glyph-name="uni2060" unicode="&#x2060;" 
 />
    <glyph glyph-name="uni1000" unicode="&#x1000;" horiz-adv-x="2168" 
d="M1785 530q0 54 -16 105t-49.5 90t-85.5 62.5t-125 23.5q-61 0 -110.5 -18.5t-86 -50.5t-61 -74.5t-34.5 -90.5q2 -18 3.5 -36.5t1.5 -37.5q0 -79 -18.5 -154t-52 -142t-79 -124t-99.5 -101l-175 190q27 27 54 60.5t48.5 74.5t35 89.5t13.5 105.5q0 55 -17 110t-52 99.5
t-88 72t-126 27.5t-126 -27.5t-88 -72t-52 -99.5t-17 -110q0 -57 13.5 -105.5t35 -89.5t48.5 -74.5t54 -60.5l-175 -190q-54 44 -99.5 101t-79 124t-52 142t-18.5 154q0 117 41 216.5t114.5 172.5t175.5 114.5t225 41.5q132 0 240.5 -49t183.5 -134q72 85 178 134t241 49
q120 0 221 -37t174 -105t113.5 -163t40.5 -212q0 -123 -40.5 -225t-112.5 -175.5t-171 -114t-216 -40.5q-46 0 -83.5 7t-63.5 15q-32 10 -56 23l75 219q19 -8 40 -14q18 -5 40.5 -9t46.5 -4q55 0 104 22t85.5 63.5t57.5 100t21 131.5z" />
    <glyph glyph-name="uni1001" unicode="&#x1001;" horiz-adv-x="1241" 
d="M1131 514q0 -123 -40.5 -222t-112.5 -169.5t-171 -108.5t-216 -38q-105 0 -192.5 34t-151.5 92t-103.5 134.5t-48.5 160.5q32 35 74.5 64.5t94 51t112 33.5t127.5 12q106 0 191.5 -37.5t151.5 -99.5q12 43 12 92q0 51 -14.5 103.5t-46.5 96t-82.5 71t-123.5 27.5
q-48 0 -87 -13t-69.5 -35.5t-54 -53t-40.5 -65.5l-220 112q31 65 76 118.5t104 92t132 60t159 21.5q120 0 219.5 -39.5t171 -110.5t110.5 -169t39 -215zM591 213q45 0 86 15t75 43q-42 49 -105.5 83.5t-144.5 34.5q-42 0 -79.5 -9.5t-69.5 -26.5q35 -61 93 -100.5t145 -39.5
z" />
    <glyph glyph-name="uni1002" unicode="&#x1002;" horiz-adv-x="1332" 
d="M666 811q-73 0 -126 -27.5t-88 -72t-52 -99.5t-17 -110q0 -57 13.5 -105.5t35 -89.5t48.5 -74.5t54 -60.5l-175 -190q-54 44 -99.5 101t-79 124t-52 142t-18.5 154q0 117 41 216.5t114.5 172.5t175.5 114.5t225 41.5q120 0 222 -41.5t176.5 -114.5t116 -172.5
t41.5 -216.5q0 -79 -18.5 -154t-52 -142t-79 -124t-99.5 -101l-175 190q27 27 54 60.5t48.5 74.5t35 89.5t13.5 105.5q0 55 -17 110t-52 99.5t-88 72t-126 27.5z" />
    <glyph glyph-name="uni1003" unicode="&#x1003;" horiz-adv-x="2162" 
d="M1779 506q0 77 -21 134t-57.5 95t-85.5 57t-104 19q-24 0 -46.5 -4.5t-40.5 -9.5q-21 -6 -40 -13l-75 219q24 12 56 22q26 8 63.5 15.5t83.5 7.5q117 0 216 -36t171 -105t112.5 -170.5t40.5 -231.5q0 -117 -40.5 -214t-113.5 -167t-174 -109t-221 -39q-134 0 -240 48
t-178 133q-78 -85 -193 -133t-261 -48q-119 0 -213.5 30t-160.5 83.5t-101.5 128t-35.5 163.5q0 66 17.5 112.5t43.5 80.5t56 59l56 47t43.5 45t17.5 53q0 26 -16 42.5t-48 16.5q-20 0 -37 -7.5t-29 -15.5q-15 -10 -26 -22l-98 171q21 24 50 40t61.5 26t67 14.5t66.5 4.5
q56 0 102.5 -19.5t79.5 -54.5t51.5 -83t18.5 -105t-15 -97.5t-38 -71.5t-49 -56t-49 -50.5t-38 -55t-15 -68.5q0 -32 14 -63.5t43.5 -56t74 -39.5t106.5 -15q78 0 137.5 27.5t99.5 72t60.5 99.5t20.5 110q0 57 -13.5 105.5t-35 89.5t-48.5 74.5t-54 60.5l175 190
q54 -44 99.5 -101t79 -124t52 -142t18.5 -154q0 -23 -2 -45.5t-5 -45.5q12 -45 37 -84.5t61 -69t83.5 -46.5t106.5 -17q73 0 125 25.5t85.5 66.5t49.5 94t16 107z" />
    <glyph glyph-name="uni1004" unicode="&#x1004;" horiz-adv-x="1211" 
d="M650 -24q-117 0 -216 38t-171 108.5t-112.5 169.5t-40.5 222q0 117 39 215t110.5 169t171 110.5t219.5 39.5q86 0 159 -21.5t132 -60t104 -92t76 -118.5l-220 -112q-17 35 -40.5 65.5t-54 53t-69.5 35.5t-87 13q-73 0 -123.5 -27.5t-82.5 -71t-46.5 -96t-14.5 -103.5
q0 -66 21 -121t57.5 -95t85 -62t103.5 -22q48 0 86.5 12.5t69.5 35t54.5 53t40.5 65.5l220 -112q-31 -65 -76 -118.5t-104 -92t-132 -59.5t-159 -21z" />
    <glyph glyph-name="uni1005" unicode="&#x1005;" horiz-adv-x="1299" 
d="M1189 513q0 -123 -40.5 -222t-112.5 -169t-171 -108t-215 -38q-117 0 -216 38t-171 108t-112.5 169t-40.5 222q0 117 39 215t110.5 169t171 111t219.5 40t219 -40t170.5 -111t110.5 -169t39 -215zM650 213q55 0 103.5 22t84.5 62t57 95t21 121q0 51 -14.5 103.5t-46 96
t-82.5 71t-123 27.5q-14 0 -27.5 -1t-25.5 -3q57 -56 91.5 -127t34.5 -166q0 -97 -33.5 -169t-89.5 -128q12 -2 24.5 -3t25.5 -1zM383 513q0 -56 15 -103.5t41 -85.5q35 37 56.5 84.5t21.5 104.5q0 50 -21 99.5t-59 90.5q-29 -42 -41.5 -92t-12.5 -98z" />
    <glyph glyph-name="uni1006" unicode="&#x1006;" horiz-adv-x="2047" 
d="M1937 513q0 -123 -40.5 -222t-112.5 -169t-171 -108t-215 -38q-62 0 -119 14t-108.5 38.5t-96 58t-80.5 72.5q-36 -39 -80.5 -72.5t-95.5 -58t-108 -38.5t-119 -14q-105 0 -192.5 34t-151.5 92t-103.5 134.5t-48.5 160.5q32 35 74.5 64.5t94 51t112 33.5t127.5 12
q106 0 191.5 -37.5t151.5 -99.5q12 43 12 92q0 51 -14.5 103.5t-46.5 96t-82.5 71t-123.5 27.5q-48 0 -87 -13t-69.5 -35.5t-54 -53t-40.5 -65.5l-220 112q31 65 76 118.5t104 92t132 60t159 21.5q63 0 120.5 -14.5t108.5 -39t94.5 -58t79.5 -72.5q36 39 80 72.5t95 58
t108.5 39t120.5 14.5q120 0 219 -40t170.5 -111t110.5 -169t39 -215zM1398 213q55 0 103.5 22t84.5 62t57 95t21 121q0 51 -14.5 103.5t-46 96t-82.5 71t-123 27.5q-73 0 -123.5 -27.5t-82.5 -71t-46.5 -96t-14.5 -103.5q0 -66 21 -121t57.5 -95t85 -62t103.5 -22zM591 213
q45 0 86 15t75 43q-42 49 -105.5 83.5t-144.5 34.5q-42 0 -79.5 -9.5t-69.5 -26.5q35 -61 93 -100.5t145 -39.5z" />
    <glyph glyph-name="uni1007" unicode="&#x1007;" horiz-adv-x="1341" 
d="M651 1048q106 0 188.5 -33t138.5 -86t85 -120t29 -135q0 -41 -9 -71q32 -32 60 -69t48 -69q24 -37 43 -74l-172 -106q-11 22 -26 47l-30.5 47t-37.5 52q-10 -9 -30 -20t-47.5 -21.5t-62 -17.5t-73.5 -7q-46 0 -92.5 13.5t-84 39t-61 63t-23.5 85.5q0 44 17 81.5
t47.5 64.5t72.5 42.5t92 15.5q33 0 59.5 -4.5t46.5 -9.5q22 -6 40 -14q-17 29 -43 52q-23 20 -58.5 36t-87.5 16q-80 0 -136 -30.5t-92 -77.5t-52.5 -103t-16.5 -107q0 -66 22 -123.5t61.5 -100t94 -67t119.5 -24.5q46 0 80.5 6.5t58.5 14.5q27 9 48 21l148 -189
q-32 -26 -80 -45q-42 -17 -104.5 -31t-150.5 -14q-123 0 -227.5 38t-180.5 108.5t-119 169.5t-43 222q0 117 39.5 215t110.5 169t171 110.5t220 39.5zM853 561q-14 15 -30 26q-14 10 -32.5 18t-41.5 8q-40 0 -60 -14t-20 -35q0 -13 7 -22.5t18 -15.5t25 -8.5t29 -2.5
q24 0 43.5 7t33.5 16q16 10 28 23z" />
    <glyph glyph-name="uni1008" unicode="&#x1008;" horiz-adv-x="1842" 
d="M1189 513q0 -149 -58.5 -262.5t-160.5 -182.5v-587q0 -52 17 -94.5t48 -72.5t74 -46.5t95 -16.5t95 16.5t74 46.5t48 72.5t17 94.5v1545h264v-1545q0 -52 -11.5 -107t-36.5 -107t-64 -98t-94.5 -80.5t-128 -54.5t-163.5 -20q-92 0 -164 20t-127.5 54.5t-94.5 80.5t-64 98
t-36.5 107t-11.5 107v498q-29 -3 -56 -3q-117 0 -216 38t-171 108t-112.5 169t-40.5 222q0 117 39 215t110.5 169t171 111t219.5 40t219 -40t170.5 -111t110.5 -169t39 -215zM650 213q55 0 103.5 22t84.5 62t57 95t21 121q0 51 -14.5 103.5t-46 96t-82.5 71t-123 27.5
q-14 0 -27.5 -1t-25.5 -3q57 -56 91.5 -127t34.5 -166q0 -97 -33.5 -169t-89.5 -128q12 -2 24.5 -3t25.5 -1zM383 513q0 -56 15 -103.5t41 -85.5q35 37 56.5 84.5t21.5 104.5q0 50 -21 99.5t-59 90.5q-29 -42 -41.5 -92t-12.5 -98z" />
    <glyph glyph-name="uni1009" unicode="&#x1009;" horiz-adv-x="1211" 
d="M588 -972q-92 0 -164 20t-127.5 54.5t-94.5 80.5t-64 98t-36.5 107t-11.5 107v772l220 112q17 -35 40.5 -65.5t54.5 -53t69.5 -35t86.5 -12.5q55 0 103.5 22t85 62t57.5 95t21 121q0 51 -14.5 103.5t-46.5 96t-82.5 71t-123.5 27.5q-48 0 -87 -13t-69.5 -35.5t-54 -53
t-40.5 -65.5l-220 112q31 65 76 118.5t104 92t132 60t159 21.5q120 0 219.5 -39.5t171 -110.5t110.5 -169t39 -215q0 -123 -40.5 -222t-112.5 -169.5t-171 -108.5t-216 -38q-113 0 -207 37v-518q0 -52 17 -94.5t48 -72.5t74 -46.5t95 -16.5h862q52 0 95 16.5t74 46.5
t48 72.5t17 94.5v108h264v-108q0 -52 -11.5 -107t-36.5 -107t-64 -98t-94.5 -80.5t-128 -54.5t-163.5 -20h-862z" />
    <glyph glyph-name="uni100A" unicode="&#x100a;" horiz-adv-x="2124" 
d="M1649 506q0 77 -21 134t-57.5 95t-85.5 57t-104 19q-24 0 -46.5 -4.5t-40.5 -9.5q-21 -6 -40 -13l-75 219q24 12 56 22q26 8 63.5 15.5t83.5 7.5q117 0 216 -36t171 -105t112.5 -170.5t40.5 -231.5q0 -117 -40.5 -214t-113.5 -167t-174 -109t-221 -39q-129 0 -231.5 44.5
t-173.5 122.5q-72 -79 -175.5 -123t-231.5 -44q-113 0 -207 37v-518q0 -52 17 -94.5t48 -72.5t74 -46.5t95 -16.5h862q52 0 95 16.5t74 46.5t48 72.5t17 94.5v108h264v-108q0 -52 -11.5 -107t-36.5 -107t-64 -98t-94.5 -80.5t-128 -54.5t-163.5 -20h-862q-92 0 -164 20
t-127.5 54.5t-94.5 80.5t-64 98t-36.5 107t-11.5 107v773l220 112q17 -35 40.5 -65.5t54 -53t69.5 -35.5t87 -13q73 0 123.5 27.5t82.5 71t46.5 96t14.5 103.5q0 66 -21 121t-57.5 95t-85 62t-103.5 22q-48 0 -86.5 -12.5t-69.5 -35t-54.5 -53t-40.5 -65.5l-220 112
q31 65 76 118.5t104 92t132 59.5t159 21q117 0 216 -38t171 -108.5t112.5 -169.5t40.5 -222q0 -54 -9 -103q15 -41 40 -76.5t60.5 -61.5t80.5 -41t100 -15q73 0 125 25.5t85.5 66.5t49.5 94t16 107z" />
    <glyph glyph-name="uni100B" unicode="&#x100b;" horiz-adv-x="1211" 
d="M1121 267v-479q-91 -57 -209 -95t-266 -38q-57 0 -108.5 7t-100.5 20v-125q49 -11 100.5 -17.5t108.5 -6.5q149 0 265 26.5t210 86.5v-371h220v-237h-484v290q-49 -7 -101.5 -9.5t-109.5 -2.5q-152 0 -273 25t-200 63v611q97 -66 214.5 -104.5t258.5 -38.5q57 0 109.5 10
t101.5 27v104q-94 -37 -207 -37q-117 0 -216 38t-171 108.5t-112.5 169.5t-40.5 222q0 117 39 215t110.5 169t171 110.5t219.5 39.5q86 0 159 -21.5t132 -60t104 -92t76 -118.5l-220 -112q-17 35 -40.5 65.5t-54 53t-69.5 35.5t-87 13q-73 0 -123.5 -27.5t-82.5 -71
t-46.5 -96t-14.5 -103.5q0 -66 21 -121t57.5 -95t85 -62t103.5 -22q48 0 86.5 12.5t69.5 35t54.5 53t40.5 65.5z" />
    <glyph glyph-name="uni100C" unicode="&#x100c;" horiz-adv-x="1211" 
d="M1121 267v-772q0 -52 -11.5 -107t-36.5 -107t-64 -98t-94.5 -80.5t-128 -54.5t-163.5 -20h-89q-100 0 -179 24t-133.5 68t-83 105.5t-28.5 137.5q0 75 30 132t80.5 95.5t116.5 57.5t137 19q46 0 88 -10.5t74 -22.5q38 -14 71 -32l-73 -198q-19 12 -40 23q-18 9 -41 16.5
t-46 7.5q-62 0 -93 -25.5t-31 -63.5q0 -28 7.5 -44t25.5 -28t47.5 -18.5t73.5 -6.5h86q52 0 95 16.5t74 46.5t48 72.5t17 103.5v509q-94 -37 -207 -37q-117 0 -216 38t-171 108.5t-112.5 169.5t-40.5 222q0 117 39 215t110.5 169t171 110.5t219.5 39.5q86 0 159 -21.5
t132 -60t104 -92t76 -118.5l-220 -112q-17 35 -40.5 65.5t-54 53t-69.5 35.5t-87 13q-73 0 -123.5 -27.5t-82.5 -71t-46.5 -96t-14.5 -103.5q0 -66 21 -121t57.5 -95t85 -62t103.5 -22q48 0 86.5 12.5t69.5 35t54.5 53t40.5 65.5z" />
    <glyph glyph-name="uni100D" unicode="&#x100d;" horiz-adv-x="1211" 
d="M561 -24q-113 0 -207 37v-104q48 -17 101 -27t110 -10q141 0 258.5 38.5t214.5 104.5v-740h220v-237h-484v644q-49 -13 -100.5 -20t-108.5 -7q-148 0 -266 38t-209 95v479l220 112q17 -35 40.5 -65.5t54.5 -53t69.5 -35t86.5 -12.5q55 0 103.5 22t85 62t57.5 95t21 121
q0 51 -14.5 103.5t-46.5 96t-82.5 71t-123.5 27.5q-48 0 -87 -13t-69.5 -35.5t-54 -53t-40.5 -65.5l-220 112q31 65 76 118.5t104 92t132 60t159 21.5q120 0 219.5 -39.5t171 -110.5t110.5 -169t39 -215q0 -123 -40.5 -222t-112.5 -169.5t-171 -108.5t-216 -38z" />
    <glyph glyph-name="uni100E" unicode="&#x100e;" horiz-adv-x="1332" 
d="M393 387q0 -32 14 -63.5t43.5 -56t74 -39.5t106.5 -15q78 0 137.5 27.5t99.5 72t60.5 99.5t20.5 110q0 57 -13.5 105.5t-35 89.5t-48.5 74.5t-54 60.5l175 190q54 -44 99.5 -101t79 -124t52 -142t18.5 -154q0 -117 -42.5 -216.5t-119.5 -172.5t-186.5 -114.5
t-242.5 -41.5q-119 0 -213.5 30t-160.5 83.5t-101.5 128t-35.5 163.5q0 66 17.5 112.5t43.5 80.5t56 59l56 47t43.5 45t17.5 53q0 26 -16 42.5t-48 16.5q-20 0 -37 -7.5t-29 -15.5q-15 -10 -26 -22l-98 171q21 24 50 40t61.5 26t67 14.5t66.5 4.5q56 0 102.5 -19.5
t79.5 -54.5t51.5 -83t18.5 -105t-15 -97.5t-38 -71.5t-49 -56t-49 -50.5t-38 -55t-15 -68.5z" />
    <glyph glyph-name="uni100F" unicode="&#x100f;" horiz-adv-x="2483" 
d="M1824 1048q120 0 221 -38.5t174 -108.5t113.5 -166.5t40.5 -213.5q0 -123 -37.5 -223.5t-106 -172t-164 -110.5t-212.5 -39q-46 0 -81.5 6t-60.5 14q-29 9 -51 20l75 219q17 -7 35 -11q16 -5 37 -8t45 -3q49 0 93.5 20.5t79 60t55 96.5t20.5 130q0 54 -16.5 106.5
t-50 93.5t-85.5 66t-124 25q-74 0 -123.5 -25.5t-79.5 -62.5t-42.5 -78.5t-12.5 -73.5q0 -59 7 -98.5t15 -71l15 -61.5t7 -72q0 -87 -36.5 -143.5t-91.5 -89.5t-119.5 -46t-120.5 -13q-38 0 -79.5 5t-82.5 17.5t-78.5 34t-66 54t-45.5 77.5t-17 104q0 42 7 72l15 61.5t15 71
t7 98.5q0 32 -13 73.5t-43 78.5t-79.5 62.5t-122.5 25.5q-72 0 -124 -25t-85.5 -66t-50 -93.5t-16.5 -106.5q0 -73 20.5 -130t55 -96.5t79 -60t93.5 -20.5q23 0 44.5 3t37.5 8q18 4 35 11l75 -219q-22 -11 -51 -20q-25 -8 -60.5 -14t-81.5 -6q-117 0 -212.5 39t-164 110.5
t-106 172t-37.5 223.5q0 117 40.5 213.5t113.5 166.5t174 108.5t221 38.5q99 0 179 -23.5t143 -64.5q28 23 61 40t67 27.5t68 15.5t65 5q30 0 64 -5t67.5 -16t66 -27.5t61.5 -39.5q63 41 143 64.5t180 23.5zM1190 577q0 -44 -7 -82.5t-15 -72.5l-15 -63t-7 -53
q0 -42 24 -70.5t71 -28.5q48 0 72 28.5t24 70.5q0 24 -7 53l-15 63t-15 72.5t-7 82.5q0 99 43 193q-2 3 -8 10.5t-17.5 16t-28.5 14.5t-41 6t-41 -6.5t-28.5 -15t-17.5 -16t-7 -9.5q43 -94 43 -193z" />
    <glyph glyph-name="uni1010" unicode="&#x1010;" horiz-adv-x="2129" 
d="M1746 530q0 54 -16 105t-49.5 90t-85.5 62.5t-125 23.5q-58 0 -105 -16.5t-83.5 -45.5t-61 -68t-37.5 -84q6 -41 6 -84q0 -123 -40.5 -222t-112.5 -169t-171 -108t-215 -38q-117 0 -216 38t-171 108t-112.5 169t-40.5 222q0 117 39 215t110.5 169t170.5 111t219 40
q131 0 235 -46t176 -127q72 80 175.5 126.5t234.5 46.5q120 0 221 -37t174 -105t113.5 -163t40.5 -212q0 -123 -40.5 -225t-112.5 -175.5t-171 -114t-216 -40.5q-46 0 -83.5 7t-63.5 15q-32 10 -56 23l75 219q19 -8 40 -14q18 -5 40.5 -9t46.5 -4q55 0 104 22t85.5 63.5
t57.5 100t21 131.5zM916 513q0 51 -14.5 103.5t-46 96t-82.5 71t-123 27.5q-73 0 -123.5 -27.5t-82.5 -71t-46.5 -96t-14.5 -103.5q0 -66 21 -121t57.5 -95t85 -62t103.5 -22t103.5 22t84.5 62t57 95t21 121z" />
    <glyph glyph-name="uni1011" unicode="&#x1011;" horiz-adv-x="2105" 
d="M1052 863q36 39 80 72.5t95 58.5t108 39.5t120 14.5q120 0 219.5 -40t171 -111t110.5 -169t39 -215q0 -123 -40.5 -222t-112.5 -169t-171 -108t-215 -38q-62 0 -119 14t-108.5 38.5t-96 58t-80.5 72.5q-36 -39 -80.5 -72.5t-95.5 -58t-108 -38.5t-118 -14q-117 0 -216 38
t-171 108t-112.5 169t-40.5 222q0 117 39 215t110.5 169t170.5 111t219 40q63 0 120.5 -14.5t108.5 -39.5t94.5 -58.5t79.5 -72.5zM1722 513q0 51 -14.5 103.5t-46 96t-82.5 71t-123 27.5q-73 0 -123.5 -27.5t-82.5 -71t-46.5 -96t-14.5 -103.5q0 -66 21 -121t57.5 -95
t85 -62t103.5 -22t103.5 22t84.5 62t57 95t21 121zM916 513q0 51 -14.5 103.5t-46 96t-82.5 71t-123 27.5q-73 0 -123.5 -27.5t-82.5 -71t-46.5 -96t-14.5 -103.5q0 -66 21 -121t57.5 -95t85 -62t103.5 -22t103.5 22t84.5 62t57 95t21 121z" />
    <glyph glyph-name="uni1012" unicode="&#x1012;" horiz-adv-x="1144" 
d="M761 299q0 22 -8.5 38.5t-22 28.5t-31 20t-35.5 14q-43 12 -97 15v197q32 1 53.5 4.5t46 10t45.5 19t35 32t14 47.5q0 19 -11 41t-34.5 41t-60.5 31.5t-88 12.5q-55 0 -93 -12.5t-61.5 -31t-34 -40t-10.5 -38.5h-273q0 68 31.5 126.5t91.5 101t148 67t201 24.5
q101 0 186.5 -22.5t148 -64.5t97.5 -102t35 -135q0 -40 -14 -72t-37 -57.5t-53.5 -45.5t-64.5 -35v-8q33 -13 64 -31.5t54 -43.5t37 -57.5t14 -73.5q0 -75 -35 -135t-97.5 -102t-148 -64.5t-186.5 -22.5q-113 0 -201 24t-148 67t-91.5 101.5t-31.5 126.5h273
q0 -17 10.5 -38.5t34 -40t61.5 -31t93 -12.5q51 0 88 12.5t60.5 31.5t34.5 41t11 41z" />
    <glyph glyph-name="uni1013" unicode="&#x1013;" horiz-adv-x="1299" 
d="M1189 513q0 -123 -40.5 -222t-112.5 -169t-171 -108t-215 -38q-117 0 -216 38t-171 108t-112.5 169t-40.5 222q0 117 39 215t110.5 169t171 111t219.5 40t219 -40t170.5 -111t110.5 -169t39 -215zM916 513q0 51 -14.5 103.5t-46 96t-82.5 71t-123 27.5
q-73 0 -123.5 -27.5t-82.5 -71t-46.5 -96t-14.5 -103.5v-16t1 -16q52 45 117 72.5t149 27.5q83 0 148 -25.5t117 -68.5zM650 213q55 0 103.5 22t85.5 63q-37 35 -84 56t-104 21q-50 0 -99 -20.5t-90 -58.5q36 -39 84 -61t104 -22z" />
    <glyph glyph-name="uni1014" unicode="&#x1014;" horiz-adv-x="1211" 
d="M95 261q0 61 25.5 110.5t67.5 83.5t97.5 52.5t115.5 18.5q61 0 118.5 -18.5t104 -55.5t79.5 -93t46 -130q29 12 48 26.5t30.5 29.5t16.5 29.5t5 26.5q0 42 -32 74t-80.5 60t-105 56.5t-105 64.5t-80.5 83t-32 112q0 78 29 127.5t74 78.5t100.5 40t108.5 11
q55 0 103.5 -14.5t84.5 -31.5q42 -20 78 -46l-133 -170q-15 11 -33 21q-15 8 -35 14.5t-42 6.5q-29 0 -45.5 -11.5t-16.5 -31.5t18.5 -37.5t48.5 -34.5t68.5 -35t79 -40t79 -49.5t68.5 -63.5t48.5 -81.5t18.5 -103.5t-18.5 -112t-61 -99.5t-111.5 -80t-169 -53.5v-957h-264
v939q-100 3 -174.5 27t-124 62t-74 88.5t-24.5 106.5zM405 329q-26 0 -41.5 -15t-15.5 -39q0 -32 35.5 -55t106.5 -27q-2 24 -6 48.5t-13.5 44t-25.5 31.5t-40 12z" />
    <glyph glyph-name="uni1015" unicode="&#x1015;" horiz-adv-x="1332" 
d="M666 213q73 0 126 27.5t88 72t52 99.5t17 110q0 57 -13.5 105.5t-35 89.5t-48.5 74.5t-54 60.5l175 190q54 -44 99.5 -101t79 -124t52 -142t18.5 -154q0 -117 -41 -216.5t-114.5 -172.5t-175.5 -114.5t-225 -41.5q-120 0 -222 41.5t-176.5 114.5t-116 172.5t-41.5 216.5
q0 79 18.5 154t52 142t79 124t99.5 101l175 -190q-27 -27 -54 -60.5t-48.5 -74.5t-35 -89.5t-13.5 -105.5q0 -55 17 -110t52 -99.5t88 -72t126 -27.5z" />
    <glyph glyph-name="uni1016" unicode="&#x1016;" horiz-adv-x="1332" 
d="M666 213q38 0 69 7q-70 66 -108 155t-38 199q0 75 27.5 148t72.5 136t103.5 111t120.5 73q55 -31 110 -81.5t99.5 -117t72 -148t27.5 -174.5q0 -117 -41 -216.5t-114.5 -172.5t-175.5 -114.5t-225 -41.5q-120 0 -222 41.5t-176.5 114.5t-116 172.5t-41.5 216.5
q0 79 18.5 154t52 142t79 124t99.5 101l175 -190q-27 -27 -54 -60.5t-48.5 -74.5t-35 -89.5t-13.5 -105.5q0 -55 17 -110t52 -99.5t88 -72t126 -27.5zM949 522q0 80 -24 140.5t-59 108.5q-33 -41 -52 -92.5t-19 -105.5q0 -75 27.5 -135.5t74.5 -100.5q26 42 39 89.5t13 95.5
z" />
    <glyph glyph-name="uni1017" unicode="&#x1017;" horiz-adv-x="1332" 
d="M1222 521q0 -117 -41 -216.5t-114.5 -172.5t-175.5 -114.5t-225 -41.5q-120 0 -222 41.5t-176.5 114.5t-116 172.5t-41.5 216.5q0 79 22 154t58.5 142t85.5 124t103 101l187 -46q-17 -28 -25 -48.5t-8 -44.5q0 -29 12 -51t31.5 -36.5t43 -21.5t46.5 -7t47 7.5t43 22.5
t31 36.5t12 49.5q0 24 -8 44.5t-25 48.5l187 46q54 -44 103 -101t85.5 -124t58.5 -142t22 -154zM666 213q73 0 126 27.5t88 72t52 99.5t17 110q0 59 -11 103.5t-27 78.5q-39 -54 -99.5 -84.5t-145.5 -30.5q-86 0 -147 31.5t-100 85.5q-16 -35 -26 -81t-10 -103
q0 -55 17 -110t52 -99.5t88 -72t126 -27.5z" />
    <glyph glyph-name="uni1018" unicode="&#x1018;" horiz-adv-x="2032" 
d="M1649 530q0 54 -16 105t-49.5 90t-85.5 62.5t-125 23.5q-55 0 -100 -15t-80.5 -41t-60.5 -61.5t-40 -76.5q9 -50 9 -103q0 -123 -40.5 -222t-112.5 -169.5t-171 -108.5t-216 -38q-86 0 -159 21t-132 59.5t-104 92t-76 118.5l220 112q17 -35 40.5 -65.5t54.5 -53t69.5 -35
t86.5 -12.5q55 0 103.5 22t85 62t57.5 95t21 121q0 51 -14.5 103.5t-46.5 96t-82.5 71t-123.5 27.5q-48 0 -87 -13t-69.5 -35.5t-54 -53t-40.5 -65.5l-220 112q31 65 76 118.5t104 92t132 60t159 21.5q128 0 231.5 -44.5t175.5 -123.5q71 78 173.5 123t231.5 45
q120 0 221 -37t174 -105t113.5 -163t40.5 -212q0 -123 -40.5 -225t-112.5 -175.5t-171 -114t-216 -40.5q-46 0 -83.5 7t-63.5 15q-32 10 -56 23l75 219q19 -8 40 -14q18 -5 40.5 -9t46.5 -4q55 0 104 22t85.5 63.5t57.5 100t21 131.5z" />
    <glyph glyph-name="uni1019" unicode="&#x1019;" horiz-adv-x="1332" 
d="M949 522q0 57 -13.5 105.5t-35 89.5t-48.5 74.5t-54 60.5l175 190q54 -44 99.5 -101t79 -124t52 -142t18.5 -154q0 -117 -41 -216.5t-114.5 -172.5t-175.5 -114.5t-225 -41.5q-120 0 -222 41.5t-176.5 114.5t-116 172.5t-41.5 216.5q0 79 18.5 154t52 142t79 124
t99.5 101l175 -190q-27 -27 -54 -60.5t-48.5 -74.5t-35 -89.5t-13.5 -105.5q0 -27 3 -54q54 51 122 82t158 31q89 0 157.5 -29t122.5 -78q3 24 3 48zM666 213q64 0 112 21.5t83 56.5q-37 38 -85.5 61t-108.5 23q-51 0 -102.5 -21.5t-93.5 -63.5q35 -35 83 -56t112 -21z" />
    <glyph glyph-name="uni101A" unicode="&#x101a;" horiz-adv-x="2163" 
d="M1780 506q0 77 -21 134t-57.5 95t-85.5 57t-104 19q-24 0 -46.5 -4.5t-40.5 -9.5q-21 -6 -40 -13l-75 219q24 12 56 22q26 8 63.5 15.5t83.5 7.5q117 0 216 -36t171 -105t112.5 -170.5t40.5 -231.5q0 -117 -40.5 -214t-113.5 -167t-174 -109t-221 -39q-134 0 -239 47.5
t-177 131.5q-75 -84 -182 -131.5t-240 -47.5q-120 0 -222 41.5t-176.5 114.5t-116 172.5t-41.5 216.5q0 79 18.5 154t52 142t79 124t99.5 101l175 -190q-27 -27 -54 -60.5t-48.5 -74.5t-35 -89.5t-13.5 -105.5q0 -55 17 -110t52 -99.5t88 -72t126 -27.5t126 27.5t88 72
t52 99.5t17 110q0 57 -13.5 105.5t-35 89.5t-48.5 74.5t-54 60.5l175 190q54 -44 99.5 -101t79 -124t52 -142t18.5 -154q0 -48 -7 -89q12 -45 37 -85t61 -70t84 -47t107 -17q73 0 125 25.5t85.5 66.5t49.5 94t16 107z" />
    <glyph glyph-name="uni101B" unicode="&#x101b;" horiz-adv-x="1351" 
d="M1211 -725h220v-237h-484v1466q0 59 -17.5 114.5t-53.5 98t-90 68.5t-127 26q-52 0 -93 -12t-72.5 -33.5t-54 -51t-35.5 -63.5q70 -3 138 -28.5t132 -73.5q47 -36 83 -82t60 -98t36.5 -108.5t12.5 -113.5q0 -30 -2.5 -64.5t-10.5 -61.5q-25 -13 -56 -23q-27 -8 -64 -15
t-83 -7q-117 0 -216 40.5t-171 114t-112.5 175.5t-40.5 225q0 117 40.5 212t113.5 163t174 105t221 37q128 0 230 -40t173.5 -112t110 -172t38.5 -220v-1229zM656 213q-11 53 -39 104.5t-70 83.5q-38 29 -78 41t-80 15q10 -57 34 -102.5t58.5 -77t78 -48t96.5 -16.5z" />
    <glyph glyph-name="uni101C" unicode="&#x101c;" horiz-adv-x="2166" 
d="M383 530q0 -73 21 -131.5t57.5 -100t85.5 -63.5t104 -22q23 0 46 4t41 9q21 6 40 14l75 -219q-25 -13 -56 -23q-27 -8 -64 -15t-83 -7q-117 0 -216 40.5t-171 114t-112.5 175.5t-40.5 225q0 117 40.5 212t113.5 163t174 105t221 37q123 0 215.5 -34t160 -99.5t112 -162
t71.5 -221.5q12 -59 32.5 -116t54 -102t83 -72.5t119.5 -27.5q73 0 125 25.5t85.5 66.5t49.5 94t16 107q0 77 -21 134t-57.5 95t-85.5 57t-104 19q-24 0 -46.5 -4.5t-40.5 -9.5q-21 -6 -40 -13l-75 219q24 12 56 22q26 8 63.5 15.5t83.5 7.5q117 0 216 -36t171 -105
t112.5 -170.5t40.5 -231.5q0 -117 -40.5 -214t-113.5 -167t-174 -109t-221 -39t-209.5 32.5t-155 96t-109.5 156.5t-72 215q-15 66 -37 126.5t-56.5 107t-85 74t-123.5 27.5t-125 -23.5t-85.5 -62.5t-49.5 -90t-16 -105z" />
    <glyph glyph-name="uni101D" unicode="&#x101d;" horiz-adv-x="1299" 
d="M650 213q55 0 103.5 22t84.5 62t57 95t21 121q0 51 -14.5 103.5t-46 96t-82.5 71t-123 27.5q-73 0 -123.5 -27.5t-82.5 -71t-46.5 -96t-14.5 -103.5q0 -66 21 -121t57.5 -95t85 -62t103.5 -22zM1189 513q0 -123 -40.5 -222t-112.5 -169t-171 -108t-215 -38
q-117 0 -216 38t-171 108t-112.5 169t-40.5 222q0 117 39 215t110.5 169t171 111t219.5 40t219 -40t170.5 -111t110.5 -169t39 -215z" />
    <glyph glyph-name="uni101E" unicode="&#x101e;" horiz-adv-x="2032" 
d="M1649 506q0 77 -21 134t-57.5 95t-85.5 57t-104 19q-24 0 -46.5 -4.5t-40.5 -9.5q-21 -6 -40 -13l-75 219q24 12 56 22q26 8 63.5 15.5t83.5 7.5q117 0 216 -36t171 -105t112.5 -170.5t40.5 -231.5q0 -117 -40.5 -214t-113.5 -167t-174 -109t-221 -39q-129 0 -231.5 44.5
t-173.5 122.5q-72 -79 -175.5 -123t-231.5 -44q-86 0 -159 21.5t-132 60t-104 92t-76 118.5l220 112q17 -35 40.5 -65.5t54 -53t69.5 -35.5t87 -13q73 0 123.5 27.5t82.5 71t46.5 96t14.5 103.5q0 66 -21 121t-57.5 95t-85 62t-103.5 22q-48 0 -86.5 -12.5t-69.5 -35
t-54.5 -53t-40.5 -65.5l-220 112q31 65 76 118.5t104 92t132 59.5t159 21q117 0 216 -38t171 -108.5t112.5 -169.5t40.5 -222q0 -54 -9 -103q15 -41 40 -76.5t60.5 -61.5t80.5 -41t100 -15q73 0 125 25.5t85.5 66.5t49.5 94t16 107z" />
    <glyph glyph-name="uni101F" unicode="&#x101f;" horiz-adv-x="2163" 
d="M1780 530q0 54 -16 105t-49.5 90t-85.5 62.5t-125 23.5q-58 0 -105 -16.5t-83.5 -45.5t-61 -68t-37.5 -84q2 -19 3.5 -37.5t1.5 -38.5q0 -117 -41 -216.5t-114.5 -172.5t-175.5 -114.5t-225 -41.5q-120 0 -222 41.5t-176.5 114.5t-116 172.5t-41.5 216.5q0 79 18.5 154
t52 142t79 124t99.5 101l175 -190q-27 -27 -54 -60.5t-48.5 -74.5t-35 -89.5t-13.5 -105.5q0 -55 17 -110t52 -99.5t88 -72t126 -27.5t126 27.5t88 72t52 99.5t17 110q0 57 -13.5 105.5t-35 89.5t-48.5 74.5t-54 60.5l175 190q78 -65 135 -151q72 73 171.5 115t224.5 42
q120 0 221 -37t174 -105t113.5 -163t40.5 -212q0 -123 -40.5 -225t-112.5 -175.5t-171 -114t-216 -40.5q-46 0 -83.5 7t-63.5 15q-32 10 -56 23l75 219q19 -8 40 -14q18 -5 40.5 -9t46.5 -4q55 0 104 22t85.5 63.5t57.5 100t21 131.5z" />
    <glyph glyph-name="uni1020" unicode="&#x1020;" horiz-adv-x="1211" 
d="M1121 267v-479q-91 -57 -209 -95t-266 -38q-57 0 -108.5 7t-100.5 20v-207q0 -104 45 -157t149 -53h32q104 0 149 53t45 157v18h264v-18q0 -52 -8.5 -105.5t-29 -103t-54.5 -93t-84.5 -76t-120.5 -51t-161 -18.5h-32q-92 0 -161.5 18.5t-120 51t-84.5 76t-54.5 93
t-29 103t-8.5 105.5v540q97 -66 214.5 -104.5t258.5 -38.5q57 0 109.5 10t101.5 27v104q-94 -37 -207 -37q-117 0 -216 38t-171 108.5t-112.5 169.5t-40.5 222q0 117 39 215t110.5 169t171 110.5t219.5 39.5q86 0 159 -21.5t132 -60t104 -92t76 -118.5l-220 -112
q-17 35 -40.5 65.5t-54 53t-69.5 35.5t-87 13q-73 0 -123.5 -27.5t-82.5 -71t-46.5 -96t-14.5 -103.5q0 -66 21 -121t57.5 -95t85 -62t103.5 -22q48 0 86.5 12.5t69.5 35t54.5 53t40.5 65.5z" />
    <glyph glyph-name="uni103F" unicode="&#x103f;" horiz-adv-x="2857" 
d="M1649 506q0 77 -21 134t-57.5 95t-85.5 57t-104 19q-24 0 -46.5 -4.5t-40.5 -9.5q-21 -6 -40 -13l-75 219q24 12 56 22q26 8 63.5 15.5t83.5 7.5q117 0 216 -36t171 -105t112.5 -170.5t40.5 -231.5q0 -24 -1.5 -46.5t-5.5 -45.5q14 -42 39 -78.5t60.5 -63.5t81.5 -42.5
t102 -15.5q73 0 125 25.5t85.5 66.5t49.5 94t16 107q0 77 -21 134t-57.5 95t-85.5 57t-104 19q-24 0 -46.5 -4.5t-40.5 -9.5q-21 -6 -40 -13l-75 219q24 12 56 22q26 8 63.5 15.5t83.5 7.5q117 0 216 -36t171 -105t112.5 -170.5t40.5 -231.5q0 -117 -40.5 -214t-113.5 -167
t-174 -109t-221 -39q-131 0 -233.5 45.5t-174.5 124.5q-74 -81 -180 -125.5t-237 -44.5q-129 0 -231.5 44.5t-173.5 122.5q-72 -79 -175.5 -123t-231.5 -44q-86 0 -159 21.5t-132 60t-104 92t-76 118.5l220 112q17 -35 40.5 -65.5t54 -53t69.5 -35.5t87 -13q73 0 123.5 27.5
t82.5 71t46.5 96t14.5 103.5q0 66 -21 121t-57.5 95t-85 62t-103.5 22q-48 0 -86.5 -12.5t-69.5 -35t-54.5 -53t-40.5 -65.5l-220 112q31 65 76 118.5t104 92t132 59.5t159 21q117 0 216 -38t171 -108.5t112.5 -169.5t40.5 -222q0 -54 -9 -103q15 -41 40 -76.5t60.5 -61.5
t80.5 -41t100 -15q73 0 125 25.5t85.5 66.5t49.5 94t16 107z" />
    <glyph glyph-name="uni1050" unicode="&#x1050;" horiz-adv-x="1332" 
d="M666 811q-73 0 -126 -27.5t-88 -72t-52 -99.5t-17 -110q0 -57 13.5 -105.5t35 -89.5t48.5 -74.5t54 -60.5l-175 -190q-54 44 -99.5 101t-79 124t-52 142t-18.5 154q0 117 41 216.5t114.5 172.5t175.5 114.5t225 41.5q120 0 222 -41.5t176.5 -114.5t116 -172.5
t41.5 -216.5q0 -79 -18.5 -154t-52 -142t-79 -124t-99.5 -101l-175 190q27 27 54 60.5t48.5 74.5t35 89.5t13.5 105.5q0 55 -17 110t-52 99.5t-88 72t-126 27.5zM477 512q0 39 14 74.5t39 61.5t60 41.5t76 15.5t76 -15.5t60 -41.5t39 -61.5t14 -74.5q0 -40 -14 -75.5
t-39 -61.5t-60 -41.5t-76 -15.5t-76 15.5t-60 41.5t-39 61.5t-14 75.5zM569 512q0 -22 7 -41.5t19.5 -33.5t30.5 -22t40 -8q43 0 69.5 30t26.5 75q0 44 -26.5 74.5t-69.5 30.5q-22 0 -40 -8.5t-30.5 -22.5t-19.5 -33.5t-7 -40.5z" />
    <glyph glyph-name="uni1051" unicode="&#x1051;" horiz-adv-x="1332" 
d="M666 213q73 0 126 27.5t88 72t52 99.5t17 110q0 57 -13.5 105.5t-35 89.5t-48.5 74.5t-54 60.5l175 190q54 -44 99.5 -101t79 -124t52 -142t18.5 -154q0 -117 -41 -216.5t-114.5 -172.5t-175.5 -114.5t-225 -41.5q-120 0 -222 41.5t-176.5 114.5t-116 172.5t-41.5 216.5
q0 79 18.5 154t52 142t79 124t99.5 101l175 -190q-27 -27 -54 -60.5t-48.5 -74.5t-35 -89.5t-13.5 -105.5q0 -55 17 -110t52 -99.5t88 -72t126 -27.5zM855 512q0 -39 -14 -74.5t-39 -61.5t-60 -41.5t-76 -15.5t-76 15.5t-60 41.5t-39 61.5t-14 74.5q0 40 14 75.5t39 61.5
t60 41.5t76 15.5t76 -15.5t60 -41.5t39 -61.5t14 -75.5zM763 512q0 22 -7 41.5t-19.5 33.5t-30.5 22t-40 8q-43 0 -69.5 -30t-26.5 -75q0 -44 26.5 -74.5t69.5 -30.5q22 0 40 8.5t30.5 22.5t19.5 33.5t7 40.5z" />
    <glyph glyph-name="uni1052" unicode="&#x1052;" horiz-adv-x="1332" 
d="M939 387q0 39 -15 68.5t-38 55t-49 50.5t-49 56t-38 71.5t-15 97.5t18.5 105t51.5 83t79.5 54.5t102.5 19.5q32 0 66.5 -4.5t67 -14.5t61.5 -26t50 -40l-98 -171q-13 12 -27 22q-13 8 -29 15.5t-36 7.5q-32 0 -48 -16.5t-16 -42.5q0 -30 17.5 -53t43.5 -45l56 -47t56 -59
t43.5 -80.5t17.5 -112.5q0 -89 -35.5 -163.5t-101.5 -128t-160.5 -83.5t-213.5 -30q-134 0 -243 41.5t-186 114.5t-119.5 172.5t-42.5 216.5q0 79 18.5 154t52 142t79 124t99.5 101l175 -190q-27 -27 -54 -60.5t-48.5 -74.5t-35 -89.5t-13.5 -105.5q0 -55 20.5 -110
t60.5 -99.5t99.5 -72t137.5 -27.5q61 0 106 15t74.5 39.5t43.5 56t14 63.5z" />
    <glyph glyph-name="uni1053" unicode="&#x1053;" horiz-adv-x="1262" 
d="M631 213q61 0 106 15t74.5 39.5t43.5 56t14 63.5q0 39 -13.5 68.5t-34 55t-44.5 50.5t-44.5 56t-34 71.5t-13.5 97.5t18.5 105t51.5 83t79.5 54.5t102.5 19.5q32 0 65 -4.5t63.5 -14.5t58 -26t48.5 -40l-98 -171q-10 12 -22 22q-11 8 -25.5 15.5t-34.5 7.5
q-26 0 -45 -16.5t-19 -42.5q0 -30 16 -53t39.5 -45l51.5 -47t51.5 -59t39.5 -80.5t16 -112.5q0 -89 -35.5 -163.5t-101.5 -128t-160.5 -83.5t-213.5 -30t-213.5 30t-160.5 83.5t-101.5 128t-35.5 163.5q0 66 16 112.5t39.5 80.5t51.5 59l51.5 47t39.5 45t16 53
q0 26 -18.5 42.5t-45.5 16.5q-20 0 -35 -7.5t-26 -15.5q-12 -10 -21 -22l-98 171q21 24 48.5 40t58 26t63.5 14.5t65 4.5q56 0 102.5 -19.5t79.5 -54.5t51.5 -83t18.5 -105t-13.5 -97.5t-34 -71.5t-44.5 -56t-44.5 -50.5t-34 -55t-13.5 -68.5q0 -32 14 -63.5t43.5 -56
t74 -39.5t106.5 -15z" />
    <glyph glyph-name="uni1054" unicode="&#x1054;" horiz-adv-x="1241" 
d="M110 510q0 123 40.5 222t112.5 169.5t171 108.5t216 38q105 0 192.5 -34t151.5 -92t103.5 -134.5t48.5 -160.5q-32 -35 -74.5 -64.5t-94.5 -51t-112 -33.5t-127 -12q-106 0 -191.5 37.5t-151.5 99.5q-12 -44 -12 -92q0 -51 14.5 -103.5t46.5 -96t82.5 -71t123.5 -27.5
q48 0 87 13t69.5 35.5t54 53t40.5 65.5l220 -112q-31 -65 -76 -118.5t-104 -92t-132 -60t-159 -21.5q-120 0 -219.5 39.5t-171 110.5t-110.5 169t-39 215zM650 811q-45 0 -86 -15t-75 -43q42 -49 105.5 -83.5t144.5 -34.5q42 0 79.5 9.5t69.5 26.5q-35 61 -93 100.5
t-145 39.5z" />
    <glyph glyph-name="uni1055" unicode="&#x1055;" horiz-adv-x="1283" 
d="M670 811q-45 0 -83 -15t-72 -43q42 -49 100.5 -83.5t139.5 -34.5q42 0 81.5 9.5t71.5 26.5q-35 61 -93 100.5t-145 39.5zM841 324q1 -27 6 -51t14.5 -41.5t23.5 -28t34 -10.5q31 0 51 32t26 93l192 -19q-5 -51 -19 -108t-43 -104.5t-75 -79t-113 -31.5q-36 0 -64.5 9.5
t-51 25.5t-39 36.5t-28.5 43.5h-4q-13 -23 -35.5 -43.5t-51 -36.5t-62.5 -25.5t-71 -9.5q-108 0 -187 41.5t-131 111t-77.5 160t-25.5 187.5q0 123 44 227.5t119.5 181t177.5 120t219 43.5q105 0 192.5 -34t151.5 -92t103.5 -134.5t48.5 -160.5q-32 -35 -76.5 -64.5t-99 -51
t-117 -33.5t-129.5 -12q-53 0 -99 11.5t-87.5 31t-77.5 46t-69 57.5l-8.5 -23.5t-10 -36t-8 -45t-3.5 -49.5q0 -79 15 -130t39.5 -81t54.5 -42t60 -12t53.5 10t40 28t26 42t10.5 51h161z" />
    <glyph glyph-name="uni105A" unicode="&#x105a;" horiz-adv-x="1211" 
d="M650 -24q-117 0 -216 38t-171 108.5t-112.5 169.5t-40.5 222q0 117 39 215t110.5 169t171 110.5t219.5 39.5q86 0 159 -21.5t132 -60t104 -92t76 -118.5l-220 -112q-17 35 -40.5 65.5t-54 53t-69.5 35.5t-87 13q-73 0 -123.5 -27.5t-82.5 -71t-46.5 -96t-14.5 -103.5
q0 -66 21 -121t57.5 -95t85 -62t103.5 -22q48 0 86.5 12.5t69.5 35t54.5 53t40.5 65.5l220 -112q-31 -65 -76 -118.5t-104 -92t-132 -59.5t-159 -21zM816 -954q-59 -32 -118 -32q-85 0 -142.5 24t-92 60.5t-49.5 80.5t-15 84q0 69 25 118t62.5 85t81 61.5l81 47.5t62.5 43
t25 47q0 36 -25.5 58t-61.5 22q-42 0 -65.5 -28.5t-23.5 -65.5h-230q0 45 18 96.5t57 95t99.5 72.5t145.5 29q94 0 155.5 -28t98 -70t51 -90.5t14.5 -88.5q0 -64 -25 -110t-62 -80.5t-81 -59.5l-81 -47t-62 -44.5t-25 -51.5q0 -32 21.5 -47t50.5 -15q18 0 37 5.5t33 13.5z
" />
    <glyph glyph-name="uni105B" unicode="&#x105b;" horiz-adv-x="1782" 
d="M651 1048q106 0 188.5 -33t138.5 -86t85 -120t29 -135q0 -41 -9 -71q32 -32 60 -69t48 -69q24 -37 43 -74l-172 -106q-11 22 -26 47l-30.5 47t-37.5 52q-10 -9 -30 -20t-47.5 -21.5t-62 -17.5t-73.5 -7q-46 0 -92.5 13.5t-84 39t-61 63t-23.5 85.5q0 44 17 81.5
t47.5 64.5t72.5 42.5t92 15.5q33 0 59.5 -4.5t46.5 -9.5q22 -6 40 -14q-17 29 -43 52q-23 20 -58.5 36t-87.5 16q-80 0 -136 -30.5t-92 -77.5t-52.5 -103t-16.5 -107q0 -66 22 -123.5t61.5 -100t94 -67t119.5 -24.5q46 0 80.5 6.5t58.5 14.5q27 9 48 21l148 -189
q-11 -8 -26 -18q-13 -8 -33 -18t-46 -19v-530q0 -52 17 -94.5t48 -72.5t74 -46.5t95 -16.5t95 16.5t74 46.5t48 72.5t17 94.5v1545h264v-1545q0 -52 -11.5 -107t-36.5 -107t-64 -98t-94.5 -80.5t-128 -54.5t-163.5 -20q-92 0 -164 20t-127.5 54.5t-94.5 80.5t-64 98
t-36.5 107t-11.5 107v496q-117 5 -215.5 45t-169.5 110t-111 166.5t-40 215.5q0 117 39.5 215t110.5 169t171 110.5t220 39.5zM853 561q-14 15 -30 26q-14 10 -32.5 18t-41.5 8q-40 0 -60 -14t-20 -35q0 -13 7 -22.5t18 -15.5t25 -8.5t29 -2.5q24 0 43.5 7t33.5 16
q16 10 28 23z" />
    <glyph glyph-name="uni105C" unicode="&#x105c;" horiz-adv-x="1299" 
d="M752.5 235q48.5 22 85 62t57.5 95t21 121q0 51 -14.5 103.5t-46 96t-82.5 71t-123 27.5q-73 0 -123.5 -27.5t-82.5 -71t-46.5 -96t-14.5 -103.5q0 -66 21 -121t57.5 -95t85 -62t103.5 -22q54 0 102.5 22zM868.5 1008q99.5 -40 171 -111t110.5 -169t39 -215
q0 -123 -40.5 -222t-112.5 -169t-171 -108t-215 -38q-117 0 -216 38t-171 108t-112.5 169t-40.5 222q0 117 39 215t110.5 169t171 111t219.5 40q119 0 218.5 -40zM460 512q0 39 14 74.5t39 61.5t60 41.5t76 15.5q40 0 75 -15.5t60 -41.5t39 -61.5t14 -74.5t-14 -74.5
t-39 -61.5t-60 -41.5t-75 -15.5q-41 0 -76 15.5t-60 41.5t-39 61.5t-14 74.5zM552 512q0 -21 7 -40.5t19.5 -33.5t30.5 -22t40 -8q42 0 68.5 30t26.5 74t-26.5 74.5t-68.5 30.5q-22 0 -40 -8.5t-30.5 -22.5t-19.5 -33.5t-7 -40.5z" />
    <glyph glyph-name="uni105D" unicode="&#x105d;" horiz-adv-x="1332" 
d="M507 -549q-62 0 -93 -25.5t-31 -63.5q0 -28 7.5 -44t25.5 -28t47.5 -18.5t73.5 -6.5h86q52 0 95 16.5t74 46.5t48 72.5t17 94.5v510q-45 -14 -92.5 -21.5t-98.5 -7.5q-120 0 -222 41.5t-176.5 114.5t-116 172.5t-41.5 216.5q0 79 18.5 154t52 142t79 124t99.5 101
l175 -190q-27 -27 -54 -60.5t-48.5 -74.5t-35 -89.5t-13.5 -105.5q0 -27 3 -54q54 51 122 82t158 31q89 0 157.5 -29t122.5 -78q3 24 3 48q0 57 -13.5 105.5t-35 89.5t-48.5 74.5t-54 60.5l175 190q54 -44 99.5 -101t79 -124t52 -142t18.5 -154q0 -94 -26.5 -176t-74.5 -150
v-700q0 -52 -11.5 -107t-36.5 -107t-64 -98t-94.5 -80.5t-128 -54.5t-163.5 -20h-89q-100 0 -179 24t-133.5 68t-83 105.5t-28.5 137.5q0 75 30 132t80.5 95.5t116.5 57.5t137 19q46 0 88 -10.5t74 -22.5q38 -14 71 -32l-73 -198q-19 12 -40 23q-18 9 -41 16.5t-46 7.5z
M666 213q64 0 112 21.5t83 56.5q-37 38 -85.5 61t-108.5 23q-51 0 -102.5 -21.5t-93.5 -63.5q35 -35 83 -56t112 -21z" />
    <glyph glyph-name="uni1061" unicode="&#x1061;" horiz-adv-x="1351" 
d="M853 21v-983h-484v237h220v704q-105 10 -193 55t-151.5 117t-99 169t-35.5 211q0 117 40.5 212t113.5 163t174 105t221 37q128 0 230 -40t173.5 -112t110 -172t38.5 -220v-1229h220v-237h-484v1466q0 59 -17.5 114.5t-53.5 98t-90 68.5t-127 26q-96 0 -156 -39.5
t-90 -100.5q116 -6 199.5 -56t137 -135t78.5 -201.5t25 -257.5zM585 221q-12 100 -59 162.5t-137 72.5q17 -94 69.5 -154.5t126.5 -80.5z" />
    <glyph glyph-name="uni1065" unicode="&#x1065;" horiz-adv-x="1211" 
d="M561 -24q-86 0 -159 21t-132 59.5t-104 92t-76 118.5l220 112q17 -35 40.5 -65.5t54.5 -53t69.5 -35t86.5 -12.5q55 0 103.5 22t85 62t57.5 95t21 121q0 51 -14.5 103.5t-46.5 96t-82.5 71t-123.5 27.5q-48 0 -87 -13t-69.5 -35.5t-54 -53t-40.5 -65.5l-220 112
q31 65 76 118.5t104 92t132 60t159 21.5q120 0 219.5 -39.5t171 -110.5t110.5 -169t39 -215q0 -123 -40.5 -222t-112.5 -169.5t-171 -108.5t-216 -38z" />
    <glyph glyph-name="uni1066" unicode="&#x1066;" horiz-adv-x="1332" 
d="M643 213q73 0 126 27.5t88 72t52 99.5t17 110q0 57 -13.5 105.5t-35 89.5t-48.5 74.5t-54 60.5l175 190q54 -44 99.5 -101t79 -124t52 -142t18.5 -154q0 -117 -41 -216.5t-114.5 -172.5t-175.5 -114.5t-225 -41.5q-120 0 -222 41.5t-176.5 114.5t-116 172.5t-41.5 216.5
q0 79 18.5 154t52 142t79 124t99.5 101l175 -190q-27 -27 -54 -60.5t-48.5 -74.5t-35 -89.5t-13.5 -105.5q0 -55 17 -110t52 -99.5t88 -72t126 -27.5zM776 16v-978h-474v236h220v742h254z" />
    <glyph glyph-name="uni106E" unicode="&#x106e;" horiz-adv-x="2663" 
d="M2290 530q0 54 -16 105t-49.5 90t-85.5 62.5t-125 23.5q-59 0 -107 -17.5t-84 -47.5t-61 -70t-37 -85q7 -41 7 -88q0 -79 -18.5 -154t-52 -142t-79 -124t-99.5 -101l-175 190q27 27 54 60.5t48.5 74.5t35 89.5t13.5 105.5q0 55 -17 110t-52 99.5t-88 72t-126 27.5
q-22 0 -43 -3q43 -65 66 -141.5t23 -163.5q0 -79 -18.5 -154t-52 -142t-79 -124t-99.5 -101l-175 190q27 27 54 60.5t48.5 74.5t35 89.5t13.5 105.5q0 55 -17 110t-52 99.5t-88 72t-126 27.5t-126 -27.5t-88 -72t-52 -99.5t-17 -110q0 -57 13.5 -105.5t35 -89.5t48.5 -74.5
t54 -60.5l-175 -190q-54 44 -99.5 101t-79 124t-52 142t-18.5 154q0 117 41 216.5t114.5 172.5t175.5 114.5t225 41.5q69 0 131.5 -14t119.5 -40q57 27 122 40.5t137 13.5q131 0 238.5 -48t182.5 -133q72 84 177.5 132.5t239.5 48.5q120 0 221 -37t174 -105t113.5 -163
t40.5 -212q0 -123 -40.5 -225t-112.5 -175.5t-171 -114t-216 -40.5q-46 0 -83.5 7t-63.5 15q-32 10 -56 23l75 219q19 -8 40 -14q18 -5 40.5 -9t46.5 -4q55 0 104 22t85.5 63.5t57.5 100t21 131.5z" />
    <glyph glyph-name="uni106F" unicode="&#x106f;" horiz-adv-x="2163" 
d="M1780 530q0 54 -16 105t-49.5 90t-85.5 62.5t-125 23.5q-58 0 -105 -16.5t-83.5 -45.5t-61 -68t-37.5 -84q2 -19 3.5 -37.5t1.5 -38.5q0 -117 -41 -216.5t-114.5 -172.5t-175.5 -114.5t-225 -41.5q-120 0 -222 41.5t-176.5 114.5t-116 172.5t-41.5 216.5q0 79 18.5 154
t52 142t79 124t99.5 101l175 -190q-27 -27 -54 -60.5t-48.5 -74.5t-35 -89.5t-13.5 -105.5q0 -55 17 -110t52 -99.5t88 -72t126 -27.5t126 27.5t88 72t52 99.5t17 110q0 57 -13.5 105.5t-35 89.5t-48.5 74.5t-54 60.5l175 190q78 -65 135 -151q72 73 171.5 115t224.5 42
q120 0 221 -37t174 -105t113.5 -163t40.5 -212q0 -123 -40.5 -225t-112.5 -175.5t-171 -114t-216 -40.5q-46 0 -83.5 7t-63.5 15q-32 10 -56 23l75 219q19 -8 40 -14q18 -5 40.5 -9t46.5 -4q55 0 104 22t85.5 63.5t57.5 100t21 131.5zM1701 16v-978h-474v236h220v742h254z
" />
    <glyph glyph-name="uni1070" unicode="&#x1070;" horiz-adv-x="2162" 
d="M1779 506q0 77 -21 134t-57.5 95t-85.5 57t-104 19q-24 0 -46.5 -4.5t-40.5 -9.5q-21 -6 -40 -13l-75 219q24 12 56 22q26 8 63.5 15.5t83.5 7.5q117 0 216 -36t171 -105t112.5 -170.5t40.5 -231.5q0 -117 -40.5 -214t-113.5 -167t-174 -109t-221 -39q-134 0 -240 48
t-178 133q-78 -85 -193 -133t-261 -48q-119 0 -213.5 30t-160.5 83.5t-101.5 128t-35.5 163.5q0 66 17.5 112.5t43.5 80.5t56 59l56 47t43.5 45t17.5 53q0 26 -16 42.5t-48 16.5q-20 0 -37 -7.5t-29 -15.5q-15 -10 -26 -22l-98 171q21 24 50 40t61.5 26t67 14.5t66.5 4.5
q56 0 102.5 -19.5t79.5 -54.5t51.5 -83t18.5 -105t-15 -97.5t-38 -71.5t-49 -56t-49 -50.5t-38 -55t-15 -68.5q0 -32 14 -63.5t43.5 -56t74 -39.5t106.5 -15q78 0 137.5 27.5t99.5 72t60.5 99.5t20.5 110q0 57 -13.5 105.5t-35 89.5t-48.5 74.5t-54 60.5l175 190
q54 -44 99.5 -101t79 -124t52 -142t18.5 -154q0 -23 -2 -45.5t-5 -45.5q12 -45 37 -84.5t61 -69t83.5 -46.5t106.5 -17q73 0 125 25.5t85.5 66.5t49.5 94t16 107zM1651 16v-978h-474v236h220v742h254z" />
    <glyph glyph-name="uni1075" unicode="&#x1075;" horiz-adv-x="1332" 
d="M393 637q0 -40 15 -69t38 -54.5t49 -50.5t49 -56t38 -71.5t15 -97.5t-18.5 -105t-51.5 -83t-79.5 -54.5t-102.5 -19.5q-32 0 -66.5 4.5t-67 14.5t-61.5 26t-50 40l98 171q11 -13 26 -23q12 -8 29 -15t37 -7q32 0 48 16.5t16 42.5q0 30 -17.5 53t-43.5 45l-56 47t-56 59
t-43.5 80.5t-17.5 112.5q0 89 35.5 163.5t101.5 128t160.5 83.5t213.5 30q133 0 242.5 -41.5t186.5 -114.5t119.5 -172.5t42.5 -216.5q0 -79 -18.5 -154t-52 -142t-79 -124t-99.5 -101l-175 190q27 27 54 60.5t48.5 74.5t35 89.5t13.5 105.5q0 55 -20.5 110t-60.5 99.5
t-99.5 72t-137.5 27.5q-62 0 -106.5 -15t-74 -39.5t-43.5 -56t-14 -63.5z" />
    <glyph glyph-name="uni1076" unicode="&#x1076;" horiz-adv-x="1241" 
d="M591 213q45 0 86 15t75 43q-42 49 -105.5 83.5t-144.5 34.5q-42 0 -79.5 -9.5t-69.5 -26.5q35 -61 93 -100.5t145 -39.5zM858 513q0 61 -15.5 115.5t-43 95t-66.5 64t-85 23.5q-34 0 -58 -14.5t-45 -36t-42.5 -46.5t-49.5 -46.5t-65.5 -36t-90.5 -14.5q-44 0 -85 15
t-72.5 44t-50.5 72.5t-19 99.5q0 47 13 84t29 63q18 30 43 53l143 -95q-8 -9 -14 -20q-5 -9 -9 -20t-4 -23q0 -18 10.5 -34t38.5 -16q21 0 39.5 15.5t38.5 38.5l44 50t55.5 50t72.5 38.5t97 15.5q100 0 185 -39t147 -109.5t97 -168.5t35 -217q0 -123 -40.5 -222
t-112.5 -169.5t-171 -108.5t-216 -38q-105 0 -192.5 34t-151.5 92t-103.5 134.5t-48.5 160.5q32 35 74.5 64.5t94 51t112 33.5t127.5 12q106 0 191.5 -37.5t151.5 -99.5q12 43 12 92z" />
    <glyph glyph-name="uni1077" unicode="&#x1077;" horiz-adv-x="1362" 
d="M646 811q-62 0 -107 -16.5t-74 -43t-43.5 -59.5t-14.5 -65q0 -39 14 -67.5t35 -53t46 -48t46 -53.5t35 -70t14 -97t-18.5 -105t-51.5 -83t-79.5 -54.5t-102.5 -19.5q-32 0 -66.5 4.5t-67 14.5t-61.5 26t-50 40l98 171q11 -13 26 -23q12 -8 29 -15t37 -7q32 0 48 16.5
t16 42.5q0 30 -16 53.5t-39.5 46.5t-51.5 48t-51.5 58t-39.5 76.5t-16 104.5q0 89 34.5 165t99.5 131.5t159 87t213 31.5q82 0 158.5 -19t144 -54.5t123 -85.5t96 -111t62.5 -132t22 -149q0 -93 -26 -174.5t-68.5 -148t-96 -117t-108.5 -81.5q-62 25 -118 73t-98.5 111
t-67.5 136t-25 148q0 106 30.5 192t92.5 151q-28 11 -58.5 17.5t-62.5 6.5zM979 496q0 42 -14.5 84.5t-40.5 80.5q-35 -40 -54.5 -95t-19.5 -121q0 -52 15 -101.5t44 -89.5q31 46 50.5 105t19.5 137z" />
    <glyph glyph-name="uni1078" unicode="&#x1078;" horiz-adv-x="2129" 
d="M383 530q0 -73 21 -131.5t57.5 -100t85.5 -63.5t104 -22q23 0 46 4t41 9q21 6 40 14l75 -219q-25 -13 -56 -23q-27 -8 -64 -15t-83 -7q-117 0 -216 40.5t-171 114t-112.5 175.5t-40.5 225q0 117 40.5 212t113.5 163t174 105t221 37q131 0 234.5 -46.5t175.5 -126.5
q72 81 176 127t234 46q120 0 219.5 -40t171 -111t110.5 -169t39 -215q0 -123 -40.5 -222t-112.5 -169t-171 -108t-216 -38q-116 0 -215 38t-171 108t-112.5 169t-40.5 222q0 22 1.5 43t3.5 41q-13 45 -37.5 84t-60.5 68t-83 45.5t-105 16.5q-73 0 -125 -23.5t-85.5 -62.5
t-49.5 -90t-16 -105zM1479 213q55 0 103.5 22t85 62t57.5 95t21 121q0 51 -14.5 103.5t-46.5 96t-82.5 71t-123.5 27.5q-72 0 -123 -27.5t-82.5 -71t-46 -96t-14.5 -103.5q0 -66 21 -121t57 -95t84.5 -62t103.5 -22z" />
    <glyph glyph-name="uni1079" unicode="&#x1079;" horiz-adv-x="2129" 
d="M2019 513q0 -123 -40.5 -222t-112.5 -169t-171 -108t-216 -38q-116 0 -215 38t-171 108t-112.5 169t-40.5 222q0 22 1.5 43t3.5 41q-13 45 -37.5 84t-60.5 68t-83 45.5t-105 16.5q-52 0 -93 -12t-72.5 -33.5t-54 -51t-35.5 -63.5q70 -3 138 -28.5t132 -73.5
q47 -36 83 -82t60 -98t36.5 -108.5t12.5 -113.5q0 -30 -2.5 -64.5t-10.5 -61.5q-25 -13 -56 -23q-27 -8 -64 -15t-83 -7q-117 0 -216 40.5t-171 114t-112.5 175.5t-40.5 225q0 117 40.5 212t113.5 163t174 105t221 37q131 0 234.5 -46.5t175.5 -126.5q72 81 176 127t234 46
q120 0 219.5 -40t171 -111t110.5 -169t39 -215zM1479 213q55 0 103.5 22t85 62t57.5 95t21 121q0 51 -14.5 103.5t-46.5 96t-82.5 71t-123.5 27.5q-72 0 -123 -27.5t-82.5 -71t-46 -96t-14.5 -103.5q0 -66 21 -121t57 -95t84.5 -62t103.5 -22zM656 213q-11 53 -39 104.5
t-70 83.5q-38 29 -78 41t-80 15q10 -57 34 -102.5t58.5 -77t78 -48t96.5 -16.5z" />
    <glyph glyph-name="uni107A" unicode="&#x107a;" horiz-adv-x="2159" 
d="M1211 515v-12q1 -58 20 -110.5t55 -92.5t89.5 -63.5t124.5 -23.5q73 0 125 23.5t85.5 62.5t49.5 90t16 105q0 73 -21 131.5t-57.5 99.5t-85.5 63.5t-104 22.5q-24 0 -46.5 -4.5t-40.5 -9.5q-21 -6 -40 -13l-75 219q24 12 56 22q26 8 63.5 15.5t83.5 7.5q117 0 216 -40.5
t171 -114t112.5 -175.5t40.5 -225q0 -117 -40.5 -212t-113.5 -163t-174 -105t-221 -37q-82 0 -154.5 18.5t-134.5 53.5v-773h220v-237h-484v1471q0 59 -17.5 113.5t-53.5 96.5t-90 67t-127 25t-125 -23.5t-85.5 -62.5t-49.5 -90t-16 -105q0 -73 21 -131.5t57.5 -100
t85.5 -63.5t104 -22q23 0 46 4t41 9q21 6 40 14l75 -219q-25 -13 -56 -23q-27 -8 -64 -15t-83 -7q-117 0 -216 40.5t-171 114t-112.5 175.5t-40.5 225q0 117 40.5 212t113.5 163t174 105t221 37q123 0 224.5 -41.5t174 -113.5t113 -169t40.5 -209z" />
    <glyph glyph-name="uni107B" unicode="&#x107b;" horiz-adv-x="2129" 
d="M1060 875q72 80 175.5 126.5t234.5 46.5q120 0 221 -37t174 -105t113.5 -163t40.5 -212q0 -123 -40.5 -225t-112.5 -175.5t-171 -114t-216 -40.5q-46 0 -83.5 7t-63.5 15q-32 10 -56 23q-8 27 -10.5 61.5t-2.5 64.5q0 57 12.5 113.5t36.5 108.5t60 98t83 82
q64 48 132 73.5t137 28.5q-13 34 -35 63.5t-53.5 51t-73 33.5t-92.5 12q-58 0 -105 -16.5t-83.5 -45.5t-61 -68t-37.5 -84q6 -41 6 -84q0 -123 -40.5 -222t-112.5 -169t-171 -108t-215 -38q-117 0 -216 38t-171 108t-112.5 169t-40.5 222q0 117 39 215t110.5 169t170.5 111
t219 40q131 0 235 -46t176 -127zM916 513q0 51 -14.5 103.5t-46 96t-82.5 71t-123 27.5q-73 0 -123.5 -27.5t-82.5 -71t-46.5 -96t-14.5 -103.5q0 -66 21 -121t57.5 -95t85 -62t103.5 -22t103.5 22t84.5 62t57 95t21 121zM1569 229.5q43 16.5 78 48t59 77t34 102.5
q-41 -3 -80.5 -15t-77.5 -41q-43 -32 -70.5 -83.5t-38.5 -104.5q53 0 96 16.5z" />
    <glyph glyph-name="uni107C" unicode="&#x107c;" horiz-adv-x="1989" 
d="M591 -24q-105 0 -192.5 34t-151.5 92t-103.5 134.5t-48.5 160.5q32 35 74.5 64.5t94 51t112 33.5t127.5 12q106 0 191.5 -37.5t151.5 -99.5q12 43 12 92q0 51 -14.5 103.5t-46.5 96t-82.5 71t-123.5 27.5q-48 0 -87 -13t-69.5 -35.5t-54 -53t-40.5 -65.5l-220 112
q31 65 76 118.5t104 92t132 60t159 21.5q63 0 120.5 -14.5t108.5 -39t94.5 -58t79.5 -72.5q36 39 80 72.5t95 58t108.5 39t120.5 14.5q86 0 159 -21.5t132 -60t104 -92t76 -118.5l-220 -112q-17 35 -40.5 65.5t-54 53t-69.5 35.5t-87 13q-73 0 -123.5 -27.5t-82.5 -71
t-46.5 -96t-14.5 -103.5q0 -49 12 -92q66 62 151.5 99.5t191.5 37.5q67 0 127 -12t112 -33.5t94.5 -51t74.5 -64.5q-9 -84 -48.5 -160.5t-103.5 -134.5t-151.5 -92t-192.5 -34q-62 0 -119 14t-108.5 38.5t-96 58t-80.5 72.5q-36 -39 -80.5 -72.5t-95.5 -58t-108 -38.5
t-119 -14zM1398 213q87 0 145 39.5t93 100.5q-32 17 -69.5 26.5t-79.5 9.5q-81 0 -144.5 -34.5t-105.5 -83.5q34 -28 75 -43t86 -15zM591 213q45 0 86 15t75 43q-42 49 -105.5 83.5t-144.5 34.5q-42 0 -79.5 -9.5t-69.5 -26.5q35 -61 93 -100.5t145 -39.5z" />
    <glyph glyph-name="uni107D" unicode="&#x107d;" horiz-adv-x="2080" 
d="M393 387q0 -32 14 -63.5t43.5 -56t74 -39.5t106.5 -15q78 0 137.5 27.5t99.5 72t60.5 99.5t20.5 110q0 57 -13.5 105.5t-35 89.5t-48.5 74.5t-54 60.5l175 190q36 -29 68.5 -69.5t60.5 -81.5q71 69 169 113t218 44q86 0 159 -21.5t132 -60t104 -92t76 -118.5l-220 -112
q-17 35 -40.5 65.5t-54 53t-69.5 35.5t-87 13q-73 0 -123.5 -27.5t-82.5 -71t-46.5 -96t-14.5 -103.5q0 -49 12 -92q66 62 151.5 99.5t191.5 37.5q67 0 127 -12t112 -33.5t94.5 -51t74.5 -64.5q-9 -84 -48.5 -160.5t-103.5 -134.5t-151.5 -92t-192.5 -34q-64 0 -122.5 14
t-111 39t-97.5 59.5t-81 75.5q-39 -41 -87 -75t-104.5 -59.5t-120.5 -39.5t-134 -14q-119 0 -213.5 30t-160.5 83.5t-101.5 128t-35.5 163.5q0 66 17.5 112.5t43.5 80.5t56 59l56 47t43.5 45t17.5 53q0 26 -16 42.5t-48 16.5q-20 0 -37 -7.5t-29 -15.5q-15 -10 -26 -22
l-98 171q21 24 50 40t61.5 26t67 14.5t66.5 4.5q56 0 102.5 -19.5t79.5 -54.5t51.5 -83t18.5 -105t-15 -97.5t-38 -71.5t-49 -56t-49 -50.5t-38 -55t-15 -68.5zM1489 213q87 0 145 39.5t93 100.5q-32 17 -69.5 26.5t-79.5 9.5q-81 0 -144.5 -34.5t-105.5 -83.5
q34 -28 75 -43t86 -15z" />
    <glyph glyph-name="uni107E" unicode="&#x107e;" horiz-adv-x="2080" 
d="M393 387q0 -32 14 -63.5t43.5 -56t74 -39.5t106.5 -15q78 0 137.5 27.5t99.5 72t60.5 99.5t20.5 110q0 57 -13.5 105.5t-35 89.5t-48.5 74.5t-54 60.5l175 190q36 -29 68.5 -69.5t60.5 -81.5q71 69 169 113t218 44q86 0 159 -21.5t132 -60t104 -92t76 -118.5l-220 -112
q-17 35 -40.5 65.5t-54 53t-69.5 35.5t-87 13q-73 0 -123.5 -27.5t-82.5 -71t-46.5 -96t-14.5 -103.5q0 -49 12 -92q66 62 151.5 99.5t191.5 37.5q67 0 127 -12t112 -33.5t94.5 -51t74.5 -64.5q-9 -84 -48.5 -160.5t-103.5 -134.5t-151.5 -92t-192.5 -34q-64 0 -122.5 14
t-111 39t-97.5 59.5t-81 75.5q-39 -41 -87 -75t-104.5 -59.5t-120.5 -39.5t-134 -14q-119 0 -213.5 30t-160.5 83.5t-101.5 128t-35.5 163.5q0 66 17.5 112.5t43.5 80.5t56 59l56 47t43.5 45t17.5 53q0 26 -16 42.5t-48 16.5q-20 0 -37 -7.5t-29 -15.5q-15 -10 -26 -22
l-98 171q21 24 50 40t61.5 26t67 14.5t66.5 4.5q56 0 102.5 -19.5t79.5 -54.5t51.5 -83t18.5 -105t-15 -97.5t-38 -71.5t-49 -56t-49 -50.5t-38 -55t-15 -68.5zM1489 213q87 0 145 39.5t93 100.5q-32 17 -69.5 26.5t-79.5 9.5q-81 0 -144.5 -34.5t-105.5 -83.5
q34 -28 75 -43t86 -15zM1652 16v-978h-474v236h220v742h254z" />
    <glyph glyph-name="uni107F" unicode="&#x107f;" horiz-adv-x="1332" 
d="M666 213q73 0 126 27.5t88 72t52 99.5t17 110q0 57 -13.5 105.5t-35 89.5t-48.5 74.5t-54 60.5l175 190q54 -44 99.5 -101t79 -124t52 -142t18.5 -154q0 -117 -41.5 -216.5t-116 -172.5t-176.5 -114.5t-222 -41.5q-123 0 -225 41.5t-175.5 114.5t-114.5 172.5t-41 216.5
q0 93 27.5 174.5t72 148t99.5 117t110 81.5q62 -25 120.5 -73t103.5 -111t72.5 -136t27.5 -148q0 -110 -38 -199t-108 -155q29 -7 69 -7zM383 522q0 -48 12.5 -95.5t38.5 -89.5q47 40 75 100.5t28 135.5q0 54 -19 105.5t-53 92.5q-35 -48 -58.5 -108.5t-23.5 -140.5z" />
    <glyph glyph-name="uni1080" unicode="&#x1080;" horiz-adv-x="2070" 
d="M1687 506q0 77 -21 134t-57.5 95t-85.5 57t-104 19q-24 0 -46.5 -4.5t-40.5 -9.5q-21 -6 -40 -13l-75 219q24 12 56 22q26 8 63.5 15.5t83.5 7.5q117 0 216 -36t171 -105t112.5 -170.5t40.5 -231.5q0 -117 -40.5 -214t-113.5 -167t-174 -109t-221 -39q-131 0 -234 46
t-175 126q-73 -83 -178 -127.5t-233 -44.5q-105 0 -192.5 34t-151.5 92t-103.5 134.5t-48.5 160.5q32 35 74.5 64.5t94 51t112 33.5t127.5 12q106 0 191.5 -37.5t151.5 -99.5q12 43 12 92q0 51 -14.5 103.5t-46.5 96t-82.5 71t-123.5 27.5q-48 0 -87 -13t-69.5 -35.5
t-54 -53t-40.5 -65.5l-220 112q31 65 76 118.5t104 92t132 60t159 21.5q120 0 219.5 -39.5t171 -110.5t110.5 -169t39 -215q0 -47 -6 -90q13 -44 37.5 -82.5t60.5 -67t83.5 -45t104.5 -16.5q73 0 125 25.5t85.5 66.5t49.5 94t16 107zM591 213q45 0 86 15t75 43
q-42 49 -105.5 83.5t-144.5 34.5q-42 0 -79.5 -9.5t-69.5 -26.5q35 -61 93 -100.5t145 -39.5z" />
    <glyph glyph-name="uni1081" unicode="&#x1081;" horiz-adv-x="1332" 
d="M666 811q-73 0 -126 -27.5t-88 -72t-52 -99.5t-17 -110q0 -57 13.5 -105.5t35 -89.5t48.5 -74.5t54 -60.5l-175 -190q-54 44 -99.5 101t-79 124t-52 142t-18.5 154q0 117 41 216.5t114.5 172.5t175.5 114.5t225 41.5q120 0 222 -41.5t176.5 -114.5t116 -172.5
t41.5 -216.5q0 -79 -18.5 -154t-52 -142t-79 -124t-99.5 -101l-175 190q27 27 54 60.5t48.5 74.5t35 89.5t13.5 105.5q0 55 -17 110t-52 99.5t-88 72t-126 27.5zM782 -150v-812h-474v236h220v576h254z" />
    <glyph glyph-name="uni108E" unicode="&#x108e;" horiz-adv-x="1299" 
d="M110 511q0 123 40.5 222t112.5 169t171 108t215 38q117 0 216 -38t171 -108t112.5 -169t40.5 -222q0 -117 -39 -215t-110.5 -169t-171 -111t-219.5 -40t-219 40t-170.5 111t-110.5 169t-39 215zM383 511q0 -51 14.5 -103.5t46 -96t82.5 -71t123 -27.5q73 0 123.5 27.5
t82.5 71t46.5 96t14.5 103.5q0 5 -0.5 15.5t-1.5 16.5q-52 -46 -116.5 -73t-148.5 -27q-83 0 -148 25t-117 69q-1 -7 -1 -13v-13zM649 811q-56 0 -104.5 -22.5t-84.5 -63.5q36 -35 83.5 -55.5t104.5 -20.5q49 0 98 20t91 58q-37 40 -85 62t-103 22z" />
    <glyph glyph-name="uniAA60" unicode="&#xaa60;" horiz-adv-x="2168" 
d="M666 811q-73 0 -126 -27.5t-88 -72t-52 -99.5t-17 -110q0 -57 13.5 -105.5t35 -89.5t48.5 -74.5t54 -60.5l-175 -190q-54 44 -99.5 101t-79 124t-52 142t-18.5 154q0 117 41 216.5t114.5 172.5t175.5 114.5t225 41.5q132 0 240.5 -49t183.5 -134q72 85 178 134t241 49
q120 0 221 -37t174 -105t113.5 -163t40.5 -212q0 -123 -40.5 -225t-112.5 -175.5t-171 -114t-216 -40.5q-46 0 -83.5 7t-63.5 15q-32 10 -56 23q-8 27 -10.5 61.5t-2.5 64.5q0 57 12.5 113.5t36.5 108.5t60 98t83 82q64 48 132 73.5t137 28.5q-13 34 -35 63.5t-53.5 51
t-73 33.5t-92.5 12q-61 0 -110.5 -18.5t-86 -50.5t-61 -74.5t-34.5 -90.5q2 -18 3.5 -36.5t1.5 -37.5q0 -79 -18.5 -154t-52 -142t-79 -124t-99.5 -101l-175 190q27 27 54 60.5t48.5 74.5t35 89.5t13.5 105.5q0 55 -17 110t-52 99.5t-88 72t-126 27.5zM1517 213
q48 0 91 16.5t78 48t59 77t34 102.5q-41 -3 -80.5 -15t-77.5 -41q-43 -32 -70.5 -83.5t-38.5 -104.5h5z" />
    <glyph glyph-name="uniAA61" unicode="&#xaa61;" horiz-adv-x="2138" 
d="M2028 513q0 -123 -40.5 -222t-112.5 -169t-171 -108t-215 -38q-118 0 -216.5 43t-170.5 113q-28 -41 -60.5 -81t-68.5 -69l-175 190q27 27 54 60.5t48.5 74.5t35 89.5t13.5 105.5q0 55 -20.5 110t-60.5 99.5t-99.5 72t-137.5 27.5q-62 0 -106.5 -15t-74 -39.5t-43.5 -56
t-14 -63.5q0 -40 15 -69t38 -54.5t49 -50.5t49 -56t38 -71.5t15 -97.5t-18.5 -105t-51.5 -83t-79.5 -54.5t-102.5 -19.5q-32 0 -66.5 4.5t-67 14.5t-61.5 26t-50 40l98 171q11 -13 26 -23q12 -8 29 -15t37 -7q32 0 48 16.5t16 42.5q0 30 -17.5 53t-43.5 45l-56 47t-56 59
t-43.5 80.5t-17.5 112.5q0 89 35.5 163.5t101.5 128t160.5 83.5t213.5 30q70 0 134.5 -15t120.5 -41.5t104 -62t87 -75.5q36 41 80.5 76.5t96.5 61.5t111 41t124 15q120 0 219 -40t170.5 -111t110.5 -169t39 -215zM1489 213q55 0 103.5 22t84.5 62t57 95t21 121
q0 51 -14.5 103.5t-46 96t-82.5 71t-123 27.5q-73 0 -123.5 -27.5t-82.5 -71t-46.5 -96t-14.5 -103.5q0 -66 21 -121t57.5 -95t85 -62t103.5 -22z" />
    <glyph glyph-name="uniAA62" unicode="&#xaa62;" horiz-adv-x="1596" 
d="M140 13v1011h264v-627q15 24 37 49t50.5 45.5t63 33.5t74.5 13q56 0 96.5 -24t72.5 -60t58 -78.5t53 -78.5t57.5 -60t70.5 -24q48 0 81.5 25.5t54.5 66.5t30.5 94t9.5 107q0 77 -17.5 134t-46.5 95t-66.5 57t-77.5 19q-24 0 -46.5 -4.5t-40.5 -9.5q-21 -6 -40 -13
l-75 219q24 12 56 22q26 8 63.5 15.5t83.5 7.5q96 0 183 -36t153 -105t105 -170.5t39 -231.5q0 -117 -31 -214t-90 -167t-144 -109t-194 -39q-74 0 -128.5 24t-96 60t-71 78.5l-52.5 78.5t-42 60t-38 24q-24 0 -48.5 -27.5t-49 -73t-49 -104l-48.5 -120.5z" />
    <glyph glyph-name="uniAA63" unicode="&#xaa63;" horiz-adv-x="2168" 
d="M2058 513q0 -123 -40.5 -222t-112.5 -169t-171 -108t-215 -38q-120 0 -220.5 44.5t-172.5 117.5q-38 -51 -83 -94t-90 -68q-62 25 -118 73t-98.5 111t-67.5 136t-25 148q0 106 30.5 192t92.5 151q-28 11 -58.5 17.5t-62.5 6.5q-62 0 -107 -16.5t-74 -43t-43.5 -59.5
t-14.5 -65q0 -40 14 -68t35 -52.5t46 -48t46 -53.5t35 -70t14 -97t-18.5 -105t-51.5 -83t-79.5 -54.5t-102.5 -19.5q-32 0 -66.5 4.5t-67 14.5t-61.5 26t-50 40l98 171q11 -13 26 -23q12 -8 29 -15t37 -7q32 0 48 16.5t16 42.5q0 30 -16 53.5t-39.5 46.5t-51.5 48t-51.5 58
t-39.5 76.5t-16 104.5q0 89 34.5 165t99.5 131.5t159 87t213 31.5q66 0 129.5 -16t121 -44t108.5 -65t93 -80q36 43 81 80.5t98.5 65t114 43.5t127.5 16q120 0 219 -40t170.5 -111t110.5 -169t39 -215zM1519 213q55 0 103.5 22t84.5 62t57 95t21 121q0 51 -14.5 103.5
t-46 96t-82.5 71t-123 27.5q-73 0 -123.5 -27.5t-82.5 -71t-46.5 -96t-14.5 -103.5q0 -66 21 -121t57.5 -95t85 -62t103.5 -22zM979 496q0 42 -14.5 84.5t-40.5 80.5q-35 -40 -54.5 -95t-19.5 -121q0 -52 15 -101.5t44 -89.5q31 46 50.5 105t19.5 137z" />
    <glyph glyph-name="uniAA64" unicode="&#xaa64;" horiz-adv-x="2139" 
d="M666 213q73 0 126 27.5t88 72t52 99.5t17 110q0 57 -13.5 105.5t-35 89.5t-48.5 74.5t-54 60.5l175 190q36 -30 69 -70.5t61 -81.5q71 70 169 114t217 44q120 0 219.5 -40t171 -111t110.5 -169t39 -215q0 -123 -40.5 -222t-112.5 -169t-171 -108t-215 -38
q-128 0 -232.5 49t-177.5 131q-37 -40 -82.5 -73t-97.5 -57t-111 -37t-123 -13q-120 0 -222 41.5t-176.5 114.5t-116 172.5t-41.5 216.5q0 79 18.5 154t52 142t79 124t99.5 101l175 -190q-27 -27 -54 -60.5t-48.5 -74.5t-35 -89.5t-13.5 -105.5q0 -55 17 -110t52 -99.5
t88 -72t126 -27.5zM1489 213q55 0 103.5 22t85 62t57.5 95t21 121q0 51 -14.5 103.5t-46 96t-82.5 71t-123 27.5q-73 0 -123.5 -27.5t-82.5 -71t-46.5 -96t-14.5 -103.5q0 -66 21 -121t57 -95t84.5 -62t103.5 -22z" />
    <glyph glyph-name="uniAA65" unicode="&#xaa65;" horiz-adv-x="2159" 
d="M1212 509v-1471h-484v237h220v773q-62 -35 -134.5 -53.5t-154.5 -18.5q-120 0 -221 37t-174 105t-113.5 163t-40.5 212q0 123 40.5 225t112.5 175.5t171 114t216 40.5q46 0 83 -7.5t64 -15.5q31 -10 56 -22l-75 -219q-19 7 -40 13q-18 5 -41 9.5t-46 4.5
q-55 0 -104 -22.5t-85.5 -63.5t-57.5 -99.5t-21 -131.5q0 -54 16 -105t49.5 -90t85.5 -62.5t125 -23.5q71 0 124 23.5t89 63.5t55 92.5t21 110.5v12q0 112 40.5 209t113 169t174 113.5t224.5 41.5q120 0 221 -37t174 -105t113.5 -163t40.5 -212q0 -123 -40.5 -225
t-112.5 -175.5t-171 -114t-216 -40.5q-46 0 -83.5 7t-63.5 15q-32 10 -56 23l75 219q19 -8 40 -14q18 -5 40.5 -9t46.5 -4q55 0 104 22t85.5 63.5t57.5 100t21 131.5q0 54 -16 105t-49.5 90t-85.5 62.5t-125 23.5t-127 -25t-90 -67t-53.5 -96.5t-17.5 -113.5z" />
    <glyph glyph-name="uniAA66" unicode="&#xaa66;" horiz-adv-x="2129" 
d="M1746 530q0 54 -16 105t-49.5 90t-85.5 62.5t-125 23.5q-58 0 -105 -16.5t-83.5 -45.5t-61 -68t-37.5 -84q6 -41 6 -84q0 -123 -40.5 -222t-112.5 -169t-171 -108t-215 -38q-117 0 -216 38t-171 108t-112.5 169t-40.5 222q0 117 39 215t110.5 169t170.5 111t219 40
q131 0 235 -46t176 -127q72 80 175.5 126.5t234.5 46.5q120 0 221 -37t174 -105t113.5 -163t40.5 -212q0 -123 -40.5 -225t-112.5 -175.5t-171 -114t-216 -40.5q-46 0 -83.5 7t-63.5 15q-32 10 -56 23l75 219q19 -8 40 -14q18 -5 40.5 -9t46.5 -4q55 0 104 22t85.5 63.5
t57.5 100t21 131.5zM916 513q0 51 -14.5 103.5t-46 96t-82.5 71t-123 27.5q-73 0 -123.5 -27.5t-82.5 -71t-46.5 -96t-14.5 -103.5q0 -66 21 -121t57.5 -95t85 -62t103.5 -22t103.5 22t84.5 62t57 95t21 121zM498 512q0 31 11 59t31.5 49t48 33.5t60.5 12.5t60.5 -12.5
t48 -33.5t31.5 -49t11 -59q0 -32 -11 -60t-31.5 -49t-48 -33t-60.5 -12t-60.5 12t-48 33t-31.5 49t-11 60z" />
    <glyph glyph-name="uniAA67" unicode="&#xaa67;" horiz-adv-x="2105" 
d="M1052 863q36 39 80 72.5t95 58.5t108 39.5t120 14.5q120 0 219.5 -40t171 -111t110.5 -169t39 -215q0 -123 -40.5 -222t-112.5 -169t-171 -108t-215 -38q-62 0 -119 14t-108.5 38.5t-96 58t-80.5 72.5q-36 -39 -80.5 -72.5t-95.5 -58t-108 -38.5t-118 -14q-117 0 -216 38
t-171 108t-112.5 169t-40.5 222q0 117 39 215t110.5 169t170.5 111t219 40q63 0 120.5 -14.5t108.5 -39.5t94.5 -58.5t79.5 -72.5zM1722 513q0 51 -14.5 103.5t-46 96t-82.5 71t-123 27.5q-73 0 -123.5 -27.5t-82.5 -71t-46.5 -96t-14.5 -103.5q0 -66 21 -121t57.5 -95
t85 -62t103.5 -22t103.5 22t84.5 62t57 95t21 121zM916 513q0 51 -14.5 103.5t-46 96t-82.5 71t-123 27.5q-73 0 -123.5 -27.5t-82.5 -71t-46.5 -96t-14.5 -103.5q0 -66 21 -121t57.5 -95t85 -62t103.5 -22t103.5 22t84.5 62t57 95t21 121zM498 512q0 31 11 59t31.5 49
t48 33.5t60.5 12.5t60.5 -12.5t48 -33.5t31.5 -49t11 -59q0 -32 -11 -60t-31.5 -49t-48 -33t-60.5 -12t-60.5 12t-48 33t-31.5 49t-11 60z" />
    <glyph glyph-name="uniAA68" unicode="&#xaa68;" horiz-adv-x="2129" 
d="M1060 875q72 80 175.5 126.5t234.5 46.5q120 0 221 -37t174 -105t113.5 -163t40.5 -212q0 -123 -40.5 -225t-112.5 -175.5t-171 -114t-216 -40.5q-46 0 -83.5 7t-63.5 15q-32 10 -56 23q-8 27 -10.5 61.5t-2.5 64.5q0 57 12.5 113.5t36.5 108.5t60 98t83 82
q64 48 132 73.5t137 28.5q-13 34 -35 63.5t-53.5 51t-73 33.5t-92.5 12q-58 0 -105 -16.5t-83.5 -45.5t-61 -68t-37.5 -84q6 -41 6 -84q0 -123 -40.5 -222t-112.5 -169t-171 -108t-215 -38q-117 0 -216 38t-171 108t-112.5 169t-40.5 222q0 117 39 215t110.5 169t170.5 111
t219 40q131 0 235 -46t176 -127zM916 513q0 51 -14.5 103.5t-46 96t-82.5 71t-123 27.5q-73 0 -123.5 -27.5t-82.5 -71t-46.5 -96t-14.5 -103.5q0 -66 21 -121t57.5 -95t85 -62t103.5 -22t103.5 22t84.5 62t57 95t21 121zM498 512q0 31 11 59t31.5 49t48 33.5t60.5 12.5
t60.5 -12.5t48 -33.5t31.5 -49t11 -59q0 -32 -11 -60t-31.5 -49t-48 -33t-60.5 -12t-60.5 12t-48 33t-31.5 49t-11 60zM1478 213q48 0 91 16.5t78 48t59 77t34 102.5q-41 -3 -80.5 -15t-77.5 -41q-43 -32 -70.5 -83.5t-38.5 -104.5h5z" />
    <glyph glyph-name="uniAA69" unicode="&#xaa69;" horiz-adv-x="2105" 
d="M1052 863q36 39 80 72.5t95 58.5t108 39.5t120 14.5q120 0 219.5 -40t171 -111t110.5 -169t39 -215q0 -123 -40.5 -222t-112.5 -169t-171 -108t-215 -38q-62 0 -119 14t-108.5 38.5t-96 58t-80.5 72.5q-36 -39 -80.5 -72.5t-95.5 -58t-108 -38.5t-118 -14q-117 0 -216 38
t-171 108t-112.5 169t-40.5 222q0 117 39 215t110.5 169t170.5 111t219 40q63 0 120.5 -14.5t108.5 -39.5t94.5 -58.5t79.5 -72.5zM916 513q0 51 -14.5 103.5t-46 96t-82.5 71t-123 27.5q-73 0 -123.5 -27.5t-82.5 -71t-46.5 -96t-14.5 -103.5q0 -66 21 -121t57.5 -95
t85 -62t103.5 -22t103.5 22t84.5 62t57 95t21 121zM1722 513q0 51 -14.5 103.5t-46 96t-82.5 71t-123 27.5q-48 0 -87 -12.5t-68.5 -34.5t-51 -51t-34.5 -62q69 -5 135 -29.5t129 -72.5t104.5 -111.5t64.5 -136.5q35 40 54.5 93.5t19.5 118.5zM498 512q0 31 11 59t31.5 49
t48 33.5t60.5 12.5t60.5 -12.5t48 -33.5t31.5 -49t11 -59q0 -32 -11 -60t-31.5 -49t-48 -33t-60.5 -12t-60.5 12t-48 33t-31.5 49t-11 60zM1456 213h5q-11 54 -39 104.5t-70 82.5q-39 29 -78.5 41.5t-80.5 15.5q9 -55 32.5 -100t58.5 -77t79 -49.5t93 -17.5z" />
    <glyph glyph-name="uniAA6A" unicode="&#xaa6a;" horiz-adv-x="2105" 
d="M1052 863q36 39 80 72.5t95 58.5t108 39.5t120 14.5q120 0 219.5 -40t171 -111t110.5 -169t39 -215q0 -123 -40.5 -222t-112.5 -169t-171 -108t-215 -38q-62 0 -119 14t-108.5 38.5t-96 58t-80.5 72.5q-36 -39 -80.5 -72.5t-95.5 -58t-108 -38.5t-118 -14q-117 0 -216 38
t-171 108t-112.5 169t-40.5 222q0 117 39 215t110.5 169t170.5 111t219 40q63 0 120.5 -14.5t108.5 -39.5t94.5 -58.5t79.5 -72.5zM916 513q0 51 -14.5 103.5t-46 96t-82.5 71t-123 27.5q-73 0 -123.5 -27.5t-82.5 -71t-46.5 -96t-14.5 -103.5q0 -66 21 -121t57.5 -95
t85 -62t103.5 -22t103.5 22t84.5 62t57 95t21 121zM1722 513q0 51 -14.5 103.5t-46 96t-82.5 71t-123 27.5q-48 0 -87 -12.5t-68.5 -34.5t-51 -51t-34.5 -62q69 -5 135 -29.5t129 -72.5t104.5 -111.5t64.5 -136.5q35 40 54.5 93.5t19.5 118.5zM1456 213h5q-11 54 -39 104.5
t-70 82.5q-39 29 -78.5 41.5t-80.5 15.5q9 -55 32.5 -100t58.5 -77t79 -49.5t93 -17.5z" />
    <glyph glyph-name="uniAA6B" unicode="&#xaa6b;" horiz-adv-x="1359" 
d="M262 1024q-2 -6 -3 -14q-3 -14 -3 -33q0 -29 8 -53t22 -44q75 76 178 119t229 43q120 0 222 -41.5t176.5 -114.5t116 -172.5t41.5 -216.5q0 -79 -18.5 -154t-52 -142t-79 -124t-99.5 -101l-175 190q27 27 54 60.5t48.5 74.5t35 89.5t13.5 105.5q0 55 -17 110t-52 99.5
t-88 72t-126 27.5q-51 0 -91.5 -14t-72.5 -37q50 -29 91 -68t70 -85t44.5 -98.5t15.5 -108.5q0 -75 -24 -140.5t-65.5 -119t-97 -93.5t-117.5 -65q-55 31 -110 81.5t-99.5 117t-72 148t-27.5 174.5q0 111 38 208q-60 46 -97.5 107t-37.5 144q0 15 1 27.5t3 21.5q2 11 4 19
h214zM410 496q0 -83 25 -145.5t62 -110.5q23 29 35 68t12 87q0 73 -34 123t-86 79q-8 -25 -11 -50.5t-3 -50.5z" />
    <glyph glyph-name="uniAA6C" unicode="&#xaa6c;" horiz-adv-x="2463" 
d="M1283 417q0 36 7 59.5t15 42.5t15 38.5t7 47.5q0 16 -6 31.5t-18 28.5t-30 21t-41 8q-24 0 -42 -8t-30 -21t-18 -29t-6 -31q0 -27 7 -47.5t15 -40.5t15 -43.5t7 -56.5q0 -89 -32.5 -169t-98 -140.5t-163 -96t-227.5 -35.5q-120 0 -221 38.5t-174 108.5t-113.5 166.5
t-40.5 213.5q0 123 37.5 223.5t106 172t164 110.5t212.5 39q46 0 81.5 -6t60.5 -14q29 -9 51 -20l-75 -219q-17 6 -35 11q-16 4 -37.5 7.5t-44.5 3.5q-49 0 -93.5 -20.5t-79 -60t-55 -96.5t-20.5 -130q0 -54 16.5 -106.5t50 -93.5t85.5 -66t124 -25q73 0 121 20.5t76.5 52
t39.5 68.5t11 69q0 31 -7 58.5t-15 53.5t-15 52.5t-7 55.5q0 78 36.5 132t91.5 87t119.5 48t120.5 15t121 -14.5t120 -47.5t91.5 -87t36.5 -133q0 -30 -7 -57.5t-15 -54t-15 -53t-7 -55.5q0 -32 11 -69t39.5 -68.5t76 -52t121.5 -20.5q72 0 124 25t85.5 66t50 93.5
t16.5 106.5q0 73 -20.5 130t-55 96.5t-79 60t-93.5 20.5q-24 0 -45 -3.5t-37 -7.5q-18 -5 -35 -11l-75 219q22 11 51 20q25 8 60.5 14t81.5 6q117 0 212.5 -39t164 -110.5t106 -172t37.5 -223.5q0 -117 -40.5 -213.5t-113.5 -166.5t-174 -108.5t-221 -38.5
q-130 0 -227.5 35.5t-163 96t-98 140.5t-32.5 169z" />
    <glyph glyph-name="uniAA6D" unicode="&#xaa6d;" horiz-adv-x="1726" 
d="M123 740q0 64 24 120t66 98t98 66t120 24q85 0 154.5 -42t110.5 -110q18 18 50.5 44t78.5 50t104.5 41t127.5 17q120 0 222.5 -37t177.5 -105t117 -163t42 -212q0 -123 -40.5 -225t-112.5 -175.5t-171 -114t-216 -40.5q-46 0 -83.5 7t-63.5 15q-32 10 -56 23l75 219
q19 -8 40 -14q18 -5 40.5 -9t46.5 -4q55 0 104 22t85.5 63.5t57.5 100t21 131.5q0 54 -16 105t-49.5 90t-85.5 62.5t-125 23.5q-50 0 -92.5 -11.5t-76.5 -29t-60 -39.5t-42 -43v-1207q0 -52 -11.5 -107t-36.5 -107t-64 -98t-94.5 -80.5t-128 -54.5t-163.5 -20q-92 0 -164 20
t-127.5 54.5t-94.5 80.5t-64 98t-36.5 107t-11.5 107v22h264v-22q0 -52 17 -94.5t48 -72.5t74 -46.5t95 -16.5t95 16.5t74 46.5t48 72.5t17 94.5v968q-49 -17 -101 -17q-64 0 -120 24t-98 66t-66 98t-24 120zM327 740q0 -21 8 -40t22 -32.5t33 -21.5t40 -8q41 0 70.5 27.5
t31.5 69.5v9q-1 21 -9.5 38.5t-22 31t-32 21t-38.5 7.5q-21 0 -40 -8t-33 -21.5t-22 -32.5t-8 -40z" />
    <glyph glyph-name="uniAA6E" unicode="&#xaa6e;" horiz-adv-x="2187" 
d="M650 -24q-117 0 -216 40.5t-171 114t-112.5 175.5t-40.5 225q0 117 40.5 212t113.5 163t174 105t221 37q123 0 215.5 -34t160 -99.5t112 -162t71.5 -221.5q12 -59 32.5 -116t54 -102t83 -72.5t119.5 -27.5q73 0 125 25.5t85.5 66.5t49.5 94t16 107q0 77 -21 134t-57.5 95
t-85.5 57t-104 19q-24 0 -46.5 -4.5t-40.5 -9.5q-21 -6 -40 -13l-75 219q24 12 56 22q26 8 63.5 15.5t83.5 7.5q117 0 216 -36t171 -105t112.5 -170.5t40.5 -231.5q0 -117 -40.5 -214t-113.5 -167t-174 -109t-221 -39t-209.5 32.5t-155 96t-109.5 156.5t-72 215
q-15 66 -37 126.5t-56.5 107t-85 74t-123.5 27.5q-52 0 -93 -12t-72.5 -33.5t-54 -51t-35.5 -63.5q70 -3 138 -28.5t132 -73.5q47 -36 83 -82t60 -98t36.5 -108.5t12.5 -113.5q0 -30 -2.5 -64.5t-10.5 -61.5q-25 -13 -56 -23q-27 -8 -64 -15t-83 -7zM651 213h5
q-11 53 -39 104.5t-70 83.5q-38 29 -78 41t-80 15q10 -57 34 -102.5t58.5 -77t78 -48t91.5 -16.5z" />
    <glyph glyph-name="uniAA6F" unicode="&#xaa6f;" horiz-adv-x="1738" 
d="M1628 513q0 -123 -40.5 -222t-112.5 -169t-171 -108t-215 -38q-117 0 -216 38t-171 108t-112.5 169t-40.5 222v18t1 18l-146 146v-695h-264v999l248 37l236 -235q34 57 81.5 102.5t106.5 78t129 49.5t148 17q120 0 219 -40t170.5 -111t110.5 -169t39 -215zM1089 213
q55 0 103.5 22t84.5 62t57 95t21 121q0 51 -14.5 103.5t-46 96t-82.5 71t-123 27.5q-73 0 -123.5 -27.5t-82.5 -71t-46.5 -96t-14.5 -103.5q0 -66 21 -121t57.5 -95t85 -62t103.5 -22z" />
    <glyph glyph-name="uniAA71" unicode="&#xaa71;" horiz-adv-x="2163" 
d="M1780 530q0 54 -16 105t-49.5 90t-85.5 62.5t-125 23.5q-59 0 -107.5 -17.5t-85 -47.5t-60.5 -70.5t-36 -86.5q3 -23 5 -46t2 -46q0 -79 -18.5 -154t-52 -142t-79 -124t-99.5 -101l-175 190q27 27 54 60.5t48.5 74.5t35 89.5t13.5 105.5q0 55 -17 110t-52 99.5t-88 72
t-126 27.5q-35 0 -69 -8q70 -66 108 -154.5t38 -198.5q0 -75 -27.5 -148t-72.5 -136t-103.5 -111t-120.5 -73q-55 31 -110 81.5t-99.5 117t-72 148t-27.5 174.5q0 117 41 216.5t114.5 172.5t175.5 114.5t225 41.5q130 0 237 -47.5t182 -130.5q71 85 177 134.5t242 49.5
q120 0 221 -37t174 -105t113.5 -163t40.5 -212q0 -123 -40.5 -225t-112.5 -175.5t-171 -114t-216 -40.5q-46 0 -83.5 7t-63.5 15q-32 10 -56 23l75 219q19 -8 40 -14q18 -5 40.5 -9t46.5 -4q55 0 104 22t85.5 63.5t57.5 100t21 131.5zM383 496q0 -80 23.5 -140.5
t58.5 -108.5q34 40 53 92t19 106q0 75 -28 135.5t-75 100.5q-26 -42 -38.5 -89.5t-12.5 -95.5z" />
    <glyph glyph-name="uniAA72" unicode="&#xaa72;" horiz-adv-x="2743" 
d="M637 173q62 0 85.5 25t23.5 67q0 24 -7 59.5l-15 76.5t-15 86t-7 89q0 89 34 174t101 151t166.5 106.5t229.5 40.5q72 0 137 -15t121.5 -41.5t104 -62t86.5 -75.5q36 41 80.5 76.5t96.5 61.5t111 41t124 15q120 0 219 -40t170.5 -111t110.5 -169t39 -215
q0 -123 -40.5 -222t-112.5 -169t-171 -108t-215 -38q-118 0 -216.5 43t-170.5 113q-28 -41 -60.5 -81t-68.5 -69l-175 190q27 27 54 60.5t48.5 74.5t35 89.5t13.5 105.5q0 55 -20.5 110t-60.5 99.5t-99.5 72t-137.5 27.5q-75 0 -125 -25.5t-80 -62.5t-43 -79t-13 -74
q0 -59 7 -98.5t15 -71l15 -61.5t7 -72q0 -87 -36.5 -143.5t-91.5 -89.5t-119.5 -46t-120.5 -13q-135 0 -238.5 33t-174 93t-107 144t-36.5 185q0 51 7 97t19 86.5t27.5 74t33.5 58.5q100 -4 186 -34.5t149.5 -85.5t100 -134t36.5 -180q0 -14 -1.5 -32.5t-4 -38t-5.5 -37.5
t-6 -31zM2094 213q55 0 103.5 22t84.5 62t57 95t21 121q0 51 -14.5 103.5t-46 96t-82.5 71t-123 27.5q-73 0 -123.5 -27.5t-82.5 -71t-46.5 -96t-14.5 -103.5q0 -66 21 -121t57.5 -95t85 -62t103.5 -22zM320 527q-5 -17 -7.5 -35.5t-2.5 -35.5q0 -38 6 -71.5t21.5 -63
t42.5 -55t69 -45.5q2 8 4 20.5t3.5 26t2.5 26.5t1 22q0 41 -7.5 72.5t-24 57t-43 46.5t-63.5 39z" />
    <glyph glyph-name="uniAA73" unicode="&#xaa73;" horiz-adv-x="1576" 
d="M404 1036q20 -50 58 -130t88 -171.5t108 -184.5t119.5 -168t123 -122t116.5 -47q48 0 81.5 25.5t54.5 66.5t30.5 94t9.5 107q0 77 -17.5 134t-46.5 95t-66.5 57t-77.5 19q-24 0 -46.5 -4.5t-40.5 -9.5q-21 -6 -40 -13l-75 219q24 12 56 22q26 8 63.5 15.5t83.5 7.5
q96 0 183 -36t153 -105t105 -170.5t39 -231.5q0 -117 -31 -214t-90 -167t-144 -109t-194 -39q-74 0 -141 29.5t-127 76.5t-112 105.5t-94 118t-74.5 113.5l-54.5 91v-510h-264v999z" />
    <glyph glyph-name="uniAA7A" unicode="&#xaa7a;" horiz-adv-x="2591" 
d="M592 -972q-92 0 -164 20t-127.5 54.5t-94.5 80.5t-64 98t-36.5 107t-11.5 107v1792q0 52 11.5 107t36.5 107t64 98t94.5 80.5t128 54.5t163.5 20h526q52 0 95 16.5t74 46.5t48 72.5t17 94.5v138h264v-138q0 -52 -11.5 -107t-36.5 -107t-64 -98t-94.5 -80.5t-128 -54.5
t-163.5 -20h-526q-52 0 -95 -16.5t-74 -46.5t-48 -72.5t-17 -94.5v-1792q0 -52 17 -94.5t48 -72.5t74 -46.5t95 -16.5h526q52 0 95 16.5t74 46.5t48 72.5t17 103.5v1005q0 59 -17.5 113.5t-53.5 96.5t-90 67t-127 25t-125 -23.5t-85.5 -62.5t-49.5 -90t-16 -105
q0 -73 21 -131.5t57.5 -100t85.5 -63.5t104 -22q23 0 46 4t41 9q21 6 40 14l75 -219q-25 -13 -56 -23q-27 -8 -64 -15t-83 -7q-117 0 -216 40.5t-171 114t-112.5 175.5t-40.5 225q0 117 40.5 212t113.5 163t174 105t221 37q123 0 224.5 -42.5t174 -115.5t113 -171t40.5 -210
v-12q1 -57 20 -108.5t55 -90.5t89.5 -62t124.5 -23q73 0 125 23.5t85.5 62.5t49.5 90t16 105q0 73 -21 131.5t-57.5 99.5t-85.5 63.5t-104 22.5q-24 0 -46.5 -4.5t-40.5 -9.5q-21 -6 -40 -13l-75 219q24 12 56 22q26 8 63.5 15.5t83.5 7.5q117 0 216 -40.5t171 -114
t112.5 -175.5t40.5 -225q0 -117 -40.5 -212t-113.5 -163t-174 -105t-221 -37q-82 0 -154.5 18.5t-134.5 53.5v-553q0 -52 -11.5 -107t-36.5 -107t-64 -98t-94.5 -80.5t-128 -54.5t-163.5 -20h-526z" />
    <glyph glyph-name="uni103B" unicode="&#x103b;" horiz-adv-x="507" 
d="M-231 99v-680l334 -96v1703h264v-2038l-862 267v844h264z" />
    <glyph glyph-name="uni103C" unicode="&#x103c;" horiz-adv-x="544" 
d="M1116 2122q91 0 163.5 -20t128 -54.5t94.5 -80.5t64 -98t36.5 -107t11.5 -107v-46h-264v46q0 52 -17 94.5t-48 72.5t-74 46.5t-95 16.5h-478q-52 0 -95 -16.5t-74 -46.5t-48 -72.5t-17 -94.5v-2160q0 -52 17 -94.5t48 -72.5t74 -46.5t95 -16.5h478q52 0 95 16.5t74 46.5
t48 72.5t17 103.5v765h264v-774q0 -52 -11.5 -107t-36.5 -107t-64 -98t-94.5 -80.5t-127.5 -54.5t-164 -20h-478q-92 0 -164 20t-127.5 54.5t-94.5 80.5t-64 98t-36.5 107t-11.5 107v2160q0 52 11.5 107t36.5 107t64 98t94.5 80.5t127.5 54.5t164 20h478z" />
    <glyph glyph-name="uni103D" unicode="&#x103d;" 
d="M-1105 -526q0 95 36.5 179t99 146.5t146.5 99t179 36.5t178.5 -36.5t146 -99t99 -146.5t36.5 -179t-36.5 -178.5t-99 -146t-146 -99t-178.5 -36.5t-179 36.5t-146.5 99t-99 146t-36.5 178.5zM-875 -525q0 -46 18.5 -88.5t50 -74t73.5 -50t88 -18.5q48 0 90 18.5t73.5 50
t49.5 74t18 88.5q0 47 -18 89t-49.5 73.5t-73.5 49.5t-90 18q-46 0 -88 -18t-73.5 -49.5t-50 -73.5t-18.5 -89z" />
    <glyph glyph-name="uni103E" unicode="&#x103e;" 
d="M-516 16v-978h-474v236h220v742h254z" />
    <glyph glyph-name="uni105E" unicode="&#x105e;" 
d="M-516 16v-293q80 -17 148.5 -40.5t119.5 -45.5q60 -26 109 -53l-142 -208q-28 17 -64 35q-31 15 -74 32.5t-97 32.5v-95q0 -69 -20.5 -135t-64.5 -117.5t-112 -83t-163 -31.5t-163.5 28t-112.5 75.5t-64.5 109t-20.5 127.5q0 73 27.5 140.5t84.5 121t145 88t210 40.5v272
h254zM-970 -638q0 -55 28.5 -83t68.5 -28q22 0 40.5 9t32.5 23.5t22 34t8 56.5v133q-90 -5 -145 -42.5t-55 -102.5z" />
    <glyph glyph-name="uni105F" unicode="&#x105f;" 
d="M-516 16v-525q-24 7 -53 13q-25 5 -59 9t-75 4q-132 0 -199.5 -34t-67.5 -93q0 -38 18.5 -64.5t48.5 -42.5t71.5 -24t88.5 -8q98 0 175.5 18.5t132.5 41.5q64 26 113 60l131 -192q-68 -47 -151 -83q-71 -31 -167 -56.5t-210 -25.5q-135 0 -233 32.5t-161.5 86.5
t-93.5 124.5t-30 147.5q0 57 23 116.5t77 109.5t143.5 84t223.5 39v262h254z" />
    <glyph glyph-name="uni1060" unicode="&#x1060;" 
d="M-666 -726h359v-236h-723l-10 15l441 880h264z" />
    <glyph glyph-name="uni1082" unicode="&#x1082;" 
d="M-306 -663l194 -137q-37 -53 -90 -93q-23 -18 -51.5 -34.5t-63 -29.5t-75 -21t-87.5 -8q-90 0 -159.5 17.5t-121 48.5t-86.5 72.5t-56.5 89.5t-31 100t-9.5 103q0 73 18 133.5t47.5 108.5t67.5 85t77 64q92 64 210 97l86 -237q-67 -17 -120 -50q-23 -14 -44 -33
t-38 -43.5t-27 -55t-10 -77.5q0 -41 11 -72.5t34 -56.5t57 -41t81 -16q51 0 86 13t58 30q26 18 43 43z" />
    <glyph glyph-name="uniAA70" unicode="&#xaa70;" horiz-adv-x="758" 
d="M823 1693q-93 50 -202.5 84t-241.5 34q-126 0 -237 -31t-207 -87l-105 152q113 78 255 122t294 44q75 0 150 -12.5t145.5 -35t135 -52.5t118.5 -66zM823 1320q-90 67 -200.5 106.5t-243.5 39.5q-126 0 -236 -37.5t-208 -108.5l-105 149q49 45 112.5 81.5t135.5 62
t149 39.5t152 14t152 -14.5t148.5 -40.5t135 -62.5t113.5 -79.5z" />
    <glyph glyph-name="uni1021" unicode="&#x1021;" horiz-adv-x="1978" 
d="M761 299q0 22 -8.5 38.5t-22 28.5t-31 20t-35.5 14q-43 12 -97 15v197h1q1 0 16 0.5t36.5 4t46 10t45.5 19t35 32t14 47.5q0 19 -11 41t-34.5 41t-60.5 31.5t-88 12.5q-55 0 -93 -12.5t-61.5 -31t-34 -40t-10.5 -38.5h-273q0 68 31.5 126.5t91.5 101t148 67t201 24.5
q117 0 211.5 -29.5t157.5 -83.5q79 50 171.5 81.5t191.5 31.5q120 0 224 -37t180.5 -105t120.5 -163t44 -212q0 -123 -40.5 -225t-112.5 -175.5t-171 -114t-216 -40.5q-46 0 -83.5 7t-63.5 15q-32 10 -56 23q-8 27 -10.5 61.5t-2.5 64.5q0 57 12.5 113.5t36.5 108.5t60 98
t83 82q63 48 128.5 72.5t134.5 29.5q-17 34 -43 63.5t-61.5 51t-79 33.5t-94.5 12q-70 0 -136 -21t-120 -58q0 -2 0.5 -4t0.5 -4q0 -40 -14 -72t-37 -57.5t-53.5 -45.5t-64.5 -35v-8q33 -13 64 -31.5t54 -43.5t37 -57.5t14 -73.5q0 -75 -35 -135t-97.5 -102t-148 -64.5
t-186.5 -22.5q-113 0 -201 24t-148 67t-91.5 101.5t-31.5 126.5h273q0 -17 10.5 -38.5t34 -40t61.5 -31t93 -12.5q51 0 88 12.5t60.5 31.5t34.5 41t11 41zM1327 213q48 0 91 16.5t78 48t59 77t34 102.5q-41 -3 -80.5 -15t-77.5 -41q-43 -32 -70.5 -83.5t-38.5 -104.5h5z" />
    <glyph glyph-name="uni1022" unicode="&#x1022;" horiz-adv-x="2163" 
d="M1780 530q0 54 -16 105t-49.5 90t-85.5 62.5t-125 23.5q-59 0 -107 -17.5t-84 -47.5t-61 -70t-37 -85q7 -41 7 -88q0 -79 -18.5 -154t-52 -142t-79 -124t-99.5 -101l-175 190q27 27 54 60.5t48.5 74.5t35 89.5t13.5 105.5q0 55 -20.5 110t-60.5 99.5t-99.5 72
t-137.5 27.5q-62 0 -106.5 -15t-74 -39.5t-43.5 -56t-14 -63.5q0 -40 15 -69t38 -54.5t49 -50.5t49 -56t38 -71.5t15 -97.5t-18.5 -105t-51.5 -83t-79.5 -54.5t-102.5 -19.5q-32 0 -66.5 4.5t-67 14.5t-61.5 26t-50 40l98 171q11 -13 26 -23q12 -8 29 -15t37 -7
q32 0 48 16.5t16 42.5q0 30 -17.5 53t-43.5 45l-56 47t-56 59t-43.5 80.5t-17.5 112.5q0 89 35.5 163.5t101.5 128t160.5 83.5t213.5 30q146 0 261.5 -49t193.5 -134q71 85 177 134t241 49q120 0 221 -37t174 -105t113.5 -163t40.5 -212q0 -123 -40.5 -225t-112.5 -175.5
t-171 -114t-216 -40.5q-46 0 -83.5 7t-63.5 15q-32 10 -56 23l75 219q19 -8 40 -14q18 -5 40.5 -9t46.5 -4q55 0 104 22t85.5 63.5t57.5 100t21 131.5z" />
    <glyph glyph-name="uni1023" unicode="&#x1023;" horiz-adv-x="2162" 
d="M949 503q0 55 -17.5 110t-53 99t-88.5 71.5t-124 27.5q-73 0 -126 -27.5t-88 -72t-52 -99.5t-17 -110q0 -57 13.5 -105.5t35 -89.5t48.5 -74.5t54 -60.5l-175 -190q-54 44 -99.5 101t-79 124t-52 142t-18.5 154q0 117 41 216.5t114.5 172.5t175.5 114.5t225 41.5
q64 0 123.5 -15.5t112 -43t97.5 -66.5t82 -87q36 48 81 87t97.5 66.5t112 43t124.5 15.5q123 0 225 -41.5t175.5 -114.5t114.5 -172.5t41 -216.5q0 -79 -18.5 -154t-52 -142t-79 -124t-99.5 -101l-175 190q27 27 54 60.5t48.5 74.5t35 89.5t13.5 105.5q0 55 -17 110
t-52 99.5t-88 72t-126 27.5q-71 0 -124 -27.5t-88.5 -71.5t-53 -99t-17.5 -110v-257h-264v257zM962 -561q0 45 -15 85t-44 70t-73.5 47.5t-102.5 17.5q-52 0 -95 -17.5t-73.5 -48t-47.5 -70.5t-17 -92q0 -46 11 -85.5t29 -72.5t40 -60.5t44 -49.5l-173 -154
q-45 36 -82.5 82.5t-64.5 100.5t-42.5 115t-15.5 125q0 106 38.5 191.5t104.5 146t154.5 93.5t189.5 33q63 0 116 -12.5t97.5 -35.5t81.5 -54.5t67 -70.5q30 39 66.5 70.5t81 54.5t98 35.5t116.5 12.5q101 0 189.5 -33t154.5 -93.5t104.5 -146t38.5 -191.5q0 -49 -8.5 -85
t-22.5 -70h129v-237h-336l-140 123q22 22 44 49.5t40 60.5t29 72.5t11 85.5q0 52 -16 92t-46 70.5t-73.5 48t-97.5 17.5q-59 0 -103 -17.5t-73 -47.5t-44 -70t-15 -85v-214h-254v214z" />
    <glyph glyph-name="uni1024" unicode="&#x1024;" horiz-adv-x="2614" 
d="M1789 530q0 54 -16.5 105t-51 90t-87 62.5t-125.5 23.5q-61 0 -110.5 -18.5t-86 -50.5t-61 -74.5t-34.5 -90.5q2 -18 3.5 -36.5t1.5 -37.5q0 -79 -18.5 -154t-52 -142t-79 -124t-99.5 -101l-175 190q27 27 54 60.5t48.5 74.5t35 89.5t13.5 105.5q0 55 -17 110t-52 99.5
t-88 72t-126 27.5t-126 -27.5t-88 -72t-52 -99.5t-17 -110q0 -57 13.5 -105.5t35 -89.5t48.5 -74.5t54 -60.5l-175 -190q-54 44 -99.5 101t-79 124t-52 142t-18.5 154q0 117 41 216.5t114.5 172.5t175.5 114.5t225 41.5q132 0 240.5 -49t183.5 -134q72 85 178 134t241 49
q120 0 220 -37t172 -105t112 -163t40 -212v-1036q0 -52 -11.5 -107t-36.5 -107t-64 -98t-94.5 -80.5t-128 -54.5t-163.5 -20h-1001q-100 0 -179 22.5t-133.5 65t-83 103t-28.5 136.5q0 75 39 133.5t112.5 98t180.5 60t242 20.5q152 0 281.5 -17t226.5 -37q113 -24 205 -54
l-73 -210q-78 28 -175 51q-83 19 -195.5 35t-246.5 16q-159 0 -241.5 -24.5t-82.5 -72.5q0 -28 7.5 -42.5t25.5 -25t47.5 -16t73.5 -5.5h998q52 0 95 16.5t74 46.5t48 72.5t17 94.5v1035zM2343 1695q-17 24 -43 43q-23 16 -58 29.5t-86 13.5q-47 0 -81 -16t-57 -41
t-34 -56.5t-11 -82.5q0 -48 20 -87.5t48.5 -71t59.5 -54.5t54 -38q82 -54 142.5 -107.5t99.5 -109t58 -116t19 -129.5v-1834h-264v1824q0 48 -20 87.5t-50 73t-66 61.5l-68 51l-57 39.5t-65.5 49t-65 62t-56.5 78.5t-40.5 99.5t-15.5 123.5q0 77 27 154t82.5 138.5
t141.5 100t203 38.5q47 0 88 -8t76 -21t64.5 -30t53.5 -34q55 -41 95 -93z" />
    <glyph glyph-name="uni1025" unicode="&#x1025;" horiz-adv-x="1211" 
d="M568 -972q-92 0 -162.5 20t-124 54.5t-90 80.5t-59 98t-32.5 107t-10 107v772l220 112q17 -35 40.5 -65.5t54.5 -53t69.5 -35t86.5 -12.5q55 0 103.5 22t85 62t57.5 95t21 121q0 51 -14.5 103.5t-46.5 96t-82.5 71t-123.5 27.5q-48 0 -87 -13t-69.5 -35.5t-54 -53
t-40.5 -65.5l-220 112q31 65 76 118.5t104 92t132 60t159 21.5q120 0 219.5 -39.5t171 -110.5t110.5 -169t39 -215q0 -123 -40.5 -222t-112.5 -169.5t-171 -108.5t-216 -38q-113 0 -207 37v-518q0 -52 14 -94.5t41 -72.5t67 -46.5t92 -16.5h55q52 0 92 16.5t67 46.5t41 72.5
t14 94.5v108h264v-108q0 -52 -10 -107t-32.5 -107t-59 -98t-90 -80.5t-124.5 -54.5t-162 -20h-55z" />
    <glyph glyph-name="uni1026" unicode="&#x1026;" horiz-adv-x="1211" 
d="M568 -972q-92 0 -162.5 20t-124 54.5t-90 80.5t-59 98t-32.5 107t-10 107v772l220 112q17 -35 40.5 -65.5t54.5 -53t69.5 -35t86.5 -12.5q55 0 103.5 22t85 62t57.5 95t21 121q0 51 -14.5 103.5t-46.5 96t-82.5 71t-123.5 27.5q-48 0 -87 -13t-69.5 -35.5t-54 -53
t-40.5 -65.5l-220 112q31 65 76 118.5t104 92t132 60t159 21.5q120 0 219.5 -39.5t171 -110.5t110.5 -169t39 -215q0 -123 -40.5 -222t-112.5 -169.5t-171 -108.5t-216 -38q-113 0 -207 37v-518q0 -52 14 -94.5t41 -72.5t67 -46.5t92 -16.5h55q52 0 92 16.5t67 46.5t41 72.5
t14 94.5v108h264v-108q0 -52 -10 -107t-32.5 -107t-59 -98t-90 -80.5t-124.5 -54.5t-162 -20h-55zM1040 1556q0 -106 -35 -192t-97.5 -146.5t-148 -93.5t-185.5 -33q-101 0 -186.5 33t-148 93.5t-97.5 146.5t-35 192q0 101 34 186t95.5 146.5t147.5 96t190 34.5t189.5 -34.5
t147 -96t95.5 -146.5t34 -186zM804 1556q0 44 -12.5 89.5t-40 83t-71 61.5t-106.5 24t-107 -24t-71.5 -61.5t-40 -83t-12.5 -89.5v-14t1 -14q45 40 101.5 63.5t128.5 23.5t128.5 -21.5t101.5 -59.5v22zM574 1296q48 0 90 19.5t73 54.5q-32 30 -72.5 48t-89.5 18
q-42 0 -85 -17.5t-78 -49.5q32 -35 73 -54t89 -19z" />
    <glyph glyph-name="uni1027" unicode="&#x1027;" horiz-adv-x="1242" 
d="M673 861q-45 0 -82.5 -12.5t-68.5 -34.5q41 -36 97 -56.5t123 -20.5q40 0 77 9.5t69 32.5q-40 38 -94.5 60t-120.5 22zM110 513q0 117 41.5 215t116 169t178 111t227.5 40q172 0 292 -73.5t182 -203.5q-35 -48 -79 -87t-96 -67t-112 -43t-126 -15q-97 0 -178.5 27.5
t-143.5 79.5q-29 -76 -29 -153q0 -38 7.5 -77.5t21.5 -77.5q62 52 143.5 79.5t178.5 27.5q66 0 126 -15t112 -43t96 -67t79 -87q-62 -130 -182 -203.5t-292 -73.5q-124 0 -227.5 40t-178 111.5t-116 170t-41.5 215.5zM673 163q66 0 120.5 22t94.5 60q-32 23 -69 32.5
t-77 9.5q-67 0 -123 -20.5t-97 -56.5q31 -22 68.5 -34.5t82.5 -12.5z" />
    <glyph glyph-name="uni1028" unicode="&#x1028;" horiz-adv-x="1421" 
d="M791 -24q-76 0 -131 17t-91 47t-53 70.5t-17 87.5q0 49 19.5 85t48.5 63t63 46.5l63 36.5t48.5 33t19.5 36q0 17 -12.5 29.5t-35.5 12.5q-24 0 -41.5 -8.5t-29.5 -18.5q-14 -11 -24 -26l-111 117q37 48 93.5 78t116.5 30q55 0 99.5 -17.5t76 -46.5t48 -66t16.5 -77
q0 -50 -16 -84t-39.5 -58t-51.5 -40.5l-51.5 -30t-39.5 -27t-16 -32.5q0 -20 13.5 -29t33.5 -9q55 0 100.5 25t78.5 69.5t51 106t18 134.5q0 54 -20.5 105t-59.5 90t-96 62.5t-130 23.5t-133 -26t-103.5 -68.5t-67.5 -98t-24 -114.5v-942q0 -61 24 -117t67.5 -99t103.5 -69
t133 -26t130 23.5t96 62.5t59.5 90t20.5 105h273q0 -117 -45.5 -212.5t-124 -163.5t-184 -105t-225.5 -37q-128 0 -236.5 40t-187.5 111.5t-123.5 171t-44.5 219.5v948q0 120 46 220t127 172t191 112t238 40q130 0 235.5 -41t179.5 -111.5t114 -164.5t40 -200
q0 -123 -39.5 -225t-109 -175.5t-164.5 -114t-207 -40.5z" />
    <glyph glyph-name="uni1029" unicode="&#x1029;" horiz-adv-x="2548" 
d="M638 -972q-92 0 -164 20t-127.5 54.5t-94.5 80.5t-64 98t-36.5 107t-11.5 107v2160q0 52 11.5 107t36.5 107t64 98t94.5 80.5t127.5 54.5t164 20h1246q91 0 163.5 -20t128 -54.5t94.5 -80.5t64 -98t36.5 -107t11.5 -107v-46h-264v46q0 52 -17 94.5t-48 72.5t-74 46.5
t-95 16.5h-1246q-52 0 -95 -16.5t-74 -46.5t-48 -72.5t-17 -94.5v-2160q0 -52 17 -94.5t48 -72.5t74 -46.5t95 -16.5h1246q52 0 95 16.5t74 46.5t48 72.5t17 94.5v523q-52 -20 -109 -31t-120 -11q-129 0 -231.5 44.5t-173.5 122.5q-72 -79 -175.5 -123t-231.5 -44
q-86 0 -159 21.5t-132 60t-104 92t-76 118.5l220 112q17 -35 40.5 -65.5t54 -53t69.5 -35.5t87 -13q73 0 123.5 27.5t82.5 71t46.5 96t14.5 103.5q0 66 -21 121t-57.5 95t-85 62t-103.5 22q-48 0 -86.5 -12.5t-69.5 -35t-54.5 -53t-40.5 -65.5l-220 112q31 65 76 118.5
t104 92t132 59.5t159 21q117 0 216 -38t171 -108.5t112.5 -169.5t40.5 -222q0 -54 -9 -103q15 -41 40 -76.5t60.5 -61.5t80.5 -41t100 -15q73 0 125 25.5t85.5 66.5t49.5 94t16 107q0 77 -21 134t-57.5 95t-85.5 57t-104 19q-24 0 -46.5 -4.5t-40.5 -9.5q-21 -6 -40 -13
l-75 219q24 12 56 22q26 8 63.5 15.5t83.5 7.5q117 0 216 -36t171 -105t112.5 -170.5t40.5 -231.5q0 -69 -14.5 -131t-41.5 -117v-762q0 -52 -11.5 -107t-36.5 -107t-64 -98t-94.5 -80.5t-128 -54.5t-163.5 -20h-1246z" />
    <glyph glyph-name="uni102A" unicode="&#x102a;" horiz-adv-x="4689" 
d="M110 514q0 117 39 215t110.5 169t171 110.5t219.5 39.5q86 0 159 -21.5t132 -60t104 -92t76 -118.5l-220 -112q-17 35 -40.5 65.5t-54 53t-69.5 35.5t-87 13q-73 0 -123.5 -27.5t-82.5 -71t-46.5 -96t-14.5 -103.5q0 -49 12 -92q66 62 151.5 99.5t191.5 37.5
q67 0 127 -12t112 -33.5t94.5 -51t74.5 -64.5q-9 -84 -48.5 -160.5t-103.5 -134.5t-151.5 -92t-192.5 -34q-117 0 -216 38t-171 108.5t-112.5 169.5t-40.5 222zM650 213q87 0 145 39.5t93 100.5q-32 17 -69.5 26.5t-79.5 9.5q-81 0 -144.5 -34.5t-105.5 -83.5q34 -28 75 -43
t86 -15zM1808 -972q-92 0 -164 20t-127.5 54.5t-94.5 80.5t-64 98t-36.5 107t-11.5 107v2160q0 52 11.5 107t36.5 107t64 98t94.5 80.5t127.5 54.5t164 20h1246q91 0 163.5 -20t128 -54.5t94.5 -80.5t64 -98t36.5 -107t11.5 -107v-46h-264v46q0 52 -17 94.5t-48 72.5
t-74 46.5t-95 16.5h-1246q-52 0 -95 -16.5t-74 -46.5t-48 -72.5t-17 -94.5v-2160q0 -52 17 -94.5t48 -72.5t74 -46.5t95 -16.5h1246q52 0 95 16.5t74 46.5t48 72.5t17 94.5v523q-52 -20 -109 -31t-120 -11q-129 0 -231.5 44.5t-173.5 122.5q-72 -79 -175.5 -123t-231.5 -44
q-86 0 -159 21.5t-132 60t-104 92t-76 118.5l220 112q17 -35 40.5 -65.5t54 -53t69.5 -35.5t87 -13q73 0 123.5 27.5t82.5 71t46.5 96t14.5 103.5q0 66 -21 121t-57.5 95t-85 62t-103.5 22q-48 0 -86.5 -12.5t-69.5 -35t-54.5 -53t-40.5 -65.5l-220 112q31 65 76 118.5
t104 92t132 59.5t159 21q117 0 216 -38t171 -108.5t112.5 -169.5t40.5 -222q0 -54 -9 -103q15 -41 40 -76.5t60.5 -61.5t80.5 -41t100 -15q73 0 125 25.5t85.5 66.5t49.5 94t16 107q0 77 -21 134t-57.5 95t-85.5 57t-104 19q-24 0 -46.5 -4.5t-40.5 -9.5q-21 -6 -40 -13
l-75 219q24 12 56 22q26 8 63.5 15.5t83.5 7.5q117 0 216 -36t171 -105t112.5 -170.5t40.5 -231.5q0 -69 -14.5 -131t-41.5 -117v-762q0 -52 -11.5 -107t-36.5 -107t-64 -98t-94.5 -80.5t-128 -54.5t-163.5 -20h-1246zM4244 530q0 54 -16 105t-49.5 90t-85.5 62.5t-125 23.5
q-40 0 -77 -8.5t-70.5 -22.5t-62.5 -32t-54 -37q-58 -44 -105 -99l-158 169q58 74 137 133q33 25 74.5 49t90.5 43t105.5 30.5t119.5 11.5q120 0 221 -37t174 -105t113.5 -163t40.5 -212q0 -123 -40.5 -225t-112.5 -175.5t-171 -114t-216 -40.5q-46 0 -83.5 7t-63.5 15
q-32 10 -56 23l75 219q19 -8 40 -14q18 -5 40.5 -9t46.5 -4q55 0 104 22t85.5 63.5t57.5 100t21 131.5zM3716 1561q0 96 34 178.5t96.5 143t149 95t191.5 34.5q75 0 131.5 -15t99 -40t73.5 -57t56 -65l-160 -130q-10 15 -27 33t-41.5 33.5t-57 26t-74.5 10.5
q-64 0 -108.5 -22t-72 -57.5t-40 -79.5t-12.5 -88q0 -101 74 -167t209 -101l-66 -200q-96 23 -179 61t-144.5 95t-96.5 134t-35 178z" />
    <glyph glyph-name="uni102B" unicode="&#x102b;" horiz-adv-x="544" 
d="M-592 1545q0 52 11.5 107t36.5 107t64 98t94.5 80.5t127.5 54.5t164 20q91 0 163.5 -20t128 -54.5t94.5 -80.5t64 -98t36.5 -107t11.5 -107v-1545h-264v1545q0 52 -17 94.5t-48 72.5t-74 46.5t-95 16.5t-95 -16.5t-74 -46.5t-48 -72.5t-17 -94.5h-264z" />
    <glyph glyph-name="uni102C" unicode="&#x102c;" horiz-adv-x="927" 
d="M544 530q0 54 -16 105t-49.5 90t-85.5 62.5t-125 23.5q-40 0 -77 -8.5t-70.5 -22.5t-62.5 -32t-54 -37q-58 -44 -105 -99l-158 169q58 74 137 133q33 25 74.5 49t90.5 43t105.5 30.5t119.5 11.5q120 0 221 -37t174 -105t113.5 -163t40.5 -212q0 -123 -40.5 -225
t-112.5 -175.5t-171 -114t-216 -40.5q-46 0 -83.5 7t-63.5 15q-32 10 -56 23l75 219q19 -8 40 -14q18 -5 40.5 -9t46.5 -4q55 0 104 22t85.5 63.5t57.5 100t21 131.5z" />
    <glyph glyph-name="uni102D" unicode="&#x102d;" 
d="M-1105 1551q0 95 36.5 179t99 146.5t146.5 99t179 36.5t178.5 -36.5t146 -99t99 -146.5t36.5 -179t-36.5 -178.5t-99 -146t-146 -99t-178.5 -36.5t-179 36.5t-146.5 99t-99 146t-36.5 178.5zM-875 1552q0 -46 18.5 -88.5t50 -74t73.5 -50t88 -18.5q48 0 90 18.5t73.5 50
t49.5 74t18 88.5q0 47 -18 89t-49.5 73.5t-73.5 49.5t-90 18q-46 0 -88 -18t-73.5 -49.5t-50 -73.5t-18.5 -89z" />
    <glyph glyph-name="uni102E" unicode="&#x102e;" 
d="M-185 1556q0 -106 -35 -192t-97.5 -146.5t-148 -93.5t-185.5 -33q-101 0 -186.5 33t-148 93.5t-97.5 146.5t-35 192q0 101 34 186t95.5 146.5t147.5 96t190 34.5t189.5 -34.5t147 -96t95.5 -146.5t34 -186zM-421 1556q0 44 -12.5 89.5t-40 83t-71 61.5t-106.5 24
t-107 -24t-71.5 -61.5t-40 -83t-12.5 -89.5v-14t1 -14q45 40 101.5 63.5t128.5 23.5t128.5 -21.5t101.5 -59.5v22zM-651 1296q48 0 90 19.5t73 54.5q-32 30 -72.5 48t-89.5 18q-42 0 -85 -17.5t-78 -49.5q32 -35 73 -54t89 -19z" />
    <glyph glyph-name="uni102F" unicode="&#x102f;" 
d="M-516 16v-742h220v-236h-474v978h254z" />
    <glyph glyph-name="uni1030" unicode="&#x1030;" 
d="M-311 116v-842h220v-236h-474v1078h254zM-727 116v-1078h-254v1078h254z" />
    <glyph glyph-name="uni1031" unicode="&#x1031;" horiz-adv-x="1241" 
d="M110 514q0 117 39 215t110.5 169t171 110.5t219.5 39.5q86 0 159 -21.5t132 -60t104 -92t76 -118.5l-220 -112q-17 35 -40.5 65.5t-54 53t-69.5 35.5t-87 13q-73 0 -123.5 -27.5t-82.5 -71t-46.5 -96t-14.5 -103.5q0 -49 12 -92q66 62 151.5 99.5t191.5 37.5
q67 0 127 -12t112 -33.5t94.5 -51t74.5 -64.5q-9 -84 -48.5 -160.5t-103.5 -134.5t-151.5 -92t-192.5 -34q-117 0 -216 38t-171 108.5t-112.5 169.5t-40.5 222zM650 213q87 0 145 39.5t93 100.5q-32 17 -69.5 26.5t-79.5 9.5q-81 0 -144.5 -34.5t-105.5 -83.5q34 -28 75 -43
t86 -15z" />
    <glyph glyph-name="uni1032" unicode="&#x1032;" 
d="M-942 1847l647 -548l-165 -193l-647 547z" />
    <glyph glyph-name="uni1033" unicode="&#x1033;" 
d="M-807 1551q0 34 13 63.5t35 51.5t51.5 35t64.5 13q33 0 62.5 -13t51.5 -35t34.5 -51.5t12.5 -63.5q0 -33 -12.5 -62.5t-34.5 -51.5t-51.5 -35t-62.5 -13q-35 0 -64.5 13t-51.5 35t-35 51.5t-13 62.5zM-710 1551q0 -27 19.5 -46t46.5 -19q26 0 45.5 19t19.5 46
q0 28 -19.5 47t-45.5 19q-27 0 -46.5 -19t-19.5 -47zM-1105 1551q0 95 36.5 179t99 146.5t146.5 99t179 36.5t178.5 -36.5t146 -99t99 -146.5t36.5 -179t-36.5 -178.5t-99 -146t-146 -99t-178.5 -36.5t-179 36.5t-146.5 99t-99 146t-36.5 178.5zM-875 1552q0 -46 18.5 -88.5
t50 -74t73.5 -50t89 -18.5t89 18.5t73.5 50t49.5 74t18 88.5q0 47 -18 89t-49.5 73.5t-73.5 49.5t-89 18t-89 -18t-73.5 -49.5t-50 -73.5t-18.5 -89z" />
    <glyph glyph-name="uni1034" unicode="&#x1034;" 
d="M-175 1653l-647 -547l-165 193l647 548z" />
    <glyph glyph-name="uni1035" unicode="&#x1035;" 
d="M-1103 1552q0 100 34 184.5t96.5 146t149 95.5t191.5 34q75 0 138.5 -18.5t114.5 -51.5t90.5 -79.5t66.5 -102.5l-191 -97q-15 31 -35.5 57.5t-47.5 46t-60.5 30.5t-75.5 11q-64 0 -108.5 -23.5t-72 -61t-40 -83t-12.5 -89.5t10 -80q57 54 132 86t168 32q117 0 207.5 -39
t147.5 -99q-8 -73 -42 -138.5t-90 -115.5t-132 -79.5t-168 -29.5q-102 0 -188 33t-149 93.5t-98.5 146t-35.5 191.5zM-632 1292q75 0 125 34t82 87q-28 14 -61 22.5t-69 8.5q-71 0 -126.5 -29.5t-91.5 -72.5q30 -23 66 -36.5t75 -13.5z" />
    <glyph glyph-name="uni1056" unicode="&#x1056;" horiz-adv-x="1098" 
d="M537 -24q-80 0 -153 23t-134.5 63.5t-110 95.5t-79.5 120l220 112q13 -27 38 -58.5t59 -57.5t74.5 -43.5t85.5 -17.5q60 0 98.5 14.5t61 35.5t31 45.5t8.5 45.5q0 40 -28 69t-69.5 54.5t-90 51.5t-90 60.5t-69.5 80.5t-28 111q0 71 26 121.5t69 83t97 47.5t110 15
q61 0 111.5 -14.5t87.5 -31.5q43 -20 77 -46l-133 -170q-15 11 -33 21q-15 8 -35 14.5t-42 6.5q-29 0 -45.5 -11.5t-16.5 -31.5q0 -25 27.5 -45t68.5 -41.5t88.5 -49t88.5 -67.5t68.5 -96.5t27.5 -135.5q0 -67 -25.5 -133.5t-81.5 -120t-144.5 -87t-214.5 -33.5z" />
    <glyph glyph-name="uni1057" unicode="&#x1057;" horiz-adv-x="1219" 
d="M720 213q38 0 64 11t42.5 28.5t23.5 39t7 42.5q0 32 -16 58t-42.5 48t-60 42.5l-69 42t-69 46t-60 55t-42.5 68.5t-16 87q0 71 26 121.5t69 83t97 47.5t110 15q61 0 111.5 -14.5t87.5 -31.5q43 -20 77 -46l-133 -170q-15 11 -33 21q-15 8 -35 14.5t-42 6.5
q-29 0 -45.5 -11.5t-16.5 -31.5q0 -25 27.5 -47t68.5 -46.5l88.5 -55t88.5 -72.5t68.5 -98.5t27.5 -133.5q0 -56 -19 -118.5t-63 -115.5t-116 -87.5t-179 -34.5q-42 0 -80 8.5t-69 23.5t-54.5 35t-36.5 43h-4q-24 -45 -72.5 -77.5t-120.5 -32.5t-118 34.5t-74 86t-41 111.5
t-17 111l192 19q6 -61 26 -93t51 -32q19 0 35 10.5t27.5 28t18 41.5t7.5 51h171q1 -27 9.5 -51t24.5 -42t40.5 -28t57.5 -10z" />
    <glyph glyph-name="uni1058" unicode="&#x1058;" 
d="M-1103 -526q0 106 35.5 191.5t98.5 146t149 93.5t188 33q92 0 168 -29.5t132 -79.5t90 -115.5t42 -138.5q-57 -60 -147.5 -99t-207.5 -39q-93 0 -168 32t-132 86q-10 -36 -10 -80t12.5 -89.5t40 -83t72 -61t108.5 -23.5q42 0 75.5 11t60.5 30.5t47.5 46t35.5 57.5
l191 -97q-27 -56 -66.5 -102.5t-90.5 -79.5t-114.5 -51.5t-138.5 -18.5q-105 0 -191.5 34t-149 95.5t-96.5 145.5t-34 185zM-632 -266q-39 0 -75 -13.5t-66 -36.5q36 -43 91.5 -72.5t126.5 -29.5q36 0 69 8.5t61 22.5q-32 53 -82 87t-125 34z" />
    <glyph glyph-name="uni1059" unicode="&#x1059;" 
d="M-749 -986q-81 0 -146 30t-111.5 84.5t-71.5 132t-25 173.5q0 117 35.5 210.5t98.5 159t149 100t188 34.5q92 0 168 -29.5t132 -79.5t90 -115.5t42 -138.5q-57 -60 -147.5 -99t-207.5 -39q-93 0 -164.5 31t-128.5 85q-5 -19 -11 -52t-6 -66q0 -44 8 -86t24.5 -75
t41.5 -53t58 -20q51 0 80 32.5t31 79.5h136q2 -46 17.5 -79t48.5 -33q26 0 43.5 27.5t22.5 79.5l162 -16q-4 -44 -16 -93t-36.5 -90t-63.5 -68t-96 -27q-30 0 -54.5 8.5t-43.5 22t-33 31.5t-24 37h-3q-11 -19 -30 -37t-43.5 -31.5t-53.5 -22t-60 -8.5zM-632 -266
q-39 0 -75 -13.5t-66 -36.5q36 -43 91.5 -72.5t126.5 -29.5q36 0 69 8.5t61 22.5q-32 53 -82 87t-125 34z" />
    <glyph glyph-name="uni1062" unicode="&#x1062;" horiz-adv-x="685" 
d="M281 0v789h-220v237h484v-1026h-264z" />
    <glyph glyph-name="uni1067" unicode="&#x1067;" horiz-adv-x="726" 
d="M95 219q0 49 17.5 91.5t48.5 75.5t72 53t89 24v563h264v-807q0 -51 -19.5 -95.5t-52.5 -77.5t-77.5 -51.5t-95.5 -18.5t-96 18.5t-78 51.5t-52.5 77.5t-19.5 95.5zM265 218q0 -32 22 -53.5t53 -21.5q32 0 53.5 21.5t21.5 53.5t-21.5 53.5t-53.5 21.5q-31 0 -53 -21.5
t-22 -53.5z" />
    <glyph glyph-name="uni1068" unicode="&#x1068;" horiz-adv-x="685" 
d="M545 1026v-1026h-484v237h220v789h264zM152 1427q0 51 19.5 96t52.5 78t78 52t96 19t95.5 -19t77.5 -52t52.5 -78t19.5 -96t-19.5 -95.5t-52.5 -77.5t-77.5 -51.5t-95.5 -18.5t-96 18.5t-78 51.5t-52.5 77.5t-19.5 95.5zM322 1426q0 -32 22 -53.5t53 -21.5
q32 0 53.5 21.5t21.5 53.5t-21.5 53.5t-53.5 21.5q-31 0 -53 -21.5t-22 -53.5z" />
    <glyph glyph-name="uni1071" unicode="&#x1071;" 
d="M-1204 1427q0 51 19.5 96t52.5 78t78 52t96 19t95.5 -19t77.5 -52t52.5 -78t19.5 -96t-19.5 -95.5t-52.5 -77.5t-77.5 -51.5t-95.5 -18.5t-96 18.5t-78 51.5t-52.5 77.5t-19.5 95.5zM-1034 1426q0 -32 22 -53.5t53 -21.5q32 0 53.5 21.5t21.5 53.5t-21.5 53.5t-53.5 21.5
q-31 0 -53 -21.5t-22 -53.5zM-574 1427q0 51 19.5 96t52.5 78t78 52t96 19t95.5 -19t77.5 -52t52.5 -78t19.5 -96t-19.5 -95.5t-52.5 -77.5t-77.5 -51.5t-95.5 -18.5t-96 18.5t-78 51.5t-52.5 77.5t-19.5 95.5zM-404 1426q0 -32 22 -53.5t53 -21.5q32 0 53.5 21.5t21.5 53.5
t-21.5 53.5t-53.5 21.5q-31 0 -53 -21.5t-22 -53.5z" />
    <glyph glyph-name="uni1072" unicode="&#x1072;" 
d="M-1103 1551q0 100 34 185t96.5 146t149 95.5t191.5 34.5q75 0 138.5 -18.5t114.5 -51.5t90.5 -79.5t66.5 -102.5l-191 -97q-15 31 -35.5 57.5t-47.5 46t-60.5 30.5t-75.5 11q-64 0 -108.5 -23.5t-72 -61t-40 -83t-12.5 -89.5t12.5 -89.5t40 -83t72 -61t108.5 -23.5
q42 0 75.5 11t60.5 30.5t47.5 46t35.5 57.5l191 -97q-27 -56 -66.5 -102.5t-90.5 -79.5t-114.5 -51.5t-138.5 -18.5q-105 0 -191.5 34.5t-149 95.5t-96.5 145.5t-34 185.5z" />
    <glyph glyph-name="uni1073" unicode="&#x1073;" 
d="M-642 1811l563 -478l-165 -193l-398 337l-398 -337l-165 193z" />
    <glyph glyph-name="uni1074" unicode="&#x1074;" 
d="M-642 1139l-563 478l165 193l398 -337l398 337l165 -193z" />
    <glyph glyph-name="uni1083" unicode="&#x1083;" horiz-adv-x="685" 
d="M281 -962v1751h-220v237h484v-1988h-264z" />
    <glyph glyph-name="uni1084" unicode="&#x1084;" horiz-adv-x="1144" 
d="M383 299q0 -19 11 -41t34.5 -41t60.5 -31.5t88 -12.5q55 0 93 12.5t61.5 31t34 40t10.5 38.5h273q0 -68 -31.5 -126.5t-91.5 -101.5t-148 -67t-201 -24q-101 0 -187 22.5t-148 64.5t-97 102t-35 135q0 41 14 73.5t37 57.5t54 43.5t64 31.5v8q-34 15 -64.5 35t-54 45.5
t-37 57.5t-13.5 72q0 75 35 135t97 102t148 64.5t187 22.5q113 0 201 -24.5t148 -67t91.5 -101t31.5 -126.5h-273q0 17 -10.5 38.5t-34 40t-61.5 31t-93 12.5q-51 0 -88 -12.5t-60.5 -31.5t-34.5 -41t-11 -41q0 -28 14 -47.5t35 -32t45.5 -19t46 -10t36.5 -4t16 -0.5h1v-197
q-55 -3 -97 -15q-18 -6 -35.5 -14t-31 -20t-22 -28.5t-8.5 -38.5z" />
    <glyph glyph-name="uni1085" unicode="&#x1085;" 
d="M-809 1373q0 -32 39 -54.5t128 -22.5q48 0 80.5 8.5t52.5 21.5t29 29t9 31h223q0 -59 -25 -112.5t-74.5 -94t-123.5 -64.5t-171 -24q-87 0 -160.5 19t-127 55t-83.5 87.5t-30 116.5q0 35 12 63t32 49.5t46 37.5t55 27v7q-29 13 -55.5 30t-46.5 39t-31.5 49.5t-11.5 62.5
q0 64 30 115.5t83.5 87.5t127 55.5t160.5 19.5q97 0 171 -24t123.5 -64.5t74.5 -94t25 -111.5h-223q0 15 -9 30.5t-29 29t-52.5 22t-80.5 8.5q-89 0 -128 -23.5t-39 -55.5q0 -20 12 -33.5t30 -22.5t39.5 -14t40 -8t31 -3.5t13.5 -0.5h1v-189q-47 -2 -84 -12
q-32 -8 -57.5 -25.5t-25.5 -47.5z" />
    <glyph glyph-name="uni1086" unicode="&#x1086;" 
d="M-807 1711q0 63 23.5 118t64.5 95.5t96 64t118 23.5q62 0 117 -23.5t96 -64t64.5 -95.5t23.5 -118q0 -52 -15.5 -98t-42.5 -84l-279 -405h-264l221 299q-48 13 -89 40t-70.5 64.5t-46.5 84t-17 99.5zM-598 1710q0 -20 7.5 -36.5t20 -29t29 -19.5t35.5 -7q39 0 65.5 26.5
t26.5 65.5q0 19 -7 36t-19.5 29.5t-29.5 19.5t-36 7t-35.5 -7t-29 -19.5t-20 -29.5t-7.5 -36z" />
    <glyph glyph-name="uni109C" unicode="&#x109c;" horiz-adv-x="903" 
d="M95 219q0 51 19.5 96t52.5 78t78 52t96 19h467v-237h-222q0 -60 -19.5 -104.5t-53 -77t-78 -51t-94.5 -18.5q-51 0 -96 18.5t-78 51.5t-52.5 77.5t-19.5 95.5zM95 781q0 51 19.5 96t52.5 78t78 52t96 19h467v-237h-222q0 -60 -19.5 -104.5t-53 -77t-78 -51t-94.5 -18.5
q-51 0 -96 18.5t-78 51.5t-52.5 77.5t-19.5 95.5zM265 780q0 -32 22 -53.5t53 -21.5q32 0 53.5 21.5t21.5 53.5t-21.5 53.5t-53.5 21.5q-31 0 -53 -21.5t-22 -53.5zM265 218q0 -32 22 -53.5t53 -21.5q32 0 53.5 21.5t21.5 53.5t-21.5 53.5t-53.5 21.5q-31 0 -53 -21.5
t-22 -53.5z" />
    <glyph glyph-name="uni109D" unicode="&#x109d;" 
d="M-1152 1545q0 52 11.5 107t36.5 107t64 98t94.5 80.5t127.5 54.5t164 20q91 0 163.5 -20t128 -54.5t94.5 -80.5t64 -98t36.5 -107t11.5 -107v-802h-264v802q0 52 -17 94.5t-48 72.5t-74 46.5t-95 16.5t-95 -16.5t-74 -46.5t-48 -72.5t-17 -94.5h-264z" />
    <glyph glyph-name="uni1036" unicode="&#x1036;" 
d="M-891 1427q0 51 19.5 96t52.5 78t78 52t96 19t95.5 -19t77.5 -52t52.5 -78t19.5 -96t-19.5 -95.5t-52.5 -77.5t-77.5 -51.5t-95.5 -18.5t-96 18.5t-78 51.5t-52.5 77.5t-19.5 95.5zM-721 1426q0 -32 22 -53.5t53 -21.5q32 0 53.5 21.5t21.5 53.5t-21.5 53.5t-53.5 21.5
q-31 0 -53 -21.5t-22 -53.5z" />
    <glyph glyph-name="uni1037" unicode="&#x1037;" 
d="M-891 -403q0 51 19.5 96t52.5 78t78 52t96 19t95.5 -19t77.5 -52t52.5 -78t19.5 -96t-19.5 -95.5t-52.5 -77.5t-77.5 -51.5t-95.5 -18.5t-96 18.5t-78 51.5t-52.5 77.5t-19.5 95.5zM-721 -404q0 -32 22 -53.5t53 -21.5q32 0 53.5 21.5t21.5 53.5t-21.5 53.5t-53.5 21.5
q-31 0 -53 -21.5t-22 -53.5z" />
    <glyph glyph-name="uni1038" unicode="&#x1038;" horiz-adv-x="681" 
d="M95 219q0 51 19.5 96t52.5 78t78 52t96 19t95.5 -19t77.5 -52t52.5 -78t19.5 -96t-19.5 -95.5t-52.5 -77.5t-77.5 -51.5t-95.5 -18.5t-96 18.5t-78 51.5t-52.5 77.5t-19.5 95.5zM265 218q0 -32 22 -53.5t53 -21.5q32 0 53.5 21.5t21.5 53.5t-21.5 53.5t-53.5 21.5
q-31 0 -53 -21.5t-22 -53.5zM95 803q0 51 19.5 96t52.5 78t78 52t96 19t95.5 -19t77.5 -52t52.5 -78t19.5 -96t-19.5 -95.5t-52.5 -77.5t-77.5 -51.5t-95.5 -18.5t-96 18.5t-78 51.5t-52.5 77.5t-19.5 95.5zM265 802q0 -32 22 -53.5t53 -21.5q32 0 53.5 21.5t21.5 53.5
t-21.5 53.5t-53.5 21.5q-31 0 -53 -21.5t-22 -53.5z" />
    <glyph glyph-name="uni1039" unicode="&#x1039;" 
d="M-758 -802v203h-203v200h203v203h230v-203h203v-200h-203v-203h-230z" />
    <glyph glyph-name="uni103A" unicode="&#x103a;" 
d="M-963 1561q0 96 34 178.5t96.5 143t149 95t191.5 34.5q75 0 131.5 -15t99 -40t73.5 -57t56 -65l-160 -130q-10 15 -27 33t-41.5 33.5t-57 26t-74.5 10.5q-64 0 -108.5 -22t-72 -57.5t-40 -79.5t-12.5 -88q0 -101 74 -167t209 -101l-66 -200q-96 23 -179 61t-144.5 95
t-96.5 134t-35 178z" />
    <glyph glyph-name="uni1063" unicode="&#x1063;" horiz-adv-x="1211" 
d="M561 -24q-113 0 -207 37v-975h-264v1229l220 112q17 -35 40.5 -65.5t54.5 -53t69.5 -35t86.5 -12.5q55 0 103.5 22t85 62t57.5 95t21 121q0 51 -14.5 103.5t-46.5 96t-82.5 71t-123.5 27.5q-48 0 -87 -13t-69.5 -35.5t-54 -53t-40.5 -65.5l-220 112q31 65 76 118.5
t104 92t132 60t159 21.5q120 0 219.5 -39.5t171 -110.5t110.5 -169t39 -215q0 -123 -40.5 -222t-112.5 -169.5t-171 -108.5t-216 -38z" />
    <glyph glyph-name="uni1064" unicode="&#x1064;" horiz-adv-x="824" 
d="M544 1026v-789h220v-237h-484v789h-220v237h484z" />
    <glyph glyph-name="uni1069" unicode="&#x1069;" horiz-adv-x="848" 
d="M491 409q-67 -31 -96.5 -57.5t-29.5 -63.5q0 -36 25.5 -55t65.5 -19q30 0 61.5 12.5t57.5 27.5q30 18 59 41l98 -206q-42 -32 -92 -57q-43 -21 -101 -38.5t-125 -17.5q-58 0 -115 20t-102.5 57t-73.5 90t-28 119q0 84 26 143t66 100t89 68.5t94 47.5q31 14 52.5 27
t35 26.5t19.5 28.5t6 33q0 36 -25.5 55t-65.5 19q-30 0 -61.5 -13t-57.5 -28q-31 -18 -59 -40l-98 206q42 31 92 56q43 21 100.5 39t125.5 18q58 0 115 -18.5t102.5 -54.5t73.5 -89.5t28 -123.5q0 -84 -24 -141.5t-62 -98t-84.5 -66.5t-91.5 -47z" />
    <glyph glyph-name="uni106A" unicode="&#x106a;" horiz-adv-x="996" 
d="M324 361q0 -29 8.5 -55.5t25.5 -47t42 -33t58 -12.5q29 0 53.5 12.5t42.5 33t28 47t10 55.5v665h264v-665q0 -68 -18 -136.5t-63.5 -124t-122.5 -90t-194 -34.5q-115 0 -191.5 34.5t-122.5 90t-65 124t-19 136.5h264z" />
    <glyph glyph-name="uni106B" unicode="&#x106b;" horiz-adv-x="996" 
d="M60 665q0 68 19 136.5t65 124t122.5 90t191.5 34.5q117 0 194 -34.5t122.5 -90t63.5 -124t18 -136.5v-665h-264v665q0 28 -10 55t-28 47.5t-42.5 33t-53.5 12.5q-33 0 -58 -12.5t-42 -33t-25.5 -47.5t-8.5 -55h-264z" />
    <glyph glyph-name="uni106C" unicode="&#x106c;" horiz-adv-x="996" 
d="M936 361q0 -68 -19 -136.5t-65 -124t-122.5 -90t-191.5 -34.5q-117 0 -194 34.5t-122.5 90t-63.5 124t-18 136.5v665h264v-665q0 -29 10 -55.5t28 -47t42.5 -33t53.5 -12.5q33 0 58 12.5t42 33t25.5 47t8.5 55.5h264z" />
    <glyph glyph-name="uni106D" unicode="&#x106d;" horiz-adv-x="848" 
d="M357 409q-45 21 -91.5 47t-84.5 66.5t-62 98t-24 141.5q0 70 28 123.5t73.5 89.5t102.5 54.5t115 18.5q67 0 125 -18t101 -39q50 -25 92 -56l-98 -206q-29 22 -59 40q-26 15 -57.5 28t-61.5 13q-40 0 -65.5 -19t-25.5 -55q0 -37 41 -67t114 -67q36 -18 77 -43t75.5 -63
t57.5 -92t23 -130q0 -69 -26.5 -124.5t-71 -94t-102 -59t-119.5 -20.5q-68 0 -125.5 17.5t-100.5 38.5q-50 25 -92 57l98 206q28 -23 59 -41q26 -15 57.5 -27.5t61.5 -12.5q40 0 65.5 19t25.5 55q0 37 -29.5 63.5t-96.5 57.5z" />
    <glyph glyph-name="uni1087" unicode="&#x1087;" horiz-adv-x="681" 
d="M341 464q51 0 95.5 -19t77.5 -52t52.5 -78t19.5 -96q0 -33 -7.5 -62.5t-21.5 -55.5l-219 -405h-224l156 290q-38 11 -70.5 33t-55.5 52.5t-36 68t-13 79.5q0 51 19.5 96t52.5 78t78 52t96 19zM265 218q0 -32 22 -53.5t53 -21.5q32 0 53.5 21.5t21.5 53.5t-21.5 53.5
t-53.5 21.5q-31 0 -53 -21.5t-22 -53.5z" />
    <glyph glyph-name="uni1088" unicode="&#x1088;" horiz-adv-x="681" 
d="M341 464q51 0 95.5 -19t77.5 -52t52.5 -78t19.5 -96q0 -33 -7.5 -62.5t-21.5 -55.5l-219 -405h-224l156 290q-38 11 -70.5 33t-55.5 52.5t-36 68t-13 79.5q0 51 19.5 96t52.5 78t78 52t96 19zM265 218q0 -32 22 -53.5t53 -21.5q32 0 53.5 21.5t21.5 53.5t-21.5 53.5
t-53.5 21.5q-31 0 -53 -21.5t-22 -53.5zM95 803q0 51 19.5 96t52.5 78t78 52t96 19t95.5 -19t77.5 -52t52.5 -78t19.5 -96t-19.5 -95.5t-52.5 -77.5t-77.5 -51.5t-95.5 -18.5t-96 18.5t-78 51.5t-52.5 77.5t-19.5 95.5zM265 802q0 -32 22 -53.5t53 -21.5q32 0 53.5 21.5
t21.5 53.5t-21.5 53.5t-53.5 21.5q-31 0 -53 -21.5t-22 -53.5z" />
    <glyph glyph-name="uni1089" unicode="&#x1089;" horiz-adv-x="681" 
d="M95 219q0 51 19.5 96t52.5 78t78 52t96 19t95.5 -19t77.5 -52t52.5 -78t19.5 -96t-19.5 -95.5t-52.5 -77.5t-77.5 -51.5t-95.5 -18.5t-96 18.5t-78 51.5t-52.5 77.5t-19.5 95.5zM265 218q0 -32 22 -53.5t53 -21.5q32 0 53.5 21.5t21.5 53.5t-21.5 53.5t-53.5 21.5
q-31 0 -53 -21.5t-22 -53.5z" />
    <glyph glyph-name="uni108A" unicode="&#x108a;" horiz-adv-x="849" 
d="M95 807q0 51 19.5 95.5t52.5 77.5t78 51.5t96 18.5q50 0 94.5 -18.5t78 -51.5t53 -77t19.5 -104h222v-237h-467q-51 0 -96 19t-78 52t-52.5 78t-19.5 96zM95 245q0 51 19.5 95.5t52.5 77.5t78 51.5t96 18.5q50 0 94.5 -18.5t78 -51.5t53 -77t19.5 -104h222v-237h-467
q-51 0 -96 19t-78 52t-52.5 78t-19.5 96zM265 246q0 -32 22 -53.5t53 -21.5q32 0 53.5 21.5t21.5 53.5t-21.5 53.5t-53.5 21.5q-31 0 -53 -21.5t-22 -53.5zM265 808q0 -32 22 -53.5t53 -21.5q32 0 53.5 21.5t21.5 53.5t-21.5 53.5t-53.5 21.5q-31 0 -53 -21.5t-22 -53.5z
" />
    <glyph glyph-name="uni108B" unicode="&#x108b;" horiz-adv-x="681" 
d="M95 512q0 51 19.5 96t52.5 78t78 52t96 19t95.5 -19t77.5 -52t52.5 -78t19.5 -96t-19.5 -95.5t-52.5 -77.5t-77.5 -51.5t-95.5 -18.5t-96 18.5t-78 51.5t-52.5 77.5t-19.5 95.5zM265 511q0 -32 22 -53.5t53 -21.5q32 0 53.5 21.5t21.5 53.5t-21.5 53.5t-53.5 21.5
q-31 0 -53 -21.5t-22 -53.5z" />
    <glyph glyph-name="uni108C" unicode="&#x108c;" horiz-adv-x="1311" 
d="M95 512q0 51 19.5 96t52.5 78t78 52t96 19t95.5 -19t77.5 -52t52.5 -78t19.5 -96t-19.5 -95.5t-52.5 -77.5t-77.5 -51.5t-95.5 -18.5t-96 18.5t-78 51.5t-52.5 77.5t-19.5 95.5zM265 511q0 -32 22 -53.5t53 -21.5q32 0 53.5 21.5t21.5 53.5t-21.5 53.5t-53.5 21.5
q-31 0 -53 -21.5t-22 -53.5zM725 512q0 51 19.5 96t52.5 78t78 52t96 19t95.5 -19t77.5 -52t52.5 -78t19.5 -96t-19.5 -95.5t-52.5 -77.5t-77.5 -51.5t-95.5 -18.5t-96 18.5t-78 51.5t-52.5 77.5t-19.5 95.5zM895 511q0 -32 22 -53.5t53 -21.5q32 0 53.5 21.5t21.5 53.5
t-21.5 53.5t-53.5 21.5q-31 0 -53 -21.5t-22 -53.5z" />
    <glyph glyph-name="uni108D" unicode="&#x108d;" 
d="M-1093 -436v237h900v-237h-900z" />
    <glyph glyph-name="uni108F" unicode="&#x108f;" horiz-adv-x="681" 
d="M340 464q51 0 96 -19t78 -52t52.5 -78t19.5 -96q0 -42 -13 -79.5t-36.5 -68t-55.5 -52.5t-70 -33l156 -290h-224l-219 405q-14 26 -21.5 55.5t-7.5 62.5q0 51 19.5 96t52.5 78t77.5 52t95.5 19zM416 218q0 32 -22 53.5t-53 21.5q-32 0 -53.5 -21.5t-21.5 -53.5
t21.5 -53.5t53.5 -21.5q31 0 53 21.5t22 53.5zM586 803q0 -51 -19.5 -95.5t-52.5 -77.5t-78 -51.5t-96 -18.5t-95.5 18.5t-77.5 51.5t-52.5 77.5t-19.5 95.5t19.5 96t52.5 78t77.5 52t95.5 19t96 -19t78 -52t52.5 -78t19.5 -96zM416 802q0 32 -22 53.5t-53 21.5
q-32 0 -53.5 -21.5t-21.5 -53.5t21.5 -53.5t53.5 -21.5q31 0 53 21.5t22 53.5z" />
    <glyph glyph-name="uni109A" unicode="&#x109a;" horiz-adv-x="681" 
d="M95 803q0 51 19.5 96t52.5 78t78 52t96 19t95.5 -19t77.5 -52t52.5 -78t19.5 -96t-19.5 -95.5t-52.5 -77.5t-77.5 -51.5t-95.5 -18.5t-96 18.5t-78 51.5t-52.5 77.5t-19.5 95.5zM265 802q0 -32 22 -53.5t53 -21.5q32 0 53.5 21.5t21.5 53.5t-21.5 53.5t-53.5 21.5
q-31 0 -53 -21.5t-22 -53.5z" />
    <glyph glyph-name="uni109B" unicode="&#x109b;" horiz-adv-x="681" 
d="M341 1794q51 0 95.5 -19t77.5 -52t52.5 -78t19.5 -96q0 -33 -7.5 -62.5t-21.5 -55.5l-219 -405h-224l156 290q-38 11 -70.5 33t-55.5 52.5t-36 68t-13 79.5q0 51 19.5 96t52.5 78t78 52t96 19zM265 1548q0 -32 22 -53.5t53 -21.5q32 0 53.5 21.5t21.5 53.5t-21.5 53.5
t-53.5 21.5q-31 0 -53 -21.5t-22 -53.5z" />
    <glyph glyph-name="uniAA7B" unicode="&#xaa7b;" horiz-adv-x="681" 
d="M340 464q51 0 96 -19t78 -52t52.5 -78t19.5 -96q0 -42 -13 -79.5t-36.5 -68t-55.5 -52.5t-70 -33l156 -290h-224l-219 405q-14 26 -21.5 55.5t-7.5 62.5q0 51 19.5 96t52.5 78t77.5 52t95.5 19zM416 218q0 32 -22 53.5t-53 21.5q-32 0 -53.5 -21.5t-21.5 -53.5
t21.5 -53.5t53.5 -21.5q31 0 53 21.5t22 53.5z" />
    <glyph glyph-name="uni104A" unicode="&#x104a;" horiz-adv-x="544" 
d="M140 0v1026h264v-1026h-264z" />
    <glyph glyph-name="uni104B" unicode="&#x104b;" horiz-adv-x="984" 
d="M140 0v1026h264v-1026h-264zM580 0v1026h264v-1026h-264z" />
    <glyph glyph-name="uni104C" unicode="&#x104c;" horiz-adv-x="1211" 
d="M487 -599q-31 0 -54 -6.5t-38.5 -17t-23.5 -23.5t-8 -26q0 -16 7.5 -29.5t25.5 -23.5t47.5 -15.5t73.5 -5.5h23q52 0 95 16.5t74 46.5t48 72.5t17 94.5v202q-49 -13 -100.5 -20t-108.5 -7q-148 0 -266 38t-209 95v475l220 112q17 -35 40.5 -65.5t54.5 -53t69.5 -35
t86.5 -12.5q55 0 103.5 22t85 62t57.5 95t21 121q0 51 -14.5 103.5t-46.5 96t-82.5 71t-123.5 27.5q-48 0 -87 -13t-69.5 -35.5t-54 -53t-40.5 -65.5l-220 112q31 65 76 118.5t104 92t132 60t159 21.5q120 0 219.5 -39.5t171 -110.5t110.5 -169t39 -215q0 -123 -40.5 -222
t-112.5 -169.5t-171 -108.5t-216 -38q-113 0 -207 37v-100q48 -17 101 -27t110 -10q141 0 258.5 38.5t214.5 104.5v-524q0 -52 -11.5 -107t-36.5 -107t-64 -98t-94.5 -80.5t-128 -54.5t-163.5 -20h-26q-100 0 -179 20t-133.5 57t-83 90t-28.5 119q0 68 30.5 119t79.5 85.5
t110.5 51.5t123.5 17q51 0 97 -10.5t81 -22.5q40 -14 75 -32l-68 -158q-20 10 -42 18q-19 7 -43 13t-47 6zM247 1561q0 96 34 178.5t96.5 143t149 95t191.5 34.5q75 0 131.5 -15t99 -40t73.5 -57t56 -65l-160 -130q-10 15 -27 33t-41.5 33.5t-57 26t-74.5 10.5
q-64 0 -108.5 -22t-72 -57.5t-40 -79.5t-12.5 -88q0 -101 74 -167t209 -101l-66 -200q-96 23 -179 61t-144.5 95t-96.5 134t-35 178z" />
    <glyph glyph-name="uni104D" unicode="&#x104d;" horiz-adv-x="1809" 
d="M507 -549q-62 0 -93 -25.5t-31 -63.5q0 -39 7.5 -55t25.5 -28t47.5 -18.5t73.5 -6.5h636q52 0 95 16.5t73.5 46.5t47 72.5t16.5 104.5v1368q0 48 -20 87.5t-50 73t-66 61.5l-68 51l-57 39.5t-65.5 49t-65 62t-56.5 78.5t-40.5 99.5t-15.5 123.5q0 77 27 154t82.5 138.5
t141.5 100t203 38.5q47 0 88 -8t76 -21t64.5 -30t53.5 -34q55 -41 95 -93l-194 -137q-17 24 -43 43q-23 16 -58 29.5t-86 13.5q-47 0 -81 -16t-57 -41t-34 -56.5t-11 -82.5q0 -48 20 -87.5t48.5 -71t59.5 -54.5t54 -38q82 -54 142.5 -107.5t99.5 -109t58 -116t19 -129.5
v-1377q0 -52 -11.5 -107t-36 -107t-63.5 -98t-94 -80.5t-127.5 -54.5t-163.5 -20h-639q-100 0 -179 24t-133.5 68t-83 105.5t-28.5 137.5q0 75 30 132t80.5 95.5t116.5 57.5t137 19q46 0 88 -10.5t74 -22.5q38 -14 71 -32l-73 -198q-19 12 -40 23q-18 9 -41 16.5t-46 7.5z
M1211 -634h-264v1138q0 59 -17.5 114.5t-53.5 98t-90 68.5t-127 26q-52 0 -93 -12t-72.5 -33.5t-54 -51t-35.5 -63.5q70 -3 138 -28.5t132 -73.5q47 -36 83 -82t60 -98t36.5 -108.5t12.5 -113.5q0 -30 -2.5 -64.5t-10.5 -61.5q-25 -13 -56 -23q-27 -8 -64 -15t-83 -7
q-117 0 -216 40.5t-171 114t-112.5 175.5t-40.5 225q0 117 40.5 212t113.5 163t174 105t221 37q128 0 230 -40t173.5 -112t110 -172t38.5 -220v-1138zM651 213h5q-11 53 -39 104.5t-70 83.5q-38 29 -78 41t-80 15q10 -57 34 -102.5t58.5 -77t78 -48t91.5 -16.5z" />
    <glyph glyph-name="uni104E" unicode="&#x104e;" horiz-adv-x="1230" 
d="M1121 267v-1229h-264v975q-94 -37 -207 -37q-117 0 -216 38t-171 108.5t-112.5 169.5t-40.5 222q0 117 39 215t110.5 169t171 110.5t219.5 39.5q86 0 159 -21.5t132 -60t104 -92t76 -118.5l-220 -112q-17 35 -40.5 65.5t-54 53t-69.5 35.5t-87 13q-73 0 -123.5 -27.5
t-82.5 -71t-46.5 -96t-14.5 -103.5q0 -66 21 -121t57.5 -95t85 -62t103.5 -22q48 0 86.5 12.5t69.5 35t54.5 53t40.5 65.5z" />
    <glyph glyph-name="uni104F" unicode="&#x104f;" horiz-adv-x="2149" 
d="M110 513q0 117 41.5 215t116 169t178 111t227.5 40q79 0 147 -17.5t125 -49.5q45 32 107 50.5t145 18.5q117 0 194 -34.5t122.5 -90t63.5 -124t18 -136.5v-665h-264v665q0 28 -10 55t-28 47.5t-42.5 33t-53.5 12.5q-18 0 -35.5 -4t-33.5 -11l20 -37q-69 -97 -175 -149.5
t-239 -52.5q-97 0 -178.5 27.5t-143.5 79.5q-29 -76 -29 -153q0 -38 7.5 -77.5t21.5 -77.5q62 52 143.5 79.5t178.5 27.5q66 0 126 -15t112 -43t96 -67t79 -87q-62 -130 -182 -203.5t-292 -73.5q-124 0 -227.5 40t-178 111.5t-116 170t-41.5 215.5zM1878 1695q-17 24 -43 43
q-23 16 -58 29.5t-86 13.5q-47 0 -81 -16t-57 -41t-34 -56.5t-11 -82.5q0 -48 20 -87.5t48.5 -71t59.5 -54.5t54 -38q82 -54 142.5 -107.5t99.5 -109t58 -116t19 -129.5v-872h-264v862q0 48 -20 87.5t-50 73t-66 61.5l-68 51l-57 39.5t-65.5 49t-65 62t-56.5 78.5
t-40.5 99.5t-15.5 123.5q0 77 27 154t82.5 138.5t141.5 100t203 38.5q47 0 88 -8t76 -21t64.5 -30t53.5 -34q55 -41 95 -93zM673 163q66 0 120.5 22t94.5 60q-32 23 -69 32.5t-77 9.5q-67 0 -123 -20.5t-97 -56.5q31 -22 68.5 -34.5t82.5 -12.5zM673 861q-45 0 -82.5 -12.5
t-68.5 -34.5q41 -36 97 -56.5t123 -20.5q40 0 77 9.5t69 32.5q-40 38 -94.5 60t-120.5 22z" />
    <glyph glyph-name="uni109E" unicode="&#x109e;" horiz-adv-x="684" 
d="M544 1026v-1752h220v-236h-484v1752h-220v236h484zM57 1427q0 51 19.5 96t52.5 78t78 52t96 19t95.5 -19t77.5 -52t52.5 -78t19.5 -96t-19.5 -95.5t-52.5 -77.5t-77.5 -51.5t-95.5 -18.5t-96 18.5t-78 51.5t-52.5 77.5t-19.5 95.5zM227 1426q0 -32 22 -53.5t53 -21.5
q32 0 53.5 21.5t21.5 53.5t-21.5 53.5t-53.5 21.5q-31 0 -53 -21.5t-22 -53.5z" />
    <glyph glyph-name="uni109F" unicode="&#x109f;" horiz-adv-x="1883" 
d="M1211 -576q0 -29 8.5 -55.5t25.5 -47t42 -33t58 -12.5q29 0 53.5 12.5t42.5 33t28 47t10 55.5v1438q0 48 -20 87.5t-50 73t-66 61.5l-68 51l-57 39.5t-65.5 49t-65 62t-56.5 78.5t-40.5 99.5t-15.5 123.5q0 77 27 154t82.5 138.5t141.5 100t203 38.5q47 0 88 -8t76 -21
t64.5 -30t53.5 -34q55 -41 95 -93l-194 -137q-17 24 -43 43q-23 16 -58 29.5t-86 13.5q-47 0 -81 -16t-57 -41t-34 -56.5t-11 -82.5q0 -48 20 -87.5t48.5 -71t59.5 -54.5t54 -38q82 -54 142.5 -107.5t99.5 -109t58 -116t19 -129.5v-1448q0 -68 -18 -136.5t-63.5 -124
t-122.5 -90t-194 -34.5q-115 0 -191.5 34.5t-122.5 90t-65 124t-19 136.5v1080q0 59 -17.5 114.5t-52.5 98t-88.5 68.5t-126.5 26t-125.5 -27.5t-86.5 -72t-50.5 -99.5t-16.5 -110q0 -57 13.5 -105.5t35 -89.5t48.5 -74.5t54 -60.5l-175 -190q-54 44 -99.5 101t-79 124
t-52 142t-18.5 154q0 117 40.5 216.5t113 172.5t174 114.5t224.5 41.5q128 0 229.5 -40t172.5 -112t109 -172t38 -220v-1080z" />
    <glyph glyph-name="uniAA74" unicode="&#xaa74;" horiz-adv-x="1767" 
d="M1363 862q0 48 -20 87.5t-50 73t-66 61.5l-68 51l-57 39.5t-65.5 49t-65 62t-56.5 78.5t-40.5 99.5t-15.5 123.5q0 77 27 154t82.5 138.5t141.5 100t203 38.5q47 0 88 -8t76 -21t64.5 -30t53.5 -34q55 -41 95 -93l-194 -137q-17 24 -43 43q-23 16 -58 29.5t-86 13.5
q-47 0 -81 -16t-57 -41t-34 -56.5t-11 -82.5q0 -48 20 -87.5t48.5 -71t59.5 -54.5t54 -38q82 -54 142.5 -107.5t99.5 -109t58 -116t19 -129.5v-1341q0 -117 -41 -212t-114 -163t-174 -105t-221 -37q-69 0 -127.5 17t-104.5 41t-78.5 50t-50.5 44q-41 -68 -110.5 -110
t-154.5 -42q-64 0 -120 24t-98 66t-66 98t-24 120t24 120t66 98t98 66t120 24q52 0 101 -17v373q-98 18 -179 65.5t-139.5 117.5t-91 160t-32.5 192q0 79 18.5 154t52 142t79 124t99.5 101l175 -190q-27 -27 -54 -60.5t-48.5 -74.5t-35 -89.5t-13.5 -105.5q0 -55 10 -98.5
t31 -82t53 -69.5t75 -49v318q0 106 27 188.5t71.5 143.5t102.5 102.5t120 66.5q55 -31 116.5 -81.5t113 -117t85.5 -148t34 -174.5q0 -98 -29 -184t-82 -155t-128 -117.5t-167 -70.5v-620q16 -21 42 -43t60 -39.5t76.5 -29t92.5 -11.5q73 0 125 23.5t85.5 62.5t49.5 90
t16 105v1330zM949 522q0 71 -21.5 126.5t-52.5 100.5q-29 -36 -44 -89t-15 -119v-299q34 22 59 52t41.5 65.5t24.5 74t8 88.5zM347 -678q0 -21 8 -40t22 -32.5t33 -21.5t40 -8t39.5 8t32.5 21.5t22 32.5t8 40t-8 40t-22 32.5t-32.5 21.5t-39.5 8t-40 -8t-33 -21.5t-22 -32.5
t-8 -40z" />
    <glyph glyph-name="uniAA75" unicode="&#xaa75;" horiz-adv-x="2603" 
d="M2199 862q0 48 -20 87.5t-50 73t-66 61.5l-68 51l-57 39.5t-65.5 49t-65 62t-56.5 78.5t-40.5 99.5t-15.5 123.5q0 77 27 154t82.5 138.5t141.5 100t203 38.5q47 0 88 -8t76 -21t64.5 -30t53.5 -34q55 -41 95 -93l-194 -137q-17 24 -43 43q-23 16 -58 29.5t-86 13.5
q-47 0 -81 -16t-57 -41t-34 -56.5t-11 -82.5q0 -48 20 -87.5t48.5 -71t59.5 -54.5t54 -38q82 -54 142.5 -107.5t99.5 -109t58 -116t19 -129.5v-1341q0 -117 -41 -212t-114 -163t-174 -105t-221 -37q-69 0 -127.5 17t-104.5 41t-78.5 50t-50.5 44q-41 -68 -110.5 -110
t-154.5 -42q-64 0 -120 24t-98 66t-66 98t-24 120t24 120t66 98t98 66t120 24q52 0 101 -17v378q-20 5 -36.5 10t-27.5 10q-13 5 -24 10l75 219q22 -8 45 -14q20 -5 44 -9t48 -4q55 0 104 22t85.5 63.5t57.5 100t21 131.5q0 54 -16 105t-49.5 90t-85.5 62.5t-125 23.5
q-59 0 -107 -17.5t-84 -47.5t-61 -70t-37 -85q7 -41 7 -88q0 -79 -18.5 -154t-52 -142t-79 -124t-99.5 -101l-175 190q27 27 54 60.5t48.5 74.5t35 89.5t13.5 105.5q0 55 -20.5 110t-60.5 99.5t-99.5 72t-137.5 27.5q-62 0 -106.5 -15t-74 -39.5t-43.5 -56t-14 -63.5
q0 -40 15 -69t38 -54.5t49 -50.5t49 -56t38 -71.5t15 -97.5t-18.5 -105t-51.5 -83t-79.5 -54.5t-102.5 -19.5q-32 0 -66.5 4.5t-67 14.5t-61.5 26t-50 40l98 171q11 -13 26 -23q12 -8 29 -15t37 -7q32 0 48 16.5t16 42.5q0 30 -17.5 53t-43.5 45l-56 47t-56 59t-43.5 80.5
t-17.5 112.5q0 89 35.5 163.5t101.5 128t160.5 83.5t213.5 30q146 0 261.5 -49t193.5 -134q71 85 177 134t241 49q120 0 221 -37t174 -105t113.5 -163t40.5 -212q0 -104 -29 -192.5t-82 -158.5t-127 -118t-163 -69v-619q16 -21 42 -43t60 -39.5t76.5 -29t92.5 -11.5
q73 0 125 23.5t85.5 62.5t49.5 90t16 105v1330zM1183 -678q0 -21 8 -40t22 -32.5t33 -21.5t40 -8t39.5 8t32.5 21.5t22 32.5t8 40t-8 40t-22 32.5t-32.5 21.5t-39.5 8t-40 -8t-33 -21.5t-22 -32.5t-8 -40z" />
    <glyph glyph-name="uniAA76" unicode="&#xaa76;" horiz-adv-x="2873" 
d="M2469 862q0 48 -20 87.5t-50 73t-66 61.5l-68 51l-57 39.5t-65.5 49t-65 62t-56.5 78.5t-40.5 99.5t-15.5 123.5q0 77 27 154t82.5 138.5t141.5 100t203 38.5q47 0 88 -8t76 -21t64.5 -30t53.5 -34q55 -41 95 -93l-194 -137q-17 24 -43 43q-23 16 -58 29.5t-86 13.5
q-47 0 -81 -16t-57 -41t-34 -56.5t-11 -82.5q0 -48 20 -87.5t48.5 -71t59.5 -54.5t54 -38q82 -54 142.5 -107.5t99.5 -109t58 -116t19 -129.5v-1341q0 -117 -41 -212t-114 -163t-174 -105t-221 -37q-69 0 -127.5 17t-104.5 41t-78.5 50t-50.5 44q-41 -68 -110.5 -110
t-154.5 -42q-64 0 -120 24t-98 66t-66 98t-24 120t24 120t66 98t98 66t120 24q52 0 101 -17v547q27 25 50 55.5t40.5 71t27 93.5t9.5 122q0 55 -21 110t-61 99.5t-97.5 72t-130.5 27.5q-71 0 -127.5 -27.5t-96.5 -71.5t-61 -99t-21 -110v-1008q0 -52 -11.5 -107t-36.5 -107
t-64 -98t-94.5 -80.5t-127.5 -54.5t-164 -20h-157q-100 0 -179 24t-133.5 68t-83 105.5t-28.5 137.5q0 75 30 132t80.5 95.5t116.5 57.5t137 19q46 0 88 -10.5t74 -22.5q38 -14 71 -32l-73 -198q-19 12 -40 23q-18 9 -41 16.5t-46 7.5q-62 0 -93 -25.5t-31 -63.5
q0 -28 7.5 -44t25.5 -28t47.5 -18.5t73.5 -6.5h154q52 0 95 16.5t74 46.5t48 72.5t17 103.5v999q0 55 -17.5 110t-53 99t-88.5 71.5t-124 27.5q-55 0 -102.5 -16t-84.5 -44t-63 -64.5t-39 -77.5l-243 113q29 75 81 135.5t121 103t153 65t177 22.5q64 0 123.5 -15.5t112 -43
t97.5 -66.5t82 -87q36 48 85 87t105.5 66.5t119.5 43t128 15.5q123 0 229 -41.5t185 -114.5t124 -172.5t45 -216.5q0 -130 -32 -237.5t-104 -201.5v-690q16 -21 42 -43t60 -39.5t76.5 -29t92.5 -11.5q73 0 125 23.5t85.5 62.5t49.5 90t16 105v1330zM1453 -678q0 -21 8 -40
t22 -32.5t33 -21.5t40 -8t39.5 8t32.5 21.5t22 32.5t8 40t-8 40t-22 32.5t-32.5 21.5t-39.5 8t-40 -8t-33 -21.5t-22 -32.5t-8 -40z" />
    <glyph glyph-name="uniAA77" unicode="&#xaa77;" horiz-adv-x="1975" 
d="M1695 1026v-789h220v-237h-484v789h-288q33 -59 50.5 -125.5t17.5 -148.5v-1240h220v-237h-484v1471q0 59 -17.5 113.5t-53.5 96.5t-90 67t-127 25t-125 -23.5t-85.5 -62.5t-49.5 -90t-16 -105q0 -73 21 -131.5t57.5 -100t85.5 -63.5t104 -22q23 0 46 4t41 9q21 6 40 14
l75 -219q-25 -13 -56 -23q-27 -8 -64 -15t-83 -7q-117 0 -216 40.5t-171 114t-112.5 175.5t-40.5 225q0 117 40.5 212t113.5 163t174 105t221 37q45 0 86.5 -5.5t79.5 -16.5h870zM247 1561q0 96 34 178.5t96.5 143t149 95t191.5 34.5q75 0 131.5 -15t99 -40t73.5 -57t56 -65
l-160 -130q-10 15 -27 33t-41.5 33.5t-57 26t-74.5 10.5q-64 0 -108.5 -22t-72 -57.5t-40 -79.5t-12.5 -88q0 -101 74 -167t209 -101l-66 -200q-96 23 -179 61t-144.5 95t-96.5 134t-35 178z" />
    <glyph glyph-name="uniAA78" unicode="&#xaa78;" horiz-adv-x="1339" 
d="M646 125q-88 0 -165 -38t-126 -111l-112 105q31 46 73.5 91t93.5 80.5t110.5 57.5t125.5 22q53 0 103.5 -15t96 -40t86 -58t73.5 -69q-2 28 -4 69.5t-2 96.5q0 174 26 342.5t73.5 320.5t113.5 281t146 223.5t171.5 147.5t190.5 53q57 0 104.5 -21.5t85.5 -72.5l-88 -174
q-23 33 -51.5 47t-60.5 14q-66 0 -129.5 -45t-119.5 -124.5t-104 -188t-82 -236.5t-53.5 -270t-19.5 -287q0 -107 12 -209l-277 -141q-49 73 -126 111t-165 38zM646 899q88 0 160 38t121 111l117 -105q-31 -46 -72.5 -91t-92 -80.5t-109 -57.5t-124.5 -22t-124.5 22
t-109 57.5t-92 80.5t-72.5 91l117 105q49 -73 121 -111t160 -38zM239 510q0 88 -38 160t-111 121l105 107q46 -31 91 -71t80.5 -88.5t57.5 -105.5t22 -123t-22 -123t-57.5 -105.5t-80.5 -88.5t-91 -71l-105 107q73 49 111 121t38 160z" />
    <glyph glyph-name="uniAA79" unicode="&#xaa79;" horiz-adv-x="1351" 
d="M1211 -725h220v-237h-484v1466q0 59 -17.5 114.5t-53.5 98t-90 68.5t-127 26t-125 -23.5t-85.5 -62.5t-49.5 -90t-16 -105q0 -73 21 -131.5t57.5 -100t85.5 -63.5t104 -22q23 0 46 4t41 9q21 6 40 14l75 -219q-25 -13 -56 -23q-27 -8 -64 -15t-83 -7q-117 0 -216 40.5
t-171 114t-112.5 175.5t-40.5 225q0 117 40.5 212t113.5 163t174 105t221 37q128 0 230 -40t173.5 -112t110 -172t38.5 -220v-1229z" />
    <glyph glyph-name="uni1040" unicode="&#x1040;" horiz-adv-x="1299" 
d="M650 213q55 0 103.5 22t84.5 62t57 95t21 121q0 51 -14.5 103.5t-46 96t-82.5 71t-123 27.5q-73 0 -123.5 -27.5t-82.5 -71t-46.5 -96t-14.5 -103.5q0 -66 21 -121t57.5 -95t85 -62t103.5 -22zM1189 513q0 -123 -40.5 -222t-112.5 -169t-171 -108t-215 -38
q-117 0 -216 38t-171 108t-112.5 169t-40.5 222q0 117 39 215t110.5 169t171 111t219.5 40t219 -40t170.5 -111t110.5 -169t39 -215z" />
    <glyph glyph-name="uni1041" unicode="&#x1041;" horiz-adv-x="1211" 
d="M561 -24q-86 0 -159 21t-132 59.5t-104 92t-76 118.5l220 112q17 -35 40.5 -65.5t54.5 -53t69.5 -35t86.5 -12.5q55 0 103.5 22t85 62t57.5 95t21 121q0 51 -14.5 103.5t-46.5 96t-82.5 71t-123.5 27.5q-48 0 -87 -13t-69.5 -35.5t-54 -53t-40.5 -65.5l-220 112
q31 65 76 118.5t104 92t132 60t159 21.5q120 0 219.5 -39.5t171 -110.5t110.5 -169t39 -215q0 -123 -40.5 -222t-112.5 -169.5t-171 -108.5t-216 -38z" />
    <glyph glyph-name="uni1042" unicode="&#x1042;" horiz-adv-x="870" 
d="M-2 -519q0 -52 17 -94.5t48 -72.5t74 -46.5t95 -16.5t95 16.5t74 46.5t48 72.5t17 94.5v1545h264v-1545q0 -52 -11.5 -107t-36.5 -107t-64 -98t-94.5 -80.5t-128 -54.5t-163.5 -20q-92 0 -164 20t-127.5 54.5t-94.5 80.5t-64 98t-36.5 107t-11.5 107h264z" />
    <glyph glyph-name="uni1043" unicode="&#x1043;" horiz-adv-x="1211" 
d="M733 -962l-643 1229l220 112q17 -35 40.5 -65.5t54.5 -53t69.5 -35t86.5 -12.5q55 0 103.5 22t85 62t57.5 95t21 121q0 51 -14.5 103.5t-46.5 96t-82.5 71t-123.5 27.5q-48 0 -87 -13t-69.5 -35.5t-54 -53t-40.5 -65.5l-220 112q31 65 76 118.5t104 92t132 60t159 21.5
q120 0 219.5 -39.5t171 -110.5t110.5 -169t39 -215q0 -123 -40.5 -222t-112.5 -169.5t-171 -108.5t-216 -38l-30 2l491 -940h-289z" />
    <glyph glyph-name="uni1044" unicode="&#x1044;" horiz-adv-x="1211" 
d="M189 -962l491 939q-8 -1 -15 -1h-15q-117 0 -216 38t-171 108.5t-112.5 169.5t-40.5 222q0 117 39 215t110.5 169t171 110.5t219.5 39.5q86 0 159 -21.5t132 -60t104 -92t76 -118.5l-220 -112q-17 35 -40.5 65.5t-54 53t-69.5 35.5t-87 13q-73 0 -123.5 -27.5t-82.5 -71
t-46.5 -96t-14.5 -103.5q0 -66 21 -121t57.5 -95t85 -62t103.5 -22q48 0 86.5 12.5t69.5 35t54.5 53t40.5 65.5l220 -112l-643 -1229h-289z" />
    <glyph glyph-name="uni1045" unicode="&#x1045;" horiz-adv-x="1351" 
d="M1211 -442q0 -120 -38.5 -220t-110 -172t-173.5 -112t-230 -40q-120 0 -221 37t-174 105t-113.5 163t-40.5 212h273q0 -54 16 -104.5t49.5 -89.5t85.5 -62.5t125 -23.5t127 25.5t90 68.5t53.5 98.5t17.5 114.5v946q0 59 -17.5 114.5t-53.5 98t-90 68.5t-127 26
q-51 0 -91 -12q71 -40 114.5 -110.5t43.5 -157.5q0 -64 -24 -120t-66 -98t-98 -66t-120 -24t-120 24t-98 66t-66 98t-24 120q0 117 40.5 212t113.5 163t174 105t221 37q128 0 230 -40t173.5 -112t110 -172t38.5 -220v-946zM314 531q0 -21 8 -40t22 -32.5t33 -21.5t40 -8
t39.5 8t32.5 21.5t22 32.5t8 40t-8 40t-22 32.5t-32.5 21.5t-39.5 8t-40 -8t-33 -21.5t-22 -32.5t-8 -40z" />
    <glyph glyph-name="uni1046" unicode="&#x1046;" horiz-adv-x="1351" 
d="M140 1468q0 120 38.5 220t110 172t173.5 112t230 40q120 0 221 -37t174 -105t113.5 -163t40.5 -212h-273q0 54 -16 104.5t-49.5 89.5t-85.5 62.5t-125 23.5t-127 -26t-90 -68.5t-53.5 -98t-17.5 -114.5v-948q0 -59 17.5 -114.5t53.5 -98.5t90 -68.5t127 -25.5t125 23.5
t85.5 62.5t49.5 89.5t16 104.5q0 30 -1.5 46.5t-6 25t-14 10.5t-24.5 2h-134q-64 0 -120 24t-98 66t-66 98t-24 120t24 120t66 98t98 66t120 24t120 -24t98 -66t66 -98t24 -120q0 -35 -7.5 -68.5t-21.5 -62.5h34q45 0 72.5 -21.5t42.5 -58t20 -83.5t5 -98q0 -117 -40.5 -212
t-113.5 -163t-174 -105t-221 -37q-128 0 -230 40t-173.5 112t-110 172t-38.5 220v948zM892 885q0 21 -8 40t-22 32.5t-33 21.5t-40 8t-39.5 -8t-32.5 -21.5t-22 -32.5t-8 -40t8 -40t22 -32.5t32.5 -21.5t39.5 -8t40 8t33 21.5t22 32.5t8 40z" />
    <glyph glyph-name="uni1047" unicode="&#x1047;" horiz-adv-x="1351" 
d="M150.5 743q40.5 95 113.5 163t174 105t221 37q128 0 230 -40t173.5 -112t110 -172t38.5 -220q0 -79 -26.5 -152.5t-69.5 -143.5t-98 -136l-112.5 -130l-112.5 -126t-98 -123.5t-69.5 -122.5t-26.5 -123q0 -51 11 -82.5t34 -56.5t57 -41t81 -16q21 0 44.5 3.5t45 9
t40 12.5t29.5 14l99 -211q-16 -9 -46 -20t-66 -21t-73.5 -17t-68.5 -7q-117 0 -203 38.5t-141.5 100t-82.5 138.5t-27 154q0 88 26.5 167t70 150.5t98.5 137t113 127l113 120.5t98.5 117.5t70 118t26.5 121.5q0 59 -17.5 114.5t-53.5 98t-90 68.5t-127 26t-125 -23.5
t-85.5 -62.5t-49.5 -89.5t-16 -104.5h-273q0 117 40.5 212z" />
    <glyph glyph-name="uni1048" unicode="&#x1048;" horiz-adv-x="1332" 
d="M666 805q-35 0 -69 -8q70 -66 108 -154.5t38 -198.5q0 -75 -27.5 -148t-72.5 -136t-103.5 -111t-120.5 -73q-55 31 -110 81.5t-99.5 117t-72 148t-27.5 174.5q0 117 41 216.5t114.5 172.5t175.5 114.5t225 41.5q120 0 222 -41.5t176.5 -114.5t116 -172.5t41.5 -216.5
q0 -79 -18.5 -154t-52 -142t-79 -124t-99.5 -101l-175 190q27 27 54 60.5t48.5 74.5t35 89.5t13.5 105.5q0 55 -17 110t-52 99.5t-88 72t-126 27.5zM383 496q0 -80 23.5 -140.5t58.5 -108.5q34 40 53 92t19 106q0 75 -28 135.5t-75 100.5q-26 -42 -38.5 -89.5t-12.5 -95.5z
" />
    <glyph glyph-name="uni1049" unicode="&#x1049;" horiz-adv-x="1351" 
d="M140 504q0 120 38.5 220t110 172t173.5 112t230 40q120 0 221 -37t174 -105t113.5 -163t40.5 -212q0 -51 -5 -98t-20 -83.5t-42.5 -58t-72.5 -21.5h-34q14 -30 21.5 -63t7.5 -68q0 -64 -24 -120t-66 -98t-98 -66t-120 -24t-120 24t-98 66t-66 98t-24 120t24 120t66 98
t98 66t120 24h134q15 0 24.5 2t14 10.5t6 25t1.5 46.5q0 54 -16 104.5t-49.5 89.5t-85.5 62.5t-125 23.5t-127 -26t-90 -68.5t-53.5 -98t-17.5 -114.5v-946q0 -59 17.5 -114.5t53.5 -98.5t90 -68.5t127 -25.5t125 23.5t85.5 62.5t49.5 89.5t16 104.5h273q0 -117 -40.5 -212
t-113.5 -163t-174 -105t-221 -37q-128 0 -230 40t-173.5 112t-110 172t-38.5 220v946zM892 139q0 21 -8 40t-22 32.5t-33 21.5t-40 8t-39.5 -8t-32.5 -21.5t-22 -32.5t-8 -40t8 -40t22 -32.5t32.5 -21.5t39.5 -8t40 8t33 21.5t22 32.5t8 40z" />
    <glyph glyph-name="uni1090" unicode="&#x1090;" horiz-adv-x="1381" 
d="M1241 -442q0 -120 -40 -220t-113.5 -172t-177 -112t-231.5 -40q-120 0 -219.5 37t-170.5 105t-110 163t-39 212v973q0 120 38.5 220t110 172t173.5 112t230 40q120 0 221 -37t174 -105t113.5 -163t40.5 -212v-973zM692 811q-73 0 -127 -26t-90 -68.5t-53.5 -98
t-17.5 -114.5v-973q0 -54 15.5 -104.5t49 -89.5t85.5 -62.5t125 -23.5t127 25.5t90 68.5t54 98.5t18 114.5v973q0 54 -16 104.5t-49.5 89.5t-85.5 62.5t-125 23.5z" />
    <glyph glyph-name="uni1091" unicode="&#x1091;" horiz-adv-x="1223" 
d="M744 1044v-1621l277 170l112 -212l-643 -367l-10 4v1621l-278 -172l-112 214l644 367z" />
    <glyph glyph-name="uni1092" unicode="&#x1092;" horiz-adv-x="1321" 
d="M110 462v564h273v-94q60 52 137 84t171 32q123 0 220 -40t163.5 -112t101.5 -172t35 -220q0 -108 -36 -199.5t-94.5 -172.5t-133.5 -153.5l-153 -142.5l-153 -140.5t-133.5 -146.5t-94.5 -160.5t-36 -183.5q0 -37 3 -67.5t7 -52.5q4 -26 10 -47h-275q-3 24 -6 51
q-2 23 -4 53.5t-2 62.5q0 127 36 230t95 190t134 161t153.5 141.5l153.5 132.5t134 133.5t95 144.5t36 166q0 59 -16.5 114.5t-49.5 98t-83 68.5t-118 26q-71 0 -126 -22t-93 -59.5t-58 -86t-20 -101.5v-80h-273z" />
    <glyph glyph-name="uni1093" unicode="&#x1093;" horiz-adv-x="1477" 
d="M40 -962l753 1988h279l-367 -969q28 8 55.5 13t54.5 5q128 0 230 -40t173.5 -112t110 -172t38.5 -220v-493h-264v493q0 59 -17.5 114.5t-53.5 98t-90 68.5t-127 26q-43 0 -76.5 -5.5t-59.5 -14t-44.5 -18t-31.5 -17.5l-284 -745h-279z" />
    <glyph glyph-name="uni1094" unicode="&#x1094;" horiz-adv-x="1523" 
d="M40 -962l758 1988h246v-1603l277 170l112 -212l-643 -367l-10 4v1250l-461 -1230h-279z" />
    <glyph glyph-name="uni1095" unicode="&#x1095;" horiz-adv-x="1471" 
d="M947 1026h264v-940h220v-237h-220v-291q0 -120 -38.5 -220t-110 -172t-173.5 -112t-230 -40q-120 0 -221 37t-174 105t-113.5 163t-40.5 212q0 123 40.5 225t112.5 175.5t171 114t216 40.5h297v940zM651 -151q-55 0 -104 -21t-85.5 -60.5t-57.5 -96.5t-21 -139
q0 -54 16 -105t49.5 -90t85.5 -62.5t125 -23.5t127 25.5t90 68.5t53.5 98.5t17.5 114.5v291h-296z" />
    <glyph glyph-name="uni1096" unicode="&#x1096;" horiz-adv-x="1471" 
d="M1431 237v-237h-220v-962h-264v962h-297q-117 0 -216 37.5t-171 107t-112.5 168t-40.5 221.5q0 117 40.5 211.5t113.5 162t174 104t221 36.5q128 0 230 -39.5t173.5 -110.5t110 -171t38.5 -220v-270h220zM947 507q0 59 -17.5 114t-53.5 97t-90 67.5t-127 25.5t-125 -23
t-85.5 -61.5t-49.5 -89t-16 -104.5q0 -82 21 -136t57.5 -89.5t85.5 -53t104 -17.5h296v270z" />
    <glyph glyph-name="uni1097" unicode="&#x1097;" horiz-adv-x="1141" 
d="M701 789h-632v237h1004l8 -7l-640 -1744h631v-237h-1004l-8 7z" />
    <glyph glyph-name="uni1098" unicode="&#x1098;" horiz-adv-x="1302" 
d="M657 150q70 0 119.5 30.5t81 80t46.5 112t15 125.5q0 66 -13.5 120.5t-35 99t-48.5 79t-54 61.5l175 190q54 -44 99.5 -102t79 -127.5t52 -150.5t18.5 -171q0 -143 -51 -263t-145 -201q93 -76 144.5 -192.5t51.5 -259.5q0 -131 -41 -236t-113.5 -178.5t-172 -113
t-215.5 -39.5q-117 0 -216 39.5t-171 113t-112.5 178.5t-40.5 236q0 145 54 261.5t151 192.5q-96 81 -150.5 200t-54.5 262q0 90 18.5 171t52 150.5t79 127.5t99.5 102l175 -190q-27 -27 -54 -61.5t-48.5 -79t-35 -99t-13.5 -120.5q0 -63 15.5 -125.5t48.5 -112t85 -80
t125 -30.5zM650 -749q55 0 103.5 23.5t85.5 66.5t58.5 104t21.5 136q0 63 -16.5 123t-49.5 106.5t-82 74.5t-114 28q-73 0 -125 -28t-85 -74.5t-48.5 -106.5t-15.5 -123q0 -75 21 -136t57.5 -104t85 -66.5t103.5 -23.5z" />
    <glyph glyph-name="uni1099" unicode="&#x1099;" horiz-adv-x="1302" 
d="M657 -88q-73 0 -125 -30.5t-85 -80t-48.5 -112t-15.5 -125.5q0 -66 13.5 -121t35 -99t48.5 -78.5t54 -61.5l-175 -190q-54 44 -99.5 102t-79 127.5t-52 150.5t-18.5 171q0 143 54.5 262t150.5 199q-97 77 -151 193.5t-54 261.5q0 131 40.5 236t112.5 178.5t171 113
t216 39.5q116 0 215.5 -39.5t172 -113t113.5 -178.5t41 -236q0 -143 -51.5 -259.5t-144.5 -193.5q94 -80 145 -200t51 -263q0 -90 -18.5 -171t-52 -150.5t-79 -127.5t-99.5 -102l-175 190q27 27 54 61.5t48.5 78.5t35 99t13.5 121q0 63 -15 125.5t-46.5 112t-81 80
t-119.5 30.5zM650 811q-55 0 -103.5 -23.5t-85 -66.5t-57.5 -104t-21 -136q0 -63 15.5 -123t48.5 -106.5t85 -74.5t125 -28q65 0 114 28t82 74.5t49.5 106.5t16.5 123q0 75 -21.5 136t-58.5 104t-85.5 66.5t-103.5 23.5z" />
    <glyph glyph-name="uni103E.locl" 
d="M-323 -150l-264 -812h-474v236h290l191 576h257z" />
    <glyph glyph-name="uni1037.locl" 
d="M-891 -403q0 51 19.5 96t52.5 78t78 52t96 19t95.5 -19t77.5 -52t52.5 -78t19.5 -96t-19.5 -95.5t-52.5 -77.5t-77.5 -51.5t-95.5 -18.5t-96 18.5t-78 51.5t-52.5 77.5t-19.5 95.5zM-721 -404q0 -32 22 -53.5t53 -21.5q32 0 53.5 21.5t21.5 53.5t-21.5 53.5t-53.5 21.5
q-31 0 -53 -21.5t-22 -53.5z" />
    <glyph glyph-name="uni1032.locl" horiz-adv-x="129" 
d="M-1098 1818q0 63 22.5 120t63 99.5t96.5 68t124 25.5q69 0 126 -25.5t98.5 -68t64 -97t22.5 -111.5q0 -72 -34 -139.5t-106 -111.5v-4l336 -288l-153 -180l-520 437q-72 60 -106 130t-34 145z" />
    <glyph glyph-name="uni1004_uni103A_uni1039.rphf" 
d="M-935 1736q0 60 21 111t59.5 89t91.5 59.5t116 21.5q47 0 85 -11t68.5 -30t54.5 -45.5t42 -56.5l-148 -98q-15 26 -40 42t-60 16q-21 0 -38 -8t-29 -21.5t-18 -31.5t-6 -37q0 -17 6.5 -33t17.5 -29q29 7 65 7q47 0 87 -12t72 -33.5t57.5 -51t44.5 -65.5l-155 -82
q-21 35 -45 48t-59 13q-21 0 -38 -9t-29 -23t-18 -32.5t-6 -37.5q0 -20 6 -38t18 -32.5t29 -23t38 -8.5q35 0 59 13t45 48l155 -83q-38 -72 -102 -116.5t-159 -44.5q-63 0 -116 22t-91.5 60.5t-59.5 90.5t-21 112q0 51 15.5 96t43.5 81q-26 34 -42.5 76t-16.5 87z" />
    <glyph glyph-name="uni101B_uni103A_uni1039.rphf" 
d="M-409 1707q-37 46 -90 74t-104 28q-68 0 -111.5 -21t-78.5 -71q107 -24 179 -72.5t115.5 -112.5t62 -138.5t18.5 -149.5q0 -29 -2 -51.5t-6 -41.5q-45 -24 -102.5 -31.5t-108.5 -7.5q-101 0 -182 36.5t-137.5 98t-87 143.5t-30.5 174q0 102 35 185.5t96.5 143t145.5 92
t183 32.5q113 0 207 -47t163 -132zM-865 1556q0 -55 20 -100t53 -77t75 -49.5t87 -17.5h11.5t11.5 1q-3 46 -30 90t-66 78t-82.5 54.5t-79.5 20.5z" />
    <glyph glyph-name="glyph428" horiz-adv-x="544" 
d="M1613 2122q91 0 163.5 -20t128 -54.5t94.5 -80.5t64 -98t36.5 -107t11.5 -107v-46h-264v46q0 52 -17 94.5t-48 72.5t-74 46.5t-95 16.5h-975q-52 0 -95 -16.5t-74 -46.5t-48 -72.5t-17 -103.5v-2142q0 -61 17 -103.5t48 -72.5t74 -46.5t95 -16.5h975q52 0 95 16.5
t74 46.5t48 72.5t17 103.5v765h264v-774q0 -52 -11.5 -107t-36.5 -107t-64 -98t-94.5 -80.5t-128 -54.5t-163.5 -20h-975q-92 0 -164 20t-127.5 54.5t-94.5 80.5t-64 98t-36.5 107t-11.5 107v2160q0 52 11.5 107t36.5 107t64 98t94.5 80.5t127.5 54.5t164 20h975z" />
    <glyph glyph-name="glyph429" horiz-adv-x="544" 
d="M2005 2122q91 0 163.5 -20t128 -54.5t94.5 -80.5t64 -98t36.5 -107t11.5 -107v-46h-264v46q0 52 -17 94.5t-48 72.5t-74 46.5t-95 16.5h-1367q-52 0 -95 -16.5t-74 -46.5t-48 -72.5t-17 -94.5v-2151q0 -61 17 -103.5t48 -72.5t74 -46.5t95 -16.5h1367q52 0 95 16.5
t74 46.5t48 72.5t17 103.5v765h264v-774q0 -52 -11.5 -107t-36.5 -107t-64 -98t-94.5 -80.5t-127.5 -54.5t-164 -20h-1367q-92 0 -164 20t-127.5 54.5t-94.5 80.5t-64 98t-36.5 107t-11.5 107v2160q0 52 11.5 107t36.5 107t64 98t94.5 80.5t127.5 54.5t164 20h1367z" />
    <glyph glyph-name="glyph430" horiz-adv-x="544" 
d="M2198 2122q91 0 163.5 -20t128 -54.5t94.5 -80.5t64 -98t36.5 -107t11.5 -107v-46h-264v46q0 52 -17 94.5t-48 72.5t-74 46.5t-95 16.5h-1560q-52 0 -95 -16.5t-74 -46.5t-48 -72.5t-17 -103.5v-2142q0 -61 17 -103.5t48 -72.5t74 -46.5t95 -16.5h1560q52 0 95 16.5
t74 46.5t48 72.5t17 103.5v765h264v-774q0 -52 -11.5 -107t-36.5 -107t-64 -98t-94.5 -80.5t-127.5 -54.5t-164 -20h-1560q-92 0 -164 20t-127.5 54.5t-94.5 80.5t-64 98t-36.5 107t-11.5 107v2160q0 52 11.5 107t36.5 107t64 98t94.5 80.5t127.5 54.5t164 20h1560z" />
    <glyph glyph-name="glyph431" horiz-adv-x="544" 
d="M2516 2122q91 0 163.5 -20t128 -54.5t94.5 -80.5t64 -98t36.5 -107t11.5 -107v-46h-264v37q0 61 -17 103.5t-48 72.5t-74 46.5t-95 16.5h-1878q-52 0 -95 -16.5t-74 -46.5t-48 -72.5t-17 -103.5v-2142q0 -61 17 -103.5t48 -72.5t74 -46.5t95 -16.5h1878q52 0 95 16.5
t74 46.5t48 72.5t17 103.5v765h264v-774q0 -52 -11.5 -107t-36.5 -107t-64 -98t-94.5 -80.5t-128 -54.5t-163.5 -20h-1878q-92 0 -164 20t-127.5 54.5t-94.5 80.5t-64 98t-36.5 107t-11.5 107v2160q0 52 11.5 107t36.5 107t64 98t94.5 80.5t127.5 54.5t164 20h1878z" />
    <glyph glyph-name="glyph432" horiz-adv-x="544" 
d="M2846 2122q91 0 163.5 -20t128 -54.5t94.5 -80.5t64 -98t36.5 -107t11.5 -107v-46h-264v37q0 61 -17 103.5t-48 72.5t-74 46.5t-95 16.5h-2208q-52 0 -95 -16.5t-74 -46.5t-48 -72.5t-17 -103.5v-2142q0 -61 17 -103.5t48 -72.5t74 -46.5t95 -16.5h2208q52 0 95 16.5
t74 46.5t48 72.5t17 103.5v765h264v-774q0 -52 -11.5 -107t-36.5 -107t-64 -98t-94.5 -80.5t-127.5 -54.5t-164 -20h-2208q-92 0 -164 20t-127.5 54.5t-94.5 80.5t-64 98t-36.5 107t-11.5 107v2160q0 52 11.5 107t36.5 107t64 98t94.5 80.5t127.5 54.5t164 20h2208z" />
    <glyph glyph-name="glyph433" horiz-adv-x="544" 
d="M729 2122v-237h-91q-52 0 -95 -16.5t-74 -46.5t-48 -72.5t-17 -103.5v-2142q0 -61 17 -103.5t48 -72.5t74 -46.5t95 -16.5h478q52 0 95 16.5t74 46.5t48 72.5t17 103.5v765h264v-774q0 -52 -11.5 -107t-36.5 -107t-64 -98t-94.5 -80.5t-127.5 -54.5t-164 -20h-478
q-92 0 -164 20t-127.5 54.5t-94.5 80.5t-64 98t-36.5 107t-11.5 107v2160q0 52 11.5 107t36.5 107t64 98t94.5 80.5t127.5 54.5t164 20h91z" />
    <glyph glyph-name="glyph434" horiz-adv-x="544" 
d="M1229 2122v-237h-591q-52 0 -95 -16.5t-74 -46.5t-48 -72.5t-17 -103.5v-2142q0 -61 17 -103.5t48 -72.5t74 -46.5t95 -16.5h975q52 0 95 16.5t74 46.5t48 72.5t17 103.5v765h264v-774q0 -52 -11.5 -107t-36.5 -107t-64 -98t-94.5 -80.5t-128 -54.5t-163.5 -20h-975
q-92 0 -164 20t-127.5 54.5t-94.5 80.5t-64 98t-36.5 107t-11.5 107v2160q0 52 11.5 107t36.5 107t64 98t94.5 80.5t127.5 54.5t164 20h591z" />
    <glyph glyph-name="glyph435" horiz-adv-x="544" 
d="M1618 2122v-237h-980q-52 0 -95 -16.5t-74 -46.5t-48 -72.5t-17 -85.5v-2160q0 -61 17 -103.5t48 -72.5t74 -46.5t95 -16.5h1367q52 0 95 16.5t74 46.5t48 72.5t17 103.5v765h264v-774q0 -52 -11.5 -107t-36.5 -107t-64 -98t-94.5 -80.5t-127.5 -54.5t-164 -20h-1367
q-92 0 -164 20t-127.5 54.5t-94.5 80.5t-64 98t-36.5 107t-11.5 107v2160q0 52 11.5 107t36.5 107t64 98t94.5 80.5t127.5 54.5t164 20h980z" />
    <glyph glyph-name="glyph436" horiz-adv-x="544" 
d="M1807 2122v-237h-1169q-52 0 -95 -16.5t-74 -46.5t-48 -72.5t-17 -103.5v-2142q0 -61 17 -103.5t48 -72.5t74 -46.5t95 -16.5h1560q52 0 95 16.5t74 46.5t48 72.5t17 103.5v765h264v-774q0 -52 -11.5 -107t-36.5 -107t-64 -98t-94.5 -80.5t-127.5 -54.5t-164 -20h-1560
q-92 0 -164 20t-127.5 54.5t-94.5 80.5t-64 98t-36.5 107t-11.5 107v2160q0 52 11.5 107t36.5 107t64 98t94.5 80.5t127.5 54.5t164 20h1169z" />
    <glyph glyph-name="glyph437" horiz-adv-x="544" 
d="M2129 2122v-237h-1491q-52 0 -95 -16.5t-74 -46.5t-48 -72.5t-17 -103.5v-2142q0 -61 17 -103.5t48 -72.5t74 -46.5t95 -16.5h1878q52 0 95 16.5t74 46.5t48 72.5t17 103.5v765h264v-774q0 -52 -11.5 -107t-36.5 -107t-64 -98t-94.5 -80.5t-128 -54.5t-163.5 -20h-1878
q-92 0 -164 20t-127.5 54.5t-94.5 80.5t-64 98t-36.5 107t-11.5 107v2160q0 52 11.5 107t36.5 107t64 98t94.5 80.5t127.5 54.5t164 20h1491z" />
    <glyph glyph-name="glyph438" horiz-adv-x="544" 
d="M2461 2122v-237h-1823q-52 0 -95 -16.5t-74 -46.5t-48 -72.5t-17 -103.5v-2142q0 -61 17 -103.5t48 -72.5t74 -46.5t95 -16.5h2208q52 0 95 16.5t74 46.5t48 72.5t17 103.5v765h264v-774q0 -52 -11.5 -107t-36.5 -107t-64 -98t-94.5 -80.5t-127.5 -54.5t-164 -20h-2208
q-92 0 -164 20t-127.5 54.5t-94.5 80.5t-64 98t-36.5 107t-11.5 107v2160q0 52 11.5 107t36.5 107t64 98t94.5 80.5t127.5 54.5t164 20h1823z" />
    <glyph glyph-name="glyph439" horiz-adv-x="544" 
d="M729 2122v-237h-91q-52 0 -95 -16.5t-74 -46.5t-48 -72.5t-17 -103.5v-2142q0 -61 17 -103.5t48 -72.5t74 -46.5t95 -16.5h975q52 0 95 16.5t74 46.5t48 72.5t17 103.5v765h264v-774q0 -52 -11.5 -107t-36.5 -107t-64 -98t-94.5 -80.5t-128 -54.5t-163.5 -20h-975
q-92 0 -164 20t-127.5 54.5t-94.5 80.5t-64 98t-36.5 107t-11.5 107v2160q0 52 11.5 107t36.5 107t64 98t94.5 80.5t127.5 54.5t164 20h91z" />
    <glyph glyph-name="glyph440" horiz-adv-x="544" 
d="M1118 2122v-237h-480q-52 0 -95 -16.5t-74 -46.5t-48 -72.5t-17 -103.5v-2142q0 -61 17 -103.5t48 -72.5t74 -46.5t95 -16.5h1367q52 0 95 16.5t74 46.5t48 72.5t17 103.5v765h264v-774q0 -52 -11.5 -107t-36.5 -107t-64 -98t-94.5 -80.5t-127.5 -54.5t-164 -20h-1367
q-92 0 -164 20t-127.5 54.5t-94.5 80.5t-64 98t-36.5 107t-11.5 107v2160q0 52 11.5 107t36.5 107t64 98t94.5 80.5t127.5 54.5t164 20h480z" />
    <glyph glyph-name="glyph441" horiz-adv-x="544" 
d="M1307 2122v-237h-669q-52 0 -95 -16.5t-74 -46.5t-48 -72.5t-17 -103.5v-2142q0 -61 17 -103.5t48 -72.5t74 -46.5t95 -16.5h1560q52 0 95 16.5t74 46.5t48 72.5t17 103.5v765h264v-774q0 -52 -11.5 -107t-36.5 -107t-64 -98t-94.5 -80.5t-127.5 -54.5t-164 -20h-1560
q-92 0 -164 20t-127.5 54.5t-94.5 80.5t-64 98t-36.5 107t-11.5 107v2160q0 52 11.5 107t36.5 107t64 98t94.5 80.5t127.5 54.5t164 20h669z" />
    <glyph glyph-name="glyph442" horiz-adv-x="544" 
d="M1629 2122v-237h-991q-52 0 -95 -16.5t-74 -46.5t-48 -72.5t-17 -103.5v-2142q0 -61 17 -103.5t48 -72.5t74 -46.5t95 -16.5h1878q52 0 95 16.5t74 46.5t48 72.5t17 103.5v765h264v-774q0 -52 -11.5 -107t-36.5 -107t-64 -98t-94.5 -80.5t-128 -54.5t-163.5 -20h-1878
q-92 0 -164 20t-127.5 54.5t-94.5 80.5t-64 98t-36.5 107t-11.5 107v2160q0 52 11.5 107t36.5 107t64 98t94.5 80.5t127.5 54.5t164 20h991z" />
    <glyph glyph-name="glyph443" horiz-adv-x="544" 
d="M1961 2122v-237h-1323q-52 0 -95 -16.5t-74 -46.5t-48 -72.5t-17 -103.5v-2142q0 -61 17 -103.5t48 -72.5t74 -46.5t95 -16.5h2208q52 0 95 16.5t74 46.5t48 72.5t17 103.5v765h264v-774q0 -52 -11.5 -107t-36.5 -107t-64 -98t-94.5 -80.5t-127.5 -54.5t-164 -20h-2208
q-92 0 -164 20t-127.5 54.5t-94.5 80.5t-64 98t-36.5 107t-11.5 107v2160q0 52 11.5 107t36.5 107t64 98t94.5 80.5t127.5 54.5t164 20h1323z" />
    <glyph glyph-name="glyph444" horiz-adv-x="544" 
d="M1116 2122q91 0 163.5 -20t128 -54.5t94.5 -80.5t64 -98t36.5 -107t11.5 -107v-46h-264v46q0 52 -17 94.5t-48 72.5t-74 46.5t-95 16.5h-478q-52 0 -95 -16.5t-74 -46.5t-48 -72.5t-17 -103.5v-2142q0 -61 17 -103.5t48 -72.5t74 -46.5t95 -16.5h91v-237h-91
q-92 0 -164 20t-127.5 54.5t-94.5 80.5t-64 98t-36.5 107t-11.5 107v2160q0 52 11.5 107t36.5 107t64 98t94.5 80.5t127.5 54.5t164 20h478z" />
    <glyph glyph-name="glyph445" horiz-adv-x="544" 
d="M1613 2122q91 0 163.5 -20t128 -54.5t94.5 -80.5t64 -98t36.5 -107t11.5 -107v-46h-264v46q0 52 -17 94.5t-48 72.5t-74 46.5t-95 16.5h-975q-52 0 -95 -16.5t-74 -46.5t-48 -72.5t-17 -94.5v-2151q0 -61 17 -103.5t48 -72.5t74 -46.5t95 -16.5h591v-237h-591
q-92 0 -164 20t-127.5 54.5t-94.5 80.5t-64 98t-36.5 107t-11.5 107v2160q0 52 11.5 107t36.5 107t64 98t94.5 80.5t127.5 54.5t164 20h975z" />
    <glyph glyph-name="glyph446" horiz-adv-x="544" 
d="M2005 2122q91 0 163.5 -20t128 -54.5t94.5 -80.5t64 -98t36.5 -107t11.5 -107v-46h-264v37q0 61 -17 103.5t-48 72.5t-74 46.5t-95 16.5h-1367q-52 0 -95 -16.5t-74 -46.5t-48 -72.5t-17 -103.5v-2142q0 -61 17 -103.5t48 -72.5t74 -46.5t95 -16.5h980v-237h-980
q-92 0 -164 20t-127.5 54.5t-94.5 80.5t-64 98t-36.5 107t-11.5 107v2160q0 52 11.5 107t36.5 107t64 98t94.5 80.5t127.5 54.5t164 20h1367z" />
    <glyph glyph-name="glyph447" horiz-adv-x="544" 
d="M2198 2122q91 0 163.5 -20t128 -54.5t94.5 -80.5t64 -98t36.5 -107t11.5 -107v-46h-264v46q0 52 -17 94.5t-48 72.5t-74 46.5t-95 16.5h-1560q-52 0 -95 -16.5t-74 -46.5t-48 -72.5t-17 -94.5v-2151q0 -61 17 -103.5t48 -72.5t74 -46.5t95 -16.5h1170v-237h-1170
q-92 0 -164 20t-127.5 54.5t-94.5 80.5t-64 98t-36.5 107t-11.5 107v2160q0 52 11.5 107t36.5 107t64 98t94.5 80.5t127.5 54.5t164 20h1560z" />
    <glyph glyph-name="glyph448" horiz-adv-x="544" 
d="M2516 2122q91 0 163.5 -20t128 -54.5t94.5 -80.5t64 -98t36.5 -107t11.5 -107v-46h-264v37q0 61 -17 103.5t-48 72.5t-74 46.5t-95 16.5h-1878q-52 0 -95 -16.5t-74 -46.5t-48 -72.5t-17 -103.5v-2142q0 -61 17 -103.5t48 -72.5t74 -46.5t95 -16.5h1491v-237h-1491
q-92 0 -164 20t-127.5 54.5t-94.5 80.5t-64 98t-36.5 107t-11.5 107v2160q0 52 11.5 107t36.5 107t64 98t94.5 80.5t127.5 54.5t164 20h1878z" />
    <glyph glyph-name="glyph449" horiz-adv-x="544" 
d="M2846 2122q91 0 163.5 -20t128 -54.5t94.5 -80.5t64 -98t36.5 -107t11.5 -107v-46h-264v46q0 52 -17 94.5t-48 72.5t-74 46.5t-95 16.5h-2208q-52 0 -95 -16.5t-74 -46.5t-48 -72.5t-17 -94.5v-2151q0 -61 17 -103.5t48 -72.5t74 -46.5t95 -16.5h1823v-237h-1823
q-92 0 -164 20t-127.5 54.5t-94.5 80.5t-64 98t-36.5 107t-11.5 107v2160q0 52 11.5 107t36.5 107t64 98t94.5 80.5t127.5 54.5t164 20h2208z" />
    <glyph glyph-name="glyph450" horiz-adv-x="544" 
d="M1116 2122q91 0 163.5 -20t128 -54.5t94.5 -80.5t64 -98t36.5 -107t11.5 -107v-46h-264v37q0 61 -17 103.5t-48 72.5t-74 46.5t-95 16.5h-478q-52 0 -95 -16.5t-74 -46.5t-48 -72.5t-17 -103.5v-2142q0 -61 17 -103.5t48 -72.5t74 -46.5t95 -16.5h14v-237h-14
q-92 0 -164 20t-127.5 54.5t-94.5 80.5t-64 98t-36.5 107t-11.5 107v2160q0 52 11.5 107t36.5 107t64 98t94.5 80.5t127.5 54.5t164 20h478z" />
    <glyph glyph-name="glyph451" horiz-adv-x="544" 
d="M1613 2122q91 0 163.5 -20t128 -54.5t94.5 -80.5t64 -98t36.5 -107t11.5 -107v-46h-264v37q0 61 -17 103.5t-48 72.5t-74 46.5t-95 16.5h-975q-52 0 -95 -16.5t-74 -46.5t-48 -72.5t-17 -103.5v-2151q0 -52 17 -94.5t48 -72.5t74 -46.5t95 -16.5h14v-237h-14
q-92 0 -164 20t-127.5 54.5t-94.5 80.5t-64 98t-36.5 107t-11.5 107v2160q0 52 11.5 107t36.5 107t64 98t94.5 80.5t127.5 54.5t164 20h975z" />
    <glyph glyph-name="glyph452" horiz-adv-x="544" 
d="M2005 2122q91 0 163.5 -20t128 -54.5t94.5 -80.5t64 -98t36.5 -107t11.5 -107v-46h-264v37q0 61 -17 103.5t-48 72.5t-74 46.5t-95 16.5h-1367q-52 0 -95 -16.5t-74 -46.5t-48 -72.5t-17 -103.5v-2142q0 -61 17 -103.5t48 -72.5t74 -46.5t95 -16.5h91v-237h-91
q-92 0 -164 20t-127.5 54.5t-94.5 80.5t-64 98t-36.5 107t-11.5 107v2160q0 52 11.5 107t36.5 107t64 98t94.5 80.5t127.5 54.5t164 20h1367z" />
    <glyph glyph-name="glyph453" horiz-adv-x="544" 
d="M2198 2122q91 0 163.5 -20t128 -54.5t94.5 -80.5t64 -98t36.5 -107t11.5 -107v-46h-264v37q0 61 -17 103.5t-48 72.5t-74 46.5t-95 16.5h-1560q-52 0 -95 -16.5t-74 -46.5t-48 -72.5t-17 -103.5v-2142q0 -61 17 -103.5t48 -72.5t74 -46.5t95 -16.5h91v-237h-91
q-92 0 -164 20t-127.5 54.5t-94.5 80.5t-64 98t-36.5 107t-11.5 107v2160q0 52 11.5 107t36.5 107t64 98t94.5 80.5t127.5 54.5t164 20h1560z" />
    <glyph glyph-name="glyph454" horiz-adv-x="544" 
d="M2516 2122q91 0 163.5 -20t128 -54.5t94.5 -80.5t64 -98t36.5 -107t11.5 -107v-46h-264v37q0 61 -17 103.5t-48 72.5t-74 46.5t-95 16.5h-1878q-52 0 -95 -16.5t-74 -46.5t-48 -72.5t-17 -103.5v-2142q0 -61 17 -103.5t48 -72.5t74 -46.5t95 -16.5h91v-237h-91
q-92 0 -164 20t-127.5 54.5t-94.5 80.5t-64 98t-36.5 107t-11.5 107v2160q0 52 11.5 107t36.5 107t64 98t94.5 80.5t127.5 54.5t164 20h1878z" />
    </font>
</defs>
</svg>
