<?xml version="1.0" standalone="no"?>
<!DOCTYPE svg PUBLIC "-//W3C//DTD SVG 20010904//EN"
 "http://www.w3.org/TR/2001/REC-SVG-20010904/DTD/svg10.dtd">
<svg version="1.0" xmlns="http://www.w3.org/2000/svg"
 width="1260.000000pt" height="1500.000000pt" viewBox="0 0 1260.000000 1500.000000"
 preserveAspectRatio="xMidYMid meet">
<metadata>
Created by potrace 1.13, written by Peter Selinger 2001-2015
</metadata>
<g transform="translate(0.000000,1500.000000) scale(0.100000,-0.100000)"
fill="#000000" stroke="none">
<path d="M3138 14783 c-75 -76 -78 -90 -78 -341 0 -211 -1 -220 -23 -253 -15
-22 -40 -40 -72 -53 -393 -153 -695 -323 -960 -541 -111 -92 -316 -298 -386
-390 -152 -198 -250 -402 -306 -635 -34 -144 -44 -458 -19 -628 73 -494 337
-968 852 -1528 77 -82 145 -158 153 -167 18 -22 38 9 -525 -797 -454 -650
-475 -681 -544 -830 -239 -517 -377 -1005 -436 -1545 -24 -219 -24 -670 -1
-883 31 -278 84 -525 164 -760 20 -60 551 -1228 1214 -2672 1170 -2545 1180
-2565 1232 -2616 33 -33 68 -56 93 -63 28 -8 851 -11 2872 -11 2380 0 2838 2
2866 14 18 7 49 33 70 57 28 32 327 644 1105 2259 587 1218 1092 2271 1124
2340 209 462 339 932 397 1436 29 257 29 839 0 1094 -47 411 -131 771 -270
1151 -97 267 -246 576 -353 734 -175 260 -641 854 -795 1016 l-101 105 117 82
c189 131 326 246 501 417 359 352 536 640 613 998 18 86 22 134 22 307 0 173
-4 221 -22 307 -55 256 -173 493 -357 722 -91 112 -282 301 -406 401 -272 219
-626 404 -816 427 -30 3 -61 12 -68 19 -33 33 -37 113 -15 320 22 220 25 339
9 381 -14 39 -107 131 -144 143 -46 15 -2319 30 -4630 30 l-2031 0 -46 -47z
m4072 -339 c1394 -9 2379 -19 2384 -25 6 -6 5 -60 -2 -146 -22 -246 -11 -352
49 -479 62 -132 160 -204 313 -230 104 -18 176 -44 306 -110 219 -111 413
-257 595 -446 168 -174 270 -320 339 -485 71 -168 81 -224 81 -443 0 -221 -11
-282 -84 -450 -135 -312 -473 -677 -891 -958 -214 -144 -281 -236 -288 -395
-6 -124 16 -164 167 -315 125 -126 317 -359 551 -672 233 -312 284 -387 358
-530 237 -455 403 -1016 464 -1565 21 -189 17 -802 -5 -985 -57 -458 -179
-892 -370 -1315 -24 -55 -464 -971 -977 -2035 -513 -1064 -976 -2027 -1031
-2140 -54 -113 -109 -225 -121 -250 l-23 -45 -395 -2 c-217 -2 -1422 5 -2678
16 -1928 15 -2285 20 -2296 32 -7 8 -314 669 -681 1469 -368 800 -871 1894
-1118 2430 -247 536 -469 1023 -493 1082 -79 192 -142 443 -181 718 -14 99
-17 195 -17 460 0 291 2 356 22 500 54 398 154 762 312 1140 118 283 124 293
585 950 631 901 625 890 625 1015 0 119 -36 176 -267 426 -512 554 -759 1023
-780 1484 -14 308 71 574 265 830 128 168 397 399 628 537 166 100 476 248
518 248 7 0 47 17 87 37 103 51 184 135 241 249 l43 87 3 156 c1 86 5 162 8
170 4 12 111 13 692 7 378 -3 1756 -13 3062 -22z"/>
<path d="M3268 13126 c-251 -89 -571 -365 -719 -621 -98 -168 -134 -314 -126
-504 7 -149 23 -215 82 -336 107 -216 316 -421 610 -600 l108 -65 78 0 c77 0
80 1 121 38 88 79 240 350 311 558 44 125 82 298 96 426 54 489 -94 1026 -306
1115 -53 22 -177 16 -255 -11z m115 -478 c54 -173 75 -364 57 -533 -21 -206
-64 -362 -152 -548 l-51 -107 -26 16 c-14 9 -65 48 -113 87 -192 154 -305 361
-283 520 30 213 210 447 468 607 34 21 65 39 68 39 4 1 18 -36 32 -81z"/>
<path d="M9323 13096 c-151 -71 -274 -375 -304 -754 -26 -333 41 -679 190
-987 110 -229 216 -373 286 -391 14 -3 51 -4 83 -2 48 4 73 14 154 63 209 126
405 293 520 444 62 81 140 242 164 336 27 106 25 304 -4 415 -30 112 -106 265
-186 370 -84 112 -259 280 -371 356 -232 158 -407 208 -532 150z m245 -441
c225 -131 398 -336 457 -540 47 -159 -22 -351 -182 -511 -52 -53 -207 -174
-221 -174 -12 1 -105 208 -138 309 -53 161 -68 263 -68 461 -1 193 9 270 54
410 20 61 28 80 35 80 2 0 30 -16 63 -35z"/>
</g>
</svg>
