<?xml version="1.0" standalone="no"?>
<!DOCTYPE svg PUBLIC "-//W3C//DTD SVG 1.1//EN" "http://www.w3.org/Graphics/SVG/1.1/DTD/svg11.dtd" >
<svg>
<metadata>
Created by FontForge 20090914 at Thu Dec 21 15:25:00 2017
 By www-data
Copyright (c) 2011 by Jonathan Hill. All rights reserved.
</metadata>
<defs>
<font id="Tondu-Beta" horiz-adv-x="833" >
  <font-face 
    font-family="Tondu Beta"
    font-weight="400"
    font-stretch="normal"
    units-per-em="1000"
    panose-1="2 0 0 0 0 0 0 0 0 0"
    ascent="750"
    descent="-250"
    x-height="482"
    cap-height="700"
    bbox="12 -204.998 1156 950"
    underline-thickness="50"
    underline-position="-50"
    unicode-range="U+0020-U+FB02"
  />
<missing-glyph horiz-adv-x="300" 
 />
    <glyph glyph-name=".notdef" horiz-adv-x="300" 
 />
    <glyph glyph-name="space" unicode=" " horiz-adv-x="300" 
 />
    <glyph glyph-name="exclam" unicode="!" horiz-adv-x="291" 
d="M251 700l-20 -474h-170l-20 474h210zM21 95c0 14 3.16699 27.167 9.5 39.5s15.166 23.166 26.499 32.499s24.666 16.666 39.999 21.999s31.666 8 48.999 8s33.5 -2.66699 48.5 -8s28.167 -12.666 39.5 -21.999s20.166 -20.166 26.499 -32.499s9.5 -25.5 9.5 -39.5
s-3.16699 -27.167 -9.5 -39.5s-15.166 -23.333 -26.499 -33s-24.5 -17.167 -39.5 -22.5s-31.167 -8 -48.5 -8s-33.666 2.66699 -48.999 8s-28.666 12.833 -39.999 22.5s-20.166 20.667 -26.499 33s-9.5 25.5 -9.5 39.5z" />
    <glyph glyph-name="quotedbl" unicode="&#x22;" horiz-adv-x="389" 
d="M153 375h-128v325h128v-325zM364 375h-128v325h128v-325z" />
    <glyph glyph-name="numbersign" unicode="#" horiz-adv-x="738" 
d="M719 562v-128h-123l-36 -168h159v-128h-186l-29 -138h-128l29 138h-168l-29 -138h-128l29 138h-90v128h117l36 168h-153v128h180l30 138h128l-30 -138h168l30 138h128l-30 -138h96zM264 266h168l36 168h-168z" />
    <glyph glyph-name="dollar" unicode="$" horiz-adv-x="570" 
d="M207 -100l-0.00292969 86c-27.333 2 -57 8 -89 18s-60.667 27.667 -86 53v227c8.66699 -8.66699 19.834 -18.5 33.501 -29.5s29 -21.333 46 -31s35.167 -17.834 54.5 -24.501s39 -10 59 -10c23.333 0 38.833 3 46.5 9s11.5 13 11.5 21c0 10.667 -6.5 19 -19.5 25
s-29.167 12 -48.5 18s-40.5 13.167 -63.5 21.5s-44.167 20.5 -63.5 36.5s-35.5 36.833 -48.5 62.5s-19.5 58.5 -19.5 98.5c0 34.667 5.33301 64.667 16 90s24.667 47 42 65s37.333 32.5 60 43.5s45.667 19.5 69 25.5v95h156v-89c27.333 -3.33301 54.333 -10.166 81 -20.499
s54 -26.166 82 -47.499v-203c-36.667 26 -70.5 43.333 -101.5 52s-60.167 13 -87.5 13c-2.66699 0 -6.66699 -0.333008 -12 -1s-10.666 -1.83398 -15.999 -3.50098s-10 -4 -14 -7s-6 -7.16699 -6 -12.5c0 -9.33301 4.83301 -16.5 14.5 -21.5s22.334 -9.5 38.001 -13.5
s33 -8.16699 52 -12.5s38.167 -10.833 57.5 -19.5c29.333 -12.667 53.333 -33.5 72 -62.5s28 -62.5 28 -100.5c0 -34 -4.66699 -64.667 -14 -92s-22.5 -51.5 -39.5 -72.5s-37 -38.667 -60 -53s-47.833 -25.5 -74.5 -33.5v-100h-156z" />
    <glyph glyph-name="percent" unicode="%" horiz-adv-x="807" 
d="M92 -17l478 734h140l-478 -734h-140zM21 525c0 24 4 46.667 12 68s19.167 40 33.5 56s31.166 28.5 50.499 37.5s40.666 13.5 63.999 13.5c22.667 0 43.834 -4.5 63.501 -13.5s36.834 -21.5 51.501 -37.5s26 -34.667 34 -56s12 -44 12 -68c0 -24.667 -4 -47.667 -12 -69
s-19.333 -39.833 -34 -55.5s-31.834 -28 -51.501 -37s-40.834 -13.5 -63.501 -13.5c-23.333 0 -44.666 4.5 -63.999 13.5s-36.166 21.333 -50.499 37s-25.5 34.167 -33.5 55.5s-12 44.333 -12 69zM139 525c0 -15.333 3.5 -28.333 10.5 -39s17.5 -16 31.5 -16
c14.667 0 25.5 5.33301 32.5 16s10.5 23.667 10.5 39s-3.5 28.333 -10.5 39s-17.833 16 -32.5 16c-14 0 -24.5 -5.33301 -31.5 -16s-10.5 -23.667 -10.5 -39zM466 175c0 24 4 46.667 12 68s19.167 40 33.5 56s31.166 28.5 50.499 37.5s40.666 13.5 63.999 13.5
c22.667 0 43.834 -4.5 63.501 -13.5s36.834 -21.5 51.501 -37.5s26 -34.667 34 -56s12 -44 12 -68c0 -24.667 -4 -47.667 -12 -69s-19.333 -39.833 -34 -55.5s-31.834 -28 -51.501 -37s-40.834 -13.5 -63.501 -13.5c-23.333 0 -44.666 4.5 -63.999 13.5
s-36.166 21.333 -50.499 37s-25.5 34.167 -33.5 55.5s-12 44.333 -12 69zM584 175c0 -15.333 3.5 -28.333 10.5 -39s17.5 -16 31.5 -16c14.667 0 25.5 5.33301 32.5 16s10.5 23.667 10.5 39s-3.5 28.333 -10.5 39s-17.833 16 -32.5 16c-14 0 -24.5 -5.33301 -31.5 -16
s-10.5 -23.667 -10.5 -39z" />
    <glyph glyph-name="ampersand" unicode="&#x26;" horiz-adv-x="843" 
d="M291 295c-20.667 -6 -37.168 -15.833 -49.501 -29.5s-18.5 -30.5 -18.5 -50.5c0 -28 8.33301 -48.667 25 -62s35.667 -20 57 -20c10 0 19 0.5 27 1.5s15.333 3 22 6s13.334 7.5 20.001 13.5s14 14 22 24zM520.999 308l103.999 136.998h169l-166 -245l199 -200h-280
l-54 63c-25.333 -25.333 -56.666 -45 -93.999 -59s-76 -21 -116 -21c-35.333 0 -68.833 5.33301 -100.5 16s-59.5 25.5 -83.5 44.5s-43 41.333 -57 67s-21 53.5 -21 83.5c0 22.667 4 44.5 12 65.5s19.833 40 35.5 57s34.667 31.5 57 43.5s47.5 20.333 75.5 25l-70 70
c-12 13.333 -20 28 -24 44s-6 31.667 -6 47c0 22.667 5.5 44.334 16.5 65.001s27 38.834 48 54.501s46.833 28.167 77.5 37.5s65.667 14 105 14c41.333 0 78 -4.66699 110 -14s58.833 -21.833 80.5 -37.5s38 -33.834 49 -54.501s16.5 -42.334 16.5 -65.001
c0 -35.333 -14.167 -67.166 -42.5 -95.499s-67.833 -50.166 -118.5 -65.499zM327.998 529.998c0 -12.667 4.16699 -23.334 12.5 -32.001s18.833 -13 31.5 -13c13.333 0 24.333 4.33301 33 13s13 19.334 13 32.001c0 13.333 -4.33301 24.5 -13 33.5s-19.667 13.5 -33 13.5
c-12.667 0 -23.167 -4.5 -31.5 -13.5s-12.5 -20.167 -12.5 -33.5z" />
    <glyph glyph-name="quotesingle" unicode="'" horiz-adv-x="178" 
d="M153 375h-128v325h128v-325z" />
    <glyph glyph-name="parenleft" unicode="(" horiz-adv-x="309" 
d="M288 654c-17.333 -35.333 -32.668 -74.668 -46.001 -118.001c-11.333 -37.333 -21.833 -81.666 -31.5 -132.999s-14.5 -108 -14.5 -170c0 -62.667 6.66699 -128.5 20 -197.5s37.333 -140.833 72 -215.5h-175c-29.333 74.667 -52.166 146.5 -68.499 215.5
s-24.5 134.833 -24.5 197.5c0 46 3.33301 89.667 10 131s14.667 80 24 116s19.5 68.667 30.5 98l28.5 76h175z" />
    <glyph glyph-name="parenright" unicode=")" horiz-adv-x="309" 
d="M196 654l28.498 -75.998c11 -29.333 21.167 -62 30.5 -98s17.333 -74.667 24 -116s10 -85 10 -131c0 -62.667 -8.16699 -128.5 -24.5 -197.5s-39.166 -140.833 -68.499 -215.5h-175c34.667 74.667 58.667 146.5 72 215.5s20 134.833 20 197.5
c0 62 -4.83301 118.667 -14.5 170s-20.167 95.666 -31.5 132.999c-13.333 43.333 -28.666 82.666 -45.999 117.999h175z" />
    <glyph glyph-name="asterisk" unicode="*" horiz-adv-x="337" 
d="M85 308l-66 66l83 84l-83 84l66 66l37 -37v52h93v-52l37 37l66 -66l-84 -84l84 -84l-66 -66l-37 37v-52h-93v52z" />
    <glyph glyph-name="plus" unicode="+" horiz-adv-x="449" 
d="M310 103h-172v122h-121v172h121v121h172v-121h122v-172h-122v-122z" />
    <glyph glyph-name="comma" unicode="," horiz-adv-x="250" 
d="M150 -138h-128.003l54 143c-16 9.33301 -29 22 -39 38s-15 34 -15 54c0 14.667 2.66699 28.334 8 41.001s12.833 23.667 22.5 33s20.834 16.833 33.501 22.5s26.334 8.5 41.001 8.5s28.334 -2.83301 41.001 -8.5s23.667 -13.167 33 -22.5s16.833 -20.333 22.5 -33
s8.5 -26.334 8.5 -41.001c0 -12 -2.33301 -24.333 -7 -37z" />
    <glyph glyph-name="hyphen" unicode="-" horiz-adv-x="299" 
d="M25 225v172h249v-172h-249z" />
    <glyph glyph-name="period" unicode="." horiz-adv-x="251" 
d="M20 97c0 14.667 2.66699 28.334 8 41.001s12.833 23.667 22.5 33s20.834 16.833 33.501 22.5s26.334 8.5 41.001 8.5s28.334 -2.83301 41.001 -8.5s23.667 -13.167 33 -22.5s16.833 -20.333 22.5 -33s8.5 -26.334 8.5 -41.001s-2.83301 -28.334 -8.5 -41.001
s-13.167 -23.834 -22.5 -33.501s-20.333 -17.167 -33 -22.5s-26.334 -8 -41.001 -8s-28.334 2.66699 -41.001 8s-23.834 12.833 -33.501 22.5s-17.167 20.834 -22.5 33.501s-8 26.334 -8 41.001z" />
    <glyph glyph-name="slash" unicode="/" horiz-adv-x="491" 
d="M12 0l311 700h156l-311 -700h-156z" />
    <glyph glyph-name="zero" unicode="0" horiz-adv-x="685" 
d="M21 338c0 48.667 8.16699 94.167 24.5 136.5s38.666 79.333 66.999 111s62.166 56.667 101.499 75s82 27.5 128 27.5s88.667 -9.16699 128 -27.5s73.333 -43.333 102 -75s51.167 -68.667 67.5 -111s24.5 -87.833 24.5 -136.5s-8.16699 -94.334 -24.5 -137.001
s-38.833 -79.667 -67.5 -111s-62.667 -56.166 -102 -74.499s-82 -27.5 -128 -27.5s-88.667 9.16699 -128 27.5s-73.166 43.166 -101.499 74.499s-50.666 68.333 -66.999 111s-24.5 88.334 -24.5 137.001zM258 338c0 -30.667 6.83301 -56.667 20.5 -78s34.834 -32 63.501 -32
s50 10.667 64 32s21 47.333 21 78s-7 56.667 -21 78s-35.333 32 -64 32s-49.834 -10.667 -63.501 -32s-20.5 -47.333 -20.5 -78z" />
    <glyph glyph-name="one" unicode="1" horiz-adv-x="290" 
d="M55 0l-0.00390625 422c0 7.33301 -2.5 14.333 -7.5 21s-14.167 10 -27.5 10v155c12.667 0 25.334 2.66699 38.001 8s24.334 12 35.001 20s20.334 16.333 29.001 25s15.334 16 20.001 22h123v-683h-210z" />
    <glyph glyph-name="two" unicode="2" horiz-adv-x="539" 
d="M44 655c26.667 13.333 55.002 23.001 85.002 29.001s60.667 9 92 9c32 0 63.833 -4.83301 95.5 -14.5s60 -23.834 85 -42.501s45.167 -41.5 60.5 -68.5s23 -57.833 23 -92.5c0 -28.667 -5.66699 -56 -17 -82s-25.833 -50.667 -43.5 -74s-36.834 -45.833 -57.501 -67.5
l-59 -63.5h210v-188h-494v188l59.5 37c23 14 45 29.667 66 47s38.833 36.5 53.5 57.5s22 44.167 22 69.5c0 27.333 -8 47.333 -24 60s-36.667 19 -62 19c-19.333 0 -36.333 -3 -51 -9s-29.334 -13 -44.001 -21v207z" />
    <glyph glyph-name="three" unicode="3" horiz-adv-x="537" 
d="M412 357l36.499 -25.5059c12.333 -9 23.5 -20.167 33.5 -33.5s18.167 -29.166 24.5 -47.499s9.5 -40.833 9.5 -67.5c0 -39.333 -10 -71.333 -30 -96s-44.333 -44.167 -73 -58.5s-59.167 -24.166 -91.5 -29.499s-60.5 -8 -84.5 -8c-10.667 0 -25 0.5 -43 1.5
s-37.167 3.33301 -57.5 7s-40.5 9 -60.5 16s-37.333 16.5 -52 28.5v197c18 -8 33.833 -14.667 47.5 -20s26.5 -9.83301 38.5 -13.5s23.667 -6.33398 35 -8.00098s23.666 -2.5 36.999 -2.5c6 0 12.833 0.5 20.5 1.5s14.834 2.66699 21.501 5s12.334 5.83301 17.001 10.5
s7 11 7 19c0 6.66699 -1.83301 12.167 -5.5 16.5s-8.5 7.66602 -14.5 9.99902s-12.667 3.83301 -20 4.5s-14.333 1 -21 1h-111v156h80c4 0 10.667 0.333008 20 1s18.833 2.33398 28.5 5.00098s18.167 6.5 25.5 11.5s11 12.167 11 21.5c0 8 -2.83301 14.333 -8.5 19
s-12.334 8 -20.001 10s-15 3.16699 -22 3.5s-11.5 0.5 -13.5 0.5c-18 0 -35 -1.66699 -51 -5s-30.5 -7.16602 -43.5 -11.499s-24.5 -8.83301 -34.5 -13.5s-18 -8 -24 -10v194c20 10.667 39.833 18.834 59.5 24.501s38 9.83398 55 12.501s32.167 4.33398 45.5 5.00098
s24.333 1 33 1c30 0 61.5 -3.16699 94.5 -9.5s63.333 -16.666 91 -30.999s50.5 -33 68.5 -56s27 -51.5 27 -85.5c0 -19.333 -2.33301 -36.5 -7 -51.5s-11 -28.5 -19 -40.5s-17.167 -22.667 -27.5 -32s-21.166 -18.333 -32.499 -27z" />
    <glyph glyph-name="four" unicode="4" horiz-adv-x="617" 
d="M16 301l218 382h281v-382h82v-176h-82v-125h-210v125h-289v176zM305 301v163l-93 -163h93z" />
    <glyph glyph-name="five" unicode="5" horiz-adv-x="554" 
d="M269 433c35.333 0 69 -3.67188 101 -11.0049s60 -19.166 84 -35.499s43.167 -37.166 57.5 -62.499s21.5 -56 21.5 -92c0 -41.333 -8.66699 -77.166 -26 -107.499s-40 -55.5 -68 -75.5s-60 -34.833 -96 -44.5s-72.667 -14.5 -110 -14.5c-7.33301 0 -19 0.333008 -35 1
s-34 2.66699 -54 6s-40.667 8.33301 -62 15s-41 16.334 -59 29.001v177c10.667 -5.33301 22.5 -10.5 35.5 -15.5s26.333 -9.33301 40 -13s27.167 -6.66699 40.5 -9s26 -3.5 38 -3.5c10 0 20.333 1 31 3s20.5 5.33301 29.5 10s16.5 11 22.5 19s9 18 9 30
c0 10 -3.16699 18.167 -9.5 24.5s-14 11.333 -23 15s-18.667 6.33398 -29 8.00098s-19.5 2.5 -27.5 2.5c-18.667 0 -39.667 -2.33301 -63 -7s-45 -10.667 -65 -18v419h427v-205h-230v-45h20z" />
    <glyph glyph-name="six" unicode="6" horiz-adv-x="622" 
d="M263 250c0 -15.333 5.33301 -28.666 16 -39.999s23.334 -17 38.001 -17c15.333 0 28.166 5.66699 38.499 17s15.5 24.666 15.5 39.999s-5.16699 28.666 -15.5 39.999s-23.166 17 -38.499 17c-14.667 0 -27.334 -5.66699 -38.001 -17s-16 -24.666 -16 -39.999zM604 251
c0 -42.667 -7.49609 -80.334 -22.4961 -113.001s-35.5 -60.167 -61.5 -82.5s-56.5 -39.166 -91.5 -50.499s-72.5 -17 -112.5 -17s-77.833 5.66699 -113.5 17s-67 28.166 -94 50.499s-48.5 49.833 -64.5 82.5s-24 70.334 -24 113.001c0 38 5.66699 77 17 117
s26.166 79 44.499 117s39.5 74 63.5 108s49 64 75 90h243c-4.66699 -6 -14.334 -17.667 -29.001 -35s-30.334 -37.333 -47.001 -60s-32.5 -46.334 -47.5 -71.001s-25.5 -47 -31.5 -67l29.5 9c11 3.33301 28.167 5 51.5 5c30 0 58 -5 84 -15s48.667 -24.167 68 -42.5
s34.666 -40.666 45.999 -66.999s17 -55.833 17 -88.5z" />
    <glyph glyph-name="seven" unicode="7" horiz-adv-x="562" 
d="M36 0l277 523h-290v177h442l81 -177l-251 -523h-259z" />
    <glyph glyph-name="eight" unicode="8" horiz-adv-x="671" 
d="M336 -10c-30 0 -63.1621 3.33301 -99.4951 10s-70.333 18 -102 34s-58.334 37 -80.001 63s-32.5 58.667 -32.5 98c0 37.333 10.333 69.833 31 97.5s50 49.167 88 64.5c-9.33301 6 -19.666 13.5 -30.999 22.5s-22.333 20 -33 33s-19.5 27.833 -26.5 44.5
s-10.5 35.667 -10.5 57c0 36.667 10.333 66.334 31 89.001s46 40.334 76 53.001s62.167 21.334 96.5 26.001s65.166 7 92.499 7s58.166 -2.33301 92.499 -7s66.5 -13.334 96.5 -26.001s55.333 -30.334 76 -53.001s31 -52.334 31 -89.001c0 -21.333 -3.5 -40.333 -10.5 -57
s-15.833 -31.5 -26.5 -44.5s-21.834 -24 -33.501 -33s-21.834 -16.5 -30.501 -22.5c38 -15.333 67.333 -36.833 88 -64.5s31 -60.167 31 -97.5c0 -39.333 -10.833 -72 -32.5 -98s-48.334 -47 -80.001 -63s-65.667 -27.333 -102 -34s-69.5 -10 -99.5 -10zM287.005 482
c0 -13.333 4.83301 -24.833 14.5 -34.5s21.167 -14.5 34.5 -14.5s24.833 4.83301 34.5 14.5s14.5 21.167 14.5 34.5s-4.83301 24.833 -14.5 34.5s-21.167 14.5 -34.5 14.5s-24.833 -4.83301 -34.5 -14.5s-14.5 -21.167 -14.5 -34.5zM281.005 224
c0 -15.333 5.33301 -28.333 16 -39s23.667 -16 39 -16s28.333 5.33301 39 16s16 23.667 16 39s-5.33301 28.333 -16 39s-23.667 16 -39 16s-28.333 -5.33301 -39 -16s-16 -23.667 -16 -39z" />
    <glyph glyph-name="nine" unicode="9" horiz-adv-x="622" 
d="M359 433c0 15.333 -5.33301 28.666 -16 39.999s-23.334 17 -38.001 17c-15.333 0 -28.166 -5.66699 -38.499 -17s-15.5 -24.666 -15.5 -39.999s5.16699 -28.666 15.5 -39.999s23.166 -17 38.499 -17c14.667 0 27.334 5.66699 38.001 17s16 24.666 16 39.999zM18 432
c0 42.667 7.5 80.335 22.5 113.002s35.5 60.167 61.5 82.5s56.5 39.166 91.5 50.499s72.5 17 112.5 17s77.833 -5.66699 113.5 -17s67 -28.166 94 -50.499s48.5 -49.833 64.5 -82.5s24 -70.334 24 -113.001c0 -38 -5.66699 -77 -17 -117s-26.166 -79 -44.499 -117
s-39.5 -74 -63.5 -108s-49 -64 -75 -90h-243l45 54c15.333 18 30 36.5 44 55.5s26.667 38.667 38 59s20.666 41.833 27.999 64.5c-4.66699 -1.33301 -9.33398 -2.83301 -14.001 -4.5s-10 -3.16699 -16 -4.5s-13 -2.5 -21 -3.5s-18 -1.5 -30 -1.5c-30 0 -58 5 -84 15
s-48.667 24.167 -68 42.5s-34.666 40.666 -45.999 66.999s-17 55.833 -17 88.5z" />
    <glyph glyph-name="colon" unicode=":" horiz-adv-x="252" 
d="M21 97c0 14.667 2.66699 28.334 8 41.001s12.833 23.667 22.5 33s20.834 16.833 33.501 22.5s26.334 8.5 41.001 8.5s28.334 -2.83301 41.001 -8.5s23.667 -13.167 33 -22.5s16.833 -20.333 22.5 -33s8.5 -26.334 8.5 -41.001s-2.83301 -28.334 -8.5 -41.001
s-13.167 -23.834 -22.5 -33.501s-20.333 -17.167 -33 -22.5s-26.334 -8 -41.001 -8s-28.334 2.66699 -41.001 8s-23.834 12.833 -33.501 22.5s-17.167 20.834 -22.5 33.501s-8 26.334 -8 41.001zM21 396c0 14.667 2.66699 28.334 8 41.001s12.833 23.667 22.5 33
s20.834 16.833 33.501 22.5s26.334 8.5 41.001 8.5s28.334 -2.83301 41.001 -8.5s23.667 -13.167 33 -22.5s16.833 -20.333 22.5 -33s8.5 -26.334 8.5 -41.001s-2.83301 -28.334 -8.5 -41.001s-13.167 -23.834 -22.5 -33.501s-20.333 -17.167 -33 -22.5
s-26.334 -8 -41.001 -8s-28.334 2.66699 -41.001 8s-23.834 12.833 -33.501 22.5s-17.167 20.834 -22.5 33.501s-8 26.334 -8 41.001z" />
    <glyph glyph-name="semicolon" unicode=";" horiz-adv-x="251" 
d="M22 396c0 14.667 2.66699 28.334 8 41.001s12.833 23.667 22.5 33s20.834 16.833 33.501 22.5s26.334 8.5 41.001 8.5s28.334 -2.83301 41.001 -8.5s23.667 -13.167 33 -22.5s16.833 -20.333 22.5 -33s8.5 -26.334 8.5 -41.001s-2.83301 -28.334 -8.5 -41.001
s-13.167 -23.834 -22.5 -33.501s-20.333 -17.167 -33 -22.5s-26.334 -8 -41.001 -8s-28.334 2.66699 -41.001 8s-23.834 12.833 -33.501 22.5s-17.167 20.834 -22.5 33.501s-8 26.334 -8 41.001zM150 -138h-128.003l54 143c-16 9.33301 -29 22 -39 38s-15 34 -15 54
c0 14.667 2.66699 28.334 8 41.001s12.833 23.667 22.5 33s20.834 16.833 33.501 22.5s26.334 8.5 41.001 8.5s28.334 -2.83301 41.001 -8.5s23.667 -13.167 33 -22.5s16.833 -20.333 22.5 -33s8.5 -26.334 8.5 -41.001c0 -12 -2.33301 -24.333 -7 -37z" />
    <glyph glyph-name="less" unicode="&#x3c;" horiz-adv-x="408" 
d="M383 20l-371 195v196l371 196v-196l-196 -93l196 -103v-195z" />
    <glyph glyph-name="equal" unicode="=" horiz-adv-x="465" 
d="M440 314v-128h-415v128h415zM440 497v-128h-415v128h415z" />
    <glyph glyph-name="greater" unicode="&#x3e;" horiz-adv-x="408" 
d="M25 215l196 103l-196 93v196l371 -196v-196l-371 -195v195z" />
    <glyph glyph-name="question" unicode="?" horiz-adv-x="441" 
d="M22 95c0 14 3.16699 27.167 9.5 39.5s15.166 23.166 26.499 32.499s24.666 16.666 39.999 21.999s31.666 8 48.999 8s33.5 -2.66699 48.5 -8s28.167 -12.666 39.5 -21.999s20.166 -20.166 26.499 -32.499s9.5 -25.5 9.5 -39.5s-3.16699 -27.167 -9.5 -39.5
s-15.166 -23.333 -26.499 -33s-24.5 -17.167 -39.5 -22.5s-31.167 -8 -48.5 -8s-33.666 2.66699 -48.999 8s-28.666 12.833 -39.999 22.5s-20.166 20.667 -26.499 33s-9.5 25.5 -9.5 39.5zM42 685c21.333 11.333 44.5039 19.498 69.5039 24.498s50.5 7.5 76.5 7.5
c26.667 0 54.167 -3.5 82.5 -10.5s54 -18 77 -33s41.833 -34.333 56.5 -58s22 -52.5 22 -86.5c0 -26 -4.5 -48.333 -13.5 -67s-20.5 -35.5 -34.5 -50.5s-29.167 -29 -45.5 -42s-31.5 -26.833 -45.5 -41.5c0 -0.666992 -2.83301 -4.16699 -8.5 -10.5
s-11.834 -14.333 -18.501 -24s-12.834 -20.334 -18.501 -32.001s-8.5 -23.5 -8.5 -35.5h-169c0 22.667 3.5 44.334 10.5 65.001s15.167 39.334 24.5 56.001s18.833 31 28.5 43s17.5 21.333 23.5 28c3.33301 4 8.66602 9.66699 15.999 17s14.666 15.833 21.999 25.5
s13.833 20.334 19.5 32.001s8.5 23.834 8.5 36.501c0 13.333 -5 25.166 -15 35.499s-24.333 15.5 -43 15.5c-23.333 0 -45 -3.5 -65 -10.5s-37.333 -13.833 -52 -20.5v136z" />
    <glyph glyph-name="at" unicode="@" horiz-adv-x="710" 
d="M363 149c-9.33301 -10 -20.3311 -16.9971 -32.998 -20.9971s-25.667 -6 -39 -6c-18 0 -34.167 4 -48.5 12s-26.5 19.167 -36.5 33.5s-17.5 31.166 -22.5 50.499s-7.5 40.666 -7.5 63.999c0 22.667 2.5 43.834 7.5 63.501s12.5 36.834 22.5 51.501
s22.167 26.167 36.5 34.5s30.5 12.5 48.5 12.5c13.333 0 26.333 -2.33301 39 -7s23.667 -11.667 33 -21v31h133v-228h94v103c0 30 -5.83301 58.333 -17.5 85s-27.334 50 -47.001 70s-42.834 35.833 -69.501 47.5s-55 17.5 -85 17.5h-20c-32.667 0 -63 -5.83301 -91 -17.5
s-52.333 -27.5 -73 -47.5s-36.834 -43.333 -48.501 -70s-17.5 -55 -17.5 -85v-103c0 -30 5.83301 -58.333 17.5 -85s27.834 -49.834 48.501 -69.501s45 -35.334 73 -47.001s58.333 -17.5 91 -17.5h20c21.333 0 42 3.16699 62 9.5s38.667 15.166 56 26.499
c0.666992 -0.666992 8.5 -1 23.5 -1h48.5h70c-29.333 -40.667 -66.5 -73.334 -111.5 -98.001s-94.5 -37 -148.5 -37h-20c-46.667 0 -90 8.33301 -130 25s-74.833 39.5 -104.5 68.5s-53 62.833 -70 101.5s-25.5 80 -25.5 124v103c0 44 8.5 85.333 25.5 124
s40.333 72.5 70 101.5s64.5 52 104.5 69s83.333 25.5 130 25.5h20c44 0 85.333 -8.5 124 -25.5s72.5 -40 101.5 -69s51.833 -62.833 68.5 -101.5s25 -80 25 -124v-103c0 -12 -2.5 -23.667 -7.5 -35s-11.667 -21.166 -20 -29.499s-18 -15 -29 -20s-22.833 -7.5 -35.5 -7.5
h-235v22zM363.002 282.003c0 12 -2.66699 22.333 -8 31s-13.666 13 -24.999 13s-20 -4.33301 -26 -13s-9 -19 -9 -31c0 -12.667 3 -23.167 9 -31.5s14.667 -12.5 26 -12.5s19.666 4.16699 24.999 12.5s8 18.833 8 31.5z" />
    <glyph glyph-name="A" unicode="A" horiz-adv-x="643" 
d="M229 0h-210l169 700h266l170 -700h-210l-24 121h-137zM321 468l-35 -176h70z" />
    <glyph glyph-name="B" unicode="B" horiz-adv-x="616" 
d="M25 0l0.000976562 699.996h351c25.333 0 49.666 -3.66699 72.999 -11s44 -18.166 62 -32.499s32.333 -32.5 43 -54.5s16 -47.333 16 -76c0 -23.333 -3.5 -43.666 -10.5 -60.999s-15 -32 -24 -44s-17.5 -21.333 -25.5 -28s-13 -11 -15 -13
c2 -2 8.16699 -6.16699 18.5 -12.5s21.5 -16.166 33.5 -29.499s22.833 -30.666 32.5 -51.999s14.5 -47.333 14.5 -78c0 -45.333 -10.5 -81.666 -31.5 -108.999s-48 -48.333 -81 -63s-69.833 -24.334 -110.5 -29.001s-81 -7 -121 -7h-225zM254.001 279.996
l-0.00195312 -83.001h21c6.66699 0 13.834 0.5 21.501 1.5s14.834 3 21.501 6s12 7.33301 16 13s6 12.834 6 21.501c0 16.667 -6.33301 27.667 -19 33s-25.667 8 -39 8h-28zM253.999 517.995l0.000976562 -81.001h29c6 0 12.167 0.833008 18.5 2.5
s12.166 4.33398 17.499 8.00098s9.83301 8 13.5 13s5.5 11.167 5.5 18.5c0 8.66699 -2 15.5 -6 20.5s-9 8.83301 -15 11.5s-12.667 4.5 -20 5.5s-14.333 1.5 -21 1.5h-22z" />
    <glyph glyph-name="C" unicode="C" horiz-adv-x="563" 
d="M539 31c-25.333 -15.333 -52.666 -27.0039 -81.999 -35.0039s-60 -12 -92 -12c-50 0 -96 9.5 -138 28.5s-78.5 45 -109.5 78s-55.167 71.833 -72.5 116.5s-26 92.334 -26 143.001s8.66699 98.334 26 143.001s41.5 83.5 72.5 116.5s67.5 59.167 109.5 78.5s88 29 138 29
c32 0 62.667 -4.16699 92 -12.5s56.666 -20.166 81.999 -35.499v-256l-23.5 22.5c-8.33301 7.66699 -17.666 14.667 -27.999 21s-22.333 11.5 -36 15.5s-29.5 6 -47.5 6c-21.333 0 -39.833 -3.33301 -55.5 -10s-28.667 -15.834 -39 -27.501s-18 -25.167 -23 -40.5
s-7.5 -32 -7.5 -50c0 -17.333 2.5 -33.666 7.5 -48.999s12.667 -28.666 23 -39.999s23.333 -20.333 39 -27s34.167 -10 55.5 -10c34 0 62.667 8.16699 86 24.5s39.666 36.833 48.999 61.5v-279z" />
    <glyph glyph-name="D" unicode="D" horiz-adv-x="695" 
d="M307 240c36.667 0 63.834 9.5 81.501 28.5s26.5 46.167 26.5 81.5s-8.83301 62.5 -26.5 81.5s-44.834 28.5 -81.501 28.5h-26v-220h26zM25 0v700h282c52.667 0 101.5 -8.66699 146.5 -26s83.833 -41.5 116.5 -72.5s58.334 -68 77.001 -111s28 -89.833 28 -140.5
s-9.33301 -97.5 -28 -140.5s-44.334 -80 -77.001 -111s-71.5 -55.167 -116.5 -72.5s-93.833 -26 -146.5 -26h-282z" />
    <glyph glyph-name="E" unicode="E" horiz-adv-x="515" 
d="M25 700h456v-203h-200v-58h184v-171h-184v-65h210v-203h-466v700z" />
    <glyph glyph-name="F" unicode="F" horiz-adv-x="499" 
d="M25 700h456v-203h-200v-81h184v-171h-184v-245h-256v700z" />
    <glyph glyph-name="G" unicode="G" horiz-adv-x="700" 
d="M358 415l320.999 -0.00292969v-171c0 -35.333 -8.83301 -68.666 -26.5 -99.999s-40.5 -58.833 -68.5 -82.5s-59.333 -42.5 -94 -56.5s-69 -21 -103 -21c-52.667 0 -101.5 9.5 -146.5 28.5s-83.833 45 -116.5 78s-58.167 71.833 -76.5 116.5s-27.5 92.334 -27.5 143.001
s9.16699 98.334 27.5 143.001s43.833 83.5 76.5 116.5s71.5 59.167 116.5 78.5s93.833 29 146.5 29c38 0 73.5 -5 106.5 -15s63.833 -23.667 92.5 -41v-225c-22 18 -45.5 32.333 -70.5 43s-53.5 16 -85.5 16c-25.333 0 -47.5 -4.16699 -66.5 -12.5s-34.667 -19.333 -47 -33
s-21.5 -29.167 -27.5 -46.5s-9 -35 -9 -53c0 -17.333 1 -35 3 -53s6.66699 -34.333 14 -49s18.166 -26.5 32.499 -35.5s33.5 -13.5 57.5 -13.5c16.667 0 30.334 4.5 41.001 13.5s19.334 19.5 26.001 31.5h-96v171z" />
    <glyph glyph-name="H" unicode="H" horiz-adv-x="703" 
d="M678 0h-256v271h-141v-271h-256v700h256v-258h141v258h256v-700z" />
    <glyph glyph-name="I" unicode="I" horiz-adv-x="306" 
d="M25 700h256v-700h-256v700z" />
    <glyph glyph-name="J" unicode="J" horiz-adv-x="443" 
d="M18 247c10.667 -8 20.167 -14.5 28.5 -19.5s15.833 -9.16699 22.5 -12.5s13 -5.66602 19 -6.99902s12.667 -2 20 -2c14.667 0 27.667 4.16699 39 12.5s17 20.166 17 35.499v446h256v-476c0 -40 -8.33301 -75 -25 -105s-38.667 -55 -66 -75s-58.333 -34.833 -93 -44.5
s-69.667 -14.5 -105 -14.5c-10 0 -20.667 1.33301 -32 4s-22.333 6.16699 -33 10.5s-20.167 8.83301 -28.5 13.5s-14.833 9 -19.5 13v221z" />
    <glyph glyph-name="K" unicode="K" horiz-adv-x="725" 
d="M402 700h271l-174 -319l204 -381h-271l-151 304v-304h-256v700h256v-243z" />
    <glyph glyph-name="L" unicode="L" horiz-adv-x="481" 
d="M25 700h256v-497h184v-203h-440v700z" />
    <glyph glyph-name="M" unicode="M" horiz-adv-x="870" 
d="M845 0h-256v296l-88 -296h-132l-88 296v-296h-256v700h330l80 -270l80 270h330v-700z" />
    <glyph glyph-name="N" unicode="N" horiz-adv-x="694" 
d="M413 700h256v-700h-267l-121 274v-274h-256v700h269l119 -270v270z" />
    <glyph glyph-name="O" unicode="O" horiz-adv-x="777" 
d="M21 350c0 50.667 9.16699 98.334 27.5 143.001s43.833 83.5 76.5 116.5s71.5 59.167 116.5 78.5s93.833 29 146.5 29s101.5 -9.66699 146.5 -29s83.833 -45.5 116.5 -78.5s58.334 -71.833 77.001 -116.5s28 -92.334 28 -143.001s-9.33301 -98.334 -28 -143.001
s-44.334 -83.5 -77.001 -116.5s-71.5 -59 -116.5 -78s-93.833 -28.5 -146.5 -28.5s-101.5 9.5 -146.5 28.5s-83.833 45 -116.5 78s-58.167 71.833 -76.5 116.5s-27.5 92.334 -27.5 143.001zM281 350c0 -17.333 2.16699 -33.666 6.5 -48.999s10.833 -28.666 19.5 -39.999
s19.834 -20.333 33.501 -27s29.5 -10 47.5 -10s33.833 3.33301 47.5 10s25 15.667 34 27s15.667 24.666 20 39.999s6.5 31.666 6.5 48.999s-2.16699 33.666 -6.5 48.999s-11 28.833 -20 40.5s-20.333 20.834 -34 27.501s-29.5 10 -47.5 10s-33.833 -3.33301 -47.5 -10
s-24.834 -15.834 -33.501 -27.501s-15.167 -25.167 -19.5 -40.5s-6.5 -31.666 -6.5 -48.999z" />
    <glyph glyph-name="P" unicode="P" horiz-adv-x="638" 
d="M273 0l-247.998 -0.00292969v700h339c27.333 0 56.166 -4.83301 86.499 -14.5s58.166 -24.667 83.499 -45s46.333 -46.666 63 -78.999s25 -71.166 25 -116.499c0 -28.667 -5.83301 -57.667 -17.5 -87s-28.667 -55.666 -51 -78.999s-49.5 -42.5 -81.5 -57.5
s-68 -22.5 -108 -22.5h-91v-199zM273.002 501.997l0.000976562 -107h21c17.333 0 32.666 4 45.999 12s20 21.333 20 40c0 19.333 -6.66699 33.333 -20 42s-29 13 -47 13h-20z" />
    <glyph glyph-name="Q" unicode="Q" horiz-adv-x="774" 
d="M18 350c0 50.667 9.16602 98.333 27.499 143s43.833 83.5 76.5 116.5s71.5 59.167 116.5 78.5s93.833 29 146.5 29s101.5 -9.66699 146.5 -29s83.833 -45.5 116.5 -78.5s58.334 -71.833 77.001 -116.5s28 -92.334 28 -143.001c0 -58 -11.833 -111.333 -35.5 -160
s-56.167 -90 -97.5 -124l78 -67l-180 -109l-108 95c-4.66699 0 -9 -0.166992 -13 -0.5s-8 -0.5 -12 -0.5c-52.667 0 -101.5 9.5 -146.5 28.5s-83.833 45 -116.5 78s-58.167 71.833 -76.5 116.5s-27.5 92.334 -27.5 143.001zM277.999 349.999
c0 -17.333 2.16699 -33.666 6.5 -48.999s10.833 -28.666 19.5 -39.999s19.834 -20.333 33.501 -27s29.5 -10 47.5 -10s33.833 3.33301 47.5 10s25 15.667 34 27s15.667 24.666 20 39.999s6.5 31.666 6.5 48.999s-2.16699 33.666 -6.5 48.999s-11 28.833 -20 40.5
s-20.333 20.834 -34 27.501s-29.5 10 -47.5 10s-33.833 -3.33301 -47.5 -10s-24.834 -15.834 -33.501 -27.501s-15.167 -25.167 -19.5 -40.5s-6.5 -31.666 -6.5 -48.999z" />
    <glyph glyph-name="R" unicode="R" horiz-adv-x="669" 
d="M270 0l-244.999 0.000976562v700h335c26.667 0 55 -4.5 85 -13.5s57.667 -23.333 83 -43s46.166 -44.834 62.499 -75.501s24.5 -67.667 24.5 -111c0 -33.333 -8.33301 -66.5 -25 -99.5s-41 -61.167 -73 -84.5l131 -273h-256l-107 223h-15v-223zM290.001 512.001h-20.001
v-102h21c16.667 0 31.667 3.83301 45 11.5s20 20.167 20 37.5c0 18.667 -6.66699 32.167 -20 40.5s-28.666 12.5 -45.999 12.5z" />
    <glyph glyph-name="S" unicode="S" horiz-adv-x="575" 
d="M227 189c23.333 0 38.832 3 46.499 9s11.5 13 11.5 21c0 10.667 -6.5 19 -19.5 25s-29.167 12 -48.5 18s-40.5 13.167 -63.5 21.5s-44.167 20.5 -63.5 36.5s-35.5 36.667 -48.5 62s-19.5 58.333 -19.5 99c0 45.333 9 83 27 113s40.5 54 67.5 72s56.333 30.667 88 38
s61.5 11 89.5 11c19.333 0 38.666 -0.833008 57.999 -2.5s38.666 -5 57.999 -10s38.833 -12.167 58.5 -21.5s39.5 -22 59.5 -38v-203c-36.667 26 -70.5 43.333 -101.5 52s-60.167 13 -87.5 13c-2.66699 0 -6.66699 -0.333008 -12 -1s-10.666 -1.83398 -15.999 -3.50098
s-10 -4 -14 -7s-6 -7.16699 -6 -12.5c0 -9.33301 4.83301 -16.5 14.5 -21.5s22.334 -9.5 38.001 -13.5s33 -8.16699 52 -12.5s38.167 -10.833 57.5 -19.5c29.333 -12.667 53.333 -33.5 72 -62.5s28 -62.5 28 -100.5c0 -45.333 -8.16699 -84.666 -24.5 -117.999
s-38.166 -61 -65.499 -83s-59.166 -38.5 -95.499 -49.5s-74.5 -16.5 -114.5 -16.5c-14 0 -30.167 0.666992 -48.5 2s-37.333 4.5 -57 9.5s-39.334 12.333 -59.001 22s-37.834 22.834 -54.501 39.501v227c8.66699 -8.66699 19.834 -18.5 33.501 -29.5s29 -21.333 46 -31
s35.167 -17.834 54.5 -24.501s39 -10 59 -10z" />
    <glyph glyph-name="T" unicode="T" horiz-adv-x="496" 
d="M20 497v203h456v-203h-100v-497h-256v497h-100z" />
    <glyph glyph-name="U" unicode="U" horiz-adv-x="626" 
d="M313 228c14.667 0 27.667 4.16699 39 12.5s17 20.166 17 35.499v424h233v-476c0 -40 -8.33301 -75 -25 -105s-38.667 -55 -66 -75s-58.333 -34.833 -93 -44.5s-69.667 -14.5 -105 -14.5s-70.333 4.83301 -105 14.5s-65.667 24.5 -93 44.5s-49.333 45 -66 75
s-25 65 -25 105v476h233v-424c0 -15.333 5.66699 -27.166 17 -35.499s24.333 -12.5 39 -12.5z" />
    <glyph glyph-name="V" unicode="V" horiz-adv-x="641" 
d="M434 0h-227l-189 700h210l92 -363l93 363h210z" />
    <glyph glyph-name="W" unicode="W" horiz-adv-x="931" 
d="M350 700h231l60 -269l59 269h210l-158 -700h-223l-64 292l-63 -292h-223l-158 700h210l58 -269z" />
    <glyph glyph-name="X" unicode="X" horiz-adv-x="731" 
d="M279 0h-256l214 350l-214 350h256l86 -161l87 161h256l-215 -350l215 -350h-256l-87 161z" />
    <glyph glyph-name="Y" unicode="Y" horiz-adv-x="752" 
d="M17 701h256l103 -206l103 206h256l-231 -415v-286h-256v286z" />
    <glyph glyph-name="Z" unicode="Z" horiz-adv-x="623" 
d="M61 497v203h529l-216 -497h225v-203h-576l215 497h-177z" />
    <glyph glyph-name="bracketleft" unicode="[" horiz-adv-x="374" 
d="M350 654v-128h-148v-578h148v-128h-325v834h325z" />
    <glyph glyph-name="backslash" unicode="\" horiz-adv-x="491" 
d="M323 0l-311 700h156l311 -700h-156z" />
    <glyph glyph-name="bracketright" unicode="]" horiz-adv-x="374" 
d="M349 654v-834h-325v128h148v578h-148v128h325z" />
    <glyph glyph-name="asciicircum" unicode="^" horiz-adv-x="623" 
d="M410 329l-103 196l-93 -196h-196l196 371h196l195 -371h-195z" />
    <glyph glyph-name="underscore" unicode="_" horiz-adv-x="589" 
d="M564 -51v-128h-539v128h539z" />
    <glyph glyph-name="grave" unicode="`" horiz-adv-x="295" 
d="M14 700h171l92 -200h-129z" />
    <glyph glyph-name="a" unicode="a" horiz-adv-x="547" 
d="M314 34c-14.667 -15.333 -31.8311 -26.168 -51.498 -32.501s-39.834 -9.5 -60.501 -9.5c-28.667 0 -54.167 6.33301 -76.5 19s-41.166 30 -56.499 52s-27 48.167 -35 78.5s-12 63.5 -12 99.5c0 35.333 4 68.5 12 99.5s19.667 58 35 81s34.166 41 56.499 54
s47.833 19.5 76.5 19.5c20.667 0 40.667 -3.66699 60 -11s36.666 -18.666 51.999 -33.999v33h208v-483h-208v34zM315.003 240.998c0 19.333 -4.16699 35.666 -12.5 48.999s-21.833 20 -40.5 20c-18 0 -31.333 -6.66699 -40 -20s-13 -29.666 -13 -48.999
s4.33301 -35.5 13 -48.5s22 -19.5 40 -19.5c18.667 0 32.167 6.5 40.5 19.5s12.5 29.167 12.5 48.5z" />
    <glyph glyph-name="b" unicode="b" horiz-adv-x="569" 
d="M233 0l-207.997 0.00195312v700h208v-250c15.333 15.333 32.666 26.666 51.999 33.999s39.333 11 60 11c28.667 0 55.667 -6.5 81 -19.5s47.333 -31 66 -54s33.5 -50 44.5 -81s16.5 -64.167 16.5 -99.5c0 -36 -5.5 -69.167 -16.5 -99.5s-25.833 -56.5 -44.5 -78.5
s-40.667 -39.333 -66 -52s-52.333 -19 -81 -19c-20.667 0 -40.834 3.16699 -60.501 9.5s-36.834 17.166 -51.501 32.499v-34zM232.003 241.002c0 -19.333 4.16699 -35.5 12.5 -48.5s21.833 -19.5 40.5 -19.5c18 0 31.333 6.5 40 19.5s13 29.167 13 48.5
s-4.33301 35.666 -13 48.999s-22 20 -40 20c-18.667 0 -32.167 -6.66699 -40.5 -20s-12.5 -29.666 -12.5 -48.999z" />
    <glyph glyph-name="c" unicode="c" horiz-adv-x="425" 
d="M401 22c-18 -10 -37.8311 -17.834 -59.498 -23.501s-44.167 -8.5 -67.5 -8.5c-36.667 0 -70.667 6.5 -102 19.5s-58.333 31 -81 54s-40.334 49.667 -53.001 80s-19 63.166 -19 98.499c0 34.667 6.33301 67.334 19 98.001s30.334 57.334 53.001 80.001
s49.667 40.667 81 54s65.333 20 102 20c47.333 0 89.666 -11.333 126.999 -34v-176c-14.667 7.33301 -29.334 13.333 -44.001 18s-32.667 7 -54 7c-25.333 0 -43.833 -6.5 -55.5 -19.5s-17.5 -28.833 -17.5 -47.5c0 -19.333 5.83301 -35.333 17.5 -48s30.167 -19 55.5 -19
c20 0 38.5 3.33301 55.5 10s31.167 16.667 42.5 30v-193z" />
    <glyph glyph-name="d" unicode="d" horiz-adv-x="569" 
d="M336 34c-14.667 -15.333 -31.8311 -26.168 -51.498 -32.501s-39.834 -9.5 -60.501 -9.5c-28.667 0 -55.667 6.33301 -81 19s-47.333 30 -66 52s-33.5 48.167 -44.5 78.5s-16.5 63.5 -16.5 99.5c0 35.333 5.5 68.5 16.5 99.5s25.833 58 44.5 81s40.667 41 66 54
s52.333 19.5 81 19.5c20.667 0 40.667 -3.66699 60 -11s36.666 -18.666 51.999 -33.999v250h208v-700h-208v34zM337.003 240.998c0 19.333 -4.16699 35.666 -12.5 48.999s-21.833 20 -40.5 20c-18 0 -31.333 -6.66699 -40 -20s-13 -29.666 -13 -48.999
s4.33301 -35.5 13 -48.5s22 -19.5 40 -19.5c18.667 0 32.167 6.5 40.5 19.5s12.5 29.167 12.5 48.5z" />
    <glyph glyph-name="e" unicode="e" horiz-adv-x="532" 
d="M313 144c23.333 0 47.334 3.66504 72.001 10.998s45 17 61 29v-154c-20.667 -12 -46.334 -21.333 -77.001 -28s-59.667 -10 -87 -10c-38 0 -73 6.5 -105 19.5s-59.667 30.833 -83 53.5s-41.5 49.334 -54.5 80.001s-19.5 63.334 -19.5 98.001s6.5 67.167 19.5 97.5
s31.167 56.833 54.5 79.5s51 40.5 83 53.5s67 19.5 105 19.5c34.667 0 66.167 -6.5 94.5 -19.5s52.5 -30.667 72.5 -53s35.5 -48.833 46.5 -79.5s16.5 -63.334 16.5 -98.001v-36h-300c6.66699 -17.333 18.167 -32.166 34.5 -44.499s38.5 -18.5 66.5 -18.5zM334.001 307.998
c-3.33301 9.33301 -9.83301 18 -19.5 26s-20.5 12 -32.5 12c-18.667 0 -33 -3.5 -43 -10.5s-17.667 -16.167 -23 -27.5h118z" />
    <glyph glyph-name="f" unicode="f" horiz-adv-x="416" 
d="M396 516c-8.66699 2.66699 -18.501 6 -29.501 10s-20.833 6 -29.5 6c-10 0 -18.667 -2.66699 -26 -8s-11 -13.333 -11 -24v-17h79v-172h-79v-311h-210v311h-72v172h72v17c0 38 5 70.333 15 97s24.167 48.167 42.5 64.5s40.333 28.333 66 36s53.834 11.5 84.501 11.5
c17.333 0 34 -2.16699 50 -6.5s32 -9.5 48 -15.5v-171z" />
    <glyph glyph-name="g" unicode="g" horiz-adv-x="571" 
d="M547 15c0 -28.667 -5.00293 -56.3311 -15.0029 -82.998s-24.833 -50.167 -44.5 -70.5s-44.334 -36.5 -74.001 -48.5s-64.167 -18 -103.5 -18c-25.333 0 -47 1.33301 -65 4s-34 6.33398 -48 11.001s-26.667 10 -38 16s-22.333 12.333 -33 19v161
c15.333 -11.333 33.833 -20.333 55.5 -27s41.834 -10 60.501 -10c6.66699 0 15.5 0.5 26.5 1.5s21.833 3 32.5 6s19.667 7.66699 27 14s11 14.5 11 24.5v47c-15.333 -14 -32.666 -24.5 -51.999 -31.5s-39.333 -10.5 -60 -10.5c-28.667 0 -55.667 6.16699 -81 18.5
s-47.333 29.166 -66 50.499s-33.5 46.666 -44.5 75.999s-16.5 60.666 -16.5 93.999s5.5 64.333 16.5 93s25.833 53.5 44.5 74.5s40.667 37.333 66 49s52.333 17.5 81 17.5c20.667 0 40.834 -2.83301 60.501 -8.5s36.834 -16.167 51.501 -31.5v32h208v-470zM339.997 259.003
c0 18 -4.16699 33.167 -12.5 45.5s-21.833 18.5 -40.5 18.5c-18 0 -31.333 -6.16699 -40 -18.5s-13 -27.5 -13 -45.5s4.33301 -33.333 13 -46s22 -19 40 -19c18.667 0 32.167 6.33301 40.5 19s12.5 28 12.5 46z" />
    <glyph glyph-name="h" unicode="h" horiz-adv-x="543" 
d="M25 0v700.003h210v-253c6 3.33301 12.667 7.66602 20 12.999s16.333 10.5 27 15.5s23.667 9.16699 39 12.5s34 5 56 5c31.333 0 56.666 -6.66699 75.999 -20s34.333 -30.833 45 -52.5s17.834 -46.334 21.501 -74.001s5.5 -55.5 5.5 -83.5v-263h-210v263
c0 9.33301 -3.5 17.333 -10.5 24s-14.5 10 -22.5 10c-10 0 -18 -2 -24 -6s-10.833 -9.33301 -14.5 -16s-6 -13.834 -7 -21.501s-1.5 -15.5 -1.5 -23.5v-230h-210z" />
    <glyph glyph-name="i" unicode="i" horiz-adv-x="293" 
d="M42 0v483h210v-483h-210zM22 614c0 14 3.16699 27.167 9.5 39.5s15.166 23.333 26.499 33s24.666 17.167 39.999 22.5s31.666 8 48.999 8s33.5 -2.66699 48.5 -8s28.167 -12.833 39.5 -22.5s20.166 -20.667 26.499 -33s9.5 -25.5 9.5 -39.5s-3.16699 -27.167 -9.5 -39.5
s-15.166 -23.166 -26.499 -32.499s-24.5 -16.666 -39.5 -21.999s-31.167 -8 -48.5 -8s-33.666 2.66699 -48.999 8s-28.666 12.666 -39.999 21.999s-20.166 20.166 -26.499 32.499s-9.5 25.5 -9.5 39.5z" />
    <glyph glyph-name="j" unicode="j" horiz-adv-x="323" 
d="M18 -147c7.33301 2.66699 14.166 7.16699 20.499 13.5s12 13.5 17 21.5s9 16.333 12 25s4.5 17 4.5 25v545h210v-545c0 -8 -1.5 -16.333 -4.5 -25s-7 -17 -12 -25s-10.667 -15.167 -17 -21.5s-13.166 -10.833 -20.499 -13.5h-210zM52 614c0 14 3.16699 27.167 9.5 39.5
s15.166 23.333 26.499 33s24.666 17.167 39.999 22.5s31.666 8 48.999 8s33.5 -2.66699 48.5 -8s28.167 -12.833 39.5 -22.5s20.166 -20.667 26.499 -33s9.5 -25.5 9.5 -39.5s-3.16699 -27.167 -9.5 -39.5s-15.166 -23.166 -26.499 -32.499s-24.5 -16.666 -39.5 -21.999
s-31.167 -8 -48.5 -8s-33.666 2.66699 -48.999 8s-28.666 12.666 -39.999 21.999s-20.166 20.166 -26.499 32.499s-9.5 25.5 -9.5 39.5z" />
    <glyph glyph-name="k" unicode="k" horiz-adv-x="584" 
d="M411 249l159 -249h-225l-110 196v-196h-210v700h210v-402l110 185h225z" />
    <glyph glyph-name="l" unicode="l" horiz-adv-x="260" 
d="M25 0v700h210v-700h-210z" />
    <glyph glyph-name="m" unicode="m" horiz-adv-x="839" 
d="M484 443c26.667 16.667 53.501 29.1709 80.501 37.5039s56.5 12.5 88.5 12.5c31.333 0 57.333 -6.66699 78 -20s37.334 -30.833 50.001 -52.5s21.5 -46.334 26.5 -74.001s7.5 -55.5 7.5 -83.5v-263h-210v263c0 9.33301 -3.5 17.333 -10.5 24s-14.5 10 -22.5 10
c-10 0 -18 -2 -24 -6s-10.833 -9.33301 -14.5 -16s-6 -13.834 -7 -21.501s-1.5 -15.5 -1.5 -23.5v-230h-210v263c0 9.33301 -3.5 17.333 -10.5 24s-14.5 10 -22.5 10c-10 0 -18 -2 -24 -6s-10.833 -9.33301 -14.5 -16s-6 -13.834 -7 -21.501s-1.5 -15.5 -1.5 -23.5v-230
h-210v483h210v-36c6 3.33301 12.667 7.66602 20 12.999s16.333 10.5 27 15.5s23.667 9.16699 39 12.5s34 5 56 5c25.333 0 46.666 -4.5 63.999 -13.5s31.666 -21.167 42.999 -36.5z" />
    <glyph glyph-name="n" unicode="n" horiz-adv-x="549" 
d="M25 0v483.003h210v-36c6 3.33301 12.667 7.66602 20 12.999s16.333 10.5 27 15.5s23.667 9.16699 39 12.5s34 5 56 5c31.333 0 56.666 -6.66699 75.999 -20s34.333 -30.833 45 -52.5s17.834 -46.334 21.501 -74.001s5.5 -55.5 5.5 -83.5v-263h-210v263
c0 9.33301 -3.5 17.333 -10.5 24s-14.5 10 -22.5 10c-10 0 -18 -2 -24 -6s-10.833 -9.33301 -14.5 -16s-6 -13.834 -7 -21.501s-1.5 -15.5 -1.5 -23.5v-230h-210z" />
    <glyph glyph-name="o" unicode="o" horiz-adv-x="567" 
d="M20 241c0 34.667 6.83301 67.5 20.5 98.5s32.334 57.833 56.001 80.5s51.5 40.667 83.5 54s66.333 20 103 20s71 -6.66699 103 -20s60 -31.333 84 -54s42.833 -49.5 56.5 -80.5s20.5 -63.833 20.5 -98.5c0 -35.333 -6.83301 -68.166 -20.5 -98.499s-32.5 -57 -56.5 -80
s-52 -41 -84 -54s-66.333 -19.5 -103 -19.5s-71 6.5 -103 19.5s-59.833 31 -83.5 54s-42.334 49.667 -56.001 80s-20.5 63.166 -20.5 98.499zM230 241c0 -19.333 4.16699 -35.333 12.5 -48s21.833 -19 40.5 -19c18 0 31.5 6.33301 40.5 19s13.5 28.667 13.5 48
c0 18.667 -4.5 34.667 -13.5 48s-22.5 20 -40.5 20c-18.667 0 -32.167 -6.66699 -40.5 -20s-12.5 -29.333 -12.5 -48z" />
    <glyph glyph-name="p" unicode="p" horiz-adv-x="569" 
d="M233 448c14.667 15.333 31.8311 26.168 51.498 32.501s39.834 9.5 60.501 9.5c28.667 0 55.667 -6.33301 81 -19s47.333 -30 66 -52s33.5 -48.167 44.5 -78.5s16.5 -63.5 16.5 -99.5c0 -35.333 -5.5 -68.5 -16.5 -99.5s-25.833 -58 -44.5 -81s-40.667 -41 -66 -54
s-52.333 -19.5 -81 -19.5c-20.667 0 -40.667 3.66699 -60 11s-36.666 18.666 -51.999 33.999v-212h-208v662h208v-34zM231.997 241.002c0 -19.333 4.16699 -35.666 12.5 -48.999s21.833 -20 40.5 -20c18 0 31.333 6.66699 40 20s13 29.666 13 48.999s-4.33301 35.5 -13 48.5
s-22 19.5 -40 19.5c-18.667 0 -32.167 -6.5 -40.5 -19.5s-12.5 -29.167 -12.5 -48.5z" />
    <glyph glyph-name="q" unicode="q" horiz-adv-x="569" 
d="M336 482l207.997 -0.00195312v-662h-208v212c-15.333 -15.333 -32.666 -26.666 -51.999 -33.999s-39.333 -11 -60 -11c-28.667 0 -55.667 6.5 -81 19.5s-47.333 31 -66 54s-33.5 50 -44.5 81s-16.5 64.167 -16.5 99.5c0 36 5.5 69.167 16.5 99.5s25.833 56.5 44.5 78.5
s40.667 39.333 66 52s52.333 19 81 19c20.667 0 40.834 -3.16699 60.501 -9.5s36.834 -17.166 51.501 -32.499v34zM336.997 240.998c0 19.333 -4.16699 35.5 -12.5 48.5s-21.833 19.5 -40.5 19.5c-18 0 -31.333 -6.5 -40 -19.5s-13 -29.167 -13 -48.5
s4.33301 -35.666 13 -48.999s22 -20 40 -20c18.667 0 32.167 6.66699 40.5 20s12.5 29.666 12.5 48.999z" />
    <glyph glyph-name="r" unicode="r" horiz-adv-x="406" 
d="M389 286c-22 5.33301 -37.833 8.50391 -47.5 9.50391s-17.5 1.5 -23.5 1.5c-12.667 0 -24.167 -2 -34.5 -6s-19 -9.33301 -26 -16s-12.5 -13.834 -16.5 -21.501s-6 -15.5 -6 -23.5v-230h-210v483h210v-52c4.66699 5.33301 10.5 11.666 17.5 18.999s16 14.166 27 20.499
s24.5 11.666 40.5 15.999s35 6.5 57 6.5h12v-207z" />
    <glyph glyph-name="s" unicode="s" horiz-adv-x="442" 
d="M157 137c17.333 0 28.999 2.16895 34.999 6.50195s9 9.16602 9 14.499c0 7.33301 -4.33301 13 -13 17s-19.667 7.66699 -33 11s-27.666 7.66602 -42.999 12.999s-29.666 13.166 -42.999 23.499s-24.333 24 -33 41s-13 39.5 -13 67.5c0 31.333 6.66699 57.333 20 78
s30.166 37.167 50.499 49.5s42.333 21 66 26s45.834 7.5 66.501 7.5c28.667 0 57.5 -2.83301 86.5 -8.5s58.5 -19.167 88.5 -40.5v-140c-28 18 -50.333 29.5 -67 34.5s-30.667 7.5 -42 7.5c-2 0 -4.83301 -0.166992 -8.5 -0.5s-7.5 -1.16602 -11.5 -2.49902
s-7.5 -3 -10.5 -5s-4.5 -5 -4.5 -9c0 -6.66699 1.83301 -11.5 5.5 -14.5s9.33398 -5.66699 17.001 -8s17 -4.83301 28 -7.5s23.5 -7 37.5 -13c21.333 -8.66699 39.166 -23 53.499 -43s21.5 -43 21.5 -69c0 -31.333 -6.16699 -58.5 -18.5 -81.5s-28.666 -42 -48.999 -57
s-44 -26.333 -71 -34s-55.5 -11.5 -85.5 -11.5c-10.667 0 -22.834 0.5 -36.501 1.5s-28 3.16699 -43 6.5s-29.833 8.33301 -44.5 15s-28.334 15.667 -41.001 27v152c15.333 -14 33 -26.5 53 -37.5s44.333 -16.5 73 -16.5z" />
    <glyph glyph-name="t" unicode="t" horiz-adv-x="401" 
d="M379 22c-16 -6 -32 -11.167 -48 -15.5s-32.667 -6.5 -50 -6.5c-30.667 -0 -57.834 2.83301 -81.501 8.5s-43.667 16.167 -60 31.5s-28.666 36.5 -36.999 63.5s-12.5 62.167 -12.5 105.5v102h-72v172h72v128h210v-128h79v-172h-79v-102
c0 -10.667 0.833008 -18.667 2.5 -24s7.5 -8 17.5 -8c8.66699 0 18.5 0.666992 29.5 2s20.833 3.33301 29.5 6v-163z" />
    <glyph glyph-name="u" unicode="u" horiz-adv-x="549" 
d="M524 482v-483.003h-210v36c-6 -3.33301 -12.667 -7.66602 -20 -12.999s-16.333 -10.5 -27 -15.5s-23.667 -9.16699 -39 -12.5s-34 -5 -56 -5c-31.333 0 -56.666 6.66699 -75.999 20s-34.333 30.833 -45 52.5s-17.834 46.334 -21.501 74.001s-5.5 55.5 -5.5 83.5v263h210
v-263c0 -9.33301 3.5 -17.333 10.5 -24s14.5 -10 22.5 -10c10 0 18 2 24 6s10.833 9.33301 14.5 16s6 13.834 7 21.501s1.5 15.5 1.5 23.5v230h210z" />
    <glyph glyph-name="v" unicode="v" horiz-adv-x="569" 
d="M391 0h-213l-160 483h210l56 -205l57 205h210z" />
    <glyph glyph-name="w" unicode="w" horiz-adv-x="843" 
d="M569 296l42 187h210l-111 -483h-223l-64 206l-63 -206h-223l-115 483h210l42 -187l42 187h211z" />
    <glyph glyph-name="x" unicode="x" horiz-adv-x="583" 
d="M232 0h-209l148 241l-148 242h209l59 -111l60 111h209l-149 -242l149 -241h-209l-60 111z" />
    <glyph glyph-name="y" unicode="y" horiz-adv-x="567" 
d="M144 -180l52 180l-178 483h210l56 -226l57 226h210l-219 -663h-188z" />
    <glyph glyph-name="z" unicode="z" horiz-adv-x="449" 
d="M40 310v172h376l-134 -310h143v-172h-402l133 310h-116z" />
    <glyph glyph-name="braceleft" unicode="{" horiz-adv-x="416" 
d="M19 324l24 -0.00390625c7.33301 0 13.166 2.33301 17.499 7s6.5 10.667 6.5 18v177c0 18 3.33301 34.667 10 50s15.667 28.833 27 40.5s24.833 20.834 40.5 27.501s32.5 10 50.5 10h197v-128h-124c-7.33301 0 -13.166 -2.33301 -17.499 -7s-6.5 -10.667 -6.5 -18v-114
c0 -17.333 -3.16699 -33.666 -9.5 -48.999s-15 -28.666 -26 -39.999s-24 -20.5 -39 -27.5s-31.167 -10.833 -48.5 -11.5c17.333 -0.666992 33.5 -4.5 48.5 -11.5s28 -16.333 39 -28s19.667 -25 26 -40s9.5 -31.167 9.5 -48.5v-158c0 -7.33301 2.16699 -13.333 6.5 -18
s10.166 -7 17.499 -7h124v-128h-197c-18 0 -34.833 3.33301 -50.5 10s-29.167 15.834 -40.5 27.501s-20.333 25.167 -27 40.5s-10 32 -10 50v223c0 7.33301 -2.16699 13.333 -6.5 18s-10.166 7 -17.499 7h-24v128z" />
    <glyph glyph-name="bar" unicode="|" horiz-adv-x="206" 
d="M25 -180v897h156v-897h-156z" />
    <glyph glyph-name="braceright" unicode="}" horiz-adv-x="416" 
d="M397 196l-24 0.00390625c-7.33301 0 -13.166 -2.33301 -17.499 -7s-6.5 -10.667 -6.5 -18v-223c0 -18 -3.33301 -34.667 -10 -50s-15.667 -28.833 -27 -40.5s-24.833 -20.834 -40.5 -27.501s-32.5 -10 -50.5 -10h-197v128h124c7.33301 0 13.166 2.33301 17.499 7
s6.5 10.667 6.5 18v158c0 17.333 3.16699 33.5 9.5 48.5s15 28.333 26 40s24 21 39 28s31.167 10.833 48.5 11.5c-17.333 0.666992 -33.5 4.5 -48.5 11.5s-28 16.167 -39 27.5s-19.667 24.666 -26 39.999s-9.5 31.666 -9.5 48.999v114c0 7.33301 -2.16699 13.333 -6.5 18
s-10.166 7 -17.499 7h-124v128h197c18 0 34.833 -3.33301 50.5 -10s29.167 -15.834 40.5 -27.501s20.333 -25.167 27 -40.5s10 -32 10 -50v-177c0 -7.33301 2.16699 -13.333 6.5 -18s10.166 -7 17.499 -7h24v-128z" />
    <glyph glyph-name="asciitilde" unicode="~" horiz-adv-x="542" 
d="M521 307c0 -24.667 -4.16797 -47.667 -12.501 -69s-19.666 -40 -33.999 -56s-31.166 -28.5 -50.499 -37.5s-40.333 -13.5 -63 -13.5c-21.333 0 -41.666 4.33301 -60.999 13l-138 67c-11.333 6 -22.666 9 -33.999 9c-18 0 -34 -6.33301 -48 -19s-22.667 -28.667 -26 -48
h-34c0 24.667 4.16699 47.667 12.5 69s19.666 40 33.999 56s31.166 28.5 50.499 37.5s40.333 13.5 63 13.5c23.333 0 43.666 -4.33301 60.999 -13l138 -67c10.667 -6 22 -9 34 -9c18 0 34 6.33301 48 19s22.667 28.667 26 48h34z" />
    <glyph glyph-name="uni00A0" unicode="&#xa0;" horiz-adv-x="300" 
 />
    <glyph glyph-name="exclamdown" unicode="&#xa1;" horiz-adv-x="291" 
d="M41 -180l20 474h170l20 -474h-210zM21 425c0 14 3.16699 27.167 9.5 39.5s15.166 23.333 26.499 33s24.666 17.167 39.999 22.5s31.666 8 48.999 8s33.5 -2.66699 48.5 -8s28.167 -12.833 39.5 -22.5s20.166 -20.667 26.499 -33s9.5 -25.5 9.5 -39.5
s-3.16699 -27.167 -9.5 -39.5s-15.166 -23.166 -26.499 -32.499s-24.5 -16.666 -39.5 -21.999s-31.167 -8 -48.5 -8s-33.666 2.66699 -48.999 8s-28.666 12.666 -39.999 21.999s-20.166 20.166 -26.499 32.499s-9.5 25.5 -9.5 39.5z" />
    <glyph glyph-name="cent" unicode="&#xa2;" horiz-adv-x="419" 
d="M130 -100v130c-35.333 22.667 -63 52.5 -83 89.5s-30 77.833 -30 122.5c0 44 10 84.5 30 121.5s47.667 66.833 83 89.5v129h156v-89c42.667 -2 80.334 -13 113.001 -33v-176c-14.667 7.33301 -29.334 13.333 -44.001 18s-32.667 7 -54 7
c-25.333 0 -43.833 -6.5 -55.5 -19.5s-17.5 -28.833 -17.5 -47.5c0 -19.333 5.83301 -35.333 17.5 -48s30.167 -19 55.5 -19c20 0 38.5 3.33301 55.5 10s31.167 16.667 42.5 30v-193c-34 -18.667 -71.667 -29 -113 -31v-91h-156z" />
    <glyph glyph-name="sterling" unicode="&#xa3;" horiz-adv-x="548" 
d="M448 415l-0.000976562 -128.001h-82c6.66699 -11.333 11.667 -21.333 15 -30s5 -18.334 5 -29.001c0 -11.333 -0.833008 -21.666 -2.5 -30.999s-4.5 -18.5 -8.5 -27.5s-9.5 -18 -16.5 -27s-16.167 -18.5 -27.5 -28.5h97h18c6 0 12.667 0.5 20 1.5s15.666 2.5 24.999 4.5
s21 4.66699 35 8v-112c-14.667 -10.667 -29.167 -18.834 -43.5 -24.501s-33.166 -8.5 -56.499 -8.5h-404v131h114c28 0 48.667 4.33301 62 13s20 24.667 20 48c0 7.33301 -1.33301 16.666 -4 27.999s-6.66699 21.333 -12 30l-18.5 28.5
c-5 7.66699 -10.833 16.167 -17.5 25.5h-144v128h62c-7.33301 10 -14.666 23.333 -21.999 40s-11 38 -11 64c0 18 3.5 37.833 10.5 59.5s20.5 42.834 40.5 63.501c18 18.667 38.333 33 61 43s45 17.333 67 22s42.5 7.33398 61.5 8.00098s33.5 1 43.5 1
c33.333 0 59 -1.66699 77 -5s34 -6.66602 48 -9.99902v-159c-20 9.33301 -38.667 16.333 -56 21s-36.666 7 -57.999 7c-32.667 0 -57.334 -6.83301 -74.001 -20.5s-25 -31.5 -25 -53.5c0 -15.333 3.5 -29.833 10.5 -43.5s15.167 -26.167 24.5 -37.5h166z" />
    <glyph glyph-name="yen" unicode="&#xa5;" horiz-adv-x="752" 
d="M613 446v-128h-91l-18 -32v-23h109v-128h-109v-135h-256v135h-110v128h110v23l-18 32h-92v128h21l-142 255h256l103 -206l103 206h256l-142 -255h20z" />
    <glyph glyph-name="brokenbar" unicode="&#xa6;" horiz-adv-x="206" 
d="M25 287v413h156v-413h-156zM25 -180v413h156v-413h-156z" />
    <glyph glyph-name="section" unicode="&#xa7;" horiz-adv-x="442" 
d="M23 464c0 31.333 6.66602 57.335 19.999 78.002s30.166 37.167 50.499 49.5s42.333 21 66 26s45.834 7.5 66.501 7.5c28.667 0 57.5 -2.83301 86.5 -8.5s58.5 -19.167 88.5 -40.5v-140c-28 18 -50.333 29.5 -67 34.5s-30.667 7.5 -42 7.5
c-2 0 -4.83301 -0.166992 -8.5 -0.5s-7.5 -1.16602 -11.5 -2.49902s-7.5 -3 -10.5 -5s-4.5 -5 -4.5 -9c0 -6.66699 1.83301 -11.5 5.5 -14.5s9.33398 -5.66699 17.001 -8s17 -4.83301 28 -7.5s23.5 -7 37.5 -13c21.333 -8.66699 39.166 -23 53.499 -43s21.5 -43 21.5 -69
c0 -21.333 -3 -40.833 -9 -58.5s-14.667 -33.5 -26 -47.5c10.667 -11.333 19.167 -24.166 25.5 -38.499s9.5 -29.833 9.5 -46.5c0 -31.333 -6.16699 -58.5 -18.5 -81.5s-28.666 -42 -48.999 -57s-44 -26.333 -71 -34s-55.5 -11.5 -85.5 -11.5
c-10.667 0 -22.834 0.5 -36.501 1.5s-28 3.16699 -43 6.5s-29.833 8.33301 -44.5 15s-28.334 15.667 -41.001 27v152c15.333 -14 33 -26.5 53 -37.5s44.333 -16.5 73 -16.5c17.333 0 29 2.16699 35 6.5s9 9.16602 9 14.499c0 7.33301 -4.33301 13 -13 17
s-19.667 7.66699 -33 11s-27.666 7.66602 -42.999 12.999s-29.666 13.166 -42.999 23.499s-24.333 24 -33 41s-13 39.5 -13 67.5c0 20 2.83301 37.833 8.5 53.5s13.5 29.5 23.5 41.5c-9.33301 10 -17 22.667 -23 38s-9 34.666 -9 57.999zM225.999 273.002
c11.333 0 20.666 2.33301 27.999 7s11 11 11 19s-3.66699 14.333 -11 19s-16.666 7 -27.999 7s-20.5 -2.33301 -27.5 -7s-10.5 -11 -10.5 -19s3.5 -14.333 10.5 -19s16.167 -7 27.5 -7z" />
    <glyph glyph-name="dieresis" unicode="&#xa8;" horiz-adv-x="389" 
d="M25 700h128v-128h-128v128zM236 700h128v-128h-128v128z" />
    <glyph glyph-name="copyright" unicode="&#xa9;" horiz-adv-x="834" 
d="M21 356c0 48.667 10.167 94.834 30.5 138.501s48.333 81.834 84 114.501s77.167 58.667 124.5 78s98 29 152 29c56.667 0 109.5 -9.66699 158.5 -29s91.5 -45.333 127.5 -78s64.333 -70.834 85 -114.501s31 -89.834 31 -138.501c0 -51.333 -10.333 -99.666 -31 -144.999
s-49 -84.666 -85 -117.999s-78.5 -59.666 -127.5 -78.999s-101.833 -29 -158.5 -29c-54 0 -104.667 9.66699 -152 29s-88.833 45.666 -124.5 78.999s-63.667 72.666 -84 117.999s-30.5 93.666 -30.5 144.999zM121 356c0 -37.333 7.66699 -72.5 23 -105.5
s36.166 -61.833 62.499 -86.5s57.166 -44 92.499 -58s73 -21 113 -21c42.667 0 82.5 7 119.5 21s69 33.333 96 58s48.167 53.5 63.5 86.5s23 68.167 23 105.5c0 35.333 -7.66699 68.666 -23 99.999s-36.5 58.833 -63.5 82.5s-59 42.5 -96 56.5s-76.833 21 -119.5 21
c-40 0 -77.667 -7 -113 -21s-66.166 -32.833 -92.499 -56.5s-47.166 -51.167 -62.499 -82.5s-23 -64.666 -23 -99.999zM518 339c-16 -19.333 -39.333 -28.9971 -70 -28.9971c-17.333 0 -30.166 4.66699 -38.499 14s-12.5 20.666 -12.5 33.999s4.16699 24.666 12.5 33.999
s21.166 14 38.499 14c15.333 0 28.333 -1.83301 39 -5.5s21 -8.16699 31 -13.5v126c-12.667 7.33301 -26.834 13.166 -42.501 17.499s-31.5 6.5 -47.5 6.5c-26 0 -50 -4.66699 -72 -14s-41.167 -22.166 -57.5 -38.499s-29 -35.333 -38 -57s-13.5 -44.834 -13.5 -69.501
s4.5 -47.834 13.5 -69.501s21.667 -40.667 38 -57s35.5 -29.166 57.5 -38.499s46 -14 72 -14c16 0 31.833 1.83301 47.5 5.5s29.834 9.16699 42.501 16.5v138z" />
    <glyph glyph-name="ordfeminine" unicode="&#xaa;" horiz-adv-x="367" 
d="M209 355c-9.33301 -10 -20.333 -17 -33 -21s-25.667 -6 -39 -6c-18 0 -34.167 4 -48.5 12s-26.5 19.167 -36.5 33.5s-17.5 31.166 -22.5 50.499s-7.5 40.666 -7.5 63.999c0 22.667 2.5 43.834 7.5 63.501s12.5 36.834 22.5 51.501s22.167 26.167 36.5 34.5
s30.5 12.5 48.5 12.5c13.333 0 26.333 -2.33301 39 -7s23.667 -11.667 33 -21v32h133v-320h-133v21zM210 488c0 12 -2.83301 22.333 -8.5 31s-14.167 13 -25.5 13s-19.833 -4.33301 -25.5 -13s-8.5 -19 -8.5 -31c0 -12.667 2.83301 -23.167 8.5 -31.5
s14.167 -12.5 25.5 -12.5s19.833 4.16699 25.5 12.5s8.5 18.833 8.5 31.5z" />
    <glyph glyph-name="guillemotleft" unicode="&#xab;" horiz-adv-x="539" 
d="M188 221l88 -221h-181l-73 221l73 236h181zM427 221l88 -221h-181l-73 221l73 236h181z" />
    <glyph glyph-name="logicalnot" unicode="&#xac;" 
 />
    <glyph glyph-name="registered" unicode="&#xae;" horiz-adv-x="834" 
d="M21 356c0 48.667 10.167 94.834 30.5 138.501s48.333 81.834 84 114.501s77.167 58.667 124.5 78s98 29 152 29c56.667 0 109.5 -9.66699 158.5 -29s91.5 -45.333 127.5 -78s64.333 -70.834 85 -114.501s31 -89.834 31 -138.501c0 -51.333 -10.333 -99.666 -31 -144.999
s-49 -84.666 -85 -117.999s-78.5 -59.666 -127.5 -78.999s-101.833 -29 -158.5 -29c-54 0 -104.667 9.66699 -152 29s-88.833 45.666 -124.5 78.999s-63.667 72.666 -84 117.999s-30.5 93.666 -30.5 144.999zM121 356c0 -37.333 7.66699 -72.5 23 -105.5
s36.166 -61.833 62.499 -86.5s57.166 -44 92.499 -58s73 -21 113 -21c42.667 0 82.5 7 119.5 21s69 33.333 96 58s48.167 53.5 63.5 86.5s23 68.167 23 105.5c0 35.333 -7.66699 68.666 -23 99.999s-36.5 58.833 -63.5 82.5s-59 42.5 -96 56.5s-76.833 21 -119.5 21
c-40 0 -77.667 -7 -113 -21s-66.166 -32.833 -92.499 -56.5s-47.166 -51.167 -62.499 -82.5s-23 -64.666 -23 -99.999zM397 183l-122.999 0.00195312v350h168c13.333 0 27.5 -2.33301 42.5 -7s28.667 -11.834 41 -21.501s22.666 -22.167 30.999 -37.5s12.5 -34 12.5 -56
c0 -16.667 -4.16699 -33.334 -12.5 -50.001s-20.5 -30.667 -36.5 -42l66 -136h-128l-54 111h-7v-111zM397.001 439.002v-51h10c8.66699 0 16.334 1.83301 23.001 5.5s10 9.83398 10 18.501c0 9.33301 -3.33301 16.166 -10 20.499s-14.334 6.5 -23.001 6.5h-10z" />
    <glyph glyph-name="macron" unicode="&#xaf;" horiz-adv-x="435" 
d="M25 700h385v-128h-385v128z" />
    <glyph glyph-name="degree" unicode="&#xb0;" horiz-adv-x="268" 
d="M114 514c-12.667 0 -24.667 2.5 -36 7.5s-21.166 11.667 -29.499 20s-15 18.166 -20 29.499s-7.5 23.333 -7.5 36s2.5 24.667 7.5 36s11.667 21.166 20 29.499s18.166 15 29.499 20s23.333 7.5 36 7.5h40c12.667 0 24.667 -2.5 36 -7.5s21.166 -11.667 29.499 -20
s15 -18.166 20 -29.499s7.5 -23.333 7.5 -36s-2.5 -24.667 -7.5 -36s-11.667 -21.166 -20 -29.499s-18.166 -15 -29.499 -20s-23.333 -7.5 -36 -7.5h-40zM154 588c5.33301 0 9.66602 1.83301 12.999 5.5s5 8.16699 5 13.5s-1.66699 9.66602 -5 12.999s-7.66602 5 -12.999 5
h-40c-5.33301 0 -9.83301 -1.66699 -13.5 -5s-5.5 -7.66602 -5.5 -12.999s1.83301 -9.83301 5.5 -13.5s8.16699 -5.5 13.5 -5.5h40z" />
    <glyph glyph-name="plusminus" unicode="&#xb1;" 
 />
    <glyph glyph-name="twosuperior" unicode="&#xb2;" horiz-adv-x="361" 
d="M37 676c17.333 8.66699 35.667 14.834 55 18.501s38.666 5.5 57.999 5.5c20.667 0 41.167 -3.16699 61.5 -9.5s38.5 -15.333 54.5 -27s28.833 -26.167 38.5 -43.5s14.5 -37 14.5 -59c0 -18.667 -3.66699 -36.167 -11 -52.5s-16.5 -32 -27.5 -47
s-23.167 -29.5 -36.5 -43.5l-38 -41h134v-120h-316v120l38 23.5c14.667 9 28.667 19 42 30s24.833 23.333 34.5 37s14.5 28.5 14.5 44.5c0 17.333 -5.16699 30.166 -15.5 38.499s-23.5 12.5 -39.5 12.5c-12.667 0 -23.667 -2 -33 -6s-18.666 -8.66699 -27.999 -14v133z" />
    <glyph glyph-name="threesuperior" unicode="&#xb3;" horiz-adv-x="359" 
d="M272 487l23.002 -16.498c8 -5.66699 15.167 -12.667 21.5 -21s11.5 -18.5 15.5 -30.5s6 -26.333 6 -43c0 -25.333 -6.33301 -45.833 -19 -61.5s-28.167 -28.167 -46.5 -37.5s-37.833 -15.666 -58.5 -18.999s-38.667 -5 -54 -5c-6.66699 0 -15.834 0.333008 -27.501 1
s-24 2.16699 -37 4.5s-25.833 5.66602 -38.5 9.99902s-23.667 10.5 -33 18.5v126c22.667 -10 40.834 -17.167 54.501 -21.5s29.167 -6.5 46.5 -6.5c4 0 8.33301 0.333008 13 1s9.16699 1.66699 13.5 3s8 3.5 11 6.5s4.5 7.16699 4.5 12.5c0 9.33301 -4.33301 15 -13 17
s-17.334 3 -26.001 3h-71v100h51c2.66699 0 7 0.166992 13 0.5s12 1.33301 18 3s11.333 4.16699 16 7.5s7 8 7 14c0 5.33301 -1.83301 9.33301 -5.5 12s-7.83398 4.66699 -12.501 6s-9.33398 2.16602 -14.001 2.49902s-7.66699 0.5 -9 0.5c-23.333 0 -43.5 -3.5 -60.5 -10.5
s-29.167 -12.167 -36.5 -15.5v125c25.333 13.333 49.333 21.166 72 23.499s39.667 3.5 51 3.5c18.667 0 38.667 -2 60 -6s40.833 -10.5 58.5 -19.5s32.334 -21 44.001 -36s17.5 -33.167 17.5 -54.5c0 -25.333 -5.5 -45 -16.5 -59s-23.833 -26.667 -38.5 -38z" />
    <glyph glyph-name="acute" unicode="&#xb4;" horiz-adv-x="295" 
d="M147 500h-129l92 200h171z" />
    <glyph glyph-name="mu" unicode="&#xb5;" 
 />
    <glyph glyph-name="mu" unicode="&#x3bc;" 
 />
    <glyph glyph-name="paragraph" unicode="&#xb6;" horiz-adv-x="616" 
d="M593 700v-141h-57v-739h-99v739h-57v-739h-156v467c-28 0 -54.667 5.5 -80 16.5s-47.333 25.833 -66 44.5s-33.5 40.667 -44.5 66s-16.5 52 -16.5 80s5.5 54.5 16.5 79.5s25.833 46.833 44.5 65.5s40.5 33.5 65.5 44.5s51.5 16.5 79.5 16.5h370z" />
    <glyph glyph-name="periodcentered" unicode="&#xb7;" horiz-adv-x="251" 
d="M20 312c0 14.667 2.66699 28.334 8 41.001s12.833 23.667 22.5 33s20.834 16.833 33.501 22.5s26.334 8.5 41.001 8.5s28.334 -2.83301 41.001 -8.5s23.667 -13.167 33 -22.5s16.833 -20.333 22.5 -33s8.5 -26.334 8.5 -41.001s-2.83301 -28.334 -8.5 -41.001
s-13.167 -23.834 -22.5 -33.501s-20.333 -17.167 -33 -22.5s-26.334 -8 -41.001 -8s-28.334 2.66699 -41.001 8s-23.834 12.833 -33.501 22.5s-17.167 20.834 -22.5 33.501s-8 26.334 -8 41.001z" />
    <glyph glyph-name="cedilla" unicode="&#xb8;" horiz-adv-x="218" 
d="M21 -143c3.33301 -0.666992 8.33398 -0.998047 15.001 -0.998047c13.333 0 23.166 2 29.499 6s9.5 8.33301 9.5 13c0 1.33301 -1 4.16602 -3 8.49902s-8.66699 6.5 -20 6.5c-9.33301 0 -19.666 -1.33301 -30.999 -4v31l57 83h49l-26 -53c4 0.666992 8 1.16699 12 1.5
s8 0.5 12 0.5c25.333 0 44.333 -6.83301 57 -20.5s19 -28.834 19 -45.501c0 -14.667 -3.5 -27 -10.5 -37s-16.167 -18.167 -27.5 -24.5s-24 -11 -38 -14s-28 -4.5 -42 -4.5c-13.333 0 -24.833 0.5 -34.5 1.5s-18.834 2.16699 -27.501 3.5v49z" />
    <glyph glyph-name="onesuperior" unicode="&#xb9;" horiz-adv-x="201" 
d="M42 263l0.000976562 270c0 4.66699 -1.5 9.16699 -4.5 13.5s-8.83301 6.5 -17.5 6.5v99c8 0 16 1.66699 24 5s15.5 7.5 22.5 12.5s13.167 10.333 18.5 16s9.66602 10.5 12.999 14.5h78v-437h-134z" />
    <glyph glyph-name="ordmasculine" unicode="&#xba;" horiz-adv-x="378" 
d="M21 493c0 22.667 4.33301 43.834 13 63.501s20.667 36.834 36 51.501s33.166 26.167 53.499 34.5s42.166 12.5 65.499 12.5s45.333 -4.16699 66 -12.5s38.667 -19.833 54 -34.5s27.333 -31.834 36 -51.501s13 -40.834 13 -63.501c0 -22 -4.33301 -42.833 -13 -62.5
s-20.667 -36.834 -36 -51.501s-33.333 -26.167 -54 -34.5s-42.667 -12.5 -66 -12.5s-45.166 4.16699 -65.499 12.5s-38.166 19.833 -53.499 34.5s-27.333 31.834 -36 51.501s-13 40.5 -13 62.5zM155 493c0 -12 2.66699 -22.167 8 -30.5s14 -12.5 26 -12.5
c11.333 0 20 4.16699 26 12.5s9 18.5 9 30.5s-3 22.333 -9 31s-14.667 13 -26 13c-12 0 -20.667 -4.33301 -26 -13s-8 -19 -8 -31z" />
    <glyph glyph-name="guillemotright" unicode="&#xbb;" horiz-adv-x="539" 
d="M263 457h181l73 -236l-73 -221h-181l88 221zM24 457h181l73 -236l-73 -221h-181l88 221z" />
    <glyph glyph-name="onequarter" unicode="&#xbc;" horiz-adv-x="850" 
d="M460 193l139 244h180v-244h52v-113h-52v-80h-134v80h-185v113zM645 193v104l-60 -104h60zM44 263l0.000976562 270c0 4.66699 -1.5 9.16699 -4.5 13.5s-8.83301 6.5 -17.5 6.5v99c8 0 16 1.66699 24 5s15.5 7.5 22.5 12.5s13.167 10.333 18.5 16
s9.66602 10.5 12.999 14.5h78v-437h-134zM135.001 0l311 700h148l-311 -700h-148z" />
    <glyph glyph-name="onehalf" unicode="&#xbd;" horiz-adv-x="847" 
d="M44 263l0.000976562 270c0 4.66699 -1.5 9.16699 -4.5 13.5s-8.83301 6.5 -17.5 6.5v99c8 0 16 1.66699 24 5s15.5 7.5 22.5 12.5s13.167 10.333 18.5 16s9.66602 10.5 12.999 14.5h78v-437h-134zM525.001 419c17.333 8.66699 35.667 14.834 55 18.501
s38.666 5.5 57.999 5.5c20.667 0 41.167 -3.16699 61.5 -9.5s38.5 -15.333 54.5 -27s28.833 -26.167 38.5 -43.5s14.5 -37 14.5 -59c0 -18.667 -3.66699 -36.167 -11 -52.5s-16.5 -32 -27.5 -47s-23.167 -29.5 -36.5 -43.5l-38 -41h134v-120h-316v120l38 23.5
c14.667 9 28.667 19 42 30s24.833 23.333 34.5 37s14.5 28.5 14.5 44.5c0 17.333 -5.16699 30.166 -15.5 38.499s-23.5 12.5 -39.5 12.5c-12.667 0 -23.667 -2 -33 -6s-18.666 -8.66699 -27.999 -14v133zM135.002 0l311 700h148l-311 -700h-148z" />
    <glyph glyph-name="threequarters" unicode="&#xbe;" horiz-adv-x="960" 
d="M269 487l23.002 -16.498c8 -5.66699 15.167 -12.667 21.5 -21s11.5 -18.5 15.5 -30.5s6 -26.333 6 -43c0 -25.333 -6.33301 -45.833 -19 -61.5s-28.167 -28.167 -46.5 -37.5s-37.833 -15.666 -58.5 -18.999s-38.667 -5 -54 -5c-6.66699 0 -15.834 0.333008 -27.501 1
s-24 2.16699 -37 4.5s-25.833 5.66602 -38.5 9.99902s-23.667 10.5 -33 18.5v126c22.667 -10 40.834 -17.167 54.501 -21.5s29.167 -6.5 46.5 -6.5c4 0 8.33301 0.333008 13 1s9.16699 1.66699 13.5 3s8 3.5 11 6.5s4.5 7.16699 4.5 12.5c0 9.33301 -4.33301 15 -13 17
s-17.334 3 -26.001 3h-71v100h51c2.66699 0 7 0.166992 13 0.5s12 1.33301 18 3s11.333 4.16699 16 7.5s7 8 7 14c0 5.33301 -1.83301 9.33301 -5.5 12s-7.83398 4.66699 -12.501 6s-9.33398 2.16602 -14.001 2.49902s-7.66699 0.5 -9 0.5c-23.333 0 -43.5 -3.5 -60.5 -10.5
s-29.167 -12.167 -36.5 -15.5v125c25.333 13.333 49.333 21.166 72 23.499s39.667 3.5 51 3.5c18.667 0 38.667 -2 60 -6s40.833 -10.5 58.5 -19.5s32.334 -21 44.001 -36s17.5 -33.167 17.5 -54.5c0 -25.333 -5.5 -45 -16.5 -59s-23.833 -26.667 -38.5 -38z
M569.002 193.002l139 244h180v-244h52v-113h-52v-80h-134v80h-185v113zM754.002 193.002v104l-60 -104h60zM244.002 0.00195312l311 700h148l-311 -700h-148z" />
    <glyph glyph-name="questiondown" unicode="&#xbf;" horiz-adv-x="441" 
d="M419 425c0 -14 -3.16699 -27.167 -9.5 -39.5s-15.166 -23.166 -26.499 -32.499s-24.666 -16.666 -39.999 -21.999s-31.666 -8 -48.999 -8s-33.5 2.66699 -48.5 8s-28.167 12.666 -39.5 21.999s-20.166 20.166 -26.499 32.499s-9.5 25.5 -9.5 39.5
s3.16699 27.167 9.5 39.5s15.166 23.333 26.499 33s24.5 17.167 39.5 22.5s31.167 8 48.5 8s33.666 -2.66699 48.999 -8s28.666 -12.833 39.999 -22.5s20.166 -20.667 26.499 -33s9.5 -25.5 9.5 -39.5zM399 -29c-14.667 -6.66699 -31.9961 -13.499 -51.9961 -20.499
s-41.667 -10.5 -65 -10.5c-18.667 0 -33 5.16699 -43 15.5s-15 22.166 -15 35.499c0 12.667 2.83301 24.834 8.5 36.501s12.167 22.334 19.5 32.001s14.666 18.167 21.999 25.5s12.666 13 15.999 17c6 6.66699 13.833 16 23.5 28s19.167 26.333 28.5 43
s17.5 35.167 24.5 55.5s10.5 42.166 10.5 65.499h-169c0 -12 -2.83301 -23.833 -8.5 -35.5s-11.834 -22.334 -18.501 -32.001s-12.834 -17.667 -18.501 -24s-8.5 -9.83301 -8.5 -10.5c-14 -14.667 -29.167 -28.667 -45.5 -42s-31.5 -27.5 -45.5 -42.5
s-25.5 -31.667 -34.5 -50s-13.5 -40.5 -13.5 -66.5c0 -34 7.33301 -62.833 22 -86.5s33.5 -43 56.5 -58s48.667 -26 77 -33s55.833 -10.5 82.5 -10.5c26 0 51.5 2.5 76.5 7.5s48.167 13.167 69.5 24.5v136z" />
    <glyph glyph-name="Agrave" unicode="&#xc0;" horiz-adv-x="638" 
d="M251 121h137l24 -121h210l-170 700h-266l-169 -700h210zM354 292h-70l35 176zM188 950h171l92 -200h-129z" />
    <glyph glyph-name="Aacute" unicode="&#xc1;" horiz-adv-x="639" 
d="M227 0h-210l169 700h266l170 -700h-210l-24 121h-137zM319 468l-35 -176h70zM317 750h-129l92 200h171z" />
    <glyph glyph-name="Acircumflex" unicode="&#xc2;" horiz-adv-x="643" 
d="M253 121h137l24 -121h210l-170 700h-266l-169 -700h210zM356 292h-70l35 176zM243 749h-129l92 200h232l92 -200h-129l-79 118z" />
    <glyph glyph-name="Atilde" unicode="&#xc3;" horiz-adv-x="641" 
d="M252 121h137l24 -121h210l-170 700h-266l-169 -700h210zM355 292h-70l35 176zM484 901c0 -19.333 -2.66602 -37.666 -7.99902 -54.999s-12.833 -32.333 -22.5 -45s-20.834 -22.667 -33.501 -30s-26.334 -11 -41.001 -11c-14 0 -27.333 3.66699 -40 11l-90 54
c-8 3.33301 -15.333 5 -22 5c-12 0 -22.5 -5 -31.5 -15s-14.833 -22.667 -17.5 -38h-22c0 20 2.66699 38.5 8 55.5s12.833 31.667 22.5 44s20.834 22.166 33.501 29.499s26.334 11 41.001 11c15.333 0 28.666 -3.33301 39.999 -10l90 -54c8 -3.33301 15.333 -5 22 -5
c12 0 22.5 4.83301 31.5 14.5s14.833 22.5 17.5 38.5h22z" />
    <glyph glyph-name="Adieresis" unicode="&#xc4;" horiz-adv-x="641" 
d="M228 0h-210l169 700h266l170 -700h-210l-24 121h-137zM320 468l-35 -176h70zM151 878h128v-128h-128v128zM362 878h128v-128h-128v128z" />
    <glyph glyph-name="Aring" unicode="&#xc5;" horiz-adv-x="639" 
d="M251 121h137l24 -121h210l-170 700h-266l-169 -700h210zM354 292h-70l35 176zM319 714c-12.667 0 -24.667 2.5 -36 7.5s-21.166 11.667 -29.499 20s-15 18.166 -20 29.499s-7.5 23.333 -7.5 36s2.5 24.667 7.5 36s11.667 21.166 20 29.499s18.166 15 29.499 20
s23.333 7.5 36 7.5s24.834 -2.5 36.501 -7.5s21.667 -11.667 30 -20s15 -18.166 20 -29.499s7.5 -23.333 7.5 -36s-2.5 -24.667 -7.5 -36s-11.667 -21.166 -20 -29.499s-18.333 -15 -30 -20s-23.834 -7.5 -36.501 -7.5zM300 807c0 -5.33301 1.83301 -9.83301 5.5 -13.5
s8.16699 -5.5 13.5 -5.5s9.83301 1.83301 13.5 5.5s5.5 8.16699 5.5 13.5s-1.83301 9.83301 -5.5 13.5s-8.16699 5.5 -13.5 5.5s-9.83301 -1.83301 -13.5 -5.5s-5.5 -8.16699 -5.5 -13.5z" />
    <glyph glyph-name="AE" unicode="&#xc6;" horiz-adv-x="813" 
d="M230 0h-210l169 700h589v-203h-200v-58h184v-171h-184v-65h210v-203h-466v121h-68zM287 292h35v176z" />
    <glyph glyph-name="Ccedilla" unicode="&#xc7;" horiz-adv-x="559" 
d="M188 -132c3.33301 -0.666992 8.33398 -1.00293 15.001 -1.00293c13.333 0 23.166 2 29.499 6s9.5 8.33301 9.5 13c0 1.33301 -1 4.16602 -3 8.49902s-8.66699 6.5 -20 6.5c-9.33301 0 -19.666 -1.33301 -30.999 -4v31l53 78c-33.333 12.667 -63.833 30.334 -91.5 53.001
s-51.167 48.834 -70.5 78.501s-34.333 62.5 -45 98.5s-16 74 -16 114c0 50.667 8.66699 98.334 26 143.001s41.5 83.5 72.5 116.5s67.5 59.167 109.5 78.5s88 29 138 29c32 0 62.667 -4.16699 92 -12.5s56.666 -20.166 81.999 -35.499v-256l-23.5 22.5
c-8.33301 7.66699 -17.666 14.667 -27.999 21s-22.333 11.5 -36 15.5s-29.5 6 -47.5 6c-21.333 0 -39.833 -3.33301 -55.5 -10s-28.667 -15.834 -39 -27.501s-18 -25.167 -23 -40.5s-7.5 -32 -7.5 -50c0 -17.333 2.5 -33.666 7.5 -48.999s12.667 -28.666 23 -39.999
s23.333 -20.333 39 -27s34.167 -10 55.5 -10c34 0 62.667 8.16699 86 24.5s39.666 36.833 48.999 61.5v-279c-25.333 -15.333 -52.666 -27 -81.999 -35s-60 -12 -92 -12c-28 0 -54.333 3 -79 9l-17 -35c4 0.666992 8 1.16699 12 1.5s8 0.5 12 0.5
c25.333 0 44.333 -6.83301 57 -20.5s19 -28.834 19 -45.501c0 -14.667 -3.5 -27 -10.5 -37s-16.167 -18.167 -27.5 -24.5s-24 -11 -38 -14s-28 -4.5 -42 -4.5c-13.333 0 -24.833 0.5 -34.5 1.5s-18.834 2.16699 -27.501 3.5v49z" />
    <glyph glyph-name="Egrave" unicode="&#xc8;" horiz-adv-x="508" 
d="M22 700h456v-203h-200v-58h184v-171h-184v-65h210v-203h-466v700zM123 950h171l92 -200h-129z" />
    <glyph glyph-name="Eacute" unicode="&#xc9;" horiz-adv-x="507" 
d="M21 700h456v-203h-200v-58h184v-171h-184v-65h210v-203h-466v700zM252 749h-129l92 200h171z" />
    <glyph glyph-name="Ecircumflex" unicode="&#xca;" horiz-adv-x="511" 
d="M23 700h456v-203h-200v-58h184v-171h-184v-65h210v-203h-466v700zM177 750h-129l92 200h232l92 -200h-129l-79 118z" />
    <glyph glyph-name="Edieresis" unicode="&#xcb;" horiz-adv-x="512" 
d="M24 700h456v-203h-200v-58h184v-171h-184v-65h210v-203h-466v700zM87 877h128v-128h-128v128zM298 877h128v-128h-128v128z" />
    <glyph glyph-name="Igrave" unicode="&#xcc;" horiz-adv-x="309" 
d="M26 700h256v-700h-256v700zM23 949h171l92 -200h-129z" />
    <glyph glyph-name="Iacute" unicode="&#xcd;" horiz-adv-x="309" 
d="M26 700h256v-700h-256v700zM152 750h-129l92 200h171z" />
    <glyph glyph-name="Icircumflex" unicode="&#xce;" horiz-adv-x="452" 
d="M98 700h256v-700h-256v700zM147 750h-129l92 200h232l92 -200h-129l-79 118z" />
    <glyph glyph-name="Idieresis" unicode="&#xcf;" horiz-adv-x="379" 
d="M61 700h256v-700h-256v700zM20 877h128v-128h-128v128zM231 877h128v-128h-128v128z" />
    <glyph glyph-name="Eth" unicode="&#xd0;" horiz-adv-x="754" 
d="M83 0v310h-62v83h62v307h282c52.667 0 101.5 -8.66699 146.5 -26s83.833 -41.5 116.5 -72.5s58.334 -68 77.001 -111s28 -89.833 28 -140.5s-9.33301 -97.5 -28 -140.5s-44.334 -80 -77.001 -111s-71.5 -55.167 -116.5 -72.5s-93.833 -26 -146.5 -26h-282zM365 240
c36.667 0 63.834 9.5 81.501 28.5s26.5 46.167 26.5 81.5s-8.83301 62.5 -26.5 81.5s-44.834 28.5 -81.501 28.5h-26v-67h64v-83h-64v-70h26z" />
    <glyph glyph-name="Ntilde" unicode="&#xd1;" horiz-adv-x="688" 
d="M410 700h256v-700h-267l-121 274v-274h-256v700h269l119 -270v270zM508 889c0 -19.333 -2.66602 -37.666 -7.99902 -54.999s-12.833 -32.333 -22.5 -45s-20.834 -22.667 -33.501 -30s-26.334 -11 -41.001 -11c-14 0 -27.333 3.66699 -40 11l-90 54
c-8 3.33301 -15.333 5 -22 5c-12 0 -22.5 -5 -31.5 -15s-14.833 -22.667 -17.5 -38h-22c0 20 2.66699 38.5 8 55.5s12.833 31.667 22.5 44s20.834 22.166 33.501 29.499s26.334 11 41.001 11c15.333 0 28.666 -3.33301 39.999 -10l90 -54c8 -3.33301 15.333 -5 22 -5
c12 0 22.5 4.83301 31.5 14.5s14.833 22.5 17.5 38.5h22z" />
    <glyph glyph-name="Ograve" unicode="&#xd2;" horiz-adv-x="771" 
d="M18 350c0 50.667 9.16699 98.334 27.5 143.001s43.833 83.5 76.5 116.5s71.5 59.167 116.5 78.5s93.833 29 146.5 29s101.5 -9.66699 146.5 -29s83.833 -45.5 116.5 -78.5s58.334 -71.833 77.001 -116.5s28 -92.334 28 -143.001s-9.33301 -98.334 -28 -143.001
s-44.334 -83.5 -77.001 -116.5s-71.5 -59 -116.5 -78s-93.833 -28.5 -146.5 -28.5s-101.5 9.5 -146.5 28.5s-83.833 45 -116.5 78s-58.167 71.833 -76.5 116.5s-27.5 92.334 -27.5 143.001zM278 350c0 -17.333 2.16699 -33.666 6.5 -48.999s10.833 -28.666 19.5 -39.999
s19.834 -20.333 33.501 -27s29.5 -10 47.5 -10s33.833 3.33301 47.5 10s25 15.667 34 27s15.667 24.666 20 39.999s6.5 31.666 6.5 48.999s-2.16699 33.666 -6.5 48.999s-11 28.833 -20 40.5s-20.333 20.834 -34 27.501s-29.5 10 -47.5 10s-33.833 -3.33301 -47.5 -10
s-24.834 -15.834 -33.501 -27.501s-15.167 -25.167 -19.5 -40.5s-6.5 -31.666 -6.5 -48.999zM254 950h171l92 -200h-129z" />
    <glyph glyph-name="Oacute" unicode="&#xd3;" horiz-adv-x="771" 
d="M18 350c0 50.667 9.16699 98.334 27.5 143.001s43.833 83.5 76.5 116.5s71.5 59.167 116.5 78.5s93.833 29 146.5 29s101.5 -9.66699 146.5 -29s83.833 -45.5 116.5 -78.5s58.334 -71.833 77.001 -116.5s28 -92.334 28 -143.001s-9.33301 -98.334 -28 -143.001
s-44.334 -83.5 -77.001 -116.5s-71.5 -59 -116.5 -78s-93.833 -28.5 -146.5 -28.5s-101.5 9.5 -146.5 28.5s-83.833 45 -116.5 78s-58.167 71.833 -76.5 116.5s-27.5 92.334 -27.5 143.001zM278 350c0 -17.333 2.16699 -33.666 6.5 -48.999s10.833 -28.666 19.5 -39.999
s19.834 -20.333 33.501 -27s29.5 -10 47.5 -10s33.833 3.33301 47.5 10s25 15.667 34 27s15.667 24.666 20 39.999s6.5 31.666 6.5 48.999s-2.16699 33.666 -6.5 48.999s-11 28.833 -20 40.5s-20.333 20.834 -34 27.501s-29.5 10 -47.5 10s-33.833 -3.33301 -47.5 -10
s-24.834 -15.834 -33.501 -27.501s-15.167 -25.167 -19.5 -40.5s-6.5 -31.666 -6.5 -48.999zM383 749h-129l92 200h171z" />
    <glyph glyph-name="Ocircumflex" unicode="&#xd4;" horiz-adv-x="773" 
d="M19 350c0 50.667 9.16699 98.334 27.5 143.001s43.833 83.5 76.5 116.5s71.5 59.167 116.5 78.5s93.833 29 146.5 29s101.5 -9.66699 146.5 -29s83.833 -45.5 116.5 -78.5s58.334 -71.833 77.001 -116.5s28 -92.334 28 -143.001s-9.33301 -98.334 -28 -143.001
s-44.334 -83.5 -77.001 -116.5s-71.5 -59 -116.5 -78s-93.833 -28.5 -146.5 -28.5s-101.5 9.5 -146.5 28.5s-83.833 45 -116.5 78s-58.167 71.833 -76.5 116.5s-27.5 92.334 -27.5 143.001zM279 350c0 -17.333 2.16699 -33.666 6.5 -48.999s10.833 -28.666 19.5 -39.999
s19.834 -20.333 33.501 -27s29.5 -10 47.5 -10s33.833 3.33301 47.5 10s25 15.667 34 27s15.667 24.666 20 39.999s6.5 31.666 6.5 48.999s-2.16699 33.666 -6.5 48.999s-11 28.833 -20 40.5s-20.333 20.834 -34 27.501s-29.5 10 -47.5 10s-33.833 -3.33301 -47.5 -10
s-24.834 -15.834 -33.501 -27.501s-15.167 -25.167 -19.5 -40.5s-6.5 -31.666 -6.5 -48.999zM308 749h-129l92 200h232l92 -200h-129l-79 118z" />
    <glyph glyph-name="Otilde" unicode="&#xd5;" horiz-adv-x="773" 
d="M19 350c0 50.667 9.16699 98.334 27.5 143.001s43.833 83.5 76.5 116.5s71.5 59.167 116.5 78.5s93.833 29 146.5 29s101.5 -9.66699 146.5 -29s83.833 -45.5 116.5 -78.5s58.334 -71.833 77.001 -116.5s28 -92.334 28 -143.001s-9.33301 -98.334 -28 -143.001
s-44.334 -83.5 -77.001 -116.5s-71.5 -59 -116.5 -78s-93.833 -28.5 -146.5 -28.5s-101.5 9.5 -146.5 28.5s-83.833 45 -116.5 78s-58.167 71.833 -76.5 116.5s-27.5 92.334 -27.5 143.001zM279 350c0 -17.333 2.16699 -33.666 6.5 -48.999s10.833 -28.666 19.5 -39.999
s19.834 -20.333 33.501 -27s29.5 -10 47.5 -10s33.833 3.33301 47.5 10s25 15.667 34 27s15.667 24.666 20 39.999s6.5 31.666 6.5 48.999s-2.16699 33.666 -6.5 48.999s-11 28.833 -20 40.5s-20.333 20.834 -34 27.501s-29.5 10 -47.5 10s-33.833 -3.33301 -47.5 -10
s-24.834 -15.834 -33.501 -27.501s-15.167 -25.167 -19.5 -40.5s-6.5 -31.666 -6.5 -48.999zM550 901c0 -19.333 -2.66602 -37.666 -7.99902 -54.999s-12.833 -32.333 -22.5 -45s-20.834 -22.667 -33.501 -30s-26.334 -11 -41.001 -11c-14 0 -27.333 3.66699 -40 11l-90 54
c-8 3.33301 -15.333 5 -22 5c-12 0 -22.5 -5 -31.5 -15s-14.833 -22.667 -17.5 -38h-22c0 20 2.66699 38.5 8 55.5s12.833 31.667 22.5 44s20.834 22.166 33.501 29.499s26.334 11 41.001 11c15.333 0 28.666 -3.33301 39.999 -10l90 -54c8 -3.33301 15.333 -5 22 -5
c12 0 22.5 4.83301 31.5 14.5s14.833 22.5 17.5 38.5h22z" />
    <glyph glyph-name="Odieresis" unicode="&#xd6;" horiz-adv-x="773" 
d="M19 350c0 50.667 9.16699 98.334 27.5 143.001s43.833 83.5 76.5 116.5s71.5 59.167 116.5 78.5s93.833 29 146.5 29s101.5 -9.66699 146.5 -29s83.833 -45.5 116.5 -78.5s58.334 -71.833 77.001 -116.5s28 -92.334 28 -143.001s-9.33301 -98.334 -28 -143.001
s-44.334 -83.5 -77.001 -116.5s-71.5 -59 -116.5 -78s-93.833 -28.5 -146.5 -28.5s-101.5 9.5 -146.5 28.5s-83.833 45 -116.5 78s-58.167 71.833 -76.5 116.5s-27.5 92.334 -27.5 143.001zM279 350c0 -17.333 2.16699 -33.666 6.5 -48.999s10.833 -28.666 19.5 -39.999
s19.834 -20.333 33.501 -27s29.5 -10 47.5 -10s33.833 3.33301 47.5 10s25 15.667 34 27s15.667 24.666 20 39.999s6.5 31.666 6.5 48.999s-2.16699 33.666 -6.5 48.999s-11 28.833 -20 40.5s-20.333 20.834 -34 27.501s-29.5 10 -47.5 10s-33.833 -3.33301 -47.5 -10
s-24.834 -15.834 -33.501 -27.501s-15.167 -25.167 -19.5 -40.5s-6.5 -31.666 -6.5 -48.999zM217 877h128v-128h-128v128zM428 877h128v-128h-128v128z" />
    <glyph glyph-name="multiply" unicode="&#xd7;" horiz-adv-x="453" 
d="M434 224l-122 -121l-86 86l-86 -86l-121 122l85 85l-85 86l121 122l86 -86l86 86l122 -121l-87 -87z" />
    <glyph glyph-name="Oslash" unicode="&#xd8;" horiz-adv-x="775" 
d="M151 -50l38.999 88c-52 32.667 -93.333 76.167 -124 130.5s-46 114.833 -46 181.5c0 50.667 9.16699 98.334 27.5 143.001s43.833 83.5 76.5 116.5s71.5 59.167 116.5 78.5s93.833 29 146.5 29c17.333 0 34.333 -1.16699 51 -3.5s32.667 -5.5 48 -9.5l20 46h118l-39 -88
c52 -32.667 93.333 -76.167 124 -130.5s46 -114.833 46 -181.5c0 -50.667 -9.33301 -98.334 -28 -143.001s-44.334 -83.5 -77.001 -116.5s-71.5 -59 -116.5 -78s-93.833 -28.5 -146.5 -28.5c-17.333 0 -34.166 1.16699 -50.499 3.5s-32.166 5.5 -47.499 9.5l-20 -47h-118z
M279.999 350c0 -29.333 5.33301 -53.665 16 -72.998l89 200c-36 -0.666992 -62.5 -13.334 -79.5 -38.001s-25.5 -54.334 -25.5 -89.001zM494.999 350.001c0 26 -5.33301 50.333 -16 73l-89 -199c36 0.666992 62.5 13.167 79.5 37.5s25.5 53.833 25.5 88.5z" />
    <glyph glyph-name="Ugrave" unicode="&#xd9;" horiz-adv-x="618" 
d="M309 228c14.667 0 27.667 4.16699 39 12.5s17 20.166 17 35.499v424h233v-476c0 -40 -8.33301 -75 -25 -105s-38.667 -55 -66 -75s-58.333 -34.833 -93 -44.5s-69.667 -14.5 -105 -14.5s-70.333 4.83301 -105 14.5s-65.667 24.5 -93 44.5s-49.333 45 -66 75
s-25 65 -25 105v476h233v-424c0 -15.333 5.66699 -27.166 17 -35.499s24.333 -12.5 39 -12.5zM177 950h171l92 -200h-129z" />
    <glyph glyph-name="Uacute" unicode="&#xda;" horiz-adv-x="618" 
d="M309 228c14.667 0 27.667 4.16699 39 12.5s17 20.166 17 35.499v424h233v-476c0 -40 -8.33301 -75 -25 -105s-38.667 -55 -66 -75s-58.333 -34.833 -93 -44.5s-69.667 -14.5 -105 -14.5s-70.333 4.83301 -105 14.5s-65.667 24.5 -93 44.5s-49.333 45 -66 75
s-25 65 -25 105v476h233v-424c0 -15.333 5.66699 -27.166 17 -35.499s24.333 -12.5 39 -12.5zM307 750h-129l92 200h171z" />
    <glyph glyph-name="Ucircumflex" unicode="&#xdb;" horiz-adv-x="622" 
d="M311 228c14.667 0 27.667 4.16699 39 12.5s17 20.166 17 35.499v424h233v-476c0 -40 -8.33301 -75 -25 -105s-38.667 -55 -66 -75s-58.333 -34.833 -93 -44.5s-69.667 -14.5 -105 -14.5s-70.333 4.83301 -105 14.5s-65.667 24.5 -93 44.5s-49.333 45 -66 75
s-25 65 -25 105v476h233v-424c0 -15.333 5.66699 -27.166 17 -35.499s24.333 -12.5 39 -12.5zM232 749h-129l92 200h232l92 -200h-129l-79 118z" />
    <glyph glyph-name="Udieresis" unicode="&#xdc;" horiz-adv-x="622" 
d="M311 228c14.667 0 27.667 4.16699 39 12.5s17 20.166 17 35.499v424h233v-476c0 -40 -8.33301 -75 -25 -105s-38.667 -55 -66 -75s-58.333 -34.833 -93 -44.5s-69.667 -14.5 -105 -14.5s-70.333 4.83301 -105 14.5s-65.667 24.5 -93 44.5s-49.333 45 -66 75
s-25 65 -25 105v476h233v-424c0 -15.333 5.66699 -27.166 17 -35.499s24.333 -12.5 39 -12.5zM141 878h128v-128h-128v128zM352 878h128v-128h-128v128z" />
    <glyph glyph-name="Yacute" unicode="&#xdd;" horiz-adv-x="746" 
d="M14 700h256l103 -205l103 205h256l-231 -414v-286h-256v286zM370 750h-129l92 200h171z" />
    <glyph glyph-name="Thorn" unicode="&#xde;" horiz-adv-x="637" 
d="M25 700l248.002 -0.00292969v-84h91c27.333 0 56.166 -4.83301 86.499 -14.5s58.166 -24.667 83.499 -45s46.333 -46.666 63 -78.999s25 -71.166 25 -116.499c0 -28.667 -5.83301 -57.667 -17.5 -87s-28.667 -55.666 -51 -78.999s-49.5 -42.5 -81.5 -57.5
s-68 -22.5 -108 -22.5h-91v-115h-248v700zM293.002 417.997h-19.999v-107h21c17.333 0 32.666 4 45.999 12s20 21.333 20 40c0 19.333 -6.66699 33.333 -20 42s-29 13 -47 13z" />
    <glyph glyph-name="germandbls" unicode="&#xdf;" horiz-adv-x="655" 
d="M320 169c15.333 0 28.3379 5.33301 39.0049 16s16 23.667 16 39s-5.33301 28.333 -16 39s-23.667 16 -39 16v154c13.333 0 24.833 4.83301 34.5 14.5s14.5 21.167 14.5 34.5s-4.83301 24.833 -14.5 34.5s-21.167 14.5 -34.5 14.5s-24.833 -4.83301 -34.5 -14.5
s-14.5 -21.167 -14.5 -34.5v-482h-247v514c0 36.667 10.333 66.334 31 89.001s46 40.334 76 53.001s62.167 21.334 96.5 26.001s65.166 7 92.499 7s58.166 -2.33301 92.499 -7s66.5 -13.334 96.5 -26.001s55.333 -30.334 76 -53.001s31 -52.334 31 -89.001
c0 -21.333 -3.5 -40.333 -10.5 -57s-15.833 -31.5 -26.5 -44.5s-21.834 -24 -33.501 -33s-21.834 -16.5 -30.501 -22.5c38 -15.333 67.333 -36.833 88 -64.5s31 -60.167 31 -97.5c0 -39.333 -10.833 -72 -32.5 -98s-48.334 -47 -80.001 -63s-65.667 -27.333 -102 -34
s-69.5 -10 -99.5 -10v179z" />
    <glyph glyph-name="agrave" unicode="&#xe0;" horiz-adv-x="539" 
d="M311 0l207.997 0.00195312v483h-208v-33c-15.333 15.333 -32.666 26.666 -51.999 33.999s-39.333 11 -60 11c-28.667 0 -54.167 -6.5 -76.5 -19.5s-41.166 -31 -56.499 -54s-27 -50 -35 -81s-12 -64.167 -12 -99.5c0 -36 4 -69.167 12 -99.5s19.667 -56.5 35 -78.5
s34.166 -39.333 56.499 -52s47.833 -19 76.5 -19c20.667 0 40.834 3.16699 60.501 9.5s36.834 17.166 51.501 32.499v-34zM311.997 241.002c0 -19.333 -4.16699 -35.5 -12.5 -48.5s-21.833 -19.5 -40.5 -19.5c-18 0 -31.333 6.5 -40 19.5s-13 29.167 -13 48.5
s4.33301 35.666 13 48.999s22 20 40 20c18.667 0 32.167 -6.66699 40.5 -20s12.5 -29.666 12.5 -48.999zM136.997 718.002h171l92 -200h-129z" />
    <glyph glyph-name="aacute" unicode="&#xe1;" horiz-adv-x="539" 
d="M310 34c-14.667 -15.333 -31.8311 -26.168 -51.498 -32.501s-39.834 -9.5 -60.501 -9.5c-28.667 0 -54.167 6.33301 -76.5 19s-41.166 30 -56.499 52s-27 48.167 -35 78.5s-12 63.5 -12 99.5c0 35.333 4 68.5 12 99.5s19.667 58 35 81s34.166 41 56.499 54
s47.833 19.5 76.5 19.5c20.667 0 40.667 -3.66699 60 -11s36.666 -18.666 51.999 -33.999v33h208v-483h-208v34zM311.003 240.998c0 19.333 -4.16699 35.666 -12.5 48.999s-21.833 20 -40.5 20c-18 0 -31.333 -6.66699 -40 -20s-13 -29.666 -13 -48.999
s4.33301 -35.5 13 -48.5s22 -19.5 40 -19.5c18.667 0 32.167 6.5 40.5 19.5s12.5 29.167 12.5 48.5zM266.003 517.998h-129l92 200h171z" />
    <glyph glyph-name="acircumflex" unicode="&#xe2;" horiz-adv-x="543" 
d="M313 0l207.997 0.00195312v483h-208v-33c-15.333 15.333 -32.666 26.666 -51.999 33.999s-39.333 11 -60 11c-28.667 0 -54.167 -6.5 -76.5 -19.5s-41.166 -31 -56.499 -54s-27 -50 -35 -81s-12 -64.167 -12 -99.5c0 -36 4 -69.167 12 -99.5s19.667 -56.5 35 -78.5
s34.166 -39.333 56.499 -52s47.833 -19 76.5 -19c20.667 0 40.834 3.16699 60.501 9.5s36.834 17.166 51.501 32.499v-34zM313.997 241.002c0 -19.333 -4.16699 -35.5 -12.5 -48.5s-21.833 -19.5 -40.5 -19.5c-18 0 -31.333 6.5 -40 19.5s-13 29.167 -13 48.5
s4.33301 35.666 13 48.999s22 20 40 20c18.667 0 32.167 -6.66699 40.5 -20s12.5 -29.666 12.5 -48.999zM191.997 518.002h-129l92 200h232l92 -200h-129l-79 118z" />
    <glyph glyph-name="atilde" unicode="&#xe3;" horiz-adv-x="542" 
d="M312 0l207.997 0.00195312v483h-208v-33c-15.333 15.333 -32.666 26.666 -51.999 33.999s-39.333 11 -60 11c-28.667 0 -54.167 -6.5 -76.5 -19.5s-41.166 -31 -56.499 -54s-27 -50 -35 -81s-12 -64.167 -12 -99.5c0 -36 4 -69.167 12 -99.5s19.667 -56.5 35 -78.5
s34.166 -39.333 56.499 -52s47.833 -19 76.5 -19c20.667 0 40.834 3.16699 60.501 9.5s36.834 17.166 51.501 32.499v-34zM312.997 241.002c0 -19.333 -4.16699 -35.5 -12.5 -48.5s-21.833 -19.5 -40.5 -19.5c-18 0 -31.333 6.5 -40 19.5s-13 29.167 -13 48.5
s4.33301 35.666 13 48.999s22 20 40 20c18.667 0 32.167 -6.66699 40.5 -20s12.5 -29.666 12.5 -48.999zM433.997 701.002c0 -19.333 -2.66602 -37.666 -7.99902 -54.999s-12.833 -32.333 -22.5 -45s-20.834 -22.667 -33.501 -30s-26.334 -11 -41.001 -11
c-14 0 -27.333 3.66699 -40 11l-90 54c-8 3.33301 -15.333 5 -22 5c-12 0 -22.5 -5 -31.5 -15s-14.833 -22.667 -17.5 -38h-22c0 20 2.66699 38.5 8 55.5s12.833 31.667 22.5 44s20.834 22.166 33.501 29.499s26.334 11 41.001 11c15.333 0 28.666 -3.33301 39.999 -10
l90 -54c8 -3.33301 15.333 -5 22 -5c12 0 22.5 4.83301 31.5 14.5s14.833 22.5 17.5 38.5h22z" />
    <glyph glyph-name="adieresis" unicode="&#xe4;" horiz-adv-x="544" 
d="M313 34c-14.667 -15.333 -31.8311 -26.168 -51.498 -32.501s-39.834 -9.5 -60.501 -9.5c-28.667 0 -54.167 6.33301 -76.5 19s-41.166 30 -56.499 52s-27 48.167 -35 78.5s-12 63.5 -12 99.5c0 35.333 4 68.5 12 99.5s19.667 58 35 81s34.166 41 56.499 54
s47.833 19.5 76.5 19.5c20.667 0 40.667 -3.66699 60 -11s36.666 -18.666 51.999 -33.999v33h208v-483h-208v34zM314.003 240.998c0 19.333 -4.16699 35.666 -12.5 48.999s-21.833 20 -40.5 20c-18 0 -31.333 -6.66699 -40 -20s-13 -29.666 -13 -48.999
s4.33301 -35.5 13 -48.5s22 -19.5 40 -19.5c18.667 0 32.167 6.5 40.5 19.5s12.5 29.167 12.5 48.5zM101.003 716.998h128v-128h-128v128zM312.003 716.998h128v-128h-128v128z" />
    <glyph glyph-name="aring" unicode="&#xe5;" horiz-adv-x="540" 
d="M311 0l207.997 0.00195312v483h-208v-33c-15.333 15.333 -32.666 26.666 -51.999 33.999s-39.333 11 -60 11c-28.667 0 -54.167 -6.5 -76.5 -19.5s-41.166 -31 -56.499 -54s-27 -50 -35 -81s-12 -64.167 -12 -99.5c0 -36 4 -69.167 12 -99.5s19.667 -56.5 35 -78.5
s34.166 -39.333 56.499 -52s47.833 -19 76.5 -19c20.667 0 40.834 3.16699 60.501 9.5s36.834 17.166 51.501 32.499v-34zM311.997 241.002c0 -19.333 -4.16699 -35.5 -12.5 -48.5s-21.833 -19.5 -40.5 -19.5c-18 0 -31.333 6.5 -40 19.5s-13 29.167 -13 48.5
s4.33301 35.666 13 48.999s22 20 40 20c18.667 0 32.167 -6.66699 40.5 -20s12.5 -29.666 12.5 -48.999zM267.997 532.002c-12.667 0 -24.667 2.5 -36 7.5s-21.166 11.667 -29.499 20s-15 18.166 -20 29.499s-7.5 23.333 -7.5 36s2.5 24.667 7.5 36s11.667 21.166 20 29.499
s18.166 15 29.499 20s23.333 7.5 36 7.5s24.834 -2.5 36.501 -7.5s21.667 -11.667 30 -20s15 -18.166 20 -29.499s7.5 -23.333 7.5 -36s-2.5 -24.667 -7.5 -36s-11.667 -21.166 -20 -29.499s-18.333 -15 -30 -20s-23.834 -7.5 -36.501 -7.5zM248.997 625.002
c0 -5.33301 1.83301 -9.83301 5.5 -13.5s8.16699 -5.5 13.5 -5.5s9.83301 1.83301 13.5 5.5s5.5 8.16699 5.5 13.5s-1.83301 9.83301 -5.5 13.5s-8.16699 5.5 -13.5 5.5s-9.83301 -1.83301 -13.5 -5.5s-5.5 -8.16699 -5.5 -13.5z" />
    <glyph glyph-name="ae" unicode="&#xe6;" horiz-adv-x="882" 
d="M661 144c23.333 0 47.3379 3.66406 72.0049 10.9971s45 17 61 29v-154c-20.667 -12 -46.334 -21.333 -77.001 -28s-59.667 -10 -87 -10c-38.667 0 -74.334 6.66699 -107.001 20v-12h-208v34c-14.667 -15.333 -31.834 -26.166 -51.501 -32.499s-39.834 -9.5 -60.501 -9.5
c-28.667 0 -54.167 6.33301 -76.5 19s-41.166 30 -56.499 52s-27 48.167 -35 78.5s-12 63.5 -12 99.5c0 35.333 4 68.5 12 99.5s19.667 58 35 81s34.166 41 56.499 54s47.833 19.5 76.5 19.5c20.667 0 40.667 -3.66699 60 -11s36.666 -18.666 51.999 -33.999v50h208v-28
c16 6.66699 33 11.834 51 15.501s36.667 5.5 56 5.5c34.667 0 66.167 -6.5 94.5 -19.5s52.5 -30.667 72.5 -53s35.5 -48.833 46.5 -79.5s16.5 -63.334 16.5 -98.001v-36h-300c6.66699 -17.333 18.167 -32.166 34.5 -44.499s38.5 -18.5 66.5 -18.5zM316.005 240.997
c0 19.333 -4.16699 35.666 -12.5 48.999s-21.833 20 -40.5 20c-18 0 -31.333 -6.66699 -40 -20s-13 -29.666 -13 -48.999s4.33301 -35.5 13 -48.5s22 -19.5 40 -19.5c18.667 0 32.167 6.5 40.5 19.5s12.5 29.167 12.5 48.5zM682.005 307.997
c-3.33301 9.33301 -9.83301 18 -19.5 26s-20.5 12 -32.5 12c-18.667 0 -33 -3.5 -43 -10.5s-17.667 -16.167 -23 -27.5h118z" />
    <glyph glyph-name="ccedilla" unicode="&#xe7;" horiz-adv-x="420" 
d="M119 -143c3.33301 -0.666992 8.33496 -1.00098 15.002 -1.00098c13.333 0 23.166 2 29.499 6s9.5 8.33301 9.5 13c0 1.33301 -1 4.16602 -3 8.49902s-8.66699 6.5 -20 6.5c-9.33301 0 -19.666 -1.33301 -30.999 -4v31l60 89c-24 8.66699 -46 20.834 -66 36.501
s-37 33.834 -51 54.501s-24.833 43.167 -32.5 67.5s-11.5 50.166 -11.5 77.499c0 34.667 6.33301 67.334 19 98.001s30.334 57.334 53.001 80.001s49.667 40.667 81 54s65.333 20 102 20c47.333 0 89.666 -11.333 126.999 -34v-176
c-14.667 7.33301 -29.334 13.333 -44.001 18s-32.667 7 -54 7c-25.333 0 -43.833 -6.5 -55.5 -19.5s-17.5 -28.833 -17.5 -47.5c0 -19.333 5.83301 -35.333 17.5 -48s30.167 -19 55.5 -19c20 0 38.5 3.33301 55.5 10s31.167 16.667 42.5 30v-193
c-18 -10 -37.833 -17.833 -59.5 -23.5s-44.167 -8.5 -67.5 -8.5c-8.66699 0 -17 0.5 -25 1.5s-16 2.16699 -24 3.5l-25 -48c4 0.666992 8 1.16699 12 1.5s8 0.5 12 0.5c25.333 0 44.333 -6.83301 57 -20.5s19 -28.834 19 -45.501c0 -14.667 -3.5 -27 -10.5 -37
s-16.167 -18.167 -27.5 -24.5s-24 -11 -38 -14s-28 -4.5 -42 -4.5c-13.333 0 -24.833 0.5 -34.5 1.5s-18.834 2.16699 -27.501 3.5v49z" />
    <glyph glyph-name="egrave" unicode="&#xe8;" horiz-adv-x="527" 
d="M311 144c23.333 0 47.334 3.66504 72.001 10.998s45 17 61 29v-154c-20.667 -12 -46.334 -21.333 -77.001 -28s-59.667 -10 -87 -10c-38 0 -73 6.5 -105 19.5s-59.667 30.833 -83 53.5s-41.5 49.334 -54.5 80.001s-19.5 63.334 -19.5 98.001s6.5 67.167 19.5 97.5
s31.167 56.833 54.5 79.5s51 40.5 83 53.5s67 19.5 105 19.5c34.667 0 66.167 -6.5 94.5 -19.5s52.5 -30.667 72.5 -53s35.5 -48.833 46.5 -79.5s16.5 -63.334 16.5 -98.001v-36h-300c6.66699 -17.333 18.167 -32.166 34.5 -44.499s38.5 -18.5 66.5 -18.5zM332.001 307.998
c-3.33301 9.33301 -9.83301 18 -19.5 26s-20.5 12 -32.5 12c-18.667 0 -33 -3.5 -43 -10.5s-17.667 -16.167 -23 -27.5h118zM132.001 716.998h171l92 -200h-129z" />
    <glyph glyph-name="eacute" unicode="&#xe9;" horiz-adv-x="527" 
d="M310 144c23.333 0 47.334 3.66504 72.001 10.998s45 17 61 29v-154c-20.667 -12 -46.334 -21.333 -77.001 -28s-59.667 -10 -87 -10c-38 0 -73 6.5 -105 19.5s-59.667 30.833 -83 53.5s-41.5 49.334 -54.5 80.001s-19.5 63.334 -19.5 98.001s6.5 67.167 19.5 97.5
s31.167 56.833 54.5 79.5s51 40.5 83 53.5s67 19.5 105 19.5c34.667 0 66.167 -6.5 94.5 -19.5s52.5 -30.667 72.5 -53s35.5 -48.833 46.5 -79.5s16.5 -63.334 16.5 -98.001v-36h-300c6.66699 -17.333 18.167 -32.166 34.5 -44.499s38.5 -18.5 66.5 -18.5zM331.001 307.998
c-3.33301 9.33301 -9.83301 18 -19.5 26s-20.5 12 -32.5 12c-18.667 0 -33 -3.5 -43 -10.5s-17.667 -16.167 -23 -27.5h118zM261.001 516.998h-129l92 200h171z" />
    <glyph glyph-name="ecircumflex" unicode="&#xea;" horiz-adv-x="531" 
d="M313 144c23.333 0 47.334 3.66504 72.001 10.998s45 17 61 29v-154c-20.667 -12 -46.334 -21.333 -77.001 -28s-59.667 -10 -87 -10c-38 0 -73 6.5 -105 19.5s-59.667 30.833 -83 53.5s-41.5 49.334 -54.5 80.001s-19.5 63.334 -19.5 98.001s6.5 67.167 19.5 97.5
s31.167 56.833 54.5 79.5s51 40.5 83 53.5s67 19.5 105 19.5c34.667 0 66.167 -6.5 94.5 -19.5s52.5 -30.667 72.5 -53s35.5 -48.833 46.5 -79.5s16.5 -63.334 16.5 -98.001v-36h-300c6.66699 -17.333 18.167 -32.166 34.5 -44.499s38.5 -18.5 66.5 -18.5zM334.001 307.998
c-3.33301 9.33301 -9.83301 18 -19.5 26s-20.5 12 -32.5 12c-18.667 0 -33 -3.5 -43 -10.5s-17.667 -16.167 -23 -27.5h118zM187.001 516.998h-129l92 200h232l92 -200h-129l-79 118z" />
    <glyph glyph-name="edieresis" unicode="&#xeb;" horiz-adv-x="532" 
d="M313 144c23.333 0 47.334 3.66504 72.001 10.998s45 17 61 29v-154c-20.667 -12 -46.334 -21.333 -77.001 -28s-59.667 -10 -87 -10c-38 0 -73 6.5 -105 19.5s-59.667 30.833 -83 53.5s-41.5 49.334 -54.5 80.001s-19.5 63.334 -19.5 98.001s6.5 67.167 19.5 97.5
s31.167 56.833 54.5 79.5s51 40.5 83 53.5s67 19.5 105 19.5c34.667 0 66.167 -6.5 94.5 -19.5s52.5 -30.667 72.5 -53s35.5 -48.833 46.5 -79.5s16.5 -63.334 16.5 -98.001v-36h-300c6.66699 -17.333 18.167 -32.166 34.5 -44.499s38.5 -18.5 66.5 -18.5zM334.001 307.998
c-3.33301 9.33301 -9.83301 18 -19.5 26s-20.5 12 -32.5 12c-18.667 0 -33 -3.5 -43 -10.5s-17.667 -16.167 -23 -27.5h118zM96.001 716.998h128v-128h-128v128zM307.001 716.998h128v-128h-128v128z" />
    <glyph glyph-name="igrave" unicode="&#xec;" horiz-adv-x="302" 
d="M47 0v483h210v-483h-210zM20 717h171l92 -200h-129z" />
    <glyph glyph-name="iacute" unicode="&#xed;" horiz-adv-x="302" 
d="M46 0v483h210v-483h-210zM148 517h-129l92 200h171z" />
    <glyph glyph-name="icircumflex" unicode="&#xee;" horiz-adv-x="450" 
d="M120 0v483h210v-483h-210zM146 517h-129l92 200h232l92 -200h-129l-79 118z" />
    <glyph glyph-name="idieresis" unicode="&#xef;" horiz-adv-x="381" 
d="M86 0v483h210v-483h-210zM21 717h128v-128h-128v128zM232 717h128v-128h-128v128z" />
    <glyph glyph-name="eth" unicode="&#xf0;" horiz-adv-x="624" 
d="M159 574l77 27.001l-40 50.5l-40 48.5h243l14 -15.5l14 -15.5l95 33l27 -79l-68 -24c17.333 -25.333 33.333 -52 48 -80s27.5 -56.333 38.5 -85s19.667 -57.5 26 -86.5s9.5 -57.167 9.5 -84.5c0 -42.667 -8 -80.334 -24 -113.001s-37.5 -60.167 -64.5 -82.5
s-58.333 -39.166 -94 -50.499s-73.5 -17 -113.5 -17s-77.5 5.66699 -112.5 17s-65.5 28.166 -91.5 50.499s-46.5 49.833 -61.5 82.5s-22.5 70.334 -22.5 113.001c0 32.667 5.66699 62.167 17 88.5s26.666 48.666 45.999 66.999s42 32.5 68 42.5s54 15 84 15
c12 0 22 -0.5 30 -1.5s15 -2.16699 21 -3.5s11.333 -2.83301 16 -4.5s9.33398 -3.16699 14.001 -4.5c-8.66699 24.667 -18.667 47 -30 67l-98 -34zM360 262.001c0 15.333 -5.33301 28.666 -16 39.999s-23.334 17 -38.001 17c-15.333 0 -28.166 -5.66699 -38.499 -17
s-15.5 -24.666 -15.5 -39.999s5.16699 -28.666 15.5 -39.999s23.166 -17 38.499 -17c14.667 0 27.334 5.66699 38.001 17s16 24.666 16 39.999z" />
    <glyph glyph-name="ntilde" unicode="&#xf1;" horiz-adv-x="543" 
d="M22 0v483.003h210v-36c6 3.33301 12.667 7.66602 20 12.999s16.333 10.5 27 15.5s23.667 9.16699 39 12.5s34 5 56 5c31.333 0 56.666 -6.66699 75.999 -20s34.333 -30.833 45 -52.5s17.834 -46.334 21.501 -74.001s5.5 -55.5 5.5 -83.5v-263h-210v263
c0 9.33301 -3.5 17.333 -10.5 24s-14.5 10 -22.5 10c-10 0 -18 -2 -24 -6s-10.833 -9.33301 -14.5 -16s-6 -13.834 -7 -21.501s-1.5 -15.5 -1.5 -23.5v-230h-210zM436 701.003c0 -19.333 -2.66602 -37.666 -7.99902 -54.999s-12.833 -32.333 -22.5 -45
s-20.834 -22.667 -33.501 -30s-26.334 -11 -41.001 -11c-14 0 -27.333 3.66699 -40 11l-90 54c-8 3.33301 -15.333 5 -22 5c-12 0 -22.5 -5 -31.5 -15s-14.833 -22.667 -17.5 -38h-22c0 20 2.66699 38.5 8 55.5s12.833 31.667 22.5 44s20.834 22.166 33.501 29.499
s26.334 11 41.001 11c15.333 0 28.666 -3.33301 39.999 -10l90 -54c8 -3.33301 15.333 -5 22 -5c12 0 22.5 4.83301 31.5 14.5s14.833 22.5 17.5 38.5h22z" />
    <glyph glyph-name="ograve" unicode="&#xf2;" horiz-adv-x="562" 
d="M18 241c0 34.667 6.83301 67.5 20.5 98.5s32.334 57.833 56.001 80.5s51.5 40.667 83.5 54s66.333 20 103 20s71 -6.66699 103 -20s60 -31.333 84 -54s42.833 -49.5 56.5 -80.5s20.5 -63.833 20.5 -98.5c0 -35.333 -6.83301 -68.166 -20.5 -98.499s-32.5 -57 -56.5 -80
s-52 -41 -84 -54s-66.333 -19.5 -103 -19.5s-71 6.5 -103 19.5s-59.833 31 -83.5 54s-42.334 49.667 -56.001 80s-20.5 63.166 -20.5 98.499zM228 241c0 -19.333 4.16699 -35.333 12.5 -48s21.833 -19 40.5 -19c18 0 31.5 6.33301 40.5 19s13.5 28.667 13.5 48
c0 18.667 -4.5 34.667 -13.5 48s-22.5 20 -40.5 20c-18.667 0 -32.167 -6.66699 -40.5 -20s-12.5 -29.333 -12.5 -48zM150 717h171l92 -200h-129z" />
    <glyph glyph-name="oacute" unicode="&#xf3;" horiz-adv-x="562" 
d="M17 241c0 34.667 6.83301 67.5 20.5 98.5s32.334 57.833 56.001 80.5s51.5 40.667 83.5 54s66.333 20 103 20s71 -6.66699 103 -20s60 -31.333 84 -54s42.833 -49.5 56.5 -80.5s20.5 -63.833 20.5 -98.5c0 -35.333 -6.83301 -68.166 -20.5 -98.499s-32.5 -57 -56.5 -80
s-52 -41 -84 -54s-66.333 -19.5 -103 -19.5s-71 6.5 -103 19.5s-59.833 31 -83.5 54s-42.334 49.667 -56.001 80s-20.5 63.166 -20.5 98.499zM227 241c0 -19.333 4.16699 -35.333 12.5 -48s21.833 -19 40.5 -19c18 0 31.5 6.33301 40.5 19s13.5 28.667 13.5 48
c0 18.667 -4.5 34.667 -13.5 48s-22.5 20 -40.5 20c-18.667 0 -32.167 -6.66699 -40.5 -20s-12.5 -29.333 -12.5 -48zM278 517h-129l92 200h171z" />
    <glyph glyph-name="ocircumflex" unicode="&#xf4;" horiz-adv-x="565" 
d="M19 241c0 34.667 6.83301 67.5 20.5 98.5s32.334 57.833 56.001 80.5s51.5 40.667 83.5 54s66.333 20 103 20s71 -6.66699 103 -20s60 -31.333 84 -54s42.833 -49.5 56.5 -80.5s20.5 -63.833 20.5 -98.5c0 -35.333 -6.83301 -68.166 -20.5 -98.499s-32.5 -57 -56.5 -80
s-52 -41 -84 -54s-66.333 -19.5 -103 -19.5s-71 6.5 -103 19.5s-59.833 31 -83.5 54s-42.334 49.667 -56.001 80s-20.5 63.166 -20.5 98.499zM229 241c0 -19.333 4.16699 -35.333 12.5 -48s21.833 -19 40.5 -19c18 0 31.5 6.33301 40.5 19s13.5 28.667 13.5 48
c0 18.667 -4.5 34.667 -13.5 48s-22.5 20 -40.5 20c-18.667 0 -32.167 -6.66699 -40.5 -20s-12.5 -29.333 -12.5 -48zM204 517h-129l92 200h232l92 -200h-129l-79 118z" />
    <glyph glyph-name="otilde" unicode="&#xf5;" horiz-adv-x="565" 
d="M19 241c0 34.667 6.83301 67.5 20.5 98.5s32.334 57.833 56.001 80.5s51.5 40.667 83.5 54s66.333 20 103 20s71 -6.66699 103 -20s60 -31.333 84 -54s42.833 -49.5 56.5 -80.5s20.5 -63.833 20.5 -98.5c0 -35.333 -6.83301 -68.166 -20.5 -98.499s-32.5 -57 -56.5 -80
s-52 -41 -84 -54s-66.333 -19.5 -103 -19.5s-71 6.5 -103 19.5s-59.833 31 -83.5 54s-42.334 49.667 -56.001 80s-20.5 63.166 -20.5 98.499zM229 241c0 -19.333 4.16699 -35.333 12.5 -48s21.833 -19 40.5 -19c18 0 31.5 6.33301 40.5 19s13.5 28.667 13.5 48
c0 18.667 -4.5 34.667 -13.5 48s-22.5 20 -40.5 20c-18.667 0 -32.167 -6.66699 -40.5 -20s-12.5 -29.333 -12.5 -48zM446 701c0 -19.333 -2.66602 -37.666 -7.99902 -54.999s-12.833 -32.333 -22.5 -45s-20.834 -22.667 -33.501 -30s-26.334 -11 -41.001 -11
c-14 0 -27.333 3.66699 -40 11l-90 54c-8 3.33301 -15.333 5 -22 5c-12 0 -22.5 -5 -31.5 -15s-14.833 -22.667 -17.5 -38h-22c0 20 2.66699 38.5 8 55.5s12.833 31.667 22.5 44s20.834 22.166 33.501 29.499s26.334 11 41.001 11c15.333 0 28.666 -3.33301 39.999 -10
l90 -54c8 -3.33301 15.333 -5 22 -5c12 0 22.5 4.83301 31.5 14.5s14.833 22.5 17.5 38.5h22z" />
    <glyph glyph-name="odieresis" unicode="&#xf6;" horiz-adv-x="567" 
d="M20 241c0 34.667 6.83301 67.5 20.5 98.5s32.334 57.833 56.001 80.5s51.5 40.667 83.5 54s66.333 20 103 20s71 -6.66699 103 -20s60 -31.333 84 -54s42.833 -49.5 56.5 -80.5s20.5 -63.833 20.5 -98.5c0 -35.333 -6.83301 -68.166 -20.5 -98.499s-32.5 -57 -56.5 -80
s-52 -41 -84 -54s-66.333 -19.5 -103 -19.5s-71 6.5 -103 19.5s-59.833 31 -83.5 54s-42.334 49.667 -56.001 80s-20.5 63.166 -20.5 98.499zM230 241c0 -19.333 4.16699 -35.333 12.5 -48s21.833 -19 40.5 -19c18 0 31.5 6.33301 40.5 19s13.5 28.667 13.5 48
c0 18.667 -4.5 34.667 -13.5 48s-22.5 20 -40.5 20c-18.667 0 -32.167 -6.66699 -40.5 -20s-12.5 -29.333 -12.5 -48zM114 717h128v-128h-128v128zM325 717h128v-128h-128v128z" />
    <glyph glyph-name="divide" unicode="&#xf7;" horiz-adv-x="447" 
d="M118 97c0 14.667 2.66699 28.334 8 41.001s12.833 23.667 22.5 33s20.834 16.833 33.501 22.5s26.334 8.5 41.001 8.5s28.334 -2.83301 41.001 -8.5s23.667 -13.167 33 -22.5s16.833 -20.333 22.5 -33s8.5 -26.334 8.5 -41.001s-2.83301 -28.334 -8.5 -41.001
s-13.167 -23.834 -22.5 -33.501s-20.333 -17.167 -33 -22.5s-26.334 -8 -41.001 -8s-28.334 2.66699 -41.001 8s-23.834 12.833 -33.501 22.5s-17.167 20.834 -22.5 33.501s-8 26.334 -8 41.001zM118 526c0 14.667 2.66699 28.334 8 41.001s12.833 23.667 22.5 33
s20.834 16.833 33.501 22.5s26.334 8.5 41.001 8.5s28.334 -2.83301 41.001 -8.5s23.667 -13.167 33 -22.5s16.833 -20.333 22.5 -33s8.5 -26.334 8.5 -41.001s-2.83301 -28.334 -8.5 -41.001s-13.167 -23.834 -22.5 -33.501s-20.333 -17.167 -33 -22.5
s-26.334 -8 -41.001 -8s-28.334 2.66699 -41.001 8s-23.834 12.833 -33.501 22.5s-17.167 20.834 -22.5 33.501s-8 26.334 -8 41.001zM16 225v172h415v-172h-415z" />
    <glyph glyph-name="oslash" unicode="&#xf8;" horiz-adv-x="565" 
d="M113 -50l33 74c-38 22 -68.667 52 -92 90s-35 80.333 -35 127c0 34.667 6.83301 67.5 20.5 98.5s32.334 57.833 56.001 80.5s51.5 40.667 83.5 54s66.333 20 103 20c24 0 47 -3 69 -9l22 48h80l-34 -76c38 -22.667 68.667 -52.834 92 -90.501s35 -79.5 35 -125.5
c0 -35.333 -6.83301 -68.166 -20.5 -98.499s-32.5 -57 -56.5 -80s-52 -41 -84 -54s-66.333 -19.5 -103 -19.5c-24.667 0 -47.334 3 -68.001 9l-21 -48h-80zM229 241v-13.499c0 -4.33301 0.666992 -8.16602 2 -11.499l41 92c-15.333 -2.66699 -26.333 -10.334 -33 -23.001
s-10 -27.334 -10 -44.001zM336 241.001c0 8 -1 16 -3 24l-40 -90c14.667 2.66699 25.5 10 32.5 22s10.5 26.667 10.5 44z" />
    <glyph glyph-name="ugrave" unicode="&#xf9;" horiz-adv-x="540" 
d="M520 482v-483.003h-210v36c-6 -3.33301 -12.667 -7.66602 -20 -12.999s-16.333 -10.5 -27 -15.5s-23.667 -9.16699 -39 -12.5s-34 -5 -56 -5c-31.333 0 -56.666 6.66699 -75.999 20s-34.333 30.833 -45 52.5s-17.834 46.334 -21.501 74.001s-5.5 55.5 -5.5 83.5v263h210
v-263c0 -9.33301 3.5 -17.333 10.5 -24s14.5 -10 22.5 -10c10 0 18 2 24 6s10.833 9.33301 14.5 16s6 13.834 7 21.501s1.5 15.5 1.5 23.5v230h210zM138 716.997h171l92 -200h-129z" />
    <glyph glyph-name="uacute" unicode="&#xfa;" horiz-adv-x="541" 
d="M520 482v-483.003h-210v36c-6 -3.33301 -12.667 -7.66602 -20 -12.999s-16.333 -10.5 -27 -15.5s-23.667 -9.16699 -39 -12.5s-34 -5 -56 -5c-31.333 0 -56.666 6.66699 -75.999 20s-34.333 30.833 -45 52.5s-17.834 46.334 -21.501 74.001s-5.5 55.5 -5.5 83.5v263h210
v-263c0 -9.33301 3.5 -17.333 10.5 -24s14.5 -10 22.5 -10c10 0 18 2 24 6s10.833 9.33301 14.5 16s6 13.834 7 21.501s1.5 15.5 1.5 23.5v230h210zM268 516.997h-129l92 200h171z" />
    <glyph glyph-name="ucircumflex" unicode="&#xfb;" horiz-adv-x="544" 
d="M522 482v-483.003h-210v36c-6 -3.33301 -12.667 -7.66602 -20 -12.999s-16.333 -10.5 -27 -15.5s-23.667 -9.16699 -39 -12.5s-34 -5 -56 -5c-31.333 0 -56.666 6.66699 -75.999 20s-34.333 30.833 -45 52.5s-17.834 46.334 -21.501 74.001s-5.5 55.5 -5.5 83.5v263h210
v-263c0 -9.33301 3.5 -17.333 10.5 -24s14.5 -10 22.5 -10c10 0 18 2 24 6s10.833 9.33301 14.5 16s6 13.834 7 21.501s1.5 15.5 1.5 23.5v230h210zM193 516.997h-129l92 200h232l92 -200h-129l-79 118z" />
    <glyph glyph-name="udieresis" unicode="&#xfc;" horiz-adv-x="545" 
d="M522 482v-483.003h-210v36c-6 -3.33301 -12.667 -7.66602 -20 -12.999s-16.333 -10.5 -27 -15.5s-23.667 -9.16699 -39 -12.5s-34 -5 -56 -5c-31.333 0 -56.666 6.66699 -75.999 20s-34.333 30.833 -45 52.5s-17.834 46.334 -21.501 74.001s-5.5 55.5 -5.5 83.5v263h210
v-263c0 -9.33301 3.5 -17.333 10.5 -24s14.5 -10 22.5 -10c10 0 18 2 24 6s10.833 9.33301 14.5 16s6 13.834 7 21.501s1.5 15.5 1.5 23.5v230h210zM102 716.997h128v-128h-128v128zM313 716.997h128v-128h-128v128z" />
    <glyph glyph-name="yacute" unicode="&#xfd;" horiz-adv-x="563" 
d="M141 -180l52 180l-178 483h210l56 -226l57 226h210l-219 -663h-188zM279 517h-129l92 200h171z" />
    <glyph glyph-name="thorn" unicode="&#xfe;" horiz-adv-x="565" 
d="M233 -180l-207.997 0.00195312v880h208v-250c15.333 15.333 32.666 26.666 51.999 33.999s39.333 11 60 11c28.667 0 55.667 -6.5 81 -19.5s47.333 -31 66 -54s33.5 -50 44.5 -81s16.5 -64.167 16.5 -99.5c0 -36 -5.5 -69.167 -16.5 -99.5s-25.833 -56.5 -44.5 -78.5
s-40.667 -39.333 -66 -52s-52.333 -19 -81 -19c-20.667 0 -40.834 3.16699 -60.501 9.5s-36.834 17.166 -51.501 32.499v-214zM232.003 241.002c0 -19.333 4.16699 -35.5 12.5 -48.5s21.833 -19.5 40.5 -19.5c18 0 31.333 6.5 40 19.5s13 29.167 13 48.5
s-4.33301 35.666 -13 48.999s-22 20 -40 20c-18.667 0 -32.167 -6.66699 -40.5 -20s-12.5 -29.666 -12.5 -48.999z" />
    <glyph glyph-name="ydieresis" unicode="&#xff;" horiz-adv-x="565" 
d="M142 -180l52 180l-178 483h210l56 -226l57 226h210l-219 -663h-188zM113 717h128v-128h-128v128zM324 717h128v-128h-128v128z" />
    <glyph glyph-name="dotlessi" unicode="&#x131;" horiz-adv-x="260" 
d="M25 0v483h210v-483h-210z" />
    <glyph glyph-name="Lslash" unicode="&#x141;" horiz-adv-x="535" 
d="M21 160v178l57 30v332h256v-197l58 31v-196l-58 -28v-107h184v-203h-440v187z" />
    <glyph glyph-name="lslash" unicode="&#x142;" horiz-adv-x="407" 
d="M97 0v198l-79 -38v178l79 41v321h210v-210l82 44v-196l-82 -40v-298h-210z" />
    <glyph glyph-name="OE" unicode="&#x152;" horiz-adv-x="878" 
d="M388 -16c-52.667 0 -101.501 9.49805 -146.501 28.498s-83.833 45 -116.5 78s-58.167 71.833 -76.5 116.5s-27.5 92.334 -27.5 143.001s9.16699 98.334 27.5 143.001s43.833 83.5 76.5 116.5s71.5 59.167 116.5 78.5s93.833 29 146.5 29
c39.333 0 77.666 -5.66699 114.999 -17h341v-203h-200v-58h184v-171h-184v-65h210v-203h-356c-17.333 -5.33301 -35.166 -9.33301 -53.499 -12s-37.166 -4 -56.499 -4zM280.999 349.998c0 -17.333 2.16699 -33.668 6.5 -49.001s10.833 -28.666 19.5 -39.999
s19.834 -20.333 33.501 -27s29.5 -10 47.5 -10v253c-18 0 -33.833 -3.33301 -47.5 -10s-24.834 -15.834 -33.501 -27.501s-15.167 -25.167 -19.5 -40.5s-6.5 -31.666 -6.5 -48.999z" />
    <glyph glyph-name="oe" unicode="&#x153;" horiz-adv-x="875" 
d="M654 144c23.333 0 47.332 3.66895 71.999 11.002s45 17 61 29v-154c-20.667 -12 -46.334 -21.333 -77.001 -28s-59.667 -10 -87 -10c-33.333 0 -64.166 5 -92.499 15s-53.5 23.667 -75.5 41c-23.333 -18.667 -49.333 -33.167 -78 -43.5s-59.334 -15.5 -92.001 -15.5
c-36.667 0 -71 6.5 -103 19.5s-59.833 31 -83.5 54s-42.334 49.667 -56.001 80s-20.5 63.166 -20.5 98.499c0 34.667 6.83301 67.5 20.5 98.5s32.334 57.833 56.001 80.5s51.5 40.667 83.5 54s66.333 20 103 20c32 0 62.333 -5.16699 91 -15.5s54.334 -24.5 77.001 -42.5
c22.667 17.333 48.334 31.166 77.001 41.499s59.667 15.5 93 15.5c34.667 0 66.167 -6.5 94.5 -19.5s52.5 -30.667 72.5 -53s35.5 -48.833 46.5 -79.5s16.5 -63.334 16.5 -98.001v-36h-300c6.66699 -17.333 18.167 -32.166 34.5 -44.499s38.5 -18.5 66.5 -18.5z
M231.999 241.002c0 -19.333 4.16699 -35.333 12.5 -48s21.833 -19 40.5 -19c18 0 31.5 6.33301 40.5 19s13.5 28.667 13.5 48c0 18.667 -4.5 34.667 -13.5 48s-22.5 20 -40.5 20c-18.667 0 -32.167 -6.66699 -40.5 -20s-12.5 -29.333 -12.5 -48zM674.999 308.002
c-3.33301 9.33301 -9.83301 18 -19.5 26s-20.5 12 -32.5 12c-18.667 0 -33 -3.5 -43 -10.5s-17.667 -16.167 -23 -27.5h118z" />
    <glyph glyph-name="Scaron" unicode="&#x160;" horiz-adv-x="573" 
d="M226 189c23.333 0 38.832 3 46.499 9s11.5 13 11.5 21c0 10.667 -6.5 19 -19.5 25s-29.167 12 -48.5 18s-40.5 13.167 -63.5 21.5s-44.167 20.5 -63.5 36.5s-35.5 36.667 -48.5 62s-19.5 58.333 -19.5 99c0 45.333 9 83 27 113s40.5 54 67.5 72s56.333 30.667 88 38
s61.5 11 89.5 11c19.333 0 38.666 -0.833008 57.999 -2.5s38.666 -5 57.999 -10s38.833 -12.167 58.5 -21.5s39.5 -22 59.5 -38v-203c-36.667 26 -70.5 43.333 -101.5 52s-60.167 13 -87.5 13c-2.66699 0 -6.66699 -0.333008 -12 -1s-10.666 -1.83398 -15.999 -3.50098
s-10 -4 -14 -7s-6 -7.16699 -6 -12.5c0 -9.33301 4.83301 -16.5 14.5 -21.5s22.334 -9.5 38.001 -13.5s33 -8.16699 52 -12.5s38.167 -10.833 57.5 -19.5c29.333 -12.667 53.333 -33.5 72 -62.5s28 -62.5 28 -100.5c0 -45.333 -8.16699 -84.666 -24.5 -117.999
s-38.166 -61 -65.499 -83s-59.166 -38.5 -95.499 -49.5s-74.5 -16.5 -114.5 -16.5c-14 0 -30.167 0.666992 -48.5 2s-37.333 4.5 -57 9.5s-39.334 12.333 -59.001 22s-37.834 22.834 -54.501 39.501v227c8.66699 -8.66699 19.834 -18.5 33.501 -29.5s29 -21.333 46 -31
s35.167 -17.834 54.5 -24.501s39 -10 59 -10zM286.999 832l79 118h129l-92 -200h-232l-92 200h129z" />
    <glyph glyph-name="scaron" unicode="&#x161;" horiz-adv-x="459" 
d="M165 137c17.333 0 28.999 2.16895 34.999 6.50195s9 9.16602 9 14.499c0 7.33301 -4.33301 13 -13 17s-19.667 7.66699 -33 11s-27.666 7.66602 -42.999 12.999s-29.666 13.166 -42.999 23.499s-24.333 24 -33 41s-13 39.5 -13 67.5c0 31.333 6.66699 57.333 20 78
s30.166 37.167 50.499 49.5s42.333 21 66 26s45.834 7.5 66.501 7.5c28.667 0 57.5 -2.83301 86.5 -8.5s58.5 -19.167 88.5 -40.5v-140c-28 18 -50.333 29.5 -67 34.5s-30.667 7.5 -42 7.5c-2 0 -4.83301 -0.166992 -8.5 -0.5s-7.5 -1.16602 -11.5 -2.49902
s-7.5 -3 -10.5 -5s-4.5 -5 -4.5 -9c0 -6.66699 1.83301 -11.5 5.5 -14.5s9.33398 -5.66699 17.001 -8s17 -4.83301 28 -7.5s23.5 -7 37.5 -13c21.333 -8.66699 39.166 -23 53.499 -43s21.5 -43 21.5 -69c0 -31.333 -6.16699 -58.5 -18.5 -81.5s-28.666 -42 -48.999 -57
s-44 -26.333 -71 -34s-55.5 -11.5 -85.5 -11.5c-10.667 0 -22.834 0.5 -36.501 1.5s-28 3.16699 -43 6.5s-29.833 8.33301 -44.5 15s-28.334 15.667 -41.001 27v152c15.333 -14 33 -26.5 53 -37.5s44.333 -16.5 73 -16.5zM229.999 599.002l79 118h129l-92 -200h-232l-92 200
h129z" />
    <glyph glyph-name="Ydieresis" unicode="&#x178;" horiz-adv-x="747" 
d="M15 701h256l103 -206l103 206h256l-231 -415v-286h-256v286zM204 878h128v-128h-128v128zM415 878h128v-128h-128v128z" />
    <glyph glyph-name="Zcaron" unicode="&#x17d;" horiz-adv-x="617" 
d="M58 497v203h529l-216 -497h225v-203h-576l215 497h-177zM308 831l79 118h129l-92 -200h-232l-92 200h129z" />
    <glyph glyph-name="zcaron" unicode="&#x17e;" horiz-adv-x="461" 
d="M46 310v172h376l-134 -310h143v-172h-402l133 310h-116zM230 599l79 118h129l-92 -200h-232l-92 200h129z" />
    <glyph glyph-name="florin" unicode="&#x192;" horiz-adv-x="415" 
d="M36 -197c7.33301 2.66699 14.165 7.16699 20.498 13.5s12 13.5 17 21.5s9 16.333 12 25s4.5 17 4.5 25v423h-72v172h72v17c0 38 5 70.333 15 97s24.167 48.167 42.5 64.5s40.333 28.333 66 36s53.834 11.5 84.501 11.5c17.333 0 34 -2.16699 50 -6.5s32 -9.5 48 -15.5
v-171c-8.66699 2.66699 -18.5 6 -29.5 10s-20.833 6 -29.5 6c-10 0 -18.667 -2.66699 -26 -8s-11 -13.333 -11 -24v-17h79v-172h-79v-423c0 -8 -1.5 -16.333 -4.5 -25s-7 -17 -12 -25s-10.667 -15.167 -17 -21.5s-13.166 -10.833 -20.499 -13.5h-210z" />
    <glyph glyph-name="circumflex" unicode="&#x2c6;" horiz-adv-x="456" 
d="M149 500h-129l92 200h232l92 -200h-129l-79 118z" />
    <glyph glyph-name="caron" unicode="&#x2c7;" horiz-adv-x="456" 
d="M228 582l79 118h129l-92 -200h-232l-92 200h129z" />
    <glyph glyph-name="breve" unicode="&#x2d8;" horiz-adv-x="378" 
d="M65 700c0 -13.333 4.83301 -24.666 14.5 -33.999s21.167 -14 34.5 -14h150c13.333 0 24.833 4.66699 34.5 14s14.5 20.666 14.5 33.999h42v-48c0 -15.333 -2.83301 -29.666 -8.5 -42.999s-13.5 -24.833 -23.5 -34.5s-21.667 -17.334 -35 -23.001s-27.333 -8.5 -42 -8.5
h-114c-15.333 0 -29.666 2.83301 -42.999 8.5s-24.833 13.334 -34.5 23.001s-17.334 21.167 -23.001 34.5s-8.5 27.666 -8.5 42.999v48h42z" />
    <glyph glyph-name="dotaccent" unicode="&#x2d9;" horiz-adv-x="178" 
d="M25 700h128v-128h-128v128z" />
    <glyph glyph-name="ring" unicode="&#x2da;" horiz-adv-x="229" 
d="M114 514c-12.667 0 -24.667 2.5 -36 7.5s-21.166 11.667 -29.499 20s-15 18.166 -20 29.499s-7.5 23.333 -7.5 36s2.5 24.667 7.5 36s11.667 21.166 20 29.499s18.166 15 29.499 20s23.333 7.5 36 7.5s24.834 -2.5 36.501 -7.5s21.667 -11.667 30 -20
s15 -18.166 20 -29.499s7.5 -23.333 7.5 -36s-2.5 -24.667 -7.5 -36s-11.667 -21.166 -20 -29.499s-18.333 -15 -30 -20s-23.834 -7.5 -36.501 -7.5zM95 607c0 -5.33301 1.83301 -9.83301 5.5 -13.5s8.16699 -5.5 13.5 -5.5s9.83301 1.83301 13.5 5.5s5.5 8.16699 5.5 13.5
s-1.83301 9.83301 -5.5 13.5s-8.16699 5.5 -13.5 5.5s-9.83301 -1.83301 -13.5 -5.5s-5.5 -8.16699 -5.5 -13.5z" />
    <glyph glyph-name="ogonek" unicode="&#x2db;" horiz-adv-x="235" 
d="M176 0c-12.667 -10 -25.167 -21.6689 -37.5 -35.002s-18.5 -29.666 -18.5 -48.999s6 -33.333 18 -42s25 -13 39 -13c7.33301 0 14.333 1 21 3s13 4.66699 19 8v-49c-15.333 -7.33301 -30 -12.166 -44 -14.499s-29.667 -3.5 -47 -3.5c-19.333 0 -35.666 2.66699 -48.999 8
s-24.333 12.166 -33 20.499s-14.834 17.5 -18.501 27.5s-5.5 19.667 -5.5 29c0 16 3.5 29.833 10.5 41.5s15.667 21.834 26 30.501s21.333 16 33 22l31.5 16h55z" />
    <glyph glyph-name="tilde" unicode="&#x2dc;" horiz-adv-x="370" 
d="M349 701c0 -19.333 -2.66602 -37.666 -7.99902 -54.999s-12.833 -32.333 -22.5 -45s-20.834 -22.667 -33.501 -30s-26.334 -11 -41.001 -11c-14 0 -27.333 3.66699 -40 11l-90 54c-8 3.33301 -15.333 5 -22 5c-12 0 -22.5 -5 -31.5 -15s-14.833 -22.667 -17.5 -38h-22
c0 20 2.66699 38.5 8 55.5s12.833 31.667 22.5 44s20.834 22.166 33.501 29.499s26.334 11 41.001 11c15.333 0 28.666 -3.33301 39.999 -10l90 -54c8 -3.33301 15.333 -5 22 -5c12 0 22.5 4.83301 31.5 14.5s14.833 22.5 17.5 38.5h22z" />
    <glyph glyph-name="hungarumlaut" unicode="&#x2dd;" horiz-adv-x="524" 
d="M150 500h-129l92 200h171zM371 500h-129l92 200h171z" />
    <glyph glyph-name="Delta" unicode="&#x394;" 
 />
    <glyph glyph-name="Delta" unicode="&#x2206;" 
 />
    <glyph glyph-name="Omega" unicode="&#x3a9;" 
 />
    <glyph glyph-name="Omega" unicode="&#x2126;" 
 />
    <glyph glyph-name="pi" unicode="&#x3c0;" horiz-adv-x="309" 
 />
    <glyph glyph-name="endash" unicode="&#x2013;" horiz-adv-x="424" 
d="M25 225v172h374v-172h-374z" />
    <glyph glyph-name="emdash" unicode="&#x2014;" horiz-adv-x="590" 
d="M25 225v172h540v-172h-540z" />
    <glyph glyph-name="quoteleft" unicode="&#x2018;" horiz-adv-x="250" 
d="M86 717h128.003l-39 -104c16 -9.33301 29 -22 39 -38s15 -34 15 -54c0 -14.667 -2.83301 -28.334 -8.5 -41.001s-13.167 -23.834 -22.5 -33.501s-20.333 -17.167 -33 -22.5s-26.334 -8 -41.001 -8s-28.334 2.66699 -41.001 8s-23.834 12.833 -33.501 22.5
s-17.167 20.834 -22.5 33.501s-8 26.334 -8 41.001c0 12 2.33301 24.333 7 37z" />
    <glyph glyph-name="quoteright" unicode="&#x2019;" horiz-adv-x="250" 
d="M164 416h-128.003l39 104c-16 9.33301 -29 22 -39 38s-15 34 -15 54c0 14.667 2.66699 28.334 8 41.001s12.833 23.667 22.5 33s20.834 16.833 33.501 22.5s26.334 8.5 41.001 8.5s28.334 -2.83301 41.001 -8.5s23.667 -13.167 33 -22.5s16.833 -20.333 22.5 -33
s8.5 -26.334 8.5 -41.001c0 -12 -2.33301 -24.333 -7 -37z" />
    <glyph glyph-name="quotesinglbase" unicode="&#x201a;" horiz-adv-x="250" 
d="M150 -138h-128.003l54 143c-16 9.33301 -29 22 -39 38s-15 34 -15 54c0 14.667 2.66699 28.334 8 41.001s12.833 23.667 22.5 33s20.834 16.833 33.501 22.5s26.334 8.5 41.001 8.5s28.334 -2.83301 41.001 -8.5s23.667 -13.167 33 -22.5s16.833 -20.333 22.5 -33
s8.5 -26.334 8.5 -41.001c0 -12 -2.33301 -24.333 -7 -37z" />
    <glyph glyph-name="quotedblleft" unicode="&#x201c;" horiz-adv-x="512" 
d="M89 717h128.003l-39 -104c16 -9.33301 29 -22 39 -38s15 -34 15 -54c0 -14.667 -2.83301 -28.334 -8.5 -41.001s-13.167 -23.834 -22.5 -33.501s-20.333 -17.167 -33 -22.5s-26.334 -8 -41.001 -8s-28.334 2.66699 -41.001 8s-23.834 12.833 -33.501 22.5
s-17.167 20.834 -22.5 33.501s-8 26.334 -8 41.001c0 12 2.33301 24.333 7 37zM346.003 717h128.003l-39 -104c16 -9.33301 29 -22 39 -38s15 -34 15 -54c0 -14.667 -2.83301 -28.334 -8.5 -41.001s-13.167 -23.834 -22.5 -33.501s-20.333 -17.167 -33 -22.5
s-26.334 -8 -41.001 -8s-28.334 2.66699 -41.001 8s-23.834 12.833 -33.501 22.5s-17.167 20.834 -22.5 33.501s-8 26.334 -8 41.001c0 12 2.33301 24.333 7 37z" />
    <glyph glyph-name="quotedblright" unicode="&#x201d;" horiz-adv-x="512" 
d="M423 416h-128.003l39 104c-16 9.33301 -29 22 -39 38s-15 34 -15 54c0 14.667 2.66699 28.334 8 41.001s12.833 23.667 22.5 33s20.834 16.833 33.501 22.5s26.334 8.5 41.001 8.5s28.334 -2.83301 41.001 -8.5s23.667 -13.167 33 -22.5s16.833 -20.333 22.5 -33
s8.5 -26.334 8.5 -41.001c0 -12 -2.33301 -24.333 -7 -37zM165.997 416h-128.003l39 104c-16 9.33301 -29 22 -39 38s-15 34 -15 54c0 14.667 2.66699 28.334 8 41.001s12.833 23.667 22.5 33s20.834 16.833 33.501 22.5s26.334 8.5 41.001 8.5s28.334 -2.83301 41.001 -8.5
s23.667 -13.167 33 -22.5s16.833 -20.333 22.5 -33s8.5 -26.334 8.5 -41.001c0 -12 -2.33301 -24.333 -7 -37z" />
    <glyph glyph-name="quotedblbase" unicode="&#x201e;" horiz-adv-x="513" 
d="M151 -138h-128.003l54 143c-16 9.33301 -29 22 -39 38s-15 34 -15 54c0 14.667 2.66699 28.334 8 41.001s12.833 23.667 22.5 33s20.834 16.833 33.501 22.5s26.334 8.5 41.001 8.5s28.334 -2.83301 41.001 -8.5s23.667 -13.167 33 -22.5s16.833 -20.333 22.5 -33
s8.5 -26.334 8.5 -41.001c0 -12 -2.33301 -24.333 -7 -37zM408.997 -138h-128.003l54 143c-16 9.33301 -29 22 -39 38s-15 34 -15 54c0 14.667 2.66699 28.334 8 41.001s12.833 23.667 22.5 33s20.834 16.833 33.501 22.5s26.334 8.5 41.001 8.5
s28.334 -2.83301 41.001 -8.5s23.667 -13.167 33 -22.5s16.833 -20.333 22.5 -33s8.5 -26.334 8.5 -41.001c0 -12 -2.33301 -24.333 -7 -37z" />
    <glyph glyph-name="dagger" unicode="&#x2020;" horiz-adv-x="417" 
d="M130 -180v491h-116v172h116v234h156v-234h117v-172h-117v-491h-156z" />
    <glyph glyph-name="daggerdbl" unicode="&#x2021;" horiz-adv-x="423" 
d="M17 311v172h116v234h156v-234h117v-172h-117v-85h117v-172h-117v-234h-156v234h-116v172h116v85h-116z" />
    <glyph glyph-name="bullet" unicode="&#x2022;" horiz-adv-x="249" 
d="M21 311c0 14 2.66699 27.333 8 40s12.666 23.834 21.999 33.501s20.333 17.167 33 22.5s26 8 40 8s27.333 -2.66699 40 -8s23.834 -12.833 33.501 -22.5s17.167 -20.834 22.5 -33.501s8 -26 8 -40s-2.66699 -27.333 -8 -40s-12.833 -23.667 -22.5 -33
s-20.834 -16.666 -33.501 -21.999s-26 -8 -40 -8s-27.333 2.66699 -40 8s-23.667 12.666 -33 21.999s-16.666 20.333 -21.999 33s-8 26 -8 40z" />
    <glyph glyph-name="ellipsis" unicode="&#x2026;" horiz-adv-x="798" 
d="M24 97c0 14.667 2.66699 28.334 8 41.001s12.833 23.667 22.5 33s20.834 16.833 33.501 22.5s26.334 8.5 41.001 8.5s28.334 -2.83301 41.001 -8.5s23.667 -13.167 33 -22.5s16.833 -20.333 22.5 -33s8.5 -26.334 8.5 -41.001s-2.83301 -28.334 -8.5 -41.001
s-13.167 -23.834 -22.5 -33.501s-20.333 -17.167 -33 -22.5s-26.334 -8 -41.001 -8s-28.334 2.66699 -41.001 8s-23.834 12.833 -33.501 22.5s-17.167 20.834 -22.5 33.501s-8 26.334 -8 41.001zM294 97c0 14.667 2.66699 28.334 8 41.001s12.833 23.667 22.5 33
s20.834 16.833 33.501 22.5s26.334 8.5 41.001 8.5s28.334 -2.83301 41.001 -8.5s23.667 -13.167 33 -22.5s16.833 -20.333 22.5 -33s8.5 -26.334 8.5 -41.001s-2.83301 -28.334 -8.5 -41.001s-13.167 -23.834 -22.5 -33.501s-20.333 -17.167 -33 -22.5
s-26.334 -8 -41.001 -8s-28.334 2.66699 -41.001 8s-23.834 12.833 -33.501 22.5s-17.167 20.834 -22.5 33.501s-8 26.334 -8 41.001zM564 97c0 14.667 2.66699 28.334 8 41.001s12.833 23.667 22.5 33s20.834 16.833 33.501 22.5s26.334 8.5 41.001 8.5
s28.334 -2.83301 41.001 -8.5s23.667 -13.167 33 -22.5s16.833 -20.333 22.5 -33s8.5 -26.334 8.5 -41.001s-2.83301 -28.334 -8.5 -41.001s-13.167 -23.834 -22.5 -33.501s-20.333 -17.167 -33 -22.5s-26.334 -8 -41.001 -8s-28.334 2.66699 -41.001 8
s-23.834 12.833 -33.501 22.5s-17.167 20.834 -22.5 33.501s-8 26.334 -8 41.001z" />
    <glyph glyph-name="perthousand" unicode="&#x2030;" horiz-adv-x="1172" 
d="M93 -17l478 734h140l-478 -734h-140zM22 525c0 24 4 46.667 12 68s19.167 40 33.5 56s31.166 28.5 50.499 37.5s40.666 13.5 63.999 13.5c22.667 0 43.834 -4.5 63.501 -13.5s36.834 -21.5 51.501 -37.5s26 -34.667 34 -56s12 -44 12 -68c0 -24.667 -4 -47.667 -12 -69
s-19.333 -39.833 -34 -55.5s-31.834 -28 -51.501 -37s-40.834 -13.5 -63.501 -13.5c-23.333 0 -44.666 4.5 -63.999 13.5s-36.166 21.333 -50.499 37s-25.5 34.167 -33.5 55.5s-12 44.333 -12 69zM140 525c0 -15.333 3.5 -28.333 10.5 -39s17.5 -16 31.5 -16
c14.667 0 25.5 5.33301 32.5 16s10.5 23.667 10.5 39s-3.5 28.333 -10.5 39s-17.833 16 -32.5 16c-14 0 -24.5 -5.33301 -31.5 -16s-10.5 -23.667 -10.5 -39zM467 175c0 24 4 46.667 12 68s19.167 40 33.5 56s31.166 28.5 50.499 37.5s40.666 13.5 63.999 13.5
c22.667 0 43.834 -4.5 63.501 -13.5s36.834 -21.5 51.501 -37.5s26 -34.667 34 -56s12 -44 12 -68c0 -24.667 -4 -47.667 -12 -69s-19.333 -39.833 -34 -55.5s-31.834 -28 -51.501 -37s-40.834 -13.5 -63.501 -13.5c-23.333 0 -44.666 4.5 -63.999 13.5
s-36.166 21.333 -50.499 37s-25.5 34.167 -33.5 55.5s-12 44.333 -12 69zM585 175c0 -15.333 3.5 -28.333 10.5 -39s17.5 -16 31.5 -16c14.667 0 25.5 5.33301 32.5 16s10.5 23.667 10.5 39s-3.5 28.333 -10.5 39s-17.833 16 -32.5 16c-14 0 -24.5 -5.33301 -31.5 -16
s-10.5 -23.667 -10.5 -39zM835 175c0 24 4 46.667 12 68s19.167 40 33.5 56s31.166 28.5 50.499 37.5s40.666 13.5 63.999 13.5c22.667 0 43.834 -4.5 63.501 -13.5s36.834 -21.5 51.501 -37.5s26 -34.667 34 -56s12 -44 12 -68c0 -24.667 -4 -47.667 -12 -69
s-19.333 -39.833 -34 -55.5s-31.834 -28 -51.501 -37s-40.834 -13.5 -63.501 -13.5c-23.333 0 -44.666 4.5 -63.999 13.5s-36.166 21.333 -50.499 37s-25.5 34.167 -33.5 55.5s-12 44.333 -12 69zM953 175c0 -15.333 3.5 -28.333 10.5 -39s17.5 -16 31.5 -16
c14.667 0 25.5 5.33301 32.5 16s10.5 23.667 10.5 39s-3.5 28.333 -10.5 39s-17.833 16 -32.5 16c-14 0 -24.5 -5.33301 -31.5 -16s-10.5 -23.667 -10.5 -39z" />
    <glyph glyph-name="guilsinglleft" unicode="&#x2039;" horiz-adv-x="295" 
d="M184 221l88 -221h-181l-73 221l73 236h181z" />
    <glyph glyph-name="guilsinglright" unicode="&#x203a;" horiz-adv-x="295" 
d="M23 457h181l73 -236l-73 -221h-181l88 221z" />
    <glyph glyph-name="fraction" unicode="&#x2044;" horiz-adv-x="491" 
d="M12 0l311 700h156l-311 -700h-156z" />
    <glyph glyph-name="Euro" unicode="&#x20ac;" horiz-adv-x="614" 
d="M432 476v-102.998h-163c-0.666992 -4 -1 -8 -1 -12v-11v-10.5c0 -3.66699 0.333008 -7.16699 1 -10.5h163v-102h-119c13.333 -13.333 30 -23.833 50 -31.5s43.333 -11.5 70 -11.5c32 0 61 4 87 12s49.667 21.667 71 41v-174c-27.333 -24 -57.666 -42.5 -90.999 -55.5
s-69.333 -19.5 -108 -19.5c-36 0 -70 5.83301 -102 17.5s-61.167 28 -87.5 49s-49.166 46.167 -68.499 75.5s-34.333 61.666 -45 96.999h-72v102h55c-0.666992 3.33301 -1 7 -1 11v12v21h-54v103h72c10.667 35.333 25.667 67.666 45 96.999s42 54.666 68 75.999
s55.167 38 87.5 50s66.5 18 102.5 18c38.667 0 74.667 -6.66699 108 -20s63.666 -32 90.999 -56v-175c-19.333 13.333 -42.333 25.333 -69 36s-56.334 16 -89.001 16c-26 0 -48.833 -3.66699 -68.5 -11s-36.167 -17.666 -49.5 -30.999h117z" />
    <glyph glyph-name="trademark" unicode="&#x2122;" horiz-adv-x="829" 
d="M23 582v118h267v-118h-59v-291h-149v291h-59zM804 291h-150v173l-51 -173h-77l-52 173v-173h-149v409h192l47 -158l47 158h193v-409z" />
    <glyph glyph-name="partialdiff" unicode="&#x2202;" 
 />
    <glyph glyph-name="product" unicode="&#x220f;" 
 />
    <glyph glyph-name="summation" unicode="&#x2211;" 
 />
    <glyph glyph-name="minus" unicode="&#x2212;" horiz-adv-x="465" 
d="M25 225v172h415v-172h-415z" />
    <glyph glyph-name="radical" unicode="&#x221a;" 
 />
    <glyph glyph-name="infinity" unicode="&#x221e;" 
 />
    <glyph glyph-name="integral" unicode="&#x222b;" 
 />
    <glyph glyph-name="approxequal" unicode="&#x2248;" horiz-adv-x="561" 
 />
    <glyph glyph-name="notequal" unicode="&#x2260;" horiz-adv-x="497" 
d="M15 0l82 186h-55v128h112l25 55h-137v128h194l90 203h156l-90 -203h65v-128h-122l-25 -55h147v-128h-204l-82 -186h-156z" />
    <glyph glyph-name="lessequal" unicode="&#x2264;" horiz-adv-x="414" 
d="M389 248l-371 156v156l371 157v-157l-196 -74l196 -82v-156zM18 0v172h371v-172h-371z" />
    <glyph glyph-name="greaterequal" unicode="&#x2265;" horiz-adv-x="414" 
d="M25 404l196 82l-196 74v157l371 -157v-156l-371 -156v156zM25 0v172h371v-172h-371z" />
    <glyph glyph-name="lozenge" unicode="&#x25ca;" 
 />
    <glyph glyph-name="fi" unicode="&#xfb01;" horiz-adv-x="732" 
d="M399 516c-8.66699 2.66699 -18.501 6 -29.501 10s-20.833 6 -29.5 6c-10 0 -18.667 -2.66699 -26 -8s-11 -13.333 -11 -24v-17h79v-172h-79v-311h-210v311h-72v172h72v17c0 38 5 70.333 15 97s24.167 48.167 42.5 64.5s40.333 28.333 66 36s53.834 11.5 84.501 11.5
c17.333 0 34 -2.16699 50 -6.5s32 -9.5 48 -15.5v-171zM478.999 0v483h210v-483h-210zM458.999 614c0 14 3.16699 27.167 9.5 39.5s15.166 23.333 26.499 33s24.666 17.167 39.999 22.5s31.666 8 48.999 8s33.5 -2.66699 48.5 -8s28.167 -12.833 39.5 -22.5
s20.166 -20.667 26.499 -33s9.5 -25.5 9.5 -39.5s-3.16699 -27.167 -9.5 -39.5s-15.166 -23.166 -26.499 -32.499s-24.5 -16.666 -39.5 -21.999s-31.167 -8 -48.5 -8s-33.666 2.66699 -48.999 8s-28.666 12.666 -39.999 21.999s-20.166 20.166 -26.499 32.499
s-9.5 25.5 -9.5 39.5z" />
    <glyph glyph-name="fl" unicode="&#xfb02;" horiz-adv-x="693" 
d="M398 516c-8.66699 2.66699 -18.501 6 -29.501 10s-20.833 6 -29.5 6c-10 0 -18.667 -2.66699 -26 -8s-11 -13.333 -11 -24v-17h79v-172h-79v-311h-210v311h-72v172h72v17c0 38 5 70.333 15 97s24.167 48.167 42.5 64.5s40.333 28.333 66 36s53.834 11.5 84.501 11.5
c17.333 0 34 -2.16699 50 -6.5s32 -9.5 48 -15.5v-171zM457.999 0v700h210v-700h-210z" />
    <glyph glyph-name="apple" horiz-adv-x="0" 
 />
    </font>
</defs>
</svg>
